  0
SECTION
  2
HEADER
  9
$ACADVER
  1
AC1018
  0
ENDSEC
  0
SECTION
  2
TABLES
  0
TABLE
  2
LAYER
  0
LAYER
  2
L_Silicon_P
 70
0
 62
7
420
16758465
440
33554432
  0
LAYER
  2
L_Copper
 70
0
 62
7
420
12088115
440
33554432
  0
ENDTAB
  0
ENDSEC
  0
SECTION
  2
ENTITIES
  0
LWPOLYLINE
  8
Z0.0005mm_Silicon_P
420
16758465
 90
4
 70
1
 10
0.000000
 20
0.000000
 10
0.200000
 20
0.000000
 10
0.200000
 20
0.200000
 10
0.000000
 20
0.200000
  0
LWPOLYLINE
  8
Z0.0015mm_Copper
420
12088115
 90
4
 70
1
 10
0.050000
 20
0.052000
 10
0.060000
 20
0.052000
 10
0.060000
 20
0.055000
 10
0.050000
 20
0.055000
  0
LWPOLYLINE
  8
Z0.0015mm_Component_Components
420
12088115
 90
4
 70
1
 10
0.010000
 20
0.010000
 10
0.020000
 20
0.010000
 10
0.020000
 20
0.020000
 10
0.010000
 20
0.020000
  0
LWPOLYLINE
  8
Z0.0015mm_Component_Components
420
12088115
 90
4
 70
1
 10
0.025000
 20
0.010000
 10
0.035000
 20
0.010000
 10
0.035000
 20
0.020000
 10
0.025000
 20
0.020000
  0
LWPOLYLINE
  8
Z0.0015mm_Component_Components
420
12088115
 90
4
 70
1
 10
0.040000
 20
0.010000
 10
0.050000
 20
0.010000
 10
0.050000
 20
0.020000
 10
0.040000
 20
0.020000
  0
LWPOLYLINE
  8
Z0.0015mm_Component_Components
420
12088115
 90
4
 70
1
 10
0.050000
 20
0.050000
 10
0.060000
 20
0.050000
 10
0.060000
 20
0.060000
 10
0.050000
 20
0.060000
  0
LWPOLYLINE
  8
Z0.0015mm_Component_Components
420
12088115
 90
4
 70
1
 10
0.100000
 20
0.100000
 10
0.110000
 20
0.100000
 10
0.110000
 20
0.110000
 10
0.100000
 20
0.110000
  0
LWPOLYLINE
  8
Z0.0015mm_Component_Components
420
12088115
 90
4
 70
1
 10
0.112000
 20
0.100000
 10
0.122000
 20
0.100000
 10
0.122000
 20
0.110000
 10
0.112000
 20
0.110000
  0
LWPOLYLINE
  8
Z0.0015mm_Component_Components
420
12088115
 90
4
 70
1
 10
0.150000
 20
0.150000
 10
0.160000
 20
0.150000
 10
0.160000
 20
0.160000
 10
0.150000
 20
0.160000
  0
LWPOLYLINE
  8
Z0.0015mm_Component_Components
420
12088115
 90
4
 70
1
 10
0.162000
 20
0.150000
 10
0.172000
 20
0.150000
 10
0.172000
 20
0.160000
 10
0.162000
 20
0.160000
  0
ENDSEC
  0
EOF
