  0
SECTION
  2
HEADER
  9
$ACADVER
  1
AC1018
  0
ENDSEC
  0
SECTION
  2
TABLES
  0
TABLE
  2
LAYER
  0
LAYER
  2
DRILL
 70
0
 62
0
  0
LAYER
  2
TOP_COMPONENTS
 70
0
 62
7
  0
LAYER
  2
BOTTOM_COMPONENTS
 70
0
 62
7
  0
LAYER
  2
PCB_LAYERS
 70
0
 62
7
  0
ENDTAB
  0
ENDSEC
  0
SECTION
  2
ENTITIES
  0
LWPOLYLINE
  8
PCB_LAYERS
420
12088115
 90
64
 70
1
 10
2.039206
 20
2.601927
 10
2.078036
 20
2.607686
 10
2.116113
 20
2.617224
 10
2.153073
 20
2.630449
 10
2.188558
 20
2.647232
 10
2.222228
 20
2.667413
 10
2.253757
 20
2.690796
 10
2.282842
 20
2.717158
 10
2.309204
 20
2.746243
 10
2.332587
 20
2.777772
 10
2.352768
 20
2.811442
 10
2.369551
 20
2.846927
 10
2.382776
 20
2.883887
 10
2.392314
 20
2.921964
 10
2.398073
 20
2.960794
 10
2.400000
 20
3.000000
 10
2.398073
 20
3.039206
 10
2.392314
 20
3.078036
 10
2.382776
 20
3.116113
 10
2.369551
 20
3.153073
 10
2.352768
 20
3.188558
 10
2.332587
 20
3.222228
 10
2.309204
 20
3.253757
 10
2.282842
 20
3.282842
 10
2.253757
 20
3.309204
 10
2.222228
 20
3.332587
 10
2.188558
 20
3.352768
 10
2.153073
 20
3.369551
 10
2.116113
 20
3.382776
 10
2.078036
 20
3.392314
 10
2.039206
 20
3.398073
 10
2.000000
 20
3.400000
 10
1.960794
 20
3.398073
 10
1.921964
 20
3.392314
 10
1.883887
 20
3.382776
 10
1.846927
 20
3.369551
 10
1.811442
 20
3.352768
 10
1.777772
 20
3.332587
 10
1.746243
 20
3.309204
 10
1.717158
 20
3.282842
 10
1.690796
 20
3.253757
 10
1.667413
 20
3.222228
 10
1.647232
 20
3.188558
 10
1.630449
 20
3.153073
 10
1.617224
 20
3.116113
 10
1.607686
 20
3.078036
 10
1.601927
 20
3.039206
 10
1.600000
 20
3.000000
 10
1.601927
 20
2.960794
 10
1.607686
 20
2.921964
 10
1.617224
 20
2.883887
 10
1.630449
 20
2.846927
 10
1.647232
 20
2.811442
 10
1.667413
 20
2.777772
 10
1.690796
 20
2.746243
 10
1.717158
 20
2.717158
 10
1.746243
 20
2.690796
 10
1.777772
 20
2.667413
 10
1.811442
 20
2.647232
 10
1.846927
 20
2.630449
 10
1.883887
 20
2.617224
 10
1.921964
 20
2.607686
 10
1.960794
 20
2.601927
 10
2.000000
 20
2.600000
  0
LWPOLYLINE
  8
PCB_LAYERS
420
12088115
 90
64
 70
1
 10
8.029405
 20
2.701445
 10
8.058527
 20
2.705765
 10
8.087085
 20
2.712918
 10
8.114805
 20
2.722837
 10
8.141419
 20
2.735424
 10
8.166671
 20
2.750560
 10
8.190317
 20
2.768097
 10
8.212132
 20
2.787868
 10
8.231903
 20
2.809683
 10
8.249440
 20
2.833329
 10
8.264576
 20
2.858581
 10
8.277163
 20
2.885195
 10
8.287082
 20
2.912915
 10
8.294235
 20
2.941473
 10
8.298555
 20
2.970595
 10
8.300000
 20
3.000000
 10
8.298555
 20
3.029405
 10
8.294235
 20
3.058527
 10
8.287082
 20
3.087085
 10
8.277163
 20
3.114805
 10
8.264576
 20
3.141419
 10
8.249440
 20
3.166671
 10
8.231903
 20
3.190317
 10
8.212132
 20
3.212132
 10
8.190317
 20
3.231903
 10
8.166671
 20
3.249440
 10
8.141419
 20
3.264576
 10
8.114805
 20
3.277163
 10
8.087085
 20
3.287082
 10
8.058527
 20
3.294235
 10
8.029405
 20
3.298555
 10
8.000000
 20
3.300000
 10
7.970595
 20
3.298555
 10
7.941473
 20
3.294235
 10
7.912915
 20
3.287082
 10
7.885195
 20
3.277163
 10
7.858581
 20
3.264576
 10
7.833329
 20
3.249440
 10
7.809683
 20
3.231903
 10
7.787868
 20
3.212132
 10
7.768097
 20
3.190317
 10
7.750560
 20
3.166671
 10
7.735424
 20
3.141419
 10
7.722837
 20
3.114805
 10
7.712918
 20
3.087085
 10
7.705765
 20
3.058527
 10
7.701445
 20
3.029405
 10
7.700000
 20
3.000000
 10
7.701445
 20
2.970595
 10
7.705765
 20
2.941473
 10
7.712918
 20
2.912915
 10
7.722837
 20
2.885195
 10
7.735424
 20
2.858581
 10
7.750560
 20
2.833329
 10
7.768097
 20
2.809683
 10
7.787868
 20
2.787868
 10
7.809683
 20
2.768097
 10
7.833329
 20
2.750560
 10
7.858581
 20
2.735424
 10
7.885195
 20
2.722837
 10
7.912915
 20
2.712918
 10
7.941473
 20
2.705765
 10
7.970595
 20
2.701445
 10
8.000000
 20
2.700000
  0
LWPOLYLINE
  8
PCB_LAYERS
420
12088115
 90
64
 70
1
 10
1.982848
 20
2.825843
 10
1.965860
 20
2.828363
 10
1.949201
 20
2.832536
 10
1.933031
 20
2.838322
 10
1.917506
 20
2.845664
 10
1.902776
 20
2.854493
 10
1.888982
 20
2.864724
 10
1.876257
 20
2.876257
 10
1.864724
 20
2.888982
 10
1.854493
 20
2.902776
 10
1.845664
 20
2.917506
 10
1.838322
 20
2.933031
 10
1.832536
 20
2.949201
 10
1.828363
 20
2.965860
 10
1.825843
 20
2.982848
 10
1.825000
 20
3.000000
 10
1.825843
 20
3.017152
 10
1.828363
 20
3.034140
 10
1.832536
 20
3.050799
 10
1.838322
 20
3.066969
 10
1.845664
 20
3.082494
 10
1.854493
 20
3.097224
 10
1.864724
 20
3.111018
 10
1.876257
 20
3.123743
 10
1.888982
 20
3.135276
 10
1.902776
 20
3.145507
 10
1.917506
 20
3.154336
 10
1.933031
 20
3.161678
 10
1.949201
 20
3.167464
 10
1.965860
 20
3.171637
 10
1.982848
 20
3.174157
 10
2.000000
 20
3.175000
 10
2.017152
 20
3.174157
 10
2.034140
 20
3.171637
 10
2.050799
 20
3.167464
 10
2.066969
 20
3.161678
 10
2.082494
 20
3.154336
 10
2.097224
 20
3.145507
 10
2.111018
 20
3.135276
 10
2.123743
 20
3.123743
 10
2.135276
 20
3.111018
 10
2.145507
 20
3.097224
 10
2.154336
 20
3.082494
 10
2.161678
 20
3.066969
 10
2.167464
 20
3.050799
 10
2.171637
 20
3.034140
 10
2.174157
 20
3.017152
 10
2.175000
 20
3.000000
 10
2.174157
 20
2.982848
 10
2.171637
 20
2.965860
 10
2.167464
 20
2.949201
 10
2.161678
 20
2.933031
 10
2.154336
 20
2.917506
 10
2.145507
 20
2.902776
 10
2.135276
 20
2.888982
 10
2.123743
 20
2.876257
 10
2.111018
 20
2.864724
 10
2.097224
 20
2.854493
 10
2.082494
 20
2.845664
 10
2.066969
 20
2.838322
 10
2.050799
 20
2.832536
 10
2.034140
 20
2.828363
 10
2.017152
 20
2.825843
 10
2.000000
 20
2.825000
  0
LWPOLYLINE
  8
PCB_LAYERS
420
12088115
 90
64
 70
1
 10
7.987748
 20
2.875602
 10
7.975614
 20
2.877402
 10
7.963715
 20
2.880383
 10
7.952165
 20
2.884516
 10
7.941076
 20
2.889760
 10
7.930554
 20
2.896067
 10
7.920701
 20
2.903374
 10
7.911612
 20
2.911612
 10
7.903374
 20
2.920701
 10
7.896067
 20
2.930554
 10
7.889760
 20
2.941076
 10
7.884516
 20
2.952165
 10
7.880383
 20
2.963715
 10
7.877402
 20
2.975614
 10
7.875602
 20
2.987748
 10
7.875000
 20
3.000000
 10
7.875602
 20
3.012252
 10
7.877402
 20
3.024386
 10
7.880383
 20
3.036285
 10
7.884516
 20
3.047835
 10
7.889760
 20
3.058924
 10
7.896067
 20
3.069446
 10
7.903374
 20
3.079299
 10
7.911612
 20
3.088388
 10
7.920701
 20
3.096626
 10
7.930554
 20
3.103933
 10
7.941076
 20
3.110240
 10
7.952165
 20
3.115484
 10
7.963715
 20
3.119617
 10
7.975614
 20
3.122598
 10
7.987748
 20
3.124398
 10
8.000000
 20
3.125000
 10
8.012252
 20
3.124398
 10
8.024386
 20
3.122598
 10
8.036285
 20
3.119617
 10
8.047835
 20
3.115484
 10
8.058924
 20
3.110240
 10
8.069446
 20
3.103933
 10
8.079299
 20
3.096626
 10
8.088388
 20
3.088388
 10
8.096626
 20
3.079299
 10
8.103933
 20
3.069446
 10
8.110240
 20
3.058924
 10
8.115484
 20
3.047835
 10
8.119617
 20
3.036285
 10
8.122598
 20
3.024386
 10
8.124398
 20
3.012252
 10
8.125000
 20
3.000000
 10
8.124398
 20
2.987748
 10
8.122598
 20
2.975614
 10
8.119617
 20
2.963715
 10
8.115484
 20
2.952165
 10
8.110240
 20
2.941076
 10
8.103933
 20
2.930554
 10
8.096626
 20
2.920701
 10
8.088388
 20
2.911612
 10
8.079299
 20
2.903374
 10
8.069446
 20
2.896067
 10
8.058924
 20
2.889760
 10
8.047835
 20
2.884516
 10
8.036285
 20
2.880383
 10
8.024386
 20
2.877402
 10
8.012252
 20
2.875602
 10
8.000000
 20
2.875000
  0
LWPOLYLINE
  8
PCB_LAYERS
420
12088115
 90
64
 70
1
 10
8.029405
 20
2.701445
 10
8.058527
 20
2.705765
 10
8.087085
 20
2.712918
 10
8.114805
 20
2.722837
 10
8.141419
 20
2.735424
 10
8.166671
 20
2.750560
 10
8.190317
 20
2.768097
 10
8.212132
 20
2.787868
 10
8.231903
 20
2.809683
 10
8.249440
 20
2.833329
 10
8.264576
 20
2.858581
 10
8.277163
 20
2.885195
 10
8.287082
 20
2.912915
 10
8.294235
 20
2.941473
 10
8.298555
 20
2.970595
 10
8.300000
 20
3.000000
 10
8.298555
 20
3.029405
 10
8.294235
 20
3.058527
 10
8.287082
 20
3.087085
 10
8.277163
 20
3.114805
 10
8.264576
 20
3.141419
 10
8.249440
 20
3.166671
 10
8.231903
 20
3.190317
 10
8.212132
 20
3.212132
 10
8.190317
 20
3.231903
 10
8.166671
 20
3.249440
 10
8.141419
 20
3.264576
 10
8.114805
 20
3.277163
 10
8.087085
 20
3.287082
 10
8.058527
 20
3.294235
 10
8.029405
 20
3.298555
 10
8.000000
 20
3.300000
 10
7.970595
 20
3.298555
 10
7.941473
 20
3.294235
 10
7.912915
 20
3.287082
 10
7.885195
 20
3.277163
 10
7.858581
 20
3.264576
 10
7.833329
 20
3.249440
 10
7.809683
 20
3.231903
 10
7.787868
 20
3.212132
 10
7.768097
 20
3.190317
 10
7.750560
 20
3.166671
 10
7.735424
 20
3.141419
 10
7.722837
 20
3.114805
 10
7.712918
 20
3.087085
 10
7.705765
 20
3.058527
 10
7.701445
 20
3.029405
 10
7.700000
 20
3.000000
 10
7.701445
 20
2.970595
 10
7.705765
 20
2.941473
 10
7.712918
 20
2.912915
 10
7.722837
 20
2.885195
 10
7.735424
 20
2.858581
 10
7.750560
 20
2.833329
 10
7.768097
 20
2.809683
 10
7.787868
 20
2.787868
 10
7.809683
 20
2.768097
 10
7.833329
 20
2.750560
 10
7.858581
 20
2.735424
 10
7.885195
 20
2.722837
 10
7.912915
 20
2.712918
 10
7.941473
 20
2.705765
 10
7.970595
 20
2.701445
 10
8.000000
 20
2.700000
  0
LWPOLYLINE
  8
PCB_LAYERS
420
12088115
 90
30
 70
1
 10
7.884049
 20
2.904842
 10
7.875280
 20
2.916665
 10
7.867712
 20
2.929291
 10
7.861419
 20
2.942598
 10
7.856459
 20
2.956458
 10
7.852883
 20
2.970737
 10
7.850723
 20
2.985298
 10
7.850000
 20
3.000000
 10
7.850723
 20
3.014702
 10
7.852883
 20
3.029263
 10
7.856459
 20
3.043542
 10
7.861419
 20
3.057402
 10
7.867712
 20
3.070709
 10
7.875280
 20
3.083335
 10
7.884049
 20
3.095158
 10
7.888437
 20
3.100000
 10
2.172955
 20
3.100000
 10
2.176384
 20
3.094279
 10
2.184775
 20
3.076536
 10
2.191388
 20
3.058056
 10
2.196157
 20
3.039018
 10
2.199036
 20
3.019603
 10
2.200000
 20
3.000000
 10
2.199036
 20
2.980397
 10
2.196157
 20
2.960982
 10
2.191388
 20
2.941944
 10
2.184775
 20
2.923464
 10
2.176384
 20
2.905721
 10
2.172955
 20
2.900000
 10
7.888437
 20
2.900000
  0
LWPOLYLINE
  8
PCB_LAYERS
420
12088115
 90
64
 70
1
 10
2.039206
 20
2.601927
 10
2.078036
 20
2.607686
 10
2.116113
 20
2.617224
 10
2.153073
 20
2.630449
 10
2.188558
 20
2.647232
 10
2.222228
 20
2.667413
 10
2.253757
 20
2.690796
 10
2.282842
 20
2.717158
 10
2.309204
 20
2.746243
 10
2.332587
 20
2.777772
 10
2.352768
 20
2.811442
 10
2.369551
 20
2.846927
 10
2.382776
 20
2.883887
 10
2.392314
 20
2.921964
 10
2.398073
 20
2.960794
 10
2.400000
 20
3.000000
 10
2.398073
 20
3.039206
 10
2.392314
 20
3.078036
 10
2.382776
 20
3.116113
 10
2.369551
 20
3.153073
 10
2.352768
 20
3.188558
 10
2.332587
 20
3.222228
 10
2.309204
 20
3.253757
 10
2.282842
 20
3.282842
 10
2.253757
 20
3.309204
 10
2.222228
 20
3.332587
 10
2.188558
 20
3.352768
 10
2.153073
 20
3.369551
 10
2.116113
 20
3.382776
 10
2.078036
 20
3.392314
 10
2.039206
 20
3.398073
 10
2.000000
 20
3.400000
 10
1.960794
 20
3.398073
 10
1.921964
 20
3.392314
 10
1.883887
 20
3.382776
 10
1.846927
 20
3.369551
 10
1.811442
 20
3.352768
 10
1.777772
 20
3.332587
 10
1.746243
 20
3.309204
 10
1.717158
 20
3.282842
 10
1.690796
 20
3.253757
 10
1.667413
 20
3.222228
 10
1.647232
 20
3.188558
 10
1.630449
 20
3.153073
 10
1.617224
 20
3.116113
 10
1.607686
 20
3.078036
 10
1.601927
 20
3.039206
 10
1.600000
 20
3.000000
 10
1.601927
 20
2.960794
 10
1.607686
 20
2.921964
 10
1.617224
 20
2.883887
 10
1.630449
 20
2.846927
 10
1.647232
 20
2.811442
 10
1.667413
 20
2.777772
 10
1.690796
 20
2.746243
 10
1.717158
 20
2.717158
 10
1.746243
 20
2.690796
 10
1.777772
 20
2.667413
 10
1.811442
 20
2.647232
 10
1.846927
 20
2.630449
 10
1.883887
 20
2.617224
 10
1.921964
 20
2.607686
 10
1.960794
 20
2.601927
 10
2.000000
 20
2.600000
  0
LWPOLYLINE
  8
PCB_LAYERS
420
12088115
 90
64
 70
1
 10
1.982848
 20
2.825843
 10
1.965860
 20
2.828363
 10
1.949201
 20
2.832536
 10
1.933031
 20
2.838322
 10
1.917506
 20
2.845664
 10
1.902776
 20
2.854493
 10
1.888982
 20
2.864724
 10
1.876257
 20
2.876257
 10
1.864724
 20
2.888982
 10
1.854493
 20
2.902776
 10
1.845664
 20
2.917506
 10
1.838322
 20
2.933031
 10
1.832536
 20
2.949201
 10
1.828363
 20
2.965860
 10
1.825843
 20
2.982848
 10
1.825000
 20
3.000000
 10
1.825843
 20
3.017152
 10
1.828363
 20
3.034140
 10
1.832536
 20
3.050799
 10
1.838322
 20
3.066969
 10
1.845664
 20
3.082494
 10
1.854493
 20
3.097224
 10
1.864724
 20
3.111018
 10
1.876257
 20
3.123743
 10
1.888982
 20
3.135276
 10
1.902776
 20
3.145507
 10
1.917506
 20
3.154336
 10
1.933031
 20
3.161678
 10
1.949201
 20
3.167464
 10
1.965860
 20
3.171637
 10
1.982848
 20
3.174157
 10
2.000000
 20
3.175000
 10
2.017152
 20
3.174157
 10
2.034140
 20
3.171637
 10
2.050799
 20
3.167464
 10
2.066969
 20
3.161678
 10
2.082494
 20
3.154336
 10
2.097224
 20
3.145507
 10
2.111018
 20
3.135276
 10
2.123743
 20
3.123743
 10
2.135276
 20
3.111018
 10
2.145507
 20
3.097224
 10
2.154336
 20
3.082494
 10
2.161678
 20
3.066969
 10
2.167464
 20
3.050799
 10
2.171637
 20
3.034140
 10
2.174157
 20
3.017152
 10
2.175000
 20
3.000000
 10
2.174157
 20
2.982848
 10
2.171637
 20
2.965860
 10
2.167464
 20
2.949201
 10
2.161678
 20
2.933031
 10
2.154336
 20
2.917506
 10
2.145507
 20
2.902776
 10
2.135276
 20
2.888982
 10
2.123743
 20
2.876257
 10
2.111018
 20
2.864724
 10
2.097224
 20
2.854493
 10
2.082494
 20
2.845664
 10
2.066969
 20
2.838322
 10
2.050799
 20
2.832536
 10
2.034140
 20
2.828363
 10
2.017152
 20
2.825843
 10
2.000000
 20
2.825000
  0
ENDSEC
  0
EOF
