  0
SECTION
  2
HEADER
  9
$ACADVER
  1
AC1018
  0
ENDSEC
  0
SECTION
  2
TABLES
  0
TABLE
  2
LAYER
  0
LAYER
  2
Silicon_Dioxide
 70
0
 62
7
  0
LAYER
  2
P_Plus_Diffusion
 70
0
 62
7
  0
LAYER
  2
N_Well_Mask
 70
0
 62
7
  0
LAYER
  2
P_Plus_Implant_Mask
 70
0
 62
7
  0
LAYER
  2
Polysilicon
 70
0
 62
7
  0
LAYER
  2
Nitride_Poly_Cut_Mask
 70
0
 62
7
  0
LAYER
  2
Titanium_Nitride
 70
0
 62
7
  0
LAYER
  2
Aluminum
 70
0
 62
7
  0
LAYER
  2
Tungsten
 70
0
 62
7
  0
LAYER
  2
Tap_Mask
 70
0
 62
7
  0
LAYER
  2
N_Plus_Implant_Mask
 70
0
 62
7
  0
LAYER
  2
N_Plus_Diffusion
 70
0
 62
7
  0
ENDTAB
  0
ENDSEC
  0
SECTION
  2
ENTITIES
  0
LWPOLYLINE
  8
N_Plus_Diffusion
420
9498256
 90
4
 70
1
 10
0.008925
 20
0.005700
 10
0.007075
 20
0.005700
 10
0.007075
 20
0.004700
 10
0.008925
 20
0.004700
  0
LWPOLYLINE
  8
N_Plus_Diffusion
420
9498256
 90
4
 70
1
 10
0.007650
 20
0.015550
 10
0.007350
 20
0.015550
 10
0.007350
 20
0.015250
 10
0.007650
 20
0.015250
  0
LWPOLYLINE
  8
P_Plus_Diffusion
420
16744576
 90
4
 70
1
 10
0.008925
 20
0.014800
 10
0.007075
 20
0.014800
 10
0.007075
 20
0.012800
 10
0.008925
 20
0.012800
  0
LWPOLYLINE
  8
P_Plus_Diffusion
420
16744576
 90
4
 70
1
 10
0.007650
 20
0.003750
 10
0.007350
 20
0.003750
 10
0.007350
 20
0.003450
 10
0.007650
 20
0.003450
  0
LWPOLYLINE
  8
Tungsten
420
8421631
 90
4
 70
1
 10
0.007585
 20
0.015485
 10
0.007415
 20
0.015485
 10
0.007415
 20
0.015315
 10
0.007585
 20
0.015315
  0
LWPOLYLINE
  8
Tungsten
420
8421631
 90
4
 70
1
 10
0.007585
 20
0.014285
 10
0.007415
 20
0.014285
 10
0.007415
 20
0.014115
 10
0.007585
 20
0.014115
  0
LWPOLYLINE
  8
Tungsten
420
8421631
 90
4
 70
1
 10
0.007585
 20
0.013885
 10
0.007415
 20
0.013885
 10
0.007415
 20
0.013715
 10
0.007585
 20
0.013715
  0
LWPOLYLINE
  8
Tungsten
420
8421631
 90
4
 70
1
 10
0.007585
 20
0.013485
 10
0.007415
 20
0.013485
 10
0.007415
 20
0.013315
 10
0.007585
 20
0.013315
  0
LWPOLYLINE
  8
Tungsten
420
8421631
 90
4
 70
1
 10
0.007585
 20
0.005485
 10
0.007415
 20
0.005485
 10
0.007415
 20
0.005315
 10
0.007585
 20
0.005315
  0
LWPOLYLINE
  8
Tungsten
420
8421631
 90
4
 70
1
 10
0.007585
 20
0.005085
 10
0.007415
 20
0.005085
 10
0.007415
 20
0.004915
 10
0.007585
 20
0.004915
  0
LWPOLYLINE
  8
Tungsten
420
8421631
 90
4
 70
1
 10
0.007585
 20
0.003685
 10
0.007415
 20
0.003685
 10
0.007415
 20
0.003515
 10
0.007585
 20
0.003515
  0
LWPOLYLINE
  8
Tungsten
420
8421631
 90
4
 70
1
 10
0.008585
 20
0.014285
 10
0.008415
 20
0.014285
 10
0.008415
 20
0.014115
 10
0.008585
 20
0.014115
  0
LWPOLYLINE
  8
Tungsten
420
8421631
 90
4
 70
1
 10
0.008585
 20
0.013885
 10
0.008415
 20
0.013885
 10
0.008415
 20
0.013715
 10
0.008585
 20
0.013715
  0
LWPOLYLINE
  8
Tungsten
420
8421631
 90
4
 70
1
 10
0.008585
 20
0.013485
 10
0.008415
 20
0.013485
 10
0.008415
 20
0.013315
 10
0.008585
 20
0.013315
  0
LWPOLYLINE
  8
Tungsten
420
8421631
 90
4
 70
1
 10
0.008585
 20
0.005485
 10
0.008415
 20
0.005485
 10
0.008415
 20
0.005315
 10
0.008585
 20
0.005315
  0
LWPOLYLINE
  8
Tungsten
420
8421631
 90
4
 70
1
 10
0.008585
 20
0.005085
 10
0.008415
 20
0.005085
 10
0.008415
 20
0.004915
 10
0.008585
 20
0.004915
  0
LWPOLYLINE
  8
Tungsten
420
8421631
 90
4
 70
1
 10
0.007585
 20
0.015485
 10
0.007415
 20
0.015485
 10
0.007415
 20
0.015315
 10
0.007585
 20
0.015315
  0
LWPOLYLINE
  8
Tungsten
420
8421631
 90
4
 70
1
 10
0.007585
 20
0.014285
 10
0.007415
 20
0.014285
 10
0.007415
 20
0.014115
 10
0.007585
 20
0.014115
  0
LWPOLYLINE
  8
Tungsten
420
8421631
 90
4
 70
1
 10
0.007585
 20
0.013885
 10
0.007415
 20
0.013885
 10
0.007415
 20
0.013715
 10
0.007585
 20
0.013715
  0
LWPOLYLINE
  8
Tungsten
420
8421631
 90
4
 70
1
 10
0.007585
 20
0.013485
 10
0.007415
 20
0.013485
 10
0.007415
 20
0.013315
 10
0.007585
 20
0.013315
  0
LWPOLYLINE
  8
Tungsten
420
8421631
 90
4
 70
1
 10
0.007585
 20
0.005485
 10
0.007415
 20
0.005485
 10
0.007415
 20
0.005315
 10
0.007585
 20
0.005315
  0
LWPOLYLINE
  8
Tungsten
420
8421631
 90
4
 70
1
 10
0.007585
 20
0.005085
 10
0.007415
 20
0.005085
 10
0.007415
 20
0.004915
 10
0.007585
 20
0.004915
  0
LWPOLYLINE
  8
Tungsten
420
8421631
 90
4
 70
1
 10
0.007585
 20
0.003685
 10
0.007415
 20
0.003685
 10
0.007415
 20
0.003515
 10
0.007585
 20
0.003515
  0
LWPOLYLINE
  8
Tungsten
420
8421631
 90
4
 70
1
 10
0.008585
 20
0.014285
 10
0.008415
 20
0.014285
 10
0.008415
 20
0.014115
 10
0.008585
 20
0.014115
  0
LWPOLYLINE
  8
Tungsten
420
8421631
 90
4
 70
1
 10
0.008585
 20
0.013885
 10
0.008415
 20
0.013885
 10
0.008415
 20
0.013715
 10
0.008585
 20
0.013715
  0
LWPOLYLINE
  8
Tungsten
420
8421631
 90
4
 70
1
 10
0.008585
 20
0.013485
 10
0.008415
 20
0.013485
 10
0.008415
 20
0.013315
 10
0.008585
 20
0.013315
  0
LWPOLYLINE
  8
Tungsten
420
8421631
 90
4
 70
1
 10
0.008585
 20
0.005485
 10
0.008415
 20
0.005485
 10
0.008415
 20
0.005315
 10
0.008585
 20
0.005315
  0
LWPOLYLINE
  8
Tungsten
420
8421631
 90
4
 70
1
 10
0.008585
 20
0.005085
 10
0.008415
 20
0.005085
 10
0.008415
 20
0.004915
 10
0.008585
 20
0.004915
  0
LWPOLYLINE
  8
Polysilicon
420
16736352
 90
8
 70
1
 10
0.008075
 20
0.015000
 10
0.007925
 20
0.015000
 10
0.007925
 20
0.012600
 10
0.007850
 20
0.012600
 10
0.007850
 20
0.012300
 10
0.008150
 20
0.012300
 10
0.008150
 20
0.012600
 10
0.008075
 20
0.012600
  0
LWPOLYLINE
  8
Polysilicon
420
16736352
 90
8
 70
1
 10
0.008150
 20
0.006200
 10
0.007850
 20
0.006200
 10
0.007850
 20
0.005900
 10
0.007925
 20
0.005900
 10
0.007925
 20
0.004500
 10
0.008075
 20
0.004500
 10
0.008075
 20
0.005900
 10
0.008150
 20
0.005900
  0
LWPOLYLINE
  8
Tungsten
420
8421631
 90
4
 70
1
 10
0.008085
 20
0.012535
 10
0.007915
 20
0.012535
 10
0.007915
 20
0.012365
 10
0.008085
 20
0.012365
  0
LWPOLYLINE
  8
Tungsten
420
8421631
 90
4
 70
1
 10
0.008085
 20
0.006135
 10
0.007915
 20
0.006135
 10
0.007915
 20
0.005965
 10
0.008085
 20
0.005965
  0
LWPOLYLINE
  8
Tungsten
420
8421631
 90
4
 70
1
 10
0.007585
 20
0.015485
 10
0.007415
 20
0.015485
 10
0.007415
 20
0.015315
 10
0.007585
 20
0.015315
  0
LWPOLYLINE
  8
Tungsten
420
8421631
 90
4
 70
1
 10
0.007585
 20
0.014285
 10
0.007415
 20
0.014285
 10
0.007415
 20
0.014115
 10
0.007585
 20
0.014115
  0
LWPOLYLINE
  8
Tungsten
420
8421631
 90
4
 70
1
 10
0.007585
 20
0.013885
 10
0.007415
 20
0.013885
 10
0.007415
 20
0.013715
 10
0.007585
 20
0.013715
  0
LWPOLYLINE
  8
Tungsten
420
8421631
 90
4
 70
1
 10
0.007585
 20
0.013485
 10
0.007415
 20
0.013485
 10
0.007415
 20
0.013315
 10
0.007585
 20
0.013315
  0
LWPOLYLINE
  8
Tungsten
420
8421631
 90
4
 70
1
 10
0.007585
 20
0.005485
 10
0.007415
 20
0.005485
 10
0.007415
 20
0.005315
 10
0.007585
 20
0.005315
  0
LWPOLYLINE
  8
Tungsten
420
8421631
 90
4
 70
1
 10
0.007585
 20
0.005085
 10
0.007415
 20
0.005085
 10
0.007415
 20
0.004915
 10
0.007585
 20
0.004915
  0
LWPOLYLINE
  8
Tungsten
420
8421631
 90
4
 70
1
 10
0.007585
 20
0.003685
 10
0.007415
 20
0.003685
 10
0.007415
 20
0.003515
 10
0.007585
 20
0.003515
  0
LWPOLYLINE
  8
Tungsten
420
8421631
 90
4
 70
1
 10
0.008085
 20
0.012535
 10
0.007915
 20
0.012535
 10
0.007915
 20
0.012365
 10
0.008085
 20
0.012365
  0
LWPOLYLINE
  8
Tungsten
420
8421631
 90
4
 70
1
 10
0.008085
 20
0.006135
 10
0.007915
 20
0.006135
 10
0.007915
 20
0.005965
 10
0.008085
 20
0.005965
  0
LWPOLYLINE
  8
Tungsten
420
8421631
 90
4
 70
1
 10
0.008585
 20
0.014285
 10
0.008415
 20
0.014285
 10
0.008415
 20
0.014115
 10
0.008585
 20
0.014115
  0
LWPOLYLINE
  8
Tungsten
420
8421631
 90
4
 70
1
 10
0.008585
 20
0.013885
 10
0.008415
 20
0.013885
 10
0.008415
 20
0.013715
 10
0.008585
 20
0.013715
  0
LWPOLYLINE
  8
Tungsten
420
8421631
 90
4
 70
1
 10
0.008585
 20
0.013485
 10
0.008415
 20
0.013485
 10
0.008415
 20
0.013315
 10
0.008585
 20
0.013315
  0
LWPOLYLINE
  8
Tungsten
420
8421631
 90
4
 70
1
 10
0.008585
 20
0.005485
 10
0.008415
 20
0.005485
 10
0.008415
 20
0.005315
 10
0.008585
 20
0.005315
  0
LWPOLYLINE
  8
Tungsten
420
8421631
 90
4
 70
1
 10
0.008585
 20
0.005085
 10
0.008415
 20
0.005085
 10
0.008415
 20
0.004915
 10
0.008585
 20
0.004915
  0
LWPOLYLINE
  8
Tungsten
420
8421631
 90
4
 70
1
 10
0.007585
 20
0.015485
 10
0.007415
 20
0.015485
 10
0.007415
 20
0.015315
 10
0.007585
 20
0.015315
  0
LWPOLYLINE
  8
Tungsten
420
8421631
 90
4
 70
1
 10
0.007585
 20
0.014285
 10
0.007415
 20
0.014285
 10
0.007415
 20
0.014115
 10
0.007585
 20
0.014115
  0
LWPOLYLINE
  8
Tungsten
420
8421631
 90
4
 70
1
 10
0.007585
 20
0.013885
 10
0.007415
 20
0.013885
 10
0.007415
 20
0.013715
 10
0.007585
 20
0.013715
  0
LWPOLYLINE
  8
Tungsten
420
8421631
 90
4
 70
1
 10
0.007585
 20
0.013485
 10
0.007415
 20
0.013485
 10
0.007415
 20
0.013315
 10
0.007585
 20
0.013315
  0
LWPOLYLINE
  8
Tungsten
420
8421631
 90
4
 70
1
 10
0.007585
 20
0.005485
 10
0.007415
 20
0.005485
 10
0.007415
 20
0.005315
 10
0.007585
 20
0.005315
  0
LWPOLYLINE
  8
Tungsten
420
8421631
 90
4
 70
1
 10
0.007585
 20
0.005085
 10
0.007415
 20
0.005085
 10
0.007415
 20
0.004915
 10
0.007585
 20
0.004915
  0
LWPOLYLINE
  8
Tungsten
420
8421631
 90
4
 70
1
 10
0.007585
 20
0.003685
 10
0.007415
 20
0.003685
 10
0.007415
 20
0.003515
 10
0.007585
 20
0.003515
  0
LWPOLYLINE
  8
Tungsten
420
8421631
 90
4
 70
1
 10
0.008085
 20
0.012535
 10
0.007915
 20
0.012535
 10
0.007915
 20
0.012365
 10
0.008085
 20
0.012365
  0
LWPOLYLINE
  8
Tungsten
420
8421631
 90
4
 70
1
 10
0.008085
 20
0.006135
 10
0.007915
 20
0.006135
 10
0.007915
 20
0.005965
 10
0.008085
 20
0.005965
  0
LWPOLYLINE
  8
Tungsten
420
8421631
 90
4
 70
1
 10
0.008585
 20
0.014285
 10
0.008415
 20
0.014285
 10
0.008415
 20
0.014115
 10
0.008585
 20
0.014115
  0
LWPOLYLINE
  8
Tungsten
420
8421631
 90
4
 70
1
 10
0.008585
 20
0.013885
 10
0.008415
 20
0.013885
 10
0.008415
 20
0.013715
 10
0.008585
 20
0.013715
  0
LWPOLYLINE
  8
Tungsten
420
8421631
 90
4
 70
1
 10
0.008585
 20
0.013485
 10
0.008415
 20
0.013485
 10
0.008415
 20
0.013315
 10
0.008585
 20
0.013315
  0
LWPOLYLINE
  8
Tungsten
420
8421631
 90
4
 70
1
 10
0.008585
 20
0.005485
 10
0.008415
 20
0.005485
 10
0.008415
 20
0.005315
 10
0.008585
 20
0.005315
  0
LWPOLYLINE
  8
Tungsten
420
8421631
 90
4
 70
1
 10
0.008585
 20
0.005085
 10
0.008415
 20
0.005085
 10
0.008415
 20
0.004915
 10
0.008585
 20
0.004915
  0
LWPOLYLINE
  8
Titanium_Nitride
420
13938487
 90
4
 70
1
 10
0.007650
 20
0.015550
 10
0.007350
 20
0.015550
 10
0.007350
 20
0.015250
 10
0.007650
 20
0.015250
  0
LWPOLYLINE
  8
Titanium_Nitride
420
13938487
 90
4
 70
1
 10
0.007650
 20
0.014800
 10
0.007350
 20
0.014800
 10
0.007350
 20
0.012800
 10
0.007650
 20
0.012800
  0
LWPOLYLINE
  8
Titanium_Nitride
420
13938487
 90
4
 70
1
 10
0.007650
 20
0.005700
 10
0.007350
 20
0.005700
 10
0.007350
 20
0.004700
 10
0.007650
 20
0.004700
  0
LWPOLYLINE
  8
Titanium_Nitride
420
13938487
 90
4
 70
1
 10
0.007650
 20
0.003750
 10
0.007350
 20
0.003750
 10
0.007350
 20
0.003450
 10
0.007650
 20
0.003450
  0
LWPOLYLINE
  8
Titanium_Nitride
420
13938487
 90
4
 70
1
 10
0.008150
 20
0.012600
 10
0.007850
 20
0.012600
 10
0.007850
 20
0.012300
 10
0.008150
 20
0.012300
  0
LWPOLYLINE
  8
Titanium_Nitride
420
13938487
 90
4
 70
1
 10
0.008150
 20
0.006200
 10
0.007850
 20
0.006200
 10
0.007850
 20
0.005900
 10
0.008150
 20
0.005900
  0
LWPOLYLINE
  8
Titanium_Nitride
420
13938487
 90
4
 70
1
 10
0.008650
 20
0.014800
 10
0.008350
 20
0.014800
 10
0.008350
 20
0.012800
 10
0.008650
 20
0.012800
  0
LWPOLYLINE
  8
Titanium_Nitride
420
13938487
 90
4
 70
1
 10
0.008650
 20
0.005700
 10
0.008350
 20
0.005700
 10
0.008350
 20
0.004700
 10
0.008650
 20
0.004700
  0
LWPOLYLINE
  8
Tungsten
420
8421631
 90
4
 70
1
 10
0.007585
 20
0.015485
 10
0.007415
 20
0.015485
 10
0.007415
 20
0.015315
 10
0.007585
 20
0.015315
  0
LWPOLYLINE
  8
Tungsten
420
8421631
 90
4
 70
1
 10
0.007585
 20
0.014285
 10
0.007415
 20
0.014285
 10
0.007415
 20
0.014115
 10
0.007585
 20
0.014115
  0
LWPOLYLINE
  8
Tungsten
420
8421631
 90
4
 70
1
 10
0.007585
 20
0.013885
 10
0.007415
 20
0.013885
 10
0.007415
 20
0.013715
 10
0.007585
 20
0.013715
  0
LWPOLYLINE
  8
Tungsten
420
8421631
 90
4
 70
1
 10
0.007585
 20
0.013485
 10
0.007415
 20
0.013485
 10
0.007415
 20
0.013315
 10
0.007585
 20
0.013315
  0
LWPOLYLINE
  8
Tungsten
420
8421631
 90
4
 70
1
 10
0.007585
 20
0.005485
 10
0.007415
 20
0.005485
 10
0.007415
 20
0.005315
 10
0.007585
 20
0.005315
  0
LWPOLYLINE
  8
Tungsten
420
8421631
 90
4
 70
1
 10
0.007585
 20
0.005085
 10
0.007415
 20
0.005085
 10
0.007415
 20
0.004915
 10
0.007585
 20
0.004915
  0
LWPOLYLINE
  8
Tungsten
420
8421631
 90
4
 70
1
 10
0.007585
 20
0.003685
 10
0.007415
 20
0.003685
 10
0.007415
 20
0.003515
 10
0.007585
 20
0.003515
  0
LWPOLYLINE
  8
Tungsten
420
8421631
 90
4
 70
1
 10
0.008085
 20
0.012535
 10
0.007915
 20
0.012535
 10
0.007915
 20
0.012365
 10
0.008085
 20
0.012365
  0
LWPOLYLINE
  8
Tungsten
420
8421631
 90
4
 70
1
 10
0.008085
 20
0.006135
 10
0.007915
 20
0.006135
 10
0.007915
 20
0.005965
 10
0.008085
 20
0.005965
  0
LWPOLYLINE
  8
Tungsten
420
8421631
 90
4
 70
1
 10
0.008585
 20
0.014285
 10
0.008415
 20
0.014285
 10
0.008415
 20
0.014115
 10
0.008585
 20
0.014115
  0
LWPOLYLINE
  8
Tungsten
420
8421631
 90
4
 70
1
 10
0.008585
 20
0.013885
 10
0.008415
 20
0.013885
 10
0.008415
 20
0.013715
 10
0.008585
 20
0.013715
  0
LWPOLYLINE
  8
Tungsten
420
8421631
 90
4
 70
1
 10
0.008585
 20
0.013485
 10
0.008415
 20
0.013485
 10
0.008415
 20
0.013315
 10
0.008585
 20
0.013315
  0
LWPOLYLINE
  8
Tungsten
420
8421631
 90
4
 70
1
 10
0.008585
 20
0.005485
 10
0.008415
 20
0.005485
 10
0.008415
 20
0.005315
 10
0.008585
 20
0.005315
  0
LWPOLYLINE
  8
Tungsten
420
8421631
 90
4
 70
1
 10
0.008585
 20
0.005085
 10
0.008415
 20
0.005085
 10
0.008415
 20
0.004915
 10
0.008585
 20
0.004915
  0
LWPOLYLINE
  8
Tungsten
420
8421631
 90
4
 70
1
 10
0.007585
 20
0.015485
 10
0.007415
 20
0.015485
 10
0.007415
 20
0.015315
 10
0.007585
 20
0.015315
  0
LWPOLYLINE
  8
Tungsten
420
8421631
 90
4
 70
1
 10
0.007585
 20
0.014285
 10
0.007415
 20
0.014285
 10
0.007415
 20
0.014115
 10
0.007585
 20
0.014115
  0
LWPOLYLINE
  8
Tungsten
420
8421631
 90
4
 70
1
 10
0.007585
 20
0.013885
 10
0.007415
 20
0.013885
 10
0.007415
 20
0.013715
 10
0.007585
 20
0.013715
  0
LWPOLYLINE
  8
Tungsten
420
8421631
 90
4
 70
1
 10
0.007585
 20
0.013485
 10
0.007415
 20
0.013485
 10
0.007415
 20
0.013315
 10
0.007585
 20
0.013315
  0
LWPOLYLINE
  8
Tungsten
420
8421631
 90
4
 70
1
 10
0.007585
 20
0.005485
 10
0.007415
 20
0.005485
 10
0.007415
 20
0.005315
 10
0.007585
 20
0.005315
  0
LWPOLYLINE
  8
Tungsten
420
8421631
 90
4
 70
1
 10
0.007585
 20
0.005085
 10
0.007415
 20
0.005085
 10
0.007415
 20
0.004915
 10
0.007585
 20
0.004915
  0
LWPOLYLINE
  8
Tungsten
420
8421631
 90
4
 70
1
 10
0.007585
 20
0.003685
 10
0.007415
 20
0.003685
 10
0.007415
 20
0.003515
 10
0.007585
 20
0.003515
  0
LWPOLYLINE
  8
Tungsten
420
8421631
 90
4
 70
1
 10
0.008085
 20
0.012535
 10
0.007915
 20
0.012535
 10
0.007915
 20
0.012365
 10
0.008085
 20
0.012365
  0
LWPOLYLINE
  8
Tungsten
420
8421631
 90
4
 70
1
 10
0.008085
 20
0.006135
 10
0.007915
 20
0.006135
 10
0.007915
 20
0.005965
 10
0.008085
 20
0.005965
  0
LWPOLYLINE
  8
Tungsten
420
8421631
 90
4
 70
1
 10
0.008585
 20
0.014285
 10
0.008415
 20
0.014285
 10
0.008415
 20
0.014115
 10
0.008585
 20
0.014115
  0
LWPOLYLINE
  8
Tungsten
420
8421631
 90
4
 70
1
 10
0.008585
 20
0.013885
 10
0.008415
 20
0.013885
 10
0.008415
 20
0.013715
 10
0.008585
 20
0.013715
  0
LWPOLYLINE
  8
Tungsten
420
8421631
 90
4
 70
1
 10
0.008585
 20
0.013485
 10
0.008415
 20
0.013485
 10
0.008415
 20
0.013315
 10
0.008585
 20
0.013315
  0
LWPOLYLINE
  8
Tungsten
420
8421631
 90
4
 70
1
 10
0.008585
 20
0.005485
 10
0.008415
 20
0.005485
 10
0.008415
 20
0.005315
 10
0.008585
 20
0.005315
  0
LWPOLYLINE
  8
Tungsten
420
8421631
 90
4
 70
1
 10
0.008585
 20
0.005085
 10
0.008415
 20
0.005085
 10
0.008415
 20
0.004915
 10
0.008585
 20
0.004915
  0
LWPOLYLINE
  8
Tungsten
420
8421631
 90
4
 70
1
 10
0.007585
 20
0.015485
 10
0.007415
 20
0.015485
 10
0.007415
 20
0.015315
 10
0.007585
 20
0.015315
  0
LWPOLYLINE
  8
Tungsten
420
8421631
 90
4
 70
1
 10
0.007585
 20
0.014285
 10
0.007415
 20
0.014285
 10
0.007415
 20
0.014115
 10
0.007585
 20
0.014115
  0
LWPOLYLINE
  8
Tungsten
420
8421631
 90
4
 70
1
 10
0.007585
 20
0.013885
 10
0.007415
 20
0.013885
 10
0.007415
 20
0.013715
 10
0.007585
 20
0.013715
  0
LWPOLYLINE
  8
Tungsten
420
8421631
 90
4
 70
1
 10
0.007585
 20
0.013485
 10
0.007415
 20
0.013485
 10
0.007415
 20
0.013315
 10
0.007585
 20
0.013315
  0
LWPOLYLINE
  8
Tungsten
420
8421631
 90
4
 70
1
 10
0.007585
 20
0.005485
 10
0.007415
 20
0.005485
 10
0.007415
 20
0.005315
 10
0.007585
 20
0.005315
  0
LWPOLYLINE
  8
Tungsten
420
8421631
 90
4
 70
1
 10
0.007585
 20
0.005085
 10
0.007415
 20
0.005085
 10
0.007415
 20
0.004915
 10
0.007585
 20
0.004915
  0
LWPOLYLINE
  8
Tungsten
420
8421631
 90
4
 70
1
 10
0.007585
 20
0.003685
 10
0.007415
 20
0.003685
 10
0.007415
 20
0.003515
 10
0.007585
 20
0.003515
  0
LWPOLYLINE
  8
Tungsten
420
8421631
 90
4
 70
1
 10
0.008085
 20
0.012535
 10
0.007915
 20
0.012535
 10
0.007915
 20
0.012365
 10
0.008085
 20
0.012365
  0
LWPOLYLINE
  8
Tungsten
420
8421631
 90
4
 70
1
 10
0.008085
 20
0.006135
 10
0.007915
 20
0.006135
 10
0.007915
 20
0.005965
 10
0.008085
 20
0.005965
  0
LWPOLYLINE
  8
Tungsten
420
8421631
 90
4
 70
1
 10
0.008585
 20
0.014285
 10
0.008415
 20
0.014285
 10
0.008415
 20
0.014115
 10
0.008585
 20
0.014115
  0
LWPOLYLINE
  8
Tungsten
420
8421631
 90
4
 70
1
 10
0.008585
 20
0.013885
 10
0.008415
 20
0.013885
 10
0.008415
 20
0.013715
 10
0.008585
 20
0.013715
  0
LWPOLYLINE
  8
Tungsten
420
8421631
 90
4
 70
1
 10
0.008585
 20
0.013485
 10
0.008415
 20
0.013485
 10
0.008415
 20
0.013315
 10
0.008585
 20
0.013315
  0
LWPOLYLINE
  8
Tungsten
420
8421631
 90
4
 70
1
 10
0.008585
 20
0.005485
 10
0.008415
 20
0.005485
 10
0.008415
 20
0.005315
 10
0.008585
 20
0.005315
  0
LWPOLYLINE
  8
Tungsten
420
8421631
 90
4
 70
1
 10
0.008585
 20
0.005085
 10
0.008415
 20
0.005085
 10
0.008415
 20
0.004915
 10
0.008585
 20
0.004915
  0
LWPOLYLINE
  8
Aluminum
420
12632256
 90
20
 70
1
 10
0.007650
 20
0.014800
 10
0.007600
 20
0.014800
 10
0.007600
 20
0.015250
 10
0.007650
 20
0.015250
 10
0.007650
 20
0.015550
 10
0.007600
 20
0.015550
 10
0.007600
 20
0.016194
 10
0.007244
 20
0.016550
 10
0.004950
 20
0.016550
 10
0.004950
 20
0.016900
 10
0.003750
 20
0.016900
 10
0.003750
 20
0.015700
 10
0.004950
 20
0.015700
 10
0.004950
 20
0.016050
 10
0.007036
 20
0.016050
 10
0.007100
 20
0.015986
 10
0.007100
 20
0.013800
 10
0.007350
 20
0.013800
 10
0.007350
 20
0.012800
 10
0.007650
 20
0.012800
  0
LWPOLYLINE
  8
Aluminum
420
12632256
 90
20
 70
1
 10
0.004950
 20
0.002450
 10
0.007244
 20
0.002450
 10
0.007600
 20
0.002806
 10
0.007600
 20
0.003450
 10
0.007650
 20
0.003450
 10
0.007650
 20
0.003750
 10
0.007600
 20
0.003750
 10
0.007600
 20
0.004700
 10
0.007650
 20
0.004700
 10
0.007650
 20
0.005700
 10
0.007350
 20
0.005700
 10
0.007350
 20
0.005200
 10
0.007100
 20
0.005200
 10
0.007100
 20
0.003014
 10
0.007036
 20
0.002950
 10
0.004950
 20
0.002950
 10
0.004950
 20
0.003300
 10
0.003750
 20
0.003300
 10
0.003750
 20
0.002100
 10
0.004950
 20
0.002100
  0
LWPOLYLINE
  8
Aluminum
420
12632256
 90
23
 70
1
 10
0.008150
 20
0.012600
 10
0.007850
 20
0.012600
 10
0.007850
 20
0.012300
 10
0.007900
 20
0.012300
 10
0.007900
 20
0.010102
 10
0.007748
 20
0.009950
 10
0.004850
 20
0.009950
 10
0.004850
 20
0.009850
 10
0.004250
 20
0.009850
 10
0.004250
 20
0.008650
 10
0.005450
 20
0.008650
 10
0.005450
 20
0.009750
 10
0.007831
 20
0.009750
 10
0.007900
 20
0.009819
 10
0.007900
 20
0.006200
 10
0.007850
 20
0.006200
 10
0.007850
 20
0.005900
 10
0.008150
 20
0.005900
 10
0.008150
 20
0.006200
 10
0.008100
 20
0.006200
 10
0.008100
 20
0.010019
 10
0.008100
 20
0.012300
 10
0.008150
 20
0.012300
  0
LWPOLYLINE
  8
Aluminum
420
12632256
 90
22
 70
1
 10
0.008600
 20
0.012700
 10
0.011398
 20
0.012700
 10
0.011550
 20
0.012548
 10
0.011550
 20
0.010100
 10
0.011050
 20
0.010100
 10
0.011050
 20
0.008900
 10
0.012250
 20
0.008900
 10
0.012250
 20
0.010100
 10
0.011750
 20
0.010100
 10
0.011750
 20
0.012631
 10
0.011481
 20
0.012900
 10
0.008650
 20
0.012900
 10
0.008650
 20
0.014800
 10
0.008350
 20
0.014800
 10
0.008350
 20
0.012800
 10
0.008400
 20
0.012800
 10
0.008400
 20
0.005700
 10
0.008350
 20
0.005700
 10
0.008350
 20
0.004700
 10
0.008650
 20
0.004700
 10
0.008650
 20
0.005700
 10
0.008600
 20
0.005700
  0
LWPOLYLINE
  8
Silicon_Dioxide
420
14739711
 90
4
 70
1
 10
0.000000
 20
0.000000
 10
0.020000
 20
0.000000
 10
0.020000
 20
0.020000
 10
0.000000
 20
0.020000
  0
LWPOLYLINE
  8
Silicon_Dioxide
420
14739711
 90
4
 70
1
 10
0.000000
 20
0.000000
 10
0.020000
 20
0.000000
 10
0.020000
 20
0.020000
 10
0.000000
 20
0.020000
  0
LWPOLYLINE
  8
Silicon_Dioxide
420
14739711
 90
4
 70
1
 10
0.005000
 20
0.011000
 10
0.011000
 20
0.011000
 10
0.011000
 20
0.017000
 10
0.005000
 20
0.017000
  0
LWPOLYLINE
  8
Silicon_Dioxide
420
14739711
 90
4
 70
1
 10
0.005000
 20
0.011000
 10
0.011000
 20
0.011000
 10
0.011000
 20
0.017000
 10
0.005000
 20
0.017000
  0
LWPOLYLINE
  8
N_Well_Mask
420
6591981
 90
4
 70
1
 10
0.006475
 20
0.012200
 10
0.009525
 20
0.012200
 10
0.009525
 20
0.017000
 10
0.006475
 20
0.017000
  0
LWPOLYLINE
  8
P_Plus_Implant_Mask
420
16744703
 90
4
 70
1
 10
0.006945
 20
0.012670
 10
0.009055
 20
0.012670
 10
0.009055
 20
0.014930
 10
0.006945
 20
0.014930
  0
LWPOLYLINE
  8
Nitride_Poly_Cut_Mask
420
16753920
 90
4
 70
1
 10
0.007760
 20
0.012210
 10
0.008240
 20
0.012210
 10
0.008240
 20
0.012690
 10
0.007760
 20
0.012690
  0
LWPOLYLINE
  8
Tap_Mask
420
8454016
 90
4
 70
1
 10
0.007350
 20
0.015250
 10
0.007650
 20
0.015250
 10
0.007650
 20
0.015550
 10
0.007350
 20
0.015550
  0
LWPOLYLINE
  8
N_Plus_Implant_Mask
420
8454143
 90
4
 70
1
 10
0.007220
 20
0.015120
 10
0.007780
 20
0.015120
 10
0.007780
 20
0.015680
 10
0.007220
 20
0.015680
  0
LWPOLYLINE
  8
Silicon_Dioxide
420
14739711
 90
4
 70
1
 10
0.005000
 20
0.002000
 10
0.011000
 20
0.002000
 10
0.011000
 20
0.008000
 10
0.005000
 20
0.008000
  0
LWPOLYLINE
  8
Silicon_Dioxide
420
14739711
 90
4
 70
1
 10
0.005000
 20
0.002000
 10
0.011000
 20
0.002000
 10
0.011000
 20
0.008000
 10
0.005000
 20
0.008000
  0
LWPOLYLINE
  8
N_Plus_Implant_Mask
420
8454143
 90
4
 70
1
 10
0.006945
 20
0.004570
 10
0.009055
 20
0.004570
 10
0.009055
 20
0.005830
 10
0.006945
 20
0.005830
  0
LWPOLYLINE
  8
Nitride_Poly_Cut_Mask
420
16753920
 90
4
 70
1
 10
0.007760
 20
0.005810
 10
0.008240
 20
0.005810
 10
0.008240
 20
0.006290
 10
0.007760
 20
0.006290
  0
LWPOLYLINE
  8
Tap_Mask
420
8454016
 90
4
 70
1
 10
0.007350
 20
0.003450
 10
0.007650
 20
0.003450
 10
0.007650
 20
0.003750
 10
0.007350
 20
0.003750
  0
LWPOLYLINE
  8
P_Plus_Implant_Mask
420
16744703
 90
4
 70
1
 10
0.007220
 20
0.003320
 10
0.007780
 20
0.003320
 10
0.007780
 20
0.003880
 10
0.007220
 20
0.003880
  0
ENDSEC
  0
EOF
