  0
SECTION
  2
HEADER
  9
$ACADVER
  1
AC1018
  0
ENDSEC
  0
SECTION
  2
TABLES
  0
TABLE
  2
LAYER
  0
LAYER
  2
DRILL
 70
0
 62
0
  0
LAYER
  2
TOP_COMPONENTS
 70
0
 62
7
  0
LAYER
  2
BOTTOM_COMPONENTS
 70
0
 62
7
  0
LAYER
  2
PCB_LAYERS
 70
0
 62
7
  0
ENDTAB
  0
ENDSEC
  0
SECTION
  2
ENTITIES
  0
LWPOLYLINE
  8
PCB_LAYERS
420
12088115
 90
14
 70
1
 10
28.000000
 20
12.000000
 10
28.000000
 20
11.650000
 10
27.750000
 20
11.650000
 10
21.150000
 20
11.650000
 10
21.000000
 20
11.650000
 10
21.000000
 20
12.000000
 10
20.000000
 20
12.000000
 10
20.000000
 20
11.050000
 10
13.000000
 20
11.050000
 10
13.000000
 20
12.000000
 10
12.650000
 20
12.000000
 10
12.650000
 20
12.050000
 10
28.350000
 20
12.050000
 10
28.350000
 20
12.000000
  0
LWPOLYLINE
  8
PCB_LAYERS
420
12088115
 90
4
 70
1
 10
13.000000
 20
20.050000
 10
13.000000
 20
20.450000
 10
20.000000
 20
20.450000
 10
20.000000
 20
20.050000
  0
LWPOLYLINE
  8
PCB_LAYERS
420
12088115
 90
4
 70
1
 10
13.000000
 20
4.050000
 10
13.000000
 20
4.450000
 10
20.000000
 20
4.450000
 10
20.000000
 20
4.050000
  0
LWPOLYLINE
  8
PCB_LAYERS
420
12088115
 90
195
 70
1
 10
28.600000
 20
12.250000
 10
28.350000
 20
12.250000
 10
4.650000
 20
12.250000
 10
4.650000
 20
19.750000
 10
4.650000
 20
20.000000
 10
5.000000
 20
20.000000
 10
5.000000
 20
20.400000
 10
5.350000
 20
20.400000
 10
5.350000
 20
20.450000
 10
11.750000
 20
20.450000
 10
11.750000
 20
20.400000
 10
12.000000
 20
20.400000
 10
12.000000
 20
20.000000
 10
12.450000
 20
20.000000
 10
12.450000
 20
19.850000
 10
12.650000
 20
19.850000
 10
20.350000
 20
19.850000
 10
20.350000
 20
19.800000
 10
20.600000
 20
19.800000
 10
20.600000
 20
20.000000
 10
21.000000
 20
20.000000
 10
21.000000
 20
20.400000
 10
21.350000
 20
20.400000
 10
21.350000
 20
20.450000
 10
27.750000
 20
20.450000
 10
27.750000
 20
20.400000
 10
28.000000
 20
20.400000
 10
28.000000
 20
20.000000
 10
29.000000
 20
20.000000
 10
29.000000
 20
21.000000
 10
28.000000
 20
21.000000
 10
28.000000
 20
20.650000
 10
27.750000
 20
20.650000
 10
21.150000
 20
20.650000
 10
21.000000
 20
20.650000
 10
21.000000
 20
21.000000
 10
20.000000
 20
21.000000
 10
20.000000
 20
20.650000
 10
13.000000
 20
20.650000
 10
13.000000
 20
21.000000
 10
12.650000
 20
21.000000
 10
12.650000
 20
21.200000
 10
12.400000
 20
21.200000
 10
12.400000
 20
21.000000
 10
12.000000
 20
21.000000
 10
12.000000
 20
20.650000
 10
11.750000
 20
20.650000
 10
5.250000
 20
20.650000
 10
5.250000
 20
25.350000
 10
5.250000
 20
25.400000
 10
5.350000
 20
25.400000
 10
5.350000
 20
25.450000
 10
11.750000
 20
25.450000
 10
11.750000
 20
25.400000
 10
12.000000
 20
25.400000
 10
12.000000
 20
25.000000
 10
12.450000
 20
25.000000
 10
12.450000
 20
24.850000
 10
12.650000
 20
24.850000
 10
20.350000
 20
24.850000
 10
20.350000
 20
24.800000
 10
20.600000
 20
24.800000
 10
20.600000
 20
25.000000
 10
21.000000
 20
25.000000
 10
21.000000
 20
25.400000
 10
21.350000
 20
25.400000
 10
21.350000
 20
25.450000
 10
27.750000
 20
25.450000
 10
27.750000
 20
25.400000
 10
28.000000
 20
25.400000
 10
28.000000
 20
25.000000
 10
29.000000
 20
25.000000
 10
29.000000
 20
26.000000
 10
28.000000
 20
26.000000
 10
28.000000
 20
25.650000
 10
27.750000
 20
25.650000
 10
21.150000
 20
25.650000
 10
21.000000
 20
25.650000
 10
21.000000
 20
26.000000
 10
20.000000
 20
26.000000
 10
20.000000
 20
25.050000
 10
13.000000
 20
25.050000
 10
13.000000
 20
26.000000
 10
12.650000
 20
26.000000
 10
12.650000
 20
26.200000
 10
12.400000
 20
26.200000
 10
12.400000
 20
26.000000
 10
12.000000
 20
26.000000
 10
12.000000
 20
25.650000
 10
11.750000
 20
25.650000
 10
5.150000
 20
25.650000
 10
5.000000
 20
25.650000
 10
5.000000
 20
26.000000
 10
4.000000
 20
26.000000
 10
4.000000
 20
25.000000
 10
5.000000
 20
25.000000
 10
5.000000
 20
25.350000
 10
5.050000
 20
25.350000
 10
5.050000
 20
20.650000
 10
5.000000
 20
20.650000
 10
5.000000
 20
21.000000
 10
4.000000
 20
21.000000
 10
4.000000
 20
20.000000
 10
4.400000
 20
20.000000
 10
4.400000
 20
19.750000
 10
4.450000
 20
19.750000
 10
4.450000
 20
12.050000
 10
4.650000
 20
12.050000
 10
12.400000
 20
12.050000
 10
12.400000
 20
12.000000
 10
12.000000
 20
12.000000
 10
12.000000
 20
11.650000
 10
11.750000
 20
11.650000
 10
5.150000
 20
11.650000
 10
5.000000
 20
11.650000
 10
5.000000
 20
12.000000
 10
4.000000
 20
12.000000
 10
4.000000
 20
11.000000
 10
5.000000
 20
11.000000
 10
5.000000
 20
11.350000
 10
5.050000
 20
11.350000
 10
5.050000
 20
4.650000
 10
5.000000
 20
4.650000
 10
5.000000
 20
5.000000
 10
4.000000
 20
5.000000
 10
4.000000
 20
4.000000
 10
5.000000
 20
4.000000
 10
5.000000
 20
4.400000
 10
5.350000
 20
4.400000
 10
5.350000
 20
4.450000
 10
11.750000
 20
4.450000
 10
11.750000
 20
4.400000
 10
12.000000
 20
4.400000
 10
12.000000
 20
4.000000
 10
12.450000
 20
4.000000
 10
12.450000
 20
3.850000
 10
12.650000
 20
3.850000
 10
20.350000
 20
3.850000
 10
20.350000
 20
3.800000
 10
20.600000
 20
3.800000
 10
20.600000
 20
4.000000
 10
21.000000
 20
4.000000
 10
21.000000
 20
4.400000
 10
21.350000
 20
4.400000
 10
21.350000
 20
4.450000
 10
27.750000
 20
4.450000
 10
27.750000
 20
4.400000
 10
28.000000
 20
4.400000
 10
28.000000
 20
4.000000
 10
29.000000
 20
4.000000
 10
29.000000
 20
5.000000
 10
28.000000
 20
5.000000
 10
28.000000
 20
4.650000
 10
27.750000
 20
4.650000
 10
21.150000
 20
4.650000
 10
21.000000
 20
4.650000
 10
21.000000
 20
5.000000
 10
20.000000
 20
5.000000
 10
20.000000
 20
4.650000
 10
13.000000
 20
4.650000
 10
13.000000
 20
5.000000
 10
12.650000
 20
5.000000
 10
12.650000
 20
5.200000
 10
12.400000
 20
5.200000
 10
12.400000
 20
5.000000
 10
12.000000
 20
5.000000
 10
12.000000
 20
4.650000
 10
11.750000
 20
4.650000
 10
5.250000
 20
4.650000
 10
5.250000
 20
11.350000
 10
5.250000
 20
11.400000
 10
5.350000
 20
11.400000
 10
5.350000
 20
11.450000
 10
11.750000
 20
11.450000
 10
11.750000
 20
11.400000
 10
12.000000
 20
11.400000
 10
12.000000
 20
11.000000
 10
12.450000
 20
11.000000
 10
12.450000
 20
10.850000
 10
12.650000
 20
10.850000
 10
20.350000
 20
10.850000
 10
20.350000
 20
10.800000
 10
20.600000
 20
10.800000
 10
20.600000
 20
11.000000
 10
21.000000
 20
11.000000
 10
21.000000
 20
11.400000
 10
21.350000
 20
11.400000
 10
21.350000
 20
11.450000
 10
27.750000
 20
11.450000
 10
27.750000
 20
11.400000
 10
28.000000
 20
11.400000
 10
28.000000
 20
11.000000
 10
29.000000
 20
11.000000
 10
29.000000
 20
12.000000
 10
28.600000
 20
12.000000
  0
ENDSEC
  0
EOF
