  0
SECTION
  2
HEADER
  9
$ACADVER
  1
AC1018
  0
ENDSEC
  0
SECTION
  2
TABLES
  0
TABLE
  2
LAYER
  0
LAYER
  2
Aluminum
 70
0
 62
7
  0
LAYER
  2
Silicon_N
 70
0
 62
7
  0
LAYER
  2
Silicon_P
 70
0
 62
7
  0
LAYER
  2
Polysilicon
 70
0
 62
7
  0
LAYER
  2
Tungsten
 70
0
 62
7
  0
ENDTAB
  0
ENDSEC
  0
SECTION
  2
ENTITIES
  0
LWPOLYLINE
  8
Aluminum
420
12632256
 90
77
 70
1
 10
0.000272
 20
0.001402
 10
0.000293
 20
0.001405
 10
0.000315
 20
0.001410
 10
0.000336
 20
0.001418
 10
0.000356
 20
0.001427
 10
0.000375
 20
0.001438
 10
0.000392
 20
0.001452
 10
0.000406
 20
0.001463
 10
0.000407
 20
0.001464
 10
0.000422
 20
0.001468
 10
0.000438
 20
0.001473
 10
0.000452
 20
0.001480
 10
0.000466
 20
0.001488
 10
0.000479
 20
0.001498
 10
0.000491
 20
0.001509
 10
0.000502
 20
0.001521
 10
0.000512
 20
0.001534
 10
0.000520
 20
0.001548
 10
0.000527
 20
0.001562
 10
0.000532
 20
0.001578
 10
0.000536
 20
0.001593
 10
0.000539
 20
0.001609
 10
0.000540
 20
0.001625
 10
0.000539
 20
0.001641
 10
0.000536
 20
0.001657
 10
0.000532
 20
0.001672
 10
0.000527
 20
0.001688
 10
0.000520
 20
0.001702
 10
0.000512
 20
0.001716
 10
0.000502
 20
0.001729
 10
0.000491
 20
0.001741
 10
0.000479
 20
0.001752
 10
0.000466
 20
0.001762
 10
0.000452
 20
0.001770
 10
0.000438
 20
0.001777
 10
0.000422
 20
0.001782
 10
0.000407
 20
0.001786
 10
0.000392
 20
0.001798
 10
0.000375
 20
0.001812
 10
0.000356
 20
0.001823
 10
0.000336
 20
0.001832
 10
0.000315
 20
0.001840
 10
0.000293
 20
0.001845
 10
0.000272
 20
0.001848
 10
0.000250
 20
0.001850
 10
0.000228
 20
0.001848
 10
0.000207
 20
0.001845
 10
0.000185
 20
0.001840
 10
0.000164
 20
0.001832
 10
0.000144
 20
0.001823
 10
0.000125
 20
0.001812
 10
0.000108
 20
0.001798
 10
0.000091
 20
0.001784
 10
0.000077
 20
0.001767
 10
0.000063
 20
0.001750
 10
0.000052
 20
0.001731
 10
0.000043
 20
0.001711
 10
0.000035
 20
0.001690
 10
0.000030
 20
0.001668
 10
0.000027
 20
0.001647
 10
0.000025
 20
0.001625
 10
0.000027
 20
0.001603
 10
0.000030
 20
0.001582
 10
0.000035
 20
0.001560
 10
0.000043
 20
0.001539
 10
0.000052
 20
0.001519
 10
0.000063
 20
0.001500
 10
0.000077
 20
0.001483
 10
0.000091
 20
0.001466
 10
0.000108
 20
0.001452
 10
0.000125
 20
0.001438
 10
0.000144
 20
0.001427
 10
0.000164
 20
0.001418
 10
0.000185
 20
0.001410
 10
0.000207
 20
0.001405
 10
0.000228
 20
0.001402
 10
0.000250
 20
0.001400
  0
LWPOLYLINE
  8
Aluminum
420
12632256
 90
64
 70
1
 10
0.001772
 20
0.003027
 10
0.001793
 20
0.003030
 10
0.001815
 20
0.003035
 10
0.001836
 20
0.003043
 10
0.001856
 20
0.003052
 10
0.001875
 20
0.003063
 10
0.001892
 20
0.003077
 10
0.001909
 20
0.003091
 10
0.001923
 20
0.003108
 10
0.001937
 20
0.003125
 10
0.001948
 20
0.003144
 10
0.001957
 20
0.003164
 10
0.001965
 20
0.003185
 10
0.001970
 20
0.003207
 10
0.001973
 20
0.003228
 10
0.001975
 20
0.003250
 10
0.001973
 20
0.003272
 10
0.001970
 20
0.003293
 10
0.001965
 20
0.003315
 10
0.001957
 20
0.003336
 10
0.001948
 20
0.003356
 10
0.001937
 20
0.003375
 10
0.001923
 20
0.003392
 10
0.001909
 20
0.003409
 10
0.001892
 20
0.003423
 10
0.001875
 20
0.003437
 10
0.001856
 20
0.003448
 10
0.001836
 20
0.003457
 10
0.001815
 20
0.003465
 10
0.001793
 20
0.003470
 10
0.001772
 20
0.003473
 10
0.001750
 20
0.003475
 10
0.001728
 20
0.003473
 10
0.001707
 20
0.003470
 10
0.001685
 20
0.003465
 10
0.001664
 20
0.003457
 10
0.001644
 20
0.003448
 10
0.001625
 20
0.003437
 10
0.001608
 20
0.003423
 10
0.001591
 20
0.003409
 10
0.001577
 20
0.003392
 10
0.001563
 20
0.003375
 10
0.001552
 20
0.003356
 10
0.001543
 20
0.003336
 10
0.001535
 20
0.003315
 10
0.001530
 20
0.003293
 10
0.001527
 20
0.003272
 10
0.001525
 20
0.003250
 10
0.001527
 20
0.003228
 10
0.001530
 20
0.003207
 10
0.001535
 20
0.003185
 10
0.001543
 20
0.003164
 10
0.001552
 20
0.003144
 10
0.001563
 20
0.003125
 10
0.001577
 20
0.003108
 10
0.001591
 20
0.003091
 10
0.001608
 20
0.003077
 10
0.001625
 20
0.003063
 10
0.001644
 20
0.003052
 10
0.001664
 20
0.003043
 10
0.001685
 20
0.003035
 10
0.001707
 20
0.003030
 10
0.001728
 20
0.003027
 10
0.001750
 20
0.003025
  0
LWPOLYLINE
  8
Aluminum
420
12632256
 90
104
 70
1
 10
0.001772
 20
0.002277
 10
0.001793
 20
0.002280
 10
0.001815
 20
0.002285
 10
0.001836
 20
0.002293
 10
0.001856
 20
0.002302
 10
0.001875
 20
0.002313
 10
0.001892
 20
0.002327
 10
0.001909
 20
0.002341
 10
0.001923
 20
0.002358
 10
0.001937
 20
0.002375
 10
0.001948
 20
0.002394
 10
0.001957
 20
0.002414
 10
0.001965
 20
0.002435
 10
0.001970
 20
0.002457
 10
0.001973
 20
0.002478
 10
0.001975
 20
0.002500
 10
0.001973
 20
0.002522
 10
0.001970
 20
0.002543
 10
0.001965
 20
0.002565
 10
0.001957
 20
0.002586
 10
0.001948
 20
0.002606
 10
0.001937
 20
0.002625
 10
0.001923
 20
0.002642
 10
0.001909
 20
0.002659
 10
0.001892
 20
0.002673
 10
0.001875
 20
0.002687
 10
0.001863
 20
0.002693
 10
0.001866
 20
0.002696
 10
0.001877
 20
0.002708
 10
0.001887
 20
0.002721
 10
0.001895
 20
0.002735
 10
0.001902
 20
0.002749
 10
0.001907
 20
0.002765
 10
0.001911
 20
0.002780
 10
0.001914
 20
0.002796
 10
0.001915
 20
0.002812
 10
0.001914
 20
0.002828
 10
0.001911
 20
0.002844
 10
0.001907
 20
0.002859
 10
0.001902
 20
0.002875
 10
0.001895
 20
0.002889
 10
0.001887
 20
0.002903
 10
0.001877
 20
0.002916
 10
0.001866
 20
0.002928
 10
0.001854
 20
0.002939
 10
0.001841
 20
0.002949
 10
0.001827
 20
0.002957
 10
0.001813
 20
0.002964
 10
0.001797
 20
0.002969
 10
0.001782
 20
0.002973
 10
0.001766
 20
0.002976
 10
0.001750
 20
0.002977
 10
0.001734
 20
0.002976
 10
0.001718
 20
0.002973
 10
0.001703
 20
0.002969
 10
0.001687
 20
0.002964
 10
0.001673
 20
0.002957
 10
0.001659
 20
0.002949
 10
0.001646
 20
0.002939
 10
0.001634
 20
0.002928
 10
0.001623
 20
0.002916
 10
0.001613
 20
0.002903
 10
0.001605
 20
0.002889
 10
0.001598
 20
0.002875
 10
0.001593
 20
0.002859
 10
0.001589
 20
0.002844
 10
0.001586
 20
0.002828
 10
0.001585
 20
0.002812
 10
0.001586
 20
0.002796
 10
0.001589
 20
0.002780
 10
0.001593
 20
0.002765
 10
0.001598
 20
0.002749
 10
0.001605
 20
0.002735
 10
0.001613
 20
0.002721
 10
0.001623
 20
0.002708
 10
0.001634
 20
0.002696
 10
0.001636
 20
0.002693
 10
0.001625
 20
0.002687
 10
0.001608
 20
0.002673
 10
0.001591
 20
0.002659
 10
0.001577
 20
0.002642
 10
0.001563
 20
0.002625
 10
0.001552
 20
0.002606
 10
0.001543
 20
0.002586
 10
0.001535
 20
0.002565
 10
0.001530
 20
0.002543
 10
0.001527
 20
0.002522
 10
0.001525
 20
0.002500
 10
0.001527
 20
0.002478
 10
0.001530
 20
0.002457
 10
0.001535
 20
0.002435
 10
0.001543
 20
0.002414
 10
0.001552
 20
0.002394
 10
0.001563
 20
0.002375
 10
0.001577
 20
0.002358
 10
0.001591
 20
0.002341
 10
0.001608
 20
0.002327
 10
0.001625
 20
0.002313
 10
0.001644
 20
0.002302
 10
0.001664
 20
0.002293
 10
0.001685
 20
0.002285
 10
0.001707
 20
0.002280
 10
0.001728
 20
0.002277
 10
0.001750
 20
0.002275
  0
LWPOLYLINE
  8
Aluminum
420
12632256
 90
64
 70
1
 10
0.001772
 20
0.000839
 10
0.001793
 20
0.000842
 10
0.001815
 20
0.000847
 10
0.001836
 20
0.000855
 10
0.001856
 20
0.000864
 10
0.001875
 20
0.000875
 10
0.001892
 20
0.000889
 10
0.001909
 20
0.000903
 10
0.001923
 20
0.000920
 10
0.001937
 20
0.000937
 10
0.001948
 20
0.000956
 10
0.001957
 20
0.000976
 10
0.001965
 20
0.000997
 10
0.001970
 20
0.001019
 10
0.001973
 20
0.001040
 10
0.001975
 20
0.001062
 10
0.001973
 20
0.001084
 10
0.001970
 20
0.001105
 10
0.001965
 20
0.001127
 10
0.001957
 20
0.001148
 10
0.001948
 20
0.001168
 10
0.001937
 20
0.001187
 10
0.001923
 20
0.001204
 10
0.001909
 20
0.001221
 10
0.001892
 20
0.001235
 10
0.001875
 20
0.001249
 10
0.001856
 20
0.001260
 10
0.001836
 20
0.001269
 10
0.001815
 20
0.001277
 10
0.001793
 20
0.001282
 10
0.001772
 20
0.001285
 10
0.001750
 20
0.001287
 10
0.001728
 20
0.001285
 10
0.001707
 20
0.001282
 10
0.001685
 20
0.001277
 10
0.001664
 20
0.001269
 10
0.001644
 20
0.001260
 10
0.001625
 20
0.001249
 10
0.001608
 20
0.001235
 10
0.001591
 20
0.001221
 10
0.001577
 20
0.001204
 10
0.001563
 20
0.001187
 10
0.001552
 20
0.001168
 10
0.001543
 20
0.001148
 10
0.001535
 20
0.001127
 10
0.001530
 20
0.001105
 10
0.001527
 20
0.001084
 10
0.001525
 20
0.001062
 10
0.001527
 20
0.001040
 10
0.001530
 20
0.001019
 10
0.001535
 20
0.000997
 10
0.001543
 20
0.000976
 10
0.001552
 20
0.000956
 10
0.001563
 20
0.000937
 10
0.001577
 20
0.000920
 10
0.001591
 20
0.000903
 10
0.001608
 20
0.000889
 10
0.001625
 20
0.000875
 10
0.001644
 20
0.000864
 10
0.001664
 20
0.000855
 10
0.001685
 20
0.000847
 10
0.001707
 20
0.000842
 10
0.001728
 20
0.000839
 10
0.001750
 20
0.000837
  0
LWPOLYLINE
  8
Aluminum
420
12632256
 90
64
 70
1
 10
0.001022
 20
0.003027
 10
0.001043
 20
0.003030
 10
0.001065
 20
0.003035
 10
0.001086
 20
0.003043
 10
0.001106
 20
0.003052
 10
0.001125
 20
0.003063
 10
0.001142
 20
0.003077
 10
0.001159
 20
0.003091
 10
0.001173
 20
0.003108
 10
0.001187
 20
0.003125
 10
0.001198
 20
0.003144
 10
0.001207
 20
0.003164
 10
0.001215
 20
0.003185
 10
0.001220
 20
0.003207
 10
0.001223
 20
0.003228
 10
0.001225
 20
0.003250
 10
0.001223
 20
0.003272
 10
0.001220
 20
0.003293
 10
0.001215
 20
0.003315
 10
0.001207
 20
0.003336
 10
0.001198
 20
0.003356
 10
0.001187
 20
0.003375
 10
0.001173
 20
0.003392
 10
0.001159
 20
0.003409
 10
0.001142
 20
0.003423
 10
0.001125
 20
0.003437
 10
0.001106
 20
0.003448
 10
0.001086
 20
0.003457
 10
0.001065
 20
0.003465
 10
0.001043
 20
0.003470
 10
0.001022
 20
0.003473
 10
0.001000
 20
0.003475
 10
0.000978
 20
0.003473
 10
0.000957
 20
0.003470
 10
0.000935
 20
0.003465
 10
0.000914
 20
0.003457
 10
0.000894
 20
0.003448
 10
0.000875
 20
0.003437
 10
0.000858
 20
0.003423
 10
0.000841
 20
0.003409
 10
0.000827
 20
0.003392
 10
0.000813
 20
0.003375
 10
0.000802
 20
0.003356
 10
0.000793
 20
0.003336
 10
0.000785
 20
0.003315
 10
0.000780
 20
0.003293
 10
0.000777
 20
0.003272
 10
0.000775
 20
0.003250
 10
0.000777
 20
0.003228
 10
0.000780
 20
0.003207
 10
0.000785
 20
0.003185
 10
0.000793
 20
0.003164
 10
0.000802
 20
0.003144
 10
0.000813
 20
0.003125
 10
0.000827
 20
0.003108
 10
0.000841
 20
0.003091
 10
0.000858
 20
0.003077
 10
0.000875
 20
0.003063
 10
0.000894
 20
0.003052
 10
0.000914
 20
0.003043
 10
0.000935
 20
0.003035
 10
0.000957
 20
0.003030
 10
0.000978
 20
0.003027
 10
0.001000
 20
0.003025
  0
LWPOLYLINE
  8
Aluminum
420
12632256
 90
104
 70
1
 10
0.001022
 20
0.002277
 10
0.001043
 20
0.002280
 10
0.001065
 20
0.002285
 10
0.001086
 20
0.002293
 10
0.001106
 20
0.002302
 10
0.001125
 20
0.002313
 10
0.001142
 20
0.002327
 10
0.001159
 20
0.002341
 10
0.001173
 20
0.002358
 10
0.001187
 20
0.002375
 10
0.001198
 20
0.002394
 10
0.001207
 20
0.002414
 10
0.001215
 20
0.002435
 10
0.001220
 20
0.002457
 10
0.001223
 20
0.002478
 10
0.001225
 20
0.002500
 10
0.001223
 20
0.002522
 10
0.001220
 20
0.002543
 10
0.001215
 20
0.002565
 10
0.001207
 20
0.002586
 10
0.001198
 20
0.002606
 10
0.001187
 20
0.002625
 10
0.001173
 20
0.002642
 10
0.001159
 20
0.002659
 10
0.001142
 20
0.002673
 10
0.001125
 20
0.002687
 10
0.001113
 20
0.002693
 10
0.001116
 20
0.002696
 10
0.001127
 20
0.002708
 10
0.001137
 20
0.002721
 10
0.001145
 20
0.002735
 10
0.001152
 20
0.002749
 10
0.001157
 20
0.002765
 10
0.001161
 20
0.002780
 10
0.001164
 20
0.002796
 10
0.001165
 20
0.002812
 10
0.001164
 20
0.002828
 10
0.001161
 20
0.002844
 10
0.001157
 20
0.002859
 10
0.001152
 20
0.002875
 10
0.001145
 20
0.002889
 10
0.001137
 20
0.002903
 10
0.001127
 20
0.002916
 10
0.001116
 20
0.002928
 10
0.001104
 20
0.002939
 10
0.001091
 20
0.002949
 10
0.001077
 20
0.002957
 10
0.001063
 20
0.002964
 10
0.001047
 20
0.002969
 10
0.001032
 20
0.002973
 10
0.001016
 20
0.002976
 10
0.001000
 20
0.002977
 10
0.000984
 20
0.002976
 10
0.000968
 20
0.002973
 10
0.000953
 20
0.002969
 10
0.000937
 20
0.002964
 10
0.000923
 20
0.002957
 10
0.000909
 20
0.002949
 10
0.000896
 20
0.002939
 10
0.000884
 20
0.002928
 10
0.000873
 20
0.002916
 10
0.000863
 20
0.002903
 10
0.000855
 20
0.002889
 10
0.000848
 20
0.002875
 10
0.000843
 20
0.002859
 10
0.000839
 20
0.002844
 10
0.000836
 20
0.002828
 10
0.000835
 20
0.002812
 10
0.000836
 20
0.002796
 10
0.000839
 20
0.002780
 10
0.000843
 20
0.002765
 10
0.000848
 20
0.002749
 10
0.000855
 20
0.002735
 10
0.000863
 20
0.002721
 10
0.000873
 20
0.002708
 10
0.000884
 20
0.002696
 10
0.000886
 20
0.002693
 10
0.000875
 20
0.002687
 10
0.000858
 20
0.002673
 10
0.000841
 20
0.002659
 10
0.000827
 20
0.002642
 10
0.000813
 20
0.002625
 10
0.000802
 20
0.002606
 10
0.000793
 20
0.002586
 10
0.000785
 20
0.002565
 10
0.000780
 20
0.002543
 10
0.000777
 20
0.002522
 10
0.000775
 20
0.002500
 10
0.000777
 20
0.002478
 10
0.000780
 20
0.002457
 10
0.000785
 20
0.002435
 10
0.000793
 20
0.002414
 10
0.000802
 20
0.002394
 10
0.000813
 20
0.002375
 10
0.000827
 20
0.002358
 10
0.000841
 20
0.002341
 10
0.000858
 20
0.002327
 10
0.000875
 20
0.002313
 10
0.000894
 20
0.002302
 10
0.000914
 20
0.002293
 10
0.000935
 20
0.002285
 10
0.000957
 20
0.002280
 10
0.000978
 20
0.002277
 10
0.001000
 20
0.002275
  0
LWPOLYLINE
  8
Aluminum
420
12632256
 90
64
 70
1
 10
0.001022
 20
0.000839
 10
0.001043
 20
0.000842
 10
0.001065
 20
0.000847
 10
0.001086
 20
0.000855
 10
0.001106
 20
0.000864
 10
0.001125
 20
0.000875
 10
0.001142
 20
0.000889
 10
0.001159
 20
0.000903
 10
0.001173
 20
0.000920
 10
0.001187
 20
0.000937
 10
0.001198
 20
0.000956
 10
0.001207
 20
0.000976
 10
0.001215
 20
0.000997
 10
0.001220
 20
0.001019
 10
0.001223
 20
0.001040
 10
0.001225
 20
0.001062
 10
0.001223
 20
0.001084
 10
0.001220
 20
0.001105
 10
0.001215
 20
0.001127
 10
0.001207
 20
0.001148
 10
0.001198
 20
0.001168
 10
0.001187
 20
0.001187
 10
0.001173
 20
0.001204
 10
0.001159
 20
0.001221
 10
0.001142
 20
0.001235
 10
0.001125
 20
0.001249
 10
0.001106
 20
0.001260
 10
0.001086
 20
0.001269
 10
0.001065
 20
0.001277
 10
0.001043
 20
0.001282
 10
0.001022
 20
0.001285
 10
0.001000
 20
0.001287
 10
0.000978
 20
0.001285
 10
0.000957
 20
0.001282
 10
0.000935
 20
0.001277
 10
0.000914
 20
0.001269
 10
0.000894
 20
0.001260
 10
0.000875
 20
0.001249
 10
0.000858
 20
0.001235
 10
0.000841
 20
0.001221
 10
0.000827
 20
0.001204
 10
0.000813
 20
0.001187
 10
0.000802
 20
0.001168
 10
0.000793
 20
0.001148
 10
0.000785
 20
0.001127
 10
0.000780
 20
0.001105
 10
0.000777
 20
0.001084
 10
0.000775
 20
0.001062
 10
0.000777
 20
0.001040
 10
0.000780
 20
0.001019
 10
0.000785
 20
0.000997
 10
0.000793
 20
0.000976
 10
0.000802
 20
0.000956
 10
0.000813
 20
0.000937
 10
0.000827
 20
0.000920
 10
0.000841
 20
0.000903
 10
0.000858
 20
0.000889
 10
0.000875
 20
0.000875
 10
0.000894
 20
0.000864
 10
0.000914
 20
0.000855
 10
0.000935
 20
0.000847
 10
0.000957
 20
0.000842
 10
0.000978
 20
0.000839
 10
0.001000
 20
0.000837
  0
LWPOLYLINE
  8
Aluminum
420
12632256
 90
64
 70
1
 10
0.001772
 20
0.003027
 10
0.001793
 20
0.003030
 10
0.001815
 20
0.003035
 10
0.001836
 20
0.003043
 10
0.001856
 20
0.003052
 10
0.001875
 20
0.003063
 10
0.001892
 20
0.003077
 10
0.001909
 20
0.003091
 10
0.001923
 20
0.003108
 10
0.001937
 20
0.003125
 10
0.001948
 20
0.003144
 10
0.001957
 20
0.003164
 10
0.001965
 20
0.003185
 10
0.001970
 20
0.003207
 10
0.001973
 20
0.003228
 10
0.001975
 20
0.003250
 10
0.001973
 20
0.003272
 10
0.001970
 20
0.003293
 10
0.001965
 20
0.003315
 10
0.001957
 20
0.003336
 10
0.001948
 20
0.003356
 10
0.001937
 20
0.003375
 10
0.001923
 20
0.003392
 10
0.001909
 20
0.003409
 10
0.001892
 20
0.003423
 10
0.001875
 20
0.003437
 10
0.001856
 20
0.003448
 10
0.001836
 20
0.003457
 10
0.001815
 20
0.003465
 10
0.001793
 20
0.003470
 10
0.001772
 20
0.003473
 10
0.001750
 20
0.003475
 10
0.001728
 20
0.003473
 10
0.001707
 20
0.003470
 10
0.001685
 20
0.003465
 10
0.001664
 20
0.003457
 10
0.001644
 20
0.003448
 10
0.001625
 20
0.003437
 10
0.001608
 20
0.003423
 10
0.001591
 20
0.003409
 10
0.001577
 20
0.003392
 10
0.001563
 20
0.003375
 10
0.001552
 20
0.003356
 10
0.001543
 20
0.003336
 10
0.001535
 20
0.003315
 10
0.001530
 20
0.003293
 10
0.001527
 20
0.003272
 10
0.001525
 20
0.003250
 10
0.001527
 20
0.003228
 10
0.001530
 20
0.003207
 10
0.001535
 20
0.003185
 10
0.001543
 20
0.003164
 10
0.001552
 20
0.003144
 10
0.001563
 20
0.003125
 10
0.001577
 20
0.003108
 10
0.001591
 20
0.003091
 10
0.001608
 20
0.003077
 10
0.001625
 20
0.003063
 10
0.001644
 20
0.003052
 10
0.001664
 20
0.003043
 10
0.001685
 20
0.003035
 10
0.001707
 20
0.003030
 10
0.001728
 20
0.003027
 10
0.001750
 20
0.003025
  0
LWPOLYLINE
  8
Aluminum
420
12632256
 90
104
 70
1
 10
0.001772
 20
0.002277
 10
0.001793
 20
0.002280
 10
0.001815
 20
0.002285
 10
0.001836
 20
0.002293
 10
0.001856
 20
0.002302
 10
0.001875
 20
0.002313
 10
0.001892
 20
0.002327
 10
0.001909
 20
0.002341
 10
0.001923
 20
0.002358
 10
0.001937
 20
0.002375
 10
0.001948
 20
0.002394
 10
0.001957
 20
0.002414
 10
0.001965
 20
0.002435
 10
0.001970
 20
0.002457
 10
0.001973
 20
0.002478
 10
0.001975
 20
0.002500
 10
0.001973
 20
0.002522
 10
0.001970
 20
0.002543
 10
0.001965
 20
0.002565
 10
0.001957
 20
0.002586
 10
0.001948
 20
0.002606
 10
0.001937
 20
0.002625
 10
0.001923
 20
0.002642
 10
0.001909
 20
0.002659
 10
0.001892
 20
0.002673
 10
0.001875
 20
0.002687
 10
0.001863
 20
0.002693
 10
0.001866
 20
0.002696
 10
0.001877
 20
0.002708
 10
0.001887
 20
0.002721
 10
0.001895
 20
0.002735
 10
0.001902
 20
0.002749
 10
0.001907
 20
0.002765
 10
0.001911
 20
0.002780
 10
0.001914
 20
0.002796
 10
0.001915
 20
0.002812
 10
0.001914
 20
0.002828
 10
0.001911
 20
0.002844
 10
0.001907
 20
0.002859
 10
0.001902
 20
0.002875
 10
0.001895
 20
0.002889
 10
0.001887
 20
0.002903
 10
0.001877
 20
0.002916
 10
0.001866
 20
0.002928
 10
0.001854
 20
0.002939
 10
0.001841
 20
0.002949
 10
0.001827
 20
0.002957
 10
0.001813
 20
0.002964
 10
0.001797
 20
0.002969
 10
0.001782
 20
0.002973
 10
0.001766
 20
0.002976
 10
0.001750
 20
0.002977
 10
0.001734
 20
0.002976
 10
0.001718
 20
0.002973
 10
0.001703
 20
0.002969
 10
0.001687
 20
0.002964
 10
0.001673
 20
0.002957
 10
0.001659
 20
0.002949
 10
0.001646
 20
0.002939
 10
0.001634
 20
0.002928
 10
0.001623
 20
0.002916
 10
0.001613
 20
0.002903
 10
0.001605
 20
0.002889
 10
0.001598
 20
0.002875
 10
0.001593
 20
0.002859
 10
0.001589
 20
0.002844
 10
0.001586
 20
0.002828
 10
0.001585
 20
0.002812
 10
0.001586
 20
0.002796
 10
0.001589
 20
0.002780
 10
0.001593
 20
0.002765
 10
0.001598
 20
0.002749
 10
0.001605
 20
0.002735
 10
0.001613
 20
0.002721
 10
0.001623
 20
0.002708
 10
0.001634
 20
0.002696
 10
0.001636
 20
0.002693
 10
0.001625
 20
0.002687
 10
0.001608
 20
0.002673
 10
0.001591
 20
0.002659
 10
0.001577
 20
0.002642
 10
0.001563
 20
0.002625
 10
0.001552
 20
0.002606
 10
0.001543
 20
0.002586
 10
0.001535
 20
0.002565
 10
0.001530
 20
0.002543
 10
0.001527
 20
0.002522
 10
0.001525
 20
0.002500
 10
0.001527
 20
0.002478
 10
0.001530
 20
0.002457
 10
0.001535
 20
0.002435
 10
0.001543
 20
0.002414
 10
0.001552
 20
0.002394
 10
0.001563
 20
0.002375
 10
0.001577
 20
0.002358
 10
0.001591
 20
0.002341
 10
0.001608
 20
0.002327
 10
0.001625
 20
0.002313
 10
0.001644
 20
0.002302
 10
0.001664
 20
0.002293
 10
0.001685
 20
0.002285
 10
0.001707
 20
0.002280
 10
0.001728
 20
0.002277
 10
0.001750
 20
0.002275
  0
LWPOLYLINE
  8
Aluminum
420
12632256
 90
64
 70
1
 10
0.001772
 20
0.000839
 10
0.001793
 20
0.000842
 10
0.001815
 20
0.000847
 10
0.001836
 20
0.000855
 10
0.001856
 20
0.000864
 10
0.001875
 20
0.000875
 10
0.001892
 20
0.000889
 10
0.001909
 20
0.000903
 10
0.001923
 20
0.000920
 10
0.001937
 20
0.000937
 10
0.001948
 20
0.000956
 10
0.001957
 20
0.000976
 10
0.001965
 20
0.000997
 10
0.001970
 20
0.001019
 10
0.001973
 20
0.001040
 10
0.001975
 20
0.001062
 10
0.001973
 20
0.001084
 10
0.001970
 20
0.001105
 10
0.001965
 20
0.001127
 10
0.001957
 20
0.001148
 10
0.001948
 20
0.001168
 10
0.001937
 20
0.001187
 10
0.001923
 20
0.001204
 10
0.001909
 20
0.001221
 10
0.001892
 20
0.001235
 10
0.001875
 20
0.001249
 10
0.001856
 20
0.001260
 10
0.001836
 20
0.001269
 10
0.001815
 20
0.001277
 10
0.001793
 20
0.001282
 10
0.001772
 20
0.001285
 10
0.001750
 20
0.001287
 10
0.001728
 20
0.001285
 10
0.001707
 20
0.001282
 10
0.001685
 20
0.001277
 10
0.001664
 20
0.001269
 10
0.001644
 20
0.001260
 10
0.001625
 20
0.001249
 10
0.001608
 20
0.001235
 10
0.001591
 20
0.001221
 10
0.001577
 20
0.001204
 10
0.001563
 20
0.001187
 10
0.001552
 20
0.001168
 10
0.001543
 20
0.001148
 10
0.001535
 20
0.001127
 10
0.001530
 20
0.001105
 10
0.001527
 20
0.001084
 10
0.001525
 20
0.001062
 10
0.001527
 20
0.001040
 10
0.001530
 20
0.001019
 10
0.001535
 20
0.000997
 10
0.001543
 20
0.000976
 10
0.001552
 20
0.000956
 10
0.001563
 20
0.000937
 10
0.001577
 20
0.000920
 10
0.001591
 20
0.000903
 10
0.001608
 20
0.000889
 10
0.001625
 20
0.000875
 10
0.001644
 20
0.000864
 10
0.001664
 20
0.000855
 10
0.001685
 20
0.000847
 10
0.001707
 20
0.000842
 10
0.001728
 20
0.000839
 10
0.001750
 20
0.000837
  0
LWPOLYLINE
  8
Aluminum
420
12632256
 90
64
 70
1
 10
0.001022
 20
0.003027
 10
0.001043
 20
0.003030
 10
0.001065
 20
0.003035
 10
0.001086
 20
0.003043
 10
0.001106
 20
0.003052
 10
0.001125
 20
0.003063
 10
0.001142
 20
0.003077
 10
0.001159
 20
0.003091
 10
0.001173
 20
0.003108
 10
0.001187
 20
0.003125
 10
0.001198
 20
0.003144
 10
0.001207
 20
0.003164
 10
0.001215
 20
0.003185
 10
0.001220
 20
0.003207
 10
0.001223
 20
0.003228
 10
0.001225
 20
0.003250
 10
0.001223
 20
0.003272
 10
0.001220
 20
0.003293
 10
0.001215
 20
0.003315
 10
0.001207
 20
0.003336
 10
0.001198
 20
0.003356
 10
0.001187
 20
0.003375
 10
0.001173
 20
0.003392
 10
0.001159
 20
0.003409
 10
0.001142
 20
0.003423
 10
0.001125
 20
0.003437
 10
0.001106
 20
0.003448
 10
0.001086
 20
0.003457
 10
0.001065
 20
0.003465
 10
0.001043
 20
0.003470
 10
0.001022
 20
0.003473
 10
0.001000
 20
0.003475
 10
0.000978
 20
0.003473
 10
0.000957
 20
0.003470
 10
0.000935
 20
0.003465
 10
0.000914
 20
0.003457
 10
0.000894
 20
0.003448
 10
0.000875
 20
0.003437
 10
0.000858
 20
0.003423
 10
0.000841
 20
0.003409
 10
0.000827
 20
0.003392
 10
0.000813
 20
0.003375
 10
0.000802
 20
0.003356
 10
0.000793
 20
0.003336
 10
0.000785
 20
0.003315
 10
0.000780
 20
0.003293
 10
0.000777
 20
0.003272
 10
0.000775
 20
0.003250
 10
0.000777
 20
0.003228
 10
0.000780
 20
0.003207
 10
0.000785
 20
0.003185
 10
0.000793
 20
0.003164
 10
0.000802
 20
0.003144
 10
0.000813
 20
0.003125
 10
0.000827
 20
0.003108
 10
0.000841
 20
0.003091
 10
0.000858
 20
0.003077
 10
0.000875
 20
0.003063
 10
0.000894
 20
0.003052
 10
0.000914
 20
0.003043
 10
0.000935
 20
0.003035
 10
0.000957
 20
0.003030
 10
0.000978
 20
0.003027
 10
0.001000
 20
0.003025
  0
LWPOLYLINE
  8
Aluminum
420
12632256
 90
104
 70
1
 10
0.001022
 20
0.002277
 10
0.001043
 20
0.002280
 10
0.001065
 20
0.002285
 10
0.001086
 20
0.002293
 10
0.001106
 20
0.002302
 10
0.001125
 20
0.002313
 10
0.001142
 20
0.002327
 10
0.001159
 20
0.002341
 10
0.001173
 20
0.002358
 10
0.001187
 20
0.002375
 10
0.001198
 20
0.002394
 10
0.001207
 20
0.002414
 10
0.001215
 20
0.002435
 10
0.001220
 20
0.002457
 10
0.001223
 20
0.002478
 10
0.001225
 20
0.002500
 10
0.001223
 20
0.002522
 10
0.001220
 20
0.002543
 10
0.001215
 20
0.002565
 10
0.001207
 20
0.002586
 10
0.001198
 20
0.002606
 10
0.001187
 20
0.002625
 10
0.001173
 20
0.002642
 10
0.001159
 20
0.002659
 10
0.001142
 20
0.002673
 10
0.001125
 20
0.002687
 10
0.001113
 20
0.002693
 10
0.001116
 20
0.002696
 10
0.001127
 20
0.002708
 10
0.001137
 20
0.002721
 10
0.001145
 20
0.002735
 10
0.001152
 20
0.002749
 10
0.001157
 20
0.002765
 10
0.001161
 20
0.002780
 10
0.001164
 20
0.002796
 10
0.001165
 20
0.002812
 10
0.001164
 20
0.002828
 10
0.001161
 20
0.002844
 10
0.001157
 20
0.002859
 10
0.001152
 20
0.002875
 10
0.001145
 20
0.002889
 10
0.001137
 20
0.002903
 10
0.001127
 20
0.002916
 10
0.001116
 20
0.002928
 10
0.001104
 20
0.002939
 10
0.001091
 20
0.002949
 10
0.001077
 20
0.002957
 10
0.001063
 20
0.002964
 10
0.001047
 20
0.002969
 10
0.001032
 20
0.002973
 10
0.001016
 20
0.002976
 10
0.001000
 20
0.002977
 10
0.000984
 20
0.002976
 10
0.000968
 20
0.002973
 10
0.000953
 20
0.002969
 10
0.000937
 20
0.002964
 10
0.000923
 20
0.002957
 10
0.000909
 20
0.002949
 10
0.000896
 20
0.002939
 10
0.000884
 20
0.002928
 10
0.000873
 20
0.002916
 10
0.000863
 20
0.002903
 10
0.000855
 20
0.002889
 10
0.000848
 20
0.002875
 10
0.000843
 20
0.002859
 10
0.000839
 20
0.002844
 10
0.000836
 20
0.002828
 10
0.000835
 20
0.002812
 10
0.000836
 20
0.002796
 10
0.000839
 20
0.002780
 10
0.000843
 20
0.002765
 10
0.000848
 20
0.002749
 10
0.000855
 20
0.002735
 10
0.000863
 20
0.002721
 10
0.000873
 20
0.002708
 10
0.000884
 20
0.002696
 10
0.000886
 20
0.002693
 10
0.000875
 20
0.002687
 10
0.000858
 20
0.002673
 10
0.000841
 20
0.002659
 10
0.000827
 20
0.002642
 10
0.000813
 20
0.002625
 10
0.000802
 20
0.002606
 10
0.000793
 20
0.002586
 10
0.000785
 20
0.002565
 10
0.000780
 20
0.002543
 10
0.000777
 20
0.002522
 10
0.000775
 20
0.002500
 10
0.000777
 20
0.002478
 10
0.000780
 20
0.002457
 10
0.000785
 20
0.002435
 10
0.000793
 20
0.002414
 10
0.000802
 20
0.002394
 10
0.000813
 20
0.002375
 10
0.000827
 20
0.002358
 10
0.000841
 20
0.002341
 10
0.000858
 20
0.002327
 10
0.000875
 20
0.002313
 10
0.000894
 20
0.002302
 10
0.000914
 20
0.002293
 10
0.000935
 20
0.002285
 10
0.000957
 20
0.002280
 10
0.000978
 20
0.002277
 10
0.001000
 20
0.002275
  0
LWPOLYLINE
  8
Aluminum
420
12632256
 90
64
 70
1
 10
0.001022
 20
0.000839
 10
0.001043
 20
0.000842
 10
0.001065
 20
0.000847
 10
0.001086
 20
0.000855
 10
0.001106
 20
0.000864
 10
0.001125
 20
0.000875
 10
0.001142
 20
0.000889
 10
0.001159
 20
0.000903
 10
0.001173
 20
0.000920
 10
0.001187
 20
0.000937
 10
0.001198
 20
0.000956
 10
0.001207
 20
0.000976
 10
0.001215
 20
0.000997
 10
0.001220
 20
0.001019
 10
0.001223
 20
0.001040
 10
0.001225
 20
0.001062
 10
0.001223
 20
0.001084
 10
0.001220
 20
0.001105
 10
0.001215
 20
0.001127
 10
0.001207
 20
0.001148
 10
0.001198
 20
0.001168
 10
0.001187
 20
0.001187
 10
0.001173
 20
0.001204
 10
0.001159
 20
0.001221
 10
0.001142
 20
0.001235
 10
0.001125
 20
0.001249
 10
0.001106
 20
0.001260
 10
0.001086
 20
0.001269
 10
0.001065
 20
0.001277
 10
0.001043
 20
0.001282
 10
0.001022
 20
0.001285
 10
0.001000
 20
0.001287
 10
0.000978
 20
0.001285
 10
0.000957
 20
0.001282
 10
0.000935
 20
0.001277
 10
0.000914
 20
0.001269
 10
0.000894
 20
0.001260
 10
0.000875
 20
0.001249
 10
0.000858
 20
0.001235
 10
0.000841
 20
0.001221
 10
0.000827
 20
0.001204
 10
0.000813
 20
0.001187
 10
0.000802
 20
0.001168
 10
0.000793
 20
0.001148
 10
0.000785
 20
0.001127
 10
0.000780
 20
0.001105
 10
0.000777
 20
0.001084
 10
0.000775
 20
0.001062
 10
0.000777
 20
0.001040
 10
0.000780
 20
0.001019
 10
0.000785
 20
0.000997
 10
0.000793
 20
0.000976
 10
0.000802
 20
0.000956
 10
0.000813
 20
0.000937
 10
0.000827
 20
0.000920
 10
0.000841
 20
0.000903
 10
0.000858
 20
0.000889
 10
0.000875
 20
0.000875
 10
0.000894
 20
0.000864
 10
0.000914
 20
0.000855
 10
0.000935
 20
0.000847
 10
0.000957
 20
0.000842
 10
0.000978
 20
0.000839
 10
0.001000
 20
0.000837
  0
LWPOLYLINE
  8
Aluminum
420
12632256
 90
77
 70
1
 10
0.000272
 20
0.001402
 10
0.000293
 20
0.001405
 10
0.000315
 20
0.001410
 10
0.000336
 20
0.001418
 10
0.000356
 20
0.001427
 10
0.000375
 20
0.001438
 10
0.000392
 20
0.001452
 10
0.000406
 20
0.001463
 10
0.000407
 20
0.001464
 10
0.000422
 20
0.001468
 10
0.000438
 20
0.001473
 10
0.000452
 20
0.001480
 10
0.000466
 20
0.001488
 10
0.000479
 20
0.001498
 10
0.000491
 20
0.001509
 10
0.000502
 20
0.001521
 10
0.000512
 20
0.001534
 10
0.000520
 20
0.001548
 10
0.000527
 20
0.001562
 10
0.000532
 20
0.001578
 10
0.000536
 20
0.001593
 10
0.000539
 20
0.001609
 10
0.000540
 20
0.001625
 10
0.000539
 20
0.001641
 10
0.000536
 20
0.001657
 10
0.000532
 20
0.001672
 10
0.000527
 20
0.001688
 10
0.000520
 20
0.001702
 10
0.000512
 20
0.001716
 10
0.000502
 20
0.001729
 10
0.000491
 20
0.001741
 10
0.000479
 20
0.001752
 10
0.000466
 20
0.001762
 10
0.000452
 20
0.001770
 10
0.000438
 20
0.001777
 10
0.000422
 20
0.001782
 10
0.000407
 20
0.001786
 10
0.000392
 20
0.001798
 10
0.000375
 20
0.001812
 10
0.000356
 20
0.001823
 10
0.000336
 20
0.001832
 10
0.000315
 20
0.001840
 10
0.000293
 20
0.001845
 10
0.000272
 20
0.001848
 10
0.000250
 20
0.001850
 10
0.000228
 20
0.001848
 10
0.000207
 20
0.001845
 10
0.000185
 20
0.001840
 10
0.000164
 20
0.001832
 10
0.000144
 20
0.001823
 10
0.000125
 20
0.001812
 10
0.000108
 20
0.001798
 10
0.000091
 20
0.001784
 10
0.000077
 20
0.001767
 10
0.000063
 20
0.001750
 10
0.000052
 20
0.001731
 10
0.000043
 20
0.001711
 10
0.000035
 20
0.001690
 10
0.000030
 20
0.001668
 10
0.000027
 20
0.001647
 10
0.000025
 20
0.001625
 10
0.000027
 20
0.001603
 10
0.000030
 20
0.001582
 10
0.000035
 20
0.001560
 10
0.000043
 20
0.001539
 10
0.000052
 20
0.001519
 10
0.000063
 20
0.001500
 10
0.000077
 20
0.001483
 10
0.000091
 20
0.001466
 10
0.000108
 20
0.001452
 10
0.000125
 20
0.001438
 10
0.000144
 20
0.001427
 10
0.000164
 20
0.001418
 10
0.000185
 20
0.001410
 10
0.000207
 20
0.001405
 10
0.000228
 20
0.001402
 10
0.000250
 20
0.001400
  0
LWPOLYLINE
  8
Aluminum
420
12632256
 90
4
 70
1
 10
0.000000
 20
0.003750
 10
0.002250
 20
0.003750
 10
0.002250
 20
0.004250
 10
0.000000
 20
0.004250
  0
LWPOLYLINE
  8
Aluminum
420
12632256
 90
4
 70
1
 10
0.000000
 20
0.000000
 10
0.002250
 20
0.000000
 10
0.002250
 20
0.000500
 10
0.000000
 20
0.000500
  0
LWPOLYLINE
  8
Silicon_N
420
8425600
 90
4
 70
1
 10
0.000750
 20
0.002250
 10
0.001250
 20
0.002250
 10
0.001250
 20
0.003375
 10
0.000750
 20
0.003375
  0
LWPOLYLINE
  8
Silicon_N
420
8425600
 90
4
 70
1
 10
0.001500
 20
0.002250
 10
0.002000
 20
0.002250
 10
0.002000
 20
0.003375
 10
0.001500
 20
0.003375
  0
LWPOLYLINE
  8
Silicon_P
420
9478288
 90
4
 70
1
 10
0.000750
 20
0.000875
 10
0.001250
 20
0.000875
 10
0.001250
 20
0.001250
 10
0.000750
 20
0.001250
  0
LWPOLYLINE
  8
Silicon_P
420
9478288
 90
4
 70
1
 10
0.001500
 20
0.000875
 10
0.002000
 20
0.000875
 10
0.002000
 20
0.001250
 10
0.001500
 20
0.001250
  0
LWPOLYLINE
  8
Polysilicon
420
7372944
 90
4
 70
1
 10
0.001250
 20
0.000625
 10
0.001500
 20
0.000625
 10
0.001500
 20
0.003625
 10
0.001250
 20
0.003625
  0
LWPOLYLINE
  8
Polysilicon
420
7372944
 90
4
 70
1
 10
0.000250
 20
0.001500
 10
0.001250
 20
0.001500
 10
0.001250
 20
0.001750
 10
0.000250
 20
0.001750
  0
LWPOLYLINE
  8
Polysilicon
420
7372944
 90
4
 70
1
 10
0.000000
 20
0.001375
 10
0.000500
 20
0.001375
 10
0.000500
 20
0.001875
 10
0.000000
 20
0.001875
  0
LWPOLYLINE
  8
Aluminum
420
12632256
 90
4
 70
1
 10
0.000750
 20
0.002250
 10
0.001250
 20
0.002250
 10
0.001250
 20
0.004250
 10
0.000750
 20
0.004250
  0
LWPOLYLINE
  8
Aluminum
420
12632256
 90
4
 70
1
 10
0.000750
 20
0.000000
 10
0.001250
 20
0.000000
 10
0.001250
 20
0.001250
 10
0.000750
 20
0.001250
  0
LWPOLYLINE
  8
Aluminum
420
12632256
 90
4
 70
1
 10
0.001500
 20
0.000875
 10
0.002000
 20
0.000875
 10
0.002000
 20
0.003375
 10
0.001500
 20
0.003375
  0
LWPOLYLINE
  8
Aluminum
420
12632256
 90
4
 70
1
 10
0.002000
 20
0.001875
 10
0.002250
 20
0.001875
 10
0.002250
 20
0.002375
 10
0.002000
 20
0.002375
  0
LWPOLYLINE
  8
Aluminum
420
12632256
 90
4
 70
1
 10
0.000000
 20
0.001375
 10
0.000500
 20
0.001375
 10
0.000500
 20
0.001875
 10
0.000000
 20
0.001875
  0
CIRCLE
  8
Tungsten
420
10526880
 10
0.000250
 20
0.001625
 40
0.000075
  0
CIRCLE
  8
Tungsten
420
10526880
 10
0.001000
 20
0.001062
 40
0.000075
  0
CIRCLE
  8
Tungsten
420
10526880
 10
0.001750
 20
0.001062
 40
0.000075
  0
CIRCLE
  8
Tungsten
420
10526880
 10
0.001000
 20
0.002500
 40
0.000075
  0
CIRCLE
  8
Tungsten
420
10526880
 10
0.001000
 20
0.003250
 40
0.000075
  0
CIRCLE
  8
Tungsten
420
10526880
 10
0.001750
 20
0.002500
 40
0.000075
  0
CIRCLE
  8
Tungsten
420
10526880
 10
0.001750
 20
0.003250
 40
0.000075
  0
ENDSEC
  0
EOF
