  0
SECTION
  2
HEADER
  9
$ACADVER
  1
AC1018
  0
ENDSEC
  0
SECTION
  2
TABLES
  0
TABLE
  2
LAYER
  0
LAYER
  2
Aluminum
 70
0
 62
7
  0
LAYER
  2
Silicon_N
 70
0
 62
7
  0
LAYER
  2
Polysilicon
 70
0
 62
7
  0
LAYER
  2
Titanium_Silicide
 70
0
 62
7
  0
ENDTAB
  0
ENDSEC
  0
SECTION
  2
ENTITIES
  0
LWPOLYLINE
  8
Silicon_N
420
8425600
 90
4
 70
1
 10
0.001600
 20
0.002300
 10
0.001100
 20
0.002300
 10
0.001100
 20
0.001700
 10
0.001600
 20
0.001700
  0
LWPOLYLINE
  8
Silicon_N
420
8425600
 90
4
 70
1
 10
0.000900
 20
0.002300
 10
0.000400
 20
0.002300
 10
0.000400
 20
0.001700
 10
0.000900
 20
0.001700
  0
LWPOLYLINE
  8
Titanium_Silicide
420
4210752
 90
4
 70
1
 10
0.001450
 20
0.002100
 10
0.001250
 20
0.002100
 10
0.001250
 20
0.001900
 10
0.001450
 20
0.001900
  0
LWPOLYLINE
  8
Titanium_Silicide
420
4210752
 90
4
 70
1
 10
0.000750
 20
0.002100
 10
0.000550
 20
0.002100
 10
0.000550
 20
0.001900
 10
0.000750
 20
0.001900
  0
LWPOLYLINE
  8
Polysilicon
420
16736352
 90
4
 70
1
 10
0.001200
 20
0.002600
 10
0.000800
 20
0.002600
 10
0.000800
 20
0.001400
 10
0.001200
 20
0.001400
  0
LWPOLYLINE
  8
Aluminum
420
12632256
 90
10
 70
1
 10
0.001600
 20
0.002600
 10
0.001800
 20
0.002600
 10
0.001800
 20
0.003000
 10
0.001200
 20
0.003000
 10
0.001200
 20
0.002600
 10
0.001400
 20
0.002600
 10
0.001400
 20
0.002100
 10
0.001250
 20
0.002100
 10
0.001250
 20
0.001900
 10
0.001600
 20
0.001900
  0
LWPOLYLINE
  8
Aluminum
420
12632256
 90
12
 70
1
 10
0.002000
 20
0.000700
 10
0.001100
 20
0.000700
 10
0.001100
 20
0.001741
 10
0.000741
 20
0.002100
 10
0.000550
 20
0.002100
 10
0.000550
 20
0.001900
 10
0.000658
 20
0.001900
 10
0.000900
 20
0.001658
 10
0.000900
 20
0.000700
 10
0.000000
 20
0.000700
 10
0.000000
 20
0.000100
 10
0.002000
 20
0.000100
  0
ENDSEC
  0
EOF
