  0
SECTION
  2
HEADER
  9
$ACADVER
  1
AC1018
  0
ENDSEC
  0
SECTION
  2
TABLES
  0
TABLE
  2
LAYER
  0
LAYER
  2
L_Silicon_P
 70
0
 62
7
420
16758465
440
33554432
  0
ENDTAB
  0
ENDSEC
  0
SECTION
  2
ENTITIES
  0
LWPOLYLINE
  8
L1_Silicon_P
420
16758465
 90
4
 70
1
 10
0.001000
 20
0.001000
 10
99.999000
 20
0.001000
 10
99.999000
 20
9.999000
 10
0.001000
 20
9.999000
  0
LWPOLYLINE
  8
L3_Components
420
12088115
 90
4
 70
1
 10
5.000000
 20
5.000000
 10
13.000000
 20
5.000000
 10
13.000000
 20
9.000000
 10
5.000000
 20
9.000000
  0
LWPOLYLINE
  8
L3_Components
420
12088115
 90
4
 70
1
 10
15.000000
 20
5.000000
 10
23.000000
 20
5.000000
 10
23.000000
 20
9.000000
 10
15.000000
 20
9.000000
  0
LWPOLYLINE
  8
L3_Components
420
12088115
 90
4
 70
1
 10
25.000000
 20
5.000000
 10
33.000000
 20
5.000000
 10
33.000000
 20
9.000000
 10
25.000000
 20
9.000000
  0
LWPOLYLINE
  8
L3_Components
420
12088115
 90
4
 70
1
 10
35.000000
 20
5.000000
 10
43.000000
 20
5.000000
 10
43.000000
 20
9.000000
 10
35.000000
 20
9.000000
  0
LWPOLYLINE
  8
L3_Traces
420
16737792
 43
0.100000
 90
2
 70
0
 10
13.000000
 20
7.000000
 10
13.208000
 20
7.000000
  0
LWPOLYLINE
  8
L3_Traces
420
16737792
 43
0.100000
 90
2
 70
0
 10
13.208000
 20
7.000000
 10
13.209000
 20
7.000000
  0
LWPOLYLINE
  8
L3_Traces
420
16737792
 43
0.100000
 90
2
 70
0
 10
13.209000
 20
7.000000
 10
13.464000
 20
7.000000
  0
LWPOLYLINE
  8
L3_Traces
420
16737792
 43
0.100000
 90
2
 70
0
 10
13.464000
 20
7.000000
 10
13.465000
 20
7.000000
  0
LWPOLYLINE
  8
L3_Traces
420
16737792
 43
0.100000
 90
2
 70
0
 10
13.465000
 20
7.000000
 10
13.720000
 20
7.000000
  0
LWPOLYLINE
  8
L3_Traces
420
16737792
 43
0.100000
 90
2
 70
0
 10
13.720000
 20
7.000000
 10
13.721000
 20
7.000000
  0
LWPOLYLINE
  8
L3_Traces
420
16737792
 43
0.100000
 90
2
 70
0
 10
13.721000
 20
7.000000
 10
13.976000
 20
7.000000
  0
LWPOLYLINE
  8
L3_Traces
420
16737792
 43
0.100000
 90
2
 70
0
 10
13.976000
 20
7.000000
 10
13.977000
 20
7.000000
  0
LWPOLYLINE
  8
L3_Traces
420
16737792
 43
0.100000
 90
2
 70
0
 10
13.977000
 20
7.000000
 10
14.232000
 20
7.000000
  0
LWPOLYLINE
  8
L3_Traces
420
16737792
 43
0.100000
 90
2
 70
0
 10
14.232000
 20
7.000000
 10
14.233000
 20
7.000000
  0
LWPOLYLINE
  8
L3_Traces
420
16737792
 43
0.100000
 90
2
 70
0
 10
14.233000
 20
7.000000
 10
14.488000
 20
7.000000
  0
LWPOLYLINE
  8
L3_Traces
420
16737792
 43
0.100000
 90
2
 70
0
 10
14.488000
 20
7.000000
 10
14.489000
 20
7.000000
  0
LWPOLYLINE
  8
L3_Traces
420
16737792
 43
0.100000
 90
2
 70
0
 10
14.489000
 20
7.000000
 10
14.744000
 20
7.000000
  0
LWPOLYLINE
  8
L3_Traces
420
16737792
 43
0.100000
 90
2
 70
0
 10
14.744000
 20
7.000000
 10
14.745000
 20
7.000000
  0
LWPOLYLINE
  8
L3_Traces
420
16737792
 43
0.100000
 90
2
 70
0
 10
14.745000
 20
7.000000
 10
15.000000
 20
7.000000
  0
LWPOLYLINE
  8
L3_Traces
420
16737792
 43
0.100000
 90
2
 70
0
 10
23.000000
 20
7.000000
 10
23.208000
 20
7.000000
  0
LWPOLYLINE
  8
L3_Traces
420
16737792
 43
0.100000
 90
2
 70
0
 10
23.208000
 20
7.000000
 10
23.209000
 20
7.000000
  0
LWPOLYLINE
  8
L3_Traces
420
16737792
 43
0.100000
 90
2
 70
0
 10
23.209000
 20
7.000000
 10
23.464000
 20
7.000000
  0
LWPOLYLINE
  8
L3_Traces
420
16737792
 43
0.100000
 90
2
 70
0
 10
23.464000
 20
7.000000
 10
23.465000
 20
7.000000
  0
LWPOLYLINE
  8
L3_Traces
420
16737792
 43
0.100000
 90
2
 70
0
 10
23.465000
 20
7.000000
 10
23.720000
 20
7.000000
  0
LWPOLYLINE
  8
L3_Traces
420
16737792
 43
0.100000
 90
2
 70
0
 10
23.720000
 20
7.000000
 10
23.721000
 20
7.000000
  0
LWPOLYLINE
  8
L3_Traces
420
16737792
 43
0.100000
 90
2
 70
0
 10
23.721000
 20
7.000000
 10
23.976000
 20
7.000000
  0
LWPOLYLINE
  8
L3_Traces
420
16737792
 43
0.100000
 90
2
 70
0
 10
23.976000
 20
7.000000
 10
23.977000
 20
7.000000
  0
LWPOLYLINE
  8
L3_Traces
420
16737792
 43
0.100000
 90
2
 70
0
 10
23.977000
 20
7.000000
 10
24.232000
 20
7.000000
  0
LWPOLYLINE
  8
L3_Traces
420
16737792
 43
0.100000
 90
2
 70
0
 10
24.232000
 20
7.000000
 10
24.233000
 20
7.000000
  0
LWPOLYLINE
  8
L3_Traces
420
16737792
 43
0.100000
 90
2
 70
0
 10
24.233000
 20
7.000000
 10
24.488000
 20
7.000000
  0
LWPOLYLINE
  8
L3_Traces
420
16737792
 43
0.100000
 90
2
 70
0
 10
24.488000
 20
7.000000
 10
24.489000
 20
7.000000
  0
LWPOLYLINE
  8
L3_Traces
420
16737792
 43
0.100000
 90
2
 70
0
 10
24.489000
 20
7.000000
 10
24.744000
 20
7.000000
  0
LWPOLYLINE
  8
L3_Traces
420
16737792
 43
0.100000
 90
2
 70
0
 10
24.744000
 20
7.000000
 10
24.745000
 20
7.000000
  0
LWPOLYLINE
  8
L3_Traces
420
16737792
 43
0.100000
 90
2
 70
0
 10
24.745000
 20
7.000000
 10
25.000000
 20
7.000000
  0
LWPOLYLINE
  8
L3_Traces
420
16737792
 43
0.100000
 90
2
 70
0
 10
33.000000
 20
7.000000
 10
33.208000
 20
7.000000
  0
LWPOLYLINE
  8
L3_Traces
420
16737792
 43
0.100000
 90
2
 70
0
 10
33.208000
 20
7.000000
 10
33.209000
 20
7.000000
  0
LWPOLYLINE
  8
L3_Traces
420
16737792
 43
0.100000
 90
2
 70
0
 10
33.209000
 20
7.000000
 10
33.464000
 20
7.000000
  0
LWPOLYLINE
  8
L3_Traces
420
16737792
 43
0.100000
 90
2
 70
0
 10
33.464000
 20
7.000000
 10
33.465000
 20
7.000000
  0
LWPOLYLINE
  8
L3_Traces
420
16737792
 43
0.100000
 90
2
 70
0
 10
33.465000
 20
7.000000
 10
33.720000
 20
7.000000
  0
LWPOLYLINE
  8
L3_Traces
420
16737792
 43
0.100000
 90
2
 70
0
 10
33.720000
 20
7.000000
 10
33.721000
 20
7.000000
  0
LWPOLYLINE
  8
L3_Traces
420
16737792
 43
0.100000
 90
2
 70
0
 10
33.721000
 20
7.000000
 10
33.976000
 20
7.000000
  0
LWPOLYLINE
  8
L3_Traces
420
16737792
 43
0.100000
 90
2
 70
0
 10
33.976000
 20
7.000000
 10
33.977000
 20
7.000000
  0
LWPOLYLINE
  8
L3_Traces
420
16737792
 43
0.100000
 90
2
 70
0
 10
33.977000
 20
7.000000
 10
34.232000
 20
7.000000
  0
LWPOLYLINE
  8
L3_Traces
420
16737792
 43
0.100000
 90
2
 70
0
 10
34.232000
 20
7.000000
 10
34.233000
 20
7.000000
  0
LWPOLYLINE
  8
L3_Traces
420
16737792
 43
0.100000
 90
2
 70
0
 10
34.233000
 20
7.000000
 10
34.488000
 20
7.000000
  0
LWPOLYLINE
  8
L3_Traces
420
16737792
 43
0.100000
 90
2
 70
0
 10
34.488000
 20
7.000000
 10
34.489000
 20
7.000000
  0
LWPOLYLINE
  8
L3_Traces
420
16737792
 43
0.100000
 90
2
 70
0
 10
34.489000
 20
7.000000
 10
34.744000
 20
7.000000
  0
LWPOLYLINE
  8
L3_Traces
420
16737792
 43
0.100000
 90
2
 70
0
 10
34.744000
 20
7.000000
 10
34.745000
 20
7.000000
  0
LWPOLYLINE
  8
L3_Traces
420
16737792
 43
0.100000
 90
2
 70
0
 10
34.745000
 20
7.000000
 10
35.000000
 20
7.000000
  0
ENDSEC
  0
EOF
