  0
SECTION
  2
HEADER
  9
$ACADVER
  1
AC1018
  0
ENDSEC
  0
SECTION
  2
TABLES
  0
TABLE
  2
LAYER
  0
LAYER
  2
DRILL
 70
0
 62
0
  0
LAYER
  2
TOP_COMPONENTS
 70
0
 62
7
  0
LAYER
  2
BOTTOM_COMPONENTS
 70
0
 62
7
  0
LAYER
  2
PCB_LAYERS
 70
0
 62
7
  0
ENDTAB
  0
ENDSEC
  0
SECTION
  2
ENTITIES
  0
LWPOLYLINE
  8
PCB_LAYERS
420
12088115
 90
4
 70
1
 10
0.200500
 20
0.300500
 10
0.199500
 20
0.300500
 10
0.199500
 20
0.099500
 10
0.200500
 20
0.099500
  0
LWPOLYLINE
  8
PCB_LAYERS
420
12088115
 90
4
 70
1
 10
0.400500
 20
0.300500
 10
0.199500
 20
0.300500
 10
0.199500
 20
0.299500
 10
0.400500
 20
0.299500
  0
LWPOLYLINE
  8
PCB_LAYERS
420
12088115
 90
4
 70
1
 10
0.400500
 20
0.300500
 10
0.399500
 20
0.300500
 10
0.399500
 20
0.299500
 10
0.400500
 20
0.299500
  0
LWPOLYLINE
  8
PCB_LAYERS
420
12088115
 90
6
 70
1
 10
0.400500
 20
0.499500
 10
0.500500
 20
0.499500
 10
0.500500
 20
0.500500
 10
0.399500
 20
0.500500
 10
0.399500
 20
0.299500
 10
0.400500
 20
0.299500
  0
LWPOLYLINE
  8
PCB_LAYERS
420
12088115
 90
4
 70
1
 10
0.200500
 20
0.100500
 10
0.199500
 20
0.100500
 10
0.199500
 20
0.099500
 10
0.200500
 20
0.099500
  0
LWPOLYLINE
  8
PCB_LAYERS
420
12088115
 90
4
 70
1
 10
0.200500
 20
0.300500
 10
0.199500
 20
0.300500
 10
0.199500
 20
0.299500
 10
0.200500
 20
0.299500
  0
LWPOLYLINE
  8
PCB_LAYERS
420
12088115
 90
4
 70
1
 10
0.200500
 20
0.100500
 10
0.099500
 20
0.100500
 10
0.099500
 20
0.099500
 10
0.200500
 20
0.099500
  0
ENDSEC
  0
EOF
