  0
SECTION
  2
HEADER
  9
$ACADVER
  1
AC1018
  0
ENDSEC
  0
SECTION
  2
TABLES
  0
TABLE
  2
LAYER
  0
LAYER
  2
L_Silicon_P
 70
0
 62
7
420
6974058
440
33554610
  0
LAYER
  2
L_Polysilicon
 70
0
 62
7
420
8421504
440
33554432
  0
LAYER
  2
L_Silicon_N
 70
0
 62
7
420
4868682
440
33554432
  0
ENDTAB
  0
ENDSEC
  0
SECTION
  2
ENTITIES
  0
LWPOLYLINE
  8
L0_Silicon_P
420
6974058
 90
4
 70
1
 10
0.001000
 20
0.001000
 10
0.998999
 20
0.001000
 10
0.998999
 20
0.998999
 10
0.001000
 20
0.998999
  0
LWPOLYLINE
  8
L0_Polysilicon
420
8421504
 90
4
 70
1
 10
0.199999
 20
0.300000
 10
0.300000
 20
0.300000
 10
0.300000
 20
0.399999
 10
0.199999
 20
0.399999
  0
LWPOLYLINE
  8
L0_Silicon_N
420
4868682
 90
4
 70
1
 10
0.199999
 20
0.099999
 10
0.300000
 20
0.099999
 10
0.300000
 20
0.299000
 10
0.199999
 20
0.299000
  0
LWPOLYLINE
  8
L0_Silicon_N
420
4868682
 90
4
 70
1
 10
0.199999
 20
0.401000
 10
0.300000
 20
0.401000
 10
0.300000
 20
0.700000
 10
0.199999
 20
0.700000
  0
LWPOLYLINE
  8
L0_Silicon_P
420
6974058
 90
4
 70
1
 10
0.099999
 20
0.099999
 10
0.198999
 20
0.099999
 10
0.198999
 20
0.299000
 10
0.099999
 20
0.299000
  0
LWPOLYLINE
  8
L0_Polysilicon
420
8421504
 90
4
 70
1
 10
0.099999
 20
0.099999
 10
0.300000
 20
0.099999
 10
0.300000
 20
0.299000
 10
0.099999
 20
0.299000
  0
LWPOLYLINE
  8
L0_Polysilicon
420
8421504
 90
4
 70
1
 10
0.200000
 20
0.149999
 10
0.300000
 20
0.149999
 10
0.300000
 20
0.249999
 10
0.200000
 20
0.249999
  0
LWPOLYLINE
  8
L0_Polysilicon
420
8421504
 90
4
 70
1
 10
0.100000
 20
0.149999
 10
0.200000
 20
0.149999
 10
0.200000
 20
0.249999
 10
0.100000
 20
0.249999
  0
ENDSEC
  0
EOF
