  0
SECTION
  2
HEADER
  9
$ACADVER
  1
AC1018
  0
ENDSEC
  0
SECTION
  2
TABLES
  0
TABLE
  2
LAYER
  0
LAYER
  2
L_Copper
 70
0
 62
7
420
12088115
440
33554432
  0
ENDTAB
  0
ENDSEC
  0
SECTION
  2
ENTITIES
  0
LWPOLYLINE
  8
L0_Copper
420
12088115
 90
4
 70
1
 10
5.000000
 20
5.000000
 10
15.000000
 20
5.000000
 10
15.000000
 20
15.000000
 10
5.000000
 20
15.000000
  0
LWPOLYLINE
  8
L0_Copper
420
12088115
 90
4
 70
1
 10
5.000000
 20
5.000000
 10
15.000000
 20
5.000000
 10
15.000000
 20
15.000000
 10
5.000000
 20
15.000000
  0
LWPOLYLINE
  8
L0_Copper
420
12088115
 90
4
 70
1
 10
9.850000
 20
9.850000
 10
10.150000
 20
9.850000
 10
10.150000
 20
10.150000
 10
9.850000
 20
10.150000
  0
LWPOLYLINE
  8
L0_Copper
420
12088115
 90
4
 70
1
 10
9.850000
 20
9.850000
 10
10.150000
 20
9.850000
 10
10.150000
 20
10.150000
 10
9.850000
 20
10.150000
  0
LWPOLYLINE
  8
L0_Copper
420
12088115
 90
4
 70
1
 10
9.850000
 20
9.850000
 10
10.150000
 20
9.850000
 10
10.150000
 20
10.150000
 10
9.850000
 20
10.150000
  0
LWPOLYLINE
  8
L0_Copper
420
12088115
 90
4
 70
1
 10
9.850000
 20
9.850000
 10
10.150000
 20
9.850000
 10
10.150000
 20
10.150000
 10
9.850000
 20
10.150000
  0
LWPOLYLINE
  8
L0_Copper
420
12088115
 90
4
 70
1
 10
9.850000
 20
9.850000
 10
10.150000
 20
9.850000
 10
10.150000
 20
10.150000
 10
9.850000
 20
10.150000
  0
LWPOLYLINE
  8
L0_Copper
420
12088115
 90
4
 70
1
 10
9.850000
 20
9.850000
 10
10.150000
 20
9.850000
 10
10.150000
 20
10.150000
 10
9.850000
 20
10.150000
  0
LWPOLYLINE
  8
L0_Copper
420
12088115
 90
4
 70
1
 10
9.850000
 20
9.850000
 10
10.150000
 20
9.850000
 10
10.150000
 20
10.150000
 10
9.850000
 20
10.150000
  0
LWPOLYLINE
  8
L0_Copper
420
12088115
 90
4
 70
1
 10
9.850000
 20
9.850000
 10
10.150000
 20
9.850000
 10
10.150000
 20
10.150000
 10
9.850000
 20
10.150000
  0
LWPOLYLINE
  8
L0_Copper
420
12088115
 90
4
 70
1
 10
9.850000
 20
9.850000
 10
10.150000
 20
9.850000
 10
10.150000
 20
10.150000
 10
9.850000
 20
10.150000
  0
ENDSEC
  0
EOF
