  0
SECTION
  2
HEADER
  9
$ACADVER
  1
AC1018
  0
ENDSEC
  0
SECTION
  2
TABLES
  0
TABLE
  2
LAYER
  0
LAYER
  2
L_FR4
 70
0
 62
7
420
3046706
440
33554610
  0
LAYER
  2
L_Copper
 70
0
 62
7
420
16766720
440
33554432
  0
ENDTAB
  0
ENDSEC
  0
SECTION
  2
ENTITIES
  0
LWPOLYLINE
  8
Z0.7850mm_FR4
420
3046706
 90
4
 70
1
 10
0.000000
 20
0.000000
 10
100.000000
 20
0.000000
 10
100.000000
 20
50.000000
 10
0.000000
 20
50.000000
  0
LWPOLYLINE
  8
Z1.5600mm_Copper
420
16766720
 90
4
 70
1
 10
21.000000
 20
26.000000
 10
23.000000
 20
26.000000
 10
23.000000
 20
28.000000
 10
21.000000
 20
28.000000
  0
LWPOLYLINE
  8
Z1.5600mm_Copper
420
16766720
 90
4
 70
1
 10
81.000000
 20
26.000000
 10
83.000000
 20
26.000000
 10
83.000000
 20
28.000000
 10
81.000000
 20
28.000000
  0
LWPOLYLINE
  8
Z1.5600mm_Copper
420
16766720
 90
4
 70
1
 10
21.950000
 20
26.950000
 10
22.550000
 20
26.950000
 10
22.550000
 20
27.050000
 10
21.950000
 20
27.050000
  0
LWPOLYLINE
  8
Z1.5750mm_Copper
420
16766720
 90
4
 70
1
 10
22.450000
 20
26.950000
 10
81.550000
 20
26.950000
 10
81.550000
 20
27.050000
 10
22.450000
 20
27.050000
  0
LWPOLYLINE
  8
Z1.5750mm_Copper
420
16766720
 90
4
 70
1
 10
81.450000
 20
26.950000
 10
82.050000
 20
26.950000
 10
82.050000
 20
27.050000
 10
81.450000
 20
27.050000
  0
LWPOLYLINE
  8
Z1.7850mm_Component_Components
420
12088115
 90
4
 70
1
 10
20.000000
 20
25.000000
 10
24.000000
 20
25.000000
 10
24.000000
 20
29.000000
 10
20.000000
 20
29.000000
  0
LWPOLYLINE
  8
Z1.7850mm_Component_Components
420
12088115
 90
4
 70
1
 10
80.000000
 20
25.000000
 10
84.000000
 20
25.000000
 10
84.000000
 20
29.000000
 10
80.000000
 20
29.000000
  0
LWPOLYLINE
  8
Z1.5350mm_Copper_Traces
420
16766720
 43
0.100000
 90
2
 70
0
 10
22.000000
 20
27.000000
 10
22.500000
 20
27.000000
  0
LWPOLYLINE
  8
Z1.5500mm_Copper_Traces
420
16766720
 43
0.100000
 90
2
 70
0
 10
22.500000
 20
27.000000
 10
81.500000
 20
27.000000
  0
LWPOLYLINE
  8
Z1.5500mm_Copper_Traces
420
16766720
 43
0.100000
 90
2
 70
0
 10
81.500000
 20
27.000000
 10
82.000000
 20
27.000000
  0
ENDSEC
  0
EOF
