  0
SECTION
  2
HEADER
  9
$ACADVER
  1
AC1018
  0
ENDSEC
  0
SECTION
  2
TABLES
  0
TABLE
  2
LAYER
  0
LAYER
  2
Silicon_Dioxide
 70
0
 62
7
  0
LAYER
  2
N_Plus_Diffusion
 70
0
 62
7
  0
LAYER
  2
N_Plus_Implant_Mask
 70
0
 62
7
  0
LAYER
  2
Polysilicon
 70
0
 62
7
  0
LAYER
  2
Nitride_Poly_Cut_Mask
 70
0
 62
7
  0
LAYER
  2
Titanium_Nitride
 70
0
 62
7
  0
LAYER
  2
Copper
 70
0
 62
7
  0
LAYER
  2
Tungsten
 70
0
 62
7
  0
LAYER
  2
Tap_Mask
 70
0
 62
7
  0
LAYER
  2
P_Plus_Implant_Mask
 70
0
 62
7
  0
LAYER
  2
P_Plus_Diffusion
 70
0
 62
7
  0
ENDTAB
  0
ENDSEC
  0
SECTION
  2
ENTITIES
  0
LWPOLYLINE
  8
N_Plus_Diffusion
420
9498256
 90
4
 70
1
 10
0.010725
 20
0.006500
 10
0.009275
 20
0.006500
 10
0.009275
 20
0.005500
 10
0.010725
 20
0.005500
  0
LWPOLYLINE
  8
P_Plus_Diffusion
420
16744576
 90
4
 70
1
 10
0.010200
 20
0.005025
 10
0.009800
 20
0.005025
 10
0.009800
 20
0.004625
 10
0.010200
 20
0.004625
  0
LWPOLYLINE
  8
Tungsten
420
8421631
 90
4
 70
1
 10
0.010485
 20
0.006310
 10
0.010315
 20
0.006310
 10
0.010315
 20
0.006140
 10
0.010485
 20
0.006140
  0
LWPOLYLINE
  8
Tungsten
420
8421631
 90
4
 70
1
 10
0.010485
 20
0.005860
 10
0.010315
 20
0.005860
 10
0.010315
 20
0.005690
 10
0.010485
 20
0.005690
  0
LWPOLYLINE
  8
Tungsten
420
8421631
 90
4
 70
1
 10
0.009685
 20
0.006310
 10
0.009515
 20
0.006310
 10
0.009515
 20
0.006140
 10
0.009685
 20
0.006140
  0
LWPOLYLINE
  8
Tungsten
420
8421631
 90
4
 70
1
 10
0.009685
 20
0.005860
 10
0.009515
 20
0.005860
 10
0.009515
 20
0.005690
 10
0.009685
 20
0.005690
  0
LWPOLYLINE
  8
Tungsten
420
8421631
 90
4
 70
1
 10
0.010085
 20
0.004910
 10
0.009915
 20
0.004910
 10
0.009915
 20
0.004740
 10
0.010085
 20
0.004740
  0
LWPOLYLINE
  8
Tungsten
420
8421631
 90
4
 70
1
 10
0.010485
 20
0.006310
 10
0.010315
 20
0.006310
 10
0.010315
 20
0.006140
 10
0.010485
 20
0.006140
  0
LWPOLYLINE
  8
Tungsten
420
8421631
 90
4
 70
1
 10
0.010485
 20
0.005860
 10
0.010315
 20
0.005860
 10
0.010315
 20
0.005690
 10
0.010485
 20
0.005690
  0
LWPOLYLINE
  8
Tungsten
420
8421631
 90
4
 70
1
 10
0.009685
 20
0.006310
 10
0.009515
 20
0.006310
 10
0.009515
 20
0.006140
 10
0.009685
 20
0.006140
  0
LWPOLYLINE
  8
Tungsten
420
8421631
 90
4
 70
1
 10
0.009685
 20
0.005860
 10
0.009515
 20
0.005860
 10
0.009515
 20
0.005690
 10
0.009685
 20
0.005690
  0
LWPOLYLINE
  8
Tungsten
420
8421631
 90
4
 70
1
 10
0.010085
 20
0.004910
 10
0.009915
 20
0.004910
 10
0.009915
 20
0.004740
 10
0.010085
 20
0.004740
  0
LWPOLYLINE
  8
Polysilicon
420
16736352
 90
10
 70
1
 10
0.010075
 20
0.006750
 10
0.010200
 20
0.006750
 10
0.010200
 20
0.007150
 10
0.010075
 20
0.007150
 10
0.009925
 20
0.007150
 10
0.009800
 20
0.007150
 10
0.009800
 20
0.006750
 10
0.009925
 20
0.006750
 10
0.009925
 20
0.005300
 10
0.010075
 20
0.005300
  0
LWPOLYLINE
  8
Tungsten
420
8421631
 90
4
 70
1
 10
0.010085
 20
0.007035
 10
0.009915
 20
0.007035
 10
0.009915
 20
0.006865
 10
0.010085
 20
0.006865
  0
LWPOLYLINE
  8
Tungsten
420
8421631
 90
4
 70
1
 10
0.010485
 20
0.006310
 10
0.010315
 20
0.006310
 10
0.010315
 20
0.006140
 10
0.010485
 20
0.006140
  0
LWPOLYLINE
  8
Tungsten
420
8421631
 90
4
 70
1
 10
0.010485
 20
0.005860
 10
0.010315
 20
0.005860
 10
0.010315
 20
0.005690
 10
0.010485
 20
0.005690
  0
LWPOLYLINE
  8
Tungsten
420
8421631
 90
4
 70
1
 10
0.010085
 20
0.007035
 10
0.009915
 20
0.007035
 10
0.009915
 20
0.006865
 10
0.010085
 20
0.006865
  0
LWPOLYLINE
  8
Tungsten
420
8421631
 90
4
 70
1
 10
0.009685
 20
0.006310
 10
0.009515
 20
0.006310
 10
0.009515
 20
0.006140
 10
0.009685
 20
0.006140
  0
LWPOLYLINE
  8
Tungsten
420
8421631
 90
4
 70
1
 10
0.009685
 20
0.005860
 10
0.009515
 20
0.005860
 10
0.009515
 20
0.005690
 10
0.009685
 20
0.005690
  0
LWPOLYLINE
  8
Tungsten
420
8421631
 90
4
 70
1
 10
0.010085
 20
0.004910
 10
0.009915
 20
0.004910
 10
0.009915
 20
0.004740
 10
0.010085
 20
0.004740
  0
LWPOLYLINE
  8
Tungsten
420
8421631
 90
4
 70
1
 10
0.010485
 20
0.006310
 10
0.010315
 20
0.006310
 10
0.010315
 20
0.006140
 10
0.010485
 20
0.006140
  0
LWPOLYLINE
  8
Tungsten
420
8421631
 90
4
 70
1
 10
0.010485
 20
0.005860
 10
0.010315
 20
0.005860
 10
0.010315
 20
0.005690
 10
0.010485
 20
0.005690
  0
LWPOLYLINE
  8
Tungsten
420
8421631
 90
4
 70
1
 10
0.010085
 20
0.007035
 10
0.009915
 20
0.007035
 10
0.009915
 20
0.006865
 10
0.010085
 20
0.006865
  0
LWPOLYLINE
  8
Tungsten
420
8421631
 90
4
 70
1
 10
0.009685
 20
0.006310
 10
0.009515
 20
0.006310
 10
0.009515
 20
0.006140
 10
0.009685
 20
0.006140
  0
LWPOLYLINE
  8
Tungsten
420
8421631
 90
4
 70
1
 10
0.009685
 20
0.005860
 10
0.009515
 20
0.005860
 10
0.009515
 20
0.005690
 10
0.009685
 20
0.005690
  0
LWPOLYLINE
  8
Tungsten
420
8421631
 90
4
 70
1
 10
0.010085
 20
0.004910
 10
0.009915
 20
0.004910
 10
0.009915
 20
0.004740
 10
0.010085
 20
0.004740
  0
LWPOLYLINE
  8
Titanium_Nitride
420
13938487
 90
4
 70
1
 10
0.010600
 20
0.006500
 10
0.010200
 20
0.006500
 10
0.010200
 20
0.005500
 10
0.010600
 20
0.005500
  0
LWPOLYLINE
  8
Titanium_Nitride
420
13938487
 90
4
 70
1
 10
0.010200
 20
0.007150
 10
0.009800
 20
0.007150
 10
0.009800
 20
0.006750
 10
0.010200
 20
0.006750
  0
LWPOLYLINE
  8
Titanium_Nitride
420
13938487
 90
4
 70
1
 10
0.009800
 20
0.006500
 10
0.009400
 20
0.006500
 10
0.009400
 20
0.005500
 10
0.009800
 20
0.005500
  0
LWPOLYLINE
  8
Titanium_Nitride
420
13938487
 90
4
 70
1
 10
0.010200
 20
0.005025
 10
0.009800
 20
0.005025
 10
0.009800
 20
0.004625
 10
0.010200
 20
0.004625
  0
LWPOLYLINE
  8
Tungsten
420
8421631
 90
4
 70
1
 10
0.010485
 20
0.006310
 10
0.010315
 20
0.006310
 10
0.010315
 20
0.006140
 10
0.010485
 20
0.006140
  0
LWPOLYLINE
  8
Tungsten
420
8421631
 90
4
 70
1
 10
0.010485
 20
0.005860
 10
0.010315
 20
0.005860
 10
0.010315
 20
0.005690
 10
0.010485
 20
0.005690
  0
LWPOLYLINE
  8
Tungsten
420
8421631
 90
4
 70
1
 10
0.010085
 20
0.007035
 10
0.009915
 20
0.007035
 10
0.009915
 20
0.006865
 10
0.010085
 20
0.006865
  0
LWPOLYLINE
  8
Tungsten
420
8421631
 90
4
 70
1
 10
0.009685
 20
0.006310
 10
0.009515
 20
0.006310
 10
0.009515
 20
0.006140
 10
0.009685
 20
0.006140
  0
LWPOLYLINE
  8
Tungsten
420
8421631
 90
4
 70
1
 10
0.009685
 20
0.005860
 10
0.009515
 20
0.005860
 10
0.009515
 20
0.005690
 10
0.009685
 20
0.005690
  0
LWPOLYLINE
  8
Tungsten
420
8421631
 90
4
 70
1
 10
0.010085
 20
0.004910
 10
0.009915
 20
0.004910
 10
0.009915
 20
0.004740
 10
0.010085
 20
0.004740
  0
LWPOLYLINE
  8
Tungsten
420
8421631
 90
4
 70
1
 10
0.010485
 20
0.006310
 10
0.010315
 20
0.006310
 10
0.010315
 20
0.006140
 10
0.010485
 20
0.006140
  0
LWPOLYLINE
  8
Tungsten
420
8421631
 90
4
 70
1
 10
0.010485
 20
0.005860
 10
0.010315
 20
0.005860
 10
0.010315
 20
0.005690
 10
0.010485
 20
0.005690
  0
LWPOLYLINE
  8
Tungsten
420
8421631
 90
4
 70
1
 10
0.010085
 20
0.007035
 10
0.009915
 20
0.007035
 10
0.009915
 20
0.006865
 10
0.010085
 20
0.006865
  0
LWPOLYLINE
  8
Tungsten
420
8421631
 90
4
 70
1
 10
0.009685
 20
0.006310
 10
0.009515
 20
0.006310
 10
0.009515
 20
0.006140
 10
0.009685
 20
0.006140
  0
LWPOLYLINE
  8
Tungsten
420
8421631
 90
4
 70
1
 10
0.009685
 20
0.005860
 10
0.009515
 20
0.005860
 10
0.009515
 20
0.005690
 10
0.009685
 20
0.005690
  0
LWPOLYLINE
  8
Tungsten
420
8421631
 90
4
 70
1
 10
0.010085
 20
0.004910
 10
0.009915
 20
0.004910
 10
0.009915
 20
0.004740
 10
0.010085
 20
0.004740
  0
LWPOLYLINE
  8
Tungsten
420
8421631
 90
4
 70
1
 10
0.010485
 20
0.006310
 10
0.010315
 20
0.006310
 10
0.010315
 20
0.006140
 10
0.010485
 20
0.006140
  0
LWPOLYLINE
  8
Tungsten
420
8421631
 90
4
 70
1
 10
0.010485
 20
0.005860
 10
0.010315
 20
0.005860
 10
0.010315
 20
0.005690
 10
0.010485
 20
0.005690
  0
LWPOLYLINE
  8
Tungsten
420
8421631
 90
4
 70
1
 10
0.010085
 20
0.007035
 10
0.009915
 20
0.007035
 10
0.009915
 20
0.006865
 10
0.010085
 20
0.006865
  0
LWPOLYLINE
  8
Tungsten
420
8421631
 90
4
 70
1
 10
0.009685
 20
0.006310
 10
0.009515
 20
0.006310
 10
0.009515
 20
0.006140
 10
0.009685
 20
0.006140
  0
LWPOLYLINE
  8
Tungsten
420
8421631
 90
4
 70
1
 10
0.009685
 20
0.005860
 10
0.009515
 20
0.005860
 10
0.009515
 20
0.005690
 10
0.009685
 20
0.005690
  0
LWPOLYLINE
  8
Tungsten
420
8421631
 90
4
 70
1
 10
0.010085
 20
0.004910
 10
0.009915
 20
0.004910
 10
0.009915
 20
0.004740
 10
0.010085
 20
0.004740
  0
LWPOLYLINE
  8
Copper
420
12088115
 90
12
 70
1
 10
0.014825
 20
0.006600
 10
0.013625
 20
0.006600
 10
0.013625
 20
0.006400
 10
0.010600
 20
0.006400
 10
0.010600
 20
0.006500
 10
0.010200
 20
0.006500
 10
0.010200
 20
0.005500
 10
0.010600
 20
0.005500
 10
0.010600
 20
0.005600
 10
0.013625
 20
0.005600
 10
0.013625
 20
0.005400
 10
0.014825
 20
0.005400
  0
LWPOLYLINE
  8
Copper
420
12088115
 90
10
 70
1
 10
0.010600
 20
0.009750
 10
0.009400
 20
0.009750
 10
0.009400
 20
0.008550
 10
0.009800
 20
0.008550
 10
0.009800
 20
0.007150
 10
0.009800
 20
0.006750
 10
0.010200
 20
0.006750
 10
0.010200
 20
0.007150
 10
0.010200
 20
0.008550
 10
0.010600
 20
0.008550
  0
LWPOLYLINE
  8
Copper
420
12088115
 90
12
 70
1
 10
0.006375
 20
0.005600
 10
0.009400
 20
0.005600
 10
0.009400
 20
0.005500
 10
0.009800
 20
0.005500
 10
0.009800
 20
0.006500
 10
0.009400
 20
0.006500
 10
0.009400
 20
0.006400
 10
0.006375
 20
0.006400
 10
0.006375
 20
0.006600
 10
0.005175
 20
0.006600
 10
0.005175
 20
0.005400
 10
0.006375
 20
0.005400
  0
LWPOLYLINE
  8
Copper
420
12088115
 90
12
 70
1
 10
0.010200
 20
0.005025
 10
0.009800
 20
0.005025
 10
0.009800
 20
0.004625
 10
0.009600
 20
0.004625
 10
0.009600
 20
0.003225
 10
0.009400
 20
0.003225
 10
0.009400
 20
0.002025
 10
0.010600
 20
0.002025
 10
0.010600
 20
0.003225
 10
0.010400
 20
0.003225
 10
0.010400
 20
0.004625
 10
0.010200
 20
0.004625
  0
LWPOLYLINE
  8
Silicon_Dioxide
420
14739711
 90
4
 70
1
 10
0.000000
 20
0.000000
 10
0.020000
 20
0.000000
 10
0.020000
 20
0.014000
 10
0.000000
 20
0.014000
  0
LWPOLYLINE
  8
Silicon_Dioxide
420
14739711
 90
4
 70
1
 10
0.000000
 20
0.000000
 10
0.020000
 20
0.000000
 10
0.020000
 20
0.014000
 10
0.000000
 20
0.014000
  0
LWPOLYLINE
  8
N_Plus_Implant_Mask
420
8454143
 90
4
 70
1
 10
0.009145
 20
0.005370
 10
0.010855
 20
0.005370
 10
0.010855
 20
0.006630
 10
0.009145
 20
0.006630
  0
LWPOLYLINE
  8
Nitride_Poly_Cut_Mask
420
16753920
 90
4
 70
1
 10
0.009710
 20
0.006660
 10
0.010290
 20
0.006660
 10
0.010290
 20
0.007240
 10
0.009710
 20
0.007240
  0
LWPOLYLINE
  8
Tap_Mask
420
8454016
 90
4
 70
1
 10
0.009800
 20
0.004625
 10
0.010200
 20
0.004625
 10
0.010200
 20
0.005025
 10
0.009800
 20
0.005025
  0
LWPOLYLINE
  8
P_Plus_Implant_Mask
420
16744703
 90
4
 70
1
 10
0.009670
 20
0.004495
 10
0.010330
 20
0.004495
 10
0.010330
 20
0.005155
 10
0.009670
 20
0.005155
  0
ENDSEC
  0
EOF
