  0
SECTION
  2
HEADER
  9
$ACADVER
  1
AC1018
  0
ENDSEC
  0
SECTION
  2
TABLES
  0
TABLE
  2
LAYER
  0
LAYER
  2
DRILL
 70
0
 62
0
  0
LAYER
  2
TOP_COMPONENTS
 70
0
 62
7
  0
LAYER
  2
BOTTOM_COMPONENTS
 70
0
 62
7
  0
LAYER
  2
PCB_LAYERS
 70
0
 62
7
  0
ENDTAB
  0
ENDSEC
  0
SECTION
  2
ENTITIES
  0
LWPOLYLINE
  8
PCB_LAYERS
420
12088115
 90
26
 70
1
 10
7.823616
 20
2.905721
 10
7.815225
 20
2.923464
 10
7.808612
 20
2.941944
 10
7.803843
 20
2.960982
 10
7.800964
 20
2.980397
 10
7.800000
 20
3.000000
 10
7.800964
 20
3.019603
 10
7.803843
 20
3.039018
 10
7.808612
 20
3.058056
 10
7.815225
 20
3.076536
 10
7.823616
 20
3.094279
 10
7.827045
 20
3.100000
 10
2.172955
 20
3.100000
 10
2.176384
 20
3.094279
 10
2.184775
 20
3.076536
 10
2.191388
 20
3.058056
 10
2.196157
 20
3.039018
 10
2.199036
 20
3.019603
 10
2.200000
 20
3.000000
 10
2.199036
 20
2.980397
 10
2.196157
 20
2.960982
 10
2.191388
 20
2.941944
 10
2.184775
 20
2.923464
 10
2.176384
 20
2.905721
 10
2.172955
 20
2.900000
 10
7.827045
 20
2.900000
  0
LWPOLYLINE
  8
PCB_LAYERS
420
12088115
 90
64
 70
1
 10
2.039206
 20
2.601927
 10
2.078036
 20
2.607686
 10
2.116113
 20
2.617224
 10
2.153073
 20
2.630449
 10
2.188558
 20
2.647232
 10
2.222228
 20
2.667413
 10
2.253757
 20
2.690796
 10
2.282842
 20
2.717158
 10
2.309204
 20
2.746243
 10
2.332587
 20
2.777772
 10
2.352768
 20
2.811442
 10
2.369551
 20
2.846927
 10
2.382776
 20
2.883887
 10
2.392314
 20
2.921964
 10
2.398073
 20
2.960794
 10
2.400000
 20
3.000000
 10
2.398073
 20
3.039206
 10
2.392314
 20
3.078036
 10
2.382776
 20
3.116113
 10
2.369551
 20
3.153073
 10
2.352768
 20
3.188558
 10
2.332587
 20
3.222228
 10
2.309204
 20
3.253757
 10
2.282842
 20
3.282842
 10
2.253757
 20
3.309204
 10
2.222228
 20
3.332587
 10
2.188558
 20
3.352768
 10
2.153073
 20
3.369551
 10
2.116113
 20
3.382776
 10
2.078036
 20
3.392314
 10
2.039206
 20
3.398073
 10
2.000000
 20
3.400000
 10
1.960794
 20
3.398073
 10
1.921964
 20
3.392314
 10
1.883887
 20
3.382776
 10
1.846927
 20
3.369551
 10
1.811442
 20
3.352768
 10
1.777772
 20
3.332587
 10
1.746243
 20
3.309204
 10
1.717158
 20
3.282842
 10
1.690796
 20
3.253757
 10
1.667413
 20
3.222228
 10
1.647232
 20
3.188558
 10
1.630449
 20
3.153073
 10
1.617224
 20
3.116113
 10
1.607686
 20
3.078036
 10
1.601927
 20
3.039206
 10
1.600000
 20
3.000000
 10
1.601927
 20
2.960794
 10
1.607686
 20
2.921964
 10
1.617224
 20
2.883887
 10
1.630449
 20
2.846927
 10
1.647232
 20
2.811442
 10
1.667413
 20
2.777772
 10
1.690796
 20
2.746243
 10
1.717158
 20
2.717158
 10
1.746243
 20
2.690796
 10
1.777772
 20
2.667413
 10
1.811442
 20
2.647232
 10
1.846927
 20
2.630449
 10
1.883887
 20
2.617224
 10
1.921964
 20
2.607686
 10
1.960794
 20
2.601927
 10
2.000000
 20
2.600000
  0
LWPOLYLINE
  8
PCB_LAYERS
420
12088115
 90
64
 70
1
 10
8.039206
 20
2.601927
 10
8.078036
 20
2.607686
 10
8.116113
 20
2.617224
 10
8.153073
 20
2.630449
 10
8.188558
 20
2.647232
 10
8.222228
 20
2.667413
 10
8.253757
 20
2.690796
 10
8.282842
 20
2.717158
 10
8.309204
 20
2.746243
 10
8.332587
 20
2.777772
 10
8.352768
 20
2.811442
 10
8.369551
 20
2.846927
 10
8.382776
 20
2.883887
 10
8.392314
 20
2.921964
 10
8.398073
 20
2.960794
 10
8.400000
 20
3.000000
 10
8.398073
 20
3.039206
 10
8.392314
 20
3.078036
 10
8.382776
 20
3.116113
 10
8.369551
 20
3.153073
 10
8.352768
 20
3.188558
 10
8.332587
 20
3.222228
 10
8.309204
 20
3.253757
 10
8.282842
 20
3.282842
 10
8.253757
 20
3.309204
 10
8.222228
 20
3.332587
 10
8.188558
 20
3.352768
 10
8.153073
 20
3.369551
 10
8.116113
 20
3.382776
 10
8.078036
 20
3.392314
 10
8.039206
 20
3.398073
 10
8.000000
 20
3.400000
 10
7.960794
 20
3.398073
 10
7.921964
 20
3.392314
 10
7.883887
 20
3.382776
 10
7.846927
 20
3.369551
 10
7.811442
 20
3.352768
 10
7.777772
 20
3.332587
 10
7.746243
 20
3.309204
 10
7.717158
 20
3.282842
 10
7.690796
 20
3.253757
 10
7.667413
 20
3.222228
 10
7.647232
 20
3.188558
 10
7.630449
 20
3.153073
 10
7.617224
 20
3.116113
 10
7.607686
 20
3.078036
 10
7.601927
 20
3.039206
 10
7.600000
 20
3.000000
 10
7.601927
 20
2.960794
 10
7.607686
 20
2.921964
 10
7.617224
 20
2.883887
 10
7.630449
 20
2.846927
 10
7.647232
 20
2.811442
 10
7.667413
 20
2.777772
 10
7.690796
 20
2.746243
 10
7.717158
 20
2.717158
 10
7.746243
 20
2.690796
 10
7.777772
 20
2.667413
 10
7.811442
 20
2.647232
 10
7.846927
 20
2.630449
 10
7.883887
 20
2.617224
 10
7.921964
 20
2.607686
 10
7.960794
 20
2.601927
 10
8.000000
 20
2.600000
  0
LWPOLYLINE
  8
PCB_LAYERS
420
12088115
 90
64
 70
1
 10
1.982848
 20
2.825843
 10
1.965860
 20
2.828363
 10
1.949201
 20
2.832536
 10
1.933031
 20
2.838322
 10
1.917506
 20
2.845664
 10
1.902776
 20
2.854493
 10
1.888982
 20
2.864724
 10
1.876257
 20
2.876257
 10
1.864724
 20
2.888982
 10
1.854493
 20
2.902776
 10
1.845664
 20
2.917506
 10
1.838322
 20
2.933031
 10
1.832536
 20
2.949201
 10
1.828363
 20
2.965860
 10
1.825843
 20
2.982848
 10
1.825000
 20
3.000000
 10
1.825843
 20
3.017152
 10
1.828363
 20
3.034140
 10
1.832536
 20
3.050799
 10
1.838322
 20
3.066969
 10
1.845664
 20
3.082494
 10
1.854493
 20
3.097224
 10
1.864724
 20
3.111018
 10
1.876257
 20
3.123743
 10
1.888982
 20
3.135276
 10
1.902776
 20
3.145507
 10
1.917506
 20
3.154336
 10
1.933031
 20
3.161678
 10
1.949201
 20
3.167464
 10
1.965860
 20
3.171637
 10
1.982848
 20
3.174157
 10
2.000000
 20
3.175000
 10
2.017152
 20
3.174157
 10
2.034140
 20
3.171637
 10
2.050799
 20
3.167464
 10
2.066969
 20
3.161678
 10
2.082494
 20
3.154336
 10
2.097224
 20
3.145507
 10
2.111018
 20
3.135276
 10
2.123743
 20
3.123743
 10
2.135276
 20
3.111018
 10
2.145507
 20
3.097224
 10
2.154336
 20
3.082494
 10
2.161678
 20
3.066969
 10
2.167464
 20
3.050799
 10
2.171637
 20
3.034140
 10
2.174157
 20
3.017152
 10
2.175000
 20
3.000000
 10
2.174157
 20
2.982848
 10
2.171637
 20
2.965860
 10
2.167464
 20
2.949201
 10
2.161678
 20
2.933031
 10
2.154336
 20
2.917506
 10
2.145507
 20
2.902776
 10
2.135276
 20
2.888982
 10
2.123743
 20
2.876257
 10
2.111018
 20
2.864724
 10
2.097224
 20
2.854493
 10
2.082494
 20
2.845664
 10
2.066969
 20
2.838322
 10
2.050799
 20
2.832536
 10
2.034140
 20
2.828363
 10
2.017152
 20
2.825843
 10
2.000000
 20
2.825000
  0
LWPOLYLINE
  8
PCB_LAYERS
420
12088115
 90
64
 70
1
 10
7.982848
 20
2.825843
 10
7.965860
 20
2.828363
 10
7.949201
 20
2.832536
 10
7.933031
 20
2.838322
 10
7.917506
 20
2.845664
 10
7.902776
 20
2.854493
 10
7.888982
 20
2.864724
 10
7.876257
 20
2.876257
 10
7.864724
 20
2.888982
 10
7.854493
 20
2.902776
 10
7.845664
 20
2.917506
 10
7.838322
 20
2.933031
 10
7.832536
 20
2.949201
 10
7.828363
 20
2.965860
 10
7.825843
 20
2.982848
 10
7.825000
 20
3.000000
 10
7.825843
 20
3.017152
 10
7.828363
 20
3.034140
 10
7.832536
 20
3.050799
 10
7.838322
 20
3.066969
 10
7.845664
 20
3.082494
 10
7.854493
 20
3.097224
 10
7.864724
 20
3.111018
 10
7.876257
 20
3.123743
 10
7.888982
 20
3.135276
 10
7.902776
 20
3.145507
 10
7.917506
 20
3.154336
 10
7.933031
 20
3.161678
 10
7.949201
 20
3.167464
 10
7.965860
 20
3.171637
 10
7.982848
 20
3.174157
 10
8.000000
 20
3.175000
 10
8.017152
 20
3.174157
 10
8.034140
 20
3.171637
 10
8.050799
 20
3.167464
 10
8.066969
 20
3.161678
 10
8.082494
 20
3.154336
 10
8.097224
 20
3.145507
 10
8.111018
 20
3.135276
 10
8.123743
 20
3.123743
 10
8.135276
 20
3.111018
 10
8.145507
 20
3.097224
 10
8.154336
 20
3.082494
 10
8.161678
 20
3.066969
 10
8.167464
 20
3.050799
 10
8.171637
 20
3.034140
 10
8.174157
 20
3.017152
 10
8.175000
 20
3.000000
 10
8.174157
 20
2.982848
 10
8.171637
 20
2.965860
 10
8.167464
 20
2.949201
 10
8.161678
 20
2.933031
 10
8.154336
 20
2.917506
 10
8.145507
 20
2.902776
 10
8.135276
 20
2.888982
 10
8.123743
 20
2.876257
 10
8.111018
 20
2.864724
 10
8.097224
 20
2.854493
 10
8.082494
 20
2.845664
 10
8.066969
 20
2.838322
 10
8.050799
 20
2.832536
 10
8.034140
 20
2.828363
 10
8.017152
 20
2.825843
 10
8.000000
 20
2.825000
  0
LWPOLYLINE
  8
PCB_LAYERS
420
12088115
 90
64
 70
1
 10
2.039206
 20
2.601927
 10
2.078036
 20
2.607686
 10
2.116113
 20
2.617224
 10
2.153073
 20
2.630449
 10
2.188558
 20
2.647232
 10
2.222228
 20
2.667413
 10
2.253757
 20
2.690796
 10
2.282842
 20
2.717158
 10
2.309204
 20
2.746243
 10
2.332587
 20
2.777772
 10
2.352768
 20
2.811442
 10
2.369551
 20
2.846927
 10
2.382776
 20
2.883887
 10
2.392314
 20
2.921964
 10
2.398073
 20
2.960794
 10
2.400000
 20
3.000000
 10
2.398073
 20
3.039206
 10
2.392314
 20
3.078036
 10
2.382776
 20
3.116113
 10
2.369551
 20
3.153073
 10
2.352768
 20
3.188558
 10
2.332587
 20
3.222228
 10
2.309204
 20
3.253757
 10
2.282842
 20
3.282842
 10
2.253757
 20
3.309204
 10
2.222228
 20
3.332587
 10
2.188558
 20
3.352768
 10
2.153073
 20
3.369551
 10
2.116113
 20
3.382776
 10
2.078036
 20
3.392314
 10
2.039206
 20
3.398073
 10
2.000000
 20
3.400000
 10
1.960794
 20
3.398073
 10
1.921964
 20
3.392314
 10
1.883887
 20
3.382776
 10
1.846927
 20
3.369551
 10
1.811442
 20
3.352768
 10
1.777772
 20
3.332587
 10
1.746243
 20
3.309204
 10
1.717158
 20
3.282842
 10
1.690796
 20
3.253757
 10
1.667413
 20
3.222228
 10
1.647232
 20
3.188558
 10
1.630449
 20
3.153073
 10
1.617224
 20
3.116113
 10
1.607686
 20
3.078036
 10
1.601927
 20
3.039206
 10
1.600000
 20
3.000000
 10
1.601927
 20
2.960794
 10
1.607686
 20
2.921964
 10
1.617224
 20
2.883887
 10
1.630449
 20
2.846927
 10
1.647232
 20
2.811442
 10
1.667413
 20
2.777772
 10
1.690796
 20
2.746243
 10
1.717158
 20
2.717158
 10
1.746243
 20
2.690796
 10
1.777772
 20
2.667413
 10
1.811442
 20
2.647232
 10
1.846927
 20
2.630449
 10
1.883887
 20
2.617224
 10
1.921964
 20
2.607686
 10
1.960794
 20
2.601927
 10
2.000000
 20
2.600000
  0
LWPOLYLINE
  8
PCB_LAYERS
420
12088115
 90
64
 70
1
 10
8.039206
 20
2.601927
 10
8.078036
 20
2.607686
 10
8.116113
 20
2.617224
 10
8.153073
 20
2.630449
 10
8.188558
 20
2.647232
 10
8.222228
 20
2.667413
 10
8.253757
 20
2.690796
 10
8.282842
 20
2.717158
 10
8.309204
 20
2.746243
 10
8.332587
 20
2.777772
 10
8.352768
 20
2.811442
 10
8.369551
 20
2.846927
 10
8.382776
 20
2.883887
 10
8.392314
 20
2.921964
 10
8.398073
 20
2.960794
 10
8.400000
 20
3.000000
 10
8.398073
 20
3.039206
 10
8.392314
 20
3.078036
 10
8.382776
 20
3.116113
 10
8.369551
 20
3.153073
 10
8.352768
 20
3.188558
 10
8.332587
 20
3.222228
 10
8.309204
 20
3.253757
 10
8.282842
 20
3.282842
 10
8.253757
 20
3.309204
 10
8.222228
 20
3.332587
 10
8.188558
 20
3.352768
 10
8.153073
 20
3.369551
 10
8.116113
 20
3.382776
 10
8.078036
 20
3.392314
 10
8.039206
 20
3.398073
 10
8.000000
 20
3.400000
 10
7.960794
 20
3.398073
 10
7.921964
 20
3.392314
 10
7.883887
 20
3.382776
 10
7.846927
 20
3.369551
 10
7.811442
 20
3.352768
 10
7.777772
 20
3.332587
 10
7.746243
 20
3.309204
 10
7.717158
 20
3.282842
 10
7.690796
 20
3.253757
 10
7.667413
 20
3.222228
 10
7.647232
 20
3.188558
 10
7.630449
 20
3.153073
 10
7.617224
 20
3.116113
 10
7.607686
 20
3.078036
 10
7.601927
 20
3.039206
 10
7.600000
 20
3.000000
 10
7.601927
 20
2.960794
 10
7.607686
 20
2.921964
 10
7.617224
 20
2.883887
 10
7.630449
 20
2.846927
 10
7.647232
 20
2.811442
 10
7.667413
 20
2.777772
 10
7.690796
 20
2.746243
 10
7.717158
 20
2.717158
 10
7.746243
 20
2.690796
 10
7.777772
 20
2.667413
 10
7.811442
 20
2.647232
 10
7.846927
 20
2.630449
 10
7.883887
 20
2.617224
 10
7.921964
 20
2.607686
 10
7.960794
 20
2.601927
 10
8.000000
 20
2.600000
  0
LWPOLYLINE
  8
PCB_LAYERS
420
12088115
 90
64
 70
1
 10
1.982848
 20
2.825843
 10
1.965860
 20
2.828363
 10
1.949201
 20
2.832536
 10
1.933031
 20
2.838322
 10
1.917506
 20
2.845664
 10
1.902776
 20
2.854493
 10
1.888982
 20
2.864724
 10
1.876257
 20
2.876257
 10
1.864724
 20
2.888982
 10
1.854493
 20
2.902776
 10
1.845664
 20
2.917506
 10
1.838322
 20
2.933031
 10
1.832536
 20
2.949201
 10
1.828363
 20
2.965860
 10
1.825843
 20
2.982848
 10
1.825000
 20
3.000000
 10
1.825843
 20
3.017152
 10
1.828363
 20
3.034140
 10
1.832536
 20
3.050799
 10
1.838322
 20
3.066969
 10
1.845664
 20
3.082494
 10
1.854493
 20
3.097224
 10
1.864724
 20
3.111018
 10
1.876257
 20
3.123743
 10
1.888982
 20
3.135276
 10
1.902776
 20
3.145507
 10
1.917506
 20
3.154336
 10
1.933031
 20
3.161678
 10
1.949201
 20
3.167464
 10
1.965860
 20
3.171637
 10
1.982848
 20
3.174157
 10
2.000000
 20
3.175000
 10
2.017152
 20
3.174157
 10
2.034140
 20
3.171637
 10
2.050799
 20
3.167464
 10
2.066969
 20
3.161678
 10
2.082494
 20
3.154336
 10
2.097224
 20
3.145507
 10
2.111018
 20
3.135276
 10
2.123743
 20
3.123743
 10
2.135276
 20
3.111018
 10
2.145507
 20
3.097224
 10
2.154336
 20
3.082494
 10
2.161678
 20
3.066969
 10
2.167464
 20
3.050799
 10
2.171637
 20
3.034140
 10
2.174157
 20
3.017152
 10
2.175000
 20
3.000000
 10
2.174157
 20
2.982848
 10
2.171637
 20
2.965860
 10
2.167464
 20
2.949201
 10
2.161678
 20
2.933031
 10
2.154336
 20
2.917506
 10
2.145507
 20
2.902776
 10
2.135276
 20
2.888982
 10
2.123743
 20
2.876257
 10
2.111018
 20
2.864724
 10
2.097224
 20
2.854493
 10
2.082494
 20
2.845664
 10
2.066969
 20
2.838322
 10
2.050799
 20
2.832536
 10
2.034140
 20
2.828363
 10
2.017152
 20
2.825843
 10
2.000000
 20
2.825000
  0
LWPOLYLINE
  8
PCB_LAYERS
420
12088115
 90
64
 70
1
 10
7.982848
 20
2.825843
 10
7.965860
 20
2.828363
 10
7.949201
 20
2.832536
 10
7.933031
 20
2.838322
 10
7.917506
 20
2.845664
 10
7.902776
 20
2.854493
 10
7.888982
 20
2.864724
 10
7.876257
 20
2.876257
 10
7.864724
 20
2.888982
 10
7.854493
 20
2.902776
 10
7.845664
 20
2.917506
 10
7.838322
 20
2.933031
 10
7.832536
 20
2.949201
 10
7.828363
 20
2.965860
 10
7.825843
 20
2.982848
 10
7.825000
 20
3.000000
 10
7.825843
 20
3.017152
 10
7.828363
 20
3.034140
 10
7.832536
 20
3.050799
 10
7.838322
 20
3.066969
 10
7.845664
 20
3.082494
 10
7.854493
 20
3.097224
 10
7.864724
 20
3.111018
 10
7.876257
 20
3.123743
 10
7.888982
 20
3.135276
 10
7.902776
 20
3.145507
 10
7.917506
 20
3.154336
 10
7.933031
 20
3.161678
 10
7.949201
 20
3.167464
 10
7.965860
 20
3.171637
 10
7.982848
 20
3.174157
 10
8.000000
 20
3.175000
 10
8.017152
 20
3.174157
 10
8.034140
 20
3.171637
 10
8.050799
 20
3.167464
 10
8.066969
 20
3.161678
 10
8.082494
 20
3.154336
 10
8.097224
 20
3.145507
 10
8.111018
 20
3.135276
 10
8.123743
 20
3.123743
 10
8.135276
 20
3.111018
 10
8.145507
 20
3.097224
 10
8.154336
 20
3.082494
 10
8.161678
 20
3.066969
 10
8.167464
 20
3.050799
 10
8.171637
 20
3.034140
 10
8.174157
 20
3.017152
 10
8.175000
 20
3.000000
 10
8.174157
 20
2.982848
 10
8.171637
 20
2.965860
 10
8.167464
 20
2.949201
 10
8.161678
 20
2.933031
 10
8.154336
 20
2.917506
 10
8.145507
 20
2.902776
 10
8.135276
 20
2.888982
 10
8.123743
 20
2.876257
 10
8.111018
 20
2.864724
 10
8.097224
 20
2.854493
 10
8.082494
 20
2.845664
 10
8.066969
 20
2.838322
 10
8.050799
 20
2.832536
 10
8.034140
 20
2.828363
 10
8.017152
 20
2.825843
 10
8.000000
 20
2.825000
  0
ENDSEC
  0
EOF
