  0
SECTION
  2
HEADER
  9
$ACADVER
  1
AC1018
  0
ENDSEC
  0
SECTION
  2
TABLES
  0
TABLE
  2
LAYER
  0
LAYER
  2
DRILL
 70
0
 62
0
  0
LAYER
  2
TOP_COMPONENTS
 70
0
 62
7
  0
LAYER
  2
BOTTOM_COMPONENTS
 70
0
 62
7
  0
LAYER
  2
PCB_LAYERS
 70
0
 62
7
  0
ENDTAB
  0
ENDSEC
  0
SECTION
  2
ENTITIES
  0
LWPOLYLINE
  8
PCB_LAYERS
420
12088115
 90
4
 70
1
 10
3.200000
 20
5.200000
 10
4.700000
 20
5.200000
 10
4.700000
 20
5.300000
 10
3.200000
 20
5.300000
  0
LWPOLYLINE
  8
PCB_LAYERS
420
12088115
 90
4
 70
1
 10
4.600000
 20
5.200000
 10
15.900000
 20
5.200000
 10
15.900000
 20
5.300000
 10
4.600000
 20
5.300000
  0
LWPOLYLINE
  8
PCB_LAYERS
420
12088115
 90
4
 70
1
 10
15.800000
 20
5.200000
 10
17.300000
 20
5.200000
 10
17.300000
 20
5.300000
 10
15.800000
 20
5.300000
  0
LWPOLYLINE
  8
PCB_LAYERS
420
12088115
 90
4
 70
1
 10
3.000000
 20
5.000000
 10
3.500000
 20
5.000000
 10
3.500000
 20
5.500000
 10
3.000000
 20
5.500000
  0
LWPOLYLINE
  8
PCB_LAYERS
420
12088115
 90
4
 70
1
 10
3.000000
 20
5.000000
 10
3.500000
 20
5.000000
 10
3.500000
 20
5.500000
 10
3.000000
 20
5.500000
  0
LWPOLYLINE
  8
PCB_LAYERS
420
12088115
 90
4
 70
1
 10
17.000000
 20
5.000000
 10
17.500000
 20
5.000000
 10
17.500000
 20
5.500000
 10
17.000000
 20
5.500000
  0
LWPOLYLINE
  8
PCB_LAYERS
420
12088115
 90
4
 70
1
 10
17.000000
 20
5.000000
 10
17.500000
 20
5.000000
 10
17.500000
 20
5.500000
 10
17.000000
 20
5.500000
  0
LWPOLYLINE
  8
PCB_LAYERS
420
12088115
 43
0.100000
 90
2
 70
0
 10
3.250000
 20
5.250000
 10
4.650000
 20
5.250000
  0
LWPOLYLINE
  8
PCB_LAYERS
420
12088115
 43
0.100000
 90
2
 70
0
 10
4.650000
 20
5.250000
 10
15.850000
 20
5.250000
  0
LWPOLYLINE
  8
PCB_LAYERS
420
12088115
 43
0.100000
 90
2
 70
0
 10
15.850000
 20
5.250000
 10
17.250000
 20
5.250000
  0
ENDSEC
  0
EOF
