  0
SECTION
  2
HEADER
  9
$ACADVER
  1
AC1018
  0
ENDSEC
  0
SECTION
  2
TABLES
  0
TABLE
  2
LAYER
  0
LAYER
  2
Silicon_Dioxide
 70
0
 62
7
  0
LAYER
  2
Polysilicon
 70
0
 62
7
  0
LAYER
  2
Aluminum
 70
0
 62
7
  0
LAYER
  2
Titanium_Silicide
 70
0
 62
7
  0
ENDTAB
  0
ENDSEC
  0
SECTION
  2
ENTITIES
  0
LWPOLYLINE
  8
Titanium_Silicide
420
4210752
 90
4
 70
1
 10
0.001800
 20
0.002100
 10
0.001600
 20
0.002100
 10
0.001600
 20
0.001900
 10
0.001800
 20
0.001900
  0
LWPOLYLINE
  8
Titanium_Silicide
420
4210752
 90
4
 70
1
 10
0.002400
 20
0.002100
 10
0.002200
 20
0.002100
 10
0.002200
 20
0.001900
 10
0.002400
 20
0.001900
  0
LWPOLYLINE
  8
Titanium_Silicide
420
4210752
 90
4
 70
1
 10
0.004800
 20
0.002100
 10
0.004600
 20
0.002100
 10
0.004600
 20
0.001900
 10
0.004800
 20
0.001900
  0
LWPOLYLINE
  8
Titanium_Silicide
420
4210752
 90
4
 70
1
 10
0.005400
 20
0.002100
 10
0.005200
 20
0.002100
 10
0.005200
 20
0.001900
 10
0.005400
 20
0.001900
  0
LWPOLYLINE
  8
Polysilicon
420
16736352
 90
6
 70
1
 10
0.002000
 20
0.001500
 10
0.002500
 20
0.001500
 10
0.002500
 20
0.002500
 10
0.002000
 20
0.002500
 10
0.001500
 20
0.002500
 10
0.001500
 20
0.001500
  0
LWPOLYLINE
  8
Polysilicon
420
16736352
 90
6
 70
1
 10
0.005000
 20
0.001500
 10
0.005500
 20
0.001500
 10
0.005500
 20
0.002500
 10
0.005000
 20
0.002500
 10
0.004500
 20
0.002500
 10
0.004500
 20
0.001500
  0
LWPOLYLINE
  8
Titanium_Silicide
420
4210752
 90
4
 70
1
 10
0.001800
 20
0.002100
 10
0.001600
 20
0.002100
 10
0.001600
 20
0.001900
 10
0.001800
 20
0.001900
  0
LWPOLYLINE
  8
Titanium_Silicide
420
4210752
 90
4
 70
1
 10
0.002400
 20
0.002100
 10
0.002200
 20
0.002100
 10
0.002200
 20
0.001900
 10
0.002400
 20
0.001900
  0
LWPOLYLINE
  8
Titanium_Silicide
420
4210752
 90
4
 70
1
 10
0.004800
 20
0.002100
 10
0.004600
 20
0.002100
 10
0.004600
 20
0.001900
 10
0.004800
 20
0.001900
  0
LWPOLYLINE
  8
Titanium_Silicide
420
4210752
 90
4
 70
1
 10
0.005400
 20
0.002100
 10
0.005200
 20
0.002100
 10
0.005200
 20
0.001900
 10
0.005400
 20
0.001900
  0
LWPOLYLINE
  8
Titanium_Silicide
420
4210752
 90
4
 70
1
 10
0.001800
 20
0.002100
 10
0.001600
 20
0.002100
 10
0.001600
 20
0.001900
 10
0.001800
 20
0.001900
  0
LWPOLYLINE
  8
Titanium_Silicide
420
4210752
 90
4
 70
1
 10
0.002400
 20
0.002100
 10
0.002200
 20
0.002100
 10
0.002200
 20
0.001900
 10
0.002400
 20
0.001900
  0
LWPOLYLINE
  8
Titanium_Silicide
420
4210752
 90
4
 70
1
 10
0.004800
 20
0.002100
 10
0.004600
 20
0.002100
 10
0.004600
 20
0.001900
 10
0.004800
 20
0.001900
  0
LWPOLYLINE
  8
Titanium_Silicide
420
4210752
 90
4
 70
1
 10
0.005400
 20
0.002100
 10
0.005200
 20
0.002100
 10
0.005200
 20
0.001900
 10
0.005400
 20
0.001900
  0
LWPOLYLINE
  8
Aluminum
420
12632256
 90
12
 70
1
 10
0.000900
 20
0.001850
 10
0.001500
 20
0.001850
 10
0.001500
 20
0.001800
 10
0.001900
 20
0.001800
 10
0.001900
 20
0.002200
 10
0.001500
 20
0.002200
 10
0.001500
 20
0.002150
 10
0.000900
 20
0.002150
 10
0.000900
 20
0.002300
 10
0.000300
 20
0.002300
 10
0.000300
 20
0.001700
 10
0.000900
 20
0.001700
  0
LWPOLYLINE
  8
Aluminum
420
12632256
 90
20
 70
1
 10
0.003800
 20
0.001850
 10
0.004500
 20
0.001850
 10
0.004500
 20
0.001800
 10
0.004900
 20
0.001800
 10
0.004900
 20
0.002200
 10
0.004500
 20
0.002200
 10
0.004500
 20
0.002150
 10
0.003800
 20
0.002150
 10
0.003800
 20
0.002300
 10
0.003200
 20
0.002300
 10
0.003200
 20
0.002150
 10
0.002500
 20
0.002150
 10
0.002500
 20
0.002200
 10
0.002100
 20
0.002200
 10
0.002100
 20
0.001800
 10
0.002500
 20
0.001800
 10
0.002500
 20
0.001850
 10
0.003200
 20
0.001850
 10
0.003200
 20
0.001700
 10
0.003800
 20
0.001700
  0
LWPOLYLINE
  8
Aluminum
420
12632256
 90
12
 70
1
 10
0.006800
 20
0.002300
 10
0.006200
 20
0.002300
 10
0.006200
 20
0.002150
 10
0.005500
 20
0.002150
 10
0.005500
 20
0.002200
 10
0.005100
 20
0.002200
 10
0.005100
 20
0.001800
 10
0.005500
 20
0.001800
 10
0.005500
 20
0.001850
 10
0.006200
 20
0.001850
 10
0.006200
 20
0.001700
 10
0.006800
 20
0.001700
  0
LWPOLYLINE
  8
Silicon_Dioxide
420
14739711
 90
4
 70
1
 10
0.000000
 20
0.000000
 10
0.008000
 20
0.000000
 10
0.008000
 20
0.004000
 10
0.000000
 20
0.004000
  0
ENDSEC
  0
EOF
