  0
SECTION
  2
HEADER
  9
$ACADVER
  1
AC1018
  0
ENDSEC
  0
SECTION
  2
TABLES
  0
TABLE
  2
LAYER
  0
LAYER
  2
Tap_Mask
 70
0
 62
7
  0
LAYER
  2
P_Plus_Implant_Mask
 70
0
 62
7
  0
LAYER
  2
P_Plus_Diffusion
 70
0
 62
7
  0
LAYER
  2
Polysilicon
 70
0
 62
7
  0
LAYER
  2
Resistor_Poly_Mask
 70
0
 62
7
  0
LAYER
  2
Silicon_Dioxide
 70
0
 62
7
  0
LAYER
  2
Titanium_Silicide
 70
0
 62
7
  0
LAYER
  2
Aluminum
 70
0
 62
7
  0
LAYER
  2
Pad_Mask
 70
0
 62
7
  0
LAYER
  2
Tungsten
 70
0
 62
7
  0
ENDTAB
  0
ENDSEC
  0
SECTION
  2
ENTITIES
  0
LWPOLYLINE
  8
P_Plus_Diffusion
420
8454016
 90
4
 70
1
 10
0.006200
 20
0.007700
 10
0.005800
 20
0.007700
 10
0.005800
 20
0.007300
 10
0.006200
 20
0.007300
  0
LWPOLYLINE
  8
P_Plus_Diffusion
420
8454016
 90
4
 70
1
 10
0.014200
 20
0.007700
 10
0.013800
 20
0.007700
 10
0.013800
 20
0.007300
 10
0.014200
 20
0.007300
  0
LWPOLYLINE
  8
Tungsten
420
8421631
 90
4
 70
1
 10
0.006125
 20
0.007625
 10
0.005875
 20
0.007625
 10
0.005875
 20
0.007375
 10
0.006125
 20
0.007375
  0
LWPOLYLINE
  8
Tungsten
420
8421631
 90
4
 70
1
 10
0.014125
 20
0.007625
 10
0.013875
 20
0.007625
 10
0.013875
 20
0.007375
 10
0.014125
 20
0.007375
  0
LWPOLYLINE
  8
Polysilicon
420
16736352
 90
4
 70
1
 10
0.008000
 20
0.005705
 10
0.004000
 20
0.005705
 10
0.004000
 20
0.004295
 10
0.008000
 20
0.004295
  0
LWPOLYLINE
  8
Polysilicon
420
16736352
 90
4
 70
1
 10
0.016000
 20
0.005705
 10
0.012000
 20
0.005705
 10
0.012000
 20
0.004295
 10
0.016000
 20
0.004295
  0
LWPOLYLINE
  8
Tungsten
420
8421631
 90
4
 70
1
 10
0.006125
 20
0.007625
 10
0.005875
 20
0.007625
 10
0.005875
 20
0.007375
 10
0.006125
 20
0.007375
  0
LWPOLYLINE
  8
Tungsten
420
8421631
 90
4
 70
1
 10
0.014125
 20
0.007625
 10
0.013875
 20
0.007625
 10
0.013875
 20
0.007375
 10
0.014125
 20
0.007375
  0
LWPOLYLINE
  8
Tungsten
420
8421631
 90
4
 70
1
 10
0.004325
 20
0.005525
 10
0.004075
 20
0.005525
 10
0.004075
 20
0.005275
 10
0.004325
 20
0.005275
  0
LWPOLYLINE
  8
Tungsten
420
8421631
 90
4
 70
1
 10
0.004325
 20
0.005125
 10
0.004075
 20
0.005125
 10
0.004075
 20
0.004875
 10
0.004325
 20
0.004875
  0
LWPOLYLINE
  8
Tungsten
420
8421631
 90
4
 70
1
 10
0.004325
 20
0.004725
 10
0.004075
 20
0.004725
 10
0.004075
 20
0.004475
 10
0.004325
 20
0.004475
  0
LWPOLYLINE
  8
Tungsten
420
8421631
 90
4
 70
1
 10
0.007925
 20
0.005525
 10
0.007675
 20
0.005525
 10
0.007675
 20
0.005275
 10
0.007925
 20
0.005275
  0
LWPOLYLINE
  8
Tungsten
420
8421631
 90
4
 70
1
 10
0.012325
 20
0.005525
 10
0.012075
 20
0.005525
 10
0.012075
 20
0.005275
 10
0.012325
 20
0.005275
  0
LWPOLYLINE
  8
Tungsten
420
8421631
 90
4
 70
1
 10
0.007925
 20
0.005125
 10
0.007675
 20
0.005125
 10
0.007675
 20
0.004875
 10
0.007925
 20
0.004875
  0
LWPOLYLINE
  8
Tungsten
420
8421631
 90
4
 70
1
 10
0.012325
 20
0.005125
 10
0.012075
 20
0.005125
 10
0.012075
 20
0.004875
 10
0.012325
 20
0.004875
  0
LWPOLYLINE
  8
Tungsten
420
8421631
 90
4
 70
1
 10
0.007925
 20
0.004725
 10
0.007675
 20
0.004725
 10
0.007675
 20
0.004475
 10
0.007925
 20
0.004475
  0
LWPOLYLINE
  8
Tungsten
420
8421631
 90
4
 70
1
 10
0.012325
 20
0.004725
 10
0.012075
 20
0.004725
 10
0.012075
 20
0.004475
 10
0.012325
 20
0.004475
  0
LWPOLYLINE
  8
Tungsten
420
8421631
 90
4
 70
1
 10
0.015925
 20
0.005525
 10
0.015675
 20
0.005525
 10
0.015675
 20
0.005275
 10
0.015925
 20
0.005275
  0
LWPOLYLINE
  8
Tungsten
420
8421631
 90
4
 70
1
 10
0.015925
 20
0.005125
 10
0.015675
 20
0.005125
 10
0.015675
 20
0.004875
 10
0.015925
 20
0.004875
  0
LWPOLYLINE
  8
Tungsten
420
8421631
 90
4
 70
1
 10
0.015925
 20
0.004725
 10
0.015675
 20
0.004725
 10
0.015675
 20
0.004475
 10
0.015925
 20
0.004475
  0
LWPOLYLINE
  8
Tungsten
420
8421631
 90
4
 70
1
 10
0.004325
 20
0.005525
 10
0.004075
 20
0.005525
 10
0.004075
 20
0.005275
 10
0.004325
 20
0.005275
  0
LWPOLYLINE
  8
Tungsten
420
8421631
 90
4
 70
1
 10
0.004325
 20
0.005125
 10
0.004075
 20
0.005125
 10
0.004075
 20
0.004875
 10
0.004325
 20
0.004875
  0
LWPOLYLINE
  8
Tungsten
420
8421631
 90
4
 70
1
 10
0.004325
 20
0.004725
 10
0.004075
 20
0.004725
 10
0.004075
 20
0.004475
 10
0.004325
 20
0.004475
  0
LWPOLYLINE
  8
Tungsten
420
8421631
 90
4
 70
1
 10
0.007925
 20
0.005525
 10
0.007675
 20
0.005525
 10
0.007675
 20
0.005275
 10
0.007925
 20
0.005275
  0
LWPOLYLINE
  8
Tungsten
420
8421631
 90
4
 70
1
 10
0.012325
 20
0.005525
 10
0.012075
 20
0.005525
 10
0.012075
 20
0.005275
 10
0.012325
 20
0.005275
  0
LWPOLYLINE
  8
Tungsten
420
8421631
 90
4
 70
1
 10
0.007925
 20
0.005125
 10
0.007675
 20
0.005125
 10
0.007675
 20
0.004875
 10
0.007925
 20
0.004875
  0
LWPOLYLINE
  8
Tungsten
420
8421631
 90
4
 70
1
 10
0.012325
 20
0.005125
 10
0.012075
 20
0.005125
 10
0.012075
 20
0.004875
 10
0.012325
 20
0.004875
  0
LWPOLYLINE
  8
Tungsten
420
8421631
 90
4
 70
1
 10
0.007925
 20
0.004725
 10
0.007675
 20
0.004725
 10
0.007675
 20
0.004475
 10
0.007925
 20
0.004475
  0
LWPOLYLINE
  8
Tungsten
420
8421631
 90
4
 70
1
 10
0.012325
 20
0.004725
 10
0.012075
 20
0.004725
 10
0.012075
 20
0.004475
 10
0.012325
 20
0.004475
  0
LWPOLYLINE
  8
Tungsten
420
8421631
 90
4
 70
1
 10
0.006125
 20
0.007625
 10
0.005875
 20
0.007625
 10
0.005875
 20
0.007375
 10
0.006125
 20
0.007375
  0
LWPOLYLINE
  8
Tungsten
420
8421631
 90
4
 70
1
 10
0.014125
 20
0.007625
 10
0.013875
 20
0.007625
 10
0.013875
 20
0.007375
 10
0.014125
 20
0.007375
  0
LWPOLYLINE
  8
Tungsten
420
8421631
 90
4
 70
1
 10
0.015925
 20
0.005525
 10
0.015675
 20
0.005525
 10
0.015675
 20
0.005275
 10
0.015925
 20
0.005275
  0
LWPOLYLINE
  8
Tungsten
420
8421631
 90
4
 70
1
 10
0.015925
 20
0.005125
 10
0.015675
 20
0.005125
 10
0.015675
 20
0.004875
 10
0.015925
 20
0.004875
  0
LWPOLYLINE
  8
Tungsten
420
8421631
 90
4
 70
1
 10
0.015925
 20
0.004725
 10
0.015675
 20
0.004725
 10
0.015675
 20
0.004475
 10
0.015925
 20
0.004475
  0
LWPOLYLINE
  8
Tungsten
420
8421631
 90
4
 70
1
 10
0.004325
 20
0.005525
 10
0.004075
 20
0.005525
 10
0.004075
 20
0.005275
 10
0.004325
 20
0.005275
  0
LWPOLYLINE
  8
Tungsten
420
8421631
 90
4
 70
1
 10
0.004325
 20
0.005125
 10
0.004075
 20
0.005125
 10
0.004075
 20
0.004875
 10
0.004325
 20
0.004875
  0
LWPOLYLINE
  8
Tungsten
420
8421631
 90
4
 70
1
 10
0.004325
 20
0.004725
 10
0.004075
 20
0.004725
 10
0.004075
 20
0.004475
 10
0.004325
 20
0.004475
  0
LWPOLYLINE
  8
Tungsten
420
8421631
 90
4
 70
1
 10
0.007925
 20
0.005525
 10
0.007675
 20
0.005525
 10
0.007675
 20
0.005275
 10
0.007925
 20
0.005275
  0
LWPOLYLINE
  8
Tungsten
420
8421631
 90
4
 70
1
 10
0.012325
 20
0.005525
 10
0.012075
 20
0.005525
 10
0.012075
 20
0.005275
 10
0.012325
 20
0.005275
  0
LWPOLYLINE
  8
Tungsten
420
8421631
 90
4
 70
1
 10
0.007925
 20
0.005125
 10
0.007675
 20
0.005125
 10
0.007675
 20
0.004875
 10
0.007925
 20
0.004875
  0
LWPOLYLINE
  8
Tungsten
420
8421631
 90
4
 70
1
 10
0.012325
 20
0.005125
 10
0.012075
 20
0.005125
 10
0.012075
 20
0.004875
 10
0.012325
 20
0.004875
  0
LWPOLYLINE
  8
Tungsten
420
8421631
 90
4
 70
1
 10
0.007925
 20
0.004725
 10
0.007675
 20
0.004725
 10
0.007675
 20
0.004475
 10
0.007925
 20
0.004475
  0
LWPOLYLINE
  8
Tungsten
420
8421631
 90
4
 70
1
 10
0.012325
 20
0.004725
 10
0.012075
 20
0.004725
 10
0.012075
 20
0.004475
 10
0.012325
 20
0.004475
  0
LWPOLYLINE
  8
Tungsten
420
8421631
 90
4
 70
1
 10
0.006125
 20
0.007625
 10
0.005875
 20
0.007625
 10
0.005875
 20
0.007375
 10
0.006125
 20
0.007375
  0
LWPOLYLINE
  8
Tungsten
420
8421631
 90
4
 70
1
 10
0.014125
 20
0.007625
 10
0.013875
 20
0.007625
 10
0.013875
 20
0.007375
 10
0.014125
 20
0.007375
  0
LWPOLYLINE
  8
Tungsten
420
8421631
 90
4
 70
1
 10
0.015925
 20
0.005525
 10
0.015675
 20
0.005525
 10
0.015675
 20
0.005275
 10
0.015925
 20
0.005275
  0
LWPOLYLINE
  8
Tungsten
420
8421631
 90
4
 70
1
 10
0.015925
 20
0.005125
 10
0.015675
 20
0.005125
 10
0.015675
 20
0.004875
 10
0.015925
 20
0.004875
  0
LWPOLYLINE
  8
Tungsten
420
8421631
 90
4
 70
1
 10
0.015925
 20
0.004725
 10
0.015675
 20
0.004725
 10
0.015675
 20
0.004475
 10
0.015925
 20
0.004475
  0
LWPOLYLINE
  8
Titanium_Silicide
420
4210752
 90
4
 70
1
 10
0.004400
 20
0.005705
 10
0.004000
 20
0.005705
 10
0.004000
 20
0.004295
 10
0.004400
 20
0.004295
  0
LWPOLYLINE
  8
Titanium_Silicide
420
4210752
 90
4
 70
1
 10
0.008000
 20
0.005705
 10
0.007600
 20
0.005705
 10
0.007600
 20
0.004295
 10
0.008000
 20
0.004295
  0
LWPOLYLINE
  8
Titanium_Silicide
420
4210752
 90
4
 70
1
 10
0.012400
 20
0.005705
 10
0.012000
 20
0.005705
 10
0.012000
 20
0.004295
 10
0.012400
 20
0.004295
  0
LWPOLYLINE
  8
Titanium_Silicide
420
4210752
 90
4
 70
1
 10
0.006200
 20
0.007700
 10
0.005800
 20
0.007700
 10
0.005800
 20
0.007300
 10
0.006200
 20
0.007300
  0
LWPOLYLINE
  8
Titanium_Silicide
420
4210752
 90
4
 70
1
 10
0.014200
 20
0.007700
 10
0.013800
 20
0.007700
 10
0.013800
 20
0.007300
 10
0.014200
 20
0.007300
  0
LWPOLYLINE
  8
Titanium_Silicide
420
4210752
 90
4
 70
1
 10
0.016000
 20
0.005705
 10
0.015600
 20
0.005705
 10
0.015600
 20
0.004295
 10
0.016000
 20
0.004295
  0
LWPOLYLINE
  8
Tungsten
420
8421631
 90
4
 70
1
 10
0.004325
 20
0.005525
 10
0.004075
 20
0.005525
 10
0.004075
 20
0.005275
 10
0.004325
 20
0.005275
  0
LWPOLYLINE
  8
Tungsten
420
8421631
 90
4
 70
1
 10
0.004325
 20
0.005125
 10
0.004075
 20
0.005125
 10
0.004075
 20
0.004875
 10
0.004325
 20
0.004875
  0
LWPOLYLINE
  8
Tungsten
420
8421631
 90
4
 70
1
 10
0.004325
 20
0.004725
 10
0.004075
 20
0.004725
 10
0.004075
 20
0.004475
 10
0.004325
 20
0.004475
  0
LWPOLYLINE
  8
Tungsten
420
8421631
 90
4
 70
1
 10
0.007925
 20
0.005525
 10
0.007675
 20
0.005525
 10
0.007675
 20
0.005275
 10
0.007925
 20
0.005275
  0
LWPOLYLINE
  8
Tungsten
420
8421631
 90
4
 70
1
 10
0.012325
 20
0.005525
 10
0.012075
 20
0.005525
 10
0.012075
 20
0.005275
 10
0.012325
 20
0.005275
  0
LWPOLYLINE
  8
Tungsten
420
8421631
 90
4
 70
1
 10
0.007925
 20
0.005125
 10
0.007675
 20
0.005125
 10
0.007675
 20
0.004875
 10
0.007925
 20
0.004875
  0
LWPOLYLINE
  8
Tungsten
420
8421631
 90
4
 70
1
 10
0.012325
 20
0.005125
 10
0.012075
 20
0.005125
 10
0.012075
 20
0.004875
 10
0.012325
 20
0.004875
  0
LWPOLYLINE
  8
Tungsten
420
8421631
 90
4
 70
1
 10
0.007925
 20
0.004725
 10
0.007675
 20
0.004725
 10
0.007675
 20
0.004475
 10
0.007925
 20
0.004475
  0
LWPOLYLINE
  8
Tungsten
420
8421631
 90
4
 70
1
 10
0.012325
 20
0.004725
 10
0.012075
 20
0.004725
 10
0.012075
 20
0.004475
 10
0.012325
 20
0.004475
  0
LWPOLYLINE
  8
Tungsten
420
8421631
 90
4
 70
1
 10
0.006125
 20
0.007625
 10
0.005875
 20
0.007625
 10
0.005875
 20
0.007375
 10
0.006125
 20
0.007375
  0
LWPOLYLINE
  8
Tungsten
420
8421631
 90
4
 70
1
 10
0.014125
 20
0.007625
 10
0.013875
 20
0.007625
 10
0.013875
 20
0.007375
 10
0.014125
 20
0.007375
  0
LWPOLYLINE
  8
Tungsten
420
8421631
 90
4
 70
1
 10
0.015925
 20
0.005525
 10
0.015675
 20
0.005525
 10
0.015675
 20
0.005275
 10
0.015925
 20
0.005275
  0
LWPOLYLINE
  8
Tungsten
420
8421631
 90
4
 70
1
 10
0.015925
 20
0.005125
 10
0.015675
 20
0.005125
 10
0.015675
 20
0.004875
 10
0.015925
 20
0.004875
  0
LWPOLYLINE
  8
Tungsten
420
8421631
 90
4
 70
1
 10
0.015925
 20
0.004725
 10
0.015675
 20
0.004725
 10
0.015675
 20
0.004475
 10
0.015925
 20
0.004475
  0
LWPOLYLINE
  8
Tungsten
420
8421631
 90
4
 70
1
 10
0.004325
 20
0.005525
 10
0.004075
 20
0.005525
 10
0.004075
 20
0.005275
 10
0.004325
 20
0.005275
  0
LWPOLYLINE
  8
Tungsten
420
8421631
 90
4
 70
1
 10
0.004325
 20
0.005125
 10
0.004075
 20
0.005125
 10
0.004075
 20
0.004875
 10
0.004325
 20
0.004875
  0
LWPOLYLINE
  8
Tungsten
420
8421631
 90
4
 70
1
 10
0.004325
 20
0.004725
 10
0.004075
 20
0.004725
 10
0.004075
 20
0.004475
 10
0.004325
 20
0.004475
  0
LWPOLYLINE
  8
Tungsten
420
8421631
 90
4
 70
1
 10
0.007925
 20
0.005525
 10
0.007675
 20
0.005525
 10
0.007675
 20
0.005275
 10
0.007925
 20
0.005275
  0
LWPOLYLINE
  8
Tungsten
420
8421631
 90
4
 70
1
 10
0.012325
 20
0.005525
 10
0.012075
 20
0.005525
 10
0.012075
 20
0.005275
 10
0.012325
 20
0.005275
  0
LWPOLYLINE
  8
Tungsten
420
8421631
 90
4
 70
1
 10
0.007925
 20
0.005125
 10
0.007675
 20
0.005125
 10
0.007675
 20
0.004875
 10
0.007925
 20
0.004875
  0
LWPOLYLINE
  8
Tungsten
420
8421631
 90
4
 70
1
 10
0.012325
 20
0.005125
 10
0.012075
 20
0.005125
 10
0.012075
 20
0.004875
 10
0.012325
 20
0.004875
  0
LWPOLYLINE
  8
Tungsten
420
8421631
 90
4
 70
1
 10
0.007925
 20
0.004725
 10
0.007675
 20
0.004725
 10
0.007675
 20
0.004475
 10
0.007925
 20
0.004475
  0
LWPOLYLINE
  8
Tungsten
420
8421631
 90
4
 70
1
 10
0.012325
 20
0.004725
 10
0.012075
 20
0.004725
 10
0.012075
 20
0.004475
 10
0.012325
 20
0.004475
  0
LWPOLYLINE
  8
Tungsten
420
8421631
 90
4
 70
1
 10
0.006125
 20
0.007625
 10
0.005875
 20
0.007625
 10
0.005875
 20
0.007375
 10
0.006125
 20
0.007375
  0
LWPOLYLINE
  8
Tungsten
420
8421631
 90
4
 70
1
 10
0.014125
 20
0.007625
 10
0.013875
 20
0.007625
 10
0.013875
 20
0.007375
 10
0.014125
 20
0.007375
  0
LWPOLYLINE
  8
Tungsten
420
8421631
 90
4
 70
1
 10
0.015925
 20
0.005525
 10
0.015675
 20
0.005525
 10
0.015675
 20
0.005275
 10
0.015925
 20
0.005275
  0
LWPOLYLINE
  8
Tungsten
420
8421631
 90
4
 70
1
 10
0.015925
 20
0.005125
 10
0.015675
 20
0.005125
 10
0.015675
 20
0.004875
 10
0.015925
 20
0.004875
  0
LWPOLYLINE
  8
Tungsten
420
8421631
 90
4
 70
1
 10
0.015925
 20
0.004725
 10
0.015675
 20
0.004725
 10
0.015675
 20
0.004475
 10
0.015925
 20
0.004475
  0
LWPOLYLINE
  8
Tungsten
420
8421631
 90
4
 70
1
 10
0.004325
 20
0.005525
 10
0.004075
 20
0.005525
 10
0.004075
 20
0.005275
 10
0.004325
 20
0.005275
  0
LWPOLYLINE
  8
Tungsten
420
8421631
 90
4
 70
1
 10
0.004325
 20
0.005125
 10
0.004075
 20
0.005125
 10
0.004075
 20
0.004875
 10
0.004325
 20
0.004875
  0
LWPOLYLINE
  8
Tungsten
420
8421631
 90
4
 70
1
 10
0.004325
 20
0.004725
 10
0.004075
 20
0.004725
 10
0.004075
 20
0.004475
 10
0.004325
 20
0.004475
  0
LWPOLYLINE
  8
Tungsten
420
8421631
 90
4
 70
1
 10
0.007925
 20
0.005525
 10
0.007675
 20
0.005525
 10
0.007675
 20
0.005275
 10
0.007925
 20
0.005275
  0
LWPOLYLINE
  8
Tungsten
420
8421631
 90
4
 70
1
 10
0.012325
 20
0.005525
 10
0.012075
 20
0.005525
 10
0.012075
 20
0.005275
 10
0.012325
 20
0.005275
  0
LWPOLYLINE
  8
Tungsten
420
8421631
 90
4
 70
1
 10
0.007925
 20
0.005125
 10
0.007675
 20
0.005125
 10
0.007675
 20
0.004875
 10
0.007925
 20
0.004875
  0
LWPOLYLINE
  8
Tungsten
420
8421631
 90
4
 70
1
 10
0.012325
 20
0.005125
 10
0.012075
 20
0.005125
 10
0.012075
 20
0.004875
 10
0.012325
 20
0.004875
  0
LWPOLYLINE
  8
Tungsten
420
8421631
 90
4
 70
1
 10
0.007925
 20
0.004725
 10
0.007675
 20
0.004725
 10
0.007675
 20
0.004475
 10
0.007925
 20
0.004475
  0
LWPOLYLINE
  8
Tungsten
420
8421631
 90
4
 70
1
 10
0.012325
 20
0.004725
 10
0.012075
 20
0.004725
 10
0.012075
 20
0.004475
 10
0.012325
 20
0.004475
  0
LWPOLYLINE
  8
Tungsten
420
8421631
 90
4
 70
1
 10
0.006125
 20
0.007625
 10
0.005875
 20
0.007625
 10
0.005875
 20
0.007375
 10
0.006125
 20
0.007375
  0
LWPOLYLINE
  8
Tungsten
420
8421631
 90
4
 70
1
 10
0.014125
 20
0.007625
 10
0.013875
 20
0.007625
 10
0.013875
 20
0.007375
 10
0.014125
 20
0.007375
  0
LWPOLYLINE
  8
Tungsten
420
8421631
 90
4
 70
1
 10
0.015925
 20
0.005525
 10
0.015675
 20
0.005525
 10
0.015675
 20
0.005275
 10
0.015925
 20
0.005275
  0
LWPOLYLINE
  8
Tungsten
420
8421631
 90
4
 70
1
 10
0.015925
 20
0.005125
 10
0.015675
 20
0.005125
 10
0.015675
 20
0.004875
 10
0.015925
 20
0.004875
  0
LWPOLYLINE
  8
Tungsten
420
8421631
 90
4
 70
1
 10
0.015925
 20
0.004725
 10
0.015675
 20
0.004725
 10
0.015675
 20
0.004475
 10
0.015925
 20
0.004475
  0
LWPOLYLINE
  8
Aluminum
420
12632256
 90
12
 70
1
 10
0.004400
 20
0.005705
 10
0.004000
 20
0.005705
 10
0.004000
 20
0.005150
 10
0.003000
 20
0.005150
 10
0.003000
 20
0.005500
 10
0.002000
 20
0.005500
 10
0.002000
 20
0.004500
 10
0.003000
 20
0.004500
 10
0.003000
 20
0.004850
 10
0.004000
 20
0.004850
 10
0.004000
 20
0.004295
 10
0.004400
 20
0.004295
  0
LWPOLYLINE
  8
Aluminum
420
12632256
 90
20
 70
1
 10
0.008000
 20
0.004850
 10
0.009500
 20
0.004850
 10
0.009500
 20
0.004500
 10
0.010500
 20
0.004500
 10
0.010500
 20
0.004850
 10
0.012000
 20
0.004850
 10
0.012000
 20
0.004295
 10
0.012400
 20
0.004295
 10
0.012400
 20
0.005705
 10
0.012000
 20
0.005705
 10
0.012000
 20
0.005150
 10
0.010500
 20
0.005150
 10
0.010500
 20
0.005500
 10
0.009500
 20
0.005500
 10
0.009500
 20
0.005150
 10
0.008000
 20
0.005150
 10
0.008000
 20
0.005705
 10
0.007600
 20
0.005705
 10
0.007600
 20
0.004295
 10
0.008000
 20
0.004295
  0
LWPOLYLINE
  8
Aluminum
420
12632256
 90
20
 70
1
 10
0.016000
 20
0.004850
 10
0.017000
 20
0.004850
 10
0.017000
 20
0.004500
 10
0.018000
 20
0.004500
 10
0.018000
 20
0.005500
 10
0.017650
 20
0.005500
 10
0.017650
 20
0.007200
 10
0.017700
 20
0.007200
 10
0.017700
 20
0.007800
 10
0.005800
 20
0.007800
 10
0.005800
 20
0.007200
 10
0.017350
 20
0.007200
 10
0.017350
 20
0.005500
 10
0.017000
 20
0.005500
 10
0.017000
 20
0.005150
 10
0.016000
 20
0.005150
 10
0.016000
 20
0.005705
 10
0.015600
 20
0.005705
 10
0.015600
 20
0.004295
 10
0.016000
 20
0.004295
  0
LWPOLYLINE
  8
Silicon_Dioxide
420
14739711
 90
4
 70
1
 10
0.000000
 20
0.000000
 10
0.025000
 20
0.000000
 10
0.025000
 20
0.012000
 10
0.000000
 20
0.012000
  0
LWPOLYLINE
  8
Silicon_Dioxide
420
14739711
 90
4
 70
1
 10
0.000000
 20
0.000000
 10
0.025000
 20
0.000000
 10
0.025000
 20
0.012000
 10
0.000000
 20
0.012000
  0
LWPOLYLINE
  8
Resistor_Poly_Mask
420
16728128
 90
4
 70
1
 10
0.004000
 20
0.004115
 10
0.008000
 20
0.004115
 10
0.008000
 20
0.005885
 10
0.004000
 20
0.005885
  0
LWPOLYLINE
  8
P_Plus_Implant_Mask
420
16744703
 90
4
 70
1
 10
0.003870
 20
0.004165
 10
0.008130
 20
0.004165
 10
0.008130
 20
0.005835
 10
0.003870
 20
0.005835
  0
LWPOLYLINE
  8
Tap_Mask
420
8454016
 90
4
 70
1
 10
0.005800
 20
0.007300
 10
0.006200
 20
0.007300
 10
0.006200
 20
0.007700
 10
0.005800
 20
0.007700
  0
LWPOLYLINE
  8
P_Plus_Implant_Mask
420
16744703
 90
4
 70
1
 10
0.005670
 20
0.007170
 10
0.006330
 20
0.007170
 10
0.006330
 20
0.007830
 10
0.005670
 20
0.007830
  0
LWPOLYLINE
  8
Resistor_Poly_Mask
420
16728128
 90
4
 70
1
 10
0.012000
 20
0.004115
 10
0.016000
 20
0.004115
 10
0.016000
 20
0.005885
 10
0.012000
 20
0.005885
  0
LWPOLYLINE
  8
P_Plus_Implant_Mask
420
16744703
 90
4
 70
1
 10
0.011870
 20
0.004165
 10
0.016130
 20
0.004165
 10
0.016130
 20
0.005835
 10
0.011870
 20
0.005835
  0
LWPOLYLINE
  8
Tap_Mask
420
8454016
 90
4
 70
1
 10
0.013800
 20
0.007300
 10
0.014200
 20
0.007300
 10
0.014200
 20
0.007700
 10
0.013800
 20
0.007700
  0
LWPOLYLINE
  8
P_Plus_Implant_Mask
420
16744703
 90
4
 70
1
 10
0.013670
 20
0.007170
 10
0.014330
 20
0.007170
 10
0.014330
 20
0.007830
 10
0.013670
 20
0.007830
  0
LWPOLYLINE
  8
Pad_Mask
420
14729320
 90
4
 70
1
 10
0.002200
 20
0.004700
 10
0.002800
 20
0.004700
 10
0.002800
 20
0.005300
 10
0.002200
 20
0.005300
  0
LWPOLYLINE
  8
Pad_Mask
420
14729320
 90
4
 70
1
 10
0.009700
 20
0.004700
 10
0.010300
 20
0.004700
 10
0.010300
 20
0.005300
 10
0.009700
 20
0.005300
  0
LWPOLYLINE
  8
Pad_Mask
420
14729320
 90
4
 70
1
 10
0.017200
 20
0.004700
 10
0.017800
 20
0.004700
 10
0.017800
 20
0.005300
 10
0.017200
 20
0.005300
  0
ENDSEC
  0
EOF
