  0
SECTION
  2
HEADER
  9
$ACADVER
  1
AC1018
  0
ENDSEC
  0
SECTION
  2
TABLES
  0
TABLE
  2
LAYER
  0
LAYER
  2
Aluminum
 70
0
 62
7
  0
ENDTAB
  0
ENDSEC
  0
SECTION
  2
ENTITIES
  0
LWPOLYLINE
  8
Aluminum
420
12632256
 90
12
 70
1
 10
0.750000
 20
0.163787
 10
0.750000
 20
0.423786
 10
0.786214
 20
0.460000
 10
0.800000
 20
0.460000
 10
0.800000
 20
0.490000
 10
0.773787
 20
0.490000
 10
0.720000
 20
0.436213
 10
0.720000
 20
0.176214
 10
0.683786
 20
0.140000
 10
0.200000
 20
0.140000
 10
0.200000
 20
0.110000
 10
0.696213
 20
0.110000
  0
LWPOLYLINE
  8
Aluminum
420
12632256
 90
10
 70
1
 10
0.362500
 20
0.380000
 10
0.637500
 20
0.380000
 10
0.637500
 20
0.350000
 10
0.662500
 20
0.350000
 10
0.662500
 20
0.397408
 10
0.654908
 20
0.405000
 10
0.345092
 20
0.405000
 10
0.337500
 20
0.397408
 10
0.337500
 20
0.350000
 10
0.362500
 20
0.350000
  0
LWPOLYLINE
  8
Aluminum
420
12632256
 90
4
 70
1
 10
0.050000
 20
0.050000
 10
0.200000
 20
0.050000
 10
0.200000
 20
0.200000
 10
0.050000
 20
0.200000
  0
LWPOLYLINE
  8
Aluminum
420
12632256
 90
4
 70
1
 10
0.800000
 20
0.400000
 10
0.950000
 20
0.400000
 10
0.950000
 20
0.550000
 10
0.800000
 20
0.550000
  0
LWPOLYLINE
  8
Aluminum
420
12632256
 90
4
 70
1
 10
0.300000
 20
0.250000
 10
0.400000
 20
0.250000
 10
0.400000
 20
0.350000
 10
0.300000
 20
0.350000
  0
LWPOLYLINE
  8
Aluminum
420
12632256
 90
4
 70
1
 10
0.600000
 20
0.250000
 10
0.700000
 20
0.250000
 10
0.700000
 20
0.350000
 10
0.600000
 20
0.350000
  0
LWPOLYLINE
  8
Aluminum
420
12632256
 90
4
 70
1
 10
0.430000
 20
0.235000
 10
0.550000
 20
0.235000
 10
0.550000
 20
0.315000
 10
0.430000
 20
0.315000
  0
ENDSEC
  0
EOF
