  0
SECTION
  2
HEADER
  9
$ACADVER
  1
AC1018
  0
ENDSEC
  0
SECTION
  2
TABLES
  0
TABLE
  2
LAYER
  0
LAYER
  2
DRILL
 70
0
 62
0
  0
LAYER
  2
TOP_COMPONENTS
 70
0
 62
7
  0
LAYER
  2
BOTTOM_COMPONENTS
 70
0
 62
7
  0
LAYER
  2
PCB_LAYERS
 70
0
 62
7
  0
ENDTAB
  0
ENDSEC
  0
SECTION
  2
ENTITIES
  0
LWPOLYLINE
  8
PCB_LAYERS
420
12088115
 90
64
 70
1
 10
5.049008
 20
4.502408
 10
5.097545
 20
4.509608
 10
5.145142
 20
4.521530
 10
5.191341
 20
4.538061
 10
5.235698
 20
4.559040
 10
5.277785
 20
4.584266
 10
5.317196
 20
4.613495
 10
5.353553
 20
4.646447
 10
5.386505
 20
4.682804
 10
5.415734
 20
4.722215
 10
5.440960
 20
4.764302
 10
5.461939
 20
4.808659
 10
5.478470
 20
4.854858
 10
5.490392
 20
4.902455
 10
5.497592
 20
4.950992
 10
5.500000
 20
5.000000
 10
5.497592
 20
5.049008
 10
5.490392
 20
5.097545
 10
5.478470
 20
5.145142
 10
5.461939
 20
5.191341
 10
5.440960
 20
5.235698
 10
5.415734
 20
5.277785
 10
5.386505
 20
5.317196
 10
5.353553
 20
5.353553
 10
5.317196
 20
5.386505
 10
5.277785
 20
5.415734
 10
5.235698
 20
5.440960
 10
5.191341
 20
5.461939
 10
5.145142
 20
5.478470
 10
5.097545
 20
5.490392
 10
5.049008
 20
5.497592
 10
5.000000
 20
5.500000
 10
4.950992
 20
5.497592
 10
4.902455
 20
5.490392
 10
4.854858
 20
5.478470
 10
4.808659
 20
5.461939
 10
4.764302
 20
5.440960
 10
4.722215
 20
5.415734
 10
4.682804
 20
5.386505
 10
4.646447
 20
5.353553
 10
4.613495
 20
5.317196
 10
4.584266
 20
5.277785
 10
4.559040
 20
5.235698
 10
4.538061
 20
5.191341
 10
4.521530
 20
5.145142
 10
4.509608
 20
5.097545
 10
4.502408
 20
5.049008
 10
4.500000
 20
5.000000
 10
4.502408
 20
4.950992
 10
4.509608
 20
4.902455
 10
4.521530
 20
4.854858
 10
4.538061
 20
4.808659
 10
4.559040
 20
4.764302
 10
4.584266
 20
4.722215
 10
4.613495
 20
4.682804
 10
4.646447
 20
4.646447
 10
4.682804
 20
4.613495
 10
4.722215
 20
4.584266
 10
4.764302
 20
4.559040
 10
4.808659
 20
4.538061
 10
4.854858
 20
4.521530
 10
4.902455
 20
4.509608
 10
4.950992
 20
4.502408
 10
5.000000
 20
4.500000
  0
LWPOLYLINE
  8
PCB_LAYERS
420
12088115
 90
64
 70
1
 10
4.973046
 20
4.726325
 10
4.946351
 20
4.730285
 10
4.920172
 20
4.736842
 10
4.894763
 20
4.745934
 10
4.870366
 20
4.757472
 10
4.847219
 20
4.771346
 10
4.825542
 20
4.787423
 10
4.805546
 20
4.805546
 10
4.787423
 20
4.825542
 10
4.771346
 20
4.847219
 10
4.757472
 20
4.870366
 10
4.745934
 20
4.894763
 10
4.736842
 20
4.920172
 10
4.730285
 20
4.946351
 10
4.726325
 20
4.973046
 10
4.725000
 20
5.000000
 10
4.726325
 20
5.026954
 10
4.730285
 20
5.053649
 10
4.736842
 20
5.079828
 10
4.745934
 20
5.105237
 10
4.757472
 20
5.129634
 10
4.771346
 20
5.152781
 10
4.787423
 20
5.174458
 10
4.805546
 20
5.194454
 10
4.825542
 20
5.212577
 10
4.847219
 20
5.228654
 10
4.870366
 20
5.242528
 10
4.894763
 20
5.254066
 10
4.920172
 20
5.263158
 10
4.946351
 20
5.269715
 10
4.973046
 20
5.273675
 10
5.000000
 20
5.275000
 10
5.026954
 20
5.273675
 10
5.053649
 20
5.269715
 10
5.079828
 20
5.263158
 10
5.105237
 20
5.254066
 10
5.129634
 20
5.242528
 10
5.152781
 20
5.228654
 10
5.174458
 20
5.212577
 10
5.194454
 20
5.194454
 10
5.212577
 20
5.174458
 10
5.228654
 20
5.152781
 10
5.242528
 20
5.129634
 10
5.254066
 20
5.105237
 10
5.263158
 20
5.079828
 10
5.269715
 20
5.053649
 10
5.273675
 20
5.026954
 10
5.275000
 20
5.000000
 10
5.273675
 20
4.973046
 10
5.269715
 20
4.946351
 10
5.263158
 20
4.920172
 10
5.254066
 20
4.894763
 10
5.242528
 20
4.870366
 10
5.228654
 20
4.847219
 10
5.212577
 20
4.825542
 10
5.194454
 20
4.805546
 10
5.174458
 20
4.787423
 10
5.152781
 20
4.771346
 10
5.129634
 20
4.757472
 10
5.105237
 20
4.745934
 10
5.079828
 20
4.736842
 10
5.053649
 20
4.730285
 10
5.026954
 20
4.726325
 10
5.000000
 20
4.725000
  0
LWPOLYLINE
  8
PCB_LAYERS
420
12088115
 90
64
 70
1
 10
5.049008
 20
4.502408
 10
5.097545
 20
4.509608
 10
5.145142
 20
4.521530
 10
5.191341
 20
4.538061
 10
5.235698
 20
4.559040
 10
5.277785
 20
4.584266
 10
5.317196
 20
4.613495
 10
5.353553
 20
4.646447
 10
5.386505
 20
4.682804
 10
5.415734
 20
4.722215
 10
5.440960
 20
4.764302
 10
5.461939
 20
4.808659
 10
5.478470
 20
4.854858
 10
5.490392
 20
4.902455
 10
5.497592
 20
4.950992
 10
5.500000
 20
5.000000
 10
5.497592
 20
5.049008
 10
5.490392
 20
5.097545
 10
5.478470
 20
5.145142
 10
5.461939
 20
5.191341
 10
5.440960
 20
5.235698
 10
5.415734
 20
5.277785
 10
5.386505
 20
5.317196
 10
5.353553
 20
5.353553
 10
5.317196
 20
5.386505
 10
5.277785
 20
5.415734
 10
5.235698
 20
5.440960
 10
5.191341
 20
5.461939
 10
5.145142
 20
5.478470
 10
5.097545
 20
5.490392
 10
5.049008
 20
5.497592
 10
5.000000
 20
5.500000
 10
4.950992
 20
5.497592
 10
4.902455
 20
5.490392
 10
4.854858
 20
5.478470
 10
4.808659
 20
5.461939
 10
4.764302
 20
5.440960
 10
4.722215
 20
5.415734
 10
4.682804
 20
5.386505
 10
4.646447
 20
5.353553
 10
4.613495
 20
5.317196
 10
4.584266
 20
5.277785
 10
4.559040
 20
5.235698
 10
4.538061
 20
5.191341
 10
4.521530
 20
5.145142
 10
4.509608
 20
5.097545
 10
4.502408
 20
5.049008
 10
4.500000
 20
5.000000
 10
4.502408
 20
4.950992
 10
4.509608
 20
4.902455
 10
4.521530
 20
4.854858
 10
4.538061
 20
4.808659
 10
4.559040
 20
4.764302
 10
4.584266
 20
4.722215
 10
4.613495
 20
4.682804
 10
4.646447
 20
4.646447
 10
4.682804
 20
4.613495
 10
4.722215
 20
4.584266
 10
4.764302
 20
4.559040
 10
4.808659
 20
4.538061
 10
4.854858
 20
4.521530
 10
4.902455
 20
4.509608
 10
4.950992
 20
4.502408
 10
5.000000
 20
4.500000
  0
LWPOLYLINE
  8
PCB_LAYERS
420
12088115
 90
64
 70
1
 10
4.973046
 20
4.726325
 10
4.946351
 20
4.730285
 10
4.920172
 20
4.736842
 10
4.894763
 20
4.745934
 10
4.870366
 20
4.757472
 10
4.847219
 20
4.771346
 10
4.825542
 20
4.787423
 10
4.805546
 20
4.805546
 10
4.787423
 20
4.825542
 10
4.771346
 20
4.847219
 10
4.757472
 20
4.870366
 10
4.745934
 20
4.894763
 10
4.736842
 20
4.920172
 10
4.730285
 20
4.946351
 10
4.726325
 20
4.973046
 10
4.725000
 20
5.000000
 10
4.726325
 20
5.026954
 10
4.730285
 20
5.053649
 10
4.736842
 20
5.079828
 10
4.745934
 20
5.105237
 10
4.757472
 20
5.129634
 10
4.771346
 20
5.152781
 10
4.787423
 20
5.174458
 10
4.805546
 20
5.194454
 10
4.825542
 20
5.212577
 10
4.847219
 20
5.228654
 10
4.870366
 20
5.242528
 10
4.894763
 20
5.254066
 10
4.920172
 20
5.263158
 10
4.946351
 20
5.269715
 10
4.973046
 20
5.273675
 10
5.000000
 20
5.275000
 10
5.026954
 20
5.273675
 10
5.053649
 20
5.269715
 10
5.079828
 20
5.263158
 10
5.105237
 20
5.254066
 10
5.129634
 20
5.242528
 10
5.152781
 20
5.228654
 10
5.174458
 20
5.212577
 10
5.194454
 20
5.194454
 10
5.212577
 20
5.174458
 10
5.228654
 20
5.152781
 10
5.242528
 20
5.129634
 10
5.254066
 20
5.105237
 10
5.263158
 20
5.079828
 10
5.269715
 20
5.053649
 10
5.273675
 20
5.026954
 10
5.275000
 20
5.000000
 10
5.273675
 20
4.973046
 10
5.269715
 20
4.946351
 10
5.263158
 20
4.920172
 10
5.254066
 20
4.894763
 10
5.242528
 20
4.870366
 10
5.228654
 20
4.847219
 10
5.212577
 20
4.825542
 10
5.194454
 20
4.805546
 10
5.174458
 20
4.787423
 10
5.152781
 20
4.771346
 10
5.129634
 20
4.757472
 10
5.105237
 20
4.745934
 10
5.079828
 20
4.736842
 10
5.053649
 20
4.730285
 10
5.026954
 20
4.726325
 10
5.000000
 20
4.725000
  0
ENDSEC
  0
EOF
