  0
SECTION
  2
HEADER
  9
$ACADVER
  1
AC1018
  0
ENDSEC
  0
SECTION
  2
TABLES
  0
TABLE
  2
LAYER
  0
LAYER
  2
Silicon_Dioxide
 70
0
 62
7
  0
LAYER
  2
Aluminum_Met1
 70
0
 62
7
  0
LAYER
  2
Aluminum_Met2
 70
0
 62
7
  0
LAYER
  2
Tungsten
 70
0
 62
7
  0
ENDTAB
  0
ENDSEC
  0
SECTION
  2
ENTITIES
  0
LWPOLYLINE
  8
Aluminum_Met1
420
12632256
 90
28
 70
1
 10
0.003000
 20
0.004750
 10
0.005600
 20
0.004750
 10
0.005600
 20
0.004600
 10
0.006400
 20
0.004600
 10
0.006400
 20
0.004750
 10
0.011600
 20
0.004750
 10
0.011600
 20
0.004600
 10
0.012400
 20
0.004600
 10
0.012400
 20
0.004750
 10
0.015000
 20
0.004750
 10
0.015000
 20
0.004000
 10
0.017000
 20
0.004000
 10
0.017000
 20
0.006000
 10
0.015000
 20
0.006000
 10
0.015000
 20
0.005250
 10
0.012400
 20
0.005250
 10
0.012400
 20
0.005400
 10
0.011600
 20
0.005400
 10
0.011600
 20
0.005250
 10
0.006400
 20
0.005250
 10
0.006400
 20
0.005400
 10
0.005600
 20
0.005400
 10
0.005600
 20
0.005250
 10
0.003000
 20
0.005250
 10
0.003000
 20
0.006000
 10
0.001000
 20
0.006000
 10
0.001000
 20
0.004000
 10
0.003000
 20
0.004000
  0
LWPOLYLINE
  8
Aluminum_Met1
420
12632256
 90
4
 70
1
 10
0.016000
 20
0.003250
 10
0.002000
 20
0.003250
 10
0.002000
 20
0.002750
 10
0.016000
 20
0.002750
  0
LWPOLYLINE
  8
Tungsten
420
6316160
 90
4
 70
1
 10
0.006075
 20
0.005075
 10
0.005925
 20
0.005075
 10
0.005925
 20
0.004925
 10
0.006075
 20
0.004925
  0
LWPOLYLINE
  8
Tungsten
420
6316160
 90
4
 70
1
 10
0.012075
 20
0.005075
 10
0.011925
 20
0.005075
 10
0.011925
 20
0.004925
 10
0.012075
 20
0.004925
  0
LWPOLYLINE
  8
Tungsten
420
6316160
 90
4
 70
1
 10
0.006075
 20
0.005075
 10
0.005925
 20
0.005075
 10
0.005925
 20
0.004925
 10
0.006075
 20
0.004925
  0
LWPOLYLINE
  8
Tungsten
420
6316160
 90
4
 70
1
 10
0.012075
 20
0.005075
 10
0.011925
 20
0.005075
 10
0.011925
 20
0.004925
 10
0.012075
 20
0.004925
  0
LWPOLYLINE
  8
Tungsten
420
6316160
 90
4
 70
1
 10
0.006075
 20
0.005075
 10
0.005925
 20
0.005075
 10
0.005925
 20
0.004925
 10
0.006075
 20
0.004925
  0
LWPOLYLINE
  8
Tungsten
420
6316160
 90
4
 70
1
 10
0.012075
 20
0.005075
 10
0.011925
 20
0.005075
 10
0.011925
 20
0.004925
 10
0.012075
 20
0.004925
  0
LWPOLYLINE
  8
Aluminum_Met2
420
13158600
 90
4
 70
1
 10
0.006400
 20
0.005400
 10
0.005600
 20
0.005400
 10
0.005600
 20
0.004600
 10
0.006400
 20
0.004600
  0
LWPOLYLINE
  8
Aluminum_Met2
420
13158600
 90
4
 70
1
 10
0.012400
 20
0.005400
 10
0.011600
 20
0.005400
 10
0.011600
 20
0.004600
 10
0.012400
 20
0.004600
  0
LWPOLYLINE
  8
Silicon_Dioxide
420
14739711
 90
4
 70
1
 10
0.000000
 20
0.000000
 10
0.020000
 20
0.000000
 10
0.020000
 20
0.010000
 10
0.000000
 20
0.010000
  0
LWPOLYLINE
  8
Silicon_Dioxide
420
14739711
 90
4
 70
1
 10
0.000000
 20
0.000000
 10
0.020000
 20
0.000000
 10
0.020000
 20
0.010000
 10
0.000000
 20
0.010000
  0
ENDSEC
  0
EOF
