  0
SECTION
  2
HEADER
  9
$ACADVER
  1
AC1018
  0
ENDSEC
  0
SECTION
  2
TABLES
  0
TABLE
  2
LAYER
  0
LAYER
  2
Aluminum
 70
0
 62
7
  0
ENDTAB
  0
ENDSEC
  0
SECTION
  2
ENTITIES
  0
LWPOLYLINE
  8
Aluminum
420
12632256
 90
8
 70
1
 10
1.362500
 20
0.182322
 10
1.362500
 20
0.312500
 10
1.337500
 20
0.312500
 10
1.337500
 20
0.192678
 10
1.307322
 20
0.162500
 10
0.187500
 20
0.162500
 10
0.187500
 20
0.137500
 10
1.317678
 20
0.137500
  0
LWPOLYLINE
  8
Aluminum
420
12632256
 90
8
 70
1
 10
0.262500
 20
0.407322
 10
0.292678
 20
0.437500
 10
1.312500
 20
0.437500
 10
1.312500
 20
0.462500
 10
0.282322
 20
0.462500
 10
0.237500
 20
0.417678
 10
0.237500
 20
0.387500
 10
0.262500
 20
0.387500
  0
LWPOLYLINE
  8
Aluminum
420
12632256
 90
8
 70
1
 10
1.262500
 20
0.612500
 10
0.342678
 20
0.612500
 10
0.312500
 20
0.642678
 10
0.312500
 20
0.662500
 10
0.287500
 20
0.662500
 10
0.287500
 20
0.632322
 10
0.332322
 20
0.587500
 10
1.262500
 20
0.587500
  0
LWPOLYLINE
  8
Aluminum
420
12632256
 90
8
 70
1
 10
1.212500
 20
0.867678
 10
1.167678
 20
0.912500
 10
0.337500
 20
0.912500
 10
0.337500
 20
0.887500
 10
1.157322
 20
0.887500
 10
1.187500
 20
0.857322
 10
1.187500
 20
0.737500
 10
1.212500
 20
0.737500
  0
LWPOLYLINE
  8
Aluminum
420
12632256
 90
4
 70
1
 10
0.100000
 20
0.100000
 10
0.200000
 20
0.100000
 10
0.200000
 20
0.200000
 10
0.100000
 20
0.200000
  0
LWPOLYLINE
  8
Aluminum
420
12632256
 90
4
 70
1
 10
0.150000
 20
0.350000
 10
0.250000
 20
0.350000
 10
0.250000
 20
0.450000
 10
0.150000
 20
0.450000
  0
LWPOLYLINE
  8
Aluminum
420
12632256
 90
4
 70
1
 10
0.200000
 20
0.600000
 10
0.300000
 20
0.600000
 10
0.300000
 20
0.700000
 10
0.200000
 20
0.700000
  0
LWPOLYLINE
  8
Aluminum
420
12632256
 90
4
 70
1
 10
0.250000
 20
0.850000
 10
0.350000
 20
0.850000
 10
0.350000
 20
0.950000
 10
0.250000
 20
0.950000
  0
LWPOLYLINE
  8
Aluminum
420
12632256
 90
4
 70
1
 10
1.200000
 20
0.700000
 10
1.300000
 20
0.700000
 10
1.300000
 20
0.800000
 10
1.200000
 20
0.800000
  0
LWPOLYLINE
  8
Aluminum
420
12632256
 90
4
 70
1
 10
1.250000
 20
0.550000
 10
1.350000
 20
0.550000
 10
1.350000
 20
0.650000
 10
1.250000
 20
0.650000
  0
LWPOLYLINE
  8
Aluminum
420
12632256
 90
4
 70
1
 10
1.300000
 20
0.400000
 10
1.400000
 20
0.400000
 10
1.400000
 20
0.500000
 10
1.300000
 20
0.500000
  0
LWPOLYLINE
  8
Aluminum
420
12632256
 90
4
 70
1
 10
1.350000
 20
0.250000
 10
1.450000
 20
0.250000
 10
1.450000
 20
0.350000
 10
1.350000
 20
0.350000
  0
ENDSEC
  0
EOF
