  0
SECTION
  2
HEADER
  9
$ACADVER
  1
AC1018
  0
ENDSEC
  0
SECTION
  2
TABLES
  0
TABLE
  2
LAYER
  0
LAYER
  2
L_Copper_Polished
 70
0
 62
7
420
16764006
440
33554432
  0
LAYER
  2
L_Copper_Oxidized
 70
0
 62
7
420
12088115
440
33554432
  0
LAYER
  2
L_FR4_Standard
 70
0
 62
7
420
2972199
440
33554432
  0
LAYER
  2
L_SolderMask_Green
 70
0
 62
3
420
32768
440
33554482
  0
LAYER
  2
L_SolderMask_Blue
 70
0
 62
5
420
255
440
33554482
  0
LAYER
  2
L_SolderMask_Black
 70
0
 62
7
420
1710618
440
33554432
  0
LAYER
  2
L_Silkscreen_White
 70
0
 62
7
420
16777215
440
33554432
  0
LAYER
  2
L_Gold_ENIG
 70
0
 62
7
420
16766720
440
33554432
  0
LAYER
  2
L_Prepreg_Core
 70
0
 62
7
420
16113331
440
33554585
  0
LAYER
  2
L_Silver_HASL
 70
0
 62
7
420
12632256
440
33554432
  0
ENDTAB
  0
ENDSEC
  0
SECTION
  2
ENTITIES
  0
LWPOLYLINE
  8
L1_Copper_Polished
420
16764006
 90
4
 70
1
 10
5.000000
 20
5.000000
 10
10.000000
 20
5.000000
 10
10.000000
 20
15.000000
 10
5.000000
 20
15.000000
  0
LWPOLYLINE
  8
L1_Copper_Oxidized
420
12088115
 90
4
 70
1
 10
15.000000
 20
5.000000
 10
20.000000
 20
5.000000
 10
20.000000
 20
15.000000
 10
15.000000
 20
15.000000
  0
LWPOLYLINE
  8
L1_FR4_Standard
420
2972199
 90
4
 70
1
 10
25.000000
 20
5.000000
 10
30.000000
 20
5.000000
 10
30.000000
 20
15.000000
 10
25.000000
 20
15.000000
  0
LWPOLYLINE
  8
L1_SolderMask_Green
420
32768
 90
4
 70
1
 10
35.000000
 20
5.000000
 10
40.000000
 20
5.000000
 10
40.000000
 20
15.000000
 10
35.000000
 20
15.000000
  0
LWPOLYLINE
  8
L1_SolderMask_Blue
420
255
 90
4
 70
1
 10
45.000000
 20
5.000000
 10
50.000000
 20
5.000000
 10
50.000000
 20
15.000000
 10
45.000000
 20
15.000000
  0
LWPOLYLINE
  8
L1_SolderMask_Black
420
1710618
 90
4
 70
1
 10
55.000000
 20
5.000000
 10
60.000000
 20
5.000000
 10
60.000000
 20
15.000000
 10
55.000000
 20
15.000000
  0
LWPOLYLINE
  8
L1_Silkscreen_White
420
16777215
 90
4
 70
1
 10
65.000000
 20
5.000000
 10
70.000000
 20
5.000000
 10
70.000000
 20
15.000000
 10
65.000000
 20
15.000000
  0
LWPOLYLINE
  8
L1_Gold_ENIG
420
16766720
 90
4
 70
1
 10
75.000000
 20
5.000000
 10
80.000000
 20
5.000000
 10
80.000000
 20
15.000000
 10
75.000000
 20
15.000000
  0
LWPOLYLINE
  8
L1_Prepreg_Core
420
16113331
 90
4
 70
1
 10
85.000000
 20
5.000000
 10
90.000000
 20
5.000000
 10
90.000000
 20
15.000000
 10
85.000000
 20
15.000000
  0
LWPOLYLINE
  8
L1_Silver_HASL
420
12632256
 90
4
 70
1
 10
95.000000
 20
5.000000
 10
100.000000
 20
5.000000
 10
100.000000
 20
15.000000
 10
95.000000
 20
15.000000
  0
ENDSEC
  0
EOF
