  0
SECTION
  2
HEADER
  9
$ACADVER
  1
AC1018
  0
ENDSEC
  0
SECTION
  2
TABLES
  0
TABLE
  2
LAYER
  0
LAYER
  2
L_Silicon_P
 70
0
 62
7
420
16758465
440
33554432
  0
ENDTAB
  0
ENDSEC
  0
SECTION
  2
ENTITIES
  0
LWPOLYLINE
  8
L1_Silicon_P
420
16758465
 90
4
 70
1
 10
0.001000
 20
0.001000
 10
699.999000
 20
0.001000
 10
699.999000
 20
39.999000
 10
0.001000
 20
39.999000
  0
LWPOLYLINE
  8
L1_Components
420
12088115
 90
4
 70
1
 10
5.000000
 20
35.000000
 10
13.000000
 20
35.000000
 10
13.000000
 20
39.000000
 10
5.000000
 20
39.000000
  0
LWPOLYLINE
  8
L1_Components
420
12088115
 90
4
 70
1
 10
15.000000
 20
35.000000
 10
23.000000
 20
35.000000
 10
23.000000
 20
39.000000
 10
15.000000
 20
39.000000
  0
LWPOLYLINE
  8
L1_Components
420
12088115
 90
4
 70
1
 10
25.000000
 20
35.000000
 10
33.000000
 20
35.000000
 10
33.000000
 20
39.000000
 10
25.000000
 20
39.000000
  0
LWPOLYLINE
  8
L1_Components
420
12088115
 90
4
 70
1
 10
35.000000
 20
35.000000
 10
43.000000
 20
35.000000
 10
43.000000
 20
39.000000
 10
35.000000
 20
39.000000
  0
LWPOLYLINE
  8
L1_Components
420
12088115
 90
4
 70
1
 10
45.000000
 20
35.000000
 10
53.000000
 20
35.000000
 10
53.000000
 20
39.000000
 10
45.000000
 20
39.000000
  0
LWPOLYLINE
  8
L1_Components
420
12088115
 90
4
 70
1
 10
55.000000
 20
35.000000
 10
63.000000
 20
35.000000
 10
63.000000
 20
39.000000
 10
55.000000
 20
39.000000
  0
LWPOLYLINE
  8
L1_Components
420
12088115
 90
4
 70
1
 10
65.000000
 20
35.000000
 10
73.000000
 20
35.000000
 10
73.000000
 20
39.000000
 10
65.000000
 20
39.000000
  0
LWPOLYLINE
  8
L1_Components
420
12088115
 90
4
 70
1
 10
75.000000
 20
35.000000
 10
83.000000
 20
35.000000
 10
83.000000
 20
39.000000
 10
75.000000
 20
39.000000
  0
LWPOLYLINE
  8
L1_Components
420
12088115
 90
4
 70
1
 10
5.000000
 20
30.000000
 10
13.000000
 20
30.000000
 10
13.000000
 20
34.000000
 10
5.000000
 20
34.000000
  0
LWPOLYLINE
  8
L1_Components
420
12088115
 90
4
 70
1
 10
15.000000
 20
30.000000
 10
23.000000
 20
30.000000
 10
23.000000
 20
34.000000
 10
15.000000
 20
34.000000
  0
LWPOLYLINE
  8
L1_Components
420
12088115
 90
4
 70
1
 10
25.000000
 20
30.000000
 10
33.000000
 20
30.000000
 10
33.000000
 20
34.000000
 10
25.000000
 20
34.000000
  0
LWPOLYLINE
  8
L1_Components
420
12088115
 90
4
 70
1
 10
35.000000
 20
30.000000
 10
43.000000
 20
30.000000
 10
43.000000
 20
34.000000
 10
35.000000
 20
34.000000
  0
LWPOLYLINE
  8
L1_Components
420
12088115
 90
4
 70
1
 10
45.000000
 20
30.000000
 10
53.000000
 20
30.000000
 10
53.000000
 20
34.000000
 10
45.000000
 20
34.000000
  0
LWPOLYLINE
  8
L1_Components
420
12088115
 90
4
 70
1
 10
55.000000
 20
30.000000
 10
63.000000
 20
30.000000
 10
63.000000
 20
34.000000
 10
55.000000
 20
34.000000
  0
LWPOLYLINE
  8
L1_Components
420
12088115
 90
4
 70
1
 10
65.000000
 20
30.000000
 10
73.000000
 20
30.000000
 10
73.000000
 20
34.000000
 10
65.000000
 20
34.000000
  0
LWPOLYLINE
  8
L1_Components
420
12088115
 90
4
 70
1
 10
75.000000
 20
30.000000
 10
83.000000
 20
30.000000
 10
83.000000
 20
34.000000
 10
75.000000
 20
34.000000
  0
LWPOLYLINE
  8
L1_Components
420
12088115
 90
4
 70
1
 10
5.000000
 20
25.000000
 10
13.000000
 20
25.000000
 10
13.000000
 20
29.000000
 10
5.000000
 20
29.000000
  0
LWPOLYLINE
  8
L1_Components
420
12088115
 90
4
 70
1
 10
15.000000
 20
25.000000
 10
23.000000
 20
25.000000
 10
23.000000
 20
29.000000
 10
15.000000
 20
29.000000
  0
LWPOLYLINE
  8
L1_Components
420
12088115
 90
4
 70
1
 10
25.000000
 20
25.000000
 10
33.000000
 20
25.000000
 10
33.000000
 20
29.000000
 10
25.000000
 20
29.000000
  0
LWPOLYLINE
  8
L1_Components
420
12088115
 90
4
 70
1
 10
35.000000
 20
25.000000
 10
43.000000
 20
25.000000
 10
43.000000
 20
29.000000
 10
35.000000
 20
29.000000
  0
LWPOLYLINE
  8
L1_Components
420
12088115
 90
4
 70
1
 10
45.000000
 20
25.000000
 10
53.000000
 20
25.000000
 10
53.000000
 20
29.000000
 10
45.000000
 20
29.000000
  0
LWPOLYLINE
  8
L1_Components
420
12088115
 90
4
 70
1
 10
55.000000
 20
25.000000
 10
63.000000
 20
25.000000
 10
63.000000
 20
29.000000
 10
55.000000
 20
29.000000
  0
LWPOLYLINE
  8
L1_Components
420
12088115
 90
4
 70
1
 10
65.000000
 20
25.000000
 10
73.000000
 20
25.000000
 10
73.000000
 20
29.000000
 10
65.000000
 20
29.000000
  0
LWPOLYLINE
  8
L1_Components
420
12088115
 90
4
 70
1
 10
75.000000
 20
25.000000
 10
83.000000
 20
25.000000
 10
83.000000
 20
29.000000
 10
75.000000
 20
29.000000
  0
LWPOLYLINE
  8
L1_Components
420
12088115
 90
4
 70
1
 10
5.000000
 20
20.000000
 10
13.000000
 20
20.000000
 10
13.000000
 20
24.000000
 10
5.000000
 20
24.000000
  0
LWPOLYLINE
  8
L1_Components
420
12088115
 90
4
 70
1
 10
15.000000
 20
20.000000
 10
23.000000
 20
20.000000
 10
23.000000
 20
24.000000
 10
15.000000
 20
24.000000
  0
LWPOLYLINE
  8
L1_Components
420
12088115
 90
4
 70
1
 10
25.000000
 20
20.000000
 10
33.000000
 20
20.000000
 10
33.000000
 20
24.000000
 10
25.000000
 20
24.000000
  0
LWPOLYLINE
  8
L1_Components
420
12088115
 90
4
 70
1
 10
35.000000
 20
20.000000
 10
43.000000
 20
20.000000
 10
43.000000
 20
24.000000
 10
35.000000
 20
24.000000
  0
LWPOLYLINE
  8
L1_Components
420
12088115
 90
4
 70
1
 10
45.000000
 20
20.000000
 10
53.000000
 20
20.000000
 10
53.000000
 20
24.000000
 10
45.000000
 20
24.000000
  0
LWPOLYLINE
  8
L1_Components
420
12088115
 90
4
 70
1
 10
55.000000
 20
20.000000
 10
63.000000
 20
20.000000
 10
63.000000
 20
24.000000
 10
55.000000
 20
24.000000
  0
LWPOLYLINE
  8
L1_Components
420
12088115
 90
4
 70
1
 10
65.000000
 20
20.000000
 10
73.000000
 20
20.000000
 10
73.000000
 20
24.000000
 10
65.000000
 20
24.000000
  0
LWPOLYLINE
  8
L1_Components
420
12088115
 90
4
 70
1
 10
75.000000
 20
20.000000
 10
83.000000
 20
20.000000
 10
83.000000
 20
24.000000
 10
75.000000
 20
24.000000
  0
LWPOLYLINE
  8
L1_Components
420
12088115
 90
4
 70
1
 10
5.000000
 20
15.000000
 10
13.000000
 20
15.000000
 10
13.000000
 20
19.000000
 10
5.000000
 20
19.000000
  0
LWPOLYLINE
  8
L1_Components
420
12088115
 90
4
 70
1
 10
15.000000
 20
15.000000
 10
23.000000
 20
15.000000
 10
23.000000
 20
19.000000
 10
15.000000
 20
19.000000
  0
LWPOLYLINE
  8
L1_Components
420
12088115
 90
4
 70
1
 10
25.000000
 20
15.000000
 10
33.000000
 20
15.000000
 10
33.000000
 20
19.000000
 10
25.000000
 20
19.000000
  0
LWPOLYLINE
  8
L1_Components
420
12088115
 90
4
 70
1
 10
35.000000
 20
15.000000
 10
43.000000
 20
15.000000
 10
43.000000
 20
19.000000
 10
35.000000
 20
19.000000
  0
LWPOLYLINE
  8
L1_Components
420
12088115
 90
4
 70
1
 10
45.000000
 20
15.000000
 10
53.000000
 20
15.000000
 10
53.000000
 20
19.000000
 10
45.000000
 20
19.000000
  0
LWPOLYLINE
  8
L1_Components
420
12088115
 90
4
 70
1
 10
55.000000
 20
15.000000
 10
63.000000
 20
15.000000
 10
63.000000
 20
19.000000
 10
55.000000
 20
19.000000
  0
LWPOLYLINE
  8
L1_Components
420
12088115
 90
4
 70
1
 10
65.000000
 20
15.000000
 10
73.000000
 20
15.000000
 10
73.000000
 20
19.000000
 10
65.000000
 20
19.000000
  0
LWPOLYLINE
  8
L1_Components
420
12088115
 90
4
 70
1
 10
75.000000
 20
15.000000
 10
83.000000
 20
15.000000
 10
83.000000
 20
19.000000
 10
75.000000
 20
19.000000
  0
LWPOLYLINE
  8
L1_Components
420
12088115
 90
4
 70
1
 10
5.000000
 20
10.000000
 10
13.000000
 20
10.000000
 10
13.000000
 20
14.000000
 10
5.000000
 20
14.000000
  0
LWPOLYLINE
  8
L1_Components
420
12088115
 90
4
 70
1
 10
15.000000
 20
10.000000
 10
23.000000
 20
10.000000
 10
23.000000
 20
14.000000
 10
15.000000
 20
14.000000
  0
LWPOLYLINE
  8
L1_Components
420
12088115
 90
4
 70
1
 10
25.000000
 20
10.000000
 10
33.000000
 20
10.000000
 10
33.000000
 20
14.000000
 10
25.000000
 20
14.000000
  0
LWPOLYLINE
  8
L1_Components
420
12088115
 90
4
 70
1
 10
35.000000
 20
10.000000
 10
43.000000
 20
10.000000
 10
43.000000
 20
14.000000
 10
35.000000
 20
14.000000
  0
LWPOLYLINE
  8
L1_Components
420
12088115
 90
4
 70
1
 10
45.000000
 20
10.000000
 10
53.000000
 20
10.000000
 10
53.000000
 20
14.000000
 10
45.000000
 20
14.000000
  0
LWPOLYLINE
  8
L1_Components
420
12088115
 90
4
 70
1
 10
55.000000
 20
10.000000
 10
63.000000
 20
10.000000
 10
63.000000
 20
14.000000
 10
55.000000
 20
14.000000
  0
LWPOLYLINE
  8
L1_Components
420
12088115
 90
4
 70
1
 10
65.000000
 20
10.000000
 10
73.000000
 20
10.000000
 10
73.000000
 20
14.000000
 10
65.000000
 20
14.000000
  0
LWPOLYLINE
  8
L1_Components
420
12088115
 90
4
 70
1
 10
75.000000
 20
10.000000
 10
83.000000
 20
10.000000
 10
83.000000
 20
14.000000
 10
75.000000
 20
14.000000
  0
LWPOLYLINE
  8
L1_Components
420
12088115
 90
4
 70
1
 10
5.000000
 20
5.000000
 10
13.000000
 20
5.000000
 10
13.000000
 20
9.000000
 10
5.000000
 20
9.000000
  0
LWPOLYLINE
  8
L1_Components
420
12088115
 90
4
 70
1
 10
15.000000
 20
5.000000
 10
23.000000
 20
5.000000
 10
23.000000
 20
9.000000
 10
15.000000
 20
9.000000
  0
LWPOLYLINE
  8
L1_Components
420
12088115
 90
4
 70
1
 10
25.000000
 20
5.000000
 10
33.000000
 20
5.000000
 10
33.000000
 20
9.000000
 10
25.000000
 20
9.000000
  0
LWPOLYLINE
  8
L1_Components
420
12088115
 90
4
 70
1
 10
35.000000
 20
5.000000
 10
43.000000
 20
5.000000
 10
43.000000
 20
9.000000
 10
35.000000
 20
9.000000
  0
LWPOLYLINE
  8
L1_Components
420
12088115
 90
4
 70
1
 10
45.000000
 20
5.000000
 10
53.000000
 20
5.000000
 10
53.000000
 20
9.000000
 10
45.000000
 20
9.000000
  0
LWPOLYLINE
  8
L1_Components
420
12088115
 90
4
 70
1
 10
55.000000
 20
5.000000
 10
63.000000
 20
5.000000
 10
63.000000
 20
9.000000
 10
55.000000
 20
9.000000
  0
LWPOLYLINE
  8
L1_Components
420
12088115
 90
4
 70
1
 10
65.000000
 20
5.000000
 10
73.000000
 20
5.000000
 10
73.000000
 20
9.000000
 10
65.000000
 20
9.000000
  0
LWPOLYLINE
  8
L1_Components
420
12088115
 90
4
 70
1
 10
75.000000
 20
5.000000
 10
83.000000
 20
5.000000
 10
83.000000
 20
9.000000
 10
75.000000
 20
9.000000
  0
LWPOLYLINE
  8
L1_Components
420
12088115
 90
4
 70
1
 10
5.000000
 20
0.000000
 10
13.000000
 20
0.000000
 10
13.000000
 20
4.000000
 10
5.000000
 20
4.000000
  0
LWPOLYLINE
  8
L1_Components
420
12088115
 90
4
 70
1
 10
15.000000
 20
0.000000
 10
23.000000
 20
0.000000
 10
23.000000
 20
4.000000
 10
15.000000
 20
4.000000
  0
LWPOLYLINE
  8
L1_Components
420
12088115
 90
4
 70
1
 10
25.000000
 20
0.000000
 10
33.000000
 20
0.000000
 10
33.000000
 20
4.000000
 10
25.000000
 20
4.000000
  0
LWPOLYLINE
  8
L1_Components
420
12088115
 90
4
 70
1
 10
35.000000
 20
0.000000
 10
43.000000
 20
0.000000
 10
43.000000
 20
4.000000
 10
35.000000
 20
4.000000
  0
LWPOLYLINE
  8
L1_Components
420
12088115
 90
4
 70
1
 10
45.000000
 20
0.000000
 10
53.000000
 20
0.000000
 10
53.000000
 20
4.000000
 10
45.000000
 20
4.000000
  0
LWPOLYLINE
  8
L1_Components
420
12088115
 90
4
 70
1
 10
55.000000
 20
0.000000
 10
63.000000
 20
0.000000
 10
63.000000
 20
4.000000
 10
55.000000
 20
4.000000
  0
LWPOLYLINE
  8
L1_Components
420
12088115
 90
4
 70
1
 10
65.000000
 20
0.000000
 10
73.000000
 20
0.000000
 10
73.000000
 20
4.000000
 10
65.000000
 20
4.000000
  0
LWPOLYLINE
  8
L1_Components
420
12088115
 90
4
 70
1
 10
75.000000
 20
0.000000
 10
83.000000
 20
0.000000
 10
83.000000
 20
4.000000
 10
75.000000
 20
4.000000
  0
ENDSEC
  0
EOF
