  0
SECTION
  2
HEADER
  9
$ACADVER
  1
AC1018
  0
ENDSEC
  0
SECTION
  2
TABLES
  0
TABLE
  2
LAYER
  0
LAYER
  2
L_Silicon_P
 70
0
 62
7
420
16758465
440
33554432
  0
ENDTAB
  0
ENDSEC
  0
SECTION
  2
ENTITIES
  0
LWPOLYLINE
  8
L0_Silicon_P
420
16758465
 90
4
 70
1
 10
0.000000
 20
0.000000
 10
1.000000
 20
0.000000
 10
1.000000
 20
1.000000
 10
0.000000
 20
1.000000
  0
LWPOLYLINE
  8
L0_Components
420
12088115
 90
4
 70
1
 10
0.100000
 20
0.900000
 10
0.110000
 20
0.900000
 10
0.110000
 20
0.910000
 10
0.100000
 20
0.910000
  0
LWPOLYLINE
  8
L0_Components
420
12088115
 90
4
 70
1
 10
0.200000
 20
0.900000
 10
0.210000
 20
0.900000
 10
0.210000
 20
0.910000
 10
0.200000
 20
0.910000
  0
LWPOLYLINE
  8
L0_Components
420
12088115
 90
4
 70
1
 10
0.300000
 20
0.900000
 10
0.310000
 20
0.900000
 10
0.310000
 20
0.910000
 10
0.300000
 20
0.910000
  0
LWPOLYLINE
  8
L0_Components
420
12088115
 90
4
 70
1
 10
0.305000
 20
0.900000
 10
0.315000
 20
0.900000
 10
0.315000
 20
0.910000
 10
0.305000
 20
0.910000
  0
LWPOLYLINE
  8
L0_Components
420
12088115
 90
4
 70
1
 10
0.310000
 20
0.900000
 10
0.320000
 20
0.900000
 10
0.320000
 20
0.910000
 10
0.310000
 20
0.910000
  0
LWPOLYLINE
  8
L0_Components
420
12088115
 90
4
 70
1
 10
0.400000
 20
0.900000
 10
0.410000
 20
0.900000
 10
0.410000
 20
0.910000
 10
0.400000
 20
0.910000
  0
LWPOLYLINE
  8
L0_Components
420
12088115
 90
4
 70
1
 10
0.402000
 20
0.898000
 10
0.412000
 20
0.898000
 10
0.412000
 20
0.908000
 10
0.402000
 20
0.908000
  0
ENDSEC
  0
EOF
