  0
SECTION
  2
HEADER
  9
$ACADVER
  1
AC1018
  0
ENDSEC
  0
SECTION
  2
TABLES
  0
TABLE
  2
LAYER
  0
LAYER
  2
DRILL
 70
0
 62
0
  0
LAYER
  2
TOP_COMPONENTS
 70
0
 62
7
  0
LAYER
  2
BOTTOM_COMPONENTS
 70
0
 62
7
  0
LAYER
  2
PCB_LAYERS
 70
0
 62
7
  0
ENDTAB
  0
ENDSEC
  0
SECTION
  2
ENTITIES
  0
LWPOLYLINE
  8
PCB_LAYERS
420
12088115
 90
4
 70
1
 10
19.000000
 20
19.000000
 10
16.000000
 20
19.000000
 10
16.000000
 20
17.000000
 10
19.000000
 20
17.000000
  0
LWPOLYLINE
  8
PCB_LAYERS
420
12088115
 90
4
 70
1
 10
16.450000
 20
10.600000
 10
15.550000
 20
10.600000
 10
15.550000
 20
9.400000
 10
16.450000
 20
9.400000
  0
LWPOLYLINE
  8
PCB_LAYERS
420
12088115
 90
4
 70
1
 10
4.000000
 20
19.000000
 10
1.000000
 20
19.000000
 10
1.000000
 20
17.000000
 10
4.000000
 20
17.000000
  0
LWPOLYLINE
  8
PCB_LAYERS
420
12088115
 90
4
 70
1
 10
4.450000
 20
10.600000
 10
3.550000
 20
10.600000
 10
3.550000
 20
9.400000
 10
4.450000
 20
9.400000
  0
LWPOLYLINE
  8
PCB_LAYERS
420
12088115
 90
13
 70
1
 10
4.050000
 20
10.100000
 10
3.900000
 20
10.100000
 10
2.600000
 20
10.100000
 10
2.600000
 20
17.900000
 10
2.600000
 20
18.050000
 10
2.450000
 20
18.050000
 10
2.450000
 20
17.900000
 10
2.500000
 20
17.900000
 10
2.500000
 20
10.000000
 10
2.600000
 20
10.000000
 10
3.900000
 20
10.000000
 10
3.900000
 20
9.950000
 10
4.050000
 20
9.950000
  0
LWPOLYLINE
  8
PCB_LAYERS
420
12088115
 90
12
 70
1
 10
16.100000
 20
10.100000
 10
16.100000
 20
18.000000
 10
17.400000
 20
18.000000
 10
17.400000
 20
17.950000
 10
17.550000
 20
17.950000
 10
17.550000
 20
18.100000
 10
17.400000
 20
18.100000
 10
16.000000
 20
18.100000
 10
16.000000
 20
10.200000
 10
15.950000
 20
10.200000
 10
15.950000
 20
9.950000
 10
16.100000
 20
9.950000
  0
LWPOLYLINE
  8
PCB_LAYERS
420
12088115
 90
10
 70
1
 10
6.600000
 20
10.000000
 10
13.400000
 20
10.000000
 10
13.400000
 20
9.950000
 10
13.600000
 20
9.950000
 10
13.600000
 20
10.100000
 10
13.400000
 20
10.100000
 10
6.500000
 20
10.100000
 10
6.400000
 20
10.100000
 10
6.400000
 20
9.950000
 10
6.600000
 20
9.950000
  0
LWPOLYLINE
  8
PCB_LAYERS
420
12088115
 90
4
 70
1
 10
6.450000
 20
10.600000
 10
5.550000
 20
10.600000
 10
5.550000
 20
9.400000
 10
6.450000
 20
9.400000
  0
LWPOLYLINE
  8
PCB_LAYERS
420
12088115
 90
4
 70
1
 10
14.450000
 20
10.600000
 10
13.550000
 20
10.600000
 10
13.550000
 20
9.400000
 10
14.450000
 20
9.400000
  0
LWPOLYLINE
  8
PCB_LAYERS
420
3046706
 90
4
 70
1
 10
0.000000
 20
0.000000
 10
20.000000
 20
0.000000
 10
20.000000
 20
20.000000
 10
0.000000
 20
20.000000
  0
ENDSEC
  0
EOF
