  0
SECTION
  2
HEADER
  9
$ACADVER
  1
AC1018
  0
ENDSEC
  0
SECTION
  2
TABLES
  0
TABLE
  2
LAYER
  0
LAYER
  2
L_Copper
 70
0
 62
7
420
12088115
440
33554432
  0
LAYER
  2
L_FR4
 70
0
 62
7
420
3046706
440
33554559
  0
ENDTAB
  0
ENDSEC
  0
SECTION
  2
ENTITIES
  0
LWPOLYLINE
  8
L0_Copper
420
12088115
 90
4
 70
1
 10
0.000000
 20
0.000000
 10
5.000000
 20
0.000000
 10
5.000000
 20
5.000000
 10
0.000000
 20
5.000000
  0
CIRCLE
  8
L0_Copper
 62
0
 10
2.500000
 20
2.500000
 40
0.150000
  0
LWPOLYLINE
  8
L0_FR4
420
3046706
 90
4
 70
1
 10
0.000000
 20
0.000000
 10
5.000000
 20
0.000000
 10
5.000000
 20
5.000000
 10
0.000000
 20
5.000000
  0
CIRCLE
  8
L0_FR4
 62
0
 10
2.500000
 20
2.500000
 40
0.150000
  0
LWPOLYLINE
  8
L1_Copper
420
12088115
 90
4
 70
1
 10
0.000000
 20
0.000000
 10
5.000000
 20
0.000000
 10
5.000000
 20
5.000000
 10
0.000000
 20
5.000000
  0
CIRCLE
  8
L1_Copper
 62
0
 10
2.500000
 20
2.500000
 40
0.150000
  0
LWPOLYLINE
  8
L0_Copper
420
12088115
 90
4
 70
1
 10
2.200000
 20
2.200000
 10
2.800000
 20
2.200000
 10
2.800000
 20
2.800000
 10
2.200000
 20
2.800000
  0
CIRCLE
  8
L0_Copper
 62
0
 10
2.500000
 20
2.500000
 40
0.150000
  0
LWPOLYLINE
  8
L1_Copper
420
12088115
 90
4
 70
1
 10
2.200000
 20
2.200000
 10
2.800000
 20
2.200000
 10
2.800000
 20
2.800000
 10
2.200000
 20
2.800000
  0
CIRCLE
  8
L1_Copper
 62
0
 10
2.500000
 20
2.500000
 40
0.150000
  0
LWPOLYLINE
  8
L0_Copper
420
12088115
 90
4
 70
1
 10
2.350000
 20
2.350000
 10
2.650000
 20
2.350000
 10
2.650000
 20
2.650000
 10
2.350000
 20
2.650000
  0
CIRCLE
  8
L0_Copper
 62
0
 10
2.500000
 20
2.500000
 40
0.150000
  0
ENDSEC
  0
EOF
