  0
SECTION
  2
HEADER
  9
$ACADVER
  1
AC1018
  0
ENDSEC
  0
SECTION
  2
TABLES
  0
TABLE
  2
LAYER
  0
LAYER
  2
L_TransFR4
 70
0
 62
7
420
2972199
440
33554674
  0
LAYER
  2
L_TransCopper
 70
0
 62
7
420
12088115
440
33554432
  0
LAYER
  2
L_TransSilver
 70
0
 62
7
420
12632256
440
33554661
  0
LAYER
  2
L_TransGold
 70
0
 62
7
420
16766720
440
33554661
  0
ENDTAB
  0
ENDSEC
  0
SECTION
  2
ENTITIES
  0
LWPOLYLINE
  8
Z0.0001mm_TransFR4
420
2972199
 90
4
 70
1
 10
0.000000
 20
0.000000
 10
20.000000
 20
0.000000
 10
20.000000
 20
20.000000
 10
0.000000
 20
20.000000
  0
LWPOLYLINE
  8
Z0.0006mm_TransCopper
420
12088115
 90
4
 70
1
 10
2.000000
 20
2.000000
 10
18.000000
 20
2.000000
 10
18.000000
 20
18.000000
 10
2.000000
 20
18.000000
  0
LWPOLYLINE
  8
Z0.0001mm_TransSilver
420
12632256
 90
4
 70
1
 10
2.000000
 20
2.000000
 10
18.000000
 20
2.000000
 10
18.000000
 20
18.000000
 10
2.000000
 20
18.000000
  0
LWPOLYLINE
  8
Z0.0003mm_TransGold
420
16766720
 90
4
 70
1
 10
2.000000
 20
2.000000
 10
18.000000
 20
2.000000
 10
18.000000
 20
18.000000
 10
2.000000
 20
18.000000
  0
LWPOLYLINE
  8
Z0.0004mm_TransCopper
420
12088115
 90
4
 70
1
 10
9.850000
 20
9.850000
 10
10.150000
 20
9.850000
 10
10.150000
 20
10.150000
 10
9.850000
 20
10.150000
  0
LWPOLYLINE
  8
Z0.0004mm_TransCopper
420
12088115
 90
4
 70
1
 10
9.850000
 20
9.850000
 10
10.150000
 20
9.850000
 10
10.150000
 20
10.150000
 10
9.850000
 20
10.150000
  0
LWPOLYLINE
  8
Z0.0004mm_TransCopper
420
12088115
 90
4
 70
1
 10
9.850000
 20
9.850000
 10
10.150000
 20
9.850000
 10
10.150000
 20
10.150000
 10
9.850000
 20
10.150000
  0
LWPOLYLINE
  8
Z0.0004mm_TransCopper
420
12088115
 90
4
 70
1
 10
9.850000
 20
9.850000
 10
10.150000
 20
9.850000
 10
10.150000
 20
10.150000
 10
9.850000
 20
10.150000
  0
LWPOLYLINE
  8
Z0.0004mm_TransCopper
420
12088115
 90
4
 70
1
 10
9.850000
 20
9.850000
 10
10.150000
 20
9.850000
 10
10.150000
 20
10.150000
 10
9.850000
 20
10.150000
  0
LWPOLYLINE
  8
Z0.0004mm_TransCopper
420
12088115
 90
4
 70
1
 10
9.850000
 20
9.850000
 10
10.150000
 20
9.850000
 10
10.150000
 20
10.150000
 10
9.850000
 20
10.150000
  0
LWPOLYLINE
  8
Z0.0004mm_TransCopper
420
12088115
 90
4
 70
1
 10
9.850000
 20
9.850000
 10
10.150000
 20
9.850000
 10
10.150000
 20
10.150000
 10
9.850000
 20
10.150000
  0
LWPOLYLINE
  8
Z0.0004mm_TransCopper
420
12088115
 90
4
 70
1
 10
9.850000
 20
9.850000
 10
10.150000
 20
9.850000
 10
10.150000
 20
10.150000
 10
9.850000
 20
10.150000
  0
LWPOLYLINE
  8
Z0.0004mm_TransCopper
420
12088115
 90
4
 70
1
 10
9.850000
 20
9.850000
 10
10.150000
 20
9.850000
 10
10.150000
 20
10.150000
 10
9.850000
 20
10.150000
  0
LWPOLYLINE
  8
Z0.0003mm_TransCopper
420
12088115
 90
4
 70
1
 10
9.850000
 20
9.850000
 10
10.150000
 20
9.850000
 10
10.150000
 20
10.150000
 10
9.850000
 20
10.150000
  0
LWPOLYLINE
  8
Z0.0003mm_TransCopper
420
12088115
 90
4
 70
1
 10
9.850000
 20
9.850000
 10
10.150000
 20
9.850000
 10
10.150000
 20
10.150000
 10
9.850000
 20
10.150000
  0
ENDSEC
  0
EOF
