  0
SECTION
  2
HEADER
  9
$ACADVER
  1
AC1018
  0
ENDSEC
  0
SECTION
  2
TABLES
  0
TABLE
  2
LAYER
  0
LAYER
  2
DRILL
 70
0
 62
0
  0
LAYER
  2
TOP_COMPONENTS
 70
0
 62
7
  0
LAYER
  2
BOTTOM_COMPONENTS
 70
0
 62
7
  0
LAYER
  2
PCB_LAYERS
 70
0
 62
7
  0
ENDTAB
  0
ENDSEC
  0
SECTION
  2
ENTITIES
  0
LWPOLYLINE
  8
PCB_LAYERS
420
12088115
 90
4
 70
1
 10
3.500000
 20
5.500000
 10
2.500000
 20
5.500000
 10
2.500000
 20
4.500000
 10
3.500000
 20
4.500000
  0
LWPOLYLINE
  8
PCB_LAYERS
420
12088115
 90
64
 70
1
 10
17.029405
 20
4.701445
 10
17.058527
 20
4.705765
 10
17.087085
 20
4.712918
 10
17.114805
 20
4.722837
 10
17.141419
 20
4.735424
 10
17.166671
 20
4.750560
 10
17.190317
 20
4.768097
 10
17.212132
 20
4.787868
 10
17.231903
 20
4.809683
 10
17.249440
 20
4.833329
 10
17.264576
 20
4.858581
 10
17.277163
 20
4.885195
 10
17.287082
 20
4.912915
 10
17.294235
 20
4.941473
 10
17.298555
 20
4.970595
 10
17.300000
 20
5.000000
 10
17.298555
 20
5.029405
 10
17.294235
 20
5.058527
 10
17.287082
 20
5.087085
 10
17.277163
 20
5.114805
 10
17.264576
 20
5.141419
 10
17.249440
 20
5.166671
 10
17.231903
 20
5.190317
 10
17.212132
 20
5.212132
 10
17.190317
 20
5.231903
 10
17.166671
 20
5.249440
 10
17.141419
 20
5.264576
 10
17.114805
 20
5.277163
 10
17.087085
 20
5.287082
 10
17.058527
 20
5.294235
 10
17.029405
 20
5.298555
 10
17.000000
 20
5.300000
 10
16.970595
 20
5.298555
 10
16.941473
 20
5.294235
 10
16.912915
 20
5.287082
 10
16.885195
 20
5.277163
 10
16.858581
 20
5.264576
 10
16.833329
 20
5.249440
 10
16.809683
 20
5.231903
 10
16.787868
 20
5.212132
 10
16.768097
 20
5.190317
 10
16.750560
 20
5.166671
 10
16.735424
 20
5.141419
 10
16.722837
 20
5.114805
 10
16.712918
 20
5.087085
 10
16.705765
 20
5.058527
 10
16.701445
 20
5.029405
 10
16.700000
 20
5.000000
 10
16.701445
 20
4.970595
 10
16.705765
 20
4.941473
 10
16.712918
 20
4.912915
 10
16.722837
 20
4.885195
 10
16.735424
 20
4.858581
 10
16.750560
 20
4.833329
 10
16.768097
 20
4.809683
 10
16.787868
 20
4.787868
 10
16.809683
 20
4.768097
 10
16.833329
 20
4.750560
 10
16.858581
 20
4.735424
 10
16.885195
 20
4.722837
 10
16.912915
 20
4.712918
 10
16.941473
 20
4.705765
 10
16.970595
 20
4.701445
 10
17.000000
 20
4.700000
  0
LWPOLYLINE
  8
PCB_LAYERS
420
12088115
 90
64
 70
1
 10
16.987748
 20
4.875602
 10
16.975614
 20
4.877402
 10
16.963715
 20
4.880383
 10
16.952165
 20
4.884516
 10
16.941076
 20
4.889760
 10
16.930554
 20
4.896067
 10
16.920701
 20
4.903374
 10
16.911612
 20
4.911612
 10
16.903374
 20
4.920701
 10
16.896067
 20
4.930554
 10
16.889760
 20
4.941076
 10
16.884516
 20
4.952165
 10
16.880383
 20
4.963715
 10
16.877402
 20
4.975614
 10
16.875602
 20
4.987748
 10
16.875000
 20
5.000000
 10
16.875602
 20
5.012252
 10
16.877402
 20
5.024386
 10
16.880383
 20
5.036285
 10
16.884516
 20
5.047835
 10
16.889760
 20
5.058924
 10
16.896067
 20
5.069446
 10
16.903374
 20
5.079299
 10
16.911612
 20
5.088388
 10
16.920701
 20
5.096626
 10
16.930554
 20
5.103933
 10
16.941076
 20
5.110240
 10
16.952165
 20
5.115484
 10
16.963715
 20
5.119617
 10
16.975614
 20
5.122598
 10
16.987748
 20
5.124398
 10
17.000000
 20
5.125000
 10
17.012252
 20
5.124398
 10
17.024386
 20
5.122598
 10
17.036285
 20
5.119617
 10
17.047835
 20
5.115484
 10
17.058924
 20
5.110240
 10
17.069446
 20
5.103933
 10
17.079299
 20
5.096626
 10
17.088388
 20
5.088388
 10
17.096626
 20
5.079299
 10
17.103933
 20
5.069446
 10
17.110240
 20
5.058924
 10
17.115484
 20
5.047835
 10
17.119617
 20
5.036285
 10
17.122598
 20
5.024386
 10
17.124398
 20
5.012252
 10
17.125000
 20
5.000000
 10
17.124398
 20
4.987748
 10
17.122598
 20
4.975614
 10
17.119617
 20
4.963715
 10
17.115484
 20
4.952165
 10
17.110240
 20
4.941076
 10
17.103933
 20
4.930554
 10
17.096626
 20
4.920701
 10
17.088388
 20
4.911612
 10
17.079299
 20
4.903374
 10
17.069446
 20
4.896067
 10
17.058924
 20
4.889760
 10
17.047835
 20
4.884516
 10
17.036285
 20
4.880383
 10
17.024386
 20
4.877402
 10
17.012252
 20
4.875602
 10
17.000000
 20
4.875000
  0
LWPOLYLINE
  8
PCB_LAYERS
420
12088115
 90
4
 70
1
 10
17.300000
 20
5.300000
 10
3.200000
 20
5.300000
 10
3.200000
 20
5.200000
 10
17.300000
 20
5.200000
  0
LWPOLYLINE
  8
PCB_LAYERS
420
12088115
 90
64
 70
1
 10
17.029405
 20
4.701445
 10
17.058527
 20
4.705765
 10
17.087085
 20
4.712918
 10
17.114805
 20
4.722837
 10
17.141419
 20
4.735424
 10
17.166671
 20
4.750560
 10
17.190317
 20
4.768097
 10
17.212132
 20
4.787868
 10
17.231903
 20
4.809683
 10
17.249440
 20
4.833329
 10
17.264576
 20
4.858581
 10
17.277163
 20
4.885195
 10
17.287082
 20
4.912915
 10
17.294235
 20
4.941473
 10
17.298555
 20
4.970595
 10
17.300000
 20
5.000000
 10
17.298555
 20
5.029405
 10
17.294235
 20
5.058527
 10
17.287082
 20
5.087085
 10
17.277163
 20
5.114805
 10
17.264576
 20
5.141419
 10
17.249440
 20
5.166671
 10
17.231903
 20
5.190317
 10
17.212132
 20
5.212132
 10
17.190317
 20
5.231903
 10
17.166671
 20
5.249440
 10
17.141419
 20
5.264576
 10
17.114805
 20
5.277163
 10
17.087085
 20
5.287082
 10
17.058527
 20
5.294235
 10
17.029405
 20
5.298555
 10
17.000000
 20
5.300000
 10
16.970595
 20
5.298555
 10
16.941473
 20
5.294235
 10
16.912915
 20
5.287082
 10
16.885195
 20
5.277163
 10
16.858581
 20
5.264576
 10
16.833329
 20
5.249440
 10
16.809683
 20
5.231903
 10
16.787868
 20
5.212132
 10
16.768097
 20
5.190317
 10
16.750560
 20
5.166671
 10
16.735424
 20
5.141419
 10
16.722837
 20
5.114805
 10
16.712918
 20
5.087085
 10
16.705765
 20
5.058527
 10
16.701445
 20
5.029405
 10
16.700000
 20
5.000000
 10
16.701445
 20
4.970595
 10
16.705765
 20
4.941473
 10
16.712918
 20
4.912915
 10
16.722837
 20
4.885195
 10
16.735424
 20
4.858581
 10
16.750560
 20
4.833329
 10
16.768097
 20
4.809683
 10
16.787868
 20
4.787868
 10
16.809683
 20
4.768097
 10
16.833329
 20
4.750560
 10
16.858581
 20
4.735424
 10
16.885195
 20
4.722837
 10
16.912915
 20
4.712918
 10
16.941473
 20
4.705765
 10
16.970595
 20
4.701445
 10
17.000000
 20
4.700000
  0
LWPOLYLINE
  8
PCB_LAYERS
420
12088115
 90
64
 70
1
 10
16.987748
 20
4.875602
 10
16.975614
 20
4.877402
 10
16.963715
 20
4.880383
 10
16.952165
 20
4.884516
 10
16.941076
 20
4.889760
 10
16.930554
 20
4.896067
 10
16.920701
 20
4.903374
 10
16.911612
 20
4.911612
 10
16.903374
 20
4.920701
 10
16.896067
 20
4.930554
 10
16.889760
 20
4.941076
 10
16.884516
 20
4.952165
 10
16.880383
 20
4.963715
 10
16.877402
 20
4.975614
 10
16.875602
 20
4.987748
 10
16.875000
 20
5.000000
 10
16.875602
 20
5.012252
 10
16.877402
 20
5.024386
 10
16.880383
 20
5.036285
 10
16.884516
 20
5.047835
 10
16.889760
 20
5.058924
 10
16.896067
 20
5.069446
 10
16.903374
 20
5.079299
 10
16.911612
 20
5.088388
 10
16.920701
 20
5.096626
 10
16.930554
 20
5.103933
 10
16.941076
 20
5.110240
 10
16.952165
 20
5.115484
 10
16.963715
 20
5.119617
 10
16.975614
 20
5.122598
 10
16.987748
 20
5.124398
 10
17.000000
 20
5.125000
 10
17.012252
 20
5.124398
 10
17.024386
 20
5.122598
 10
17.036285
 20
5.119617
 10
17.047835
 20
5.115484
 10
17.058924
 20
5.110240
 10
17.069446
 20
5.103933
 10
17.079299
 20
5.096626
 10
17.088388
 20
5.088388
 10
17.096626
 20
5.079299
 10
17.103933
 20
5.069446
 10
17.110240
 20
5.058924
 10
17.115484
 20
5.047835
 10
17.119617
 20
5.036285
 10
17.122598
 20
5.024386
 10
17.124398
 20
5.012252
 10
17.125000
 20
5.000000
 10
17.124398
 20
4.987748
 10
17.122598
 20
4.975614
 10
17.119617
 20
4.963715
 10
17.115484
 20
4.952165
 10
17.110240
 20
4.941076
 10
17.103933
 20
4.930554
 10
17.096626
 20
4.920701
 10
17.088388
 20
4.911612
 10
17.079299
 20
4.903374
 10
17.069446
 20
4.896067
 10
17.058924
 20
4.889760
 10
17.047835
 20
4.884516
 10
17.036285
 20
4.880383
 10
17.024386
 20
4.877402
 10
17.012252
 20
4.875602
 10
17.000000
 20
4.875000
  0
LWPOLYLINE
  8
PCB_LAYERS
420
12088115
 90
4
 70
1
 10
3.000000
 20
5.000000
 10
3.500000
 20
5.000000
 10
3.500000
 20
5.500000
 10
3.000000
 20
5.500000
  0
LWPOLYLINE
  8
PCB_LAYERS
420
12088115
 90
4
 70
1
 10
17.000000
 20
5.000000
 10
17.500000
 20
5.000000
 10
17.500000
 20
5.500000
 10
17.000000
 20
5.500000
  0
LWPOLYLINE
  8
PCB_LAYERS
420
12088115
 90
4
 70
1
 10
3.000000
 20
5.000000
 10
3.500000
 20
5.000000
 10
3.500000
 20
5.500000
 10
3.000000
 20
5.500000
  0
LWPOLYLINE
  8
PCB_LAYERS
420
12088115
 90
4
 70
1
 10
3.000000
 20
5.000000
 10
3.500000
 20
5.000000
 10
3.500000
 20
5.500000
 10
3.000000
 20
5.500000
  0
LWPOLYLINE
  8
PCB_LAYERS
420
12088115
 90
4
 70
1
 10
17.000000
 20
5.000000
 10
17.500000
 20
5.000000
 10
17.500000
 20
5.500000
 10
17.000000
 20
5.500000
  0
LWPOLYLINE
  8
PCB_LAYERS
420
12088115
 90
4
 70
1
 10
17.000000
 20
5.000000
 10
17.500000
 20
5.000000
 10
17.500000
 20
5.500000
 10
17.000000
 20
5.500000
  0
ENDSEC
  0
EOF
