  0
SECTION
  2
HEADER
  9
$ACADVER
  1
AC1018
  0
ENDSEC
  0
SECTION
  2
TABLES
  0
TABLE
  2
LAYER
  0
LAYER
  2
DRILL
 70
0
 62
0
  0
LAYER
  2
TOP_COMPONENTS
 70
0
 62
7
  0
LAYER
  2
BOTTOM_COMPONENTS
 70
0
 62
7
  0
LAYER
  2
PCB_LAYERS
 70
0
 62
7
  0
ENDTAB
  0
ENDSEC
  0
SECTION
  2
ENTITIES
  0
LWPOLYLINE
  8
PCB_LAYERS
420
12088115
 90
64
 70
1
 10
10.034305
 20
13.651686
 10
10.068281
 20
13.656726
 10
10.101599
 20
13.665071
 10
10.133939
 20
13.676643
 10
10.164988
 20
13.691328
 10
10.194449
 20
13.708986
 10
10.222037
 20
13.729447
 10
10.247487
 20
13.752513
 10
10.270553
 20
13.777963
 10
10.291014
 20
13.805551
 10
10.308672
 20
13.835012
 10
10.323357
 20
13.866061
 10
10.334929
 20
13.898401
 10
10.343274
 20
13.931719
 10
10.348314
 20
13.965695
 10
10.350000
 20
14.000000
 10
10.348314
 20
14.034305
 10
10.343274
 20
14.068281
 10
10.334929
 20
14.101599
 10
10.323357
 20
14.133939
 10
10.308672
 20
14.164988
 10
10.291014
 20
14.194449
 10
10.270553
 20
14.222037
 10
10.247487
 20
14.247487
 10
10.222037
 20
14.270553
 10
10.194449
 20
14.291014
 10
10.164988
 20
14.308672
 10
10.133939
 20
14.323357
 10
10.101599
 20
14.334929
 10
10.068281
 20
14.343274
 10
10.034305
 20
14.348314
 10
10.000000
 20
14.350000
 10
9.965695
 20
14.348314
 10
9.931719
 20
14.343274
 10
9.898401
 20
14.334929
 10
9.866061
 20
14.323357
 10
9.835012
 20
14.308672
 10
9.805551
 20
14.291014
 10
9.777963
 20
14.270553
 10
9.752513
 20
14.247487
 10
9.729447
 20
14.222037
 10
9.708986
 20
14.194449
 10
9.691328
 20
14.164988
 10
9.676643
 20
14.133939
 10
9.665071
 20
14.101599
 10
9.656726
 20
14.068281
 10
9.651686
 20
14.034305
 10
9.650000
 20
14.000000
 10
9.651686
 20
13.965695
 10
9.656726
 20
13.931719
 10
9.665071
 20
13.898401
 10
9.676643
 20
13.866061
 10
9.691328
 20
13.835012
 10
9.708986
 20
13.805551
 10
9.729447
 20
13.777963
 10
9.752513
 20
13.752513
 10
9.777963
 20
13.729447
 10
9.805551
 20
13.708986
 10
9.835012
 20
13.691328
 10
9.866061
 20
13.676643
 10
9.898401
 20
13.665071
 10
9.931719
 20
13.656726
 10
9.965695
 20
13.651686
 10
10.000000
 20
13.650000
  0
LWPOLYLINE
  8
PCB_LAYERS
420
12088115
 90
64
 70
1
 10
9.987748
 20
13.875602
 10
9.975614
 20
13.877402
 10
9.963715
 20
13.880383
 10
9.952165
 20
13.884516
 10
9.941076
 20
13.889760
 10
9.930554
 20
13.896067
 10
9.920701
 20
13.903374
 10
9.911612
 20
13.911612
 10
9.903374
 20
13.920701
 10
9.896067
 20
13.930554
 10
9.889760
 20
13.941076
 10
9.884516
 20
13.952165
 10
9.880383
 20
13.963715
 10
9.877402
 20
13.975614
 10
9.875602
 20
13.987748
 10
9.875000
 20
14.000000
 10
9.875602
 20
14.012252
 10
9.877402
 20
14.024386
 10
9.880383
 20
14.036285
 10
9.884516
 20
14.047835
 10
9.889760
 20
14.058924
 10
9.896067
 20
14.069446
 10
9.903374
 20
14.079299
 10
9.911612
 20
14.088388
 10
9.920701
 20
14.096626
 10
9.930554
 20
14.103933
 10
9.941076
 20
14.110240
 10
9.952165
 20
14.115484
 10
9.963715
 20
14.119617
 10
9.975614
 20
14.122598
 10
9.987748
 20
14.124398
 10
10.000000
 20
14.125000
 10
10.012252
 20
14.124398
 10
10.024386
 20
14.122598
 10
10.036285
 20
14.119617
 10
10.047835
 20
14.115484
 10
10.058924
 20
14.110240
 10
10.069446
 20
14.103933
 10
10.079299
 20
14.096626
 10
10.088388
 20
14.088388
 10
10.096626
 20
14.079299
 10
10.103933
 20
14.069446
 10
10.110240
 20
14.058924
 10
10.115484
 20
14.047835
 10
10.119617
 20
14.036285
 10
10.122598
 20
14.024386
 10
10.124398
 20
14.012252
 10
10.125000
 20
14.000000
 10
10.124398
 20
13.987748
 10
10.122598
 20
13.975614
 10
10.119617
 20
13.963715
 10
10.115484
 20
13.952165
 10
10.110240
 20
13.941076
 10
10.103933
 20
13.930554
 10
10.096626
 20
13.920701
 10
10.088388
 20
13.911612
 10
10.079299
 20
13.903374
 10
10.069446
 20
13.896067
 10
10.058924
 20
13.889760
 10
10.047835
 20
13.884516
 10
10.036285
 20
13.880383
 10
10.024386
 20
13.877402
 10
10.012252
 20
13.875602
 10
10.000000
 20
13.875000
  0
LWPOLYLINE
  8
PCB_LAYERS
420
12088115
 90
64
 70
1
 10
15.034305
 20
9.651686
 10
15.068281
 20
9.656726
 10
15.101599
 20
9.665071
 10
15.133939
 20
9.676643
 10
15.164988
 20
9.691328
 10
15.194449
 20
9.708986
 10
15.222037
 20
9.729447
 10
15.247487
 20
9.752513
 10
15.270553
 20
9.777963
 10
15.291014
 20
9.805551
 10
15.308672
 20
9.835012
 10
15.323357
 20
9.866061
 10
15.334929
 20
9.898401
 10
15.343274
 20
9.931719
 10
15.348314
 20
9.965695
 10
15.350000
 20
10.000000
 10
15.348314
 20
10.034305
 10
15.343274
 20
10.068281
 10
15.334929
 20
10.101599
 10
15.323357
 20
10.133939
 10
15.308672
 20
10.164988
 10
15.291014
 20
10.194449
 10
15.270553
 20
10.222037
 10
15.247487
 20
10.247487
 10
15.222037
 20
10.270553
 10
15.194449
 20
10.291014
 10
15.164988
 20
10.308672
 10
15.133939
 20
10.323357
 10
15.101599
 20
10.334929
 10
15.068281
 20
10.343274
 10
15.034305
 20
10.348314
 10
15.000000
 20
10.350000
 10
14.965695
 20
10.348314
 10
14.931719
 20
10.343274
 10
14.898401
 20
10.334929
 10
14.866061
 20
10.323357
 10
14.835012
 20
10.308672
 10
14.805551
 20
10.291014
 10
14.777963
 20
10.270553
 10
14.752513
 20
10.247487
 10
14.729447
 20
10.222037
 10
14.708986
 20
10.194449
 10
14.691328
 20
10.164988
 10
14.676643
 20
10.133939
 10
14.665071
 20
10.101599
 10
14.656726
 20
10.068281
 10
14.651686
 20
10.034305
 10
14.650000
 20
10.000000
 10
14.651686
 20
9.965695
 10
14.656726
 20
9.931719
 10
14.665071
 20
9.898401
 10
14.676643
 20
9.866061
 10
14.691328
 20
9.835012
 10
14.708986
 20
9.805551
 10
14.729447
 20
9.777963
 10
14.752513
 20
9.752513
 10
14.777963
 20
9.729447
 10
14.805551
 20
9.708986
 10
14.835012
 20
9.691328
 10
14.866061
 20
9.676643
 10
14.898401
 20
9.665071
 10
14.931719
 20
9.656726
 10
14.965695
 20
9.651686
 10
15.000000
 20
9.650000
  0
LWPOLYLINE
  8
PCB_LAYERS
420
12088115
 90
64
 70
1
 10
14.987748
 20
9.875602
 10
14.975614
 20
9.877402
 10
14.963715
 20
9.880383
 10
14.952165
 20
9.884516
 10
14.941076
 20
9.889760
 10
14.930554
 20
9.896067
 10
14.920701
 20
9.903374
 10
14.911612
 20
9.911612
 10
14.903374
 20
9.920701
 10
14.896067
 20
9.930554
 10
14.889760
 20
9.941076
 10
14.884516
 20
9.952165
 10
14.880383
 20
9.963715
 10
14.877402
 20
9.975614
 10
14.875602
 20
9.987748
 10
14.875000
 20
10.000000
 10
14.875602
 20
10.012252
 10
14.877402
 20
10.024386
 10
14.880383
 20
10.036285
 10
14.884516
 20
10.047835
 10
14.889760
 20
10.058924
 10
14.896067
 20
10.069446
 10
14.903374
 20
10.079299
 10
14.911612
 20
10.088388
 10
14.920701
 20
10.096626
 10
14.930554
 20
10.103933
 10
14.941076
 20
10.110240
 10
14.952165
 20
10.115484
 10
14.963715
 20
10.119617
 10
14.975614
 20
10.122598
 10
14.987748
 20
10.124398
 10
15.000000
 20
10.125000
 10
15.012252
 20
10.124398
 10
15.024386
 20
10.122598
 10
15.036285
 20
10.119617
 10
15.047835
 20
10.115484
 10
15.058924
 20
10.110240
 10
15.069446
 20
10.103933
 10
15.079299
 20
10.096626
 10
15.088388
 20
10.088388
 10
15.096626
 20
10.079299
 10
15.103933
 20
10.069446
 10
15.110240
 20
10.058924
 10
15.115484
 20
10.047835
 10
15.119617
 20
10.036285
 10
15.122598
 20
10.024386
 10
15.124398
 20
10.012252
 10
15.125000
 20
10.000000
 10
15.124398
 20
9.987748
 10
15.122598
 20
9.975614
 10
15.119617
 20
9.963715
 10
15.115484
 20
9.952165
 10
15.110240
 20
9.941076
 10
15.103933
 20
9.930554
 10
15.096626
 20
9.920701
 10
15.088388
 20
9.911612
 10
15.079299
 20
9.903374
 10
15.069446
 20
9.896067
 10
15.058924
 20
9.889760
 10
15.047835
 20
9.884516
 10
15.036285
 20
9.880383
 10
15.024386
 20
9.877402
 10
15.012252
 20
9.875602
 10
15.000000
 20
9.875000
  0
LWPOLYLINE
  8
PCB_LAYERS
420
12088115
 90
15
 70
1
 10
9.000000
 20
10.100000
 10
4.111563
 20
10.100000
 10
4.115951
 20
10.095158
 10
4.124720
 20
10.083335
 10
4.132288
 20
10.070709
 10
4.138581
 20
10.057402
 10
4.143541
 20
10.043542
 10
4.147117
 20
10.029263
 10
4.149277
 20
10.014702
 10
4.150000
 20
10.000000
 10
4.149277
 20
9.985298
 10
4.147117
 20
9.970737
 10
4.143541
 20
9.956458
 10
4.141230
 20
9.950000
 10
9.000000
 20
9.950000
  0
LWPOLYLINE
  8
PCB_LAYERS
420
12088115
 90
64
 70
1
 10
4.034305
 20
9.651686
 10
4.068281
 20
9.656726
 10
4.101599
 20
9.665071
 10
4.133939
 20
9.676643
 10
4.164988
 20
9.691328
 10
4.194449
 20
9.708986
 10
4.222037
 20
9.729447
 10
4.247487
 20
9.752513
 10
4.270553
 20
9.777963
 10
4.291014
 20
9.805551
 10
4.308672
 20
9.835012
 10
4.323357
 20
9.866061
 10
4.334929
 20
9.898401
 10
4.343274
 20
9.931719
 10
4.348314
 20
9.965695
 10
4.350000
 20
10.000000
 10
4.348314
 20
10.034305
 10
4.343274
 20
10.068281
 10
4.334929
 20
10.101599
 10
4.323357
 20
10.133939
 10
4.308672
 20
10.164988
 10
4.291014
 20
10.194449
 10
4.270553
 20
10.222037
 10
4.247487
 20
10.247487
 10
4.222037
 20
10.270553
 10
4.194449
 20
10.291014
 10
4.164988
 20
10.308672
 10
4.133939
 20
10.323357
 10
4.101599
 20
10.334929
 10
4.068281
 20
10.343274
 10
4.034305
 20
10.348314
 10
4.000000
 20
10.350000
 10
3.965695
 20
10.348314
 10
3.931719
 20
10.343274
 10
3.898401
 20
10.334929
 10
3.866061
 20
10.323357
 10
3.835012
 20
10.308672
 10
3.805551
 20
10.291014
 10
3.777963
 20
10.270553
 10
3.752513
 20
10.247487
 10
3.729447
 20
10.222037
 10
3.708986
 20
10.194449
 10
3.691328
 20
10.164988
 10
3.676643
 20
10.133939
 10
3.665071
 20
10.101599
 10
3.656726
 20
10.068281
 10
3.651686
 20
10.034305
 10
3.650000
 20
10.000000
 10
3.651686
 20
9.965695
 10
3.656726
 20
9.931719
 10
3.665071
 20
9.898401
 10
3.676643
 20
9.866061
 10
3.691328
 20
9.835012
 10
3.708986
 20
9.805551
 10
3.729447
 20
9.777963
 10
3.752513
 20
9.752513
 10
3.777963
 20
9.729447
 10
3.805551
 20
9.708986
 10
3.835012
 20
9.691328
 10
3.866061
 20
9.676643
 10
3.898401
 20
9.665071
 10
3.931719
 20
9.656726
 10
3.965695
 20
9.651686
 10
4.000000
 20
9.650000
  0
LWPOLYLINE
  8
PCB_LAYERS
420
12088115
 90
64
 70
1
 10
3.987748
 20
9.875602
 10
3.975614
 20
9.877402
 10
3.963715
 20
9.880383
 10
3.952165
 20
9.884516
 10
3.941076
 20
9.889760
 10
3.930554
 20
9.896067
 10
3.920701
 20
9.903374
 10
3.911612
 20
9.911612
 10
3.903374
 20
9.920701
 10
3.896067
 20
9.930554
 10
3.889760
 20
9.941076
 10
3.884516
 20
9.952165
 10
3.880383
 20
9.963715
 10
3.877402
 20
9.975614
 10
3.875602
 20
9.987748
 10
3.875000
 20
10.000000
 10
3.875602
 20
10.012252
 10
3.877402
 20
10.024386
 10
3.880383
 20
10.036285
 10
3.884516
 20
10.047835
 10
3.889760
 20
10.058924
 10
3.896067
 20
10.069446
 10
3.903374
 20
10.079299
 10
3.911612
 20
10.088388
 10
3.920701
 20
10.096626
 10
3.930554
 20
10.103933
 10
3.941076
 20
10.110240
 10
3.952165
 20
10.115484
 10
3.963715
 20
10.119617
 10
3.975614
 20
10.122598
 10
3.987748
 20
10.124398
 10
4.000000
 20
10.125000
 10
4.012252
 20
10.124398
 10
4.024386
 20
10.122598
 10
4.036285
 20
10.119617
 10
4.047835
 20
10.115484
 10
4.058924
 20
10.110240
 10
4.069446
 20
10.103933
 10
4.079299
 20
10.096626
 10
4.088388
 20
10.088388
 10
4.096626
 20
10.079299
 10
4.103933
 20
10.069446
 10
4.110240
 20
10.058924
 10
4.115484
 20
10.047835
 10
4.119617
 20
10.036285
 10
4.122598
 20
10.024386
 10
4.124398
 20
10.012252
 10
4.125000
 20
10.000000
 10
4.124398
 20
9.987748
 10
4.122598
 20
9.975614
 10
4.119617
 20
9.963715
 10
4.115484
 20
9.952165
 10
4.110240
 20
9.941076
 10
4.103933
 20
9.930554
 10
4.096626
 20
9.920701
 10
4.088388
 20
9.911612
 10
4.079299
 20
9.903374
 10
4.069446
 20
9.896067
 10
4.058924
 20
9.889760
 10
4.047835
 20
9.884516
 10
4.036285
 20
9.880383
 10
4.024386
 20
9.877402
 10
4.012252
 20
9.875602
 10
4.000000
 20
9.875000
  0
LWPOLYLINE
  8
PCB_LAYERS
420
12088115
 90
64
 70
1
 10
10.034305
 20
3.651686
 10
10.068281
 20
3.656726
 10
10.101599
 20
3.665071
 10
10.133939
 20
3.676643
 10
10.164988
 20
3.691328
 10
10.194449
 20
3.708986
 10
10.222037
 20
3.729447
 10
10.247487
 20
3.752513
 10
10.270553
 20
3.777963
 10
10.291014
 20
3.805551
 10
10.308672
 20
3.835012
 10
10.323357
 20
3.866061
 10
10.334929
 20
3.898401
 10
10.343274
 20
3.931719
 10
10.348314
 20
3.965695
 10
10.350000
 20
4.000000
 10
10.348314
 20
4.034305
 10
10.343274
 20
4.068281
 10
10.334929
 20
4.101599
 10
10.323357
 20
4.133939
 10
10.308672
 20
4.164988
 10
10.291014
 20
4.194449
 10
10.270553
 20
4.222037
 10
10.247487
 20
4.247487
 10
10.222037
 20
4.270553
 10
10.194449
 20
4.291014
 10
10.164988
 20
4.308672
 10
10.133939
 20
4.323357
 10
10.101599
 20
4.334929
 10
10.068281
 20
4.343274
 10
10.034305
 20
4.348314
 10
10.000000
 20
4.350000
 10
9.965695
 20
4.348314
 10
9.931719
 20
4.343274
 10
9.898401
 20
4.334929
 10
9.866061
 20
4.323357
 10
9.835012
 20
4.308672
 10
9.805551
 20
4.291014
 10
9.777963
 20
4.270553
 10
9.752513
 20
4.247487
 10
9.729447
 20
4.222037
 10
9.708986
 20
4.194449
 10
9.691328
 20
4.164988
 10
9.676643
 20
4.133939
 10
9.665071
 20
4.101599
 10
9.656726
 20
4.068281
 10
9.651686
 20
4.034305
 10
9.650000
 20
4.000000
 10
9.651686
 20
3.965695
 10
9.656726
 20
3.931719
 10
9.665071
 20
3.898401
 10
9.676643
 20
3.866061
 10
9.691328
 20
3.835012
 10
9.708986
 20
3.805551
 10
9.729447
 20
3.777963
 10
9.752513
 20
3.752513
 10
9.777963
 20
3.729447
 10
9.805551
 20
3.708986
 10
9.835012
 20
3.691328
 10
9.866061
 20
3.676643
 10
9.898401
 20
3.665071
 10
9.931719
 20
3.656726
 10
9.965695
 20
3.651686
 10
10.000000
 20
3.650000
  0
LWPOLYLINE
  8
PCB_LAYERS
420
12088115
 90
64
 70
1
 10
9.987748
 20
3.875602
 10
9.975614
 20
3.877402
 10
9.963715
 20
3.880383
 10
9.952165
 20
3.884516
 10
9.941076
 20
3.889760
 10
9.930554
 20
3.896067
 10
9.920701
 20
3.903374
 10
9.911612
 20
3.911612
 10
9.903374
 20
3.920701
 10
9.896067
 20
3.930554
 10
9.889760
 20
3.941076
 10
9.884516
 20
3.952165
 10
9.880383
 20
3.963715
 10
9.877402
 20
3.975614
 10
9.875602
 20
3.987748
 10
9.875000
 20
4.000000
 10
9.875602
 20
4.012252
 10
9.877402
 20
4.024386
 10
9.880383
 20
4.036285
 10
9.884516
 20
4.047835
 10
9.889760
 20
4.058924
 10
9.896067
 20
4.069446
 10
9.903374
 20
4.079299
 10
9.911612
 20
4.088388
 10
9.920701
 20
4.096626
 10
9.930554
 20
4.103933
 10
9.941076
 20
4.110240
 10
9.952165
 20
4.115484
 10
9.963715
 20
4.119617
 10
9.975614
 20
4.122598
 10
9.987748
 20
4.124398
 10
10.000000
 20
4.125000
 10
10.012252
 20
4.124398
 10
10.024386
 20
4.122598
 10
10.036285
 20
4.119617
 10
10.047835
 20
4.115484
 10
10.058924
 20
4.110240
 10
10.069446
 20
4.103933
 10
10.079299
 20
4.096626
 10
10.088388
 20
4.088388
 10
10.096626
 20
4.079299
 10
10.103933
 20
4.069446
 10
10.110240
 20
4.058924
 10
10.115484
 20
4.047835
 10
10.119617
 20
4.036285
 10
10.122598
 20
4.024386
 10
10.124398
 20
4.012252
 10
10.125000
 20
4.000000
 10
10.124398
 20
3.987748
 10
10.122598
 20
3.975614
 10
10.119617
 20
3.963715
 10
10.115484
 20
3.952165
 10
10.110240
 20
3.941076
 10
10.103933
 20
3.930554
 10
10.096626
 20
3.920701
 10
10.088388
 20
3.911612
 10
10.079299
 20
3.903374
 10
10.069446
 20
3.896067
 10
10.058924
 20
3.889760
 10
10.047835
 20
3.884516
 10
10.036285
 20
3.880383
 10
10.024386
 20
3.877402
 10
10.012252
 20
3.875602
 10
10.000000
 20
3.875000
  0
LWPOLYLINE
  8
PCB_LAYERS
420
12088115
 90
15
 70
1
 10
14.856459
 20
9.956458
 10
14.852883
 20
9.970737
 10
14.850723
 20
9.985298
 10
14.850000
 20
10.000000
 10
14.850723
 20
10.014702
 10
14.852883
 20
10.029263
 10
14.856459
 20
10.043542
 10
14.861419
 20
10.057402
 10
14.867712
 20
10.070709
 10
14.875280
 20
10.083335
 10
14.884049
 20
10.095158
 10
14.888437
 20
10.100000
 10
11.000000
 20
10.100000
 10
11.000000
 20
9.950000
 10
14.858770
 20
9.950000
  0
LWPOLYLINE
  8
PCB_LAYERS
420
12088115
 90
64
 70
1
 10
15.034305
 20
9.651686
 10
15.068281
 20
9.656726
 10
15.101599
 20
9.665071
 10
15.133939
 20
9.676643
 10
15.164988
 20
9.691328
 10
15.194449
 20
9.708986
 10
15.222037
 20
9.729447
 10
15.247487
 20
9.752513
 10
15.270553
 20
9.777963
 10
15.291014
 20
9.805551
 10
15.308672
 20
9.835012
 10
15.323357
 20
9.866061
 10
15.334929
 20
9.898401
 10
15.343274
 20
9.931719
 10
15.348314
 20
9.965695
 10
15.350000
 20
10.000000
 10
15.348314
 20
10.034305
 10
15.343274
 20
10.068281
 10
15.334929
 20
10.101599
 10
15.323357
 20
10.133939
 10
15.308672
 20
10.164988
 10
15.291014
 20
10.194449
 10
15.270553
 20
10.222037
 10
15.247487
 20
10.247487
 10
15.222037
 20
10.270553
 10
15.194449
 20
10.291014
 10
15.164988
 20
10.308672
 10
15.133939
 20
10.323357
 10
15.101599
 20
10.334929
 10
15.068281
 20
10.343274
 10
15.034305
 20
10.348314
 10
15.000000
 20
10.350000
 10
14.965695
 20
10.348314
 10
14.931719
 20
10.343274
 10
14.898401
 20
10.334929
 10
14.866061
 20
10.323357
 10
14.835012
 20
10.308672
 10
14.805551
 20
10.291014
 10
14.777963
 20
10.270553
 10
14.752513
 20
10.247487
 10
14.729447
 20
10.222037
 10
14.708986
 20
10.194449
 10
14.691328
 20
10.164988
 10
14.676643
 20
10.133939
 10
14.665071
 20
10.101599
 10
14.656726
 20
10.068281
 10
14.651686
 20
10.034305
 10
14.650000
 20
10.000000
 10
14.651686
 20
9.965695
 10
14.656726
 20
9.931719
 10
14.665071
 20
9.898401
 10
14.676643
 20
9.866061
 10
14.691328
 20
9.835012
 10
14.708986
 20
9.805551
 10
14.729447
 20
9.777963
 10
14.752513
 20
9.752513
 10
14.777963
 20
9.729447
 10
14.805551
 20
9.708986
 10
14.835012
 20
9.691328
 10
14.866061
 20
9.676643
 10
14.898401
 20
9.665071
 10
14.931719
 20
9.656726
 10
14.965695
 20
9.651686
 10
15.000000
 20
9.650000
  0
LWPOLYLINE
  8
PCB_LAYERS
420
12088115
 90
64
 70
1
 10
14.987748
 20
9.875602
 10
14.975614
 20
9.877402
 10
14.963715
 20
9.880383
 10
14.952165
 20
9.884516
 10
14.941076
 20
9.889760
 10
14.930554
 20
9.896067
 10
14.920701
 20
9.903374
 10
14.911612
 20
9.911612
 10
14.903374
 20
9.920701
 10
14.896067
 20
9.930554
 10
14.889760
 20
9.941076
 10
14.884516
 20
9.952165
 10
14.880383
 20
9.963715
 10
14.877402
 20
9.975614
 10
14.875602
 20
9.987748
 10
14.875000
 20
10.000000
 10
14.875602
 20
10.012252
 10
14.877402
 20
10.024386
 10
14.880383
 20
10.036285
 10
14.884516
 20
10.047835
 10
14.889760
 20
10.058924
 10
14.896067
 20
10.069446
 10
14.903374
 20
10.079299
 10
14.911612
 20
10.088388
 10
14.920701
 20
10.096626
 10
14.930554
 20
10.103933
 10
14.941076
 20
10.110240
 10
14.952165
 20
10.115484
 10
14.963715
 20
10.119617
 10
14.975614
 20
10.122598
 10
14.987748
 20
10.124398
 10
15.000000
 20
10.125000
 10
15.012252
 20
10.124398
 10
15.024386
 20
10.122598
 10
15.036285
 20
10.119617
 10
15.047835
 20
10.115484
 10
15.058924
 20
10.110240
 10
15.069446
 20
10.103933
 10
15.079299
 20
10.096626
 10
15.088388
 20
10.088388
 10
15.096626
 20
10.079299
 10
15.103933
 20
10.069446
 10
15.110240
 20
10.058924
 10
15.115484
 20
10.047835
 10
15.119617
 20
10.036285
 10
15.122598
 20
10.024386
 10
15.124398
 20
10.012252
 10
15.125000
 20
10.000000
 10
15.124398
 20
9.987748
 10
15.122598
 20
9.975614
 10
15.119617
 20
9.963715
 10
15.115484
 20
9.952165
 10
15.110240
 20
9.941076
 10
15.103933
 20
9.930554
 10
15.096626
 20
9.920701
 10
15.088388
 20
9.911612
 10
15.079299
 20
9.903374
 10
15.069446
 20
9.896067
 10
15.058924
 20
9.889760
 10
15.047835
 20
9.884516
 10
15.036285
 20
9.880383
 10
15.024386
 20
9.877402
 10
15.012252
 20
9.875602
 10
15.000000
 20
9.875000
  0
LWPOLYLINE
  8
PCB_LAYERS
420
12088115
 90
64
 70
1
 10
10.034305
 20
13.651686
 10
10.068281
 20
13.656726
 10
10.101599
 20
13.665071
 10
10.133939
 20
13.676643
 10
10.164988
 20
13.691328
 10
10.194449
 20
13.708986
 10
10.222037
 20
13.729447
 10
10.247487
 20
13.752513
 10
10.270553
 20
13.777963
 10
10.291014
 20
13.805551
 10
10.308672
 20
13.835012
 10
10.323357
 20
13.866061
 10
10.334929
 20
13.898401
 10
10.343274
 20
13.931719
 10
10.348314
 20
13.965695
 10
10.350000
 20
14.000000
 10
10.348314
 20
14.034305
 10
10.343274
 20
14.068281
 10
10.334929
 20
14.101599
 10
10.323357
 20
14.133939
 10
10.308672
 20
14.164988
 10
10.291014
 20
14.194449
 10
10.270553
 20
14.222037
 10
10.247487
 20
14.247487
 10
10.222037
 20
14.270553
 10
10.194449
 20
14.291014
 10
10.164988
 20
14.308672
 10
10.133939
 20
14.323357
 10
10.101599
 20
14.334929
 10
10.068281
 20
14.343274
 10
10.034305
 20
14.348314
 10
10.000000
 20
14.350000
 10
9.965695
 20
14.348314
 10
9.931719
 20
14.343274
 10
9.898401
 20
14.334929
 10
9.866061
 20
14.323357
 10
9.835012
 20
14.308672
 10
9.805551
 20
14.291014
 10
9.777963
 20
14.270553
 10
9.752513
 20
14.247487
 10
9.729447
 20
14.222037
 10
9.708986
 20
14.194449
 10
9.691328
 20
14.164988
 10
9.676643
 20
14.133939
 10
9.665071
 20
14.101599
 10
9.656726
 20
14.068281
 10
9.651686
 20
14.034305
 10
9.650000
 20
14.000000
 10
9.651686
 20
13.965695
 10
9.656726
 20
13.931719
 10
9.665071
 20
13.898401
 10
9.676643
 20
13.866061
 10
9.691328
 20
13.835012
 10
9.708986
 20
13.805551
 10
9.729447
 20
13.777963
 10
9.752513
 20
13.752513
 10
9.777963
 20
13.729447
 10
9.805551
 20
13.708986
 10
9.835012
 20
13.691328
 10
9.866061
 20
13.676643
 10
9.898401
 20
13.665071
 10
9.931719
 20
13.656726
 10
9.965695
 20
13.651686
 10
10.000000
 20
13.650000
  0
LWPOLYLINE
  8
PCB_LAYERS
420
12088115
 90
64
 70
1
 10
9.987748
 20
13.875602
 10
9.975614
 20
13.877402
 10
9.963715
 20
13.880383
 10
9.952165
 20
13.884516
 10
9.941076
 20
13.889760
 10
9.930554
 20
13.896067
 10
9.920701
 20
13.903374
 10
9.911612
 20
13.911612
 10
9.903374
 20
13.920701
 10
9.896067
 20
13.930554
 10
9.889760
 20
13.941076
 10
9.884516
 20
13.952165
 10
9.880383
 20
13.963715
 10
9.877402
 20
13.975614
 10
9.875602
 20
13.987748
 10
9.875000
 20
14.000000
 10
9.875602
 20
14.012252
 10
9.877402
 20
14.024386
 10
9.880383
 20
14.036285
 10
9.884516
 20
14.047835
 10
9.889760
 20
14.058924
 10
9.896067
 20
14.069446
 10
9.903374
 20
14.079299
 10
9.911612
 20
14.088388
 10
9.920701
 20
14.096626
 10
9.930554
 20
14.103933
 10
9.941076
 20
14.110240
 10
9.952165
 20
14.115484
 10
9.963715
 20
14.119617
 10
9.975614
 20
14.122598
 10
9.987748
 20
14.124398
 10
10.000000
 20
14.125000
 10
10.012252
 20
14.124398
 10
10.024386
 20
14.122598
 10
10.036285
 20
14.119617
 10
10.047835
 20
14.115484
 10
10.058924
 20
14.110240
 10
10.069446
 20
14.103933
 10
10.079299
 20
14.096626
 10
10.088388
 20
14.088388
 10
10.096626
 20
14.079299
 10
10.103933
 20
14.069446
 10
10.110240
 20
14.058924
 10
10.115484
 20
14.047835
 10
10.119617
 20
14.036285
 10
10.122598
 20
14.024386
 10
10.124398
 20
14.012252
 10
10.125000
 20
14.000000
 10
10.124398
 20
13.987748
 10
10.122598
 20
13.975614
 10
10.119617
 20
13.963715
 10
10.115484
 20
13.952165
 10
10.110240
 20
13.941076
 10
10.103933
 20
13.930554
 10
10.096626
 20
13.920701
 10
10.088388
 20
13.911612
 10
10.079299
 20
13.903374
 10
10.069446
 20
13.896067
 10
10.058924
 20
13.889760
 10
10.047835
 20
13.884516
 10
10.036285
 20
13.880383
 10
10.024386
 20
13.877402
 10
10.012252
 20
13.875602
 10
10.000000
 20
13.875000
  0
LWPOLYLINE
  8
PCB_LAYERS
420
12088115
 90
15
 70
1
 10
10.100000
 20
9.000000
 10
9.950000
 20
9.000000
 10
9.950000
 20
4.141229
 10
9.956458
 20
4.143541
 10
9.970737
 20
4.147117
 10
9.985298
 20
4.149277
 10
10.000000
 20
4.150000
 10
10.014702
 20
4.149277
 10
10.029263
 20
4.147117
 10
10.043542
 20
4.143541
 10
10.057402
 20
4.138581
 10
10.070709
 20
4.132288
 10
10.083335
 20
4.124720
 10
10.095158
 20
4.115951
 10
10.100000
 20
4.111563
  0
LWPOLYLINE
  8
PCB_LAYERS
420
12088115
 90
64
 70
1
 10
10.034305
 20
3.651686
 10
10.068281
 20
3.656726
 10
10.101599
 20
3.665071
 10
10.133939
 20
3.676643
 10
10.164988
 20
3.691328
 10
10.194449
 20
3.708986
 10
10.222037
 20
3.729447
 10
10.247487
 20
3.752513
 10
10.270553
 20
3.777963
 10
10.291014
 20
3.805551
 10
10.308672
 20
3.835012
 10
10.323357
 20
3.866061
 10
10.334929
 20
3.898401
 10
10.343274
 20
3.931719
 10
10.348314
 20
3.965695
 10
10.350000
 20
4.000000
 10
10.348314
 20
4.034305
 10
10.343274
 20
4.068281
 10
10.334929
 20
4.101599
 10
10.323357
 20
4.133939
 10
10.308672
 20
4.164988
 10
10.291014
 20
4.194449
 10
10.270553
 20
4.222037
 10
10.247487
 20
4.247487
 10
10.222037
 20
4.270553
 10
10.194449
 20
4.291014
 10
10.164988
 20
4.308672
 10
10.133939
 20
4.323357
 10
10.101599
 20
4.334929
 10
10.068281
 20
4.343274
 10
10.034305
 20
4.348314
 10
10.000000
 20
4.350000
 10
9.965695
 20
4.348314
 10
9.931719
 20
4.343274
 10
9.898401
 20
4.334929
 10
9.866061
 20
4.323357
 10
9.835012
 20
4.308672
 10
9.805551
 20
4.291014
 10
9.777963
 20
4.270553
 10
9.752513
 20
4.247487
 10
9.729447
 20
4.222037
 10
9.708986
 20
4.194449
 10
9.691328
 20
4.164988
 10
9.676643
 20
4.133939
 10
9.665071
 20
4.101599
 10
9.656726
 20
4.068281
 10
9.651686
 20
4.034305
 10
9.650000
 20
4.000000
 10
9.651686
 20
3.965695
 10
9.656726
 20
3.931719
 10
9.665071
 20
3.898401
 10
9.676643
 20
3.866061
 10
9.691328
 20
3.835012
 10
9.708986
 20
3.805551
 10
9.729447
 20
3.777963
 10
9.752513
 20
3.752513
 10
9.777963
 20
3.729447
 10
9.805551
 20
3.708986
 10
9.835012
 20
3.691328
 10
9.866061
 20
3.676643
 10
9.898401
 20
3.665071
 10
9.931719
 20
3.656726
 10
9.965695
 20
3.651686
 10
10.000000
 20
3.650000
  0
LWPOLYLINE
  8
PCB_LAYERS
420
12088115
 90
64
 70
1
 10
9.987748
 20
3.875602
 10
9.975614
 20
3.877402
 10
9.963715
 20
3.880383
 10
9.952165
 20
3.884516
 10
9.941076
 20
3.889760
 10
9.930554
 20
3.896067
 10
9.920701
 20
3.903374
 10
9.911612
 20
3.911612
 10
9.903374
 20
3.920701
 10
9.896067
 20
3.930554
 10
9.889760
 20
3.941076
 10
9.884516
 20
3.952165
 10
9.880383
 20
3.963715
 10
9.877402
 20
3.975614
 10
9.875602
 20
3.987748
 10
9.875000
 20
4.000000
 10
9.875602
 20
4.012252
 10
9.877402
 20
4.024386
 10
9.880383
 20
4.036285
 10
9.884516
 20
4.047835
 10
9.889760
 20
4.058924
 10
9.896067
 20
4.069446
 10
9.903374
 20
4.079299
 10
9.911612
 20
4.088388
 10
9.920701
 20
4.096626
 10
9.930554
 20
4.103933
 10
9.941076
 20
4.110240
 10
9.952165
 20
4.115484
 10
9.963715
 20
4.119617
 10
9.975614
 20
4.122598
 10
9.987748
 20
4.124398
 10
10.000000
 20
4.125000
 10
10.012252
 20
4.124398
 10
10.024386
 20
4.122598
 10
10.036285
 20
4.119617
 10
10.047835
 20
4.115484
 10
10.058924
 20
4.110240
 10
10.069446
 20
4.103933
 10
10.079299
 20
4.096626
 10
10.088388
 20
4.088388
 10
10.096626
 20
4.079299
 10
10.103933
 20
4.069446
 10
10.110240
 20
4.058924
 10
10.115484
 20
4.047835
 10
10.119617
 20
4.036285
 10
10.122598
 20
4.024386
 10
10.124398
 20
4.012252
 10
10.125000
 20
4.000000
 10
10.124398
 20
3.987748
 10
10.122598
 20
3.975614
 10
10.119617
 20
3.963715
 10
10.115484
 20
3.952165
 10
10.110240
 20
3.941076
 10
10.103933
 20
3.930554
 10
10.096626
 20
3.920701
 10
10.088388
 20
3.911612
 10
10.079299
 20
3.903374
 10
10.069446
 20
3.896067
 10
10.058924
 20
3.889760
 10
10.047835
 20
3.884516
 10
10.036285
 20
3.880383
 10
10.024386
 20
3.877402
 10
10.012252
 20
3.875602
 10
10.000000
 20
3.875000
  0
LWPOLYLINE
  8
PCB_LAYERS
420
12088115
 90
64
 70
1
 10
4.034305
 20
9.651686
 10
4.068281
 20
9.656726
 10
4.101599
 20
9.665071
 10
4.133939
 20
9.676643
 10
4.164988
 20
9.691328
 10
4.194449
 20
9.708986
 10
4.222037
 20
9.729447
 10
4.247487
 20
9.752513
 10
4.270553
 20
9.777963
 10
4.291014
 20
9.805551
 10
4.308672
 20
9.835012
 10
4.323357
 20
9.866061
 10
4.334929
 20
9.898401
 10
4.343274
 20
9.931719
 10
4.348314
 20
9.965695
 10
4.350000
 20
10.000000
 10
4.348314
 20
10.034305
 10
4.343274
 20
10.068281
 10
4.334929
 20
10.101599
 10
4.323357
 20
10.133939
 10
4.308672
 20
10.164988
 10
4.291014
 20
10.194449
 10
4.270553
 20
10.222037
 10
4.247487
 20
10.247487
 10
4.222037
 20
10.270553
 10
4.194449
 20
10.291014
 10
4.164988
 20
10.308672
 10
4.133939
 20
10.323357
 10
4.101599
 20
10.334929
 10
4.068281
 20
10.343274
 10
4.034305
 20
10.348314
 10
4.000000
 20
10.350000
 10
3.965695
 20
10.348314
 10
3.931719
 20
10.343274
 10
3.898401
 20
10.334929
 10
3.866061
 20
10.323357
 10
3.835012
 20
10.308672
 10
3.805551
 20
10.291014
 10
3.777963
 20
10.270553
 10
3.752513
 20
10.247487
 10
3.729447
 20
10.222037
 10
3.708986
 20
10.194449
 10
3.691328
 20
10.164988
 10
3.676643
 20
10.133939
 10
3.665071
 20
10.101599
 10
3.656726
 20
10.068281
 10
3.651686
 20
10.034305
 10
3.650000
 20
10.000000
 10
3.651686
 20
9.965695
 10
3.656726
 20
9.931719
 10
3.665071
 20
9.898401
 10
3.676643
 20
9.866061
 10
3.691328
 20
9.835012
 10
3.708986
 20
9.805551
 10
3.729447
 20
9.777963
 10
3.752513
 20
9.752513
 10
3.777963
 20
9.729447
 10
3.805551
 20
9.708986
 10
3.835012
 20
9.691328
 10
3.866061
 20
9.676643
 10
3.898401
 20
9.665071
 10
3.931719
 20
9.656726
 10
3.965695
 20
9.651686
 10
4.000000
 20
9.650000
  0
LWPOLYLINE
  8
PCB_LAYERS
420
12088115
 90
64
 70
1
 10
3.987748
 20
9.875602
 10
3.975614
 20
9.877402
 10
3.963715
 20
9.880383
 10
3.952165
 20
9.884516
 10
3.941076
 20
9.889760
 10
3.930554
 20
9.896067
 10
3.920701
 20
9.903374
 10
3.911612
 20
9.911612
 10
3.903374
 20
9.920701
 10
3.896067
 20
9.930554
 10
3.889760
 20
9.941076
 10
3.884516
 20
9.952165
 10
3.880383
 20
9.963715
 10
3.877402
 20
9.975614
 10
3.875602
 20
9.987748
 10
3.875000
 20
10.000000
 10
3.875602
 20
10.012252
 10
3.877402
 20
10.024386
 10
3.880383
 20
10.036285
 10
3.884516
 20
10.047835
 10
3.889760
 20
10.058924
 10
3.896067
 20
10.069446
 10
3.903374
 20
10.079299
 10
3.911612
 20
10.088388
 10
3.920701
 20
10.096626
 10
3.930554
 20
10.103933
 10
3.941076
 20
10.110240
 10
3.952165
 20
10.115484
 10
3.963715
 20
10.119617
 10
3.975614
 20
10.122598
 10
3.987748
 20
10.124398
 10
4.000000
 20
10.125000
 10
4.012252
 20
10.124398
 10
4.024386
 20
10.122598
 10
4.036285
 20
10.119617
 10
4.047835
 20
10.115484
 10
4.058924
 20
10.110240
 10
4.069446
 20
10.103933
 10
4.079299
 20
10.096626
 10
4.088388
 20
10.088388
 10
4.096626
 20
10.079299
 10
4.103933
 20
10.069446
 10
4.110240
 20
10.058924
 10
4.115484
 20
10.047835
 10
4.119617
 20
10.036285
 10
4.122598
 20
10.024386
 10
4.124398
 20
10.012252
 10
4.125000
 20
10.000000
 10
4.124398
 20
9.987748
 10
4.122598
 20
9.975614
 10
4.119617
 20
9.963715
 10
4.115484
 20
9.952165
 10
4.110240
 20
9.941076
 10
4.103933
 20
9.930554
 10
4.096626
 20
9.920701
 10
4.088388
 20
9.911612
 10
4.079299
 20
9.903374
 10
4.069446
 20
9.896067
 10
4.058924
 20
9.889760
 10
4.047835
 20
9.884516
 10
4.036285
 20
9.880383
 10
4.024386
 20
9.877402
 10
4.012252
 20
9.875602
 10
4.000000
 20
9.875000
  0
LWPOLYLINE
  8
PCB_LAYERS
420
12088115
 90
15
 70
1
 10
10.100000
 20
13.888436
 10
10.095158
 20
13.884049
 10
10.083335
 20
13.875280
 10
10.070709
 20
13.867712
 10
10.057402
 20
13.861419
 10
10.043542
 20
13.856459
 10
10.029263
 20
13.852883
 10
10.014702
 20
13.850723
 10
10.000000
 20
13.850000
 10
9.985298
 20
13.850723
 10
9.970737
 20
13.852883
 10
9.956458
 20
13.856459
 10
9.950000
 20
13.858770
 10
9.950000
 20
11.000000
 10
10.100000
 20
11.000000
  0
LWPOLYLINE
  8
PCB_LAYERS
420
12088115
 90
64
 70
1
 10
10.098017
 20
9.004816
 10
10.195090
 20
9.019215
 10
10.290284
 20
9.043060
 10
10.382683
 20
9.076121
 10
10.471396
 20
9.118079
 10
10.555570
 20
9.168531
 10
10.634393
 20
9.226990
 10
10.707106
 20
9.292894
 10
10.773010
 20
9.365607
 10
10.831469
 20
9.444430
 10
10.881921
 20
9.528604
 10
10.923879
 20
9.617317
 10
10.956940
 20
9.709716
 10
10.980785
 20
9.804910
 10
10.995184
 20
9.901983
 10
11.000000
 20
10.000000
 10
10.995184
 20
10.098017
 10
10.980785
 20
10.195090
 10
10.956940
 20
10.290284
 10
10.923879
 20
10.382683
 10
10.881921
 20
10.471396
 10
10.831469
 20
10.555570
 10
10.773010
 20
10.634393
 10
10.707106
 20
10.707106
 10
10.634393
 20
10.773010
 10
10.555570
 20
10.831469
 10
10.471396
 20
10.881921
 10
10.382683
 20
10.923879
 10
10.290284
 20
10.956940
 10
10.195090
 20
10.980785
 10
10.098017
 20
10.995184
 10
10.000000
 20
11.000000
 10
9.901983
 20
10.995184
 10
9.804910
 20
10.980785
 10
9.709716
 20
10.956940
 10
9.617317
 20
10.923879
 10
9.528604
 20
10.881921
 10
9.444430
 20
10.831469
 10
9.365607
 20
10.773010
 10
9.292894
 20
10.707106
 10
9.226990
 20
10.634393
 10
9.168531
 20
10.555570
 10
9.118079
 20
10.471396
 10
9.076121
 20
10.382683
 10
9.043060
 20
10.290284
 10
9.019215
 20
10.195090
 10
9.004816
 20
10.098017
 10
9.000000
 20
10.000000
 10
9.004816
 20
9.901983
 10
9.019215
 20
9.804910
 10
9.043060
 20
9.709716
 10
9.076121
 20
9.617317
 10
9.118079
 20
9.528604
 10
9.168531
 20
9.444430
 10
9.226990
 20
9.365607
 10
9.292894
 20
9.292894
 10
9.365607
 20
9.226990
 10
9.444430
 20
9.168531
 10
9.528604
 20
9.118079
 10
9.617317
 20
9.076121
 10
9.709716
 20
9.043060
 10
9.804910
 20
9.019215
 10
9.901983
 20
9.004816
 10
10.000000
 20
9.000000
  0
ENDSEC
  0
EOF
