  0
SECTION
  2
HEADER
  9
$ACADVER
  1
AC1018
  0
ENDSEC
  0
SECTION
  2
TABLES
  0
TABLE
  2
LAYER
  0
LAYER
  2
Aluminum
 70
0
 62
7
  0
LAYER
  2
Silicon_P
 70
0
 62
7
  0
LAYER
  2
Polysilicon
 70
0
 62
7
  0
LAYER
  2
Titanium_Silicide
 70
0
 62
7
  0
ENDTAB
  0
ENDSEC
  0
SECTION
  2
ENTITIES
  0
LWPOLYLINE
  8
Silicon_P
420
12615808
 90
4
 70
1
 10
0.001600
 20
0.001300
 10
0.001100
 20
0.001300
 10
0.001100
 20
0.000700
 10
0.001600
 20
0.000700
  0
LWPOLYLINE
  8
Silicon_P
420
12615808
 90
4
 70
1
 10
0.000900
 20
0.001300
 10
0.000400
 20
0.001300
 10
0.000400
 20
0.000700
 10
0.000900
 20
0.000700
  0
LWPOLYLINE
  8
Titanium_Silicide
420
4210752
 90
4
 70
1
 10
0.001450
 20
0.001100
 10
0.001250
 20
0.001100
 10
0.001250
 20
0.000900
 10
0.001450
 20
0.000900
  0
LWPOLYLINE
  8
Titanium_Silicide
420
4210752
 90
4
 70
1
 10
0.000750
 20
0.001100
 10
0.000550
 20
0.001100
 10
0.000550
 20
0.000900
 10
0.000750
 20
0.000900
  0
LWPOLYLINE
  8
Polysilicon
420
16736352
 90
4
 70
1
 10
0.001200
 20
0.001800
 10
0.000800
 20
0.001800
 10
0.000800
 20
0.000400
 10
0.001200
 20
0.000400
  0
LWPOLYLINE
  8
Titanium_Silicide
420
4210752
 90
4
 70
1
 10
0.001100
 20
0.001850
 10
0.000900
 20
0.001850
 10
0.000900
 20
0.001650
 10
0.001100
 20
0.001650
  0
LWPOLYLINE
  8
Aluminum
420
12632256
 90
4
 70
1
 10
0.001200
 20
0.002100
 10
0.000800
 20
0.002100
 10
0.000800
 20
0.001700
 10
0.001200
 20
0.001700
  0
LWPOLYLINE
  8
Aluminum
420
12632256
 90
12
 70
1
 10
0.001800
 20
0.000400
 10
0.001600
 20
0.000400
 10
0.001600
 20
0.001050
 10
0.001500
 20
0.001050
 10
0.001500
 20
0.001150
 10
0.001200
 20
0.001150
 10
0.001200
 20
0.000850
 10
0.001400
 20
0.000850
 10
0.001400
 20
0.000400
 10
0.001200
 20
0.000400
 10
0.001200
 20
0.000000
 10
0.001800
 20
0.000000
  0
LWPOLYLINE
  8
Aluminum
420
12632256
 90
14
 70
1
 10
0.000800
 20
0.001150
 10
0.000750
 20
0.001150
 10
0.000750
 20
0.002058
 10
0.000992
 20
0.002300
 10
0.002000
 20
0.002300
 10
0.002000
 20
0.002900
 10
0.000000
 20
0.002900
 10
0.000000
 20
0.002300
 10
0.000709
 20
0.002300
 10
0.000550
 20
0.002141
 10
0.000550
 20
0.001150
 10
0.000500
 20
0.001150
 10
0.000500
 20
0.000850
 10
0.000800
 20
0.000850
  0
ENDSEC
  0
EOF
