  0
SECTION
  2
HEADER
  9
$ACADVER
  1
AC1018
  0
ENDSEC
  0
SECTION
  2
TABLES
  0
TABLE
  2
LAYER
  0
LAYER
  2
Silicon_Dioxide
 70
0
 62
7
  0
LAYER
  2
Polysilicon
 70
0
 62
7
  0
LAYER
  2
Titanium_Silicide
 70
0
 62
7
  0
LAYER
  2
Tungsten
 70
0
 62
7
  0
LAYER
  2
Aluminum
 70
0
 62
7
  0
ENDTAB
  0
ENDSEC
  0
SECTION
  2
ENTITIES
  0
LWPOLYLINE
  8
Polysilicon
420
16736352
 90
4
 70
1
 10
0.009000
 20
0.004425
 10
0.005000
 20
0.004425
 10
0.005000
 20
0.001575
 10
0.009000
 20
0.001575
  0
LWPOLYLINE
  8
Polysilicon
420
16736352
 90
4
 70
1
 10
0.017000
 20
0.003705
 10
0.013000
 20
0.003705
 10
0.013000
 20
0.002295
 10
0.017000
 20
0.002295
  0
LWPOLYLINE
  8
Polysilicon
420
16736352
 90
4
 70
1
 10
0.025000
 20
0.003344
 10
0.021000
 20
0.003344
 10
0.021000
 20
0.002655
 10
0.025000
 20
0.002655
  0
LWPOLYLINE
  8
Tungsten
420
8421631
 90
4
 70
1
 10
0.005285
 20
0.003085
 10
0.005115
 20
0.003085
 10
0.005115
 20
0.002915
 10
0.005285
 20
0.002915
  0
LWPOLYLINE
  8
Tungsten
420
8421631
 90
4
 70
1
 10
0.008885
 20
0.003085
 10
0.008715
 20
0.003085
 10
0.008715
 20
0.002915
 10
0.008885
 20
0.002915
  0
LWPOLYLINE
  8
Tungsten
420
8421631
 90
4
 70
1
 10
0.013285
 20
0.003085
 10
0.013115
 20
0.003085
 10
0.013115
 20
0.002915
 10
0.013285
 20
0.002915
  0
LWPOLYLINE
  8
Tungsten
420
8421631
 90
4
 70
1
 10
0.016885
 20
0.003085
 10
0.016715
 20
0.003085
 10
0.016715
 20
0.002915
 10
0.016885
 20
0.002915
  0
LWPOLYLINE
  8
Tungsten
420
8421631
 90
4
 70
1
 10
0.021285
 20
0.003084
 10
0.021115
 20
0.003084
 10
0.021115
 20
0.002914
 10
0.021285
 20
0.002914
  0
LWPOLYLINE
  8
Tungsten
420
8421631
 90
4
 70
1
 10
0.024885
 20
0.003084
 10
0.024715
 20
0.003084
 10
0.024715
 20
0.002914
 10
0.024885
 20
0.002914
  0
LWPOLYLINE
  8
Tungsten
420
8421631
 90
4
 70
1
 10
0.005285
 20
0.003085
 10
0.005115
 20
0.003085
 10
0.005115
 20
0.002915
 10
0.005285
 20
0.002915
  0
LWPOLYLINE
  8
Tungsten
420
8421631
 90
4
 70
1
 10
0.008885
 20
0.003085
 10
0.008715
 20
0.003085
 10
0.008715
 20
0.002915
 10
0.008885
 20
0.002915
  0
LWPOLYLINE
  8
Tungsten
420
8421631
 90
4
 70
1
 10
0.013285
 20
0.003085
 10
0.013115
 20
0.003085
 10
0.013115
 20
0.002915
 10
0.013285
 20
0.002915
  0
LWPOLYLINE
  8
Tungsten
420
8421631
 90
4
 70
1
 10
0.016885
 20
0.003085
 10
0.016715
 20
0.003085
 10
0.016715
 20
0.002915
 10
0.016885
 20
0.002915
  0
LWPOLYLINE
  8
Tungsten
420
8421631
 90
4
 70
1
 10
0.021285
 20
0.003084
 10
0.021115
 20
0.003084
 10
0.021115
 20
0.002914
 10
0.021285
 20
0.002914
  0
LWPOLYLINE
  8
Tungsten
420
8421631
 90
4
 70
1
 10
0.024885
 20
0.003084
 10
0.024715
 20
0.003084
 10
0.024715
 20
0.002914
 10
0.024885
 20
0.002914
  0
LWPOLYLINE
  8
Tungsten
420
8421631
 90
4
 70
1
 10
0.005285
 20
0.003085
 10
0.005115
 20
0.003085
 10
0.005115
 20
0.002915
 10
0.005285
 20
0.002915
  0
LWPOLYLINE
  8
Tungsten
420
8421631
 90
4
 70
1
 10
0.008885
 20
0.003085
 10
0.008715
 20
0.003085
 10
0.008715
 20
0.002915
 10
0.008885
 20
0.002915
  0
LWPOLYLINE
  8
Tungsten
420
8421631
 90
4
 70
1
 10
0.013285
 20
0.003085
 10
0.013115
 20
0.003085
 10
0.013115
 20
0.002915
 10
0.013285
 20
0.002915
  0
LWPOLYLINE
  8
Tungsten
420
8421631
 90
4
 70
1
 10
0.016885
 20
0.003085
 10
0.016715
 20
0.003085
 10
0.016715
 20
0.002915
 10
0.016885
 20
0.002915
  0
LWPOLYLINE
  8
Tungsten
420
8421631
 90
4
 70
1
 10
0.021285
 20
0.003084
 10
0.021115
 20
0.003084
 10
0.021115
 20
0.002914
 10
0.021285
 20
0.002914
  0
LWPOLYLINE
  8
Tungsten
420
8421631
 90
4
 70
1
 10
0.024885
 20
0.003084
 10
0.024715
 20
0.003084
 10
0.024715
 20
0.002914
 10
0.024885
 20
0.002914
  0
LWPOLYLINE
  8
Titanium_Silicide
420
4210752
 90
4
 70
1
 10
0.005400
 20
0.003200
 10
0.005000
 20
0.003200
 10
0.005000
 20
0.002800
 10
0.005400
 20
0.002800
  0
LWPOLYLINE
  8
Titanium_Silicide
420
4210752
 90
4
 70
1
 10
0.009000
 20
0.003200
 10
0.008600
 20
0.003200
 10
0.008600
 20
0.002800
 10
0.009000
 20
0.002800
  0
LWPOLYLINE
  8
Titanium_Silicide
420
4210752
 90
4
 70
1
 10
0.013400
 20
0.003200
 10
0.013000
 20
0.003200
 10
0.013000
 20
0.002800
 10
0.013400
 20
0.002800
  0
LWPOLYLINE
  8
Titanium_Silicide
420
4210752
 90
4
 70
1
 10
0.017000
 20
0.003200
 10
0.016600
 20
0.003200
 10
0.016600
 20
0.002800
 10
0.017000
 20
0.002800
  0
LWPOLYLINE
  8
Titanium_Silicide
420
4210752
 90
4
 70
1
 10
0.021400
 20
0.003199
 10
0.021000
 20
0.003199
 10
0.021000
 20
0.002799
 10
0.021400
 20
0.002799
  0
LWPOLYLINE
  8
Titanium_Silicide
420
4210752
 90
4
 70
1
 10
0.025000
 20
0.003199
 10
0.024600
 20
0.003199
 10
0.024600
 20
0.002799
 10
0.025000
 20
0.002799
  0
LWPOLYLINE
  8
Tungsten
420
8421631
 90
4
 70
1
 10
0.005285
 20
0.003085
 10
0.005115
 20
0.003085
 10
0.005115
 20
0.002915
 10
0.005285
 20
0.002915
  0
LWPOLYLINE
  8
Tungsten
420
8421631
 90
4
 70
1
 10
0.008885
 20
0.003085
 10
0.008715
 20
0.003085
 10
0.008715
 20
0.002915
 10
0.008885
 20
0.002915
  0
LWPOLYLINE
  8
Tungsten
420
8421631
 90
4
 70
1
 10
0.013285
 20
0.003085
 10
0.013115
 20
0.003085
 10
0.013115
 20
0.002915
 10
0.013285
 20
0.002915
  0
LWPOLYLINE
  8
Tungsten
420
8421631
 90
4
 70
1
 10
0.016885
 20
0.003085
 10
0.016715
 20
0.003085
 10
0.016715
 20
0.002915
 10
0.016885
 20
0.002915
  0
LWPOLYLINE
  8
Tungsten
420
8421631
 90
4
 70
1
 10
0.021285
 20
0.003084
 10
0.021115
 20
0.003084
 10
0.021115
 20
0.002914
 10
0.021285
 20
0.002914
  0
LWPOLYLINE
  8
Tungsten
420
8421631
 90
4
 70
1
 10
0.024885
 20
0.003084
 10
0.024715
 20
0.003084
 10
0.024715
 20
0.002914
 10
0.024885
 20
0.002914
  0
LWPOLYLINE
  8
Tungsten
420
8421631
 90
4
 70
1
 10
0.005285
 20
0.003085
 10
0.005115
 20
0.003085
 10
0.005115
 20
0.002915
 10
0.005285
 20
0.002915
  0
LWPOLYLINE
  8
Tungsten
420
8421631
 90
4
 70
1
 10
0.008885
 20
0.003085
 10
0.008715
 20
0.003085
 10
0.008715
 20
0.002915
 10
0.008885
 20
0.002915
  0
LWPOLYLINE
  8
Tungsten
420
8421631
 90
4
 70
1
 10
0.013285
 20
0.003085
 10
0.013115
 20
0.003085
 10
0.013115
 20
0.002915
 10
0.013285
 20
0.002915
  0
LWPOLYLINE
  8
Tungsten
420
8421631
 90
4
 70
1
 10
0.016885
 20
0.003085
 10
0.016715
 20
0.003085
 10
0.016715
 20
0.002915
 10
0.016885
 20
0.002915
  0
LWPOLYLINE
  8
Tungsten
420
8421631
 90
4
 70
1
 10
0.021285
 20
0.003084
 10
0.021115
 20
0.003084
 10
0.021115
 20
0.002914
 10
0.021285
 20
0.002914
  0
LWPOLYLINE
  8
Tungsten
420
8421631
 90
4
 70
1
 10
0.024885
 20
0.003084
 10
0.024715
 20
0.003084
 10
0.024715
 20
0.002914
 10
0.024885
 20
0.002914
  0
LWPOLYLINE
  8
Tungsten
420
8421631
 90
4
 70
1
 10
0.005285
 20
0.003085
 10
0.005115
 20
0.003085
 10
0.005115
 20
0.002915
 10
0.005285
 20
0.002915
  0
LWPOLYLINE
  8
Tungsten
420
8421631
 90
4
 70
1
 10
0.008885
 20
0.003085
 10
0.008715
 20
0.003085
 10
0.008715
 20
0.002915
 10
0.008885
 20
0.002915
  0
LWPOLYLINE
  8
Tungsten
420
8421631
 90
4
 70
1
 10
0.013285
 20
0.003085
 10
0.013115
 20
0.003085
 10
0.013115
 20
0.002915
 10
0.013285
 20
0.002915
  0
LWPOLYLINE
  8
Tungsten
420
8421631
 90
4
 70
1
 10
0.016885
 20
0.003085
 10
0.016715
 20
0.003085
 10
0.016715
 20
0.002915
 10
0.016885
 20
0.002915
  0
LWPOLYLINE
  8
Tungsten
420
8421631
 90
4
 70
1
 10
0.021285
 20
0.003084
 10
0.021115
 20
0.003084
 10
0.021115
 20
0.002914
 10
0.021285
 20
0.002914
  0
LWPOLYLINE
  8
Tungsten
420
8421631
 90
4
 70
1
 10
0.024885
 20
0.003084
 10
0.024715
 20
0.003084
 10
0.024715
 20
0.002914
 10
0.024885
 20
0.002914
  0
LWPOLYLINE
  8
Aluminum
420
12632256
 90
4
 70
1
 10
0.005400
 20
0.003200
 10
0.005000
 20
0.003200
 10
0.005000
 20
0.002800
 10
0.005400
 20
0.002800
  0
LWPOLYLINE
  8
Aluminum
420
12632256
 90
4
 70
1
 10
0.009000
 20
0.003200
 10
0.008600
 20
0.003200
 10
0.008600
 20
0.002800
 10
0.009000
 20
0.002800
  0
LWPOLYLINE
  8
Aluminum
420
12632256
 90
4
 70
1
 10
0.013400
 20
0.003200
 10
0.013000
 20
0.003200
 10
0.013000
 20
0.002800
 10
0.013400
 20
0.002800
  0
LWPOLYLINE
  8
Aluminum
420
12632256
 90
4
 70
1
 10
0.017000
 20
0.003200
 10
0.016600
 20
0.003200
 10
0.016600
 20
0.002800
 10
0.017000
 20
0.002800
  0
LWPOLYLINE
  8
Aluminum
420
12632256
 90
4
 70
1
 10
0.021400
 20
0.003199
 10
0.021000
 20
0.003199
 10
0.021000
 20
0.002799
 10
0.021400
 20
0.002799
  0
LWPOLYLINE
  8
Aluminum
420
12632256
 90
4
 70
1
 10
0.025000
 20
0.003199
 10
0.024600
 20
0.003199
 10
0.024600
 20
0.002799
 10
0.025000
 20
0.002799
  0
LWPOLYLINE
  8
Silicon_Dioxide
420
14739711
 90
4
 70
1
 10
0.000000
 20
0.000000
 10
0.030000
 20
0.000000
 10
0.030000
 20
0.015000
 10
0.000000
 20
0.015000
  0
LWPOLYLINE
  8
Silicon_Dioxide
420
14739711
 90
4
 70
1
 10
0.000000
 20
0.000000
 10
0.030000
 20
0.000000
 10
0.030000
 20
0.015000
 10
0.000000
 20
0.015000
  0
ENDSEC
  0
EOF
