  0
SECTION
  2
HEADER
  9
$ACADVER
  1
AC1018
  0
ENDSEC
  0
SECTION
  2
TABLES
  0
TABLE
  2
LAYER
  0
LAYER
  2
Resistor_Poly_Mask
 70
0
 62
7
  0
LAYER
  2
Silicon_Dioxide
 70
0
 62
7
  0
LAYER
  2
Polysilicon
 70
0
 62
7
  0
LAYER
  2
Titanium_Silicide
 70
0
 62
7
  0
LAYER
  2
Tungsten
 70
0
 62
7
  0
LAYER
  2
Aluminum
 70
0
 62
7
  0
ENDTAB
  0
ENDSEC
  0
SECTION
  2
ENTITIES
  0
LWPOLYLINE
  8
Polysilicon
420
16736352
 90
4
 70
1
 10
0.009000
 20
0.005000
 10
0.005000
 20
0.005000
 10
0.005000
 20
0.001000
 10
0.009000
 20
0.001000
  0
LWPOLYLINE
  8
Polysilicon
420
16736352
 90
4
 70
1
 10
0.017000
 20
0.003500
 10
0.013000
 20
0.003500
 10
0.013000
 20
0.002500
 10
0.017000
 20
0.002500
  0
LWPOLYLINE
  8
Polysilicon
420
16736352
 90
4
 70
1
 10
0.025000
 20
0.003250
 10
0.021000
 20
0.003250
 10
0.021000
 20
0.002750
 10
0.025000
 20
0.002750
  0
LWPOLYLINE
  8
Tungsten
420
8421631
 90
4
 70
1
 10
0.005285
 20
0.003085
 10
0.005115
 20
0.003085
 10
0.005115
 20
0.002915
 10
0.005285
 20
0.002915
  0
LWPOLYLINE
  8
Tungsten
420
8421631
 90
4
 70
1
 10
0.008885
 20
0.003085
 10
0.008715
 20
0.003085
 10
0.008715
 20
0.002915
 10
0.008885
 20
0.002915
  0
LWPOLYLINE
  8
Tungsten
420
8421631
 90
4
 70
1
 10
0.013285
 20
0.003085
 10
0.013115
 20
0.003085
 10
0.013115
 20
0.002915
 10
0.013285
 20
0.002915
  0
LWPOLYLINE
  8
Tungsten
420
8421631
 90
4
 70
1
 10
0.016885
 20
0.003085
 10
0.016715
 20
0.003085
 10
0.016715
 20
0.002915
 10
0.016885
 20
0.002915
  0
LWPOLYLINE
  8
Tungsten
420
8421631
 90
4
 70
1
 10
0.021285
 20
0.003085
 10
0.021115
 20
0.003085
 10
0.021115
 20
0.002915
 10
0.021285
 20
0.002915
  0
LWPOLYLINE
  8
Tungsten
420
8421631
 90
4
 70
1
 10
0.024885
 20
0.003085
 10
0.024715
 20
0.003085
 10
0.024715
 20
0.002915
 10
0.024885
 20
0.002915
  0
LWPOLYLINE
  8
Resistor_Poly_Mask
420
16728128
 90
4
 70
1
 10
0.009100
 20
0.005100
 10
0.004900
 20
0.005100
 10
0.004900
 20
0.000900
 10
0.009100
 20
0.000900
  0
LWPOLYLINE
  8
Resistor_Poly_Mask
420
16728128
 90
4
 70
1
 10
0.017100
 20
0.003600
 10
0.012900
 20
0.003600
 10
0.012900
 20
0.002400
 10
0.017100
 20
0.002400
  0
LWPOLYLINE
  8
Resistor_Poly_Mask
420
16728128
 90
4
 70
1
 10
0.025100
 20
0.003350
 10
0.020900
 20
0.003350
 10
0.020900
 20
0.002650
 10
0.025100
 20
0.002650
  0
LWPOLYLINE
  8
Tungsten
420
8421631
 90
4
 70
1
 10
0.005285
 20
0.003085
 10
0.005115
 20
0.003085
 10
0.005115
 20
0.002915
 10
0.005285
 20
0.002915
  0
LWPOLYLINE
  8
Tungsten
420
8421631
 90
4
 70
1
 10
0.008885
 20
0.003085
 10
0.008715
 20
0.003085
 10
0.008715
 20
0.002915
 10
0.008885
 20
0.002915
  0
LWPOLYLINE
  8
Tungsten
420
8421631
 90
4
 70
1
 10
0.013285
 20
0.003085
 10
0.013115
 20
0.003085
 10
0.013115
 20
0.002915
 10
0.013285
 20
0.002915
  0
LWPOLYLINE
  8
Tungsten
420
8421631
 90
4
 70
1
 10
0.016885
 20
0.003085
 10
0.016715
 20
0.003085
 10
0.016715
 20
0.002915
 10
0.016885
 20
0.002915
  0
LWPOLYLINE
  8
Tungsten
420
8421631
 90
4
 70
1
 10
0.021285
 20
0.003085
 10
0.021115
 20
0.003085
 10
0.021115
 20
0.002915
 10
0.021285
 20
0.002915
  0
LWPOLYLINE
  8
Tungsten
420
8421631
 90
4
 70
1
 10
0.024885
 20
0.003085
 10
0.024715
 20
0.003085
 10
0.024715
 20
0.002915
 10
0.024885
 20
0.002915
  0
LWPOLYLINE
  8
Tungsten
420
8421631
 90
4
 70
1
 10
0.005285
 20
0.003085
 10
0.005115
 20
0.003085
 10
0.005115
 20
0.002915
 10
0.005285
 20
0.002915
  0
LWPOLYLINE
  8
Tungsten
420
8421631
 90
4
 70
1
 10
0.008885
 20
0.003085
 10
0.008715
 20
0.003085
 10
0.008715
 20
0.002915
 10
0.008885
 20
0.002915
  0
LWPOLYLINE
  8
Tungsten
420
8421631
 90
4
 70
1
 10
0.013285
 20
0.003085
 10
0.013115
 20
0.003085
 10
0.013115
 20
0.002915
 10
0.013285
 20
0.002915
  0
LWPOLYLINE
  8
Tungsten
420
8421631
 90
4
 70
1
 10
0.016885
 20
0.003085
 10
0.016715
 20
0.003085
 10
0.016715
 20
0.002915
 10
0.016885
 20
0.002915
  0
LWPOLYLINE
  8
Tungsten
420
8421631
 90
4
 70
1
 10
0.021285
 20
0.003085
 10
0.021115
 20
0.003085
 10
0.021115
 20
0.002915
 10
0.021285
 20
0.002915
  0
LWPOLYLINE
  8
Tungsten
420
8421631
 90
4
 70
1
 10
0.024885
 20
0.003085
 10
0.024715
 20
0.003085
 10
0.024715
 20
0.002915
 10
0.024885
 20
0.002915
  0
LWPOLYLINE
  8
Titanium_Silicide
420
4210752
 90
4
 70
1
 10
0.005400
 20
0.003200
 10
0.005000
 20
0.003200
 10
0.005000
 20
0.002800
 10
0.005400
 20
0.002800
  0
LWPOLYLINE
  8
Titanium_Silicide
420
4210752
 90
4
 70
1
 10
0.009000
 20
0.003200
 10
0.008600
 20
0.003200
 10
0.008600
 20
0.002800
 10
0.009000
 20
0.002800
  0
LWPOLYLINE
  8
Titanium_Silicide
420
4210752
 90
4
 70
1
 10
0.013400
 20
0.003200
 10
0.013000
 20
0.003200
 10
0.013000
 20
0.002800
 10
0.013400
 20
0.002800
  0
LWPOLYLINE
  8
Titanium_Silicide
420
4210752
 90
4
 70
1
 10
0.017000
 20
0.003200
 10
0.016600
 20
0.003200
 10
0.016600
 20
0.002800
 10
0.017000
 20
0.002800
  0
LWPOLYLINE
  8
Titanium_Silicide
420
4210752
 90
4
 70
1
 10
0.021400
 20
0.003200
 10
0.021000
 20
0.003200
 10
0.021000
 20
0.002800
 10
0.021400
 20
0.002800
  0
LWPOLYLINE
  8
Titanium_Silicide
420
4210752
 90
4
 70
1
 10
0.025000
 20
0.003200
 10
0.024600
 20
0.003200
 10
0.024600
 20
0.002800
 10
0.025000
 20
0.002800
  0
LWPOLYLINE
  8
Tungsten
420
8421631
 90
4
 70
1
 10
0.005285
 20
0.003085
 10
0.005115
 20
0.003085
 10
0.005115
 20
0.002915
 10
0.005285
 20
0.002915
  0
LWPOLYLINE
  8
Tungsten
420
8421631
 90
4
 70
1
 10
0.008885
 20
0.003085
 10
0.008715
 20
0.003085
 10
0.008715
 20
0.002915
 10
0.008885
 20
0.002915
  0
LWPOLYLINE
  8
Tungsten
420
8421631
 90
4
 70
1
 10
0.013285
 20
0.003085
 10
0.013115
 20
0.003085
 10
0.013115
 20
0.002915
 10
0.013285
 20
0.002915
  0
LWPOLYLINE
  8
Tungsten
420
8421631
 90
4
 70
1
 10
0.016885
 20
0.003085
 10
0.016715
 20
0.003085
 10
0.016715
 20
0.002915
 10
0.016885
 20
0.002915
  0
LWPOLYLINE
  8
Tungsten
420
8421631
 90
4
 70
1
 10
0.021285
 20
0.003085
 10
0.021115
 20
0.003085
 10
0.021115
 20
0.002915
 10
0.021285
 20
0.002915
  0
LWPOLYLINE
  8
Tungsten
420
8421631
 90
4
 70
1
 10
0.024885
 20
0.003085
 10
0.024715
 20
0.003085
 10
0.024715
 20
0.002915
 10
0.024885
 20
0.002915
  0
LWPOLYLINE
  8
Tungsten
420
8421631
 90
4
 70
1
 10
0.005285
 20
0.003085
 10
0.005115
 20
0.003085
 10
0.005115
 20
0.002915
 10
0.005285
 20
0.002915
  0
LWPOLYLINE
  8
Tungsten
420
8421631
 90
4
 70
1
 10
0.008885
 20
0.003085
 10
0.008715
 20
0.003085
 10
0.008715
 20
0.002915
 10
0.008885
 20
0.002915
  0
LWPOLYLINE
  8
Tungsten
420
8421631
 90
4
 70
1
 10
0.013285
 20
0.003085
 10
0.013115
 20
0.003085
 10
0.013115
 20
0.002915
 10
0.013285
 20
0.002915
  0
LWPOLYLINE
  8
Tungsten
420
8421631
 90
4
 70
1
 10
0.016885
 20
0.003085
 10
0.016715
 20
0.003085
 10
0.016715
 20
0.002915
 10
0.016885
 20
0.002915
  0
LWPOLYLINE
  8
Tungsten
420
8421631
 90
4
 70
1
 10
0.021285
 20
0.003085
 10
0.021115
 20
0.003085
 10
0.021115
 20
0.002915
 10
0.021285
 20
0.002915
  0
LWPOLYLINE
  8
Tungsten
420
8421631
 90
4
 70
1
 10
0.024885
 20
0.003085
 10
0.024715
 20
0.003085
 10
0.024715
 20
0.002915
 10
0.024885
 20
0.002915
  0
LWPOLYLINE
  8
Tungsten
420
8421631
 90
4
 70
1
 10
0.005285
 20
0.003085
 10
0.005115
 20
0.003085
 10
0.005115
 20
0.002915
 10
0.005285
 20
0.002915
  0
LWPOLYLINE
  8
Tungsten
420
8421631
 90
4
 70
1
 10
0.008885
 20
0.003085
 10
0.008715
 20
0.003085
 10
0.008715
 20
0.002915
 10
0.008885
 20
0.002915
  0
LWPOLYLINE
  8
Tungsten
420
8421631
 90
4
 70
1
 10
0.013285
 20
0.003085
 10
0.013115
 20
0.003085
 10
0.013115
 20
0.002915
 10
0.013285
 20
0.002915
  0
LWPOLYLINE
  8
Tungsten
420
8421631
 90
4
 70
1
 10
0.016885
 20
0.003085
 10
0.016715
 20
0.003085
 10
0.016715
 20
0.002915
 10
0.016885
 20
0.002915
  0
LWPOLYLINE
  8
Tungsten
420
8421631
 90
4
 70
1
 10
0.021285
 20
0.003085
 10
0.021115
 20
0.003085
 10
0.021115
 20
0.002915
 10
0.021285
 20
0.002915
  0
LWPOLYLINE
  8
Tungsten
420
8421631
 90
4
 70
1
 10
0.024885
 20
0.003085
 10
0.024715
 20
0.003085
 10
0.024715
 20
0.002915
 10
0.024885
 20
0.002915
  0
LWPOLYLINE
  8
Aluminum
420
12632256
 90
4
 70
1
 10
0.005400
 20
0.003200
 10
0.005000
 20
0.003200
 10
0.005000
 20
0.002800
 10
0.005400
 20
0.002800
  0
LWPOLYLINE
  8
Aluminum
420
12632256
 90
4
 70
1
 10
0.009000
 20
0.003200
 10
0.008600
 20
0.003200
 10
0.008600
 20
0.002800
 10
0.009000
 20
0.002800
  0
LWPOLYLINE
  8
Aluminum
420
12632256
 90
4
 70
1
 10
0.013400
 20
0.003200
 10
0.013000
 20
0.003200
 10
0.013000
 20
0.002800
 10
0.013400
 20
0.002800
  0
LWPOLYLINE
  8
Aluminum
420
12632256
 90
4
 70
1
 10
0.017000
 20
0.003200
 10
0.016600
 20
0.003200
 10
0.016600
 20
0.002800
 10
0.017000
 20
0.002800
  0
LWPOLYLINE
  8
Aluminum
420
12632256
 90
4
 70
1
 10
0.021400
 20
0.003200
 10
0.021000
 20
0.003200
 10
0.021000
 20
0.002800
 10
0.021400
 20
0.002800
  0
LWPOLYLINE
  8
Aluminum
420
12632256
 90
4
 70
1
 10
0.025000
 20
0.003200
 10
0.024600
 20
0.003200
 10
0.024600
 20
0.002800
 10
0.025000
 20
0.002800
  0
LWPOLYLINE
  8
Resistor_Poly_Mask
420
16728128
 90
4
 70
1
 10
0.000000
 20
0.000000
 10
0.030000
 20
0.000000
 10
0.030000
 20
0.015000
 10
0.000000
 20
0.015000
  0
LWPOLYLINE
  8
Silicon_Dioxide
420
14739711
 90
4
 70
1
 10
0.000000
 20
0.000000
 10
0.030000
 20
0.000000
 10
0.030000
 20
0.015000
 10
0.000000
 20
0.015000
  0
LWPOLYLINE
  8
Silicon_Dioxide
420
14739711
 90
4
 70
1
 10
0.000000
 20
0.000000
 10
0.030000
 20
0.000000
 10
0.030000
 20
0.015000
 10
0.000000
 20
0.015000
  0
ENDSEC
  0
EOF
