  0
SECTION
  2
HEADER
  9
$ACADVER
  1
AC1018
  0
ENDSEC
  0
SECTION
  2
TABLES
  0
TABLE
  2
LAYER
  0
LAYER
  2
Tap_Mask
 70
0
 62
7
  0
LAYER
  2
P_Plus_Implant_Mask
 70
0
 62
7
  0
LAYER
  2
P_Plus_Diffusion
 70
0
 62
7
  0
LAYER
  2
Polysilicon
 70
0
 62
7
  0
LAYER
  2
Resistor_Poly_Mask
 70
0
 62
7
  0
LAYER
  2
Silicon_Dioxide
 70
0
 62
7
  0
LAYER
  2
Titanium_Silicide
 70
0
 62
7
  0
LAYER
  2
Aluminum
 70
0
 62
7
  0
LAYER
  2
Pad_Mask
 70
0
 62
7
  0
LAYER
  2
Tungsten
 70
0
 62
7
  0
ENDTAB
  0
ENDSEC
  0
SECTION
  2
ENTITIES
  0
LWPOLYLINE
  8
P_Plus_Diffusion
420
8454016
 90
4
 70
1
 10
0.007200
 20
0.007700
 10
0.006800
 20
0.007700
 10
0.006800
 20
0.007300
 10
0.007200
 20
0.007300
  0
LWPOLYLINE
  8
P_Plus_Diffusion
420
8454016
 90
4
 70
1
 10
0.015200
 20
0.007700
 10
0.014800
 20
0.007700
 10
0.014800
 20
0.007300
 10
0.015200
 20
0.007300
  0
LWPOLYLINE
  8
P_Plus_Diffusion
420
8454016
 90
4
 70
1
 10
0.023200
 20
0.007700
 10
0.022800
 20
0.007700
 10
0.022800
 20
0.007300
 10
0.023200
 20
0.007300
  0
LWPOLYLINE
  8
Tungsten
420
8421631
 90
4
 70
1
 10
0.007125
 20
0.007625
 10
0.006875
 20
0.007625
 10
0.006875
 20
0.007375
 10
0.007125
 20
0.007375
  0
LWPOLYLINE
  8
Tungsten
420
8421631
 90
4
 70
1
 10
0.015125
 20
0.007625
 10
0.014875
 20
0.007625
 10
0.014875
 20
0.007375
 10
0.015125
 20
0.007375
  0
LWPOLYLINE
  8
Tungsten
420
8421631
 90
4
 70
1
 10
0.023125
 20
0.007625
 10
0.022875
 20
0.007625
 10
0.022875
 20
0.007375
 10
0.023125
 20
0.007375
  0
LWPOLYLINE
  8
Polysilicon
420
16736352
 90
4
 70
1
 10
0.009000
 20
0.006425
 10
0.005000
 20
0.006425
 10
0.005000
 20
0.003575
 10
0.009000
 20
0.003575
  0
LWPOLYLINE
  8
Polysilicon
420
16736352
 90
4
 70
1
 10
0.017000
 20
0.005705
 10
0.013000
 20
0.005705
 10
0.013000
 20
0.004295
 10
0.017000
 20
0.004295
  0
LWPOLYLINE
  8
Polysilicon
420
16736352
 90
4
 70
1
 10
0.025000
 20
0.005345
 10
0.021000
 20
0.005345
 10
0.021000
 20
0.004655
 10
0.025000
 20
0.004655
  0
LWPOLYLINE
  8
Tungsten
420
8421631
 90
4
 70
1
 10
0.007125
 20
0.007625
 10
0.006875
 20
0.007625
 10
0.006875
 20
0.007375
 10
0.007125
 20
0.007375
  0
LWPOLYLINE
  8
Tungsten
420
8421631
 90
4
 70
1
 10
0.015125
 20
0.007625
 10
0.014875
 20
0.007625
 10
0.014875
 20
0.007375
 10
0.015125
 20
0.007375
  0
LWPOLYLINE
  8
Tungsten
420
8421631
 90
4
 70
1
 10
0.023125
 20
0.007625
 10
0.022875
 20
0.007625
 10
0.022875
 20
0.007375
 10
0.023125
 20
0.007375
  0
LWPOLYLINE
  8
Tungsten
420
8421631
 90
4
 70
1
 10
0.005325
 20
0.005525
 10
0.005075
 20
0.005525
 10
0.005075
 20
0.005275
 10
0.005325
 20
0.005275
  0
LWPOLYLINE
  8
Tungsten
420
8421631
 90
4
 70
1
 10
0.005325
 20
0.005125
 10
0.005075
 20
0.005125
 10
0.005075
 20
0.004875
 10
0.005325
 20
0.004875
  0
LWPOLYLINE
  8
Tungsten
420
8421631
 90
4
 70
1
 10
0.005325
 20
0.004725
 10
0.005075
 20
0.004725
 10
0.005075
 20
0.004475
 10
0.005325
 20
0.004475
  0
LWPOLYLINE
  8
Tungsten
420
8421631
 90
4
 70
1
 10
0.008925
 20
0.005525
 10
0.008675
 20
0.005525
 10
0.008675
 20
0.005275
 10
0.008925
 20
0.005275
  0
LWPOLYLINE
  8
Tungsten
420
8421631
 90
4
 70
1
 10
0.008925
 20
0.005125
 10
0.008675
 20
0.005125
 10
0.008675
 20
0.004875
 10
0.008925
 20
0.004875
  0
LWPOLYLINE
  8
Tungsten
420
8421631
 90
4
 70
1
 10
0.008925
 20
0.004725
 10
0.008675
 20
0.004725
 10
0.008675
 20
0.004475
 10
0.008925
 20
0.004475
  0
LWPOLYLINE
  8
Tungsten
420
8421631
 90
4
 70
1
 10
0.013325
 20
0.005525
 10
0.013075
 20
0.005525
 10
0.013075
 20
0.005275
 10
0.013325
 20
0.005275
  0
LWPOLYLINE
  8
Tungsten
420
8421631
 90
4
 70
1
 10
0.013325
 20
0.005125
 10
0.013075
 20
0.005125
 10
0.013075
 20
0.004875
 10
0.013325
 20
0.004875
  0
LWPOLYLINE
  8
Tungsten
420
8421631
 90
4
 70
1
 10
0.013325
 20
0.004725
 10
0.013075
 20
0.004725
 10
0.013075
 20
0.004475
 10
0.013325
 20
0.004475
  0
LWPOLYLINE
  8
Tungsten
420
8421631
 90
4
 70
1
 10
0.016925
 20
0.005525
 10
0.016675
 20
0.005525
 10
0.016675
 20
0.005275
 10
0.016925
 20
0.005275
  0
LWPOLYLINE
  8
Tungsten
420
8421631
 90
4
 70
1
 10
0.016925
 20
0.005125
 10
0.016675
 20
0.005125
 10
0.016675
 20
0.004875
 10
0.016925
 20
0.004875
  0
LWPOLYLINE
  8
Tungsten
420
8421631
 90
4
 70
1
 10
0.016925
 20
0.004725
 10
0.016675
 20
0.004725
 10
0.016675
 20
0.004475
 10
0.016925
 20
0.004475
  0
LWPOLYLINE
  8
Tungsten
420
8421631
 90
4
 70
1
 10
0.021325
 20
0.005525
 10
0.021075
 20
0.005525
 10
0.021075
 20
0.005275
 10
0.021325
 20
0.005275
  0
LWPOLYLINE
  8
Tungsten
420
8421631
 90
4
 70
1
 10
0.021325
 20
0.005125
 10
0.021075
 20
0.005125
 10
0.021075
 20
0.004875
 10
0.021325
 20
0.004875
  0
LWPOLYLINE
  8
Tungsten
420
8421631
 90
4
 70
1
 10
0.021325
 20
0.004725
 10
0.021075
 20
0.004725
 10
0.021075
 20
0.004475
 10
0.021325
 20
0.004475
  0
LWPOLYLINE
  8
Tungsten
420
8421631
 90
4
 70
1
 10
0.024925
 20
0.005525
 10
0.024675
 20
0.005525
 10
0.024675
 20
0.005275
 10
0.024925
 20
0.005275
  0
LWPOLYLINE
  8
Tungsten
420
8421631
 90
4
 70
1
 10
0.024925
 20
0.005125
 10
0.024675
 20
0.005125
 10
0.024675
 20
0.004875
 10
0.024925
 20
0.004875
  0
LWPOLYLINE
  8
Tungsten
420
8421631
 90
4
 70
1
 10
0.024925
 20
0.004725
 10
0.024675
 20
0.004725
 10
0.024675
 20
0.004475
 10
0.024925
 20
0.004475
  0
LWPOLYLINE
  8
Tungsten
420
8421631
 90
4
 70
1
 10
0.005325
 20
0.005525
 10
0.005075
 20
0.005525
 10
0.005075
 20
0.005275
 10
0.005325
 20
0.005275
  0
LWPOLYLINE
  8
Tungsten
420
8421631
 90
4
 70
1
 10
0.005325
 20
0.005125
 10
0.005075
 20
0.005125
 10
0.005075
 20
0.004875
 10
0.005325
 20
0.004875
  0
LWPOLYLINE
  8
Tungsten
420
8421631
 90
4
 70
1
 10
0.005325
 20
0.004725
 10
0.005075
 20
0.004725
 10
0.005075
 20
0.004475
 10
0.005325
 20
0.004475
  0
LWPOLYLINE
  8
Tungsten
420
8421631
 90
4
 70
1
 10
0.008925
 20
0.005525
 10
0.008675
 20
0.005525
 10
0.008675
 20
0.005275
 10
0.008925
 20
0.005275
  0
LWPOLYLINE
  8
Tungsten
420
8421631
 90
4
 70
1
 10
0.008925
 20
0.005125
 10
0.008675
 20
0.005125
 10
0.008675
 20
0.004875
 10
0.008925
 20
0.004875
  0
LWPOLYLINE
  8
Tungsten
420
8421631
 90
4
 70
1
 10
0.008925
 20
0.004725
 10
0.008675
 20
0.004725
 10
0.008675
 20
0.004475
 10
0.008925
 20
0.004475
  0
LWPOLYLINE
  8
Tungsten
420
8421631
 90
4
 70
1
 10
0.013325
 20
0.005525
 10
0.013075
 20
0.005525
 10
0.013075
 20
0.005275
 10
0.013325
 20
0.005275
  0
LWPOLYLINE
  8
Tungsten
420
8421631
 90
4
 70
1
 10
0.013325
 20
0.005125
 10
0.013075
 20
0.005125
 10
0.013075
 20
0.004875
 10
0.013325
 20
0.004875
  0
LWPOLYLINE
  8
Tungsten
420
8421631
 90
4
 70
1
 10
0.013325
 20
0.004725
 10
0.013075
 20
0.004725
 10
0.013075
 20
0.004475
 10
0.013325
 20
0.004475
  0
LWPOLYLINE
  8
Tungsten
420
8421631
 90
4
 70
1
 10
0.016925
 20
0.005525
 10
0.016675
 20
0.005525
 10
0.016675
 20
0.005275
 10
0.016925
 20
0.005275
  0
LWPOLYLINE
  8
Tungsten
420
8421631
 90
4
 70
1
 10
0.016925
 20
0.005125
 10
0.016675
 20
0.005125
 10
0.016675
 20
0.004875
 10
0.016925
 20
0.004875
  0
LWPOLYLINE
  8
Tungsten
420
8421631
 90
4
 70
1
 10
0.016925
 20
0.004725
 10
0.016675
 20
0.004725
 10
0.016675
 20
0.004475
 10
0.016925
 20
0.004475
  0
LWPOLYLINE
  8
Tungsten
420
8421631
 90
4
 70
1
 10
0.021325
 20
0.005525
 10
0.021075
 20
0.005525
 10
0.021075
 20
0.005275
 10
0.021325
 20
0.005275
  0
LWPOLYLINE
  8
Tungsten
420
8421631
 90
4
 70
1
 10
0.021325
 20
0.005125
 10
0.021075
 20
0.005125
 10
0.021075
 20
0.004875
 10
0.021325
 20
0.004875
  0
LWPOLYLINE
  8
Tungsten
420
8421631
 90
4
 70
1
 10
0.021325
 20
0.004725
 10
0.021075
 20
0.004725
 10
0.021075
 20
0.004475
 10
0.021325
 20
0.004475
  0
LWPOLYLINE
  8
Tungsten
420
8421631
 90
4
 70
1
 10
0.024925
 20
0.005525
 10
0.024675
 20
0.005525
 10
0.024675
 20
0.005275
 10
0.024925
 20
0.005275
  0
LWPOLYLINE
  8
Tungsten
420
8421631
 90
4
 70
1
 10
0.024925
 20
0.005125
 10
0.024675
 20
0.005125
 10
0.024675
 20
0.004875
 10
0.024925
 20
0.004875
  0
LWPOLYLINE
  8
Tungsten
420
8421631
 90
4
 70
1
 10
0.024925
 20
0.004725
 10
0.024675
 20
0.004725
 10
0.024675
 20
0.004475
 10
0.024925
 20
0.004475
  0
LWPOLYLINE
  8
Tungsten
420
8421631
 90
4
 70
1
 10
0.007125
 20
0.007625
 10
0.006875
 20
0.007625
 10
0.006875
 20
0.007375
 10
0.007125
 20
0.007375
  0
LWPOLYLINE
  8
Tungsten
420
8421631
 90
4
 70
1
 10
0.015125
 20
0.007625
 10
0.014875
 20
0.007625
 10
0.014875
 20
0.007375
 10
0.015125
 20
0.007375
  0
LWPOLYLINE
  8
Tungsten
420
8421631
 90
4
 70
1
 10
0.023125
 20
0.007625
 10
0.022875
 20
0.007625
 10
0.022875
 20
0.007375
 10
0.023125
 20
0.007375
  0
LWPOLYLINE
  8
Tungsten
420
8421631
 90
4
 70
1
 10
0.005325
 20
0.005525
 10
0.005075
 20
0.005525
 10
0.005075
 20
0.005275
 10
0.005325
 20
0.005275
  0
LWPOLYLINE
  8
Tungsten
420
8421631
 90
4
 70
1
 10
0.005325
 20
0.005125
 10
0.005075
 20
0.005125
 10
0.005075
 20
0.004875
 10
0.005325
 20
0.004875
  0
LWPOLYLINE
  8
Tungsten
420
8421631
 90
4
 70
1
 10
0.005325
 20
0.004725
 10
0.005075
 20
0.004725
 10
0.005075
 20
0.004475
 10
0.005325
 20
0.004475
  0
LWPOLYLINE
  8
Tungsten
420
8421631
 90
4
 70
1
 10
0.008925
 20
0.005525
 10
0.008675
 20
0.005525
 10
0.008675
 20
0.005275
 10
0.008925
 20
0.005275
  0
LWPOLYLINE
  8
Tungsten
420
8421631
 90
4
 70
1
 10
0.008925
 20
0.005125
 10
0.008675
 20
0.005125
 10
0.008675
 20
0.004875
 10
0.008925
 20
0.004875
  0
LWPOLYLINE
  8
Tungsten
420
8421631
 90
4
 70
1
 10
0.008925
 20
0.004725
 10
0.008675
 20
0.004725
 10
0.008675
 20
0.004475
 10
0.008925
 20
0.004475
  0
LWPOLYLINE
  8
Tungsten
420
8421631
 90
4
 70
1
 10
0.013325
 20
0.005525
 10
0.013075
 20
0.005525
 10
0.013075
 20
0.005275
 10
0.013325
 20
0.005275
  0
LWPOLYLINE
  8
Tungsten
420
8421631
 90
4
 70
1
 10
0.013325
 20
0.005125
 10
0.013075
 20
0.005125
 10
0.013075
 20
0.004875
 10
0.013325
 20
0.004875
  0
LWPOLYLINE
  8
Tungsten
420
8421631
 90
4
 70
1
 10
0.013325
 20
0.004725
 10
0.013075
 20
0.004725
 10
0.013075
 20
0.004475
 10
0.013325
 20
0.004475
  0
LWPOLYLINE
  8
Tungsten
420
8421631
 90
4
 70
1
 10
0.016925
 20
0.005525
 10
0.016675
 20
0.005525
 10
0.016675
 20
0.005275
 10
0.016925
 20
0.005275
  0
LWPOLYLINE
  8
Tungsten
420
8421631
 90
4
 70
1
 10
0.016925
 20
0.005125
 10
0.016675
 20
0.005125
 10
0.016675
 20
0.004875
 10
0.016925
 20
0.004875
  0
LWPOLYLINE
  8
Tungsten
420
8421631
 90
4
 70
1
 10
0.016925
 20
0.004725
 10
0.016675
 20
0.004725
 10
0.016675
 20
0.004475
 10
0.016925
 20
0.004475
  0
LWPOLYLINE
  8
Tungsten
420
8421631
 90
4
 70
1
 10
0.021325
 20
0.005525
 10
0.021075
 20
0.005525
 10
0.021075
 20
0.005275
 10
0.021325
 20
0.005275
  0
LWPOLYLINE
  8
Tungsten
420
8421631
 90
4
 70
1
 10
0.021325
 20
0.005125
 10
0.021075
 20
0.005125
 10
0.021075
 20
0.004875
 10
0.021325
 20
0.004875
  0
LWPOLYLINE
  8
Tungsten
420
8421631
 90
4
 70
1
 10
0.021325
 20
0.004725
 10
0.021075
 20
0.004725
 10
0.021075
 20
0.004475
 10
0.021325
 20
0.004475
  0
LWPOLYLINE
  8
Tungsten
420
8421631
 90
4
 70
1
 10
0.024925
 20
0.005525
 10
0.024675
 20
0.005525
 10
0.024675
 20
0.005275
 10
0.024925
 20
0.005275
  0
LWPOLYLINE
  8
Tungsten
420
8421631
 90
4
 70
1
 10
0.024925
 20
0.005125
 10
0.024675
 20
0.005125
 10
0.024675
 20
0.004875
 10
0.024925
 20
0.004875
  0
LWPOLYLINE
  8
Tungsten
420
8421631
 90
4
 70
1
 10
0.024925
 20
0.004725
 10
0.024675
 20
0.004725
 10
0.024675
 20
0.004475
 10
0.024925
 20
0.004475
  0
LWPOLYLINE
  8
Tungsten
420
8421631
 90
4
 70
1
 10
0.007125
 20
0.007625
 10
0.006875
 20
0.007625
 10
0.006875
 20
0.007375
 10
0.007125
 20
0.007375
  0
LWPOLYLINE
  8
Tungsten
420
8421631
 90
4
 70
1
 10
0.015125
 20
0.007625
 10
0.014875
 20
0.007625
 10
0.014875
 20
0.007375
 10
0.015125
 20
0.007375
  0
LWPOLYLINE
  8
Tungsten
420
8421631
 90
4
 70
1
 10
0.023125
 20
0.007625
 10
0.022875
 20
0.007625
 10
0.022875
 20
0.007375
 10
0.023125
 20
0.007375
  0
LWPOLYLINE
  8
Titanium_Silicide
420
4210752
 90
4
 70
1
 10
0.005400
 20
0.006425
 10
0.005000
 20
0.006425
 10
0.005000
 20
0.003575
 10
0.005400
 20
0.003575
  0
LWPOLYLINE
  8
Titanium_Silicide
420
4210752
 90
4
 70
1
 10
0.009000
 20
0.006425
 10
0.008600
 20
0.006425
 10
0.008600
 20
0.003575
 10
0.009000
 20
0.003575
  0
LWPOLYLINE
  8
Titanium_Silicide
420
4210752
 90
4
 70
1
 10
0.013400
 20
0.005705
 10
0.013000
 20
0.005705
 10
0.013000
 20
0.004295
 10
0.013400
 20
0.004295
  0
LWPOLYLINE
  8
Titanium_Silicide
420
4210752
 90
4
 70
1
 10
0.017000
 20
0.005705
 10
0.016600
 20
0.005705
 10
0.016600
 20
0.004295
 10
0.017000
 20
0.004295
  0
LWPOLYLINE
  8
Titanium_Silicide
420
4210752
 90
4
 70
1
 10
0.021400
 20
0.005345
 10
0.021000
 20
0.005345
 10
0.021000
 20
0.004655
 10
0.021400
 20
0.004655
  0
LWPOLYLINE
  8
Titanium_Silicide
420
4210752
 90
4
 70
1
 10
0.025000
 20
0.005345
 10
0.024600
 20
0.005345
 10
0.024600
 20
0.004655
 10
0.025000
 20
0.004655
  0
LWPOLYLINE
  8
Titanium_Silicide
420
4210752
 90
4
 70
1
 10
0.007200
 20
0.007700
 10
0.006800
 20
0.007700
 10
0.006800
 20
0.007300
 10
0.007200
 20
0.007300
  0
LWPOLYLINE
  8
Titanium_Silicide
420
4210752
 90
4
 70
1
 10
0.015200
 20
0.007700
 10
0.014800
 20
0.007700
 10
0.014800
 20
0.007300
 10
0.015200
 20
0.007300
  0
LWPOLYLINE
  8
Titanium_Silicide
420
4210752
 90
4
 70
1
 10
0.023200
 20
0.007700
 10
0.022800
 20
0.007700
 10
0.022800
 20
0.007300
 10
0.023200
 20
0.007300
  0
LWPOLYLINE
  8
Tungsten
420
8421631
 90
4
 70
1
 10
0.005325
 20
0.005525
 10
0.005075
 20
0.005525
 10
0.005075
 20
0.005275
 10
0.005325
 20
0.005275
  0
LWPOLYLINE
  8
Tungsten
420
8421631
 90
4
 70
1
 10
0.005325
 20
0.005125
 10
0.005075
 20
0.005125
 10
0.005075
 20
0.004875
 10
0.005325
 20
0.004875
  0
LWPOLYLINE
  8
Tungsten
420
8421631
 90
4
 70
1
 10
0.005325
 20
0.004725
 10
0.005075
 20
0.004725
 10
0.005075
 20
0.004475
 10
0.005325
 20
0.004475
  0
LWPOLYLINE
  8
Tungsten
420
8421631
 90
4
 70
1
 10
0.008925
 20
0.005525
 10
0.008675
 20
0.005525
 10
0.008675
 20
0.005275
 10
0.008925
 20
0.005275
  0
LWPOLYLINE
  8
Tungsten
420
8421631
 90
4
 70
1
 10
0.008925
 20
0.005125
 10
0.008675
 20
0.005125
 10
0.008675
 20
0.004875
 10
0.008925
 20
0.004875
  0
LWPOLYLINE
  8
Tungsten
420
8421631
 90
4
 70
1
 10
0.008925
 20
0.004725
 10
0.008675
 20
0.004725
 10
0.008675
 20
0.004475
 10
0.008925
 20
0.004475
  0
LWPOLYLINE
  8
Tungsten
420
8421631
 90
4
 70
1
 10
0.013325
 20
0.005525
 10
0.013075
 20
0.005525
 10
0.013075
 20
0.005275
 10
0.013325
 20
0.005275
  0
LWPOLYLINE
  8
Tungsten
420
8421631
 90
4
 70
1
 10
0.013325
 20
0.005125
 10
0.013075
 20
0.005125
 10
0.013075
 20
0.004875
 10
0.013325
 20
0.004875
  0
LWPOLYLINE
  8
Tungsten
420
8421631
 90
4
 70
1
 10
0.013325
 20
0.004725
 10
0.013075
 20
0.004725
 10
0.013075
 20
0.004475
 10
0.013325
 20
0.004475
  0
LWPOLYLINE
  8
Tungsten
420
8421631
 90
4
 70
1
 10
0.016925
 20
0.005525
 10
0.016675
 20
0.005525
 10
0.016675
 20
0.005275
 10
0.016925
 20
0.005275
  0
LWPOLYLINE
  8
Tungsten
420
8421631
 90
4
 70
1
 10
0.016925
 20
0.005125
 10
0.016675
 20
0.005125
 10
0.016675
 20
0.004875
 10
0.016925
 20
0.004875
  0
LWPOLYLINE
  8
Tungsten
420
8421631
 90
4
 70
1
 10
0.016925
 20
0.004725
 10
0.016675
 20
0.004725
 10
0.016675
 20
0.004475
 10
0.016925
 20
0.004475
  0
LWPOLYLINE
  8
Tungsten
420
8421631
 90
4
 70
1
 10
0.021325
 20
0.005525
 10
0.021075
 20
0.005525
 10
0.021075
 20
0.005275
 10
0.021325
 20
0.005275
  0
LWPOLYLINE
  8
Tungsten
420
8421631
 90
4
 70
1
 10
0.021325
 20
0.005125
 10
0.021075
 20
0.005125
 10
0.021075
 20
0.004875
 10
0.021325
 20
0.004875
  0
LWPOLYLINE
  8
Tungsten
420
8421631
 90
4
 70
1
 10
0.021325
 20
0.004725
 10
0.021075
 20
0.004725
 10
0.021075
 20
0.004475
 10
0.021325
 20
0.004475
  0
LWPOLYLINE
  8
Tungsten
420
8421631
 90
4
 70
1
 10
0.024925
 20
0.005525
 10
0.024675
 20
0.005525
 10
0.024675
 20
0.005275
 10
0.024925
 20
0.005275
  0
LWPOLYLINE
  8
Tungsten
420
8421631
 90
4
 70
1
 10
0.024925
 20
0.005125
 10
0.024675
 20
0.005125
 10
0.024675
 20
0.004875
 10
0.024925
 20
0.004875
  0
LWPOLYLINE
  8
Tungsten
420
8421631
 90
4
 70
1
 10
0.024925
 20
0.004725
 10
0.024675
 20
0.004725
 10
0.024675
 20
0.004475
 10
0.024925
 20
0.004475
  0
LWPOLYLINE
  8
Tungsten
420
8421631
 90
4
 70
1
 10
0.007125
 20
0.007625
 10
0.006875
 20
0.007625
 10
0.006875
 20
0.007375
 10
0.007125
 20
0.007375
  0
LWPOLYLINE
  8
Tungsten
420
8421631
 90
4
 70
1
 10
0.015125
 20
0.007625
 10
0.014875
 20
0.007625
 10
0.014875
 20
0.007375
 10
0.015125
 20
0.007375
  0
LWPOLYLINE
  8
Tungsten
420
8421631
 90
4
 70
1
 10
0.023125
 20
0.007625
 10
0.022875
 20
0.007625
 10
0.022875
 20
0.007375
 10
0.023125
 20
0.007375
  0
LWPOLYLINE
  8
Tungsten
420
8421631
 90
4
 70
1
 10
0.005325
 20
0.005525
 10
0.005075
 20
0.005525
 10
0.005075
 20
0.005275
 10
0.005325
 20
0.005275
  0
LWPOLYLINE
  8
Tungsten
420
8421631
 90
4
 70
1
 10
0.005325
 20
0.005125
 10
0.005075
 20
0.005125
 10
0.005075
 20
0.004875
 10
0.005325
 20
0.004875
  0
LWPOLYLINE
  8
Tungsten
420
8421631
 90
4
 70
1
 10
0.005325
 20
0.004725
 10
0.005075
 20
0.004725
 10
0.005075
 20
0.004475
 10
0.005325
 20
0.004475
  0
LWPOLYLINE
  8
Tungsten
420
8421631
 90
4
 70
1
 10
0.008925
 20
0.005525
 10
0.008675
 20
0.005525
 10
0.008675
 20
0.005275
 10
0.008925
 20
0.005275
  0
LWPOLYLINE
  8
Tungsten
420
8421631
 90
4
 70
1
 10
0.008925
 20
0.005125
 10
0.008675
 20
0.005125
 10
0.008675
 20
0.004875
 10
0.008925
 20
0.004875
  0
LWPOLYLINE
  8
Tungsten
420
8421631
 90
4
 70
1
 10
0.008925
 20
0.004725
 10
0.008675
 20
0.004725
 10
0.008675
 20
0.004475
 10
0.008925
 20
0.004475
  0
LWPOLYLINE
  8
Tungsten
420
8421631
 90
4
 70
1
 10
0.013325
 20
0.005525
 10
0.013075
 20
0.005525
 10
0.013075
 20
0.005275
 10
0.013325
 20
0.005275
  0
LWPOLYLINE
  8
Tungsten
420
8421631
 90
4
 70
1
 10
0.013325
 20
0.005125
 10
0.013075
 20
0.005125
 10
0.013075
 20
0.004875
 10
0.013325
 20
0.004875
  0
LWPOLYLINE
  8
Tungsten
420
8421631
 90
4
 70
1
 10
0.013325
 20
0.004725
 10
0.013075
 20
0.004725
 10
0.013075
 20
0.004475
 10
0.013325
 20
0.004475
  0
LWPOLYLINE
  8
Tungsten
420
8421631
 90
4
 70
1
 10
0.016925
 20
0.005525
 10
0.016675
 20
0.005525
 10
0.016675
 20
0.005275
 10
0.016925
 20
0.005275
  0
LWPOLYLINE
  8
Tungsten
420
8421631
 90
4
 70
1
 10
0.016925
 20
0.005125
 10
0.016675
 20
0.005125
 10
0.016675
 20
0.004875
 10
0.016925
 20
0.004875
  0
LWPOLYLINE
  8
Tungsten
420
8421631
 90
4
 70
1
 10
0.016925
 20
0.004725
 10
0.016675
 20
0.004725
 10
0.016675
 20
0.004475
 10
0.016925
 20
0.004475
  0
LWPOLYLINE
  8
Tungsten
420
8421631
 90
4
 70
1
 10
0.021325
 20
0.005525
 10
0.021075
 20
0.005525
 10
0.021075
 20
0.005275
 10
0.021325
 20
0.005275
  0
LWPOLYLINE
  8
Tungsten
420
8421631
 90
4
 70
1
 10
0.021325
 20
0.005125
 10
0.021075
 20
0.005125
 10
0.021075
 20
0.004875
 10
0.021325
 20
0.004875
  0
LWPOLYLINE
  8
Tungsten
420
8421631
 90
4
 70
1
 10
0.021325
 20
0.004725
 10
0.021075
 20
0.004725
 10
0.021075
 20
0.004475
 10
0.021325
 20
0.004475
  0
LWPOLYLINE
  8
Tungsten
420
8421631
 90
4
 70
1
 10
0.024925
 20
0.005525
 10
0.024675
 20
0.005525
 10
0.024675
 20
0.005275
 10
0.024925
 20
0.005275
  0
LWPOLYLINE
  8
Tungsten
420
8421631
 90
4
 70
1
 10
0.024925
 20
0.005125
 10
0.024675
 20
0.005125
 10
0.024675
 20
0.004875
 10
0.024925
 20
0.004875
  0
LWPOLYLINE
  8
Tungsten
420
8421631
 90
4
 70
1
 10
0.024925
 20
0.004725
 10
0.024675
 20
0.004725
 10
0.024675
 20
0.004475
 10
0.024925
 20
0.004475
  0
LWPOLYLINE
  8
Tungsten
420
8421631
 90
4
 70
1
 10
0.007125
 20
0.007625
 10
0.006875
 20
0.007625
 10
0.006875
 20
0.007375
 10
0.007125
 20
0.007375
  0
LWPOLYLINE
  8
Tungsten
420
8421631
 90
4
 70
1
 10
0.015125
 20
0.007625
 10
0.014875
 20
0.007625
 10
0.014875
 20
0.007375
 10
0.015125
 20
0.007375
  0
LWPOLYLINE
  8
Tungsten
420
8421631
 90
4
 70
1
 10
0.023125
 20
0.007625
 10
0.022875
 20
0.007625
 10
0.022875
 20
0.007375
 10
0.023125
 20
0.007375
  0
LWPOLYLINE
  8
Tungsten
420
8421631
 90
4
 70
1
 10
0.005325
 20
0.005525
 10
0.005075
 20
0.005525
 10
0.005075
 20
0.005275
 10
0.005325
 20
0.005275
  0
LWPOLYLINE
  8
Tungsten
420
8421631
 90
4
 70
1
 10
0.005325
 20
0.005125
 10
0.005075
 20
0.005125
 10
0.005075
 20
0.004875
 10
0.005325
 20
0.004875
  0
LWPOLYLINE
  8
Tungsten
420
8421631
 90
4
 70
1
 10
0.005325
 20
0.004725
 10
0.005075
 20
0.004725
 10
0.005075
 20
0.004475
 10
0.005325
 20
0.004475
  0
LWPOLYLINE
  8
Tungsten
420
8421631
 90
4
 70
1
 10
0.008925
 20
0.005525
 10
0.008675
 20
0.005525
 10
0.008675
 20
0.005275
 10
0.008925
 20
0.005275
  0
LWPOLYLINE
  8
Tungsten
420
8421631
 90
4
 70
1
 10
0.008925
 20
0.005125
 10
0.008675
 20
0.005125
 10
0.008675
 20
0.004875
 10
0.008925
 20
0.004875
  0
LWPOLYLINE
  8
Tungsten
420
8421631
 90
4
 70
1
 10
0.008925
 20
0.004725
 10
0.008675
 20
0.004725
 10
0.008675
 20
0.004475
 10
0.008925
 20
0.004475
  0
LWPOLYLINE
  8
Tungsten
420
8421631
 90
4
 70
1
 10
0.013325
 20
0.005525
 10
0.013075
 20
0.005525
 10
0.013075
 20
0.005275
 10
0.013325
 20
0.005275
  0
LWPOLYLINE
  8
Tungsten
420
8421631
 90
4
 70
1
 10
0.013325
 20
0.005125
 10
0.013075
 20
0.005125
 10
0.013075
 20
0.004875
 10
0.013325
 20
0.004875
  0
LWPOLYLINE
  8
Tungsten
420
8421631
 90
4
 70
1
 10
0.013325
 20
0.004725
 10
0.013075
 20
0.004725
 10
0.013075
 20
0.004475
 10
0.013325
 20
0.004475
  0
LWPOLYLINE
  8
Tungsten
420
8421631
 90
4
 70
1
 10
0.016925
 20
0.005525
 10
0.016675
 20
0.005525
 10
0.016675
 20
0.005275
 10
0.016925
 20
0.005275
  0
LWPOLYLINE
  8
Tungsten
420
8421631
 90
4
 70
1
 10
0.016925
 20
0.005125
 10
0.016675
 20
0.005125
 10
0.016675
 20
0.004875
 10
0.016925
 20
0.004875
  0
LWPOLYLINE
  8
Tungsten
420
8421631
 90
4
 70
1
 10
0.016925
 20
0.004725
 10
0.016675
 20
0.004725
 10
0.016675
 20
0.004475
 10
0.016925
 20
0.004475
  0
LWPOLYLINE
  8
Tungsten
420
8421631
 90
4
 70
1
 10
0.021325
 20
0.005525
 10
0.021075
 20
0.005525
 10
0.021075
 20
0.005275
 10
0.021325
 20
0.005275
  0
LWPOLYLINE
  8
Tungsten
420
8421631
 90
4
 70
1
 10
0.021325
 20
0.005125
 10
0.021075
 20
0.005125
 10
0.021075
 20
0.004875
 10
0.021325
 20
0.004875
  0
LWPOLYLINE
  8
Tungsten
420
8421631
 90
4
 70
1
 10
0.021325
 20
0.004725
 10
0.021075
 20
0.004725
 10
0.021075
 20
0.004475
 10
0.021325
 20
0.004475
  0
LWPOLYLINE
  8
Tungsten
420
8421631
 90
4
 70
1
 10
0.024925
 20
0.005525
 10
0.024675
 20
0.005525
 10
0.024675
 20
0.005275
 10
0.024925
 20
0.005275
  0
LWPOLYLINE
  8
Tungsten
420
8421631
 90
4
 70
1
 10
0.024925
 20
0.005125
 10
0.024675
 20
0.005125
 10
0.024675
 20
0.004875
 10
0.024925
 20
0.004875
  0
LWPOLYLINE
  8
Tungsten
420
8421631
 90
4
 70
1
 10
0.024925
 20
0.004725
 10
0.024675
 20
0.004725
 10
0.024675
 20
0.004475
 10
0.024925
 20
0.004475
  0
LWPOLYLINE
  8
Tungsten
420
8421631
 90
4
 70
1
 10
0.007125
 20
0.007625
 10
0.006875
 20
0.007625
 10
0.006875
 20
0.007375
 10
0.007125
 20
0.007375
  0
LWPOLYLINE
  8
Tungsten
420
8421631
 90
4
 70
1
 10
0.015125
 20
0.007625
 10
0.014875
 20
0.007625
 10
0.014875
 20
0.007375
 10
0.015125
 20
0.007375
  0
LWPOLYLINE
  8
Tungsten
420
8421631
 90
4
 70
1
 10
0.023125
 20
0.007625
 10
0.022875
 20
0.007625
 10
0.022875
 20
0.007375
 10
0.023125
 20
0.007375
  0
LWPOLYLINE
  8
Aluminum
420
12632256
 90
4
 70
1
 10
0.005400
 20
0.006425
 10
0.005000
 20
0.006425
 10
0.005000
 20
0.003575
 10
0.005400
 20
0.003575
  0
LWPOLYLINE
  8
Aluminum
420
12632256
 90
4
 70
1
 10
0.009000
 20
0.006425
 10
0.008600
 20
0.006425
 10
0.008600
 20
0.003575
 10
0.009000
 20
0.003575
  0
LWPOLYLINE
  8
Aluminum
420
12632256
 90
4
 70
1
 10
0.013400
 20
0.005705
 10
0.013000
 20
0.005705
 10
0.013000
 20
0.004295
 10
0.013400
 20
0.004295
  0
LWPOLYLINE
  8
Aluminum
420
12632256
 90
4
 70
1
 10
0.017000
 20
0.005705
 10
0.016600
 20
0.005705
 10
0.016600
 20
0.004295
 10
0.017000
 20
0.004295
  0
LWPOLYLINE
  8
Aluminum
420
12632256
 90
4
 70
1
 10
0.021400
 20
0.005345
 10
0.021000
 20
0.005345
 10
0.021000
 20
0.004655
 10
0.021400
 20
0.004655
  0
LWPOLYLINE
  8
Aluminum
420
12632256
 90
4
 70
1
 10
0.025000
 20
0.005345
 10
0.024600
 20
0.005345
 10
0.024600
 20
0.004655
 10
0.025000
 20
0.004655
  0
LWPOLYLINE
  8
Aluminum
420
12632256
 90
4
 70
1
 10
0.024000
 20
0.007800
 10
0.006000
 20
0.007800
 10
0.006000
 20
0.007200
 10
0.024000
 20
0.007200
  0
LWPOLYLINE
  8
Silicon_Dioxide
420
14739711
 90
4
 70
1
 10
0.000000
 20
0.000000
 10
0.030000
 20
0.000000
 10
0.030000
 20
0.015000
 10
0.000000
 20
0.015000
  0
LWPOLYLINE
  8
Silicon_Dioxide
420
14739711
 90
4
 70
1
 10
0.000000
 20
0.000000
 10
0.030000
 20
0.000000
 10
0.030000
 20
0.015000
 10
0.000000
 20
0.015000
  0
LWPOLYLINE
  8
Resistor_Poly_Mask
420
16728128
 90
4
 70
1
 10
0.005000
 20
0.003395
 10
0.009000
 20
0.003395
 10
0.009000
 20
0.006605
 10
0.005000
 20
0.006605
  0
LWPOLYLINE
  8
P_Plus_Implant_Mask
420
16744703
 90
4
 70
1
 10
0.004870
 20
0.003445
 10
0.009130
 20
0.003445
 10
0.009130
 20
0.006555
 10
0.004870
 20
0.006555
  0
LWPOLYLINE
  8
Tap_Mask
420
8454016
 90
4
 70
1
 10
0.006800
 20
0.007300
 10
0.007200
 20
0.007300
 10
0.007200
 20
0.007700
 10
0.006800
 20
0.007700
  0
LWPOLYLINE
  8
P_Plus_Implant_Mask
420
16744703
 90
4
 70
1
 10
0.006670
 20
0.007170
 10
0.007330
 20
0.007170
 10
0.007330
 20
0.007830
 10
0.006670
 20
0.007830
  0
LWPOLYLINE
  8
Resistor_Poly_Mask
420
16728128
 90
4
 70
1
 10
0.013000
 20
0.004115
 10
0.017000
 20
0.004115
 10
0.017000
 20
0.005885
 10
0.013000
 20
0.005885
  0
LWPOLYLINE
  8
P_Plus_Implant_Mask
420
16744703
 90
4
 70
1
 10
0.012870
 20
0.004165
 10
0.017130
 20
0.004165
 10
0.017130
 20
0.005835
 10
0.012870
 20
0.005835
  0
LWPOLYLINE
  8
Tap_Mask
420
8454016
 90
4
 70
1
 10
0.014800
 20
0.007300
 10
0.015200
 20
0.007300
 10
0.015200
 20
0.007700
 10
0.014800
 20
0.007700
  0
LWPOLYLINE
  8
P_Plus_Implant_Mask
420
16744703
 90
4
 70
1
 10
0.014670
 20
0.007170
 10
0.015330
 20
0.007170
 10
0.015330
 20
0.007830
 10
0.014670
 20
0.007830
  0
LWPOLYLINE
  8
Resistor_Poly_Mask
420
16728128
 90
4
 70
1
 10
0.021000
 20
0.004475
 10
0.025000
 20
0.004475
 10
0.025000
 20
0.005525
 10
0.021000
 20
0.005525
  0
LWPOLYLINE
  8
P_Plus_Implant_Mask
420
16744703
 90
4
 70
1
 10
0.020870
 20
0.004525
 10
0.025130
 20
0.004525
 10
0.025130
 20
0.005475
 10
0.020870
 20
0.005475
  0
LWPOLYLINE
  8
Tap_Mask
420
8454016
 90
4
 70
1
 10
0.022800
 20
0.007300
 10
0.023200
 20
0.007300
 10
0.023200
 20
0.007700
 10
0.022800
 20
0.007700
  0
LWPOLYLINE
  8
P_Plus_Implant_Mask
420
16744703
 90
4
 70
1
 10
0.022670
 20
0.007170
 10
0.023330
 20
0.007170
 10
0.023330
 20
0.007830
 10
0.022670
 20
0.007830
  0
ENDSEC
  0
EOF
