  0
SECTION
  2
HEADER
  9
$ACADVER
  1
AC1018
  0
ENDSEC
  0
SECTION
  2
TABLES
  0
TABLE
  2
LAYER
  0
LAYER
  2
tap
 70
0
 62
7
  0
LAYER
  2
psdm
 70
0
 62
7
  0
LAYER
  2
pdiff
 70
0
 62
7
  0
LAYER
  2
polyres
 70
0
 62
7
  0
LAYER
  2
rpm
 70
0
 62
7
  0
LAYER
  2
npc
 70
0
 62
7
  0
LAYER
  2
li1
 70
0
 62
7
  0
LAYER
  2
metal1
 70
0
 62
7
  0
LAYER
  2
pad
 70
0
 62
7
  0
LAYER
  2
licon
 70
0
 62
7
  0
LAYER
  2
mcon
 70
0
 62
7
  0
LAYER
  2
Resistor_Poly_Mask
 70
0
 62
7
  0
LAYER
  2
P_Plus_Implant_Mask
 70
0
 62
7
  0
LAYER
  2
Npc_Mask
 70
0
 62
7
  0
LAYER
  2
Tap_Mask
 70
0
 62
7
  0
LAYER
  2
Pad_Mask
 70
0
 62
7
  0
ENDTAB
  0
ENDSEC
  0
SECTION
  2
ENTITIES
  0
LWPOLYLINE
  8
pdiff
420
8454016
 90
4
 70
1
 10
0.006200
 20
0.008700
 10
0.005800
 20
0.008700
 10
0.005800
 20
0.008300
 10
0.006200
 20
0.008300
  0
LWPOLYLINE
  8
pdiff
420
8454016
 90
4
 70
1
 10
0.018200
 20
0.008700
 10
0.017800
 20
0.008700
 10
0.017800
 20
0.008300
 10
0.018200
 20
0.008300
  0
LWPOLYLINE
  8
pdiff
420
8454016
 90
4
 70
1
 10
0.030200
 20
0.008700
 10
0.029800
 20
0.008700
 10
0.029800
 20
0.008300
 10
0.030200
 20
0.008300
  0
LWPOLYLINE
  8
pdiff
420
8421631
 90
4
 70
1
 10
0.006085
 20
0.008585
 10
0.005915
 20
0.008585
 10
0.005915
 20
0.008415
 10
0.006085
 20
0.008415
  0
LWPOLYLINE
  8
pdiff
420
8421631
 90
4
 70
1
 10
0.018085
 20
0.008585
 10
0.017915
 20
0.008585
 10
0.017915
 20
0.008415
 10
0.018085
 20
0.008415
  0
LWPOLYLINE
  8
pdiff
420
8421631
 90
4
 70
1
 10
0.030085
 20
0.008585
 10
0.029915
 20
0.008585
 10
0.029915
 20
0.008415
 10
0.030085
 20
0.008415
  0
LWPOLYLINE
  8
polyres
420
16736352
 90
4
 70
1
 10
0.008000
 20
0.007425
 10
0.004000
 20
0.007425
 10
0.004000
 20
0.004575
 10
0.008000
 20
0.004575
  0
LWPOLYLINE
  8
polyres
420
16736352
 90
4
 70
1
 10
0.020000
 20
0.006705
 10
0.016000
 20
0.006705
 10
0.016000
 20
0.005295
 10
0.020000
 20
0.005295
  0
LWPOLYLINE
  8
polyres
420
16736352
 90
4
 70
1
 10
0.032000
 20
0.006345
 10
0.028000
 20
0.006345
 10
0.028000
 20
0.005655
 10
0.032000
 20
0.005655
  0
LWPOLYLINE
  8
polyres
420
8421631
 90
4
 70
1
 10
0.004285
 20
0.006685
 10
0.004115
 20
0.006685
 10
0.004115
 20
0.006515
 10
0.004285
 20
0.006515
  0
LWPOLYLINE
  8
polyres
420
8421631
 90
4
 70
1
 10
0.007885
 20
0.006685
 10
0.007715
 20
0.006685
 10
0.007715
 20
0.006515
 10
0.007885
 20
0.006515
  0
LWPOLYLINE
  8
polyres
420
8421631
 90
4
 70
1
 10
0.004285
 20
0.006285
 10
0.004115
 20
0.006285
 10
0.004115
 20
0.006115
 10
0.004285
 20
0.006115
  0
LWPOLYLINE
  8
polyres
420
8421631
 90
4
 70
1
 10
0.007885
 20
0.006285
 10
0.007715
 20
0.006285
 10
0.007715
 20
0.006115
 10
0.007885
 20
0.006115
  0
LWPOLYLINE
  8
polyres
420
8421631
 90
4
 70
1
 10
0.004285
 20
0.005885
 10
0.004115
 20
0.005885
 10
0.004115
 20
0.005715
 10
0.004285
 20
0.005715
  0
LWPOLYLINE
  8
polyres
420
8421631
 90
4
 70
1
 10
0.007885
 20
0.005885
 10
0.007715
 20
0.005885
 10
0.007715
 20
0.005715
 10
0.007885
 20
0.005715
  0
LWPOLYLINE
  8
polyres
420
8421631
 90
4
 70
1
 10
0.004285
 20
0.005485
 10
0.004115
 20
0.005485
 10
0.004115
 20
0.005315
 10
0.004285
 20
0.005315
  0
LWPOLYLINE
  8
polyres
420
8421631
 90
4
 70
1
 10
0.007885
 20
0.005485
 10
0.007715
 20
0.005485
 10
0.007715
 20
0.005315
 10
0.007885
 20
0.005315
  0
LWPOLYLINE
  8
polyres
420
8421631
 90
4
 70
1
 10
0.016285
 20
0.006285
 10
0.016115
 20
0.006285
 10
0.016115
 20
0.006115
 10
0.016285
 20
0.006115
  0
LWPOLYLINE
  8
polyres
420
8421631
 90
4
 70
1
 10
0.019885
 20
0.006285
 10
0.019715
 20
0.006285
 10
0.019715
 20
0.006115
 10
0.019885
 20
0.006115
  0
LWPOLYLINE
  8
polyres
420
8421631
 90
4
 70
1
 10
0.016285
 20
0.005885
 10
0.016115
 20
0.005885
 10
0.016115
 20
0.005715
 10
0.016285
 20
0.005715
  0
LWPOLYLINE
  8
polyres
420
8421631
 90
4
 70
1
 10
0.019885
 20
0.005885
 10
0.019715
 20
0.005885
 10
0.019715
 20
0.005715
 10
0.019885
 20
0.005715
  0
LWPOLYLINE
  8
polyres
420
8421631
 90
4
 70
1
 10
0.028285
 20
0.006085
 10
0.028115
 20
0.006085
 10
0.028115
 20
0.005915
 10
0.028285
 20
0.005915
  0
LWPOLYLINE
  8
polyres
420
8421631
 90
4
 70
1
 10
0.031885
 20
0.006085
 10
0.031715
 20
0.006085
 10
0.031715
 20
0.005915
 10
0.031885
 20
0.005915
  0
LWPOLYLINE
  8
licon
420
8421631
 90
4
 70
1
 10
0.004285
 20
0.006685
 10
0.004115
 20
0.006685
 10
0.004115
 20
0.006515
 10
0.004285
 20
0.006515
  0
LWPOLYLINE
  8
licon
420
8421631
 90
4
 70
1
 10
0.007885
 20
0.006685
 10
0.007715
 20
0.006685
 10
0.007715
 20
0.006515
 10
0.007885
 20
0.006515
  0
LWPOLYLINE
  8
licon
420
8421631
 90
4
 70
1
 10
0.004285
 20
0.006285
 10
0.004115
 20
0.006285
 10
0.004115
 20
0.006115
 10
0.004285
 20
0.006115
  0
LWPOLYLINE
  8
licon
420
8421631
 90
4
 70
1
 10
0.007885
 20
0.006285
 10
0.007715
 20
0.006285
 10
0.007715
 20
0.006115
 10
0.007885
 20
0.006115
  0
LWPOLYLINE
  8
licon
420
8421631
 90
4
 70
1
 10
0.004285
 20
0.005885
 10
0.004115
 20
0.005885
 10
0.004115
 20
0.005715
 10
0.004285
 20
0.005715
  0
LWPOLYLINE
  8
licon
420
8421631
 90
4
 70
1
 10
0.007885
 20
0.005885
 10
0.007715
 20
0.005885
 10
0.007715
 20
0.005715
 10
0.007885
 20
0.005715
  0
LWPOLYLINE
  8
licon
420
8421631
 90
4
 70
1
 10
0.004285
 20
0.005485
 10
0.004115
 20
0.005485
 10
0.004115
 20
0.005315
 10
0.004285
 20
0.005315
  0
LWPOLYLINE
  8
licon
420
8421631
 90
4
 70
1
 10
0.007885
 20
0.005485
 10
0.007715
 20
0.005485
 10
0.007715
 20
0.005315
 10
0.007885
 20
0.005315
  0
LWPOLYLINE
  8
licon
420
8421631
 90
4
 70
1
 10
0.016285
 20
0.006285
 10
0.016115
 20
0.006285
 10
0.016115
 20
0.006115
 10
0.016285
 20
0.006115
  0
LWPOLYLINE
  8
licon
420
8421631
 90
4
 70
1
 10
0.019885
 20
0.006285
 10
0.019715
 20
0.006285
 10
0.019715
 20
0.006115
 10
0.019885
 20
0.006115
  0
LWPOLYLINE
  8
licon
420
8421631
 90
4
 70
1
 10
0.016285
 20
0.005885
 10
0.016115
 20
0.005885
 10
0.016115
 20
0.005715
 10
0.016285
 20
0.005715
  0
LWPOLYLINE
  8
licon
420
8421631
 90
4
 70
1
 10
0.019885
 20
0.005885
 10
0.019715
 20
0.005885
 10
0.019715
 20
0.005715
 10
0.019885
 20
0.005715
  0
LWPOLYLINE
  8
licon
420
8421631
 90
4
 70
1
 10
0.028285
 20
0.006085
 10
0.028115
 20
0.006085
 10
0.028115
 20
0.005915
 10
0.028285
 20
0.005915
  0
LWPOLYLINE
  8
licon
420
8421631
 90
4
 70
1
 10
0.031885
 20
0.006085
 10
0.031715
 20
0.006085
 10
0.031715
 20
0.005915
 10
0.031885
 20
0.005915
  0
LWPOLYLINE
  8
licon
420
8421631
 90
4
 70
1
 10
0.006085
 20
0.008585
 10
0.005915
 20
0.008585
 10
0.005915
 20
0.008415
 10
0.006085
 20
0.008415
  0
LWPOLYLINE
  8
licon
420
8421631
 90
4
 70
1
 10
0.018085
 20
0.008585
 10
0.017915
 20
0.008585
 10
0.017915
 20
0.008415
 10
0.018085
 20
0.008415
  0
LWPOLYLINE
  8
licon
420
8421631
 90
4
 70
1
 10
0.030085
 20
0.008585
 10
0.029915
 20
0.008585
 10
0.029915
 20
0.008415
 10
0.030085
 20
0.008415
  0
LWPOLYLINE
  8
li1
420
8421631
 90
4
 70
1
 10
0.004285
 20
0.006685
 10
0.004115
 20
0.006685
 10
0.004115
 20
0.006515
 10
0.004285
 20
0.006515
  0
LWPOLYLINE
  8
li1
420
8421631
 90
4
 70
1
 10
0.007885
 20
0.006685
 10
0.007715
 20
0.006685
 10
0.007715
 20
0.006515
 10
0.007885
 20
0.006515
  0
LWPOLYLINE
  8
li1
420
8421631
 90
4
 70
1
 10
0.004285
 20
0.006285
 10
0.004115
 20
0.006285
 10
0.004115
 20
0.006115
 10
0.004285
 20
0.006115
  0
LWPOLYLINE
  8
li1
420
8421631
 90
4
 70
1
 10
0.007885
 20
0.006285
 10
0.007715
 20
0.006285
 10
0.007715
 20
0.006115
 10
0.007885
 20
0.006115
  0
LWPOLYLINE
  8
li1
420
8421631
 90
4
 70
1
 10
0.004285
 20
0.005885
 10
0.004115
 20
0.005885
 10
0.004115
 20
0.005715
 10
0.004285
 20
0.005715
  0
LWPOLYLINE
  8
li1
420
8421631
 90
4
 70
1
 10
0.007885
 20
0.005885
 10
0.007715
 20
0.005885
 10
0.007715
 20
0.005715
 10
0.007885
 20
0.005715
  0
LWPOLYLINE
  8
li1
420
8421631
 90
4
 70
1
 10
0.004285
 20
0.005485
 10
0.004115
 20
0.005485
 10
0.004115
 20
0.005315
 10
0.004285
 20
0.005315
  0
LWPOLYLINE
  8
li1
420
8421631
 90
4
 70
1
 10
0.007885
 20
0.005485
 10
0.007715
 20
0.005485
 10
0.007715
 20
0.005315
 10
0.007885
 20
0.005315
  0
LWPOLYLINE
  8
li1
420
8421631
 90
4
 70
1
 10
0.016285
 20
0.006285
 10
0.016115
 20
0.006285
 10
0.016115
 20
0.006115
 10
0.016285
 20
0.006115
  0
LWPOLYLINE
  8
li1
420
8421631
 90
4
 70
1
 10
0.019885
 20
0.006285
 10
0.019715
 20
0.006285
 10
0.019715
 20
0.006115
 10
0.019885
 20
0.006115
  0
LWPOLYLINE
  8
li1
420
8421631
 90
4
 70
1
 10
0.016285
 20
0.005885
 10
0.016115
 20
0.005885
 10
0.016115
 20
0.005715
 10
0.016285
 20
0.005715
  0
LWPOLYLINE
  8
li1
420
8421631
 90
4
 70
1
 10
0.019885
 20
0.005885
 10
0.019715
 20
0.005885
 10
0.019715
 20
0.005715
 10
0.019885
 20
0.005715
  0
LWPOLYLINE
  8
li1
420
8421631
 90
4
 70
1
 10
0.028285
 20
0.006085
 10
0.028115
 20
0.006085
 10
0.028115
 20
0.005915
 10
0.028285
 20
0.005915
  0
LWPOLYLINE
  8
li1
420
8421631
 90
4
 70
1
 10
0.031885
 20
0.006085
 10
0.031715
 20
0.006085
 10
0.031715
 20
0.005915
 10
0.031885
 20
0.005915
  0
LWPOLYLINE
  8
li1
420
8421631
 90
4
 70
1
 10
0.006085
 20
0.008585
 10
0.005915
 20
0.008585
 10
0.005915
 20
0.008415
 10
0.006085
 20
0.008415
  0
LWPOLYLINE
  8
li1
420
8421631
 90
4
 70
1
 10
0.018085
 20
0.008585
 10
0.017915
 20
0.008585
 10
0.017915
 20
0.008415
 10
0.018085
 20
0.008415
  0
LWPOLYLINE
  8
li1
420
8421631
 90
4
 70
1
 10
0.030085
 20
0.008585
 10
0.029915
 20
0.008585
 10
0.029915
 20
0.008415
 10
0.030085
 20
0.008415
  0
LWPOLYLINE
  8
li1
420
4210752
 90
4
 70
1
 10
0.004480
 20
0.007425
 10
0.004000
 20
0.007425
 10
0.004000
 20
0.004575
 10
0.004480
 20
0.004575
  0
LWPOLYLINE
  8
li1
420
4210752
 90
4
 70
1
 10
0.008000
 20
0.007425
 10
0.007520
 20
0.007425
 10
0.007520
 20
0.004575
 10
0.008000
 20
0.004575
  0
LWPOLYLINE
  8
li1
420
4210752
 90
4
 70
1
 10
0.016480
 20
0.006705
 10
0.016000
 20
0.006705
 10
0.016000
 20
0.005295
 10
0.016480
 20
0.005295
  0
LWPOLYLINE
  8
li1
420
4210752
 90
4
 70
1
 10
0.020000
 20
0.006705
 10
0.019520
 20
0.006705
 10
0.019520
 20
0.005295
 10
0.020000
 20
0.005295
  0
LWPOLYLINE
  8
li1
420
4210752
 90
4
 70
1
 10
0.028480
 20
0.006345
 10
0.028000
 20
0.006345
 10
0.028000
 20
0.005655
 10
0.028480
 20
0.005655
  0
LWPOLYLINE
  8
li1
420
4210752
 90
4
 70
1
 10
0.032000
 20
0.006345
 10
0.031520
 20
0.006345
 10
0.031520
 20
0.005655
 10
0.032000
 20
0.005655
  0
LWPOLYLINE
  8
li1
420
4210752
 90
4
 70
1
 10
0.006200
 20
0.008700
 10
0.005800
 20
0.008700
 10
0.005800
 20
0.008300
 10
0.006200
 20
0.008300
  0
LWPOLYLINE
  8
li1
420
4210752
 90
4
 70
1
 10
0.018200
 20
0.008700
 10
0.017800
 20
0.008700
 10
0.017800
 20
0.008300
 10
0.018200
 20
0.008300
  0
LWPOLYLINE
  8
li1
420
4210752
 90
4
 70
1
 10
0.030200
 20
0.008700
 10
0.029800
 20
0.008700
 10
0.029800
 20
0.008300
 10
0.030200
 20
0.008300
  0
LWPOLYLINE
  8
mcon
420
8421631
 90
4
 70
1
 10
0.004285
 20
0.006685
 10
0.004115
 20
0.006685
 10
0.004115
 20
0.006515
 10
0.004285
 20
0.006515
  0
LWPOLYLINE
  8
mcon
420
8421631
 90
4
 70
1
 10
0.004285
 20
0.006285
 10
0.004115
 20
0.006285
 10
0.004115
 20
0.006115
 10
0.004285
 20
0.006115
  0
LWPOLYLINE
  8
mcon
420
8421631
 90
4
 70
1
 10
0.004285
 20
0.005885
 10
0.004115
 20
0.005885
 10
0.004115
 20
0.005715
 10
0.004285
 20
0.005715
  0
LWPOLYLINE
  8
mcon
420
8421631
 90
4
 70
1
 10
0.004285
 20
0.005485
 10
0.004115
 20
0.005485
 10
0.004115
 20
0.005315
 10
0.004285
 20
0.005315
  0
LWPOLYLINE
  8
mcon
420
8421631
 90
4
 70
1
 10
0.007885
 20
0.006685
 10
0.007715
 20
0.006685
 10
0.007715
 20
0.006515
 10
0.007885
 20
0.006515
  0
LWPOLYLINE
  8
mcon
420
8421631
 90
4
 70
1
 10
0.007885
 20
0.006285
 10
0.007715
 20
0.006285
 10
0.007715
 20
0.006115
 10
0.007885
 20
0.006115
  0
LWPOLYLINE
  8
mcon
420
8421631
 90
4
 70
1
 10
0.007885
 20
0.005885
 10
0.007715
 20
0.005885
 10
0.007715
 20
0.005715
 10
0.007885
 20
0.005715
  0
LWPOLYLINE
  8
mcon
420
8421631
 90
4
 70
1
 10
0.007885
 20
0.005485
 10
0.007715
 20
0.005485
 10
0.007715
 20
0.005315
 10
0.007885
 20
0.005315
  0
LWPOLYLINE
  8
mcon
420
8421631
 90
4
 70
1
 10
0.016285
 20
0.006285
 10
0.016115
 20
0.006285
 10
0.016115
 20
0.006115
 10
0.016285
 20
0.006115
  0
LWPOLYLINE
  8
mcon
420
8421631
 90
4
 70
1
 10
0.016285
 20
0.005885
 10
0.016115
 20
0.005885
 10
0.016115
 20
0.005715
 10
0.016285
 20
0.005715
  0
LWPOLYLINE
  8
mcon
420
8421631
 90
4
 70
1
 10
0.019885
 20
0.006285
 10
0.019715
 20
0.006285
 10
0.019715
 20
0.006115
 10
0.019885
 20
0.006115
  0
LWPOLYLINE
  8
mcon
420
8421631
 90
4
 70
1
 10
0.019885
 20
0.005885
 10
0.019715
 20
0.005885
 10
0.019715
 20
0.005715
 10
0.019885
 20
0.005715
  0
LWPOLYLINE
  8
mcon
420
8421631
 90
4
 70
1
 10
0.028285
 20
0.006085
 10
0.028115
 20
0.006085
 10
0.028115
 20
0.005915
 10
0.028285
 20
0.005915
  0
LWPOLYLINE
  8
mcon
420
8421631
 90
4
 70
1
 10
0.031885
 20
0.006085
 10
0.031715
 20
0.006085
 10
0.031715
 20
0.005915
 10
0.031885
 20
0.005915
  0
LWPOLYLINE
  8
mcon
420
8421631
 90
4
 70
1
 10
0.006085
 20
0.008585
 10
0.005915
 20
0.008585
 10
0.005915
 20
0.008415
 10
0.006085
 20
0.008415
  0
LWPOLYLINE
  8
mcon
420
8421631
 90
4
 70
1
 10
0.018085
 20
0.008585
 10
0.017915
 20
0.008585
 10
0.017915
 20
0.008415
 10
0.018085
 20
0.008415
  0
LWPOLYLINE
  8
mcon
420
8421631
 90
4
 70
1
 10
0.030085
 20
0.008585
 10
0.029915
 20
0.008585
 10
0.029915
 20
0.008415
 10
0.030085
 20
0.008415
  0
LWPOLYLINE
  8
metal1
420
8421631
 90
4
 70
1
 10
0.004285
 20
0.006685
 10
0.004115
 20
0.006685
 10
0.004115
 20
0.006515
 10
0.004285
 20
0.006515
  0
LWPOLYLINE
  8
metal1
420
8421631
 90
4
 70
1
 10
0.004285
 20
0.006285
 10
0.004115
 20
0.006285
 10
0.004115
 20
0.006115
 10
0.004285
 20
0.006115
  0
LWPOLYLINE
  8
metal1
420
8421631
 90
4
 70
1
 10
0.004285
 20
0.005885
 10
0.004115
 20
0.005885
 10
0.004115
 20
0.005715
 10
0.004285
 20
0.005715
  0
LWPOLYLINE
  8
metal1
420
8421631
 90
4
 70
1
 10
0.004285
 20
0.005485
 10
0.004115
 20
0.005485
 10
0.004115
 20
0.005315
 10
0.004285
 20
0.005315
  0
LWPOLYLINE
  8
metal1
420
8421631
 90
4
 70
1
 10
0.007885
 20
0.006685
 10
0.007715
 20
0.006685
 10
0.007715
 20
0.006515
 10
0.007885
 20
0.006515
  0
LWPOLYLINE
  8
metal1
420
8421631
 90
4
 70
1
 10
0.007885
 20
0.006285
 10
0.007715
 20
0.006285
 10
0.007715
 20
0.006115
 10
0.007885
 20
0.006115
  0
LWPOLYLINE
  8
metal1
420
8421631
 90
4
 70
1
 10
0.007885
 20
0.005885
 10
0.007715
 20
0.005885
 10
0.007715
 20
0.005715
 10
0.007885
 20
0.005715
  0
LWPOLYLINE
  8
metal1
420
8421631
 90
4
 70
1
 10
0.007885
 20
0.005485
 10
0.007715
 20
0.005485
 10
0.007715
 20
0.005315
 10
0.007885
 20
0.005315
  0
LWPOLYLINE
  8
metal1
420
8421631
 90
4
 70
1
 10
0.016285
 20
0.006285
 10
0.016115
 20
0.006285
 10
0.016115
 20
0.006115
 10
0.016285
 20
0.006115
  0
LWPOLYLINE
  8
metal1
420
8421631
 90
4
 70
1
 10
0.016285
 20
0.005885
 10
0.016115
 20
0.005885
 10
0.016115
 20
0.005715
 10
0.016285
 20
0.005715
  0
LWPOLYLINE
  8
metal1
420
8421631
 90
4
 70
1
 10
0.019885
 20
0.006285
 10
0.019715
 20
0.006285
 10
0.019715
 20
0.006115
 10
0.019885
 20
0.006115
  0
LWPOLYLINE
  8
metal1
420
8421631
 90
4
 70
1
 10
0.019885
 20
0.005885
 10
0.019715
 20
0.005885
 10
0.019715
 20
0.005715
 10
0.019885
 20
0.005715
  0
LWPOLYLINE
  8
metal1
420
8421631
 90
4
 70
1
 10
0.028285
 20
0.006085
 10
0.028115
 20
0.006085
 10
0.028115
 20
0.005915
 10
0.028285
 20
0.005915
  0
LWPOLYLINE
  8
metal1
420
8421631
 90
4
 70
1
 10
0.031885
 20
0.006085
 10
0.031715
 20
0.006085
 10
0.031715
 20
0.005915
 10
0.031885
 20
0.005915
  0
LWPOLYLINE
  8
metal1
420
8421631
 90
4
 70
1
 10
0.006085
 20
0.008585
 10
0.005915
 20
0.008585
 10
0.005915
 20
0.008415
 10
0.006085
 20
0.008415
  0
LWPOLYLINE
  8
metal1
420
8421631
 90
4
 70
1
 10
0.018085
 20
0.008585
 10
0.017915
 20
0.008585
 10
0.017915
 20
0.008415
 10
0.018085
 20
0.008415
  0
LWPOLYLINE
  8
metal1
420
8421631
 90
4
 70
1
 10
0.030085
 20
0.008585
 10
0.029915
 20
0.008585
 10
0.029915
 20
0.008415
 10
0.030085
 20
0.008415
  0
LWPOLYLINE
  8
metal1
420
12632256
 90
12
 70
1
 10
0.004480
 20
0.007425
 10
0.004000
 20
0.007425
 10
0.004000
 20
0.006150
 10
0.003000
 20
0.006150
 10
0.003000
 20
0.007000
 10
0.001000
 20
0.007000
 10
0.001000
 20
0.005000
 10
0.003000
 20
0.005000
 10
0.003000
 20
0.005850
 10
0.004000
 20
0.005850
 10
0.004000
 20
0.004575
 10
0.004480
 20
0.004575
  0
LWPOLYLINE
  8
metal1
420
12632256
 90
12
 70
1
 10
0.008000
 20
0.005850
 10
0.009000
 20
0.005850
 10
0.009000
 20
0.005000
 10
0.011000
 20
0.005000
 10
0.011000
 20
0.007000
 10
0.009000
 20
0.007000
 10
0.009000
 20
0.006150
 10
0.008000
 20
0.006150
 10
0.008000
 20
0.007425
 10
0.007520
 20
0.007425
 10
0.007520
 20
0.004575
 10
0.008000
 20
0.004575
  0
LWPOLYLINE
  8
metal1
420
12632256
 90
12
 70
1
 10
0.015000
 20
0.005850
 10
0.016000
 20
0.005850
 10
0.016000
 20
0.005295
 10
0.016480
 20
0.005295
 10
0.016480
 20
0.006705
 10
0.016000
 20
0.006705
 10
0.016000
 20
0.006150
 10
0.015000
 20
0.006150
 10
0.015000
 20
0.007000
 10
0.013000
 20
0.007000
 10
0.013000
 20
0.005000
 10
0.015000
 20
0.005000
  0
LWPOLYLINE
  8
metal1
420
12632256
 90
12
 70
1
 10
0.023000
 20
0.007000
 10
0.021000
 20
0.007000
 10
0.021000
 20
0.006150
 10
0.020000
 20
0.006150
 10
0.020000
 20
0.006705
 10
0.019520
 20
0.006705
 10
0.019520
 20
0.005295
 10
0.020000
 20
0.005295
 10
0.020000
 20
0.005850
 10
0.021000
 20
0.005850
 10
0.021000
 20
0.005000
 10
0.023000
 20
0.005000
  0
LWPOLYLINE
  8
metal1
420
12632256
 90
12
 70
1
 10
0.027000
 20
0.005850
 10
0.028000
 20
0.005850
 10
0.028000
 20
0.005655
 10
0.028480
 20
0.005655
 10
0.028480
 20
0.006345
 10
0.028000
 20
0.006345
 10
0.028000
 20
0.006150
 10
0.027000
 20
0.006150
 10
0.027000
 20
0.007000
 10
0.025000
 20
0.007000
 10
0.025000
 20
0.005000
 10
0.027000
 20
0.005000
  0
LWPOLYLINE
  8
metal1
420
12632256
 90
12
 70
1
 10
0.035000
 20
0.007000
 10
0.033000
 20
0.007000
 10
0.033000
 20
0.006150
 10
0.032000
 20
0.006150
 10
0.032000
 20
0.006345
 10
0.031520
 20
0.006345
 10
0.031520
 20
0.005655
 10
0.032000
 20
0.005655
 10
0.032000
 20
0.005850
 10
0.033000
 20
0.005850
 10
0.033000
 20
0.005000
 10
0.035000
 20
0.005000
  0
LWPOLYLINE
  8
metal1
420
12632256
 90
28
 70
1
 10
0.006200
 20
0.008350
 10
0.017800
 20
0.008350
 10
0.017800
 20
0.008300
 10
0.018200
 20
0.008300
 10
0.018200
 20
0.008350
 10
0.029800
 20
0.008350
 10
0.029800
 20
0.008300
 10
0.030200
 20
0.008300
 10
0.030200
 20
0.008700
 10
0.029800
 20
0.008700
 10
0.029800
 20
0.008650
 10
0.018200
 20
0.008650
 10
0.018200
 20
0.008700
 10
0.018150
 20
0.008700
 10
0.018150
 20
0.013000
 10
0.019000
 20
0.013000
 10
0.019000
 20
0.015000
 10
0.017000
 20
0.015000
 10
0.017000
 20
0.013000
 10
0.017850
 20
0.013000
 10
0.017850
 20
0.008700
 10
0.017800
 20
0.008700
 10
0.017800
 20
0.008650
 10
0.006200
 20
0.008650
 10
0.006200
 20
0.008700
 10
0.005800
 20
0.008700
 10
0.005800
 20
0.008300
 10
0.006200
 20
0.008300
  0
LWPOLYLINE
  8
rpm
420
16728128
 90
4
 70
1
 10
0.004480
 20
0.004365
 10
0.007520
 20
0.004365
 10
0.007520
 20
0.007635
 10
0.004480
 20
0.007635
  0
LWPOLYLINE
  8
psdm
420
16744703
 90
4
 70
1
 10
0.003870
 20
0.004445
 10
0.008130
 20
0.004445
 10
0.008130
 20
0.007555
 10
0.003870
 20
0.007555
  0
LWPOLYLINE
  8
npc
420
4259839
 90
4
 70
1
 10
0.003900
 20
0.004475
 10
0.004480
 20
0.004475
 10
0.004480
 20
0.007525
 10
0.003900
 20
0.007525
  0
LWPOLYLINE
  8
npc
420
4259839
 90
4
 70
1
 10
0.007520
 20
0.004475
 10
0.008100
 20
0.004475
 10
0.008100
 20
0.007525
 10
0.007520
 20
0.007525
  0
LWPOLYLINE
  8
tap
420
8454016
 90
4
 70
1
 10
0.005800
 20
0.008300
 10
0.006200
 20
0.008300
 10
0.006200
 20
0.008700
 10
0.005800
 20
0.008700
  0
LWPOLYLINE
  8
psdm
420
16744703
 90
4
 70
1
 10
0.005670
 20
0.008170
 10
0.006330
 20
0.008170
 10
0.006330
 20
0.008830
 10
0.005670
 20
0.008830
  0
LWPOLYLINE
  8
rpm
420
16728128
 90
4
 70
1
 10
0.016480
 20
0.005085
 10
0.019520
 20
0.005085
 10
0.019520
 20
0.006915
 10
0.016480
 20
0.006915
  0
LWPOLYLINE
  8
psdm
420
16744703
 90
4
 70
1
 10
0.015870
 20
0.005165
 10
0.020130
 20
0.005165
 10
0.020130
 20
0.006835
 10
0.015870
 20
0.006835
  0
LWPOLYLINE
  8
npc
420
4259839
 90
4
 70
1
 10
0.015900
 20
0.005195
 10
0.016480
 20
0.005195
 10
0.016480
 20
0.006805
 10
0.015900
 20
0.006805
  0
LWPOLYLINE
  8
npc
420
4259839
 90
4
 70
1
 10
0.019520
 20
0.005195
 10
0.020100
 20
0.005195
 10
0.020100
 20
0.006805
 10
0.019520
 20
0.006805
  0
LWPOLYLINE
  8
tap
420
8454016
 90
4
 70
1
 10
0.017800
 20
0.008300
 10
0.018200
 20
0.008300
 10
0.018200
 20
0.008700
 10
0.017800
 20
0.008700
  0
LWPOLYLINE
  8
psdm
420
16744703
 90
4
 70
1
 10
0.017670
 20
0.008170
 10
0.018330
 20
0.008170
 10
0.018330
 20
0.008830
 10
0.017670
 20
0.008830
  0
LWPOLYLINE
  8
rpm
420
16728128
 90
4
 70
1
 10
0.028480
 20
0.005445
 10
0.031520
 20
0.005445
 10
0.031520
 20
0.006555
 10
0.028480
 20
0.006555
  0
LWPOLYLINE
  8
psdm
420
16744703
 90
4
 70
1
 10
0.027870
 20
0.005525
 10
0.032130
 20
0.005525
 10
0.032130
 20
0.006475
 10
0.027870
 20
0.006475
  0
LWPOLYLINE
  8
npc
420
4259839
 90
4
 70
1
 10
0.027900
 20
0.005555
 10
0.028480
 20
0.005555
 10
0.028480
 20
0.006445
 10
0.027900
 20
0.006445
  0
LWPOLYLINE
  8
npc
420
4259839
 90
4
 70
1
 10
0.031520
 20
0.005555
 10
0.032100
 20
0.005555
 10
0.032100
 20
0.006445
 10
0.031520
 20
0.006445
  0
LWPOLYLINE
  8
tap
420
8454016
 90
4
 70
1
 10
0.029800
 20
0.008300
 10
0.030200
 20
0.008300
 10
0.030200
 20
0.008700
 10
0.029800
 20
0.008700
  0
LWPOLYLINE
  8
psdm
420
16744703
 90
4
 70
1
 10
0.029670
 20
0.008170
 10
0.030330
 20
0.008170
 10
0.030330
 20
0.008830
 10
0.029670
 20
0.008830
  0
LWPOLYLINE
  8
pad
420
16776960
 90
4
 70
1
 10
0.001000
 20
0.005000
 10
0.003000
 20
0.005000
 10
0.003000
 20
0.007000
 10
0.001000
 20
0.007000
  0
LWPOLYLINE
  8
pad
420
16776960
 90
4
 70
1
 10
0.009000
 20
0.005000
 10
0.011000
 20
0.005000
 10
0.011000
 20
0.007000
 10
0.009000
 20
0.007000
  0
LWPOLYLINE
  8
pad
420
16776960
 90
4
 70
1
 10
0.013000
 20
0.005000
 10
0.015000
 20
0.005000
 10
0.015000
 20
0.007000
 10
0.013000
 20
0.007000
  0
LWPOLYLINE
  8
pad
420
16776960
 90
4
 70
1
 10
0.021000
 20
0.005000
 10
0.023000
 20
0.005000
 10
0.023000
 20
0.007000
 10
0.021000
 20
0.007000
  0
LWPOLYLINE
  8
pad
420
16776960
 90
4
 70
1
 10
0.025000
 20
0.005000
 10
0.027000
 20
0.005000
 10
0.027000
 20
0.007000
 10
0.025000
 20
0.007000
  0
LWPOLYLINE
  8
pad
420
16776960
 90
4
 70
1
 10
0.033000
 20
0.005000
 10
0.035000
 20
0.005000
 10
0.035000
 20
0.007000
 10
0.033000
 20
0.007000
  0
LWPOLYLINE
  8
pad
420
16776960
 90
4
 70
1
 10
0.017000
 20
0.013000
 10
0.019000
 20
0.013000
 10
0.019000
 20
0.015000
 10
0.017000
 20
0.015000
  0
ENDSEC
  0
EOF
