  0
SECTION
  2
HEADER
  9
$ACADVER
  1
AC1018
  0
ENDSEC
  0
SECTION
  2
TABLES
  0
TABLE
  2
LAYER
  0
LAYER
  2
Silicon_Dioxide
 70
0
 62
7
  0
LAYER
  2
Polysilicon
 70
0
 62
7
  0
LAYER
  2
Titanium_Silicide
 70
0
 62
7
  0
LAYER
  2
Tungsten
 70
0
 62
7
  0
LAYER
  2
Aluminum
 70
0
 62
7
  0
LAYER
  2
P_Plus_Diffusion
 70
0
 62
7
  0
ENDTAB
  0
ENDSEC
  0
SECTION
  2
ENTITIES
  0
LWPOLYLINE
  8
P_Plus_Diffusion
420
8454016
 90
4
 70
1
 10
0.007200
 20
0.007700
 10
0.006800
 20
0.007700
 10
0.006800
 20
0.007300
 10
0.007200
 20
0.007300
  0
LWPOLYLINE
  8
P_Plus_Diffusion
420
8454016
 90
4
 70
1
 10
0.015200
 20
0.007700
 10
0.014800
 20
0.007700
 10
0.014800
 20
0.007300
 10
0.015200
 20
0.007300
  0
LWPOLYLINE
  8
P_Plus_Diffusion
420
8454016
 90
4
 70
1
 10
0.023200
 20
0.007699
 10
0.022800
 20
0.007699
 10
0.022800
 20
0.007299
 10
0.023200
 20
0.007299
  0
LWPOLYLINE
  8
Tungsten
420
8421631
 90
4
 70
1
 10
0.007085
 20
0.007585
 10
0.006915
 20
0.007585
 10
0.006915
 20
0.007415
 10
0.007085
 20
0.007415
  0
LWPOLYLINE
  8
Tungsten
420
8421631
 90
4
 70
1
 10
0.015085
 20
0.007585
 10
0.014915
 20
0.007585
 10
0.014915
 20
0.007415
 10
0.015085
 20
0.007415
  0
LWPOLYLINE
  8
Tungsten
420
8421631
 90
4
 70
1
 10
0.023085
 20
0.007584
 10
0.022915
 20
0.007584
 10
0.022915
 20
0.007414
 10
0.023085
 20
0.007414
  0
LWPOLYLINE
  8
Tungsten
420
8421631
 90
4
 70
1
 10
0.007085
 20
0.007585
 10
0.006915
 20
0.007585
 10
0.006915
 20
0.007415
 10
0.007085
 20
0.007415
  0
LWPOLYLINE
  8
Tungsten
420
8421631
 90
4
 70
1
 10
0.015085
 20
0.007585
 10
0.014915
 20
0.007585
 10
0.014915
 20
0.007415
 10
0.015085
 20
0.007415
  0
LWPOLYLINE
  8
Tungsten
420
8421631
 90
4
 70
1
 10
0.023085
 20
0.007584
 10
0.022915
 20
0.007584
 10
0.022915
 20
0.007414
 10
0.023085
 20
0.007414
  0
LWPOLYLINE
  8
Polysilicon
420
16736352
 90
4
 70
1
 10
0.009000
 20
0.004425
 10
0.005000
 20
0.004425
 10
0.005000
 20
0.001575
 10
0.009000
 20
0.001575
  0
LWPOLYLINE
  8
Polysilicon
420
16736352
 90
4
 70
1
 10
0.017000
 20
0.003705
 10
0.013000
 20
0.003705
 10
0.013000
 20
0.002295
 10
0.017000
 20
0.002295
  0
LWPOLYLINE
  8
Polysilicon
420
16736352
 90
4
 70
1
 10
0.025000
 20
0.003344
 10
0.021000
 20
0.003344
 10
0.021000
 20
0.002655
 10
0.025000
 20
0.002655
  0
LWPOLYLINE
  8
Tungsten
420
8421631
 90
4
 70
1
 10
0.005285
 20
0.003485
 10
0.005115
 20
0.003485
 10
0.005115
 20
0.003315
 10
0.005285
 20
0.003315
  0
LWPOLYLINE
  8
Tungsten
420
8421631
 90
4
 70
1
 10
0.005285
 20
0.003085
 10
0.005115
 20
0.003085
 10
0.005115
 20
0.002915
 10
0.005285
 20
0.002915
  0
LWPOLYLINE
  8
Tungsten
420
8421631
 90
4
 70
1
 10
0.005285
 20
0.002685
 10
0.005115
 20
0.002685
 10
0.005115
 20
0.002515
 10
0.005285
 20
0.002515
  0
LWPOLYLINE
  8
Tungsten
420
8421631
 90
4
 70
1
 10
0.008885
 20
0.003485
 10
0.008715
 20
0.003485
 10
0.008715
 20
0.003315
 10
0.008885
 20
0.003315
  0
LWPOLYLINE
  8
Tungsten
420
8421631
 90
4
 70
1
 10
0.008885
 20
0.003085
 10
0.008715
 20
0.003085
 10
0.008715
 20
0.002915
 10
0.008885
 20
0.002915
  0
LWPOLYLINE
  8
Tungsten
420
8421631
 90
4
 70
1
 10
0.008885
 20
0.002685
 10
0.008715
 20
0.002685
 10
0.008715
 20
0.002515
 10
0.008885
 20
0.002515
  0
LWPOLYLINE
  8
Tungsten
420
8421631
 90
4
 70
1
 10
0.013285
 20
0.003485
 10
0.013115
 20
0.003485
 10
0.013115
 20
0.003315
 10
0.013285
 20
0.003315
  0
LWPOLYLINE
  8
Tungsten
420
8421631
 90
4
 70
1
 10
0.013285
 20
0.003085
 10
0.013115
 20
0.003085
 10
0.013115
 20
0.002915
 10
0.013285
 20
0.002915
  0
LWPOLYLINE
  8
Tungsten
420
8421631
 90
4
 70
1
 10
0.013285
 20
0.002685
 10
0.013115
 20
0.002685
 10
0.013115
 20
0.002515
 10
0.013285
 20
0.002515
  0
LWPOLYLINE
  8
Tungsten
420
8421631
 90
4
 70
1
 10
0.016885
 20
0.003485
 10
0.016715
 20
0.003485
 10
0.016715
 20
0.003315
 10
0.016885
 20
0.003315
  0
LWPOLYLINE
  8
Tungsten
420
8421631
 90
4
 70
1
 10
0.016885
 20
0.003085
 10
0.016715
 20
0.003085
 10
0.016715
 20
0.002915
 10
0.016885
 20
0.002915
  0
LWPOLYLINE
  8
Tungsten
420
8421631
 90
4
 70
1
 10
0.016885
 20
0.002685
 10
0.016715
 20
0.002685
 10
0.016715
 20
0.002515
 10
0.016885
 20
0.002515
  0
LWPOLYLINE
  8
Tungsten
420
8421631
 90
4
 70
1
 10
0.021285
 20
0.003484
 10
0.021115
 20
0.003484
 10
0.021115
 20
0.003314
 10
0.021285
 20
0.003314
  0
LWPOLYLINE
  8
Tungsten
420
8421631
 90
4
 70
1
 10
0.021285
 20
0.003084
 10
0.021115
 20
0.003084
 10
0.021115
 20
0.002914
 10
0.021285
 20
0.002914
  0
LWPOLYLINE
  8
Tungsten
420
8421631
 90
4
 70
1
 10
0.021285
 20
0.002684
 10
0.021115
 20
0.002684
 10
0.021115
 20
0.002514
 10
0.021285
 20
0.002514
  0
LWPOLYLINE
  8
Tungsten
420
8421631
 90
4
 70
1
 10
0.024885
 20
0.003484
 10
0.024715
 20
0.003484
 10
0.024715
 20
0.003314
 10
0.024885
 20
0.003314
  0
LWPOLYLINE
  8
Tungsten
420
8421631
 90
4
 70
1
 10
0.024885
 20
0.003084
 10
0.024715
 20
0.003084
 10
0.024715
 20
0.002914
 10
0.024885
 20
0.002914
  0
LWPOLYLINE
  8
Tungsten
420
8421631
 90
4
 70
1
 10
0.024885
 20
0.002684
 10
0.024715
 20
0.002684
 10
0.024715
 20
0.002514
 10
0.024885
 20
0.002514
  0
LWPOLYLINE
  8
Tungsten
420
8421631
 90
4
 70
1
 10
0.005285
 20
0.003485
 10
0.005115
 20
0.003485
 10
0.005115
 20
0.003315
 10
0.005285
 20
0.003315
  0
LWPOLYLINE
  8
Tungsten
420
8421631
 90
4
 70
1
 10
0.005285
 20
0.003085
 10
0.005115
 20
0.003085
 10
0.005115
 20
0.002915
 10
0.005285
 20
0.002915
  0
LWPOLYLINE
  8
Tungsten
420
8421631
 90
4
 70
1
 10
0.005285
 20
0.002685
 10
0.005115
 20
0.002685
 10
0.005115
 20
0.002515
 10
0.005285
 20
0.002515
  0
LWPOLYLINE
  8
Tungsten
420
8421631
 90
4
 70
1
 10
0.008885
 20
0.003485
 10
0.008715
 20
0.003485
 10
0.008715
 20
0.003315
 10
0.008885
 20
0.003315
  0
LWPOLYLINE
  8
Tungsten
420
8421631
 90
4
 70
1
 10
0.008885
 20
0.003085
 10
0.008715
 20
0.003085
 10
0.008715
 20
0.002915
 10
0.008885
 20
0.002915
  0
LWPOLYLINE
  8
Tungsten
420
8421631
 90
4
 70
1
 10
0.008885
 20
0.002685
 10
0.008715
 20
0.002685
 10
0.008715
 20
0.002515
 10
0.008885
 20
0.002515
  0
LWPOLYLINE
  8
Tungsten
420
8421631
 90
4
 70
1
 10
0.013285
 20
0.003485
 10
0.013115
 20
0.003485
 10
0.013115
 20
0.003315
 10
0.013285
 20
0.003315
  0
LWPOLYLINE
  8
Tungsten
420
8421631
 90
4
 70
1
 10
0.013285
 20
0.003085
 10
0.013115
 20
0.003085
 10
0.013115
 20
0.002915
 10
0.013285
 20
0.002915
  0
LWPOLYLINE
  8
Tungsten
420
8421631
 90
4
 70
1
 10
0.013285
 20
0.002685
 10
0.013115
 20
0.002685
 10
0.013115
 20
0.002515
 10
0.013285
 20
0.002515
  0
LWPOLYLINE
  8
Tungsten
420
8421631
 90
4
 70
1
 10
0.016885
 20
0.003485
 10
0.016715
 20
0.003485
 10
0.016715
 20
0.003315
 10
0.016885
 20
0.003315
  0
LWPOLYLINE
  8
Tungsten
420
8421631
 90
4
 70
1
 10
0.016885
 20
0.003085
 10
0.016715
 20
0.003085
 10
0.016715
 20
0.002915
 10
0.016885
 20
0.002915
  0
LWPOLYLINE
  8
Tungsten
420
8421631
 90
4
 70
1
 10
0.016885
 20
0.002685
 10
0.016715
 20
0.002685
 10
0.016715
 20
0.002515
 10
0.016885
 20
0.002515
  0
LWPOLYLINE
  8
Tungsten
420
8421631
 90
4
 70
1
 10
0.021285
 20
0.003484
 10
0.021115
 20
0.003484
 10
0.021115
 20
0.003314
 10
0.021285
 20
0.003314
  0
LWPOLYLINE
  8
Tungsten
420
8421631
 90
4
 70
1
 10
0.021285
 20
0.003084
 10
0.021115
 20
0.003084
 10
0.021115
 20
0.002914
 10
0.021285
 20
0.002914
  0
LWPOLYLINE
  8
Tungsten
420
8421631
 90
4
 70
1
 10
0.021285
 20
0.002684
 10
0.021115
 20
0.002684
 10
0.021115
 20
0.002514
 10
0.021285
 20
0.002514
  0
LWPOLYLINE
  8
Tungsten
420
8421631
 90
4
 70
1
 10
0.024885
 20
0.003484
 10
0.024715
 20
0.003484
 10
0.024715
 20
0.003314
 10
0.024885
 20
0.003314
  0
LWPOLYLINE
  8
Tungsten
420
8421631
 90
4
 70
1
 10
0.024885
 20
0.003084
 10
0.024715
 20
0.003084
 10
0.024715
 20
0.002914
 10
0.024885
 20
0.002914
  0
LWPOLYLINE
  8
Tungsten
420
8421631
 90
4
 70
1
 10
0.024885
 20
0.002684
 10
0.024715
 20
0.002684
 10
0.024715
 20
0.002514
 10
0.024885
 20
0.002514
  0
LWPOLYLINE
  8
Tungsten
420
8421631
 90
4
 70
1
 10
0.007085
 20
0.007585
 10
0.006915
 20
0.007585
 10
0.006915
 20
0.007415
 10
0.007085
 20
0.007415
  0
LWPOLYLINE
  8
Tungsten
420
8421631
 90
4
 70
1
 10
0.015085
 20
0.007585
 10
0.014915
 20
0.007585
 10
0.014915
 20
0.007415
 10
0.015085
 20
0.007415
  0
LWPOLYLINE
  8
Tungsten
420
8421631
 90
4
 70
1
 10
0.023085
 20
0.007584
 10
0.022915
 20
0.007584
 10
0.022915
 20
0.007414
 10
0.023085
 20
0.007414
  0
LWPOLYLINE
  8
Tungsten
420
8421631
 90
4
 70
1
 10
0.005285
 20
0.003485
 10
0.005115
 20
0.003485
 10
0.005115
 20
0.003315
 10
0.005285
 20
0.003315
  0
LWPOLYLINE
  8
Tungsten
420
8421631
 90
4
 70
1
 10
0.005285
 20
0.003085
 10
0.005115
 20
0.003085
 10
0.005115
 20
0.002915
 10
0.005285
 20
0.002915
  0
LWPOLYLINE
  8
Tungsten
420
8421631
 90
4
 70
1
 10
0.005285
 20
0.002685
 10
0.005115
 20
0.002685
 10
0.005115
 20
0.002515
 10
0.005285
 20
0.002515
  0
LWPOLYLINE
  8
Tungsten
420
8421631
 90
4
 70
1
 10
0.008885
 20
0.003485
 10
0.008715
 20
0.003485
 10
0.008715
 20
0.003315
 10
0.008885
 20
0.003315
  0
LWPOLYLINE
  8
Tungsten
420
8421631
 90
4
 70
1
 10
0.008885
 20
0.003085
 10
0.008715
 20
0.003085
 10
0.008715
 20
0.002915
 10
0.008885
 20
0.002915
  0
LWPOLYLINE
  8
Tungsten
420
8421631
 90
4
 70
1
 10
0.008885
 20
0.002685
 10
0.008715
 20
0.002685
 10
0.008715
 20
0.002515
 10
0.008885
 20
0.002515
  0
LWPOLYLINE
  8
Tungsten
420
8421631
 90
4
 70
1
 10
0.013285
 20
0.003485
 10
0.013115
 20
0.003485
 10
0.013115
 20
0.003315
 10
0.013285
 20
0.003315
  0
LWPOLYLINE
  8
Tungsten
420
8421631
 90
4
 70
1
 10
0.013285
 20
0.003085
 10
0.013115
 20
0.003085
 10
0.013115
 20
0.002915
 10
0.013285
 20
0.002915
  0
LWPOLYLINE
  8
Tungsten
420
8421631
 90
4
 70
1
 10
0.013285
 20
0.002685
 10
0.013115
 20
0.002685
 10
0.013115
 20
0.002515
 10
0.013285
 20
0.002515
  0
LWPOLYLINE
  8
Tungsten
420
8421631
 90
4
 70
1
 10
0.016885
 20
0.003485
 10
0.016715
 20
0.003485
 10
0.016715
 20
0.003315
 10
0.016885
 20
0.003315
  0
LWPOLYLINE
  8
Tungsten
420
8421631
 90
4
 70
1
 10
0.016885
 20
0.003085
 10
0.016715
 20
0.003085
 10
0.016715
 20
0.002915
 10
0.016885
 20
0.002915
  0
LWPOLYLINE
  8
Tungsten
420
8421631
 90
4
 70
1
 10
0.016885
 20
0.002685
 10
0.016715
 20
0.002685
 10
0.016715
 20
0.002515
 10
0.016885
 20
0.002515
  0
LWPOLYLINE
  8
Tungsten
420
8421631
 90
4
 70
1
 10
0.021285
 20
0.003484
 10
0.021115
 20
0.003484
 10
0.021115
 20
0.003314
 10
0.021285
 20
0.003314
  0
LWPOLYLINE
  8
Tungsten
420
8421631
 90
4
 70
1
 10
0.021285
 20
0.003084
 10
0.021115
 20
0.003084
 10
0.021115
 20
0.002914
 10
0.021285
 20
0.002914
  0
LWPOLYLINE
  8
Tungsten
420
8421631
 90
4
 70
1
 10
0.021285
 20
0.002684
 10
0.021115
 20
0.002684
 10
0.021115
 20
0.002514
 10
0.021285
 20
0.002514
  0
LWPOLYLINE
  8
Tungsten
420
8421631
 90
4
 70
1
 10
0.024885
 20
0.003484
 10
0.024715
 20
0.003484
 10
0.024715
 20
0.003314
 10
0.024885
 20
0.003314
  0
LWPOLYLINE
  8
Tungsten
420
8421631
 90
4
 70
1
 10
0.024885
 20
0.003084
 10
0.024715
 20
0.003084
 10
0.024715
 20
0.002914
 10
0.024885
 20
0.002914
  0
LWPOLYLINE
  8
Tungsten
420
8421631
 90
4
 70
1
 10
0.024885
 20
0.002684
 10
0.024715
 20
0.002684
 10
0.024715
 20
0.002514
 10
0.024885
 20
0.002514
  0
LWPOLYLINE
  8
Tungsten
420
8421631
 90
4
 70
1
 10
0.007085
 20
0.007585
 10
0.006915
 20
0.007585
 10
0.006915
 20
0.007415
 10
0.007085
 20
0.007415
  0
LWPOLYLINE
  8
Tungsten
420
8421631
 90
4
 70
1
 10
0.015085
 20
0.007585
 10
0.014915
 20
0.007585
 10
0.014915
 20
0.007415
 10
0.015085
 20
0.007415
  0
LWPOLYLINE
  8
Tungsten
420
8421631
 90
4
 70
1
 10
0.023085
 20
0.007584
 10
0.022915
 20
0.007584
 10
0.022915
 20
0.007414
 10
0.023085
 20
0.007414
  0
LWPOLYLINE
  8
Titanium_Silicide
420
4210752
 90
4
 70
1
 10
0.005400
 20
0.004425
 10
0.005000
 20
0.004425
 10
0.005000
 20
0.001575
 10
0.005400
 20
0.001575
  0
LWPOLYLINE
  8
Titanium_Silicide
420
4210752
 90
4
 70
1
 10
0.009000
 20
0.004425
 10
0.008600
 20
0.004425
 10
0.008600
 20
0.001575
 10
0.009000
 20
0.001575
  0
LWPOLYLINE
  8
Titanium_Silicide
420
4210752
 90
4
 70
1
 10
0.013400
 20
0.003705
 10
0.013000
 20
0.003705
 10
0.013000
 20
0.002295
 10
0.013400
 20
0.002295
  0
LWPOLYLINE
  8
Titanium_Silicide
420
4210752
 90
4
 70
1
 10
0.017000
 20
0.003705
 10
0.016600
 20
0.003705
 10
0.016600
 20
0.002295
 10
0.017000
 20
0.002295
  0
LWPOLYLINE
  8
Titanium_Silicide
420
4210752
 90
4
 70
1
 10
0.021400
 20
0.003344
 10
0.021000
 20
0.003344
 10
0.021000
 20
0.002654
 10
0.021400
 20
0.002654
  0
LWPOLYLINE
  8
Titanium_Silicide
420
4210752
 90
4
 70
1
 10
0.025000
 20
0.003344
 10
0.024600
 20
0.003344
 10
0.024600
 20
0.002654
 10
0.025000
 20
0.002654
  0
LWPOLYLINE
  8
Titanium_Silicide
420
4210752
 90
4
 70
1
 10
0.007200
 20
0.007700
 10
0.006800
 20
0.007700
 10
0.006800
 20
0.007300
 10
0.007200
 20
0.007300
  0
LWPOLYLINE
  8
Titanium_Silicide
420
4210752
 90
4
 70
1
 10
0.015200
 20
0.007700
 10
0.014800
 20
0.007700
 10
0.014800
 20
0.007300
 10
0.015200
 20
0.007300
  0
LWPOLYLINE
  8
Titanium_Silicide
420
4210752
 90
4
 70
1
 10
0.023200
 20
0.007699
 10
0.022800
 20
0.007699
 10
0.022800
 20
0.007299
 10
0.023200
 20
0.007299
  0
LWPOLYLINE
  8
Tungsten
420
8421631
 90
4
 70
1
 10
0.005285
 20
0.003485
 10
0.005115
 20
0.003485
 10
0.005115
 20
0.003315
 10
0.005285
 20
0.003315
  0
LWPOLYLINE
  8
Tungsten
420
8421631
 90
4
 70
1
 10
0.005285
 20
0.003085
 10
0.005115
 20
0.003085
 10
0.005115
 20
0.002915
 10
0.005285
 20
0.002915
  0
LWPOLYLINE
  8
Tungsten
420
8421631
 90
4
 70
1
 10
0.005285
 20
0.002685
 10
0.005115
 20
0.002685
 10
0.005115
 20
0.002515
 10
0.005285
 20
0.002515
  0
LWPOLYLINE
  8
Tungsten
420
8421631
 90
4
 70
1
 10
0.008885
 20
0.003485
 10
0.008715
 20
0.003485
 10
0.008715
 20
0.003315
 10
0.008885
 20
0.003315
  0
LWPOLYLINE
  8
Tungsten
420
8421631
 90
4
 70
1
 10
0.008885
 20
0.003085
 10
0.008715
 20
0.003085
 10
0.008715
 20
0.002915
 10
0.008885
 20
0.002915
  0
LWPOLYLINE
  8
Tungsten
420
8421631
 90
4
 70
1
 10
0.008885
 20
0.002685
 10
0.008715
 20
0.002685
 10
0.008715
 20
0.002515
 10
0.008885
 20
0.002515
  0
LWPOLYLINE
  8
Tungsten
420
8421631
 90
4
 70
1
 10
0.013285
 20
0.003485
 10
0.013115
 20
0.003485
 10
0.013115
 20
0.003315
 10
0.013285
 20
0.003315
  0
LWPOLYLINE
  8
Tungsten
420
8421631
 90
4
 70
1
 10
0.013285
 20
0.003085
 10
0.013115
 20
0.003085
 10
0.013115
 20
0.002915
 10
0.013285
 20
0.002915
  0
LWPOLYLINE
  8
Tungsten
420
8421631
 90
4
 70
1
 10
0.013285
 20
0.002685
 10
0.013115
 20
0.002685
 10
0.013115
 20
0.002515
 10
0.013285
 20
0.002515
  0
LWPOLYLINE
  8
Tungsten
420
8421631
 90
4
 70
1
 10
0.016885
 20
0.003485
 10
0.016715
 20
0.003485
 10
0.016715
 20
0.003315
 10
0.016885
 20
0.003315
  0
LWPOLYLINE
  8
Tungsten
420
8421631
 90
4
 70
1
 10
0.016885
 20
0.003085
 10
0.016715
 20
0.003085
 10
0.016715
 20
0.002915
 10
0.016885
 20
0.002915
  0
LWPOLYLINE
  8
Tungsten
420
8421631
 90
4
 70
1
 10
0.016885
 20
0.002685
 10
0.016715
 20
0.002685
 10
0.016715
 20
0.002515
 10
0.016885
 20
0.002515
  0
LWPOLYLINE
  8
Tungsten
420
8421631
 90
4
 70
1
 10
0.021285
 20
0.003484
 10
0.021115
 20
0.003484
 10
0.021115
 20
0.003314
 10
0.021285
 20
0.003314
  0
LWPOLYLINE
  8
Tungsten
420
8421631
 90
4
 70
1
 10
0.021285
 20
0.003084
 10
0.021115
 20
0.003084
 10
0.021115
 20
0.002914
 10
0.021285
 20
0.002914
  0
LWPOLYLINE
  8
Tungsten
420
8421631
 90
4
 70
1
 10
0.021285
 20
0.002684
 10
0.021115
 20
0.002684
 10
0.021115
 20
0.002514
 10
0.021285
 20
0.002514
  0
LWPOLYLINE
  8
Tungsten
420
8421631
 90
4
 70
1
 10
0.024885
 20
0.003484
 10
0.024715
 20
0.003484
 10
0.024715
 20
0.003314
 10
0.024885
 20
0.003314
  0
LWPOLYLINE
  8
Tungsten
420
8421631
 90
4
 70
1
 10
0.024885
 20
0.003084
 10
0.024715
 20
0.003084
 10
0.024715
 20
0.002914
 10
0.024885
 20
0.002914
  0
LWPOLYLINE
  8
Tungsten
420
8421631
 90
4
 70
1
 10
0.024885
 20
0.002684
 10
0.024715
 20
0.002684
 10
0.024715
 20
0.002514
 10
0.024885
 20
0.002514
  0
LWPOLYLINE
  8
Tungsten
420
8421631
 90
4
 70
1
 10
0.007085
 20
0.007585
 10
0.006915
 20
0.007585
 10
0.006915
 20
0.007415
 10
0.007085
 20
0.007415
  0
LWPOLYLINE
  8
Tungsten
420
8421631
 90
4
 70
1
 10
0.015085
 20
0.007585
 10
0.014915
 20
0.007585
 10
0.014915
 20
0.007415
 10
0.015085
 20
0.007415
  0
LWPOLYLINE
  8
Tungsten
420
8421631
 90
4
 70
1
 10
0.023085
 20
0.007584
 10
0.022915
 20
0.007584
 10
0.022915
 20
0.007414
 10
0.023085
 20
0.007414
  0
LWPOLYLINE
  8
Tungsten
420
8421631
 90
4
 70
1
 10
0.005285
 20
0.003485
 10
0.005115
 20
0.003485
 10
0.005115
 20
0.003315
 10
0.005285
 20
0.003315
  0
LWPOLYLINE
  8
Tungsten
420
8421631
 90
4
 70
1
 10
0.005285
 20
0.003085
 10
0.005115
 20
0.003085
 10
0.005115
 20
0.002915
 10
0.005285
 20
0.002915
  0
LWPOLYLINE
  8
Tungsten
420
8421631
 90
4
 70
1
 10
0.005285
 20
0.002685
 10
0.005115
 20
0.002685
 10
0.005115
 20
0.002515
 10
0.005285
 20
0.002515
  0
LWPOLYLINE
  8
Tungsten
420
8421631
 90
4
 70
1
 10
0.008885
 20
0.003485
 10
0.008715
 20
0.003485
 10
0.008715
 20
0.003315
 10
0.008885
 20
0.003315
  0
LWPOLYLINE
  8
Tungsten
420
8421631
 90
4
 70
1
 10
0.008885
 20
0.003085
 10
0.008715
 20
0.003085
 10
0.008715
 20
0.002915
 10
0.008885
 20
0.002915
  0
LWPOLYLINE
  8
Tungsten
420
8421631
 90
4
 70
1
 10
0.008885
 20
0.002685
 10
0.008715
 20
0.002685
 10
0.008715
 20
0.002515
 10
0.008885
 20
0.002515
  0
LWPOLYLINE
  8
Tungsten
420
8421631
 90
4
 70
1
 10
0.013285
 20
0.003485
 10
0.013115
 20
0.003485
 10
0.013115
 20
0.003315
 10
0.013285
 20
0.003315
  0
LWPOLYLINE
  8
Tungsten
420
8421631
 90
4
 70
1
 10
0.013285
 20
0.003085
 10
0.013115
 20
0.003085
 10
0.013115
 20
0.002915
 10
0.013285
 20
0.002915
  0
LWPOLYLINE
  8
Tungsten
420
8421631
 90
4
 70
1
 10
0.013285
 20
0.002685
 10
0.013115
 20
0.002685
 10
0.013115
 20
0.002515
 10
0.013285
 20
0.002515
  0
LWPOLYLINE
  8
Tungsten
420
8421631
 90
4
 70
1
 10
0.016885
 20
0.003485
 10
0.016715
 20
0.003485
 10
0.016715
 20
0.003315
 10
0.016885
 20
0.003315
  0
LWPOLYLINE
  8
Tungsten
420
8421631
 90
4
 70
1
 10
0.016885
 20
0.003085
 10
0.016715
 20
0.003085
 10
0.016715
 20
0.002915
 10
0.016885
 20
0.002915
  0
LWPOLYLINE
  8
Tungsten
420
8421631
 90
4
 70
1
 10
0.016885
 20
0.002685
 10
0.016715
 20
0.002685
 10
0.016715
 20
0.002515
 10
0.016885
 20
0.002515
  0
LWPOLYLINE
  8
Tungsten
420
8421631
 90
4
 70
1
 10
0.021285
 20
0.003484
 10
0.021115
 20
0.003484
 10
0.021115
 20
0.003314
 10
0.021285
 20
0.003314
  0
LWPOLYLINE
  8
Tungsten
420
8421631
 90
4
 70
1
 10
0.021285
 20
0.003084
 10
0.021115
 20
0.003084
 10
0.021115
 20
0.002914
 10
0.021285
 20
0.002914
  0
LWPOLYLINE
  8
Tungsten
420
8421631
 90
4
 70
1
 10
0.021285
 20
0.002684
 10
0.021115
 20
0.002684
 10
0.021115
 20
0.002514
 10
0.021285
 20
0.002514
  0
LWPOLYLINE
  8
Tungsten
420
8421631
 90
4
 70
1
 10
0.024885
 20
0.003484
 10
0.024715
 20
0.003484
 10
0.024715
 20
0.003314
 10
0.024885
 20
0.003314
  0
LWPOLYLINE
  8
Tungsten
420
8421631
 90
4
 70
1
 10
0.024885
 20
0.003084
 10
0.024715
 20
0.003084
 10
0.024715
 20
0.002914
 10
0.024885
 20
0.002914
  0
LWPOLYLINE
  8
Tungsten
420
8421631
 90
4
 70
1
 10
0.024885
 20
0.002684
 10
0.024715
 20
0.002684
 10
0.024715
 20
0.002514
 10
0.024885
 20
0.002514
  0
LWPOLYLINE
  8
Tungsten
420
8421631
 90
4
 70
1
 10
0.007085
 20
0.007585
 10
0.006915
 20
0.007585
 10
0.006915
 20
0.007415
 10
0.007085
 20
0.007415
  0
LWPOLYLINE
  8
Tungsten
420
8421631
 90
4
 70
1
 10
0.015085
 20
0.007585
 10
0.014915
 20
0.007585
 10
0.014915
 20
0.007415
 10
0.015085
 20
0.007415
  0
LWPOLYLINE
  8
Tungsten
420
8421631
 90
4
 70
1
 10
0.023085
 20
0.007584
 10
0.022915
 20
0.007584
 10
0.022915
 20
0.007414
 10
0.023085
 20
0.007414
  0
LWPOLYLINE
  8
Tungsten
420
8421631
 90
4
 70
1
 10
0.005285
 20
0.003485
 10
0.005115
 20
0.003485
 10
0.005115
 20
0.003315
 10
0.005285
 20
0.003315
  0
LWPOLYLINE
  8
Tungsten
420
8421631
 90
4
 70
1
 10
0.005285
 20
0.003085
 10
0.005115
 20
0.003085
 10
0.005115
 20
0.002915
 10
0.005285
 20
0.002915
  0
LWPOLYLINE
  8
Tungsten
420
8421631
 90
4
 70
1
 10
0.005285
 20
0.002685
 10
0.005115
 20
0.002685
 10
0.005115
 20
0.002515
 10
0.005285
 20
0.002515
  0
LWPOLYLINE
  8
Tungsten
420
8421631
 90
4
 70
1
 10
0.008885
 20
0.003485
 10
0.008715
 20
0.003485
 10
0.008715
 20
0.003315
 10
0.008885
 20
0.003315
  0
LWPOLYLINE
  8
Tungsten
420
8421631
 90
4
 70
1
 10
0.008885
 20
0.003085
 10
0.008715
 20
0.003085
 10
0.008715
 20
0.002915
 10
0.008885
 20
0.002915
  0
LWPOLYLINE
  8
Tungsten
420
8421631
 90
4
 70
1
 10
0.008885
 20
0.002685
 10
0.008715
 20
0.002685
 10
0.008715
 20
0.002515
 10
0.008885
 20
0.002515
  0
LWPOLYLINE
  8
Tungsten
420
8421631
 90
4
 70
1
 10
0.013285
 20
0.003485
 10
0.013115
 20
0.003485
 10
0.013115
 20
0.003315
 10
0.013285
 20
0.003315
  0
LWPOLYLINE
  8
Tungsten
420
8421631
 90
4
 70
1
 10
0.013285
 20
0.003085
 10
0.013115
 20
0.003085
 10
0.013115
 20
0.002915
 10
0.013285
 20
0.002915
  0
LWPOLYLINE
  8
Tungsten
420
8421631
 90
4
 70
1
 10
0.013285
 20
0.002685
 10
0.013115
 20
0.002685
 10
0.013115
 20
0.002515
 10
0.013285
 20
0.002515
  0
LWPOLYLINE
  8
Tungsten
420
8421631
 90
4
 70
1
 10
0.016885
 20
0.003485
 10
0.016715
 20
0.003485
 10
0.016715
 20
0.003315
 10
0.016885
 20
0.003315
  0
LWPOLYLINE
  8
Tungsten
420
8421631
 90
4
 70
1
 10
0.016885
 20
0.003085
 10
0.016715
 20
0.003085
 10
0.016715
 20
0.002915
 10
0.016885
 20
0.002915
  0
LWPOLYLINE
  8
Tungsten
420
8421631
 90
4
 70
1
 10
0.016885
 20
0.002685
 10
0.016715
 20
0.002685
 10
0.016715
 20
0.002515
 10
0.016885
 20
0.002515
  0
LWPOLYLINE
  8
Tungsten
420
8421631
 90
4
 70
1
 10
0.021285
 20
0.003484
 10
0.021115
 20
0.003484
 10
0.021115
 20
0.003314
 10
0.021285
 20
0.003314
  0
LWPOLYLINE
  8
Tungsten
420
8421631
 90
4
 70
1
 10
0.021285
 20
0.003084
 10
0.021115
 20
0.003084
 10
0.021115
 20
0.002914
 10
0.021285
 20
0.002914
  0
LWPOLYLINE
  8
Tungsten
420
8421631
 90
4
 70
1
 10
0.021285
 20
0.002684
 10
0.021115
 20
0.002684
 10
0.021115
 20
0.002514
 10
0.021285
 20
0.002514
  0
LWPOLYLINE
  8
Tungsten
420
8421631
 90
4
 70
1
 10
0.024885
 20
0.003484
 10
0.024715
 20
0.003484
 10
0.024715
 20
0.003314
 10
0.024885
 20
0.003314
  0
LWPOLYLINE
  8
Tungsten
420
8421631
 90
4
 70
1
 10
0.024885
 20
0.003084
 10
0.024715
 20
0.003084
 10
0.024715
 20
0.002914
 10
0.024885
 20
0.002914
  0
LWPOLYLINE
  8
Tungsten
420
8421631
 90
4
 70
1
 10
0.024885
 20
0.002684
 10
0.024715
 20
0.002684
 10
0.024715
 20
0.002514
 10
0.024885
 20
0.002514
  0
LWPOLYLINE
  8
Tungsten
420
8421631
 90
4
 70
1
 10
0.007085
 20
0.007585
 10
0.006915
 20
0.007585
 10
0.006915
 20
0.007415
 10
0.007085
 20
0.007415
  0
LWPOLYLINE
  8
Tungsten
420
8421631
 90
4
 70
1
 10
0.015085
 20
0.007585
 10
0.014915
 20
0.007585
 10
0.014915
 20
0.007415
 10
0.015085
 20
0.007415
  0
LWPOLYLINE
  8
Tungsten
420
8421631
 90
4
 70
1
 10
0.023085
 20
0.007584
 10
0.022915
 20
0.007584
 10
0.022915
 20
0.007414
 10
0.023085
 20
0.007414
  0
LWPOLYLINE
  8
Aluminum
420
12632256
 90
4
 70
1
 10
0.005400
 20
0.004425
 10
0.005000
 20
0.004425
 10
0.005000
 20
0.001575
 10
0.005400
 20
0.001575
  0
LWPOLYLINE
  8
Aluminum
420
12632256
 90
4
 70
1
 10
0.009000
 20
0.004425
 10
0.008600
 20
0.004425
 10
0.008600
 20
0.001575
 10
0.009000
 20
0.001575
  0
LWPOLYLINE
  8
Aluminum
420
12632256
 90
4
 70
1
 10
0.013400
 20
0.003705
 10
0.013000
 20
0.003705
 10
0.013000
 20
0.002295
 10
0.013400
 20
0.002295
  0
LWPOLYLINE
  8
Aluminum
420
12632256
 90
4
 70
1
 10
0.017000
 20
0.003705
 10
0.016600
 20
0.003705
 10
0.016600
 20
0.002295
 10
0.017000
 20
0.002295
  0
LWPOLYLINE
  8
Aluminum
420
12632256
 90
4
 70
1
 10
0.021400
 20
0.003344
 10
0.021000
 20
0.003344
 10
0.021000
 20
0.002654
 10
0.021400
 20
0.002654
  0
LWPOLYLINE
  8
Aluminum
420
12632256
 90
4
 70
1
 10
0.025000
 20
0.003344
 10
0.024600
 20
0.003344
 10
0.024600
 20
0.002654
 10
0.025000
 20
0.002654
  0
LWPOLYLINE
  8
Aluminum
420
12632256
 90
4
 70
1
 10
0.023500
 20
0.007800
 10
0.006500
 20
0.007800
 10
0.006500
 20
0.007200
 10
0.023500
 20
0.007200
  0
LWPOLYLINE
  8
Silicon_Dioxide
420
14739711
 90
4
 70
1
 10
0.000000
 20
0.000000
 10
0.030000
 20
0.000000
 10
0.030000
 20
0.015000
 10
0.000000
 20
0.015000
  0
LWPOLYLINE
  8
Silicon_Dioxide
420
14739711
 90
4
 70
1
 10
0.000000
 20
0.000000
 10
0.030000
 20
0.000000
 10
0.030000
 20
0.015000
 10
0.000000
 20
0.015000
  0
ENDSEC
  0
EOF
