  0
SECTION
  2
HEADER
  9
$ACADVER
  1
AC1018
  0
ENDSEC
  0
SECTION
  2
TABLES
  0
TABLE
  2
LAYER
  0
LAYER
  2
Silicon_Dioxide
 70
0
 62
7
  0
LAYER
  2
Polysilicon
 70
0
 62
7
  0
LAYER
  2
Aluminum
 70
0
 62
7
  0
LAYER
  2
Tungsten
 70
0
 62
7
  0
ENDTAB
  0
ENDSEC
  0
SECTION
  2
ENTITIES
  0
LWPOLYLINE
  8
Polysilicon
420
16736352
 90
6
 70
1
 10
0.015000
 20
0.011500
 10
0.020000
 20
0.011500
 10
0.020000
 20
0.012500
 10
0.010000
 20
0.012500
 10
0.005000
 20
0.012500
 10
0.005000
 20
0.011500
  0
LWPOLYLINE
  8
Polysilicon
420
16736352
 90
7
 70
1
 10
0.009500
 20
-0.002000
 10
0.012000
 20
-0.002000
 10
0.012000
 20
0.007000
 10
0.012000
 20
0.008000
 10
0.007000
 20
0.008000
 10
0.004500
 20
0.008000
 10
0.004500
 20
-0.002000
  0
LWPOLYLINE
  8
Tungsten
420
8421631
 90
4
 70
1
 10
0.007200
 20
0.003200
 10
0.006800
 20
0.003200
 10
0.006800
 20
0.002800
 10
0.007200
 20
0.002800
  0
LWPOLYLINE
  8
Tungsten
420
8421631
 90
4
 70
1
 10
0.009700
 20
0.003200
 10
0.009300
 20
0.003200
 10
0.009300
 20
0.002800
 10
0.009700
 20
0.002800
  0
LWPOLYLINE
  8
Tungsten
420
8421631
 90
4
 70
1
 10
0.007200
 20
0.007700
 10
0.006800
 20
0.007700
 10
0.006800
 20
0.007300
 10
0.007200
 20
0.007300
  0
LWPOLYLINE
  8
Tungsten
420
8421631
 90
4
 70
1
 10
0.009700
 20
0.007700
 10
0.009300
 20
0.007700
 10
0.009300
 20
0.007300
 10
0.009700
 20
0.007300
  0
LWPOLYLINE
  8
Tungsten
420
8421631
 90
4
 70
1
 10
0.010200
 20
0.012200
 10
0.009800
 20
0.012200
 10
0.009800
 20
0.011800
 10
0.010200
 20
0.011800
  0
LWPOLYLINE
  8
Tungsten
420
8421631
 90
4
 70
1
 10
0.015200
 20
0.012200
 10
0.014800
 20
0.012200
 10
0.014800
 20
0.011800
 10
0.015200
 20
0.011800
  0
LWPOLYLINE
  8
Tungsten
420
8421631
 90
4
 70
1
 10
0.007200
 20
0.003200
 10
0.006800
 20
0.003200
 10
0.006800
 20
0.002800
 10
0.007200
 20
0.002800
  0
LWPOLYLINE
  8
Tungsten
420
8421631
 90
4
 70
1
 10
0.009700
 20
0.003200
 10
0.009300
 20
0.003200
 10
0.009300
 20
0.002800
 10
0.009700
 20
0.002800
  0
LWPOLYLINE
  8
Tungsten
420
8421631
 90
4
 70
1
 10
0.007200
 20
0.007700
 10
0.006800
 20
0.007700
 10
0.006800
 20
0.007300
 10
0.007200
 20
0.007300
  0
LWPOLYLINE
  8
Tungsten
420
8421631
 90
4
 70
1
 10
0.009700
 20
0.007700
 10
0.009300
 20
0.007700
 10
0.009300
 20
0.007300
 10
0.009700
 20
0.007300
  0
LWPOLYLINE
  8
Tungsten
420
8421631
 90
4
 70
1
 10
0.010200
 20
0.012200
 10
0.009800
 20
0.012200
 10
0.009800
 20
0.011800
 10
0.010200
 20
0.011800
  0
LWPOLYLINE
  8
Tungsten
420
8421631
 90
4
 70
1
 10
0.015200
 20
0.012200
 10
0.014800
 20
0.012200
 10
0.014800
 20
0.011800
 10
0.015200
 20
0.011800
  0
LWPOLYLINE
  8
Tungsten
420
8421631
 90
4
 70
1
 10
0.007200
 20
0.003200
 10
0.006800
 20
0.003200
 10
0.006800
 20
0.002800
 10
0.007200
 20
0.002800
  0
LWPOLYLINE
  8
Tungsten
420
8421631
 90
4
 70
1
 10
0.009700
 20
0.003200
 10
0.009300
 20
0.003200
 10
0.009300
 20
0.002800
 10
0.009700
 20
0.002800
  0
LWPOLYLINE
  8
Tungsten
420
8421631
 90
4
 70
1
 10
0.007200
 20
0.007700
 10
0.006800
 20
0.007700
 10
0.006800
 20
0.007300
 10
0.007200
 20
0.007300
  0
LWPOLYLINE
  8
Tungsten
420
8421631
 90
4
 70
1
 10
0.009700
 20
0.007700
 10
0.009300
 20
0.007700
 10
0.009300
 20
0.007300
 10
0.009700
 20
0.007300
  0
LWPOLYLINE
  8
Tungsten
420
8421631
 90
4
 70
1
 10
0.010200
 20
0.012200
 10
0.009800
 20
0.012200
 10
0.009800
 20
0.011800
 10
0.010200
 20
0.011800
  0
LWPOLYLINE
  8
Tungsten
420
8421631
 90
4
 70
1
 10
0.015200
 20
0.012200
 10
0.014800
 20
0.012200
 10
0.014800
 20
0.011800
 10
0.015200
 20
0.011800
  0
LWPOLYLINE
  8
Aluminum
420
12632256
 90
4
 70
1
 10
0.007400
 20
0.003400
 10
0.006600
 20
0.003400
 10
0.006600
 20
0.002600
 10
0.007400
 20
0.002600
  0
LWPOLYLINE
  8
Aluminum
420
12632256
 90
4
 70
1
 10
0.009900
 20
0.003400
 10
0.009100
 20
0.003400
 10
0.009100
 20
0.002600
 10
0.009900
 20
0.002600
  0
LWPOLYLINE
  8
Aluminum
420
12632256
 90
4
 70
1
 10
0.007400
 20
0.007900
 10
0.006600
 20
0.007900
 10
0.006600
 20
0.007100
 10
0.007400
 20
0.007100
  0
LWPOLYLINE
  8
Aluminum
420
12632256
 90
4
 70
1
 10
0.009900
 20
0.007900
 10
0.009100
 20
0.007900
 10
0.009100
 20
0.007100
 10
0.009900
 20
0.007100
  0
LWPOLYLINE
  8
Aluminum
420
12632256
 90
4
 70
1
 10
0.010400
 20
0.012400
 10
0.009600
 20
0.012400
 10
0.009600
 20
0.011600
 10
0.010400
 20
0.011600
  0
LWPOLYLINE
  8
Aluminum
420
12632256
 90
4
 70
1
 10
0.015400
 20
0.012400
 10
0.014600
 20
0.012400
 10
0.014600
 20
0.011600
 10
0.015400
 20
0.011600
  0
LWPOLYLINE
  8
Silicon_Dioxide
420
14739711
 90
4
 70
1
 10
0.000000
 20
0.000000
 10
0.030000
 20
0.000000
 10
0.030000
 20
0.015000
 10
0.000000
 20
0.015000
  0
ENDSEC
  0
EOF
