  0
SECTION
  2
HEADER
  9
$ACADVER
  1
AC1018
  0
ENDSEC
  0
SECTION
  2
TABLES
  0
TABLE
  2
LAYER
  0
LAYER
  2
Silicon_Dioxide
 70
0
 62
7
  0
LAYER
  2
N_Plus_Diffusion
 70
0
 62
7
  0
LAYER
  2
N_Plus_Implant_Mask
 70
0
 62
7
  0
LAYER
  2
P_Plus_Diffusion
 70
0
 62
7
  0
LAYER
  2
N_Well_Mask
 70
0
 62
7
  0
LAYER
  2
P_Plus_Implant_Mask
 70
0
 62
7
  0
LAYER
  2
Polysilicon
 70
0
 62
7
  0
LAYER
  2
Nitride_Poly_Cut_Mask
 70
0
 62
7
  0
LAYER
  2
Titanium_Nitride
 70
0
 62
7
  0
LAYER
  2
Aluminum
 70
0
 62
7
  0
LAYER
  2
Tungsten
 70
0
 62
7
  0
LAYER
  2
Tap_Mask
 70
0
 62
7
  0
ENDTAB
  0
ENDSEC
  0
SECTION
  2
ENTITIES
  0
LWPOLYLINE
  8
N_Plus_Diffusion
420
9498256
 90
4
 70
1
 10
0.010825
 20
0.005500
 10
0.009175
 20
0.005500
 10
0.009175
 20
0.004500
 10
0.010825
 20
0.004500
  0
LWPOLYLINE
  8
N_Plus_Diffusion
420
9498256
 90
4
 70
1
 10
0.009700
 20
0.012350
 10
0.009400
 20
0.012350
 10
0.009400
 20
0.012050
 10
0.009700
 20
0.012050
  0
LWPOLYLINE
  8
P_Plus_Diffusion
420
16744576
 90
4
 70
1
 10
0.010825
 20
0.011000
 10
0.009175
 20
0.011000
 10
0.009175
 20
0.009000
 10
0.010825
 20
0.009000
  0
LWPOLYLINE
  8
P_Plus_Diffusion
420
16744576
 90
4
 70
1
 10
0.009700
 20
0.002950
 10
0.009400
 20
0.002950
 10
0.009400
 20
0.002650
 10
0.009700
 20
0.002650
  0
LWPOLYLINE
  8
Tungsten
420
8421631
 90
4
 70
1
 10
0.009635
 20
0.012285
 10
0.009465
 20
0.012285
 10
0.009465
 20
0.012115
 10
0.009635
 20
0.012115
  0
LWPOLYLINE
  8
Tungsten
420
8421631
 90
4
 70
1
 10
0.009635
 20
0.010485
 10
0.009465
 20
0.010485
 10
0.009465
 20
0.010315
 10
0.009635
 20
0.010315
  0
LWPOLYLINE
  8
Tungsten
420
8421631
 90
4
 70
1
 10
0.009635
 20
0.010085
 10
0.009465
 20
0.010085
 10
0.009465
 20
0.009915
 10
0.009635
 20
0.009915
  0
LWPOLYLINE
  8
Tungsten
420
8421631
 90
4
 70
1
 10
0.009635
 20
0.009685
 10
0.009465
 20
0.009685
 10
0.009465
 20
0.009515
 10
0.009635
 20
0.009515
  0
LWPOLYLINE
  8
Tungsten
420
8421631
 90
4
 70
1
 10
0.009635
 20
0.005285
 10
0.009465
 20
0.005285
 10
0.009465
 20
0.005115
 10
0.009635
 20
0.005115
  0
LWPOLYLINE
  8
Tungsten
420
8421631
 90
4
 70
1
 10
0.009635
 20
0.004885
 10
0.009465
 20
0.004885
 10
0.009465
 20
0.004715
 10
0.009635
 20
0.004715
  0
LWPOLYLINE
  8
Tungsten
420
8421631
 90
4
 70
1
 10
0.009635
 20
0.002885
 10
0.009465
 20
0.002885
 10
0.009465
 20
0.002715
 10
0.009635
 20
0.002715
  0
LWPOLYLINE
  8
Tungsten
420
8421631
 90
4
 70
1
 10
0.010535
 20
0.010485
 10
0.010365
 20
0.010485
 10
0.010365
 20
0.010315
 10
0.010535
 20
0.010315
  0
LWPOLYLINE
  8
Tungsten
420
8421631
 90
4
 70
1
 10
0.010535
 20
0.010085
 10
0.010365
 20
0.010085
 10
0.010365
 20
0.009915
 10
0.010535
 20
0.009915
  0
LWPOLYLINE
  8
Tungsten
420
8421631
 90
4
 70
1
 10
0.010535
 20
0.009685
 10
0.010365
 20
0.009685
 10
0.010365
 20
0.009515
 10
0.010535
 20
0.009515
  0
LWPOLYLINE
  8
Tungsten
420
8421631
 90
4
 70
1
 10
0.010535
 20
0.005285
 10
0.010365
 20
0.005285
 10
0.010365
 20
0.005115
 10
0.010535
 20
0.005115
  0
LWPOLYLINE
  8
Tungsten
420
8421631
 90
4
 70
1
 10
0.010535
 20
0.004885
 10
0.010365
 20
0.004885
 10
0.010365
 20
0.004715
 10
0.010535
 20
0.004715
  0
LWPOLYLINE
  8
Tungsten
420
8421631
 90
4
 70
1
 10
0.009635
 20
0.012285
 10
0.009465
 20
0.012285
 10
0.009465
 20
0.012115
 10
0.009635
 20
0.012115
  0
LWPOLYLINE
  8
Tungsten
420
8421631
 90
4
 70
1
 10
0.009635
 20
0.010485
 10
0.009465
 20
0.010485
 10
0.009465
 20
0.010315
 10
0.009635
 20
0.010315
  0
LWPOLYLINE
  8
Tungsten
420
8421631
 90
4
 70
1
 10
0.009635
 20
0.010085
 10
0.009465
 20
0.010085
 10
0.009465
 20
0.009915
 10
0.009635
 20
0.009915
  0
LWPOLYLINE
  8
Tungsten
420
8421631
 90
4
 70
1
 10
0.009635
 20
0.009685
 10
0.009465
 20
0.009685
 10
0.009465
 20
0.009515
 10
0.009635
 20
0.009515
  0
LWPOLYLINE
  8
Tungsten
420
8421631
 90
4
 70
1
 10
0.009635
 20
0.005285
 10
0.009465
 20
0.005285
 10
0.009465
 20
0.005115
 10
0.009635
 20
0.005115
  0
LWPOLYLINE
  8
Tungsten
420
8421631
 90
4
 70
1
 10
0.009635
 20
0.004885
 10
0.009465
 20
0.004885
 10
0.009465
 20
0.004715
 10
0.009635
 20
0.004715
  0
LWPOLYLINE
  8
Tungsten
420
8421631
 90
4
 70
1
 10
0.009635
 20
0.002885
 10
0.009465
 20
0.002885
 10
0.009465
 20
0.002715
 10
0.009635
 20
0.002715
  0
LWPOLYLINE
  8
Tungsten
420
8421631
 90
4
 70
1
 10
0.010535
 20
0.010485
 10
0.010365
 20
0.010485
 10
0.010365
 20
0.010315
 10
0.010535
 20
0.010315
  0
LWPOLYLINE
  8
Tungsten
420
8421631
 90
4
 70
1
 10
0.010535
 20
0.010085
 10
0.010365
 20
0.010085
 10
0.010365
 20
0.009915
 10
0.010535
 20
0.009915
  0
LWPOLYLINE
  8
Tungsten
420
8421631
 90
4
 70
1
 10
0.010535
 20
0.009685
 10
0.010365
 20
0.009685
 10
0.010365
 20
0.009515
 10
0.010535
 20
0.009515
  0
LWPOLYLINE
  8
Tungsten
420
8421631
 90
4
 70
1
 10
0.010535
 20
0.005285
 10
0.010365
 20
0.005285
 10
0.010365
 20
0.005115
 10
0.010535
 20
0.005115
  0
LWPOLYLINE
  8
Tungsten
420
8421631
 90
4
 70
1
 10
0.010535
 20
0.004885
 10
0.010365
 20
0.004885
 10
0.010365
 20
0.004715
 10
0.010535
 20
0.004715
  0
LWPOLYLINE
  8
Polysilicon
420
16736352
 90
12
 70
1
 10
0.010200
 20
0.011600
 10
0.009800
 20
0.011600
 10
0.009800
 20
0.011200
 10
0.009925
 20
0.011200
 10
0.009925
 20
0.010000
 10
0.009925
 20
0.005700
 10
0.009925
 20
0.004300
 10
0.010075
 20
0.004300
 10
0.010075
 20
0.005000
 10
0.010075
 20
0.008800
 10
0.010075
 20
0.011200
 10
0.010200
 20
0.011200
  0
LWPOLYLINE
  8
Tungsten
420
8421631
 90
4
 70
1
 10
0.010085
 20
0.011485
 10
0.009915
 20
0.011485
 10
0.009915
 20
0.011315
 10
0.010085
 20
0.011315
  0
LWPOLYLINE
  8
Tungsten
420
8421631
 90
4
 70
1
 10
0.009635
 20
0.012285
 10
0.009465
 20
0.012285
 10
0.009465
 20
0.012115
 10
0.009635
 20
0.012115
  0
LWPOLYLINE
  8
Tungsten
420
8421631
 90
4
 70
1
 10
0.009635
 20
0.010485
 10
0.009465
 20
0.010485
 10
0.009465
 20
0.010315
 10
0.009635
 20
0.010315
  0
LWPOLYLINE
  8
Tungsten
420
8421631
 90
4
 70
1
 10
0.009635
 20
0.010085
 10
0.009465
 20
0.010085
 10
0.009465
 20
0.009915
 10
0.009635
 20
0.009915
  0
LWPOLYLINE
  8
Tungsten
420
8421631
 90
4
 70
1
 10
0.009635
 20
0.009685
 10
0.009465
 20
0.009685
 10
0.009465
 20
0.009515
 10
0.009635
 20
0.009515
  0
LWPOLYLINE
  8
Tungsten
420
8421631
 90
4
 70
1
 10
0.009635
 20
0.005285
 10
0.009465
 20
0.005285
 10
0.009465
 20
0.005115
 10
0.009635
 20
0.005115
  0
LWPOLYLINE
  8
Tungsten
420
8421631
 90
4
 70
1
 10
0.009635
 20
0.004885
 10
0.009465
 20
0.004885
 10
0.009465
 20
0.004715
 10
0.009635
 20
0.004715
  0
LWPOLYLINE
  8
Tungsten
420
8421631
 90
4
 70
1
 10
0.009635
 20
0.002885
 10
0.009465
 20
0.002885
 10
0.009465
 20
0.002715
 10
0.009635
 20
0.002715
  0
LWPOLYLINE
  8
Tungsten
420
8421631
 90
4
 70
1
 10
0.010085
 20
0.011485
 10
0.009915
 20
0.011485
 10
0.009915
 20
0.011315
 10
0.010085
 20
0.011315
  0
LWPOLYLINE
  8
Tungsten
420
8421631
 90
4
 70
1
 10
0.010535
 20
0.010485
 10
0.010365
 20
0.010485
 10
0.010365
 20
0.010315
 10
0.010535
 20
0.010315
  0
LWPOLYLINE
  8
Tungsten
420
8421631
 90
4
 70
1
 10
0.010535
 20
0.010085
 10
0.010365
 20
0.010085
 10
0.010365
 20
0.009915
 10
0.010535
 20
0.009915
  0
LWPOLYLINE
  8
Tungsten
420
8421631
 90
4
 70
1
 10
0.010535
 20
0.009685
 10
0.010365
 20
0.009685
 10
0.010365
 20
0.009515
 10
0.010535
 20
0.009515
  0
LWPOLYLINE
  8
Tungsten
420
8421631
 90
4
 70
1
 10
0.010535
 20
0.005285
 10
0.010365
 20
0.005285
 10
0.010365
 20
0.005115
 10
0.010535
 20
0.005115
  0
LWPOLYLINE
  8
Tungsten
420
8421631
 90
4
 70
1
 10
0.010535
 20
0.004885
 10
0.010365
 20
0.004885
 10
0.010365
 20
0.004715
 10
0.010535
 20
0.004715
  0
LWPOLYLINE
  8
Tungsten
420
8421631
 90
4
 70
1
 10
0.009635
 20
0.012285
 10
0.009465
 20
0.012285
 10
0.009465
 20
0.012115
 10
0.009635
 20
0.012115
  0
LWPOLYLINE
  8
Tungsten
420
8421631
 90
4
 70
1
 10
0.009635
 20
0.010485
 10
0.009465
 20
0.010485
 10
0.009465
 20
0.010315
 10
0.009635
 20
0.010315
  0
LWPOLYLINE
  8
Tungsten
420
8421631
 90
4
 70
1
 10
0.009635
 20
0.010085
 10
0.009465
 20
0.010085
 10
0.009465
 20
0.009915
 10
0.009635
 20
0.009915
  0
LWPOLYLINE
  8
Tungsten
420
8421631
 90
4
 70
1
 10
0.009635
 20
0.009685
 10
0.009465
 20
0.009685
 10
0.009465
 20
0.009515
 10
0.009635
 20
0.009515
  0
LWPOLYLINE
  8
Tungsten
420
8421631
 90
4
 70
1
 10
0.009635
 20
0.005285
 10
0.009465
 20
0.005285
 10
0.009465
 20
0.005115
 10
0.009635
 20
0.005115
  0
LWPOLYLINE
  8
Tungsten
420
8421631
 90
4
 70
1
 10
0.009635
 20
0.004885
 10
0.009465
 20
0.004885
 10
0.009465
 20
0.004715
 10
0.009635
 20
0.004715
  0
LWPOLYLINE
  8
Tungsten
420
8421631
 90
4
 70
1
 10
0.009635
 20
0.002885
 10
0.009465
 20
0.002885
 10
0.009465
 20
0.002715
 10
0.009635
 20
0.002715
  0
LWPOLYLINE
  8
Tungsten
420
8421631
 90
4
 70
1
 10
0.010085
 20
0.011485
 10
0.009915
 20
0.011485
 10
0.009915
 20
0.011315
 10
0.010085
 20
0.011315
  0
LWPOLYLINE
  8
Tungsten
420
8421631
 90
4
 70
1
 10
0.010535
 20
0.010485
 10
0.010365
 20
0.010485
 10
0.010365
 20
0.010315
 10
0.010535
 20
0.010315
  0
LWPOLYLINE
  8
Tungsten
420
8421631
 90
4
 70
1
 10
0.010535
 20
0.010085
 10
0.010365
 20
0.010085
 10
0.010365
 20
0.009915
 10
0.010535
 20
0.009915
  0
LWPOLYLINE
  8
Tungsten
420
8421631
 90
4
 70
1
 10
0.010535
 20
0.009685
 10
0.010365
 20
0.009685
 10
0.010365
 20
0.009515
 10
0.010535
 20
0.009515
  0
LWPOLYLINE
  8
Tungsten
420
8421631
 90
4
 70
1
 10
0.010535
 20
0.005285
 10
0.010365
 20
0.005285
 10
0.010365
 20
0.005115
 10
0.010535
 20
0.005115
  0
LWPOLYLINE
  8
Tungsten
420
8421631
 90
4
 70
1
 10
0.010535
 20
0.004885
 10
0.010365
 20
0.004885
 10
0.010365
 20
0.004715
 10
0.010535
 20
0.004715
  0
LWPOLYLINE
  8
Titanium_Nitride
420
13938487
 90
4
 70
1
 10
0.009700
 20
0.012350
 10
0.009400
 20
0.012350
 10
0.009400
 20
0.012050
 10
0.009700
 20
0.012050
  0
LWPOLYLINE
  8
Titanium_Nitride
420
13938487
 90
4
 70
1
 10
0.009750
 20
0.011000
 10
0.009350
 20
0.011000
 10
0.009350
 20
0.009000
 10
0.009750
 20
0.009000
  0
LWPOLYLINE
  8
Titanium_Nitride
420
13938487
 90
4
 70
1
 10
0.009750
 20
0.005500
 10
0.009350
 20
0.005500
 10
0.009350
 20
0.004500
 10
0.009750
 20
0.004500
  0
LWPOLYLINE
  8
Titanium_Nitride
420
13938487
 90
4
 70
1
 10
0.009700
 20
0.002950
 10
0.009400
 20
0.002950
 10
0.009400
 20
0.002650
 10
0.009700
 20
0.002650
  0
LWPOLYLINE
  8
Titanium_Nitride
420
13938487
 90
4
 70
1
 10
0.010200
 20
0.011600
 10
0.009800
 20
0.011600
 10
0.009800
 20
0.011200
 10
0.010200
 20
0.011200
  0
LWPOLYLINE
  8
Titanium_Nitride
420
13938487
 90
6
 70
1
 10
0.010650
 20
0.009000
 10
0.010650
 20
0.011000
 10
0.010250
 20
0.011000
 10
0.010250
 20
0.010750
 10
0.010250
 20
0.004250
 10
0.010650
 20
0.004250
  0
LWPOLYLINE
  8
Tungsten
420
8421631
 90
4
 70
1
 10
0.009635
 20
0.012285
 10
0.009465
 20
0.012285
 10
0.009465
 20
0.012115
 10
0.009635
 20
0.012115
  0
LWPOLYLINE
  8
Tungsten
420
8421631
 90
4
 70
1
 10
0.009635
 20
0.010485
 10
0.009465
 20
0.010485
 10
0.009465
 20
0.010315
 10
0.009635
 20
0.010315
  0
LWPOLYLINE
  8
Tungsten
420
8421631
 90
4
 70
1
 10
0.009635
 20
0.010085
 10
0.009465
 20
0.010085
 10
0.009465
 20
0.009915
 10
0.009635
 20
0.009915
  0
LWPOLYLINE
  8
Tungsten
420
8421631
 90
4
 70
1
 10
0.009635
 20
0.009685
 10
0.009465
 20
0.009685
 10
0.009465
 20
0.009515
 10
0.009635
 20
0.009515
  0
LWPOLYLINE
  8
Tungsten
420
8421631
 90
4
 70
1
 10
0.009635
 20
0.005285
 10
0.009465
 20
0.005285
 10
0.009465
 20
0.005115
 10
0.009635
 20
0.005115
  0
LWPOLYLINE
  8
Tungsten
420
8421631
 90
4
 70
1
 10
0.009635
 20
0.004885
 10
0.009465
 20
0.004885
 10
0.009465
 20
0.004715
 10
0.009635
 20
0.004715
  0
LWPOLYLINE
  8
Tungsten
420
8421631
 90
4
 70
1
 10
0.009635
 20
0.002885
 10
0.009465
 20
0.002885
 10
0.009465
 20
0.002715
 10
0.009635
 20
0.002715
  0
LWPOLYLINE
  8
Tungsten
420
8421631
 90
4
 70
1
 10
0.010085
 20
0.011485
 10
0.009915
 20
0.011485
 10
0.009915
 20
0.011315
 10
0.010085
 20
0.011315
  0
LWPOLYLINE
  8
Tungsten
420
8421631
 90
4
 70
1
 10
0.010535
 20
0.010085
 10
0.010365
 20
0.010085
 10
0.010365
 20
0.009915
 10
0.010535
 20
0.009915
  0
LWPOLYLINE
  8
Tungsten
420
8421631
 90
4
 70
1
 10
0.010535
 20
0.007785
 10
0.010365
 20
0.007785
 10
0.010365
 20
0.007615
 10
0.010535
 20
0.007615
  0
LWPOLYLINE
  8
Tungsten
420
8421631
 90
4
 70
1
 10
0.010535
 20
0.007385
 10
0.010365
 20
0.007385
 10
0.010365
 20
0.007215
 10
0.010535
 20
0.007215
  0
LWPOLYLINE
  8
Tungsten
420
8421631
 90
4
 70
1
 10
0.010535
 20
0.005085
 10
0.010365
 20
0.005085
 10
0.010365
 20
0.004915
 10
0.010535
 20
0.004915
  0
LWPOLYLINE
  8
Tungsten
420
8421631
 90
4
 70
1
 10
0.009635
 20
0.012285
 10
0.009465
 20
0.012285
 10
0.009465
 20
0.012115
 10
0.009635
 20
0.012115
  0
LWPOLYLINE
  8
Tungsten
420
8421631
 90
4
 70
1
 10
0.009635
 20
0.010485
 10
0.009465
 20
0.010485
 10
0.009465
 20
0.010315
 10
0.009635
 20
0.010315
  0
LWPOLYLINE
  8
Tungsten
420
8421631
 90
4
 70
1
 10
0.009635
 20
0.010085
 10
0.009465
 20
0.010085
 10
0.009465
 20
0.009915
 10
0.009635
 20
0.009915
  0
LWPOLYLINE
  8
Tungsten
420
8421631
 90
4
 70
1
 10
0.009635
 20
0.009685
 10
0.009465
 20
0.009685
 10
0.009465
 20
0.009515
 10
0.009635
 20
0.009515
  0
LWPOLYLINE
  8
Tungsten
420
8421631
 90
4
 70
1
 10
0.009635
 20
0.005285
 10
0.009465
 20
0.005285
 10
0.009465
 20
0.005115
 10
0.009635
 20
0.005115
  0
LWPOLYLINE
  8
Tungsten
420
8421631
 90
4
 70
1
 10
0.009635
 20
0.004885
 10
0.009465
 20
0.004885
 10
0.009465
 20
0.004715
 10
0.009635
 20
0.004715
  0
LWPOLYLINE
  8
Tungsten
420
8421631
 90
4
 70
1
 10
0.009635
 20
0.002885
 10
0.009465
 20
0.002885
 10
0.009465
 20
0.002715
 10
0.009635
 20
0.002715
  0
LWPOLYLINE
  8
Tungsten
420
8421631
 90
4
 70
1
 10
0.010085
 20
0.011485
 10
0.009915
 20
0.011485
 10
0.009915
 20
0.011315
 10
0.010085
 20
0.011315
  0
LWPOLYLINE
  8
Tungsten
420
8421631
 90
4
 70
1
 10
0.010535
 20
0.010085
 10
0.010365
 20
0.010085
 10
0.010365
 20
0.009915
 10
0.010535
 20
0.009915
  0
LWPOLYLINE
  8
Tungsten
420
8421631
 90
4
 70
1
 10
0.010535
 20
0.007785
 10
0.010365
 20
0.007785
 10
0.010365
 20
0.007615
 10
0.010535
 20
0.007615
  0
LWPOLYLINE
  8
Tungsten
420
8421631
 90
4
 70
1
 10
0.010535
 20
0.007385
 10
0.010365
 20
0.007385
 10
0.010365
 20
0.007215
 10
0.010535
 20
0.007215
  0
LWPOLYLINE
  8
Tungsten
420
8421631
 90
4
 70
1
 10
0.010535
 20
0.005085
 10
0.010365
 20
0.005085
 10
0.010365
 20
0.004915
 10
0.010535
 20
0.004915
  0
LWPOLYLINE
  8
Tungsten
420
8421631
 90
4
 70
1
 10
0.009635
 20
0.012285
 10
0.009465
 20
0.012285
 10
0.009465
 20
0.012115
 10
0.009635
 20
0.012115
  0
LWPOLYLINE
  8
Tungsten
420
8421631
 90
4
 70
1
 10
0.009635
 20
0.010485
 10
0.009465
 20
0.010485
 10
0.009465
 20
0.010315
 10
0.009635
 20
0.010315
  0
LWPOLYLINE
  8
Tungsten
420
8421631
 90
4
 70
1
 10
0.009635
 20
0.010085
 10
0.009465
 20
0.010085
 10
0.009465
 20
0.009915
 10
0.009635
 20
0.009915
  0
LWPOLYLINE
  8
Tungsten
420
8421631
 90
4
 70
1
 10
0.009635
 20
0.009685
 10
0.009465
 20
0.009685
 10
0.009465
 20
0.009515
 10
0.009635
 20
0.009515
  0
LWPOLYLINE
  8
Tungsten
420
8421631
 90
4
 70
1
 10
0.009635
 20
0.005285
 10
0.009465
 20
0.005285
 10
0.009465
 20
0.005115
 10
0.009635
 20
0.005115
  0
LWPOLYLINE
  8
Tungsten
420
8421631
 90
4
 70
1
 10
0.009635
 20
0.004885
 10
0.009465
 20
0.004885
 10
0.009465
 20
0.004715
 10
0.009635
 20
0.004715
  0
LWPOLYLINE
  8
Tungsten
420
8421631
 90
4
 70
1
 10
0.009635
 20
0.002885
 10
0.009465
 20
0.002885
 10
0.009465
 20
0.002715
 10
0.009635
 20
0.002715
  0
LWPOLYLINE
  8
Tungsten
420
8421631
 90
4
 70
1
 10
0.010085
 20
0.011485
 10
0.009915
 20
0.011485
 10
0.009915
 20
0.011315
 10
0.010085
 20
0.011315
  0
LWPOLYLINE
  8
Tungsten
420
8421631
 90
4
 70
1
 10
0.010535
 20
0.010085
 10
0.010365
 20
0.010085
 10
0.010365
 20
0.009915
 10
0.010535
 20
0.009915
  0
LWPOLYLINE
  8
Tungsten
420
8421631
 90
4
 70
1
 10
0.010535
 20
0.007785
 10
0.010365
 20
0.007785
 10
0.010365
 20
0.007615
 10
0.010535
 20
0.007615
  0
LWPOLYLINE
  8
Tungsten
420
8421631
 90
4
 70
1
 10
0.010535
 20
0.007385
 10
0.010365
 20
0.007385
 10
0.010365
 20
0.007215
 10
0.010535
 20
0.007215
  0
LWPOLYLINE
  8
Tungsten
420
8421631
 90
4
 70
1
 10
0.010535
 20
0.005085
 10
0.010365
 20
0.005085
 10
0.010365
 20
0.004915
 10
0.010535
 20
0.004915
  0
LWPOLYLINE
  8
Aluminum
420
12632256
 90
20
 70
1
 10
0.009700
 20
0.012350
 10
0.009400
 20
0.012350
 10
0.009400
 20
0.012050
 10
0.009450
 20
0.012050
 10
0.009450
 20
0.011000
 10
0.009350
 20
0.011000
 10
0.009350
 20
0.010100
 10
0.007450
 20
0.010100
 10
0.007450
 20
0.010600
 10
0.006250
 20
0.010600
 10
0.006250
 20
0.009400
 10
0.007450
 20
0.009400
 10
0.007450
 20
0.009900
 10
0.009350
 20
0.009900
 10
0.009350
 20
0.009000
 10
0.009750
 20
0.009000
 10
0.009750
 20
0.011000
 10
0.009650
 20
0.011000
 10
0.009650
 20
0.012050
 10
0.009700
 20
0.012050
  0
LWPOLYLINE
  8
Aluminum
420
12632256
 90
20
 70
1
 10
0.007450
 20
0.004900
 10
0.009350
 20
0.004900
 10
0.009350
 20
0.004500
 10
0.009450
 20
0.004500
 10
0.009450
 20
0.002950
 10
0.009400
 20
0.002950
 10
0.009400
 20
0.002650
 10
0.009700
 20
0.002650
 10
0.009700
 20
0.002950
 10
0.009650
 20
0.002950
 10
0.009650
 20
0.004500
 10
0.009750
 20
0.004500
 10
0.009750
 20
0.005500
 10
0.009350
 20
0.005500
 10
0.009350
 20
0.005100
 10
0.007450
 20
0.005100
 10
0.007450
 20
0.005600
 10
0.006250
 20
0.005600
 10
0.006250
 20
0.004400
 10
0.007450
 20
0.004400
  0
LWPOLYLINE
  8
Aluminum
420
12632256
 90
12
 70
1
 10
0.010600
 20
0.014800
 10
0.009400
 20
0.014800
 10
0.009400
 20
0.013600
 10
0.009900
 20
0.013600
 10
0.009900
 20
0.011600
 10
0.009800
 20
0.011600
 10
0.009800
 20
0.011200
 10
0.010200
 20
0.011200
 10
0.010200
 20
0.011600
 10
0.010100
 20
0.011600
 10
0.010100
 20
0.013600
 10
0.010600
 20
0.013600
  0
LWPOLYLINE
  8
Aluminum
420
12632256
 90
20
 70
1
 10
0.010650
 20
0.007100
 10
0.010850
 20
0.007100
 10
0.010850
 20
0.007300
 10
0.012750
 20
0.007300
 10
0.012750
 20
0.006900
 10
0.013950
 20
0.006900
 10
0.013950
 20
0.008100
 10
0.012750
 20
0.008100
 10
0.012750
 20
0.007700
 10
0.010850
 20
0.007700
 10
0.010850
 20
0.007900
 10
0.010650
 20
0.007900
 10
0.010650
 20
0.010750
 10
0.010250
 20
0.010750
 10
0.010250
 20
0.007900
 10
0.010050
 20
0.007900
 10
0.010050
 20
0.007100
 10
0.010250
 20
0.007100
 10
0.010250
 20
0.004250
 10
0.010650
 20
0.004250
  0
LWPOLYLINE
  8
Silicon_Dioxide
420
14739711
 90
4
 70
1
 10
0.000000
 20
0.000000
 10
0.020000
 20
0.000000
 10
0.020000
 20
0.018000
 10
0.000000
 20
0.018000
  0
LWPOLYLINE
  8
Silicon_Dioxide
420
14739711
 90
4
 70
1
 10
0.000000
 20
0.000000
 10
0.020000
 20
0.000000
 10
0.020000
 20
0.018000
 10
0.000000
 20
0.018000
  0
LWPOLYLINE
  8
N_Plus_Implant_Mask
420
8454143
 90
4
 70
1
 10
0.009045
 20
0.004370
 10
0.010955
 20
0.004370
 10
0.010955
 20
0.005630
 10
0.009045
 20
0.005630
  0
LWPOLYLINE
  8
N_Well_Mask
420
6591981
 90
4
 70
1
 10
0.008575
 20
0.008400
 10
0.011425
 20
0.008400
 10
0.011425
 20
0.013800
 10
0.008575
 20
0.013800
  0
LWPOLYLINE
  8
P_Plus_Implant_Mask
420
16744703
 90
4
 70
1
 10
0.009045
 20
0.008870
 10
0.010955
 20
0.008870
 10
0.010955
 20
0.011130
 10
0.009045
 20
0.011130
  0
LWPOLYLINE
  8
Nitride_Poly_Cut_Mask
420
16753920
 90
4
 70
1
 10
0.009710
 20
0.011110
 10
0.010290
 20
0.011110
 10
0.010290
 20
0.011690
 10
0.009710
 20
0.011690
  0
LWPOLYLINE
  8
Tap_Mask
420
8454016
 90
4
 70
1
 10
0.009400
 20
0.002650
 10
0.009700
 20
0.002650
 10
0.009700
 20
0.002950
 10
0.009400
 20
0.002950
  0
LWPOLYLINE
  8
P_Plus_Implant_Mask
420
16744703
 90
4
 70
1
 10
0.009270
 20
0.002520
 10
0.009830
 20
0.002520
 10
0.009830
 20
0.003080
 10
0.009270
 20
0.003080
  0
LWPOLYLINE
  8
Tap_Mask
420
8454016
 90
4
 70
1
 10
0.009400
 20
0.012050
 10
0.009700
 20
0.012050
 10
0.009700
 20
0.012350
 10
0.009400
 20
0.012350
  0
LWPOLYLINE
  8
N_Plus_Implant_Mask
420
8454143
 90
4
 70
1
 10
0.009270
 20
0.011920
 10
0.009830
 20
0.011920
 10
0.009830
 20
0.012480
 10
0.009270
 20
0.012480
  0
ENDSEC
  0
EOF
