  0
SECTION
  2
HEADER
  9
$ACADVER
  1
AC1018
  0
ENDSEC
  0
SECTION
  2
TABLES
  0
TABLE
  2
LAYER
  0
LAYER
  2
Copper
 70
0
 62
7
  0
LAYER
  2
Aluminum
 70
0
 62
7
  0
LAYER
  2
Tungsten
 70
0
 62
7
  0
ENDTAB
  0
ENDSEC
  0
SECTION
  2
ENTITIES
  0
LWPOLYLINE
  8
Copper
420
16744512
 90
4
 70
1
 10
0.026000
 20
0.046000
 10
0.020000
 20
0.046000
 10
0.020000
 20
0.040000
 10
0.026000
 20
0.040000
  0
LWPOLYLINE
  8
Copper
420
16744512
 90
4
 70
1
 10
0.036000
 20
0.046000
 10
0.030000
 20
0.046000
 10
0.030000
 20
0.040000
 10
0.036000
 20
0.040000
  0
LWPOLYLINE
  8
Copper
420
16744512
 90
4
 70
1
 10
0.046000
 20
0.046000
 10
0.040000
 20
0.046000
 10
0.040000
 20
0.040000
 10
0.046000
 20
0.040000
  0
LWPOLYLINE
  8
Copper
420
16744512
 90
4
 70
1
 10
0.026000
 20
0.036000
 10
0.020000
 20
0.036000
 10
0.020000
 20
0.030000
 10
0.026000
 20
0.030000
  0
LWPOLYLINE
  8
Copper
420
16744512
 90
4
 70
1
 10
0.036000
 20
0.036000
 10
0.030000
 20
0.036000
 10
0.030000
 20
0.030000
 10
0.036000
 20
0.030000
  0
LWPOLYLINE
  8
Copper
420
16744512
 90
4
 70
1
 10
0.046000
 20
0.036000
 10
0.040000
 20
0.036000
 10
0.040000
 20
0.030000
 10
0.046000
 20
0.030000
  0
LWPOLYLINE
  8
Copper
420
16744512
 90
4
 70
1
 10
0.026000
 20
0.026000
 10
0.020000
 20
0.026000
 10
0.020000
 20
0.020000
 10
0.026000
 20
0.020000
  0
LWPOLYLINE
  8
Copper
420
16744512
 90
4
 70
1
 10
0.036000
 20
0.026000
 10
0.030000
 20
0.026000
 10
0.030000
 20
0.020000
 10
0.036000
 20
0.020000
  0
LWPOLYLINE
  8
Copper
420
16744512
 90
4
 70
1
 10
0.046000
 20
0.026000
 10
0.040000
 20
0.026000
 10
0.040000
 20
0.020000
 10
0.046000
 20
0.020000
  0
LWPOLYLINE
  8
Aluminum
420
12632256
 90
4
 70
1
 10
0.026000
 20
0.046000
 10
0.020000
 20
0.046000
 10
0.020000
 20
0.040000
 10
0.026000
 20
0.040000
  0
LWPOLYLINE
  8
Aluminum
420
12632256
 90
4
 70
1
 10
0.036000
 20
0.046000
 10
0.030000
 20
0.046000
 10
0.030000
 20
0.040000
 10
0.036000
 20
0.040000
  0
LWPOLYLINE
  8
Aluminum
420
12632256
 90
4
 70
1
 10
0.046000
 20
0.046000
 10
0.040000
 20
0.046000
 10
0.040000
 20
0.040000
 10
0.046000
 20
0.040000
  0
LWPOLYLINE
  8
Aluminum
420
12632256
 90
4
 70
1
 10
0.026000
 20
0.036000
 10
0.020000
 20
0.036000
 10
0.020000
 20
0.030000
 10
0.026000
 20
0.030000
  0
LWPOLYLINE
  8
Aluminum
420
12632256
 90
4
 70
1
 10
0.036000
 20
0.036000
 10
0.030000
 20
0.036000
 10
0.030000
 20
0.030000
 10
0.036000
 20
0.030000
  0
LWPOLYLINE
  8
Aluminum
420
12632256
 90
4
 70
1
 10
0.046000
 20
0.036000
 10
0.040000
 20
0.036000
 10
0.040000
 20
0.030000
 10
0.046000
 20
0.030000
  0
LWPOLYLINE
  8
Aluminum
420
12632256
 90
4
 70
1
 10
0.026000
 20
0.026000
 10
0.020000
 20
0.026000
 10
0.020000
 20
0.020000
 10
0.026000
 20
0.020000
  0
LWPOLYLINE
  8
Aluminum
420
12632256
 90
4
 70
1
 10
0.036000
 20
0.026000
 10
0.030000
 20
0.026000
 10
0.030000
 20
0.020000
 10
0.036000
 20
0.020000
  0
LWPOLYLINE
  8
Aluminum
420
12632256
 90
4
 70
1
 10
0.046000
 20
0.026000
 10
0.040000
 20
0.026000
 10
0.040000
 20
0.020000
 10
0.046000
 20
0.020000
  0
LWPOLYLINE
  8
Tungsten
420
8421631
 90
4
 70
1
 10
0.026000
 20
0.046000
 10
0.020000
 20
0.046000
 10
0.020000
 20
0.040000
 10
0.026000
 20
0.040000
  0
LWPOLYLINE
  8
Tungsten
420
8421631
 90
4
 70
1
 10
0.036000
 20
0.046000
 10
0.030000
 20
0.046000
 10
0.030000
 20
0.040000
 10
0.036000
 20
0.040000
  0
LWPOLYLINE
  8
Tungsten
420
8421631
 90
4
 70
1
 10
0.046000
 20
0.046000
 10
0.040000
 20
0.046000
 10
0.040000
 20
0.040000
 10
0.046000
 20
0.040000
  0
LWPOLYLINE
  8
Tungsten
420
8421631
 90
4
 70
1
 10
0.026000
 20
0.036000
 10
0.020000
 20
0.036000
 10
0.020000
 20
0.030000
 10
0.026000
 20
0.030000
  0
LWPOLYLINE
  8
Tungsten
420
8421631
 90
4
 70
1
 10
0.036000
 20
0.036000
 10
0.030000
 20
0.036000
 10
0.030000
 20
0.030000
 10
0.036000
 20
0.030000
  0
LWPOLYLINE
  8
Tungsten
420
8421631
 90
4
 70
1
 10
0.046000
 20
0.036000
 10
0.040000
 20
0.036000
 10
0.040000
 20
0.030000
 10
0.046000
 20
0.030000
  0
LWPOLYLINE
  8
Tungsten
420
8421631
 90
4
 70
1
 10
0.026000
 20
0.026000
 10
0.020000
 20
0.026000
 10
0.020000
 20
0.020000
 10
0.026000
 20
0.020000
  0
LWPOLYLINE
  8
Tungsten
420
8421631
 90
4
 70
1
 10
0.036000
 20
0.026000
 10
0.030000
 20
0.026000
 10
0.030000
 20
0.020000
 10
0.036000
 20
0.020000
  0
LWPOLYLINE
  8
Tungsten
420
8421631
 90
4
 70
1
 10
0.046000
 20
0.026000
 10
0.040000
 20
0.026000
 10
0.040000
 20
0.020000
 10
0.046000
 20
0.020000
  0
ENDSEC
  0
EOF
