  0
SECTION
  2
HEADER
  9
$ACADVER
  1
AC1018
  0
ENDSEC
  0
SECTION
  2
TABLES
  0
TABLE
  2
LAYER
  0
LAYER
  2
Silicon_Dioxide
 70
0
 62
7
  0
LAYER
  2
N_Plus_Diffusion
 70
0
 62
7
  0
LAYER
  2
Polysilicon
 70
0
 62
7
  0
LAYER
  2
Titanium_Silicide
 70
0
 62
7
  0
LAYER
  2
Tungsten
 70
0
 62
7
  0
LAYER
  2
Aluminum
 70
0
 62
7
  0
LAYER
  2
P_Plus_Diffusion
 70
0
 62
7
  0
ENDTAB
  0
ENDSEC
  0
SECTION
  2
ENTITIES
  0
LWPOLYLINE
  8
N_Plus_Diffusion
420
9498256
 90
4
 70
1
 10
0.010725
 20
0.006500
 10
0.010075
 20
0.006500
 10
0.010075
 20
0.005500
 10
0.010725
 20
0.005500
  0
LWPOLYLINE
  8
N_Plus_Diffusion
420
9498256
 90
4
 70
1
 10
0.009925
 20
0.006500
 10
0.009275
 20
0.006500
 10
0.009275
 20
0.005500
 10
0.009925
 20
0.005500
  0
LWPOLYLINE
  8
P_Plus_Diffusion
420
16744576
 90
4
 70
1
 10
0.010200
 20
0.003200
 10
0.009800
 20
0.003200
 10
0.009800
 20
0.002800
 10
0.010200
 20
0.002800
  0
LWPOLYLINE
  8
Tungsten
420
8421631
 90
4
 70
1
 10
0.010485
 20
0.006275
 10
0.010315
 20
0.006275
 10
0.010315
 20
0.006105
 10
0.010485
 20
0.006105
  0
LWPOLYLINE
  8
Tungsten
420
8421631
 90
4
 70
1
 10
0.010485
 20
0.005895
 10
0.010315
 20
0.005895
 10
0.010315
 20
0.005725
 10
0.010485
 20
0.005725
  0
LWPOLYLINE
  8
Tungsten
420
8421631
 90
4
 70
1
 10
0.009685
 20
0.006275
 10
0.009515
 20
0.006275
 10
0.009515
 20
0.006105
 10
0.009685
 20
0.006105
  0
LWPOLYLINE
  8
Tungsten
420
8421631
 90
4
 70
1
 10
0.009685
 20
0.005895
 10
0.009515
 20
0.005895
 10
0.009515
 20
0.005725
 10
0.009685
 20
0.005725
  0
LWPOLYLINE
  8
Tungsten
420
8421631
 90
4
 70
1
 10
0.010085
 20
0.003085
 10
0.009915
 20
0.003085
 10
0.009915
 20
0.002915
 10
0.010085
 20
0.002915
  0
LWPOLYLINE
  8
Tungsten
420
8421631
 90
4
 70
1
 10
0.010485
 20
0.006275
 10
0.010315
 20
0.006275
 10
0.010315
 20
0.006105
 10
0.010485
 20
0.006105
  0
LWPOLYLINE
  8
Tungsten
420
8421631
 90
4
 70
1
 10
0.010485
 20
0.005895
 10
0.010315
 20
0.005895
 10
0.010315
 20
0.005725
 10
0.010485
 20
0.005725
  0
LWPOLYLINE
  8
Tungsten
420
8421631
 90
4
 70
1
 10
0.009685
 20
0.006275
 10
0.009515
 20
0.006275
 10
0.009515
 20
0.006105
 10
0.009685
 20
0.006105
  0
LWPOLYLINE
  8
Tungsten
420
8421631
 90
4
 70
1
 10
0.009685
 20
0.005895
 10
0.009515
 20
0.005895
 10
0.009515
 20
0.005725
 10
0.009685
 20
0.005725
  0
LWPOLYLINE
  8
Tungsten
420
8421631
 90
4
 70
1
 10
0.010085
 20
0.003085
 10
0.009915
 20
0.003085
 10
0.009915
 20
0.002915
 10
0.010085
 20
0.002915
  0
LWPOLYLINE
  8
Polysilicon
420
16736352
 90
10
 70
1
 10
0.010075
 20
0.006900
 10
0.010200
 20
0.006900
 10
0.010200
 20
0.007300
 10
0.010075
 20
0.007300
 10
0.009925
 20
0.007300
 10
0.009800
 20
0.007300
 10
0.009800
 20
0.006900
 10
0.009925
 20
0.006900
 10
0.009925
 20
0.004700
 10
0.010075
 20
0.004700
  0
LWPOLYLINE
  8
Tungsten
420
8421631
 90
4
 70
1
 10
0.010085
 20
0.007185
 10
0.009915
 20
0.007185
 10
0.009915
 20
0.007015
 10
0.010085
 20
0.007015
  0
LWPOLYLINE
  8
Tungsten
420
8421631
 90
4
 70
1
 10
0.010485
 20
0.006275
 10
0.010315
 20
0.006275
 10
0.010315
 20
0.006105
 10
0.010485
 20
0.006105
  0
LWPOLYLINE
  8
Tungsten
420
8421631
 90
4
 70
1
 10
0.010485
 20
0.005895
 10
0.010315
 20
0.005895
 10
0.010315
 20
0.005725
 10
0.010485
 20
0.005725
  0
LWPOLYLINE
  8
Tungsten
420
8421631
 90
4
 70
1
 10
0.010085
 20
0.007185
 10
0.009915
 20
0.007185
 10
0.009915
 20
0.007015
 10
0.010085
 20
0.007015
  0
LWPOLYLINE
  8
Tungsten
420
8421631
 90
4
 70
1
 10
0.009685
 20
0.006275
 10
0.009515
 20
0.006275
 10
0.009515
 20
0.006105
 10
0.009685
 20
0.006105
  0
LWPOLYLINE
  8
Tungsten
420
8421631
 90
4
 70
1
 10
0.009685
 20
0.005895
 10
0.009515
 20
0.005895
 10
0.009515
 20
0.005725
 10
0.009685
 20
0.005725
  0
LWPOLYLINE
  8
Tungsten
420
8421631
 90
4
 70
1
 10
0.010085
 20
0.003085
 10
0.009915
 20
0.003085
 10
0.009915
 20
0.002915
 10
0.010085
 20
0.002915
  0
LWPOLYLINE
  8
Tungsten
420
8421631
 90
4
 70
1
 10
0.010485
 20
0.006275
 10
0.010315
 20
0.006275
 10
0.010315
 20
0.006105
 10
0.010485
 20
0.006105
  0
LWPOLYLINE
  8
Tungsten
420
8421631
 90
4
 70
1
 10
0.010485
 20
0.005895
 10
0.010315
 20
0.005895
 10
0.010315
 20
0.005725
 10
0.010485
 20
0.005725
  0
LWPOLYLINE
  8
Tungsten
420
8421631
 90
4
 70
1
 10
0.010085
 20
0.007185
 10
0.009915
 20
0.007185
 10
0.009915
 20
0.007015
 10
0.010085
 20
0.007015
  0
LWPOLYLINE
  8
Tungsten
420
8421631
 90
4
 70
1
 10
0.009685
 20
0.006275
 10
0.009515
 20
0.006275
 10
0.009515
 20
0.006105
 10
0.009685
 20
0.006105
  0
LWPOLYLINE
  8
Tungsten
420
8421631
 90
4
 70
1
 10
0.009685
 20
0.005895
 10
0.009515
 20
0.005895
 10
0.009515
 20
0.005725
 10
0.009685
 20
0.005725
  0
LWPOLYLINE
  8
Tungsten
420
8421631
 90
4
 70
1
 10
0.010085
 20
0.003085
 10
0.009915
 20
0.003085
 10
0.009915
 20
0.002915
 10
0.010085
 20
0.002915
  0
LWPOLYLINE
  8
Titanium_Silicide
420
4210752
 90
4
 70
1
 10
0.010600
 20
0.006500
 10
0.010200
 20
0.006500
 10
0.010200
 20
0.005500
 10
0.010600
 20
0.005500
  0
LWPOLYLINE
  8
Titanium_Silicide
420
4210752
 90
4
 70
1
 10
0.010200
 20
0.007300
 10
0.009800
 20
0.007300
 10
0.009800
 20
0.006900
 10
0.010200
 20
0.006900
  0
LWPOLYLINE
  8
Titanium_Silicide
420
4210752
 90
4
 70
1
 10
0.009800
 20
0.006500
 10
0.009400
 20
0.006500
 10
0.009400
 20
0.005500
 10
0.009800
 20
0.005500
  0
LWPOLYLINE
  8
Titanium_Silicide
420
4210752
 90
4
 70
1
 10
0.010200
 20
0.003200
 10
0.009800
 20
0.003200
 10
0.009800
 20
0.002800
 10
0.010200
 20
0.002800
  0
LWPOLYLINE
  8
Tungsten
420
8421631
 90
4
 70
1
 10
0.010485
 20
0.006275
 10
0.010315
 20
0.006275
 10
0.010315
 20
0.006105
 10
0.010485
 20
0.006105
  0
LWPOLYLINE
  8
Tungsten
420
8421631
 90
4
 70
1
 10
0.010485
 20
0.005895
 10
0.010315
 20
0.005895
 10
0.010315
 20
0.005725
 10
0.010485
 20
0.005725
  0
LWPOLYLINE
  8
Tungsten
420
8421631
 90
4
 70
1
 10
0.010085
 20
0.007185
 10
0.009915
 20
0.007185
 10
0.009915
 20
0.007015
 10
0.010085
 20
0.007015
  0
LWPOLYLINE
  8
Tungsten
420
8421631
 90
4
 70
1
 10
0.009685
 20
0.006275
 10
0.009515
 20
0.006275
 10
0.009515
 20
0.006105
 10
0.009685
 20
0.006105
  0
LWPOLYLINE
  8
Tungsten
420
8421631
 90
4
 70
1
 10
0.009685
 20
0.005895
 10
0.009515
 20
0.005895
 10
0.009515
 20
0.005725
 10
0.009685
 20
0.005725
  0
LWPOLYLINE
  8
Tungsten
420
8421631
 90
4
 70
1
 10
0.010085
 20
0.003085
 10
0.009915
 20
0.003085
 10
0.009915
 20
0.002915
 10
0.010085
 20
0.002915
  0
LWPOLYLINE
  8
Tungsten
420
8421631
 90
4
 70
1
 10
0.010485
 20
0.006275
 10
0.010315
 20
0.006275
 10
0.010315
 20
0.006105
 10
0.010485
 20
0.006105
  0
LWPOLYLINE
  8
Tungsten
420
8421631
 90
4
 70
1
 10
0.010485
 20
0.005895
 10
0.010315
 20
0.005895
 10
0.010315
 20
0.005725
 10
0.010485
 20
0.005725
  0
LWPOLYLINE
  8
Tungsten
420
8421631
 90
4
 70
1
 10
0.010085
 20
0.007185
 10
0.009915
 20
0.007185
 10
0.009915
 20
0.007015
 10
0.010085
 20
0.007015
  0
LWPOLYLINE
  8
Tungsten
420
8421631
 90
4
 70
1
 10
0.009685
 20
0.006275
 10
0.009515
 20
0.006275
 10
0.009515
 20
0.006105
 10
0.009685
 20
0.006105
  0
LWPOLYLINE
  8
Tungsten
420
8421631
 90
4
 70
1
 10
0.009685
 20
0.005895
 10
0.009515
 20
0.005895
 10
0.009515
 20
0.005725
 10
0.009685
 20
0.005725
  0
LWPOLYLINE
  8
Tungsten
420
8421631
 90
4
 70
1
 10
0.010085
 20
0.003085
 10
0.009915
 20
0.003085
 10
0.009915
 20
0.002915
 10
0.010085
 20
0.002915
  0
LWPOLYLINE
  8
Tungsten
420
8421631
 90
4
 70
1
 10
0.010485
 20
0.006275
 10
0.010315
 20
0.006275
 10
0.010315
 20
0.006105
 10
0.010485
 20
0.006105
  0
LWPOLYLINE
  8
Tungsten
420
8421631
 90
4
 70
1
 10
0.010485
 20
0.005895
 10
0.010315
 20
0.005895
 10
0.010315
 20
0.005725
 10
0.010485
 20
0.005725
  0
LWPOLYLINE
  8
Tungsten
420
8421631
 90
4
 70
1
 10
0.010085
 20
0.007185
 10
0.009915
 20
0.007185
 10
0.009915
 20
0.007015
 10
0.010085
 20
0.007015
  0
LWPOLYLINE
  8
Tungsten
420
8421631
 90
4
 70
1
 10
0.009685
 20
0.006275
 10
0.009515
 20
0.006275
 10
0.009515
 20
0.006105
 10
0.009685
 20
0.006105
  0
LWPOLYLINE
  8
Tungsten
420
8421631
 90
4
 70
1
 10
0.009685
 20
0.005895
 10
0.009515
 20
0.005895
 10
0.009515
 20
0.005725
 10
0.009685
 20
0.005725
  0
LWPOLYLINE
  8
Tungsten
420
8421631
 90
4
 70
1
 10
0.010085
 20
0.003085
 10
0.009915
 20
0.003085
 10
0.009915
 20
0.002915
 10
0.010085
 20
0.002915
  0
LWPOLYLINE
  8
Aluminum
420
12632256
 90
12
 70
1
 10
0.014825
 20
0.006600
 10
0.013625
 20
0.006600
 10
0.013625
 20
0.006150
 10
0.010600
 20
0.006150
 10
0.010600
 20
0.006500
 10
0.010200
 20
0.006500
 10
0.010200
 20
0.005500
 10
0.010600
 20
0.005500
 10
0.010600
 20
0.005850
 10
0.013625
 20
0.005850
 10
0.013625
 20
0.005400
 10
0.014825
 20
0.005400
  0
LWPOLYLINE
  8
Aluminum
420
12632256
 90
12
 70
1
 10
0.010200
 20
0.007300
 10
0.010100
 20
0.007300
 10
0.010100
 20
0.008700
 10
0.010600
 20
0.008700
 10
0.010600
 20
0.009900
 10
0.009400
 20
0.009900
 10
0.009400
 20
0.008700
 10
0.009900
 20
0.008700
 10
0.009900
 20
0.007300
 10
0.009800
 20
0.007300
 10
0.009800
 20
0.006900
 10
0.010200
 20
0.006900
  0
LWPOLYLINE
  8
Aluminum
420
12632256
 90
12
 70
1
 10
0.006375
 20
0.005850
 10
0.009400
 20
0.005850
 10
0.009400
 20
0.005500
 10
0.009800
 20
0.005500
 10
0.009800
 20
0.006500
 10
0.009400
 20
0.006500
 10
0.009400
 20
0.006150
 10
0.006375
 20
0.006150
 10
0.006375
 20
0.006600
 10
0.005175
 20
0.006600
 10
0.005175
 20
0.005400
 10
0.006375
 20
0.005400
  0
LWPOLYLINE
  8
Aluminum
420
12632256
 90
12
 70
1
 10
0.014300
 20
0.003600
 10
0.013100
 20
0.003600
 10
0.013100
 20
0.003150
 10
0.010200
 20
0.003150
 10
0.010200
 20
0.003200
 10
0.009800
 20
0.003200
 10
0.009800
 20
0.002800
 10
0.010200
 20
0.002800
 10
0.010200
 20
0.002850
 10
0.013100
 20
0.002850
 10
0.013100
 20
0.002400
 10
0.014300
 20
0.002400
  0
LWPOLYLINE
  8
Silicon_Dioxide
420
14739711
 90
4
 70
1
 10
0.000000
 20
0.000000
 10
0.020000
 20
0.000000
 10
0.020000
 20
0.012000
 10
0.000000
 20
0.012000
  0
LWPOLYLINE
  8
Silicon_Dioxide
420
14739711
 90
4
 70
1
 10
0.000000
 20
0.000000
 10
0.020000
 20
0.000000
 10
0.020000
 20
0.012000
 10
0.000000
 20
0.012000
  0
ENDSEC
  0
EOF
