  0
SECTION
  2
HEADER
  9
$ACADVER
  1
AC1018
  0
ENDSEC
  0
SECTION
  2
TABLES
  0
TABLE
  2
LAYER
  0
LAYER
  2
Silicon_N
 70
0
 62
7
  0
LAYER
  2
Polysilicon
 70
0
 62
7
  0
LAYER
  2
Silicon_P
 70
0
 62
7
  0
LAYER
  2
Aluminum
 70
0
 62
7
  0
ENDTAB
  0
ENDSEC
  0
SECTION
  2
ENTITIES
  0
LWPOLYLINE
  8
Aluminum
420
12632256
 90
10
 70
1
 10
0.000250
 20
0.002975
 10
0.000625
 20
0.002975
 10
0.000625
 20
0.003350
 10
0.001375
 20
0.003350
 10
0.001375
 20
0.003600
 10
0.000375
 20
0.003600
 10
0.000000
 20
0.003600
 10
0.000000
 20
0.003225
 10
0.000000
 20
0.002175
 10
0.000250
 20
0.002175
  0
LWPOLYLINE
  8
Aluminum
420
12632256
 90
10
 70
1
 10
0.001375
 20
0.001400
 10
0.001500
 20
0.001400
 10
0.001500
 20
0.001650
 10
0.001375
 20
0.001650
 10
0.001375
 20
0.002025
 10
0.001000
 20
0.002025
 10
0.001000
 20
0.002425
 10
0.000750
 20
0.002425
 10
0.000750
 20
0.002025
 10
0.000750
 20
0.001400
  0
LWPOLYLINE
  8
Aluminum
420
12632256
 90
10
 70
1
 10
0.003000
 20
0.002862
 10
0.003000
 20
0.003487
 10
0.002375
 20
0.003487
 10
0.001750
 20
0.003487
 10
0.001750
 20
0.003237
 10
0.002375
 20
0.003237
 10
0.002375
 20
0.002862
 10
0.002750
 20
0.002862
 10
0.002750
 20
0.002175
 10
0.003000
 20
0.002175
  0
LWPOLYLINE
  8
Aluminum
420
12632256
 90
6
 70
1
 10
0.002250
 20
0.001062
 10
0.002250
 20
0.002425
 10
0.002000
 20
0.002425
 10
0.002000
 20
0.001312
 10
0.001875
 20
0.001312
 10
0.001875
 20
0.001062
  0
LWPOLYLINE
  8
Aluminum
420
12632256
 90
21
 70
1
 10
0.001000
 20
0.004350
 10
0.001375
 20
0.004350
 10
0.001375
 20
0.004600
 10
0.001375
 20
0.004975
 10
0.003000
 20
0.004975
 10
0.003000
 20
0.005225
 10
0.001125
 20
0.005225
 10
0.000750
 20
0.005225
 10
0.000750
 20
0.004850
 10
0.000750
 20
0.004600
 10
0.000625
 20
0.004600
 10
0.000625
 20
0.004975
 10
0.000250
 20
0.004975
 10
0.000250
 20
0.005225
 10
0.000000
 20
0.005225
 10
0.000000
 20
0.004975
 10
0.000000
 20
0.004350
 10
0.000625
 20
0.004350
 10
0.000750
 20
0.004350
 10
0.000750
 20
0.003237
 10
0.001000
 20
0.003237
  0
LWPOLYLINE
  8
Aluminum
420
12632256
 90
10
 70
1
 10
0.000250
 20
0.001575
 10
0.000625
 20
0.001575
 10
0.000625
 20
0.001950
 10
0.001500
 20
0.001950
 10
0.001500
 20
0.002200
 10
0.000375
 20
0.002200
 10
0.000000
 20
0.002200
 10
0.000000
 20
0.001825
 10
0.000000
 20
0.000175
 10
0.000250
 20
0.000175
  0
LWPOLYLINE
  8
Aluminum
420
12632256
 90
10
 70
1
 10
0.001500
 20
0.000175
 10
0.003000
 20
0.000175
 10
0.003000
 20
0.000425
 10
0.001500
 20
0.000425
 10
0.001500
 20
0.000800
 10
0.001125
 20
0.000800
 10
0.001125
 20
0.001312
 10
0.000875
 20
0.001312
 10
0.000875
 20
0.000800
 10
0.000875
 20
0.000175
  0
LWPOLYLINE
  8
Aluminum
420
12632256
 90
4
 70
1
 10
0.001375
 20
0.003600
 10
0.001125
 20
0.003600
 10
0.001125
 20
0.003350
 10
0.001375
 20
0.003350
  0
LWPOLYLINE
  8
Aluminum
420
12632256
 90
4
 70
1
 10
0.000250
 20
0.002425
 10
0.000000
 20
0.002425
 10
0.000000
 20
0.002175
 10
0.000250
 20
0.002175
  0
LWPOLYLINE
  8
Aluminum
420
12632256
 90
4
 70
1
 10
0.001000
 20
0.002425
 10
0.000750
 20
0.002425
 10
0.000750
 20
0.002175
 10
0.001000
 20
0.002175
  0
LWPOLYLINE
  8
Aluminum
420
12632256
 90
4
 70
1
 10
0.001500
 20
0.001650
 10
0.001250
 20
0.001650
 10
0.001250
 20
0.001400
 10
0.001500
 20
0.001400
  0
LWPOLYLINE
  8
Aluminum
420
12632256
 90
4
 70
1
 10
0.002000
 20
0.003487
 10
0.001750
 20
0.003487
 10
0.001750
 20
0.003237
 10
0.002000
 20
0.003237
  0
LWPOLYLINE
  8
Aluminum
420
12632256
 90
4
 70
1
 10
0.002250
 20
0.002425
 10
0.002000
 20
0.002425
 10
0.002000
 20
0.002175
 10
0.002250
 20
0.002175
  0
LWPOLYLINE
  8
Aluminum
420
12632256
 90
4
 70
1
 10
0.003000
 20
0.002425
 10
0.002750
 20
0.002425
 10
0.002750
 20
0.002175
 10
0.003000
 20
0.002175
  0
LWPOLYLINE
  8
Aluminum
420
12632256
 90
4
 70
1
 10
0.002125
 20
0.001312
 10
0.001875
 20
0.001312
 10
0.001875
 20
0.001062
 10
0.002125
 20
0.001062
  0
LWPOLYLINE
  8
Aluminum
420
12632256
 90
4
 70
1
 10
0.000250
 20
0.005225
 10
0.000000
 20
0.005225
 10
0.000000
 20
0.004975
 10
0.000250
 20
0.004975
  0
LWPOLYLINE
  8
Aluminum
420
12632256
 90
4
 70
1
 10
0.003000
 20
0.005225
 10
0.002750
 20
0.005225
 10
0.002750
 20
0.004975
 10
0.003000
 20
0.004975
  0
LWPOLYLINE
  8
Aluminum
420
12632256
 90
4
 70
1
 10
0.001375
 20
0.004600
 10
0.001125
 20
0.004600
 10
0.001125
 20
0.004350
 10
0.001375
 20
0.004350
  0
LWPOLYLINE
  8
Aluminum
420
12632256
 90
4
 70
1
 10
0.001000
 20
0.003487
 10
0.000750
 20
0.003487
 10
0.000750
 20
0.003237
 10
0.001000
 20
0.003237
  0
LWPOLYLINE
  8
Aluminum
420
12632256
 90
4
 70
1
 10
0.001500
 20
0.002200
 10
0.001250
 20
0.002200
 10
0.001250
 20
0.001950
 10
0.001500
 20
0.001950
  0
LWPOLYLINE
  8
Aluminum
420
12632256
 90
4
 70
1
 10
0.001125
 20
0.001312
 10
0.000875
 20
0.001312
 10
0.000875
 20
0.001062
 10
0.001125
 20
0.001062
  0
LWPOLYLINE
  8
Aluminum
420
12632256
 90
4
 70
1
 10
0.000250
 20
0.000425
 10
0.000000
 20
0.000425
 10
0.000000
 20
0.000175
 10
0.000250
 20
0.000175
  0
LWPOLYLINE
  8
Aluminum
420
12632256
 90
4
 70
1
 10
0.003000
 20
0.000425
 10
0.002750
 20
0.000425
 10
0.002750
 20
0.000175
 10
0.003000
 20
0.000175
  0
LWPOLYLINE
  8
Silicon_N
420
4149055
 90
4
 70
1
 10
0.001875
 20
0.001375
 10
0.001625
 20
0.001375
 10
0.001625
 20
0.001000
 10
0.001875
 20
0.001000
  0
LWPOLYLINE
  8
Silicon_N
420
4149055
 90
4
 70
1
 10
0.001500
 20
0.004600
 10
0.001250
 20
0.004600
 10
0.001250
 20
0.004350
 10
0.001500
 20
0.004350
  0
LWPOLYLINE
  8
Silicon_N
420
4149055
 90
4
 70
1
 10
0.001125
 20
0.001375
 10
0.000875
 20
0.001375
 10
0.000875
 20
0.001000
 10
0.001125
 20
0.001000
  0
LWPOLYLINE
  8
Silicon_P
420
4478276
 90
4
 70
1
 10
0.001875
 20
0.003924
 10
0.001625
 20
0.003924
 10
0.001625
 20
0.002800
 10
0.001875
 20
0.002800
  0
LWPOLYLINE
  8
Silicon_P
420
4478276
 90
4
 70
1
 10
0.001125
 20
0.003924
 10
0.000875
 20
0.003924
 10
0.000875
 20
0.002800
 10
0.001125
 20
0.002800
  0
LWPOLYLINE
  8
Silicon_P
420
4478276
 90
4
 70
1
 10
0.001625
 20
0.002200
 10
0.001375
 20
0.002200
 10
0.001375
 20
0.001950
 10
0.001625
 20
0.001950
  0
LWPOLYLINE
  8
Polysilicon
420
7372944
 90
4
 70
1
 10
0.001500
 20
0.004150
 10
0.001250
 20
0.004150
 10
0.001250
 20
0.002800
 10
0.001500
 20
0.002800
  0
LWPOLYLINE
  8
Polysilicon
420
7372944
 90
4
 70
1
 10
0.001500
 20
0.001600
 10
0.001250
 20
0.001600
 10
0.001250
 20
0.001000
 10
0.001500
 20
0.001000
  0
LWPOLYLINE
  8
Aluminum
420
12632256
 90
4
 70
1
 10
0.001500
 20
0.004250
 10
0.001250
 20
0.004250
 10
0.001250
 20
0.004000
 10
0.001500
 20
0.004000
  0
LWPOLYLINE
  8
Aluminum
420
12632256
 90
4
 70
1
 10
0.000750
 20
0.002600
 10
0.000250
 20
0.002600
 10
0.000250
 20
0.002000
 10
0.000750
 20
0.002000
  0
LWPOLYLINE
  8
Aluminum
420
12632256
 90
4
 70
1
 10
0.001500
 20
0.001700
 10
0.001250
 20
0.001700
 10
0.001250
 20
0.001450
 10
0.001500
 20
0.001450
  0
LWPOLYLINE
  8
Aluminum
420
12632256
 90
4
 70
1
 10
0.001875
 20
0.003825
 10
0.001675
 20
0.003825
 10
0.001675
 20
0.002900
 10
0.001875
 20
0.002900
  0
LWPOLYLINE
  8
Aluminum
420
12632256
 90
4
 70
1
 10
0.002750
 20
0.002600
 10
0.002250
 20
0.002600
 10
0.002250
 20
0.002000
 10
0.002750
 20
0.002000
  0
LWPOLYLINE
  8
Aluminum
420
12632256
 90
4
 70
1
 10
0.001875
 20
0.001325
 10
0.001675
 20
0.001325
 10
0.001675
 20
0.001050
 10
0.001875
 20
0.001050
  0
LWPOLYLINE
  8
Aluminum
420
12632256
 90
4
 70
1
 10
0.003000
 20
0.005400
 10
0.000000
 20
0.005400
 10
0.000000
 20
0.004800
 10
0.003000
 20
0.004800
  0
LWPOLYLINE
  8
Aluminum
420
12632256
 90
4
 70
1
 10
0.001500
 20
0.004600
 10
0.001250
 20
0.004600
 10
0.001250
 20
0.004350
 10
0.001500
 20
0.004350
  0
LWPOLYLINE
  8
Aluminum
420
12632256
 90
4
 70
1
 10
0.001075
 20
0.003825
 10
0.000875
 20
0.003825
 10
0.000875
 20
0.002900
 10
0.001075
 20
0.002900
  0
LWPOLYLINE
  8
Aluminum
420
12632256
 90
4
 70
1
 10
0.001500
 20
0.002300
 10
0.001250
 20
0.002300
 10
0.001250
 20
0.002050
 10
0.001500
 20
0.002050
  0
LWPOLYLINE
  8
Aluminum
420
12632256
 90
4
 70
1
 10
0.001075
 20
0.001325
 10
0.000875
 20
0.001325
 10
0.000875
 20
0.001050
 10
0.001075
 20
0.001050
  0
LWPOLYLINE
  8
Aluminum
420
12632256
 90
4
 70
1
 10
0.003000
 20
0.000600
 10
0.000000
 20
0.000600
 10
0.000000
 20
0.000000
 10
0.003000
 20
0.000000
  0
ENDSEC
  0
EOF
