  0
SECTION
  2
HEADER
  9
$ACADVER
  1
AC1018
  0
ENDSEC
  0
SECTION
  2
TABLES
  0
TABLE
  2
LAYER
  0
LAYER
  2
DRILL
 70
0
 62
0
  0
LAYER
  2
TOP_COMPONENTS
 70
0
 62
7
  0
LAYER
  2
BOTTOM_COMPONENTS
 70
0
 62
7
  0
LAYER
  2
PCB_LAYERS
 70
0
 62
7
  0
ENDTAB
  0
ENDSEC
  0
SECTION
  2
ENTITIES
  0
LWPOLYLINE
  8
PCB_LAYERS
420
12088115
 90
116
 70
1
 10
10.600000
 20
5.400000
 10
15.600000
 20
5.400000
 10
20.600000
 20
5.400000
 10
25.600000
 20
5.400000
 10
30.600000
 20
5.400000
 10
35.600000
 20
5.400000
 10
40.600000
 20
5.400000
 10
40.600000
 20
5.600000
 10
35.400000
 20
5.600000
 10
30.400000
 20
5.600000
 10
25.400000
 20
5.600000
 10
20.400000
 20
5.600000
 10
15.400000
 20
5.600000
 10
10.600000
 20
5.600000
 10
10.600000
 20
17.400000
 10
15.600000
 20
17.400000
 10
20.600000
 20
17.400000
 10
25.600000
 20
17.400000
 10
30.600000
 20
17.400000
 10
35.600000
 20
17.400000
 10
40.600000
 20
17.400000
 10
40.600000
 20
17.600000
 10
35.400000
 20
17.600000
 10
30.400000
 20
17.600000
 10
25.400000
 20
17.600000
 10
20.400000
 20
17.600000
 10
15.400000
 20
17.600000
 10
10.600000
 20
17.600000
 10
10.400000
 20
17.600000
 10
5.600000
 20
17.600000
 10
5.600000
 20
29.400000
 10
10.600000
 20
29.400000
 10
15.600000
 20
29.400000
 10
20.600000
 20
29.400000
 10
25.600000
 20
29.400000
 10
30.600000
 20
29.400000
 10
35.600000
 20
29.400000
 10
40.600000
 20
29.400000
 10
40.600000
 20
29.600000
 10
35.400000
 20
29.600000
 10
30.400000
 20
29.600000
 10
25.400000
 20
29.600000
 10
20.600000
 20
29.600000
 10
20.600000
 20
33.100000
 10
20.900000
 20
33.100000
 10
20.900000
 20
33.400000
 10
21.100000
 20
33.400000
 10
21.100000
 20
33.600000
 10
21.100000
 20
34.100000
 10
20.900000
 20
34.100000
 10
20.900000
 20
34.400000
 10
21.100000
 20
34.400000
 10
21.100000
 20
34.600000
 10
21.100000
 20
35.100000
 10
20.900000
 20
35.100000
 10
20.900000
 20
35.400000
 10
21.100000
 20
35.400000
 10
21.100000
 20
35.600000
 10
21.100000
 20
36.100000
 10
20.900000
 20
36.100000
 10
20.900000
 20
36.400000
 10
21.100000
 20
36.400000
 10
21.100000
 20
36.600000
 10
21.100000
 20
37.100000
 10
20.900000
 20
37.100000
 10
20.900000
 20
37.400000
 10
20.600000
 20
37.400000
 10
20.600000
 20
41.400000
 10
25.600000
 20
41.400000
 10
30.600000
 20
41.400000
 10
35.600000
 20
41.400000
 10
40.600000
 20
41.400000
 10
40.600000
 20
41.600000
 10
35.400000
 20
41.600000
 10
30.400000
 20
41.600000
 10
25.400000
 20
41.600000
 10
20.400000
 20
41.600000
 10
15.400000
 20
41.600000
 10
10.400000
 20
41.600000
 10
5.400000
 20
41.600000
 10
5.400000
 20
41.400000
 10
10.600000
 20
41.400000
 10
15.600000
 20
41.400000
 10
20.400000
 20
41.400000
 10
20.400000
 20
37.400000
 10
20.400000
 20
36.900000
 10
20.600000
 20
36.900000
 10
20.600000
 20
36.600000
 10
20.400000
 20
36.600000
 10
20.400000
 20
36.400000
 10
20.400000
 20
35.900000
 10
20.600000
 20
35.900000
 10
20.600000
 20
35.600000
 10
20.400000
 20
35.600000
 10
20.400000
 20
35.400000
 10
20.400000
 20
34.900000
 10
20.600000
 20
34.900000
 10
20.600000
 20
34.600000
 10
20.400000
 20
34.600000
 10
20.400000
 20
34.400000
 10
20.400000
 20
33.900000
 10
20.600000
 20
33.900000
 10
20.600000
 20
33.600000
 10
20.400000
 20
33.600000
 10
20.400000
 20
33.300000
 10
20.400000
 20
29.600000
 10
15.400000
 20
29.600000
 10
10.400000
 20
29.600000
 10
5.600000
 20
29.600000
 10
5.400000
 20
29.600000
 10
5.400000
 20
17.400000
 10
5.600000
 20
17.400000
 10
10.400000
 20
17.400000
 10
10.400000
 20
5.600000
 10
5.400000
 20
5.600000
 10
5.400000
 20
5.400000
  0
LWPOLYLINE
  8
PCB_LAYERS
420
12088115
 90
4
 70
1
 10
6.000000
 20
42.000000
 10
5.000000
 20
42.000000
 10
5.000000
 20
41.000000
 10
6.000000
 20
41.000000
  0
LWPOLYLINE
  8
PCB_LAYERS
420
12088115
 90
4
 70
1
 10
11.000000
 20
42.000000
 10
10.000000
 20
42.000000
 10
10.000000
 20
41.000000
 10
11.000000
 20
41.000000
  0
LWPOLYLINE
  8
PCB_LAYERS
420
12088115
 90
4
 70
1
 10
16.000000
 20
42.000000
 10
15.000000
 20
42.000000
 10
15.000000
 20
41.000000
 10
16.000000
 20
41.000000
  0
LWPOLYLINE
  8
PCB_LAYERS
420
12088115
 90
4
 70
1
 10
21.000000
 20
42.000000
 10
20.000000
 20
42.000000
 10
20.000000
 20
41.000000
 10
21.000000
 20
41.000000
  0
LWPOLYLINE
  8
PCB_LAYERS
420
12088115
 90
4
 70
1
 10
26.000000
 20
42.000000
 10
25.000000
 20
42.000000
 10
25.000000
 20
41.000000
 10
26.000000
 20
41.000000
  0
LWPOLYLINE
  8
PCB_LAYERS
420
12088115
 90
4
 70
1
 10
31.000000
 20
42.000000
 10
30.000000
 20
42.000000
 10
30.000000
 20
41.000000
 10
31.000000
 20
41.000000
  0
LWPOLYLINE
  8
PCB_LAYERS
420
12088115
 90
4
 70
1
 10
36.000000
 20
42.000000
 10
35.000000
 20
42.000000
 10
35.000000
 20
41.000000
 10
36.000000
 20
41.000000
  0
LWPOLYLINE
  8
PCB_LAYERS
420
12088115
 90
4
 70
1
 10
41.000000
 20
42.000000
 10
40.000000
 20
42.000000
 10
40.000000
 20
41.000000
 10
41.000000
 20
41.000000
  0
LWPOLYLINE
  8
PCB_LAYERS
420
12088115
 90
4
 70
1
 10
6.000000
 20
30.000000
 10
5.000000
 20
30.000000
 10
5.000000
 20
29.000000
 10
6.000000
 20
29.000000
  0
LWPOLYLINE
  8
PCB_LAYERS
420
12088115
 90
4
 70
1
 10
11.000000
 20
30.000000
 10
10.000000
 20
30.000000
 10
10.000000
 20
29.000000
 10
11.000000
 20
29.000000
  0
LWPOLYLINE
  8
PCB_LAYERS
420
12088115
 90
4
 70
1
 10
16.000000
 20
30.000000
 10
15.000000
 20
30.000000
 10
15.000000
 20
29.000000
 10
16.000000
 20
29.000000
  0
LWPOLYLINE
  8
PCB_LAYERS
420
12088115
 90
4
 70
1
 10
21.000000
 20
30.000000
 10
20.000000
 20
30.000000
 10
20.000000
 20
29.000000
 10
21.000000
 20
29.000000
  0
LWPOLYLINE
  8
PCB_LAYERS
420
12088115
 90
4
 70
1
 10
26.000000
 20
30.000000
 10
25.000000
 20
30.000000
 10
25.000000
 20
29.000000
 10
26.000000
 20
29.000000
  0
LWPOLYLINE
  8
PCB_LAYERS
420
12088115
 90
4
 70
1
 10
31.000000
 20
30.000000
 10
30.000000
 20
30.000000
 10
30.000000
 20
29.000000
 10
31.000000
 20
29.000000
  0
LWPOLYLINE
  8
PCB_LAYERS
420
12088115
 90
4
 70
1
 10
36.000000
 20
30.000000
 10
35.000000
 20
30.000000
 10
35.000000
 20
29.000000
 10
36.000000
 20
29.000000
  0
LWPOLYLINE
  8
PCB_LAYERS
420
12088115
 90
4
 70
1
 10
41.000000
 20
30.000000
 10
40.000000
 20
30.000000
 10
40.000000
 20
29.000000
 10
41.000000
 20
29.000000
  0
LWPOLYLINE
  8
PCB_LAYERS
420
12088115
 90
4
 70
1
 10
6.000000
 20
18.000000
 10
5.000000
 20
18.000000
 10
5.000000
 20
17.000000
 10
6.000000
 20
17.000000
  0
LWPOLYLINE
  8
PCB_LAYERS
420
12088115
 90
4
 70
1
 10
11.000000
 20
18.000000
 10
10.000000
 20
18.000000
 10
10.000000
 20
17.000000
 10
11.000000
 20
17.000000
  0
LWPOLYLINE
  8
PCB_LAYERS
420
12088115
 90
4
 70
1
 10
16.000000
 20
18.000000
 10
15.000000
 20
18.000000
 10
15.000000
 20
17.000000
 10
16.000000
 20
17.000000
  0
LWPOLYLINE
  8
PCB_LAYERS
420
12088115
 90
4
 70
1
 10
21.000000
 20
18.000000
 10
20.000000
 20
18.000000
 10
20.000000
 20
17.000000
 10
21.000000
 20
17.000000
  0
LWPOLYLINE
  8
PCB_LAYERS
420
12088115
 90
4
 70
1
 10
26.000000
 20
18.000000
 10
25.000000
 20
18.000000
 10
25.000000
 20
17.000000
 10
26.000000
 20
17.000000
  0
LWPOLYLINE
  8
PCB_LAYERS
420
12088115
 90
4
 70
1
 10
31.000000
 20
18.000000
 10
30.000000
 20
18.000000
 10
30.000000
 20
17.000000
 10
31.000000
 20
17.000000
  0
LWPOLYLINE
  8
PCB_LAYERS
420
12088115
 90
4
 70
1
 10
36.000000
 20
18.000000
 10
35.000000
 20
18.000000
 10
35.000000
 20
17.000000
 10
36.000000
 20
17.000000
  0
LWPOLYLINE
  8
PCB_LAYERS
420
12088115
 90
4
 70
1
 10
41.000000
 20
18.000000
 10
40.000000
 20
18.000000
 10
40.000000
 20
17.000000
 10
41.000000
 20
17.000000
  0
LWPOLYLINE
  8
PCB_LAYERS
420
12088115
 90
4
 70
1
 10
6.000000
 20
6.000000
 10
5.000000
 20
6.000000
 10
5.000000
 20
5.000000
 10
6.000000
 20
5.000000
  0
LWPOLYLINE
  8
PCB_LAYERS
420
12088115
 90
4
 70
1
 10
11.000000
 20
6.000000
 10
10.000000
 20
6.000000
 10
10.000000
 20
5.000000
 10
11.000000
 20
5.000000
  0
LWPOLYLINE
  8
PCB_LAYERS
420
12088115
 90
4
 70
1
 10
16.000000
 20
6.000000
 10
15.000000
 20
6.000000
 10
15.000000
 20
5.000000
 10
16.000000
 20
5.000000
  0
LWPOLYLINE
  8
PCB_LAYERS
420
12088115
 90
4
 70
1
 10
21.000000
 20
6.000000
 10
20.000000
 20
6.000000
 10
20.000000
 20
5.000000
 10
21.000000
 20
5.000000
  0
LWPOLYLINE
  8
PCB_LAYERS
420
12088115
 90
4
 70
1
 10
26.000000
 20
6.000000
 10
25.000000
 20
6.000000
 10
25.000000
 20
5.000000
 10
26.000000
 20
5.000000
  0
LWPOLYLINE
  8
PCB_LAYERS
420
12088115
 90
4
 70
1
 10
31.000000
 20
6.000000
 10
30.000000
 20
6.000000
 10
30.000000
 20
5.000000
 10
31.000000
 20
5.000000
  0
LWPOLYLINE
  8
PCB_LAYERS
420
12088115
 90
4
 70
1
 10
36.000000
 20
6.000000
 10
35.000000
 20
6.000000
 10
35.000000
 20
5.000000
 10
36.000000
 20
5.000000
  0
LWPOLYLINE
  8
PCB_LAYERS
420
12088115
 90
4
 70
1
 10
41.000000
 20
6.000000
 10
40.000000
 20
6.000000
 10
40.000000
 20
5.000000
 10
41.000000
 20
5.000000
  0
ENDSEC
  0
EOF
