  0
SECTION
  2
HEADER
  9
$ACADVER
  1
AC1018
  0
ENDSEC
  0
SECTION
  2
TABLES
  0
TABLE
  2
LAYER
  0
LAYER
  2
Copper
 70
0
 62
7
  0
LAYER
  2
Gold
 70
0
 62
7
  0
LAYER
  2
Aluminum
 70
0
 62
7
  0
ENDTAB
  0
ENDSEC
  0
SECTION
  2
ENTITIES
  0
LWPOLYLINE
  8
Copper
420
16744512
 90
4
 70
1
 10
0.026000
 20
0.050000
 10
0.020000
 20
0.050000
 10
0.020000
 20
0.044000
 10
0.026000
 20
0.044000
  0
LWPOLYLINE
  8
Copper
420
16744512
 90
4
 70
1
 10
0.034000
 20
0.050000
 10
0.028000
 20
0.050000
 10
0.028000
 20
0.044000
 10
0.034000
 20
0.044000
  0
LWPOLYLINE
  8
Copper
420
16744512
 90
4
 70
1
 10
0.042000
 20
0.050000
 10
0.036000
 20
0.050000
 10
0.036000
 20
0.044000
 10
0.042000
 20
0.044000
  0
LWPOLYLINE
  8
Copper
420
16744512
 90
4
 70
1
 10
0.050000
 20
0.050000
 10
0.044000
 20
0.050000
 10
0.044000
 20
0.044000
 10
0.050000
 20
0.044000
  0
LWPOLYLINE
  8
Copper
420
16744512
 90
4
 70
1
 10
0.026000
 20
0.042000
 10
0.020000
 20
0.042000
 10
0.020000
 20
0.036000
 10
0.026000
 20
0.036000
  0
LWPOLYLINE
  8
Copper
420
16744512
 90
4
 70
1
 10
0.050000
 20
0.042000
 10
0.044000
 20
0.042000
 10
0.044000
 20
0.036000
 10
0.050000
 20
0.036000
  0
LWPOLYLINE
  8
Copper
420
16744512
 90
4
 70
1
 10
0.026000
 20
0.034000
 10
0.020000
 20
0.034000
 10
0.020000
 20
0.028000
 10
0.026000
 20
0.028000
  0
LWPOLYLINE
  8
Copper
420
16744512
 90
4
 70
1
 10
0.050000
 20
0.034000
 10
0.044000
 20
0.034000
 10
0.044000
 20
0.028000
 10
0.050000
 20
0.028000
  0
LWPOLYLINE
  8
Copper
420
16744512
 90
4
 70
1
 10
0.026000
 20
0.026000
 10
0.020000
 20
0.026000
 10
0.020000
 20
0.020000
 10
0.026000
 20
0.020000
  0
LWPOLYLINE
  8
Copper
420
16744512
 90
4
 70
1
 10
0.034000
 20
0.026000
 10
0.028000
 20
0.026000
 10
0.028000
 20
0.020000
 10
0.034000
 20
0.020000
  0
LWPOLYLINE
  8
Copper
420
16744512
 90
4
 70
1
 10
0.042000
 20
0.026000
 10
0.036000
 20
0.026000
 10
0.036000
 20
0.020000
 10
0.042000
 20
0.020000
  0
LWPOLYLINE
  8
Copper
420
16744512
 90
4
 70
1
 10
0.050000
 20
0.026000
 10
0.044000
 20
0.026000
 10
0.044000
 20
0.020000
 10
0.050000
 20
0.020000
  0
LWPOLYLINE
  8
Aluminum
420
12632256
 90
4
 70
1
 10
0.034000
 20
0.042000
 10
0.028000
 20
0.042000
 10
0.028000
 20
0.036000
 10
0.034000
 20
0.036000
  0
LWPOLYLINE
  8
Aluminum
420
12632256
 90
4
 70
1
 10
0.042000
 20
0.042000
 10
0.036000
 20
0.042000
 10
0.036000
 20
0.036000
 10
0.042000
 20
0.036000
  0
LWPOLYLINE
  8
Aluminum
420
12632256
 90
4
 70
1
 10
0.042000
 20
0.034000
 10
0.036000
 20
0.034000
 10
0.036000
 20
0.028000
 10
0.042000
 20
0.028000
  0
LWPOLYLINE
  8
Gold
420
16766720
 90
4
 70
1
 10
0.034000
 20
0.034000
 10
0.028000
 20
0.034000
 10
0.028000
 20
0.028000
 10
0.034000
 20
0.028000
  0
ENDSEC
  0
EOF
