  0
SECTION
  2
HEADER
  9
$ACADVER
  1
AC1018
  0
ENDSEC
  0
SECTION
  2
TABLES
  0
TABLE
  2
LAYER
  0
LAYER
  2
DRILL
 70
0
 62
0
  0
LAYER
  2
TOP_COMPONENTS
 70
0
 62
7
  0
LAYER
  2
BOTTOM_COMPONENTS
 70
0
 62
7
  0
LAYER
  2
PCB_LAYERS
 70
0
 62
7
  0
ENDTAB
  0
ENDSEC
  0
SECTION
  2
ENTITIES
  0
LWPOLYLINE
  8
PCB_LAYERS
420
3046706
 90
4
 70
1
 10
0.000000
 20
0.000000
 10
10.000000
 20
0.000000
 10
10.000000
 20
5.000000
 10
0.000000
 20
5.000000
  0
LWPOLYLINE
  8
PCB_LAYERS
420
12088115
 90
4
 70
1
 10
0.000000
 20
3.000000
 10
10.000000
 20
3.000000
 10
10.000000
 20
5.000000
 10
0.000000
 20
5.000000
  0
LWPOLYLINE
  8
PCB_LAYERS
420
12088115
 90
4
 70
1
 10
0.000000
 20
0.000000
 10
10.000000
 20
0.000000
 10
10.000000
 20
1.000000
 10
0.000000
 20
1.000000
  0
LWPOLYLINE
  8
PCB_LAYERS
420
12088115
 90
4
 70
1
 10
0.000000
 20
1.500000
 10
10.000000
 20
1.500000
 10
10.000000
 20
2.500000
 10
0.000000
 20
2.500000
  0
LWPOLYLINE
  8
PCB_LAYERS
420
12088115
 90
4
 70
1
 10
0.000000
 20
3.000000
 10
10.000000
 20
3.000000
 10
10.000000
 20
5.000000
 10
0.000000
 20
5.000000
  0
LWPOLYLINE
  8
PCB_LAYERS
420
12088115
 90
4
 70
1
 10
1.500000
 20
3.000000
 10
2.500000
 20
3.000000
 10
2.500000
 20
4.000000
 10
1.500000
 20
4.000000
  0
LWPOLYLINE
  8
PCB_LAYERS
420
12088115
 90
4
 70
1
 10
3.500000
 20
1.500000
 10
4.500000
 20
1.500000
 10
4.500000
 20
2.500000
 10
3.500000
 20
2.500000
  0
LWPOLYLINE
  8
PCB_LAYERS
420
12088115
 90
4
 70
1
 10
2.500000
 20
0.000000
 10
3.500000
 20
0.000000
 10
3.500000
 20
1.000000
 10
2.500000
 20
1.000000
  0
LWPOLYLINE
  8
PCB_LAYERS
420
12088115
 90
4
 70
1
 10
6.500000
 20
3.000000
 10
7.500000
 20
3.000000
 10
7.500000
 20
4.000000
 10
6.500000
 20
4.000000
  0
LWPOLYLINE
  8
PCB_LAYERS
420
12088115
 90
4
 70
1
 10
4.500000
 20
1.500000
 10
5.500000
 20
1.500000
 10
5.500000
 20
2.500000
 10
4.500000
 20
2.500000
  0
LWPOLYLINE
  8
PCB_LAYERS
420
12088115
 90
4
 70
1
 10
5.500000
 20
0.000000
 10
6.500000
 20
0.000000
 10
6.500000
 20
1.000000
 10
5.500000
 20
1.000000
  0
LWPOLYLINE
  8
PCB_LAYERS
420
12088115
 90
4
 70
1
 10
0.450000
 20
3.275000
 10
1.050000
 20
3.275000
 10
1.050000
 20
3.875000
 10
0.450000
 20
3.875000
  0
LWPOLYLINE
  8
PCB_LAYERS
420
12088115
 90
4
 70
1
 10
1.300000
 20
3.275000
 10
1.900000
 20
3.275000
 10
1.900000
 20
3.875000
 10
1.300000
 20
3.875000
  0
LWPOLYLINE
  8
PCB_LAYERS
420
12088115
 90
4
 70
1
 10
2.150000
 20
3.275000
 10
2.750000
 20
3.275000
 10
2.750000
 20
3.875000
 10
2.150000
 20
3.875000
  0
LWPOLYLINE
  8
PCB_LAYERS
420
12088115
 90
4
 70
1
 10
3.000000
 20
3.275000
 10
3.600000
 20
3.275000
 10
3.600000
 20
3.875000
 10
3.000000
 20
3.875000
  0
LWPOLYLINE
  8
PCB_LAYERS
420
12088115
 90
4
 70
1
 10
3.850000
 20
3.275000
 10
4.450000
 20
3.275000
 10
4.450000
 20
3.875000
 10
3.850000
 20
3.875000
  0
LWPOLYLINE
  8
PCB_LAYERS
420
12088115
 90
4
 70
1
 10
4.700000
 20
3.275000
 10
5.300000
 20
3.275000
 10
5.300000
 20
3.875000
 10
4.700000
 20
3.875000
  0
LWPOLYLINE
  8
PCB_LAYERS
420
12088115
 90
4
 70
1
 10
5.550000
 20
3.275000
 10
6.150000
 20
3.275000
 10
6.150000
 20
3.875000
 10
5.550000
 20
3.875000
  0
LWPOLYLINE
  8
PCB_LAYERS
420
12088115
 90
4
 70
1
 10
6.400000
 20
3.275000
 10
7.000000
 20
3.275000
 10
7.000000
 20
3.875000
 10
6.400000
 20
3.875000
  0
LWPOLYLINE
  8
PCB_LAYERS
420
12088115
 90
4
 70
1
 10
7.250000
 20
3.275000
 10
7.850000
 20
3.275000
 10
7.850000
 20
3.875000
 10
7.250000
 20
3.875000
  0
LWPOLYLINE
  8
PCB_LAYERS
420
12088115
 90
4
 70
1
 10
8.100000
 20
3.275000
 10
8.700000
 20
3.275000
 10
8.700000
 20
3.875000
 10
8.100000
 20
3.875000
  0
LWPOLYLINE
  8
PCB_LAYERS
420
12088115
 90
4
 70
1
 10
8.950000
 20
3.275000
 10
9.550000
 20
3.275000
 10
9.550000
 20
3.875000
 10
8.950000
 20
3.875000
  0
LWPOLYLINE
  8
PCB_LAYERS
420
12088115
 90
4
 70
1
 10
0.450000
 20
4.125000
 10
1.050000
 20
4.125000
 10
1.050000
 20
4.725000
 10
0.450000
 20
4.725000
  0
LWPOLYLINE
  8
PCB_LAYERS
420
12088115
 90
4
 70
1
 10
1.300000
 20
4.125000
 10
1.900000
 20
4.125000
 10
1.900000
 20
4.725000
 10
1.300000
 20
4.725000
  0
LWPOLYLINE
  8
PCB_LAYERS
420
12088115
 90
4
 70
1
 10
2.150000
 20
4.125000
 10
2.750000
 20
4.125000
 10
2.750000
 20
4.725000
 10
2.150000
 20
4.725000
  0
LWPOLYLINE
  8
PCB_LAYERS
420
12088115
 90
4
 70
1
 10
3.000000
 20
4.125000
 10
3.600000
 20
4.125000
 10
3.600000
 20
4.725000
 10
3.000000
 20
4.725000
  0
LWPOLYLINE
  8
PCB_LAYERS
420
12088115
 90
4
 70
1
 10
3.850000
 20
4.125000
 10
4.450000
 20
4.125000
 10
4.450000
 20
4.725000
 10
3.850000
 20
4.725000
  0
LWPOLYLINE
  8
PCB_LAYERS
420
12088115
 90
4
 70
1
 10
4.700000
 20
4.125000
 10
5.300000
 20
4.125000
 10
5.300000
 20
4.725000
 10
4.700000
 20
4.725000
  0
LWPOLYLINE
  8
PCB_LAYERS
420
12088115
 90
4
 70
1
 10
5.550000
 20
4.125000
 10
6.150000
 20
4.125000
 10
6.150000
 20
4.725000
 10
5.550000
 20
4.725000
  0
LWPOLYLINE
  8
PCB_LAYERS
420
12088115
 90
4
 70
1
 10
6.400000
 20
4.125000
 10
7.000000
 20
4.125000
 10
7.000000
 20
4.725000
 10
6.400000
 20
4.725000
  0
LWPOLYLINE
  8
PCB_LAYERS
420
12088115
 90
4
 70
1
 10
7.250000
 20
4.125000
 10
7.850000
 20
4.125000
 10
7.850000
 20
4.725000
 10
7.250000
 20
4.725000
  0
LWPOLYLINE
  8
PCB_LAYERS
420
12088115
 90
4
 70
1
 10
8.100000
 20
4.125000
 10
8.700000
 20
4.125000
 10
8.700000
 20
4.725000
 10
8.100000
 20
4.725000
  0
LWPOLYLINE
  8
PCB_LAYERS
420
12088115
 90
4
 70
1
 10
8.950000
 20
4.125000
 10
9.550000
 20
4.125000
 10
9.550000
 20
4.725000
 10
8.950000
 20
4.725000
  0
LWPOLYLINE
  8
PCB_LAYERS
420
12088115
 90
4
 70
1
 10
2.850000
 20
0.350000
 10
3.150000
 20
0.350000
 10
3.150000
 20
0.650000
 10
2.850000
 20
0.650000
  0
LWPOLYLINE
  8
PCB_LAYERS
420
12088115
 90
4
 70
1
 10
5.850000
 20
0.350000
 10
6.150000
 20
0.350000
 10
6.150000
 20
0.650000
 10
5.850000
 20
0.650000
  0
LWPOLYLINE
  8
PCB_LAYERS
420
12088115
 90
4
 70
1
 10
3.700000
 20
1.700000
 10
4.300000
 20
1.700000
 10
4.300000
 20
2.300000
 10
3.700000
 20
2.300000
  0
LWPOLYLINE
  8
PCB_LAYERS
420
12088115
 90
4
 70
1
 10
4.700000
 20
1.700000
 10
5.300000
 20
1.700000
 10
5.300000
 20
2.300000
 10
4.700000
 20
2.300000
  0
LWPOLYLINE
  8
TOP_COMPONENTS
420
12088115
 90
4
 70
1
 10
1.000000
 20
0.000000
 10
5.000000
 20
0.000000
 10
5.000000
 20
4.000000
 10
1.000000
 20
4.000000
  0
LWPOLYLINE
  8
TOP_COMPONENTS
420
12088115
 90
4
 70
1
 10
1.000000
 20
0.000000
 10
5.000000
 20
0.000000
 10
5.000000
 20
4.000000
 10
1.000000
 20
4.000000
  0
LWPOLYLINE
  8
BOTTOM_COMPONENTS
420
12088115
 90
4
 70
1
 10
8.000000
 20
0.000000
 10
12.000000
 20
0.000000
 10
12.000000
 20
4.000000
 10
8.000000
 20
4.000000
  0
LWPOLYLINE
  8
BOTTOM_COMPONENTS
420
12088115
 90
4
 70
1
 10
8.000000
 20
0.000000
 10
12.000000
 20
0.000000
 10
12.000000
 20
4.000000
 10
8.000000
 20
4.000000
  0
ENDSEC
  0
EOF
