  0
SECTION
  2
HEADER
  9
$ACADVER
  1
AC1018
  0
ENDSEC
  0
SECTION
  2
TABLES
  0
TABLE
  2
LAYER
  0
LAYER
  2
L_FR4
 70
0
 62
7
420
3046706
440
33554648
  0
LAYER
  2
L_Copper
 70
0
 62
7
420
12088115
440
33554432
  0
ENDTAB
  0
ENDSEC
  0
SECTION
  2
ENTITIES
  0
LWPOLYLINE
  8
Z1.0000mm_FR4
420
3046706
 90
4
 70
1
 10
0.000000
 20
0.000000
 10
10.000000
 20
0.000000
 10
10.000000
 20
5.000000
 10
0.000000
 20
5.000000
  0
CIRCLE
  8
Z1.0000mm_FR4
 62
0
 10
5.000000
 20
4.500000
 40
0.300000
  0
CIRCLE
  8
Z1.0000mm_FR4
 62
0
 10
5.000000
 20
4.500000
 40
0.300000
  0
CIRCLE
  8
Z1.0000mm_FR4
 62
0
 10
2.000000
 20
4.500000
 40
0.300000
  0
CIRCLE
  8
Z1.0000mm_FR4
 62
0
 10
6.500000
 20
4.500000
 40
0.300000
  0
CIRCLE
  8
Z1.0000mm_FR4
 62
0
 10
3.000000
 20
1.500000
 40
0.150000
  0
CIRCLE
  8
Z1.0000mm_FR4
 62
0
 10
7.500000
 20
1.500000
 40
0.150000
  0
CIRCLE
  8
Z1.0000mm_FR4
 62
0
 10
4.000000
 20
3.000000
 40
0.300000
  0
CIRCLE
  8
Z1.0000mm_FR4
 62
0
 10
8.500000
 20
3.000000
 40
0.300000
  0
LWPOLYLINE
  8
Z1.9500mm_Copper
420
12088115
 90
4
 70
1
 10
0.000000
 20
4.000000
 10
10.000000
 20
4.000000
 10
10.000000
 20
5.000000
 10
0.000000
 20
5.000000
  0
LWPOLYLINE
  8
Z1.2500mm_Copper
420
12088115
 90
4
 70
1
 10
0.000000
 20
1.000000
 10
10.000000
 20
1.000000
 10
10.000000
 20
2.000000
 10
0.000000
 20
2.000000
  0
LWPOLYLINE
  8
Z0.6500mm_Copper
420
12088115
 90
4
 70
1
 10
0.000000
 20
2.500000
 10
10.000000
 20
2.500000
 10
10.000000
 20
3.500000
 10
0.000000
 20
3.500000
  0
LWPOLYLINE
  8
Z0.0500mm_Copper
420
12088115
 90
4
 70
1
 10
0.000000
 20
4.000000
 10
10.000000
 20
4.000000
 10
10.000000
 20
5.000000
 10
0.000000
 20
5.000000
  0
LWPOLYLINE
  8
Z1.0000mm_Copper
420
12088115
 90
4
 70
1
 10
4.700000
 20
4.200000
 10
5.300000
 20
4.200000
 10
5.300000
 20
4.800000
 10
4.700000
 20
4.800000
  0
LWPOLYLINE
  8
Z1.9250mm_Copper
420
12088115
 90
4
 70
1
 10
1.500000
 20
4.000000
 10
2.500000
 20
4.000000
 10
2.500000
 20
5.000000
 10
1.500000
 20
5.000000
  0
LWPOLYLINE
  8
Z1.9250mm_Copper
420
12088115
 90
4
 70
1
 10
3.500000
 20
2.500000
 10
4.500000
 20
2.500000
 10
4.500000
 20
3.500000
 10
3.500000
 20
3.500000
  0
LWPOLYLINE
  8
Z1.9250mm_Copper
420
12088115
 90
4
 70
1
 10
2.500000
 20
1.000000
 10
3.500000
 20
1.000000
 10
3.500000
 20
2.000000
 10
2.500000
 20
2.000000
  0
LWPOLYLINE
  8
Z1.9250mm_Copper
420
12088115
 90
4
 70
1
 10
6.000000
 20
4.000000
 10
7.000000
 20
4.000000
 10
7.000000
 20
5.000000
 10
6.000000
 20
5.000000
  0
LWPOLYLINE
  8
Z1.9250mm_Copper
420
12088115
 90
4
 70
1
 10
8.000000
 20
2.500000
 10
9.000000
 20
2.500000
 10
9.000000
 20
3.500000
 10
8.000000
 20
3.500000
  0
LWPOLYLINE
  8
Z1.9250mm_Copper
420
12088115
 90
4
 70
1
 10
7.000000
 20
1.000000
 10
8.000000
 20
1.000000
 10
8.000000
 20
2.000000
 10
7.000000
 20
2.000000
  0
LWPOLYLINE
  8
Z1.0250mm_Copper
420
12088115
 90
4
 70
1
 10
4.700000
 20
4.200000
 10
5.300000
 20
4.200000
 10
5.300000
 20
4.800000
 10
4.700000
 20
4.800000
  0
LWPOLYLINE
  8
Z1.0000mm_Copper
420
12088115
 90
4
 70
1
 10
1.700000
 20
4.200000
 10
2.300000
 20
4.200000
 10
2.300000
 20
4.800000
 10
1.700000
 20
4.800000
  0
LWPOLYLINE
  8
Z1.0000mm_Copper
420
12088115
 90
4
 70
1
 10
6.200000
 20
4.200000
 10
6.800000
 20
4.200000
 10
6.800000
 20
4.800000
 10
6.200000
 20
4.800000
  0
LWPOLYLINE
  8
Z1.6000mm_Copper
420
12088115
 90
4
 70
1
 10
2.850000
 20
1.350000
 10
3.150000
 20
1.350000
 10
3.150000
 20
1.650000
 10
2.850000
 20
1.650000
  0
LWPOLYLINE
  8
Z1.6000mm_Copper
420
12088115
 90
4
 70
1
 10
7.350000
 20
1.350000
 10
7.650000
 20
1.350000
 10
7.650000
 20
1.650000
 10
7.350000
 20
1.650000
  0
LWPOLYLINE
  8
Z1.3000mm_Copper
420
12088115
 90
4
 70
1
 10
3.700000
 20
2.700000
 10
4.300000
 20
2.700000
 10
4.300000
 20
3.300000
 10
3.700000
 20
3.300000
  0
LWPOLYLINE
  8
Z1.3000mm_Copper
420
12088115
 90
4
 70
1
 10
8.200000
 20
2.700000
 10
8.800000
 20
2.700000
 10
8.800000
 20
3.300000
 10
8.200000
 20
3.300000
  0
LWPOLYLINE
  8
Z1.9500mm_Component_Components
420
12088115
 90
4
 70
1
 10
1.000000
 20
1.000000
 10
5.000000
 20
1.000000
 10
5.000000
 20
5.000000
 10
1.000000
 20
5.000000
  0
LWPOLYLINE
  8
Z1.9500mm_Component_Components
420
12088115
 90
4
 70
1
 10
1.000000
 20
1.000000
 10
5.000000
 20
1.000000
 10
5.000000
 20
5.000000
 10
1.000000
 20
5.000000
  0
LWPOLYLINE
  8
Z1.9500mm_Component_Components
420
12088115
 90
4
 70
1
 10
5.500000
 20
1.000000
 10
9.500000
 20
1.000000
 10
9.500000
 20
5.000000
 10
5.500000
 20
5.000000
  0
LWPOLYLINE
  8
Z1.9500mm_Component_Components
420
12088115
 90
4
 70
1
 10
5.500000
 20
1.000000
 10
9.500000
 20
1.000000
 10
9.500000
 20
5.000000
 10
5.500000
 20
5.000000
  0
ENDSEC
  0
EOF
