  0
SECTION
  2
HEADER
  9
$ACADVER
  1
AC1018
  0
ENDSEC
  0
SECTION
  2
TABLES
  0
TABLE
  2
LAYER
  0
LAYER
  2
L_FR4
 70
0
 62
7
420
3046706
440
33554648
  0
LAYER
  2
L_Copper
 70
0
 62
7
420
12088115
440
33554432
  0
ENDTAB
  0
ENDSEC
  0
SECTION
  2
ENTITIES
  0
LWPOLYLINE
  8
Z1.6000mm_FR4
420
3046706
 90
4
 70
1
 10
0.000000
 20
0.000000
 10
10.000000
 20
0.000000
 10
10.000000
 20
5.000000
 10
0.000000
 20
5.000000
  0
LWPOLYLINE
  8
Z0.9500mm_FR4
420
3046706
 90
4
 70
1
 10
0.000000
 20
0.000000
 10
10.000000
 20
0.000000
 10
10.000000
 20
5.000000
 10
0.000000
 20
5.000000
  0
LWPOLYLINE
  8
Z0.3500mm_FR4
420
3046706
 90
4
 70
1
 10
0.000000
 20
0.000000
 10
10.000000
 20
0.000000
 10
10.000000
 20
5.000000
 10
0.000000
 20
5.000000
  0
LWPOLYLINE
  8
Z1.9500mm_Copper
420
12088115
 90
4
 70
1
 10
0.000000
 20
0.000000
 10
10.000000
 20
0.000000
 10
10.000000
 20
5.000000
 10
0.000000
 20
5.000000
  0
LWPOLYLINE
  8
Z1.2500mm_Copper
420
12088115
 90
4
 70
1
 10
0.000000
 20
0.000000
 10
10.000000
 20
0.000000
 10
10.000000
 20
5.000000
 10
0.000000
 20
5.000000
  0
LWPOLYLINE
  8
Z0.6500mm_Copper
420
12088115
 90
4
 70
1
 10
0.000000
 20
0.000000
 10
10.000000
 20
0.000000
 10
10.000000
 20
5.000000
 10
0.000000
 20
5.000000
  0
LWPOLYLINE
  8
Z0.0500mm_Copper
420
12088115
 90
4
 70
1
 10
0.000000
 20
0.000000
 10
10.000000
 20
0.000000
 10
10.000000
 20
5.000000
 10
0.000000
 20
5.000000
  0
LWPOLYLINE
  8
Z1.0000mm_Copper
420
12088115
 90
4
 70
1
 10
2.200000
 20
2.200000
 10
2.800000
 20
2.200000
 10
2.800000
 20
2.800000
 10
2.200000
 20
2.800000
  0
LWPOLYLINE
  8
Z0.9500mm_Copper
420
12088115
 90
4
 70
1
 10
4.750000
 20
2.250000
 10
5.250000
 20
2.250000
 10
5.250000
 20
2.750000
 10
4.750000
 20
2.750000
  0
LWPOLYLINE
  8
Z1.6000mm_Copper
420
12088115
 90
4
 70
1
 10
7.250000
 20
2.250000
 10
7.750000
 20
2.250000
 10
7.750000
 20
2.750000
 10
7.250000
 20
2.750000
  0
ENDSEC
  0
EOF
