  0
SECTION
  2
HEADER
  9
$ACADVER
  1
AC1018
  0
ENDSEC
  0
SECTION
  2
TABLES
  0
TABLE
  2
LAYER
  0
LAYER
  2
Resistor_Poly_Mask
 70
0
 62
7
  0
LAYER
  2
Silicon_Dioxide
 70
0
 62
7
  0
LAYER
  2
Polysilicon
 70
0
 62
7
  0
LAYER
  2
Aluminum
 70
0
 62
7
  0
LAYER
  2
Tungsten
 70
0
 62
7
  0
ENDTAB
  0
ENDSEC
  0
SECTION
  2
ENTITIES
  0
LWPOLYLINE
  8
Polysilicon
420
16736352
 90
4
 70
1
 10
0.003000
 20
0.003000
 10
0.001000
 20
0.003000
 10
0.001000
 20
0.002000
 10
0.003000
 20
0.002000
  0
LWPOLYLINE
  8
Polysilicon
420
16736352
 90
4
 70
1
 10
0.008000
 20
0.003000
 10
0.006000
 20
0.003000
 10
0.006000
 20
0.002000
 10
0.008000
 20
0.002000
  0
LWPOLYLINE
  8
Tungsten
420
8421631
 90
4
 70
1
 10
0.001150
 20
0.002650
 10
0.000850
 20
0.002650
 10
0.000850
 20
0.002350
 10
0.001150
 20
0.002350
  0
LWPOLYLINE
  8
Tungsten
420
8421631
 90
4
 70
1
 10
0.006380
 20
0.002650
 10
0.006080
 20
0.002650
 10
0.006080
 20
0.002350
 10
0.006380
 20
0.002350
  0
LWPOLYLINE
  8
Tungsten
420
8421631
 90
4
 70
1
 10
0.001150
 20
0.002650
 10
0.000850
 20
0.002650
 10
0.000850
 20
0.002350
 10
0.001150
 20
0.002350
  0
LWPOLYLINE
  8
Tungsten
420
8421631
 90
4
 70
1
 10
0.006380
 20
0.002650
 10
0.006080
 20
0.002650
 10
0.006080
 20
0.002350
 10
0.006380
 20
0.002350
  0
LWPOLYLINE
  8
Tungsten
420
8421631
 90
4
 70
1
 10
0.001150
 20
0.002650
 10
0.000850
 20
0.002650
 10
0.000850
 20
0.002350
 10
0.001150
 20
0.002350
  0
LWPOLYLINE
  8
Tungsten
420
8421631
 90
4
 70
1
 10
0.006380
 20
0.002650
 10
0.006080
 20
0.002650
 10
0.006080
 20
0.002350
 10
0.006380
 20
0.002350
  0
LWPOLYLINE
  8
Tungsten
420
8421631
 90
4
 70
1
 10
0.001150
 20
0.002650
 10
0.000850
 20
0.002650
 10
0.000850
 20
0.002350
 10
0.001150
 20
0.002350
  0
LWPOLYLINE
  8
Tungsten
420
8421631
 90
4
 70
1
 10
0.006380
 20
0.002650
 10
0.006080
 20
0.002650
 10
0.006080
 20
0.002350
 10
0.006380
 20
0.002350
  0
LWPOLYLINE
  8
Tungsten
420
8421631
 90
4
 70
1
 10
0.001150
 20
0.002650
 10
0.000850
 20
0.002650
 10
0.000850
 20
0.002350
 10
0.001150
 20
0.002350
  0
LWPOLYLINE
  8
Tungsten
420
8421631
 90
4
 70
1
 10
0.006380
 20
0.002650
 10
0.006080
 20
0.002650
 10
0.006080
 20
0.002350
 10
0.006380
 20
0.002350
  0
LWPOLYLINE
  8
Aluminum
420
12632256
 90
4
 70
1
 10
0.001200
 20
0.002700
 10
0.000800
 20
0.002700
 10
0.000800
 20
0.002300
 10
0.001200
 20
0.002300
  0
LWPOLYLINE
  8
Aluminum
420
12632256
 90
4
 70
1
 10
0.006430
 20
0.002700
 10
0.006030
 20
0.002700
 10
0.006030
 20
0.002300
 10
0.006430
 20
0.002300
  0
LWPOLYLINE
  8
Resistor_Poly_Mask
420
16728128
 90
4
 70
1
 10
0.000000
 20
0.000000
 10
0.010000
 20
0.000000
 10
0.010000
 20
0.005000
 10
0.000000
 20
0.005000
  0
LWPOLYLINE
  8
Silicon_Dioxide
420
14739711
 90
4
 70
1
 10
0.000000
 20
0.000000
 10
0.010000
 20
0.000000
 10
0.010000
 20
0.005000
 10
0.000000
 20
0.005000
  0
LWPOLYLINE
  8
Silicon_Dioxide
420
14739711
 90
4
 70
1
 10
0.000000
 20
0.000000
 10
0.010000
 20
0.000000
 10
0.010000
 20
0.005000
 10
0.000000
 20
0.005000
  0
ENDSEC
  0
EOF
