  0
SECTION
  2
HEADER
  9
$ACADVER
  1
AC1018
  0
ENDSEC
  0
SECTION
  2
TABLES
  0
TABLE
  2
LAYER
  0
LAYER
  2
DRILL
 70
0
 62
0
  0
LAYER
  2
TOP_COMPONENTS
 70
0
 62
7
  0
LAYER
  2
BOTTOM_COMPONENTS
 70
0
 62
7
  0
LAYER
  2
PCB_LAYERS
 70
0
 62
7
  0
ENDTAB
  0
ENDSEC
  0
SECTION
  2
ENTITIES
  0
LWPOLYLINE
  8
PCB_LAYERS
420
12088115
 90
80
 70
1
 10
8.100000
 20
3.100000
 10
8.000000
 20
3.100000
 10
8.009801
 20
3.099518
 10
8.019509
 20
3.098078
 10
8.029028
 20
3.095694
 10
8.038268
 20
3.092387
 10
8.047139
 20
3.088192
 10
8.055557
 20
3.083146
 10
8.063439
 20
3.077301
 10
8.070710
 20
3.070710
 10
8.077301
 20
3.063439
 10
8.083146
 20
3.055557
 10
8.088192
 20
3.047139
 10
8.092387
 20
3.038268
 10
8.095694
 20
3.029028
 10
8.098078
 20
3.019509
 10
8.099518
 20
3.009801
 10
8.100000
 20
3.000000
 10
8.099518
 20
2.990199
 10
8.098078
 20
2.980491
 10
8.095694
 20
2.970972
 10
8.092387
 20
2.961732
 10
8.088192
 20
2.952861
 10
8.083146
 20
2.944443
 10
8.077301
 20
2.936561
 10
8.070710
 20
2.929290
 10
8.063439
 20
2.922699
 10
8.055557
 20
2.916854
 10
8.047139
 20
2.911808
 10
8.038268
 20
2.907613
 10
8.029028
 20
2.904306
 10
8.019509
 20
2.901922
 10
8.009801
 20
2.900482
 10
8.000000
 20
2.900000
 10
7.990199
 20
2.900482
 10
7.980491
 20
2.901922
 10
7.970972
 20
2.904306
 10
7.961732
 20
2.907613
 10
7.952861
 20
2.911808
 10
7.944443
 20
2.916854
 10
7.936561
 20
2.922699
 10
7.929290
 20
2.929290
 10
7.922699
 20
2.936561
 10
7.916854
 20
2.944443
 10
7.911808
 20
2.952861
 10
7.907613
 20
2.961732
 10
7.904306
 20
2.970972
 10
7.901922
 20
2.980491
 10
7.900482
 20
2.990199
 10
7.900000
 20
3.000000
 10
7.900482
 20
3.009801
 10
7.901922
 20
3.019509
 10
7.904306
 20
3.029028
 10
7.907613
 20
3.038268
 10
7.911808
 20
3.047139
 10
7.916854
 20
3.055557
 10
7.922699
 20
3.063439
 10
7.929290
 20
3.070710
 10
7.936561
 20
3.077301
 10
7.944443
 20
3.083146
 10
7.952861
 20
3.088192
 10
7.961732
 20
3.092387
 10
7.970972
 20
3.095694
 10
7.980491
 20
3.098078
 10
7.990199
 20
3.099518
 10
8.000000
 20
3.100000
 10
2.172955
 20
3.100000
 10
2.176384
 20
3.094279
 10
2.184775
 20
3.076536
 10
2.191388
 20
3.058056
 10
2.196157
 20
3.039018
 10
2.199036
 20
3.019603
 10
2.200000
 20
3.000000
 10
2.199036
 20
2.980397
 10
2.196157
 20
2.960982
 10
2.191388
 20
2.941944
 10
2.184775
 20
2.923464
 10
2.176384
 20
2.905721
 10
2.172955
 20
2.900000
 10
8.100000
 20
2.900000
  0
LWPOLYLINE
  8
PCB_LAYERS
420
12088115
 90
64
 70
1
 10
2.039206
 20
2.601927
 10
2.078036
 20
2.607686
 10
2.116113
 20
2.617224
 10
2.153073
 20
2.630449
 10
2.188558
 20
2.647232
 10
2.222228
 20
2.667413
 10
2.253757
 20
2.690796
 10
2.282842
 20
2.717158
 10
2.309204
 20
2.746243
 10
2.332587
 20
2.777772
 10
2.352768
 20
2.811442
 10
2.369551
 20
2.846927
 10
2.382776
 20
2.883887
 10
2.392314
 20
2.921964
 10
2.398073
 20
2.960794
 10
2.400000
 20
3.000000
 10
2.398073
 20
3.039206
 10
2.392314
 20
3.078036
 10
2.382776
 20
3.116113
 10
2.369551
 20
3.153073
 10
2.352768
 20
3.188558
 10
2.332587
 20
3.222228
 10
2.309204
 20
3.253757
 10
2.282842
 20
3.282842
 10
2.253757
 20
3.309204
 10
2.222228
 20
3.332587
 10
2.188558
 20
3.352768
 10
2.153073
 20
3.369551
 10
2.116113
 20
3.382776
 10
2.078036
 20
3.392314
 10
2.039206
 20
3.398073
 10
2.000000
 20
3.400000
 10
1.960794
 20
3.398073
 10
1.921964
 20
3.392314
 10
1.883887
 20
3.382776
 10
1.846927
 20
3.369551
 10
1.811442
 20
3.352768
 10
1.777772
 20
3.332587
 10
1.746243
 20
3.309204
 10
1.717158
 20
3.282842
 10
1.690796
 20
3.253757
 10
1.667413
 20
3.222228
 10
1.647232
 20
3.188558
 10
1.630449
 20
3.153073
 10
1.617224
 20
3.116113
 10
1.607686
 20
3.078036
 10
1.601927
 20
3.039206
 10
1.600000
 20
3.000000
 10
1.601927
 20
2.960794
 10
1.607686
 20
2.921964
 10
1.617224
 20
2.883887
 10
1.630449
 20
2.846927
 10
1.647232
 20
2.811442
 10
1.667413
 20
2.777772
 10
1.690796
 20
2.746243
 10
1.717158
 20
2.717158
 10
1.746243
 20
2.690796
 10
1.777772
 20
2.667413
 10
1.811442
 20
2.647232
 10
1.846927
 20
2.630449
 10
1.883887
 20
2.617224
 10
1.921964
 20
2.607686
 10
1.960794
 20
2.601927
 10
2.000000
 20
2.600000
  0
LWPOLYLINE
  8
PCB_LAYERS
420
12088115
 90
64
 70
1
 10
8.000000
 20
2.800000
 10
8.019603
 20
2.800964
 10
8.039018
 20
2.803843
 10
8.058056
 20
2.808612
 10
8.076536
 20
2.815225
 10
8.094279
 20
2.823616
 10
8.111114
 20
2.833707
 10
8.126878
 20
2.845398
 10
8.141421
 20
2.858579
 10
8.154602
 20
2.873122
 10
8.166293
 20
2.888886
 10
8.176384
 20
2.905721
 10
8.184775
 20
2.923464
 10
8.191388
 20
2.941944
 10
8.196157
 20
2.960982
 10
8.199036
 20
2.980397
 10
8.200000
 20
3.000000
 10
8.199036
 20
3.019603
 10
8.196157
 20
3.039018
 10
8.191388
 20
3.058056
 10
8.184775
 20
3.076536
 10
8.176384
 20
3.094279
 10
8.166293
 20
3.111114
 10
8.154602
 20
3.126878
 10
8.141421
 20
3.141421
 10
8.126878
 20
3.154602
 10
8.111114
 20
3.166293
 10
8.094279
 20
3.176384
 10
8.076536
 20
3.184775
 10
8.058056
 20
3.191388
 10
8.039018
 20
3.196157
 10
8.019603
 20
3.199036
 10
8.000000
 20
3.200000
 10
7.980397
 20
3.199036
 10
7.960982
 20
3.196157
 10
7.941944
 20
3.191388
 10
7.923464
 20
3.184775
 10
7.905721
 20
3.176384
 10
7.888886
 20
3.166293
 10
7.873122
 20
3.154602
 10
7.858579
 20
3.141421
 10
7.845398
 20
3.126878
 10
7.833707
 20
3.111114
 10
7.823616
 20
3.094279
 10
7.815225
 20
3.076536
 10
7.808612
 20
3.058056
 10
7.803843
 20
3.039018
 10
7.800964
 20
3.019603
 10
7.800000
 20
3.000000
 10
7.800964
 20
2.980397
 10
7.803843
 20
2.960982
 10
7.808612
 20
2.941944
 10
7.815225
 20
2.923464
 10
7.823616
 20
2.905721
 10
7.833707
 20
2.888886
 10
7.845398
 20
2.873122
 10
7.858579
 20
2.858579
 10
7.873122
 20
2.845398
 10
7.888886
 20
2.833707
 10
7.905721
 20
2.823616
 10
7.923464
 20
2.815225
 10
7.941944
 20
2.808612
 10
7.960982
 20
2.803843
 10
7.980397
 20
2.800964
  0
LWPOLYLINE
  8
PCB_LAYERS
420
12088115
 90
64
 70
1
 10
1.982848
 20
2.825843
 10
1.965860
 20
2.828363
 10
1.949201
 20
2.832536
 10
1.933031
 20
2.838322
 10
1.917506
 20
2.845664
 10
1.902776
 20
2.854493
 10
1.888982
 20
2.864724
 10
1.876257
 20
2.876257
 10
1.864724
 20
2.888982
 10
1.854493
 20
2.902776
 10
1.845664
 20
2.917506
 10
1.838322
 20
2.933031
 10
1.832536
 20
2.949201
 10
1.828363
 20
2.965860
 10
1.825843
 20
2.982848
 10
1.825000
 20
3.000000
 10
1.825843
 20
3.017152
 10
1.828363
 20
3.034140
 10
1.832536
 20
3.050799
 10
1.838322
 20
3.066969
 10
1.845664
 20
3.082494
 10
1.854493
 20
3.097224
 10
1.864724
 20
3.111018
 10
1.876257
 20
3.123743
 10
1.888982
 20
3.135276
 10
1.902776
 20
3.145507
 10
1.917506
 20
3.154336
 10
1.933031
 20
3.161678
 10
1.949201
 20
3.167464
 10
1.965860
 20
3.171637
 10
1.982848
 20
3.174157
 10
2.000000
 20
3.175000
 10
2.017152
 20
3.174157
 10
2.034140
 20
3.171637
 10
2.050799
 20
3.167464
 10
2.066969
 20
3.161678
 10
2.082494
 20
3.154336
 10
2.097224
 20
3.145507
 10
2.111018
 20
3.135276
 10
2.123743
 20
3.123743
 10
2.135276
 20
3.111018
 10
2.145507
 20
3.097224
 10
2.154336
 20
3.082494
 10
2.161678
 20
3.066969
 10
2.167464
 20
3.050799
 10
2.171637
 20
3.034140
 10
2.174157
 20
3.017152
 10
2.175000
 20
3.000000
 10
2.174157
 20
2.982848
 10
2.171637
 20
2.965860
 10
2.167464
 20
2.949201
 10
2.161678
 20
2.933031
 10
2.154336
 20
2.917506
 10
2.145507
 20
2.902776
 10
2.135276
 20
2.888982
 10
2.123743
 20
2.876257
 10
2.111018
 20
2.864724
 10
2.097224
 20
2.854493
 10
2.082494
 20
2.845664
 10
2.066969
 20
2.838322
 10
2.050799
 20
2.832536
 10
2.034140
 20
2.828363
 10
2.017152
 20
2.825843
 10
2.000000
 20
2.825000
  0
LWPOLYLINE
  8
PCB_LAYERS
420
12088115
 90
64
 70
1
 10
7.992649
 20
2.925362
 10
7.985369
 20
2.926442
 10
7.978229
 20
2.928230
 10
7.971299
 20
2.930710
 10
7.964646
 20
2.933856
 10
7.958333
 20
2.937640
 10
7.952421
 20
2.942025
 10
7.946967
 20
2.946967
 10
7.942025
 20
2.952421
 10
7.937640
 20
2.958333
 10
7.933856
 20
2.964646
 10
7.930710
 20
2.971299
 10
7.928230
 20
2.978229
 10
7.926442
 20
2.985369
 10
7.925362
 20
2.992649
 10
7.925000
 20
3.000000
 10
7.925362
 20
3.007351
 10
7.926442
 20
3.014631
 10
7.928230
 20
3.021771
 10
7.930710
 20
3.028701
 10
7.933856
 20
3.035354
 10
7.937640
 20
3.041667
 10
7.942025
 20
3.047579
 10
7.946967
 20
3.053033
 10
7.952421
 20
3.057975
 10
7.958333
 20
3.062360
 10
7.964646
 20
3.066144
 10
7.971299
 20
3.069290
 10
7.978229
 20
3.071770
 10
7.985369
 20
3.073558
 10
7.992649
 20
3.074638
 10
8.000000
 20
3.075000
 10
8.007351
 20
3.074638
 10
8.014631
 20
3.073558
 10
8.021771
 20
3.071770
 10
8.028701
 20
3.069290
 10
8.035354
 20
3.066144
 10
8.041667
 20
3.062360
 10
8.047579
 20
3.057975
 10
8.053033
 20
3.053033
 10
8.057975
 20
3.047579
 10
8.062360
 20
3.041667
 10
8.066144
 20
3.035354
 10
8.069290
 20
3.028701
 10
8.071770
 20
3.021771
 10
8.073558
 20
3.014631
 10
8.074638
 20
3.007351
 10
8.075000
 20
3.000000
 10
8.074638
 20
2.992649
 10
8.073558
 20
2.985369
 10
8.071770
 20
2.978229
 10
8.069290
 20
2.971299
 10
8.066144
 20
2.964646
 10
8.062360
 20
2.958333
 10
8.057975
 20
2.952421
 10
8.053033
 20
2.946967
 10
8.047579
 20
2.942025
 10
8.041667
 20
2.937640
 10
8.035354
 20
2.933856
 10
8.028701
 20
2.930710
 10
8.021771
 20
2.928230
 10
8.014631
 20
2.926442
 10
8.007351
 20
2.925362
 10
8.000000
 20
2.925000
  0
LWPOLYLINE
  8
PCB_LAYERS
420
12088115
 90
64
 70
1
 10
2.039206
 20
2.601927
 10
2.078036
 20
2.607686
 10
2.116113
 20
2.617224
 10
2.153073
 20
2.630449
 10
2.188558
 20
2.647232
 10
2.222228
 20
2.667413
 10
2.253757
 20
2.690796
 10
2.282842
 20
2.717158
 10
2.309204
 20
2.746243
 10
2.332587
 20
2.777772
 10
2.352768
 20
2.811442
 10
2.369551
 20
2.846927
 10
2.382776
 20
2.883887
 10
2.392314
 20
2.921964
 10
2.398073
 20
2.960794
 10
2.400000
 20
3.000000
 10
2.398073
 20
3.039206
 10
2.392314
 20
3.078036
 10
2.382776
 20
3.116113
 10
2.369551
 20
3.153073
 10
2.352768
 20
3.188558
 10
2.332587
 20
3.222228
 10
2.309204
 20
3.253757
 10
2.282842
 20
3.282842
 10
2.253757
 20
3.309204
 10
2.222228
 20
3.332587
 10
2.188558
 20
3.352768
 10
2.153073
 20
3.369551
 10
2.116113
 20
3.382776
 10
2.078036
 20
3.392314
 10
2.039206
 20
3.398073
 10
2.000000
 20
3.400000
 10
1.960794
 20
3.398073
 10
1.921964
 20
3.392314
 10
1.883887
 20
3.382776
 10
1.846927
 20
3.369551
 10
1.811442
 20
3.352768
 10
1.777772
 20
3.332587
 10
1.746243
 20
3.309204
 10
1.717158
 20
3.282842
 10
1.690796
 20
3.253757
 10
1.667413
 20
3.222228
 10
1.647232
 20
3.188558
 10
1.630449
 20
3.153073
 10
1.617224
 20
3.116113
 10
1.607686
 20
3.078036
 10
1.601927
 20
3.039206
 10
1.600000
 20
3.000000
 10
1.601927
 20
2.960794
 10
1.607686
 20
2.921964
 10
1.617224
 20
2.883887
 10
1.630449
 20
2.846927
 10
1.647232
 20
2.811442
 10
1.667413
 20
2.777772
 10
1.690796
 20
2.746243
 10
1.717158
 20
2.717158
 10
1.746243
 20
2.690796
 10
1.777772
 20
2.667413
 10
1.811442
 20
2.647232
 10
1.846927
 20
2.630449
 10
1.883887
 20
2.617224
 10
1.921964
 20
2.607686
 10
1.960794
 20
2.601927
 10
2.000000
 20
2.600000
  0
LWPOLYLINE
  8
PCB_LAYERS
420
12088115
 90
64
 70
1
 10
1.982848
 20
2.825843
 10
1.965860
 20
2.828363
 10
1.949201
 20
2.832536
 10
1.933031
 20
2.838322
 10
1.917506
 20
2.845664
 10
1.902776
 20
2.854493
 10
1.888982
 20
2.864724
 10
1.876257
 20
2.876257
 10
1.864724
 20
2.888982
 10
1.854493
 20
2.902776
 10
1.845664
 20
2.917506
 10
1.838322
 20
2.933031
 10
1.832536
 20
2.949201
 10
1.828363
 20
2.965860
 10
1.825843
 20
2.982848
 10
1.825000
 20
3.000000
 10
1.825843
 20
3.017152
 10
1.828363
 20
3.034140
 10
1.832536
 20
3.050799
 10
1.838322
 20
3.066969
 10
1.845664
 20
3.082494
 10
1.854493
 20
3.097224
 10
1.864724
 20
3.111018
 10
1.876257
 20
3.123743
 10
1.888982
 20
3.135276
 10
1.902776
 20
3.145507
 10
1.917506
 20
3.154336
 10
1.933031
 20
3.161678
 10
1.949201
 20
3.167464
 10
1.965860
 20
3.171637
 10
1.982848
 20
3.174157
 10
2.000000
 20
3.175000
 10
2.017152
 20
3.174157
 10
2.034140
 20
3.171637
 10
2.050799
 20
3.167464
 10
2.066969
 20
3.161678
 10
2.082494
 20
3.154336
 10
2.097224
 20
3.145507
 10
2.111018
 20
3.135276
 10
2.123743
 20
3.123743
 10
2.135276
 20
3.111018
 10
2.145507
 20
3.097224
 10
2.154336
 20
3.082494
 10
2.161678
 20
3.066969
 10
2.167464
 20
3.050799
 10
2.171637
 20
3.034140
 10
2.174157
 20
3.017152
 10
2.175000
 20
3.000000
 10
2.174157
 20
2.982848
 10
2.171637
 20
2.965860
 10
2.167464
 20
2.949201
 10
2.161678
 20
2.933031
 10
2.154336
 20
2.917506
 10
2.145507
 20
2.902776
 10
2.135276
 20
2.888982
 10
2.123743
 20
2.876257
 10
2.111018
 20
2.864724
 10
2.097224
 20
2.854493
 10
2.082494
 20
2.845664
 10
2.066969
 20
2.838322
 10
2.050799
 20
2.832536
 10
2.034140
 20
2.828363
 10
2.017152
 20
2.825843
 10
2.000000
 20
2.825000
  0
ENDSEC
  0
EOF
