  0
SECTION
  2
HEADER
  9
$ACADVER
  1
AC1018
  0
ENDSEC
  0
SECTION
  2
TABLES
  0
TABLE
  2
LAYER
  0
LAYER
  2
Silicon_Dioxide
 70
0
 62
7
  0
LAYER
  2
Polysilicon
 70
0
 62
7
  0
LAYER
  2
Aluminum
 70
0
 62
7
  0
LAYER
  2
Tungsten
 70
0
 62
7
  0
ENDTAB
  0
ENDSEC
  0
SECTION
  2
ENTITIES
  0
LWPOLYLINE
  8
Polysilicon
420
16736352
 90
4
 70
1
 10
0.012000
 20
0.005500
 10
0.008000
 20
0.005500
 10
0.008000
 20
0.004500
 10
0.012000
 20
0.004500
  0
LWPOLYLINE
  8
Tungsten
420
8421631
 90
4
 70
1
 10
0.008350
 20
0.005150
 10
0.008050
 20
0.005150
 10
0.008050
 20
0.004850
 10
0.008350
 20
0.004850
  0
LWPOLYLINE
  8
Tungsten
420
8421631
 90
4
 70
1
 10
0.011950
 20
0.005150
 10
0.011650
 20
0.005150
 10
0.011650
 20
0.004850
 10
0.011950
 20
0.004850
  0
LWPOLYLINE
  8
Tungsten
420
8421631
 90
4
 70
1
 10
0.008350
 20
0.005150
 10
0.008050
 20
0.005150
 10
0.008050
 20
0.004850
 10
0.008350
 20
0.004850
  0
LWPOLYLINE
  8
Tungsten
420
8421631
 90
4
 70
1
 10
0.011950
 20
0.005150
 10
0.011650
 20
0.005150
 10
0.011650
 20
0.004850
 10
0.011950
 20
0.004850
  0
LWPOLYLINE
  8
Tungsten
420
8421631
 90
4
 70
1
 10
0.008350
 20
0.005150
 10
0.008050
 20
0.005150
 10
0.008050
 20
0.004850
 10
0.008350
 20
0.004850
  0
LWPOLYLINE
  8
Tungsten
420
8421631
 90
4
 70
1
 10
0.011950
 20
0.005150
 10
0.011650
 20
0.005150
 10
0.011650
 20
0.004850
 10
0.011950
 20
0.004850
  0
LWPOLYLINE
  8
Aluminum
420
12632256
 90
12
 70
1
 10
0.005000
 20
0.004850
 10
0.008000
 20
0.004850
 10
0.008000
 20
0.004800
 10
0.008400
 20
0.004800
 10
0.008400
 20
0.005200
 10
0.008000
 20
0.005200
 10
0.008000
 20
0.005150
 10
0.005000
 20
0.005150
 10
0.005000
 20
0.005500
 10
0.004000
 20
0.005500
 10
0.004000
 20
0.004500
 10
0.005000
 20
0.004500
  0
LWPOLYLINE
  8
Aluminum
420
12632256
 90
12
 70
1
 10
0.016000
 20
0.005500
 10
0.015000
 20
0.005500
 10
0.015000
 20
0.005150
 10
0.012000
 20
0.005150
 10
0.012000
 20
0.005200
 10
0.011600
 20
0.005200
 10
0.011600
 20
0.004800
 10
0.012000
 20
0.004800
 10
0.012000
 20
0.004850
 10
0.015000
 20
0.004850
 10
0.015000
 20
0.004500
 10
0.016000
 20
0.004500
  0
LWPOLYLINE
  8
Silicon_Dioxide
420
14739711
 90
4
 70
1
 10
0.000000
 20
0.000000
 10
0.020000
 20
0.000000
 10
0.020000
 20
0.010000
 10
0.000000
 20
0.010000
  0
ENDSEC
  0
EOF
