  0
SECTION
  2
HEADER
  9
$ACADVER
  1
AC1018
  0
ENDSEC
  0
SECTION
  2
TABLES
  0
TABLE
  2
LAYER
  0
LAYER
  2
Polysilicon
 70
0
 62
7
  0
LAYER
  2
Aluminum
 70
0
 62
7
  0
LAYER
  2
Titanium_Silicide
 70
0
 62
7
  0
ENDTAB
  0
ENDSEC
  0
SECTION
  2
ENTITIES
  0
LWPOLYLINE
  8
Polysilicon
420
16736352
 90
6
 70
1
 10
0.002000
 20
0.001000
 10
0.002500
 20
0.001000
 10
0.002500
 20
0.002000
 10
0.002000
 20
0.002000
 10
0.001500
 20
0.002000
 10
0.001500
 20
0.001000
  0
LWPOLYLINE
  8
Titanium_Silicide
420
4210752
 90
4
 70
1
 10
0.001800
 20
0.001600
 10
0.001600
 20
0.001600
 10
0.001600
 20
0.001400
 10
0.001800
 20
0.001400
  0
LWPOLYLINE
  8
Titanium_Silicide
420
4210752
 90
4
 70
1
 10
0.002400
 20
0.001600
 10
0.002200
 20
0.001600
 10
0.002200
 20
0.001400
 10
0.002400
 20
0.001400
  0
LWPOLYLINE
  8
Aluminum
420
12632256
 90
12
 70
1
 10
0.000800
 20
0.001350
 10
0.001500
 20
0.001350
 10
0.001500
 20
0.001300
 10
0.001900
 20
0.001300
 10
0.001900
 20
0.001700
 10
0.001500
 20
0.001700
 10
0.001500
 20
0.001650
 10
0.000800
 20
0.001650
 10
0.000800
 20
0.001800
 10
0.000200
 20
0.001800
 10
0.000200
 20
0.001200
 10
0.000800
 20
0.001200
  0
LWPOLYLINE
  8
Aluminum
420
12632256
 90
12
 70
1
 10
0.003800
 20
0.001800
 10
0.003200
 20
0.001800
 10
0.003200
 20
0.001650
 10
0.002500
 20
0.001650
 10
0.002500
 20
0.001700
 10
0.002100
 20
0.001700
 10
0.002100
 20
0.001300
 10
0.002500
 20
0.001300
 10
0.002500
 20
0.001350
 10
0.003200
 20
0.001350
 10
0.003200
 20
0.001200
 10
0.003800
 20
0.001200
  0
ENDSEC
  0
EOF
