  0
SECTION
  2
HEADER
  9
$ACADVER
  1
AC1018
  0
ENDSEC
  0
SECTION
  2
TABLES
  0
TABLE
  2
LAYER
  0
LAYER
  2
DRILL
 70
0
 62
0
  0
LAYER
  2
TOP_COMPONENTS
 70
0
 62
7
  0
LAYER
  2
BOTTOM_COMPONENTS
 70
0
 62
7
  0
LAYER
  2
PCB_LAYERS
 70
0
 62
7
  0
ENDTAB
  0
ENDSEC
  0
SECTION
  2
ENTITIES
  0
LWPOLYLINE
  8
PCB_LAYERS
420
8454016
 90
4
 70
1
 10
0.010200
 20
0.007700
 10
0.009800
 20
0.007700
 10
0.009800
 20
0.007300
 10
0.010200
 20
0.007300
  0
LWPOLYLINE
  8
PCB_LAYERS
420
8421631
 90
4
 70
1
 10
0.010085
 20
0.007585
 10
0.009915
 20
0.007585
 10
0.009915
 20
0.007415
 10
0.010085
 20
0.007415
  0
LWPOLYLINE
  8
PCB_LAYERS
420
16736352
 90
4
 70
1
 10
0.012000
 20
0.005705
 10
0.008000
 20
0.005705
 10
0.008000
 20
0.004295
 10
0.012000
 20
0.004295
  0
LWPOLYLINE
  8
PCB_LAYERS
420
8421631
 90
4
 70
1
 10
0.010085
 20
0.007585
 10
0.009915
 20
0.007585
 10
0.009915
 20
0.007415
 10
0.010085
 20
0.007415
  0
LWPOLYLINE
  8
PCB_LAYERS
420
8421631
 90
4
 70
1
 10
0.008285
 20
0.005485
 10
0.008115
 20
0.005485
 10
0.008115
 20
0.005315
 10
0.008285
 20
0.005315
  0
LWPOLYLINE
  8
PCB_LAYERS
420
8421631
 90
4
 70
1
 10
0.008285
 20
0.005085
 10
0.008115
 20
0.005085
 10
0.008115
 20
0.004915
 10
0.008285
 20
0.004915
  0
LWPOLYLINE
  8
PCB_LAYERS
420
8421631
 90
4
 70
1
 10
0.008285
 20
0.004685
 10
0.008115
 20
0.004685
 10
0.008115
 20
0.004515
 10
0.008285
 20
0.004515
  0
LWPOLYLINE
  8
PCB_LAYERS
420
8421631
 90
4
 70
1
 10
0.011885
 20
0.005485
 10
0.011715
 20
0.005485
 10
0.011715
 20
0.005315
 10
0.011885
 20
0.005315
  0
LWPOLYLINE
  8
PCB_LAYERS
420
8421631
 90
4
 70
1
 10
0.011885
 20
0.005085
 10
0.011715
 20
0.005085
 10
0.011715
 20
0.004915
 10
0.011885
 20
0.004915
  0
LWPOLYLINE
  8
PCB_LAYERS
420
8421631
 90
4
 70
1
 10
0.011885
 20
0.004685
 10
0.011715
 20
0.004685
 10
0.011715
 20
0.004515
 10
0.011885
 20
0.004515
  0
LWPOLYLINE
  8
PCB_LAYERS
420
8421631
 90
4
 70
1
 10
0.008285
 20
0.005485
 10
0.008115
 20
0.005485
 10
0.008115
 20
0.005315
 10
0.008285
 20
0.005315
  0
LWPOLYLINE
  8
PCB_LAYERS
420
8421631
 90
4
 70
1
 10
0.008285
 20
0.005085
 10
0.008115
 20
0.005085
 10
0.008115
 20
0.004915
 10
0.008285
 20
0.004915
  0
LWPOLYLINE
  8
PCB_LAYERS
420
8421631
 90
4
 70
1
 10
0.008285
 20
0.004685
 10
0.008115
 20
0.004685
 10
0.008115
 20
0.004515
 10
0.008285
 20
0.004515
  0
LWPOLYLINE
  8
PCB_LAYERS
420
8421631
 90
4
 70
1
 10
0.011885
 20
0.005485
 10
0.011715
 20
0.005485
 10
0.011715
 20
0.005315
 10
0.011885
 20
0.005315
  0
LWPOLYLINE
  8
PCB_LAYERS
420
8421631
 90
4
 70
1
 10
0.011885
 20
0.005085
 10
0.011715
 20
0.005085
 10
0.011715
 20
0.004915
 10
0.011885
 20
0.004915
  0
LWPOLYLINE
  8
PCB_LAYERS
420
8421631
 90
4
 70
1
 10
0.011885
 20
0.004685
 10
0.011715
 20
0.004685
 10
0.011715
 20
0.004515
 10
0.011885
 20
0.004515
  0
LWPOLYLINE
  8
PCB_LAYERS
420
8421631
 90
4
 70
1
 10
0.010085
 20
0.007585
 10
0.009915
 20
0.007585
 10
0.009915
 20
0.007415
 10
0.010085
 20
0.007415
  0
LWPOLYLINE
  8
PCB_LAYERS
420
8421631
 90
4
 70
1
 10
0.008285
 20
0.005485
 10
0.008115
 20
0.005485
 10
0.008115
 20
0.005315
 10
0.008285
 20
0.005315
  0
LWPOLYLINE
  8
PCB_LAYERS
420
8421631
 90
4
 70
1
 10
0.008285
 20
0.005085
 10
0.008115
 20
0.005085
 10
0.008115
 20
0.004915
 10
0.008285
 20
0.004915
  0
LWPOLYLINE
  8
PCB_LAYERS
420
8421631
 90
4
 70
1
 10
0.008285
 20
0.004685
 10
0.008115
 20
0.004685
 10
0.008115
 20
0.004515
 10
0.008285
 20
0.004515
  0
LWPOLYLINE
  8
PCB_LAYERS
420
8421631
 90
4
 70
1
 10
0.011885
 20
0.005485
 10
0.011715
 20
0.005485
 10
0.011715
 20
0.005315
 10
0.011885
 20
0.005315
  0
LWPOLYLINE
  8
PCB_LAYERS
420
8421631
 90
4
 70
1
 10
0.011885
 20
0.005085
 10
0.011715
 20
0.005085
 10
0.011715
 20
0.004915
 10
0.011885
 20
0.004915
  0
LWPOLYLINE
  8
PCB_LAYERS
420
8421631
 90
4
 70
1
 10
0.011885
 20
0.004685
 10
0.011715
 20
0.004685
 10
0.011715
 20
0.004515
 10
0.011885
 20
0.004515
  0
LWPOLYLINE
  8
PCB_LAYERS
420
8421631
 90
4
 70
1
 10
0.010085
 20
0.007585
 10
0.009915
 20
0.007585
 10
0.009915
 20
0.007415
 10
0.010085
 20
0.007415
  0
LWPOLYLINE
  8
PCB_LAYERS
420
4210752
 90
4
 70
1
 10
0.008400
 20
0.005705
 10
0.008000
 20
0.005705
 10
0.008000
 20
0.004295
 10
0.008400
 20
0.004295
  0
LWPOLYLINE
  8
PCB_LAYERS
420
4210752
 90
4
 70
1
 10
0.012000
 20
0.005705
 10
0.011600
 20
0.005705
 10
0.011600
 20
0.004295
 10
0.012000
 20
0.004295
  0
LWPOLYLINE
  8
PCB_LAYERS
420
4210752
 90
4
 70
1
 10
0.010200
 20
0.007700
 10
0.009800
 20
0.007700
 10
0.009800
 20
0.007300
 10
0.010200
 20
0.007300
  0
LWPOLYLINE
  8
PCB_LAYERS
420
8421631
 90
4
 70
1
 10
0.008285
 20
0.005485
 10
0.008115
 20
0.005485
 10
0.008115
 20
0.005315
 10
0.008285
 20
0.005315
  0
LWPOLYLINE
  8
PCB_LAYERS
420
8421631
 90
4
 70
1
 10
0.008285
 20
0.005085
 10
0.008115
 20
0.005085
 10
0.008115
 20
0.004915
 10
0.008285
 20
0.004915
  0
LWPOLYLINE
  8
PCB_LAYERS
420
8421631
 90
4
 70
1
 10
0.008285
 20
0.004685
 10
0.008115
 20
0.004685
 10
0.008115
 20
0.004515
 10
0.008285
 20
0.004515
  0
LWPOLYLINE
  8
PCB_LAYERS
420
8421631
 90
4
 70
1
 10
0.011885
 20
0.005485
 10
0.011715
 20
0.005485
 10
0.011715
 20
0.005315
 10
0.011885
 20
0.005315
  0
LWPOLYLINE
  8
PCB_LAYERS
420
8421631
 90
4
 70
1
 10
0.011885
 20
0.005085
 10
0.011715
 20
0.005085
 10
0.011715
 20
0.004915
 10
0.011885
 20
0.004915
  0
LWPOLYLINE
  8
PCB_LAYERS
420
8421631
 90
4
 70
1
 10
0.011885
 20
0.004685
 10
0.011715
 20
0.004685
 10
0.011715
 20
0.004515
 10
0.011885
 20
0.004515
  0
LWPOLYLINE
  8
PCB_LAYERS
420
8421631
 90
4
 70
1
 10
0.010085
 20
0.007585
 10
0.009915
 20
0.007585
 10
0.009915
 20
0.007415
 10
0.010085
 20
0.007415
  0
LWPOLYLINE
  8
PCB_LAYERS
420
8421631
 90
4
 70
1
 10
0.008285
 20
0.005485
 10
0.008115
 20
0.005485
 10
0.008115
 20
0.005315
 10
0.008285
 20
0.005315
  0
LWPOLYLINE
  8
PCB_LAYERS
420
8421631
 90
4
 70
1
 10
0.008285
 20
0.005085
 10
0.008115
 20
0.005085
 10
0.008115
 20
0.004915
 10
0.008285
 20
0.004915
  0
LWPOLYLINE
  8
PCB_LAYERS
420
8421631
 90
4
 70
1
 10
0.008285
 20
0.004685
 10
0.008115
 20
0.004685
 10
0.008115
 20
0.004515
 10
0.008285
 20
0.004515
  0
LWPOLYLINE
  8
PCB_LAYERS
420
8421631
 90
4
 70
1
 10
0.011885
 20
0.005485
 10
0.011715
 20
0.005485
 10
0.011715
 20
0.005315
 10
0.011885
 20
0.005315
  0
LWPOLYLINE
  8
PCB_LAYERS
420
8421631
 90
4
 70
1
 10
0.011885
 20
0.005085
 10
0.011715
 20
0.005085
 10
0.011715
 20
0.004915
 10
0.011885
 20
0.004915
  0
LWPOLYLINE
  8
PCB_LAYERS
420
8421631
 90
4
 70
1
 10
0.011885
 20
0.004685
 10
0.011715
 20
0.004685
 10
0.011715
 20
0.004515
 10
0.011885
 20
0.004515
  0
LWPOLYLINE
  8
PCB_LAYERS
420
8421631
 90
4
 70
1
 10
0.010085
 20
0.007585
 10
0.009915
 20
0.007585
 10
0.009915
 20
0.007415
 10
0.010085
 20
0.007415
  0
LWPOLYLINE
  8
PCB_LAYERS
420
8421631
 90
4
 70
1
 10
0.008285
 20
0.005485
 10
0.008115
 20
0.005485
 10
0.008115
 20
0.005315
 10
0.008285
 20
0.005315
  0
LWPOLYLINE
  8
PCB_LAYERS
420
8421631
 90
4
 70
1
 10
0.008285
 20
0.005085
 10
0.008115
 20
0.005085
 10
0.008115
 20
0.004915
 10
0.008285
 20
0.004915
  0
LWPOLYLINE
  8
PCB_LAYERS
420
8421631
 90
4
 70
1
 10
0.008285
 20
0.004685
 10
0.008115
 20
0.004685
 10
0.008115
 20
0.004515
 10
0.008285
 20
0.004515
  0
LWPOLYLINE
  8
PCB_LAYERS
420
8421631
 90
4
 70
1
 10
0.011885
 20
0.005485
 10
0.011715
 20
0.005485
 10
0.011715
 20
0.005315
 10
0.011885
 20
0.005315
  0
LWPOLYLINE
  8
PCB_LAYERS
420
8421631
 90
4
 70
1
 10
0.011885
 20
0.005085
 10
0.011715
 20
0.005085
 10
0.011715
 20
0.004915
 10
0.011885
 20
0.004915
  0
LWPOLYLINE
  8
PCB_LAYERS
420
8421631
 90
4
 70
1
 10
0.011885
 20
0.004685
 10
0.011715
 20
0.004685
 10
0.011715
 20
0.004515
 10
0.011885
 20
0.004515
  0
LWPOLYLINE
  8
PCB_LAYERS
420
8421631
 90
4
 70
1
 10
0.010085
 20
0.007585
 10
0.009915
 20
0.007585
 10
0.009915
 20
0.007415
 10
0.010085
 20
0.007415
  0
LWPOLYLINE
  8
PCB_LAYERS
420
12632256
 90
12
 70
1
 10
0.008400
 20
0.005705
 10
0.008000
 20
0.005705
 10
0.008000
 20
0.005150
 10
0.005300
 20
0.005150
 10
0.005300
 20
0.005500
 10
0.004300
 20
0.005500
 10
0.004300
 20
0.004500
 10
0.005300
 20
0.004500
 10
0.005300
 20
0.004850
 10
0.008000
 20
0.004850
 10
0.008000
 20
0.004295
 10
0.008400
 20
0.004295
  0
LWPOLYLINE
  8
PCB_LAYERS
420
12632256
 90
12
 70
1
 10
0.012000
 20
0.004850
 10
0.014700
 20
0.004850
 10
0.014700
 20
0.004500
 10
0.015700
 20
0.004500
 10
0.015700
 20
0.005500
 10
0.014700
 20
0.005500
 10
0.014700
 20
0.005150
 10
0.012000
 20
0.005150
 10
0.012000
 20
0.005705
 10
0.011600
 20
0.005705
 10
0.011600
 20
0.004295
 10
0.012000
 20
0.004295
  0
LWPOLYLINE
  8
PCB_LAYERS
420
12632256
 90
4
 70
1
 10
0.010200
 20
0.007700
 10
0.009800
 20
0.007700
 10
0.009800
 20
0.007300
 10
0.010200
 20
0.007300
  0
ENDSEC
  0
EOF
