  0
SECTION
  2
HEADER
  9
$ACADVER
  1
AC1018
  0
ENDSEC
  0
SECTION
  2
TABLES
  0
TABLE
  2
LAYER
  0
LAYER
  2
tap
 70
0
 62
7
  0
LAYER
  2
psdm
 70
0
 62
7
  0
LAYER
  2
diff
 70
0
 62
7
  0
LAYER
  2
polyres
 70
0
 62
7
  0
LAYER
  2
rpm
 70
0
 62
7
  0
LAYER
  2
npc
 70
0
 62
7
  0
LAYER
  2
li1
 70
0
 62
7
  0
LAYER
  2
metal1
 70
0
 62
7
  0
LAYER
  2
pad
 70
0
 62
7
  0
LAYER
  2
licon
 70
0
 62
7
  0
LAYER
  2
mcon
 70
0
 62
7
  0
LAYER
  2
Resistor_Poly_Mask
 70
0
 62
7
  0
LAYER
  2
P_Plus_Implant_Mask
 70
0
 62
7
  0
LAYER
  2
Npc_Mask
 70
0
 62
7
  0
LAYER
  2
Tap_Mask
 70
0
 62
7
  0
LAYER
  2
Pad_Mask
 70
0
 62
7
  0
ENDTAB
  0
ENDSEC
  0
SECTION
  2
ENTITIES
  0
LWPOLYLINE
  8
diff
420
8454016
 90
4
 70
1
 10
0.080200
 20
0.057700
 10
0.079800
 20
0.057700
 10
0.079800
 20
0.057300
 10
0.080200
 20
0.057300
  0
LWPOLYLINE
  8
licon
420
8421631
 90
4
 70
1
 10
0.080085
 20
0.057585
 10
0.079915
 20
0.057585
 10
0.079915
 20
0.057415
 10
0.080085
 20
0.057415
  0
LWPOLYLINE
  8
polyres
420
16736352
 90
4
 70
1
 10
0.082000
 20
0.055705
 10
0.078000
 20
0.055705
 10
0.078000
 20
0.054295
 10
0.082000
 20
0.054295
  0
LWPOLYLINE
  8
licon
420
8421631
 90
4
 70
1
 10
0.078285
 20
0.055285
 10
0.078115
 20
0.055285
 10
0.078115
 20
0.055115
 10
0.078285
 20
0.055115
  0
LWPOLYLINE
  8
licon
420
8421631
 90
4
 70
1
 10
0.081885
 20
0.055285
 10
0.081715
 20
0.055285
 10
0.081715
 20
0.055115
 10
0.081885
 20
0.055115
  0
LWPOLYLINE
  8
licon
420
8421631
 90
4
 70
1
 10
0.078285
 20
0.054885
 10
0.078115
 20
0.054885
 10
0.078115
 20
0.054715
 10
0.078285
 20
0.054715
  0
LWPOLYLINE
  8
licon
420
8421631
 90
4
 70
1
 10
0.081885
 20
0.054885
 10
0.081715
 20
0.054885
 10
0.081715
 20
0.054715
 10
0.081885
 20
0.054715
  0
LWPOLYLINE
  8
li1
420
4210752
 90
4
 70
1
 10
0.078480
 20
0.055705
 10
0.078000
 20
0.055705
 10
0.078000
 20
0.054295
 10
0.078480
 20
0.054295
  0
LWPOLYLINE
  8
li1
420
4210752
 90
4
 70
1
 10
0.082000
 20
0.055705
 10
0.081520
 20
0.055705
 10
0.081520
 20
0.054295
 10
0.082000
 20
0.054295
  0
LWPOLYLINE
  8
li1
420
4210752
 90
4
 70
1
 10
0.080200
 20
0.057700
 10
0.079800
 20
0.057700
 10
0.079800
 20
0.057300
 10
0.080200
 20
0.057300
  0
LWPOLYLINE
  8
mcon
420
8421631
 90
4
 70
1
 10
0.078285
 20
0.055285
 10
0.078115
 20
0.055285
 10
0.078115
 20
0.055115
 10
0.078285
 20
0.055115
  0
LWPOLYLINE
  8
mcon
420
8421631
 90
4
 70
1
 10
0.078285
 20
0.054885
 10
0.078115
 20
0.054885
 10
0.078115
 20
0.054715
 10
0.078285
 20
0.054715
  0
LWPOLYLINE
  8
mcon
420
8421631
 90
4
 70
1
 10
0.081885
 20
0.055285
 10
0.081715
 20
0.055285
 10
0.081715
 20
0.055115
 10
0.081885
 20
0.055115
  0
LWPOLYLINE
  8
mcon
420
8421631
 90
4
 70
1
 10
0.081885
 20
0.054885
 10
0.081715
 20
0.054885
 10
0.081715
 20
0.054715
 10
0.081885
 20
0.054715
  0
LWPOLYLINE
  8
mcon
420
8421631
 90
4
 70
1
 10
0.080085
 20
0.057585
 10
0.079915
 20
0.057585
 10
0.079915
 20
0.057415
 10
0.080085
 20
0.057415
  0
LWPOLYLINE
  8
metal1
420
12632256
 90
12
 70
1
 10
0.068000
 20
0.054850
 10
0.078000
 20
0.054850
 10
0.078000
 20
0.054295
 10
0.078480
 20
0.054295
 10
0.078480
 20
0.055705
 10
0.078000
 20
0.055705
 10
0.078000
 20
0.055150
 10
0.068000
 20
0.055150
 10
0.068000
 20
0.075000
 10
0.028000
 20
0.075000
 10
0.028000
 20
0.035000
 10
0.068000
 20
0.035000
  0
LWPOLYLINE
  8
metal1
420
12632256
 90
12
 70
1
 10
0.132000
 20
0.075000
 10
0.092000
 20
0.075000
 10
0.092000
 20
0.055150
 10
0.082000
 20
0.055150
 10
0.082000
 20
0.055705
 10
0.081520
 20
0.055705
 10
0.081520
 20
0.054295
 10
0.082000
 20
0.054295
 10
0.082000
 20
0.054850
 10
0.092000
 20
0.054850
 10
0.092000
 20
0.035000
 10
0.132000
 20
0.035000
  0
LWPOLYLINE
  8
metal1
420
12632256
 90
12
 70
1
 10
0.080200
 20
0.057700
 10
0.080150
 20
0.057700
 10
0.080150
 20
0.085000
 10
0.100000
 20
0.085000
 10
0.100000
 20
0.125000
 10
0.060000
 20
0.125000
 10
0.060000
 20
0.085000
 10
0.079850
 20
0.085000
 10
0.079850
 20
0.057700
 10
0.079800
 20
0.057700
 10
0.079800
 20
0.057300
 10
0.080200
 20
0.057300
  0
LWPOLYLINE
  8
rpm
420
16728128
 90
4
 70
1
 10
0.078480
 20
0.054085
 10
0.081520
 20
0.054085
 10
0.081520
 20
0.055915
 10
0.078480
 20
0.055915
  0
LWPOLYLINE
  8
psdm
420
16744703
 90
4
 70
1
 10
0.077870
 20
0.054165
 10
0.082130
 20
0.054165
 10
0.082130
 20
0.055835
 10
0.077870
 20
0.055835
  0
LWPOLYLINE
  8
npc
420
4259839
 90
4
 70
1
 10
0.077900
 20
0.054195
 10
0.078480
 20
0.054195
 10
0.078480
 20
0.055805
 10
0.077900
 20
0.055805
  0
LWPOLYLINE
  8
npc
420
4259839
 90
4
 70
1
 10
0.081520
 20
0.054195
 10
0.082100
 20
0.054195
 10
0.082100
 20
0.055805
 10
0.081520
 20
0.055805
  0
LWPOLYLINE
  8
tap
420
8454016
 90
4
 70
1
 10
0.079800
 20
0.057300
 10
0.080200
 20
0.057300
 10
0.080200
 20
0.057700
 10
0.079800
 20
0.057700
  0
LWPOLYLINE
  8
psdm
420
16744703
 90
4
 70
1
 10
0.079670
 20
0.057170
 10
0.080330
 20
0.057170
 10
0.080330
 20
0.057830
 10
0.079670
 20
0.057830
  0
LWPOLYLINE
  8
pad
420
16776960
 90
4
 70
1
 10
0.028000
 20
0.035000
 10
0.068000
 20
0.035000
 10
0.068000
 20
0.075000
 10
0.028000
 20
0.075000
  0
LWPOLYLINE
  8
pad
420
16776960
 90
4
 70
1
 10
0.092000
 20
0.035000
 10
0.132000
 20
0.035000
 10
0.132000
 20
0.075000
 10
0.092000
 20
0.075000
  0
LWPOLYLINE
  8
pad
420
16776960
 90
4
 70
1
 10
0.060000
 20
0.085000
 10
0.100000
 20
0.085000
 10
0.100000
 20
0.125000
 10
0.060000
 20
0.125000
  0
ENDSEC
  0
EOF
