  0
SECTION
  2
HEADER
  9
$ACADVER
  1
AC1018
  0
ENDSEC
  0
SECTION
  2
TABLES
  0
TABLE
  2
LAYER
  0
LAYER
  2
Tap_Mask
 70
0
 62
7
  0
LAYER
  2
P_Plus_Implant_Mask
 70
0
 62
7
  0
LAYER
  2
P_Plus_Diffusion
 70
0
 62
7
  0
LAYER
  2
Polysilicon
 70
0
 62
7
  0
LAYER
  2
Resistor_Poly_Mask
 70
0
 62
7
  0
LAYER
  2
Npc_Mask
 70
0
 62
7
  0
LAYER
  2
Silicon_Dioxide
 70
0
 62
7
  0
LAYER
  2
Titanium_Nitride
 70
0
 62
7
  0
LAYER
  2
Aluminum
 70
0
 62
7
  0
LAYER
  2
Pad_Mask
 70
0
 62
7
  0
LAYER
  2
Tungsten
 70
0
 62
7
  0
ENDTAB
  0
ENDSEC
  0
SECTION
  2
ENTITIES
  0
LWPOLYLINE
  8
P_Plus_Diffusion
420
8454016
 90
4
 70
1
 10
0.010200
 20
0.007700
 10
0.009800
 20
0.007700
 10
0.009800
 20
0.007300
 10
0.010200
 20
0.007300
  0
LWPOLYLINE
  8
Tungsten
420
8421631
 90
4
 70
1
 10
0.010085
 20
0.007585
 10
0.009915
 20
0.007585
 10
0.009915
 20
0.007415
 10
0.010085
 20
0.007415
  0
LWPOLYLINE
  8
Polysilicon
420
16736352
 90
4
 70
1
 10
0.012000
 20
0.005705
 10
0.008000
 20
0.005705
 10
0.008000
 20
0.004295
 10
0.012000
 20
0.004295
  0
LWPOLYLINE
  8
Tungsten
420
8421631
 90
4
 70
1
 10
0.008285
 20
0.005485
 10
0.008115
 20
0.005485
 10
0.008115
 20
0.005315
 10
0.008285
 20
0.005315
  0
LWPOLYLINE
  8
Tungsten
420
8421631
 90
4
 70
1
 10
0.011885
 20
0.005485
 10
0.011715
 20
0.005485
 10
0.011715
 20
0.005315
 10
0.011885
 20
0.005315
  0
LWPOLYLINE
  8
Tungsten
420
8421631
 90
4
 70
1
 10
0.008285
 20
0.005085
 10
0.008115
 20
0.005085
 10
0.008115
 20
0.004915
 10
0.008285
 20
0.004915
  0
LWPOLYLINE
  8
Tungsten
420
8421631
 90
4
 70
1
 10
0.011885
 20
0.005085
 10
0.011715
 20
0.005085
 10
0.011715
 20
0.004915
 10
0.011885
 20
0.004915
  0
LWPOLYLINE
  8
Tungsten
420
8421631
 90
4
 70
1
 10
0.008285
 20
0.004685
 10
0.008115
 20
0.004685
 10
0.008115
 20
0.004515
 10
0.008285
 20
0.004515
  0
LWPOLYLINE
  8
Tungsten
420
8421631
 90
4
 70
1
 10
0.011885
 20
0.004685
 10
0.011715
 20
0.004685
 10
0.011715
 20
0.004515
 10
0.011885
 20
0.004515
  0
LWPOLYLINE
  8
Titanium_Nitride
420
4210752
 90
4
 70
1
 10
0.008480
 20
0.005705
 10
0.008000
 20
0.005705
 10
0.008000
 20
0.004295
 10
0.008480
 20
0.004295
  0
LWPOLYLINE
  8
Titanium_Nitride
420
4210752
 90
4
 70
1
 10
0.012000
 20
0.005705
 10
0.011520
 20
0.005705
 10
0.011520
 20
0.004295
 10
0.012000
 20
0.004295
  0
LWPOLYLINE
  8
Titanium_Nitride
420
4210752
 90
4
 70
1
 10
0.010200
 20
0.007700
 10
0.009800
 20
0.007700
 10
0.009800
 20
0.007300
 10
0.010200
 20
0.007300
  0
LWPOLYLINE
  8
Aluminum
420
12632256
 90
10
 70
1
 10
0.008480
 20
0.005705
 10
0.008000
 20
0.005705
 10
0.008000
 20
0.005500
 10
0.006800
 20
0.005500
 10
0.006300
 20
0.005500
 10
0.006300
 20
0.004500
 10
0.007300
 20
0.004500
 10
0.008000
 20
0.004500
 10
0.008000
 20
0.004295
 10
0.008480
 20
0.004295
  0
LWPOLYLINE
  8
Aluminum
420
12632256
 90
10
 70
1
 10
0.012000
 20
0.004500
 10
0.013200
 20
0.004500
 10
0.013700
 20
0.004500
 10
0.013700
 20
0.005500
 10
0.012700
 20
0.005500
 10
0.012000
 20
0.005500
 10
0.012000
 20
0.005705
 10
0.011520
 20
0.005705
 10
0.011520
 20
0.004295
 10
0.012000
 20
0.004295
  0
LWPOLYLINE
  8
Aluminum
420
12632256
 90
10
 70
1
 10
0.010200
 20
0.007500
 10
0.010500
 20
0.007500
 10
0.010500
 20
0.008000
 10
0.010500
 20
0.009000
 10
0.009500
 20
0.009000
 10
0.009500
 20
0.008500
 10
0.009500
 20
0.007500
 10
0.009800
 20
0.007500
 10
0.009800
 20
0.007300
 10
0.010200
 20
0.007300
  0
LWPOLYLINE
  8
Silicon_Dioxide
420
14739711
 90
4
 70
1
 10
0.000000
 20
0.000000
 10
0.020000
 20
0.000000
 10
0.020000
 20
0.010000
 10
0.000000
 20
0.010000
  0
LWPOLYLINE
  8
Silicon_Dioxide
420
14739711
 90
4
 70
1
 10
0.000000
 20
0.000000
 10
0.020000
 20
0.000000
 10
0.020000
 20
0.010000
 10
0.000000
 20
0.010000
  0
LWPOLYLINE
  8
Resistor_Poly_Mask
420
16728128
 90
4
 70
1
 10
0.008480
 20
0.004115
 10
0.011520
 20
0.004115
 10
0.011520
 20
0.005885
 10
0.008480
 20
0.005885
  0
LWPOLYLINE
  8
P_Plus_Implant_Mask
420
16744703
 90
4
 70
1
 10
0.007870
 20
0.004165
 10
0.012130
 20
0.004165
 10
0.012130
 20
0.005835
 10
0.007870
 20
0.005835
  0
LWPOLYLINE
  8
Npc_Mask
420
4259839
 90
4
 70
1
 10
0.007910
 20
0.004205
 10
0.008480
 20
0.004205
 10
0.008480
 20
0.005795
 10
0.007910
 20
0.005795
  0
LWPOLYLINE
  8
Npc_Mask
420
4259839
 90
4
 70
1
 10
0.011520
 20
0.004205
 10
0.012090
 20
0.004205
 10
0.012090
 20
0.005795
 10
0.011520
 20
0.005795
  0
LWPOLYLINE
  8
Tap_Mask
420
8454016
 90
4
 70
1
 10
0.009800
 20
0.007300
 10
0.010200
 20
0.007300
 10
0.010200
 20
0.007700
 10
0.009800
 20
0.007700
  0
LWPOLYLINE
  8
P_Plus_Implant_Mask
420
16744703
 90
4
 70
1
 10
0.009670
 20
0.007170
 10
0.010330
 20
0.007170
 10
0.010330
 20
0.007830
 10
0.009670
 20
0.007830
  0
LWPOLYLINE
  8
Pad_Mask
420
14729320
 90
4
 70
1
 10
0.006500
 20
0.004700
 10
0.007100
 20
0.004700
 10
0.007100
 20
0.005300
 10
0.006500
 20
0.005300
  0
LWPOLYLINE
  8
Pad_Mask
420
14729320
 90
4
 70
1
 10
0.012900
 20
0.004700
 10
0.013500
 20
0.004700
 10
0.013500
 20
0.005300
 10
0.012900
 20
0.005300
  0
LWPOLYLINE
  8
Pad_Mask
420
14729320
 90
4
 70
1
 10
0.009700
 20
0.008200
 10
0.010300
 20
0.008200
 10
0.010300
 20
0.008800
 10
0.009700
 20
0.008800
  0
ENDSEC
  0
EOF
