  0
SECTION
  2
HEADER
  9
$ACADVER
  1
AC1018
  0
ENDSEC
  0
SECTION
  2
TABLES
  0
TABLE
  2
LAYER
  0
LAYER
  2
Polysilicon
 70
0
 62
7
  0
LAYER
  2
Silicon_N
 70
0
 62
7
  0
LAYER
  2
Silicon_P
 70
0
 62
7
  0
LAYER
  2
Aluminum
 70
0
 62
7
  0
ENDTAB
  0
ENDSEC
  0
SECTION
  2
ENTITIES
  0
LWPOLYLINE
  8
Aluminum
420
12632256
 90
4
 70
1
 10
0.000360
 20
0.002880
 10
0.000000
 20
0.002880
 10
0.000000
 20
0.002160
 10
0.000360
 20
0.002160
  0
LWPOLYLINE
  8
Aluminum
420
12632256
 90
4
 70
1
 10
0.002160
 20
0.002880
 10
0.001800
 20
0.002880
 10
0.001800
 20
0.002160
 10
0.002160
 20
0.002160
  0
LWPOLYLINE
  8
Aluminum
420
12632256
 90
4
 70
1
 10
0.002160
 20
0.005040
 10
0.000000
 20
0.005040
 10
0.000000
 20
0.004320
 10
0.002160
 20
0.004320
  0
LWPOLYLINE
  8
Aluminum
420
12632256
 90
4
 70
1
 10
0.002160
 20
0.000720
 10
0.000000
 20
0.000720
 10
0.000000
 20
0.000000
 10
0.002160
 20
0.000000
  0
LWPOLYLINE
  8
Polysilicon
420
7372944
 90
4
 70
1
 10
0.000990
 20
0.000720
 10
0.001170
 20
0.000720
 10
0.001170
 20
0.001800
 10
0.000990
 20
0.001800
  0
LWPOLYLINE
  8
Silicon_N
420
8425600
 90
4
 70
1
 10
0.000450
 20
0.000720
 10
0.000930
 20
0.000720
 10
0.000930
 20
0.001800
 10
0.000450
 20
0.001800
  0
LWPOLYLINE
  8
Silicon_N
420
8425600
 90
4
 70
1
 10
0.001230
 20
0.000720
 10
0.001710
 20
0.000720
 10
0.001710
 20
0.001800
 10
0.001230
 20
0.001800
  0
LWPOLYLINE
  8
Silicon_P
420
9478288
 90
4
 70
1
 10
0.000900
 20
0.001800
 10
0.001260
 20
0.001800
 10
0.001260
 20
0.001980
 10
0.000900
 20
0.001980
  0
LWPOLYLINE
  8
Polysilicon
420
7372944
 90
4
 70
1
 10
0.000990
 20
0.003060
 10
0.001170
 20
0.003060
 10
0.001170
 20
0.004140
 10
0.000990
 20
0.004140
  0
LWPOLYLINE
  8
Silicon_P
420
9478288
 90
4
 70
1
 10
0.000450
 20
0.003060
 10
0.000930
 20
0.003060
 10
0.000930
 20
0.004140
 10
0.000450
 20
0.004140
  0
LWPOLYLINE
  8
Silicon_P
420
9478288
 90
4
 70
1
 10
0.001230
 20
0.003060
 10
0.001710
 20
0.003060
 10
0.001710
 20
0.004140
 10
0.001230
 20
0.004140
  0
LWPOLYLINE
  8
Silicon_N
420
8425600
 90
4
 70
1
 10
0.000900
 20
0.004140
 10
0.001260
 20
0.004140
 10
0.001260
 20
0.004320
 10
0.000900
 20
0.004320
  0
ENDSEC
  0
EOF
