  0
SECTION
  2
HEADER
  9
$ACADVER
  1
AC1018
  0
ENDSEC
  0
SECTION
  2
TABLES
  0
TABLE
  2
LAYER
  0
LAYER
  2
Polysilicon
 70
0
 62
7
  0
LAYER
  2
Silicon_N
 70
0
 62
7
  0
LAYER
  2
Silicon_P
 70
0
 62
7
  0
LAYER
  2
Copper
 70
0
 62
7
  0
ENDTAB
  0
ENDSEC
  0
SECTION
  2
ENTITIES
  0
LWPOLYLINE
  8
Copper
420
12088115
 90
4
 70
1
 10
0.005090
 20
0.012000
 10
0.004910
 20
0.012000
 10
0.004910
 20
0.005000
 10
0.005090
 20
0.005000
  0
LWPOLYLINE
  8
Copper
420
12088115
 90
4
 70
1
 10
0.005440
 20
0.012100
 10
0.005260
 20
0.012100
 10
0.005260
 20
0.005000
 10
0.005440
 20
0.005000
  0
LWPOLYLINE
  8
Silicon_N
420
8425600
 90
4
 70
1
 10
0.005600
 20
0.005000
 10
0.005100
 20
0.005000
 10
0.005100
 20
0.004100
 10
0.005600
 20
0.004100
  0
LWPOLYLINE
  8
Polysilicon
420
7372944
 90
4
 70
1
 10
0.005100
 20
0.013000
 10
0.004900
 20
0.013000
 10
0.004900
 20
0.012000
 10
0.005100
 20
0.012000
  0
LWPOLYLINE
  8
Polysilicon
420
7372944
 90
4
 70
1
 10
0.005100
 20
0.005000
 10
0.004900
 20
0.005000
 10
0.004900
 20
0.004000
 10
0.005100
 20
0.004000
  0
LWPOLYLINE
  8
Silicon_P
420
9478288
 90
4
 70
1
 10
0.005600
 20
0.013000
 10
0.005100
 20
0.013000
 10
0.005100
 20
0.012100
 10
0.005600
 20
0.012100
  0
LWPOLYLINE
  8
Silicon_N
420
8425600
 90
4
 70
1
 10
0.004400
 20
0.004100
 10
0.004900
 20
0.004100
 10
0.004900
 20
0.005000
 10
0.004400
 20
0.005000
  0
LWPOLYLINE
  8
Silicon_P
420
9478288
 90
4
 70
1
 10
0.004800
 20
0.005000
 10
0.005200
 20
0.005000
 10
0.005200
 20
0.005200
 10
0.004800
 20
0.005200
  0
LWPOLYLINE
  8
Silicon_P
420
9478288
 90
4
 70
1
 10
0.004400
 20
0.012100
 10
0.004900
 20
0.012100
 10
0.004900
 20
0.013000
 10
0.004400
 20
0.013000
  0
LWPOLYLINE
  8
Silicon_N
420
8425600
 90
4
 70
1
 10
0.004800
 20
0.013000
 10
0.005200
 20
0.013000
 10
0.005200
 20
0.013200
 10
0.004800
 20
0.013200
  0
ENDSEC
  0
EOF
