  0
SECTION
  2
HEADER
  9
$ACADVER
  1
AC1018
  0
ENDSEC
  0
SECTION
  2
TABLES
  0
TABLE
  2
LAYER
  0
LAYER
  2
L_Silicon_P
 70
0
 62
7
420
16758465
440
33554432
  0
ENDTAB
  0
ENDSEC
  0
SECTION
  2
ENTITIES
  0
LWPOLYLINE
  8
L1_Silicon_P
420
16758465
 90
4
 70
1
 10
0.001000
 20
0.001000
 10
699.999000
 20
0.001000
 10
699.999000
 20
9.999000
 10
0.001000
 20
9.999000
  0
LWPOLYLINE
  8
L2_Components
420
12088115
 90
4
 70
1
 10
5.000000
 20
5.000000
 10
13.000000
 20
5.000000
 10
13.000000
 20
9.000000
 10
5.000000
 20
9.000000
  0
LWPOLYLINE
  8
L2_Components
420
12088115
 90
4
 70
1
 10
15.000000
 20
5.000000
 10
23.000000
 20
5.000000
 10
23.000000
 20
9.000000
 10
15.000000
 20
9.000000
  0
LWPOLYLINE
  8
L2_Components
420
12088115
 90
4
 70
1
 10
25.000000
 20
5.000000
 10
33.000000
 20
5.000000
 10
33.000000
 20
9.000000
 10
25.000000
 20
9.000000
  0
LWPOLYLINE
  8
L2_Components
420
12088115
 90
4
 70
1
 10
35.000000
 20
5.000000
 10
43.000000
 20
5.000000
 10
43.000000
 20
9.000000
 10
35.000000
 20
9.000000
  0
LWPOLYLINE
  8
L2_Components
420
12088115
 90
4
 70
1
 10
45.000000
 20
5.000000
 10
53.000000
 20
5.000000
 10
53.000000
 20
9.000000
 10
45.000000
 20
9.000000
  0
LWPOLYLINE
  8
L2_Components
420
12088115
 90
4
 70
1
 10
55.000000
 20
5.000000
 10
63.000000
 20
5.000000
 10
63.000000
 20
9.000000
 10
55.000000
 20
9.000000
  0
LWPOLYLINE
  8
L2_Components
420
12088115
 90
4
 70
1
 10
65.000000
 20
5.000000
 10
73.000000
 20
5.000000
 10
73.000000
 20
9.000000
 10
65.000000
 20
9.000000
  0
LWPOLYLINE
  8
L2_Components
420
12088115
 90
4
 70
1
 10
75.000000
 20
5.000000
 10
83.000000
 20
5.000000
 10
83.000000
 20
9.000000
 10
75.000000
 20
9.000000
  0
LWPOLYLINE
  8
L2_Components
420
12088115
 90
4
 70
1
 10
85.000000
 20
5.000000
 10
93.000000
 20
5.000000
 10
93.000000
 20
9.000000
 10
85.000000
 20
9.000000
  0
LWPOLYLINE
  8
L2_Components
420
12088115
 90
4
 70
1
 10
95.000000
 20
5.000000
 10
103.000000
 20
5.000000
 10
103.000000
 20
9.000000
 10
95.000000
 20
9.000000
  0
LWPOLYLINE
  8
L2_Components
420
12088115
 90
4
 70
1
 10
105.000000
 20
5.000000
 10
113.000000
 20
5.000000
 10
113.000000
 20
9.000000
 10
105.000000
 20
9.000000
  0
LWPOLYLINE
  8
L2_Components
420
12088115
 90
4
 70
1
 10
115.000000
 20
5.000000
 10
123.000000
 20
5.000000
 10
123.000000
 20
9.000000
 10
115.000000
 20
9.000000
  0
LWPOLYLINE
  8
L2_Components
420
12088115
 90
4
 70
1
 10
125.000000
 20
5.000000
 10
133.000000
 20
5.000000
 10
133.000000
 20
9.000000
 10
125.000000
 20
9.000000
  0
LWPOLYLINE
  8
L2_Components
420
12088115
 90
4
 70
1
 10
135.000000
 20
5.000000
 10
143.000000
 20
5.000000
 10
143.000000
 20
9.000000
 10
135.000000
 20
9.000000
  0
LWPOLYLINE
  8
L2_Components
420
12088115
 90
4
 70
1
 10
145.000000
 20
5.000000
 10
153.000000
 20
5.000000
 10
153.000000
 20
9.000000
 10
145.000000
 20
9.000000
  0
LWPOLYLINE
  8
L2_Components
420
12088115
 90
4
 70
1
 10
155.000000
 20
5.000000
 10
163.000000
 20
5.000000
 10
163.000000
 20
9.000000
 10
155.000000
 20
9.000000
  0
LWPOLYLINE
  8
L2_Components
420
12088115
 90
4
 70
1
 10
165.000000
 20
5.000000
 10
173.000000
 20
5.000000
 10
173.000000
 20
9.000000
 10
165.000000
 20
9.000000
  0
LWPOLYLINE
  8
L2_Components
420
12088115
 90
4
 70
1
 10
175.000000
 20
5.000000
 10
183.000000
 20
5.000000
 10
183.000000
 20
9.000000
 10
175.000000
 20
9.000000
  0
LWPOLYLINE
  8
L2_Components
420
12088115
 90
4
 70
1
 10
185.000000
 20
5.000000
 10
193.000000
 20
5.000000
 10
193.000000
 20
9.000000
 10
185.000000
 20
9.000000
  0
LWPOLYLINE
  8
L2_Components
420
12088115
 90
4
 70
1
 10
195.000000
 20
5.000000
 10
203.000000
 20
5.000000
 10
203.000000
 20
9.000000
 10
195.000000
 20
9.000000
  0
LWPOLYLINE
  8
L2_Components
420
12088115
 90
4
 70
1
 10
205.000000
 20
5.000000
 10
213.000000
 20
5.000000
 10
213.000000
 20
9.000000
 10
205.000000
 20
9.000000
  0
LWPOLYLINE
  8
L2_Components
420
12088115
 90
4
 70
1
 10
215.000000
 20
5.000000
 10
223.000000
 20
5.000000
 10
223.000000
 20
9.000000
 10
215.000000
 20
9.000000
  0
LWPOLYLINE
  8
L2_Components
420
12088115
 90
4
 70
1
 10
225.000000
 20
5.000000
 10
233.000000
 20
5.000000
 10
233.000000
 20
9.000000
 10
225.000000
 20
9.000000
  0
LWPOLYLINE
  8
L2_Components
420
12088115
 90
4
 70
1
 10
235.000000
 20
5.000000
 10
243.000000
 20
5.000000
 10
243.000000
 20
9.000000
 10
235.000000
 20
9.000000
  0
LWPOLYLINE
  8
L2_Components
420
12088115
 90
4
 70
1
 10
245.000000
 20
5.000000
 10
253.000000
 20
5.000000
 10
253.000000
 20
9.000000
 10
245.000000
 20
9.000000
  0
LWPOLYLINE
  8
L2_Components
420
12088115
 90
4
 70
1
 10
255.000000
 20
5.000000
 10
263.000000
 20
5.000000
 10
263.000000
 20
9.000000
 10
255.000000
 20
9.000000
  0
LWPOLYLINE
  8
L2_Components
420
12088115
 90
4
 70
1
 10
265.000000
 20
5.000000
 10
273.000000
 20
5.000000
 10
273.000000
 20
9.000000
 10
265.000000
 20
9.000000
  0
LWPOLYLINE
  8
L2_Components
420
12088115
 90
4
 70
1
 10
275.000000
 20
5.000000
 10
283.000000
 20
5.000000
 10
283.000000
 20
9.000000
 10
275.000000
 20
9.000000
  0
LWPOLYLINE
  8
L2_Components
420
12088115
 90
4
 70
1
 10
285.000000
 20
5.000000
 10
293.000000
 20
5.000000
 10
293.000000
 20
9.000000
 10
285.000000
 20
9.000000
  0
LWPOLYLINE
  8
L2_Components
420
12088115
 90
4
 70
1
 10
295.000000
 20
5.000000
 10
303.000000
 20
5.000000
 10
303.000000
 20
9.000000
 10
295.000000
 20
9.000000
  0
LWPOLYLINE
  8
L2_Components
420
12088115
 90
4
 70
1
 10
305.000000
 20
5.000000
 10
313.000000
 20
5.000000
 10
313.000000
 20
9.000000
 10
305.000000
 20
9.000000
  0
LWPOLYLINE
  8
L2_Components
420
12088115
 90
4
 70
1
 10
315.000000
 20
5.000000
 10
323.000000
 20
5.000000
 10
323.000000
 20
9.000000
 10
315.000000
 20
9.000000
  0
LWPOLYLINE
  8
L2_Components
420
12088115
 90
4
 70
1
 10
325.000000
 20
5.000000
 10
333.000000
 20
5.000000
 10
333.000000
 20
9.000000
 10
325.000000
 20
9.000000
  0
LWPOLYLINE
  8
L2_Components
420
12088115
 90
4
 70
1
 10
335.000000
 20
5.000000
 10
343.000000
 20
5.000000
 10
343.000000
 20
9.000000
 10
335.000000
 20
9.000000
  0
LWPOLYLINE
  8
L2_Components
420
12088115
 90
4
 70
1
 10
345.000000
 20
5.000000
 10
353.000000
 20
5.000000
 10
353.000000
 20
9.000000
 10
345.000000
 20
9.000000
  0
LWPOLYLINE
  8
L2_Components
420
12088115
 90
4
 70
1
 10
355.000000
 20
5.000000
 10
363.000000
 20
5.000000
 10
363.000000
 20
9.000000
 10
355.000000
 20
9.000000
  0
LWPOLYLINE
  8
L2_Components
420
12088115
 90
4
 70
1
 10
365.000000
 20
5.000000
 10
373.000000
 20
5.000000
 10
373.000000
 20
9.000000
 10
365.000000
 20
9.000000
  0
LWPOLYLINE
  8
L2_Components
420
12088115
 90
4
 70
1
 10
375.000000
 20
5.000000
 10
383.000000
 20
5.000000
 10
383.000000
 20
9.000000
 10
375.000000
 20
9.000000
  0
LWPOLYLINE
  8
L2_Components
420
12088115
 90
4
 70
1
 10
385.000000
 20
5.000000
 10
393.000000
 20
5.000000
 10
393.000000
 20
9.000000
 10
385.000000
 20
9.000000
  0
LWPOLYLINE
  8
L2_Components
420
12088115
 90
4
 70
1
 10
395.000000
 20
5.000000
 10
403.000000
 20
5.000000
 10
403.000000
 20
9.000000
 10
395.000000
 20
9.000000
  0
LWPOLYLINE
  8
L2_Components
420
12088115
 90
4
 70
1
 10
405.000000
 20
5.000000
 10
413.000000
 20
5.000000
 10
413.000000
 20
9.000000
 10
405.000000
 20
9.000000
  0
LWPOLYLINE
  8
L2_Components
420
12088115
 90
4
 70
1
 10
415.000000
 20
5.000000
 10
423.000000
 20
5.000000
 10
423.000000
 20
9.000000
 10
415.000000
 20
9.000000
  0
LWPOLYLINE
  8
L2_Components
420
12088115
 90
4
 70
1
 10
425.000000
 20
5.000000
 10
433.000000
 20
5.000000
 10
433.000000
 20
9.000000
 10
425.000000
 20
9.000000
  0
LWPOLYLINE
  8
L2_Components
420
12088115
 90
4
 70
1
 10
435.000000
 20
5.000000
 10
443.000000
 20
5.000000
 10
443.000000
 20
9.000000
 10
435.000000
 20
9.000000
  0
LWPOLYLINE
  8
L2_Components
420
12088115
 90
4
 70
1
 10
445.000000
 20
5.000000
 10
453.000000
 20
5.000000
 10
453.000000
 20
9.000000
 10
445.000000
 20
9.000000
  0
LWPOLYLINE
  8
L2_Components
420
12088115
 90
4
 70
1
 10
455.000000
 20
5.000000
 10
463.000000
 20
5.000000
 10
463.000000
 20
9.000000
 10
455.000000
 20
9.000000
  0
LWPOLYLINE
  8
L2_Components
420
12088115
 90
4
 70
1
 10
465.000000
 20
5.000000
 10
473.000000
 20
5.000000
 10
473.000000
 20
9.000000
 10
465.000000
 20
9.000000
  0
LWPOLYLINE
  8
L2_Components
420
12088115
 90
4
 70
1
 10
475.000000
 20
5.000000
 10
483.000000
 20
5.000000
 10
483.000000
 20
9.000000
 10
475.000000
 20
9.000000
  0
LWPOLYLINE
  8
L2_Components
420
12088115
 90
4
 70
1
 10
485.000000
 20
5.000000
 10
493.000000
 20
5.000000
 10
493.000000
 20
9.000000
 10
485.000000
 20
9.000000
  0
LWPOLYLINE
  8
L2_Components
420
12088115
 90
4
 70
1
 10
495.000000
 20
5.000000
 10
503.000000
 20
5.000000
 10
503.000000
 20
9.000000
 10
495.000000
 20
9.000000
  0
LWPOLYLINE
  8
L2_Components
420
12088115
 90
4
 70
1
 10
505.000000
 20
5.000000
 10
513.000000
 20
5.000000
 10
513.000000
 20
9.000000
 10
505.000000
 20
9.000000
  0
LWPOLYLINE
  8
L2_Components
420
12088115
 90
4
 70
1
 10
515.000000
 20
5.000000
 10
523.000000
 20
5.000000
 10
523.000000
 20
9.000000
 10
515.000000
 20
9.000000
  0
LWPOLYLINE
  8
L2_Components
420
12088115
 90
4
 70
1
 10
525.000000
 20
5.000000
 10
533.000000
 20
5.000000
 10
533.000000
 20
9.000000
 10
525.000000
 20
9.000000
  0
LWPOLYLINE
  8
L2_Components
420
12088115
 90
4
 70
1
 10
535.000000
 20
5.000000
 10
543.000000
 20
5.000000
 10
543.000000
 20
9.000000
 10
535.000000
 20
9.000000
  0
LWPOLYLINE
  8
L2_Components
420
12088115
 90
4
 70
1
 10
545.000000
 20
5.000000
 10
553.000000
 20
5.000000
 10
553.000000
 20
9.000000
 10
545.000000
 20
9.000000
  0
LWPOLYLINE
  8
L2_Components
420
12088115
 90
4
 70
1
 10
555.000000
 20
5.000000
 10
563.000000
 20
5.000000
 10
563.000000
 20
9.000000
 10
555.000000
 20
9.000000
  0
LWPOLYLINE
  8
L2_Components
420
12088115
 90
4
 70
1
 10
565.000000
 20
5.000000
 10
573.000000
 20
5.000000
 10
573.000000
 20
9.000000
 10
565.000000
 20
9.000000
  0
LWPOLYLINE
  8
L2_Components
420
12088115
 90
4
 70
1
 10
575.000000
 20
5.000000
 10
583.000000
 20
5.000000
 10
583.000000
 20
9.000000
 10
575.000000
 20
9.000000
  0
LWPOLYLINE
  8
L2_Components
420
12088115
 90
4
 70
1
 10
585.000000
 20
5.000000
 10
593.000000
 20
5.000000
 10
593.000000
 20
9.000000
 10
585.000000
 20
9.000000
  0
LWPOLYLINE
  8
L2_Components
420
12088115
 90
4
 70
1
 10
595.000000
 20
5.000000
 10
603.000000
 20
5.000000
 10
603.000000
 20
9.000000
 10
595.000000
 20
9.000000
  0
LWPOLYLINE
  8
L2_Components
420
12088115
 90
4
 70
1
 10
605.000000
 20
5.000000
 10
613.000000
 20
5.000000
 10
613.000000
 20
9.000000
 10
605.000000
 20
9.000000
  0
LWPOLYLINE
  8
L2_Components
420
12088115
 90
4
 70
1
 10
615.000000
 20
5.000000
 10
623.000000
 20
5.000000
 10
623.000000
 20
9.000000
 10
615.000000
 20
9.000000
  0
LWPOLYLINE
  8
L2_Components
420
12088115
 90
4
 70
1
 10
625.000000
 20
5.000000
 10
633.000000
 20
5.000000
 10
633.000000
 20
9.000000
 10
625.000000
 20
9.000000
  0
LWPOLYLINE
  8
L2_Components
420
12088115
 90
4
 70
1
 10
635.000000
 20
5.000000
 10
643.000000
 20
5.000000
 10
643.000000
 20
9.000000
 10
635.000000
 20
9.000000
  0
ENDSEC
  0
EOF
