  0
SECTION
  2
HEADER
  9
$ACADVER
  1
AC1018
  0
ENDSEC
  0
SECTION
  2
TABLES
  0
TABLE
  2
LAYER
  0
LAYER
  2
DRILL
 70
0
 62
0
  0
LAYER
  2
TOP_COMPONENTS
 70
0
 62
7
  0
LAYER
  2
BOTTOM_COMPONENTS
 70
0
 62
7
  0
LAYER
  2
PCB_LAYERS
 70
0
 62
7
  0
ENDTAB
  0
ENDSEC
  0
SECTION
  2
ENTITIES
  0
LWPOLYLINE
  8
PCB_LAYERS
420
12088115
 90
4
 70
1
 10
6.000000
 20
3.000000
 10
1.000000
 20
3.000000
 10
1.000000
 20
1.000000
 10
6.000000
 20
1.000000
  0
LWPOLYLINE
  8
PCB_LAYERS
420
12088115
 90
64
 70
1
 10
4.987748
 20
1.875602
 10
4.975614
 20
1.877402
 10
4.963715
 20
1.880383
 10
4.952165
 20
1.884516
 10
4.941076
 20
1.889760
 10
4.930554
 20
1.896067
 10
4.920701
 20
1.903374
 10
4.911612
 20
1.911612
 10
4.903374
 20
1.920701
 10
4.896067
 20
1.930554
 10
4.889760
 20
1.941076
 10
4.884516
 20
1.952165
 10
4.880383
 20
1.963715
 10
4.877402
 20
1.975614
 10
4.875602
 20
1.987748
 10
4.875000
 20
2.000000
 10
4.875602
 20
2.012252
 10
4.877402
 20
2.024386
 10
4.880383
 20
2.036285
 10
4.884516
 20
2.047835
 10
4.889760
 20
2.058924
 10
4.896067
 20
2.069446
 10
4.903374
 20
2.079299
 10
4.911612
 20
2.088388
 10
4.920701
 20
2.096626
 10
4.930554
 20
2.103933
 10
4.941076
 20
2.110240
 10
4.952165
 20
2.115484
 10
4.963715
 20
2.119617
 10
4.975614
 20
2.122598
 10
4.987748
 20
2.124398
 10
5.000000
 20
2.125000
 10
5.012252
 20
2.124398
 10
5.024386
 20
2.122598
 10
5.036285
 20
2.119617
 10
5.047835
 20
2.115484
 10
5.058924
 20
2.110240
 10
5.069446
 20
2.103933
 10
5.079299
 20
2.096626
 10
5.088388
 20
2.088388
 10
5.096626
 20
2.079299
 10
5.103933
 20
2.069446
 10
5.110240
 20
2.058924
 10
5.115484
 20
2.047835
 10
5.119617
 20
2.036285
 10
5.122598
 20
2.024386
 10
5.124398
 20
2.012252
 10
5.125000
 20
2.000000
 10
5.124398
 20
1.987748
 10
5.122598
 20
1.975614
 10
5.119617
 20
1.963715
 10
5.115484
 20
1.952165
 10
5.110240
 20
1.941076
 10
5.103933
 20
1.930554
 10
5.096626
 20
1.920701
 10
5.088388
 20
1.911612
 10
5.079299
 20
1.903374
 10
5.069446
 20
1.896067
 10
5.058924
 20
1.889760
 10
5.047835
 20
1.884516
 10
5.036285
 20
1.880383
 10
5.024386
 20
1.877402
 10
5.012252
 20
1.875602
 10
5.000000
 20
1.875000
  0
LWPOLYLINE
  8
PCB_LAYERS
420
12088115
 90
4
 70
1
 10
11.000000
 20
11.000000
 10
4.000000
 20
11.000000
 10
4.000000
 20
1.000000
 10
11.000000
 20
1.000000
  0
LWPOLYLINE
  8
PCB_LAYERS
420
12088115
 90
64
 70
1
 10
4.987748
 20
1.875602
 10
4.975614
 20
1.877402
 10
4.963715
 20
1.880383
 10
4.952165
 20
1.884516
 10
4.941076
 20
1.889760
 10
4.930554
 20
1.896067
 10
4.920701
 20
1.903374
 10
4.911612
 20
1.911612
 10
4.903374
 20
1.920701
 10
4.896067
 20
1.930554
 10
4.889760
 20
1.941076
 10
4.884516
 20
1.952165
 10
4.880383
 20
1.963715
 10
4.877402
 20
1.975614
 10
4.875602
 20
1.987748
 10
4.875000
 20
2.000000
 10
4.875602
 20
2.012252
 10
4.877402
 20
2.024386
 10
4.880383
 20
2.036285
 10
4.884516
 20
2.047835
 10
4.889760
 20
2.058924
 10
4.896067
 20
2.069446
 10
4.903374
 20
2.079299
 10
4.911612
 20
2.088388
 10
4.920701
 20
2.096626
 10
4.930554
 20
2.103933
 10
4.941076
 20
2.110240
 10
4.952165
 20
2.115484
 10
4.963715
 20
2.119617
 10
4.975614
 20
2.122598
 10
4.987748
 20
2.124398
 10
5.000000
 20
2.125000
 10
5.012252
 20
2.124398
 10
5.024386
 20
2.122598
 10
5.036285
 20
2.119617
 10
5.047835
 20
2.115484
 10
5.058924
 20
2.110240
 10
5.069446
 20
2.103933
 10
5.079299
 20
2.096626
 10
5.088388
 20
2.088388
 10
5.096626
 20
2.079299
 10
5.103933
 20
2.069446
 10
5.110240
 20
2.058924
 10
5.115484
 20
2.047835
 10
5.119617
 20
2.036285
 10
5.122598
 20
2.024386
 10
5.124398
 20
2.012252
 10
5.125000
 20
2.000000
 10
5.124398
 20
1.987748
 10
5.122598
 20
1.975614
 10
5.119617
 20
1.963715
 10
5.115484
 20
1.952165
 10
5.110240
 20
1.941076
 10
5.103933
 20
1.930554
 10
5.096626
 20
1.920701
 10
5.088388
 20
1.911612
 10
5.079299
 20
1.903374
 10
5.069446
 20
1.896067
 10
5.058924
 20
1.889760
 10
5.047835
 20
1.884516
 10
5.036285
 20
1.880383
 10
5.024386
 20
1.877402
 10
5.012252
 20
1.875602
 10
5.000000
 20
1.875000
  0
ENDSEC
  0
EOF
