  0
SECTION
  2
HEADER
  9
$ACADVER
  1
AC1018
  0
ENDSEC
  0
SECTION
  2
TABLES
  0
TABLE
  2
LAYER
  0
LAYER
  2
Copper
 70
0
 62
7
  0
ENDTAB
  0
ENDSEC
  0
SECTION
  2
ENTITIES
  0
LWPOLYLINE
  8
Copper
420
16744512
 90
4
 70
1
 10
0.015000
 20
0.071000
 10
0.010000
 20
0.071000
 10
0.010000
 20
0.066000
 10
0.015000
 20
0.066000
  0
LWPOLYLINE
  8
Copper
420
16744512
 90
4
 70
1
 10
0.026000
 20
0.071000
 10
0.021000
 20
0.071000
 10
0.021000
 20
0.066000
 10
0.026000
 20
0.066000
  0
LWPOLYLINE
  8
Copper
420
16744512
 90
4
 70
1
 10
0.039000
 20
0.071000
 10
0.034000
 20
0.071000
 10
0.034000
 20
0.066000
 10
0.039000
 20
0.066000
  0
LWPOLYLINE
  8
Copper
420
16744512
 90
4
 70
1
 10
0.054000
 20
0.071000
 10
0.049000
 20
0.071000
 10
0.049000
 20
0.066000
 10
0.054000
 20
0.066000
  0
LWPOLYLINE
  8
Copper
420
16744512
 90
4
 70
1
 10
0.071000
 20
0.071000
 10
0.066000
 20
0.071000
 10
0.066000
 20
0.066000
 10
0.071000
 20
0.066000
  0
LWPOLYLINE
  8
Copper
420
16744512
 90
4
 70
1
 10
0.015000
 20
0.054000
 10
0.010000
 20
0.054000
 10
0.010000
 20
0.049000
 10
0.015000
 20
0.049000
  0
LWPOLYLINE
  8
Copper
420
16744512
 90
4
 70
1
 10
0.026000
 20
0.054000
 10
0.021000
 20
0.054000
 10
0.021000
 20
0.049000
 10
0.026000
 20
0.049000
  0
LWPOLYLINE
  8
Copper
420
16744512
 90
4
 70
1
 10
0.039000
 20
0.054000
 10
0.034000
 20
0.054000
 10
0.034000
 20
0.049000
 10
0.039000
 20
0.049000
  0
LWPOLYLINE
  8
Copper
420
16744512
 90
4
 70
1
 10
0.054000
 20
0.054000
 10
0.049000
 20
0.054000
 10
0.049000
 20
0.049000
 10
0.054000
 20
0.049000
  0
LWPOLYLINE
  8
Copper
420
16744512
 90
4
 70
1
 10
0.071000
 20
0.054000
 10
0.066000
 20
0.054000
 10
0.066000
 20
0.049000
 10
0.071000
 20
0.049000
  0
LWPOLYLINE
  8
Copper
420
16744512
 90
4
 70
1
 10
0.015000
 20
0.039000
 10
0.010000
 20
0.039000
 10
0.010000
 20
0.034000
 10
0.015000
 20
0.034000
  0
LWPOLYLINE
  8
Copper
420
16744512
 90
4
 70
1
 10
0.026000
 20
0.039000
 10
0.021000
 20
0.039000
 10
0.021000
 20
0.034000
 10
0.026000
 20
0.034000
  0
LWPOLYLINE
  8
Copper
420
16744512
 90
4
 70
1
 10
0.039000
 20
0.039000
 10
0.034000
 20
0.039000
 10
0.034000
 20
0.034000
 10
0.039000
 20
0.034000
  0
LWPOLYLINE
  8
Copper
420
16744512
 90
4
 70
1
 10
0.054000
 20
0.039000
 10
0.049000
 20
0.039000
 10
0.049000
 20
0.034000
 10
0.054000
 20
0.034000
  0
LWPOLYLINE
  8
Copper
420
16744512
 90
4
 70
1
 10
0.071000
 20
0.039000
 10
0.066000
 20
0.039000
 10
0.066000
 20
0.034000
 10
0.071000
 20
0.034000
  0
LWPOLYLINE
  8
Copper
420
16744512
 90
4
 70
1
 10
0.015000
 20
0.026000
 10
0.010000
 20
0.026000
 10
0.010000
 20
0.021000
 10
0.015000
 20
0.021000
  0
LWPOLYLINE
  8
Copper
420
16744512
 90
4
 70
1
 10
0.026000
 20
0.026000
 10
0.021000
 20
0.026000
 10
0.021000
 20
0.021000
 10
0.026000
 20
0.021000
  0
LWPOLYLINE
  8
Copper
420
16744512
 90
4
 70
1
 10
0.039000
 20
0.026000
 10
0.034000
 20
0.026000
 10
0.034000
 20
0.021000
 10
0.039000
 20
0.021000
  0
LWPOLYLINE
  8
Copper
420
16744512
 90
4
 70
1
 10
0.054000
 20
0.026000
 10
0.049000
 20
0.026000
 10
0.049000
 20
0.021000
 10
0.054000
 20
0.021000
  0
LWPOLYLINE
  8
Copper
420
16744512
 90
4
 70
1
 10
0.071000
 20
0.026000
 10
0.066000
 20
0.026000
 10
0.066000
 20
0.021000
 10
0.071000
 20
0.021000
  0
LWPOLYLINE
  8
Copper
420
16744512
 90
4
 70
1
 10
0.015000
 20
0.015000
 10
0.010000
 20
0.015000
 10
0.010000
 20
0.010000
 10
0.015000
 20
0.010000
  0
LWPOLYLINE
  8
Copper
420
16744512
 90
4
 70
1
 10
0.026000
 20
0.015000
 10
0.021000
 20
0.015000
 10
0.021000
 20
0.010000
 10
0.026000
 20
0.010000
  0
LWPOLYLINE
  8
Copper
420
16744512
 90
4
 70
1
 10
0.039000
 20
0.015000
 10
0.034000
 20
0.015000
 10
0.034000
 20
0.010000
 10
0.039000
 20
0.010000
  0
LWPOLYLINE
  8
Copper
420
16744512
 90
4
 70
1
 10
0.054000
 20
0.015000
 10
0.049000
 20
0.015000
 10
0.049000
 20
0.010000
 10
0.054000
 20
0.010000
  0
LWPOLYLINE
  8
Copper
420
16744512
 90
4
 70
1
 10
0.071000
 20
0.015000
 10
0.066000
 20
0.015000
 10
0.066000
 20
0.010000
 10
0.071000
 20
0.010000
  0
ENDSEC
  0
EOF
