  0
SECTION
  2
HEADER
  9
$ACADVER
  1
AC1018
  0
ENDSEC
  0
SECTION
  2
TABLES
  0
TABLE
  2
LAYER
  0
LAYER
  2
L_FR4
 70
0
 62
7
420
3046706
440
33554585
  0
LAYER
  2
L_TO220
 70
0
 62
7
420
8421504
440
33554432
  0
ENDTAB
  0
ENDSEC
  0
SECTION
  2
ENTITIES
  0
LWPOLYLINE
  8
L0_FR4
420
3046706
 90
4
 70
1
 10
0.000000
 20
0.000000
 10
30.000000
 20
0.000000
 10
30.000000
 20
30.000000
 10
0.000000
 20
30.000000
  0
CIRCLE
  8
L0_FR4
 62
0
 10
22.540000
 20
17.250000
 40
0.750000
  0
CIRCLE
  8
L0_FR4
 62
0
 10
17.460000
 20
17.250000
 40
0.750000
  0
CIRCLE
  8
L0_FR4
 62
0
 10
20.000000
 20
17.250000
 40
0.750000
  0
LWPOLYLINE
  8
L0_TO220
420
8421504
 90
4
 70
1
 10
21.790000
 20
16.500000
 10
23.290000
 20
16.500000
 10
23.290000
 20
18.000000
 10
21.790000
 20
18.000000
  0
LWPOLYLINE
  8
L0_TO220
420
8421504
 90
4
 70
1
 10
21.640000
 20
16.350000
 10
23.440000
 20
16.350000
 10
23.440000
 20
18.150000
 10
21.640000
 20
18.150000
  0
LWPOLYLINE
  8
L0_TO220
420
8421504
 90
4
 70
1
 10
21.640000
 20
16.350000
 10
23.440000
 20
16.350000
 10
23.440000
 20
18.150000
 10
21.640000
 20
18.150000
  0
LWPOLYLINE
  8
L0_TO220
420
8421504
 90
4
 70
1
 10
16.710000
 20
16.500000
 10
18.210000
 20
16.500000
 10
18.210000
 20
18.000000
 10
16.710000
 20
18.000000
  0
LWPOLYLINE
  8
L0_TO220
420
8421504
 90
4
 70
1
 10
16.560000
 20
16.350000
 10
18.360000
 20
16.350000
 10
18.360000
 20
18.150000
 10
16.560000
 20
18.150000
  0
LWPOLYLINE
  8
L0_TO220
420
8421504
 90
4
 70
1
 10
16.560000
 20
16.350000
 10
18.360000
 20
16.350000
 10
18.360000
 20
18.150000
 10
16.560000
 20
18.150000
  0
LWPOLYLINE
  8
L0_TO220
420
8421504
 90
4
 70
1
 10
19.250000
 20
16.500000
 10
20.750000
 20
16.500000
 10
20.750000
 20
18.000000
 10
19.250000
 20
18.000000
  0
LWPOLYLINE
  8
L0_TO220
420
8421504
 90
4
 70
1
 10
19.100000
 20
16.350000
 10
20.900000
 20
16.350000
 10
20.900000
 20
18.150000
 10
19.100000
 20
18.150000
  0
LWPOLYLINE
  8
L0_TO220
420
8421504
 90
4
 70
1
 10
19.100000
 20
16.350000
 10
20.900000
 20
16.350000
 10
20.900000
 20
18.150000
 10
19.100000
 20
18.150000
  0
LWPOLYLINE
  8
L8_Components
420
12088115
 90
4
 70
1
 10
15.000000
 20
15.000000
 10
25.000000
 20
15.000000
 10
25.000000
 20
19.500000
 10
15.000000
 20
19.500000
  0
ENDSEC
  0
EOF
