  0
SECTION
  2
HEADER
  9
$ACADVER
  1
AC1018
  0
ENDSEC
  0
SECTION
  2
TABLES
  0
TABLE
  2
LAYER
  0
LAYER
  2
DRILL
 70
0
 62
0
  0
LAYER
  2
TOP_COMPONENTS
 70
0
 62
7
  0
LAYER
  2
BOTTOM_COMPONENTS
 70
0
 62
7
  0
LAYER
  2
PCB_LAYERS
 70
0
 62
7
  0
ENDTAB
  0
ENDSEC
  0
SECTION
  2
ENTITIES
  0
LWPOLYLINE
  8
PCB_LAYERS
420
8421504
 90
4
 70
1
 10
1.005000
 20
0.305000
 10
0.995000
 20
0.305000
 10
0.995000
 20
0.295000
 10
1.005000
 20
0.295000
  0
LWPOLYLINE
  8
PCB_LAYERS
420
8421504
 90
4
 70
1
 10
2.205000
 20
0.305000
 10
2.195000
 20
0.305000
 10
2.195000
 20
0.295000
 10
2.205000
 20
0.295000
  0
LWPOLYLINE
  8
PCB_LAYERS
420
8421504
 90
4
 70
1
 10
3.405000
 20
0.305000
 10
3.395000
 20
0.305000
 10
3.395000
 20
0.295000
 10
3.405000
 20
0.295000
  0
LWPOLYLINE
  8
PCB_LAYERS
420
8421504
 90
4
 70
1
 10
4.605000
 20
0.305000
 10
4.595000
 20
0.305000
 10
4.595000
 20
0.295000
 10
4.605000
 20
0.295000
  0
LWPOLYLINE
  8
PCB_LAYERS
420
8421504
 90
4
 70
1
 10
5.805000
 20
0.305000
 10
5.795000
 20
0.305000
 10
5.795000
 20
0.295000
 10
5.805000
 20
0.295000
  0
LWPOLYLINE
  8
PCB_LAYERS
420
8421504
 90
4
 70
1
 10
7.805000
 20
0.305000
 10
7.595000
 20
0.305000
 10
7.595000
 20
0.295000
 10
7.805000
 20
0.295000
  0
LWPOLYLINE
  8
PCB_LAYERS
420
8421504
 90
4
 70
1
 10
1.005000
 20
0.305000
 10
0.195000
 20
0.305000
 10
0.195000
 20
0.295000
 10
1.005000
 20
0.295000
  0
LWPOLYLINE
  8
PCB_LAYERS
420
8421504
 90
4
 70
1
 10
3.405000
 20
0.305000
 10
2.195000
 20
0.305000
 10
2.195000
 20
0.295000
 10
3.405000
 20
0.295000
  0
LWPOLYLINE
  8
PCB_LAYERS
420
8421504
 90
4
 70
1
 10
5.805000
 20
0.305000
 10
4.595000
 20
0.305000
 10
4.595000
 20
0.295000
 10
5.805000
 20
0.295000
  0
LWPOLYLINE
  8
PCB_LAYERS
420
8421504
 90
4
 70
1
 10
2.205000
 20
0.305000
 10
0.995000
 20
0.305000
 10
0.995000
 20
0.295000
 10
2.205000
 20
0.295000
  0
LWPOLYLINE
  8
PCB_LAYERS
420
8421504
 90
4
 70
1
 10
4.605000
 20
0.305000
 10
3.395000
 20
0.305000
 10
3.395000
 20
0.295000
 10
4.605000
 20
0.295000
  0
LWPOLYLINE
  8
PCB_LAYERS
420
8421504
 90
4
 70
1
 10
7.605000
 20
0.305000
 10
5.795000
 20
0.305000
 10
5.795000
 20
0.295000
 10
7.605000
 20
0.295000
  0
ENDSEC
  0
EOF
