  0
SECTION
  2
HEADER
  9
$ACADVER
  1
AC1018
  0
ENDSEC
  0
SECTION
  2
TABLES
  0
TABLE
  2
LAYER
  0
LAYER
  2
DRILL
 70
0
 62
0
  0
LAYER
  2
TOP_COMPONENTS
 70
0
 62
7
  0
LAYER
  2
BOTTOM_COMPONENTS
 70
0
 62
7
  0
LAYER
  2
PCB_LAYERS
 70
0
 62
7
  0
ENDTAB
  0
ENDSEC
  0
SECTION
  2
ENTITIES
  0
LWPOLYLINE
  8
PCB_LAYERS
420
12088115
 90
4
 70
1
 10
0.040050
 20
0.030050
 10
0.019950
 20
0.030050
 10
0.019950
 20
0.029950
 10
0.040050
 20
0.029950
  0
LWPOLYLINE
  8
PCB_LAYERS
420
12088115
 90
4
 70
1
 10
0.020050
 20
0.030050
 10
0.019950
 20
0.030050
 10
0.019950
 20
0.029950
 10
0.020050
 20
0.029950
  0
LWPOLYLINE
  8
PCB_LAYERS
420
12088115
 90
4
 70
1
 10
0.020050
 20
0.010050
 10
0.009950
 20
0.010050
 10
0.009950
 20
0.009950
 10
0.020050
 20
0.009950
  0
LWPOLYLINE
  8
PCB_LAYERS
420
12088115
 90
6
 70
1
 10
0.040050
 20
0.049950
 10
0.050050
 20
0.049950
 10
0.050050
 20
0.050050
 10
0.039950
 20
0.050050
 10
0.039950
 20
0.029950
 10
0.040050
 20
0.029950
  0
LWPOLYLINE
  8
PCB_LAYERS
420
12088115
 90
4
 70
1
 10
0.040050
 20
0.030050
 10
0.039950
 20
0.030050
 10
0.039950
 20
0.029950
 10
0.040050
 20
0.029950
  0
LWPOLYLINE
  8
PCB_LAYERS
420
12088115
 90
4
 70
1
 10
0.020050
 20
0.030050
 10
0.019950
 20
0.030050
 10
0.019950
 20
0.009950
 10
0.020050
 20
0.009950
  0
LWPOLYLINE
  8
PCB_LAYERS
420
12088115
 90
4
 70
1
 10
0.020050
 20
0.010050
 10
0.019950
 20
0.010050
 10
0.019950
 20
0.009950
 10
0.020050
 20
0.009950
  0
ENDSEC
  0
EOF
