  0
SECTION
  2
HEADER
  9
$ACADVER
  1
AC1018
  0
ENDSEC
  0
SECTION
  2
TABLES
  0
TABLE
  2
LAYER
  0
LAYER
  2
L_Silicon_P
 70
0
 62
7
420
16758465
440
33554432
  0
LAYER
  2
L_Silicon_N
 70
0
 62
7
420
11393254
440
33554432
  0
ENDTAB
  0
ENDSEC
  0
SECTION
  2
ENTITIES
  0
LWPOLYLINE
  8
L1_Silicon_P
420
16758465
 90
4
 70
1
 10
0.001000
 20
0.001000
 10
49.999000
 20
0.001000
 10
49.999000
 20
49.999000
 10
0.001000
 20
49.999000
  0
LWPOLYLINE
  8
L1_Silicon_N
420
11393254
 90
4
 70
1
 10
0.010000
 20
0.020000
 10
0.012000
 20
0.020000
 10
0.012000
 20
0.030000
 10
0.010000
 20
0.030000
  0
LWPOLYLINE
  8
L1_Silicon_N
420
11393254
 90
4
 70
1
 10
0.011500
 20
0.020000
 10
0.013500
 20
0.020000
 10
0.013500
 20
0.030000
 10
0.011500
 20
0.030000
  0
LWPOLYLINE
  8
L1_Silicon_N
420
11393254
 90
4
 70
1
 10
0.013000
 20
0.020000
 10
0.015000
 20
0.020000
 10
0.015000
 20
0.030000
 10
0.013000
 20
0.030000
  0
LWPOLYLINE
  8
L1_Silicon_N
420
11393254
 90
4
 70
1
 10
0.000000
 20
0.000000
 10
0.005000
 20
0.000000
 10
0.005000
 20
0.010000
 10
0.000000
 20
0.010000
  0
LWPOLYLINE
  8
L2_Components
420
12088115
 90
4
 70
1
 10
0.010000
 20
0.030000
 10
0.012000
 20
0.030000
 10
0.012000
 20
0.040000
 10
0.010000
 20
0.040000
  0
LWPOLYLINE
  8
L2_Components
420
12088115
 90
4
 70
1
 10
0.011500
 20
0.030000
 10
0.013500
 20
0.030000
 10
0.013500
 20
0.040000
 10
0.011500
 20
0.040000
  0
LWPOLYLINE
  8
L2_Components
420
12088115
 90
4
 70
1
 10
0.013000
 20
0.030000
 10
0.015000
 20
0.030000
 10
0.015000
 20
0.040000
 10
0.013000
 20
0.040000
  0
ENDSEC
  0
EOF
