  0
SECTION
  2
HEADER
  9
$ACADVER
  1
AC1018
  0
ENDSEC
  0
SECTION
  2
TABLES
  0
TABLE
  2
LAYER
  0
LAYER
  2
L_Silicon_P
 70
0
 62
7
420
16758465
440
33554432
  0
LAYER
  2
L_Copper
 70
0
 62
7
420
12088115
440
33554432
  0
ENDTAB
  0
ENDSEC
  0
SECTION
  2
ENTITIES
  0
LWPOLYLINE
  8
L0_Silicon_P
420
16758465
 90
4
 70
1
 10
0.000000
 20
0.000000
 10
20.000000
 20
0.000000
 10
20.000000
 20
20.000000
 10
0.000000
 20
20.000000
  0
LWPOLYLINE
  8
L0_Copper
420
12088115
 90
4
 70
1
 10
2.000000
 20
5.000000
 10
5.000000
 20
5.000000
 10
5.000000
 20
11.000000
 10
2.000000
 20
11.000000
  0
LWPOLYLINE
  8
L0_Copper
420
12088115
 90
4
 70
1
 10
3.000000
 20
10.000000
 10
8.000000
 20
10.000000
 10
8.000000
 20
15.000000
 10
3.000000
 20
15.000000
  0
LWPOLYLINE
  8
L0_Copper
420
12088115
 90
4
 70
1
 10
7.000000
 20
10.000000
 10
12.000000
 20
10.000000
 10
12.000000
 20
15.000000
 10
7.000000
 20
15.000000
  0
LWPOLYLINE
  8
L0_Copper
420
12088115
 90
4
 70
1
 10
11.000000
 20
10.000000
 10
16.000000
 20
10.000000
 10
16.000000
 20
15.000000
 10
11.000000
 20
15.000000
  0
LWPOLYLINE
  8
L1_Components
420
12088115
 90
4
 70
1
 10
2.000000
 20
5.000000
 10
3.000000
 20
5.000000
 10
3.000000
 20
6.000000
 10
2.000000
 20
6.000000
  0
LWPOLYLINE
  8
L1_Components
420
12088115
 90
4
 70
1
 10
6.000000
 20
12.000000
 10
8.000000
 20
12.000000
 10
8.000000
 20
13.000000
 10
6.000000
 20
13.000000
  0
LWPOLYLINE
  8
L1_Components
420
12088115
 90
4
 70
1
 10
10.000000
 20
12.000000
 10
12.000000
 20
12.000000
 10
12.000000
 20
13.000000
 10
10.000000
 20
13.000000
  0
LWPOLYLINE
  8
L1_Components
420
12088115
 90
4
 70
1
 10
14.000000
 20
12.000000
 10
16.000000
 20
12.000000
 10
16.000000
 20
13.000000
 10
14.000000
 20
13.000000
  0
ENDSEC
  0
EOF
