  0
SECTION
  2
HEADER
  9
$ACADVER
  1
AC1018
  0
ENDSEC
  0
SECTION
  2
TABLES
  0
TABLE
  2
LAYER
  0
LAYER
  2
L_Silicon_N
 70
0
 62
7
420
11393254
440
33554432
  0
LAYER
  2
L_Copper
 70
0
 62
7
420
12088115
440
33554432
  0
ENDTAB
  0
ENDSEC
  0
SECTION
  2
ENTITIES
  0
LWPOLYLINE
  8
L1_Silicon_N
420
11393254
 90
4
 70
1
 10
0.001000
 20
0.001000
 10
59.999000
 20
0.001000
 10
59.999000
 20
29.999000
 10
0.001000
 20
29.999000
  0
LWPOLYLINE
  8
L1_Copper
420
12088115
 90
4
 70
1
 10
5.500000
 20
10.500000
 10
6.500000
 20
10.500000
 10
6.500000
 20
11.500000
 10
5.500000
 20
11.500000
  0
LWPOLYLINE
  8
L1_Copper
420
12088115
 90
4
 70
1
 10
50.500000
 20
10.500000
 10
51.500000
 20
10.500000
 10
51.500000
 20
11.500000
 10
50.500000
 20
11.500000
  0
LWPOLYLINE
  8
L1_Copper
420
12088115
 90
4
 70
1
 10
26.500000
 20
10.500000
 10
27.500000
 20
10.500000
 10
27.500000
 20
11.500000
 10
26.500000
 20
11.500000
  0
LWPOLYLINE
  8
L1_Copper
420
12088115
 90
4
 70
1
 10
32.500000
 20
10.500000
 10
33.500000
 20
10.500000
 10
33.500000
 20
11.500000
 10
32.500000
 20
11.500000
  0
LWPOLYLINE
  8
L1_Components
420
12088115
 90
4
 70
1
 10
5.000000
 20
20.000000
 10
7.000000
 20
20.000000
 10
7.000000
 20
22.000000
 10
5.000000
 20
22.000000
  0
LWPOLYLINE
  8
L1_Components
420
12088115
 90
4
 70
1
 10
50.000000
 20
20.000000
 10
52.000000
 20
20.000000
 10
52.000000
 20
22.000000
 10
50.000000
 20
22.000000
  0
LWPOLYLINE
  8
L1_Components
420
12088115
 90
4
 70
1
 10
26.000000
 20
21.000000
 10
34.000000
 20
21.000000
 10
34.000000
 20
25.000000
 10
26.000000
 20
25.000000
  0
ENDSEC
  0
EOF
