  0
SECTION
  2
HEADER
  9
$ACADVER
  1
AC1018
  0
ENDSEC
  0
SECTION
  2
TABLES
  0
TABLE
  2
LAYER
  0
LAYER
  2
DRILL
 70
0
 62
0
  0
LAYER
  2
TOP_COMPONENTS
 70
0
 62
7
  0
LAYER
  2
BOTTOM_COMPONENTS
 70
0
 62
7
  0
LAYER
  2
PCB_LAYERS
 70
0
 62
7
  0
ENDTAB
  0
ENDSEC
  0
SECTION
  2
ENTITIES
  0
LWPOLYLINE
  8
PCB_LAYERS
420
12088115
 90
9
 70
1
 10
4.350000
 20
3.300000
 10
16.250000
 20
3.300000
 10
16.250000
 20
3.250000
 10
16.350000
 20
3.250000
 10
16.350000
 20
3.400000
 10
16.250000
 20
3.400000
 10
4.250000
 20
3.400000
 10
4.250000
 20
3.250000
 10
4.350000
 20
3.250000
  0
LWPOLYLINE
  8
PCB_LAYERS
420
12088115
 90
64
 70
1
 10
4.034305
 20
7.151686
 10
4.068281
 20
7.156726
 10
4.101599
 20
7.165071
 10
4.133939
 20
7.176643
 10
4.164988
 20
7.191328
 10
4.194449
 20
7.208986
 10
4.222037
 20
7.229447
 10
4.247487
 20
7.252513
 10
4.270553
 20
7.277963
 10
4.291014
 20
7.305551
 10
4.308672
 20
7.335012
 10
4.323357
 20
7.366061
 10
4.334929
 20
7.398401
 10
4.343274
 20
7.431719
 10
4.348314
 20
7.465695
 10
4.350000
 20
7.500000
 10
4.348314
 20
7.534305
 10
4.343274
 20
7.568281
 10
4.334929
 20
7.601599
 10
4.323357
 20
7.633939
 10
4.308672
 20
7.664988
 10
4.291014
 20
7.694449
 10
4.270553
 20
7.722037
 10
4.247487
 20
7.747487
 10
4.222037
 20
7.770553
 10
4.194449
 20
7.791014
 10
4.164988
 20
7.808672
 10
4.133939
 20
7.823357
 10
4.101599
 20
7.834929
 10
4.068281
 20
7.843274
 10
4.034305
 20
7.848314
 10
4.000000
 20
7.850000
 10
3.965695
 20
7.848314
 10
3.931719
 20
7.843274
 10
3.898401
 20
7.834929
 10
3.866061
 20
7.823357
 10
3.835012
 20
7.808672
 10
3.805551
 20
7.791014
 10
3.777963
 20
7.770553
 10
3.752513
 20
7.747487
 10
3.729447
 20
7.722037
 10
3.708986
 20
7.694449
 10
3.691328
 20
7.664988
 10
3.676643
 20
7.633939
 10
3.665071
 20
7.601599
 10
3.656726
 20
7.568281
 10
3.651686
 20
7.534305
 10
3.650000
 20
7.500000
 10
3.651686
 20
7.465695
 10
3.656726
 20
7.431719
 10
3.665071
 20
7.398401
 10
3.676643
 20
7.366061
 10
3.691328
 20
7.335012
 10
3.708986
 20
7.305551
 10
3.729447
 20
7.277963
 10
3.752513
 20
7.252513
 10
3.777963
 20
7.229447
 10
3.805551
 20
7.208986
 10
3.835012
 20
7.191328
 10
3.866061
 20
7.176643
 10
3.898401
 20
7.165071
 10
3.931719
 20
7.156726
 10
3.965695
 20
7.151686
 10
4.000000
 20
7.150000
  0
LWPOLYLINE
  8
PCB_LAYERS
420
12088115
 90
64
 70
1
 10
16.034305
 20
7.151686
 10
16.068281
 20
7.156726
 10
16.101599
 20
7.165071
 10
16.133939
 20
7.176643
 10
16.164988
 20
7.191328
 10
16.194449
 20
7.208986
 10
16.222037
 20
7.229447
 10
16.247487
 20
7.252513
 10
16.270553
 20
7.277963
 10
16.291014
 20
7.305551
 10
16.308672
 20
7.335012
 10
16.323357
 20
7.366061
 10
16.334929
 20
7.398401
 10
16.343274
 20
7.431719
 10
16.348314
 20
7.465695
 10
16.350000
 20
7.500000
 10
16.348314
 20
7.534305
 10
16.343274
 20
7.568281
 10
16.334929
 20
7.601599
 10
16.323357
 20
7.633939
 10
16.308672
 20
7.664988
 10
16.291014
 20
7.694449
 10
16.270553
 20
7.722037
 10
16.247487
 20
7.747487
 10
16.222037
 20
7.770553
 10
16.194449
 20
7.791014
 10
16.164988
 20
7.808672
 10
16.133939
 20
7.823357
 10
16.101599
 20
7.834929
 10
16.068281
 20
7.843274
 10
16.034305
 20
7.848314
 10
16.000000
 20
7.850000
 10
15.965695
 20
7.848314
 10
15.931719
 20
7.843274
 10
15.898401
 20
7.834929
 10
15.866061
 20
7.823357
 10
15.835012
 20
7.808672
 10
15.805551
 20
7.791014
 10
15.777963
 20
7.770553
 10
15.752513
 20
7.747487
 10
15.729447
 20
7.722037
 10
15.708986
 20
7.694449
 10
15.691328
 20
7.664988
 10
15.676643
 20
7.633939
 10
15.665071
 20
7.601599
 10
15.656726
 20
7.568281
 10
15.651686
 20
7.534305
 10
15.650000
 20
7.500000
 10
15.651686
 20
7.465695
 10
15.656726
 20
7.431719
 10
15.665071
 20
7.398401
 10
15.676643
 20
7.366061
 10
15.691328
 20
7.335012
 10
15.708986
 20
7.305551
 10
15.729447
 20
7.277963
 10
15.752513
 20
7.252513
 10
15.777963
 20
7.229447
 10
15.805551
 20
7.208986
 10
15.835012
 20
7.191328
 10
15.866061
 20
7.176643
 10
15.898401
 20
7.165071
 10
15.931719
 20
7.156726
 10
15.965695
 20
7.151686
 10
16.000000
 20
7.150000
  0
LWPOLYLINE
  8
PCB_LAYERS
420
12088115
 90
64
 70
1
 10
3.987748
 20
7.375602
 10
3.975614
 20
7.377402
 10
3.963715
 20
7.380383
 10
3.952165
 20
7.384516
 10
3.941076
 20
7.389760
 10
3.930554
 20
7.396067
 10
3.920701
 20
7.403374
 10
3.911612
 20
7.411612
 10
3.903374
 20
7.420701
 10
3.896067
 20
7.430554
 10
3.889760
 20
7.441076
 10
3.884516
 20
7.452165
 10
3.880383
 20
7.463715
 10
3.877402
 20
7.475614
 10
3.875602
 20
7.487748
 10
3.875000
 20
7.500000
 10
3.875602
 20
7.512252
 10
3.877402
 20
7.524386
 10
3.880383
 20
7.536285
 10
3.884516
 20
7.547835
 10
3.889760
 20
7.558924
 10
3.896067
 20
7.569446
 10
3.903374
 20
7.579299
 10
3.911612
 20
7.588388
 10
3.920701
 20
7.596626
 10
3.930554
 20
7.603933
 10
3.941076
 20
7.610240
 10
3.952165
 20
7.615484
 10
3.963715
 20
7.619617
 10
3.975614
 20
7.622598
 10
3.987748
 20
7.624398
 10
4.000000
 20
7.625000
 10
4.012252
 20
7.624398
 10
4.024386
 20
7.622598
 10
4.036285
 20
7.619617
 10
4.047835
 20
7.615484
 10
4.058924
 20
7.610240
 10
4.069446
 20
7.603933
 10
4.079299
 20
7.596626
 10
4.088388
 20
7.588388
 10
4.096626
 20
7.579299
 10
4.103933
 20
7.569446
 10
4.110240
 20
7.558924
 10
4.115484
 20
7.547835
 10
4.119617
 20
7.536285
 10
4.122598
 20
7.524386
 10
4.124398
 20
7.512252
 10
4.125000
 20
7.500000
 10
4.124398
 20
7.487748
 10
4.122598
 20
7.475614
 10
4.119617
 20
7.463715
 10
4.115484
 20
7.452165
 10
4.110240
 20
7.441076
 10
4.103933
 20
7.430554
 10
4.096626
 20
7.420701
 10
4.088388
 20
7.411612
 10
4.079299
 20
7.403374
 10
4.069446
 20
7.396067
 10
4.058924
 20
7.389760
 10
4.047835
 20
7.384516
 10
4.036285
 20
7.380383
 10
4.024386
 20
7.377402
 10
4.012252
 20
7.375602
 10
4.000000
 20
7.375000
  0
LWPOLYLINE
  8
PCB_LAYERS
420
12088115
 90
64
 70
1
 10
15.987748
 20
7.375602
 10
15.975614
 20
7.377402
 10
15.963715
 20
7.380383
 10
15.952165
 20
7.384516
 10
15.941076
 20
7.389760
 10
15.930554
 20
7.396067
 10
15.920701
 20
7.403374
 10
15.911612
 20
7.411612
 10
15.903374
 20
7.420701
 10
15.896067
 20
7.430554
 10
15.889760
 20
7.441076
 10
15.884516
 20
7.452165
 10
15.880383
 20
7.463715
 10
15.877402
 20
7.475614
 10
15.875602
 20
7.487748
 10
15.875000
 20
7.500000
 10
15.875602
 20
7.512252
 10
15.877402
 20
7.524386
 10
15.880383
 20
7.536285
 10
15.884516
 20
7.547835
 10
15.889760
 20
7.558924
 10
15.896067
 20
7.569446
 10
15.903374
 20
7.579299
 10
15.911612
 20
7.588388
 10
15.920701
 20
7.596626
 10
15.930554
 20
7.603933
 10
15.941076
 20
7.610240
 10
15.952165
 20
7.615484
 10
15.963715
 20
7.619617
 10
15.975614
 20
7.622598
 10
15.987748
 20
7.624398
 10
16.000000
 20
7.625000
 10
16.012252
 20
7.624398
 10
16.024386
 20
7.622598
 10
16.036285
 20
7.619617
 10
16.047835
 20
7.615484
 10
16.058924
 20
7.610240
 10
16.069446
 20
7.603933
 10
16.079299
 20
7.596626
 10
16.088388
 20
7.588388
 10
16.096626
 20
7.579299
 10
16.103933
 20
7.569446
 10
16.110240
 20
7.558924
 10
16.115484
 20
7.547835
 10
16.119617
 20
7.536285
 10
16.122598
 20
7.524386
 10
16.124398
 20
7.512252
 10
16.125000
 20
7.500000
 10
16.124398
 20
7.487748
 10
16.122598
 20
7.475614
 10
16.119617
 20
7.463715
 10
16.115484
 20
7.452165
 10
16.110240
 20
7.441076
 10
16.103933
 20
7.430554
 10
16.096626
 20
7.420701
 10
16.088388
 20
7.411612
 10
16.079299
 20
7.403374
 10
16.069446
 20
7.396067
 10
16.058924
 20
7.389760
 10
16.047835
 20
7.384516
 10
16.036285
 20
7.380383
 10
16.024386
 20
7.377402
 10
16.012252
 20
7.375602
 10
16.000000
 20
7.375000
  0
LWPOLYLINE
  8
PCB_LAYERS
420
12088115
 90
64
 70
1
 10
4.034305
 20
7.151686
 10
4.068281
 20
7.156726
 10
4.101599
 20
7.165071
 10
4.133939
 20
7.176643
 10
4.164988
 20
7.191328
 10
4.194449
 20
7.208986
 10
4.222037
 20
7.229447
 10
4.247487
 20
7.252513
 10
4.270553
 20
7.277963
 10
4.291014
 20
7.305551
 10
4.308672
 20
7.335012
 10
4.323357
 20
7.366061
 10
4.334929
 20
7.398401
 10
4.343274
 20
7.431719
 10
4.348314
 20
7.465695
 10
4.350000
 20
7.500000
 10
4.348314
 20
7.534305
 10
4.343274
 20
7.568281
 10
4.334929
 20
7.601599
 10
4.323357
 20
7.633939
 10
4.308672
 20
7.664988
 10
4.291014
 20
7.694449
 10
4.270553
 20
7.722037
 10
4.247487
 20
7.747487
 10
4.222037
 20
7.770553
 10
4.194449
 20
7.791014
 10
4.164988
 20
7.808672
 10
4.133939
 20
7.823357
 10
4.101599
 20
7.834929
 10
4.068281
 20
7.843274
 10
4.034305
 20
7.848314
 10
4.000000
 20
7.850000
 10
3.965695
 20
7.848314
 10
3.931719
 20
7.843274
 10
3.898401
 20
7.834929
 10
3.866061
 20
7.823357
 10
3.835012
 20
7.808672
 10
3.805551
 20
7.791014
 10
3.777963
 20
7.770553
 10
3.752513
 20
7.747487
 10
3.729447
 20
7.722037
 10
3.708986
 20
7.694449
 10
3.691328
 20
7.664988
 10
3.676643
 20
7.633939
 10
3.665071
 20
7.601599
 10
3.656726
 20
7.568281
 10
3.651686
 20
7.534305
 10
3.650000
 20
7.500000
 10
3.651686
 20
7.465695
 10
3.656726
 20
7.431719
 10
3.665071
 20
7.398401
 10
3.676643
 20
7.366061
 10
3.691328
 20
7.335012
 10
3.708986
 20
7.305551
 10
3.729447
 20
7.277963
 10
3.752513
 20
7.252513
 10
3.777963
 20
7.229447
 10
3.805551
 20
7.208986
 10
3.835012
 20
7.191328
 10
3.866061
 20
7.176643
 10
3.898401
 20
7.165071
 10
3.931719
 20
7.156726
 10
3.965695
 20
7.151686
 10
4.000000
 20
7.150000
  0
LWPOLYLINE
  8
PCB_LAYERS
420
12088115
 90
64
 70
1
 10
16.034305
 20
7.151686
 10
16.068281
 20
7.156726
 10
16.101599
 20
7.165071
 10
16.133939
 20
7.176643
 10
16.164988
 20
7.191328
 10
16.194449
 20
7.208986
 10
16.222037
 20
7.229447
 10
16.247487
 20
7.252513
 10
16.270553
 20
7.277963
 10
16.291014
 20
7.305551
 10
16.308672
 20
7.335012
 10
16.323357
 20
7.366061
 10
16.334929
 20
7.398401
 10
16.343274
 20
7.431719
 10
16.348314
 20
7.465695
 10
16.350000
 20
7.500000
 10
16.348314
 20
7.534305
 10
16.343274
 20
7.568281
 10
16.334929
 20
7.601599
 10
16.323357
 20
7.633939
 10
16.308672
 20
7.664988
 10
16.291014
 20
7.694449
 10
16.270553
 20
7.722037
 10
16.247487
 20
7.747487
 10
16.222037
 20
7.770553
 10
16.194449
 20
7.791014
 10
16.164988
 20
7.808672
 10
16.133939
 20
7.823357
 10
16.101599
 20
7.834929
 10
16.068281
 20
7.843274
 10
16.034305
 20
7.848314
 10
16.000000
 20
7.850000
 10
15.965695
 20
7.848314
 10
15.931719
 20
7.843274
 10
15.898401
 20
7.834929
 10
15.866061
 20
7.823357
 10
15.835012
 20
7.808672
 10
15.805551
 20
7.791014
 10
15.777963
 20
7.770553
 10
15.752513
 20
7.747487
 10
15.729447
 20
7.722037
 10
15.708986
 20
7.694449
 10
15.691328
 20
7.664988
 10
15.676643
 20
7.633939
 10
15.665071
 20
7.601599
 10
15.656726
 20
7.568281
 10
15.651686
 20
7.534305
 10
15.650000
 20
7.500000
 10
15.651686
 20
7.465695
 10
15.656726
 20
7.431719
 10
15.665071
 20
7.398401
 10
15.676643
 20
7.366061
 10
15.691328
 20
7.335012
 10
15.708986
 20
7.305551
 10
15.729447
 20
7.277963
 10
15.752513
 20
7.252513
 10
15.777963
 20
7.229447
 10
15.805551
 20
7.208986
 10
15.835012
 20
7.191328
 10
15.866061
 20
7.176643
 10
15.898401
 20
7.165071
 10
15.931719
 20
7.156726
 10
15.965695
 20
7.151686
 10
16.000000
 20
7.150000
  0
LWPOLYLINE
  8
PCB_LAYERS
420
12088115
 90
64
 70
1
 10
3.987748
 20
7.375602
 10
3.975614
 20
7.377402
 10
3.963715
 20
7.380383
 10
3.952165
 20
7.384516
 10
3.941076
 20
7.389760
 10
3.930554
 20
7.396067
 10
3.920701
 20
7.403374
 10
3.911612
 20
7.411612
 10
3.903374
 20
7.420701
 10
3.896067
 20
7.430554
 10
3.889760
 20
7.441076
 10
3.884516
 20
7.452165
 10
3.880383
 20
7.463715
 10
3.877402
 20
7.475614
 10
3.875602
 20
7.487748
 10
3.875000
 20
7.500000
 10
3.875602
 20
7.512252
 10
3.877402
 20
7.524386
 10
3.880383
 20
7.536285
 10
3.884516
 20
7.547835
 10
3.889760
 20
7.558924
 10
3.896067
 20
7.569446
 10
3.903374
 20
7.579299
 10
3.911612
 20
7.588388
 10
3.920701
 20
7.596626
 10
3.930554
 20
7.603933
 10
3.941076
 20
7.610240
 10
3.952165
 20
7.615484
 10
3.963715
 20
7.619617
 10
3.975614
 20
7.622598
 10
3.987748
 20
7.624398
 10
4.000000
 20
7.625000
 10
4.012252
 20
7.624398
 10
4.024386
 20
7.622598
 10
4.036285
 20
7.619617
 10
4.047835
 20
7.615484
 10
4.058924
 20
7.610240
 10
4.069446
 20
7.603933
 10
4.079299
 20
7.596626
 10
4.088388
 20
7.588388
 10
4.096626
 20
7.579299
 10
4.103933
 20
7.569446
 10
4.110240
 20
7.558924
 10
4.115484
 20
7.547835
 10
4.119617
 20
7.536285
 10
4.122598
 20
7.524386
 10
4.124398
 20
7.512252
 10
4.125000
 20
7.500000
 10
4.124398
 20
7.487748
 10
4.122598
 20
7.475614
 10
4.119617
 20
7.463715
 10
4.115484
 20
7.452165
 10
4.110240
 20
7.441076
 10
4.103933
 20
7.430554
 10
4.096626
 20
7.420701
 10
4.088388
 20
7.411612
 10
4.079299
 20
7.403374
 10
4.069446
 20
7.396067
 10
4.058924
 20
7.389760
 10
4.047835
 20
7.384516
 10
4.036285
 20
7.380383
 10
4.024386
 20
7.377402
 10
4.012252
 20
7.375602
 10
4.000000
 20
7.375000
  0
LWPOLYLINE
  8
PCB_LAYERS
420
12088115
 90
64
 70
1
 10
15.987748
 20
7.375602
 10
15.975614
 20
7.377402
 10
15.963715
 20
7.380383
 10
15.952165
 20
7.384516
 10
15.941076
 20
7.389760
 10
15.930554
 20
7.396067
 10
15.920701
 20
7.403374
 10
15.911612
 20
7.411612
 10
15.903374
 20
7.420701
 10
15.896067
 20
7.430554
 10
15.889760
 20
7.441076
 10
15.884516
 20
7.452165
 10
15.880383
 20
7.463715
 10
15.877402
 20
7.475614
 10
15.875602
 20
7.487748
 10
15.875000
 20
7.500000
 10
15.875602
 20
7.512252
 10
15.877402
 20
7.524386
 10
15.880383
 20
7.536285
 10
15.884516
 20
7.547835
 10
15.889760
 20
7.558924
 10
15.896067
 20
7.569446
 10
15.903374
 20
7.579299
 10
15.911612
 20
7.588388
 10
15.920701
 20
7.596626
 10
15.930554
 20
7.603933
 10
15.941076
 20
7.610240
 10
15.952165
 20
7.615484
 10
15.963715
 20
7.619617
 10
15.975614
 20
7.622598
 10
15.987748
 20
7.624398
 10
16.000000
 20
7.625000
 10
16.012252
 20
7.624398
 10
16.024386
 20
7.622598
 10
16.036285
 20
7.619617
 10
16.047835
 20
7.615484
 10
16.058924
 20
7.610240
 10
16.069446
 20
7.603933
 10
16.079299
 20
7.596626
 10
16.088388
 20
7.588388
 10
16.096626
 20
7.579299
 10
16.103933
 20
7.569446
 10
16.110240
 20
7.558924
 10
16.115484
 20
7.547835
 10
16.119617
 20
7.536285
 10
16.122598
 20
7.524386
 10
16.124398
 20
7.512252
 10
16.125000
 20
7.500000
 10
16.124398
 20
7.487748
 10
16.122598
 20
7.475614
 10
16.119617
 20
7.463715
 10
16.115484
 20
7.452165
 10
16.110240
 20
7.441076
 10
16.103933
 20
7.430554
 10
16.096626
 20
7.420701
 10
16.088388
 20
7.411612
 10
16.079299
 20
7.403374
 10
16.069446
 20
7.396067
 10
16.058924
 20
7.389760
 10
16.047835
 20
7.384516
 10
16.036285
 20
7.380383
 10
16.024386
 20
7.377402
 10
16.012252
 20
7.375602
 10
16.000000
 20
7.375000
  0
LWPOLYLINE
  8
PCB_LAYERS
420
12088115
 90
4
 70
1
 10
16.100000
 20
7.600000
 10
4.000000
 20
7.600000
 10
4.000000
 20
7.500000
 10
16.100000
 20
7.500000
  0
LWPOLYLINE
  8
PCB_LAYERS
420
12088115
 90
64
 70
1
 10
4.034305
 20
11.651686
 10
4.068281
 20
11.656726
 10
4.101599
 20
11.665071
 10
4.133939
 20
11.676643
 10
4.164988
 20
11.691328
 10
4.194449
 20
11.708986
 10
4.222037
 20
11.729447
 10
4.247487
 20
11.752513
 10
4.270553
 20
11.777963
 10
4.291014
 20
11.805551
 10
4.308672
 20
11.835012
 10
4.323357
 20
11.866061
 10
4.334929
 20
11.898401
 10
4.343274
 20
11.931719
 10
4.348314
 20
11.965695
 10
4.350000
 20
12.000000
 10
4.348314
 20
12.034305
 10
4.343274
 20
12.068281
 10
4.334929
 20
12.101599
 10
4.323357
 20
12.133939
 10
4.308672
 20
12.164988
 10
4.291014
 20
12.194449
 10
4.270553
 20
12.222037
 10
4.247487
 20
12.247487
 10
4.222037
 20
12.270553
 10
4.194449
 20
12.291014
 10
4.164988
 20
12.308672
 10
4.133939
 20
12.323357
 10
4.101599
 20
12.334929
 10
4.068281
 20
12.343274
 10
4.034305
 20
12.348314
 10
4.000000
 20
12.350000
 10
3.965695
 20
12.348314
 10
3.931719
 20
12.343274
 10
3.898401
 20
12.334929
 10
3.866061
 20
12.323357
 10
3.835012
 20
12.308672
 10
3.805551
 20
12.291014
 10
3.777963
 20
12.270553
 10
3.752513
 20
12.247487
 10
3.729447
 20
12.222037
 10
3.708986
 20
12.194449
 10
3.691328
 20
12.164988
 10
3.676643
 20
12.133939
 10
3.665071
 20
12.101599
 10
3.656726
 20
12.068281
 10
3.651686
 20
12.034305
 10
3.650000
 20
12.000000
 10
3.651686
 20
11.965695
 10
3.656726
 20
11.931719
 10
3.665071
 20
11.898401
 10
3.676643
 20
11.866061
 10
3.691328
 20
11.835012
 10
3.708986
 20
11.805551
 10
3.729447
 20
11.777963
 10
3.752513
 20
11.752513
 10
3.777963
 20
11.729447
 10
3.805551
 20
11.708986
 10
3.835012
 20
11.691328
 10
3.866061
 20
11.676643
 10
3.898401
 20
11.665071
 10
3.931719
 20
11.656726
 10
3.965695
 20
11.651686
 10
4.000000
 20
11.650000
  0
LWPOLYLINE
  8
PCB_LAYERS
420
12088115
 90
64
 70
1
 10
3.987748
 20
11.875602
 10
3.975614
 20
11.877402
 10
3.963715
 20
11.880383
 10
3.952165
 20
11.884516
 10
3.941076
 20
11.889760
 10
3.930554
 20
11.896067
 10
3.920701
 20
11.903374
 10
3.911612
 20
11.911612
 10
3.903374
 20
11.920701
 10
3.896067
 20
11.930554
 10
3.889760
 20
11.941076
 10
3.884516
 20
11.952165
 10
3.880383
 20
11.963715
 10
3.877402
 20
11.975614
 10
3.875602
 20
11.987748
 10
3.875000
 20
12.000000
 10
3.875602
 20
12.012252
 10
3.877402
 20
12.024386
 10
3.880383
 20
12.036285
 10
3.884516
 20
12.047835
 10
3.889760
 20
12.058924
 10
3.896067
 20
12.069446
 10
3.903374
 20
12.079299
 10
3.911612
 20
12.088388
 10
3.920701
 20
12.096626
 10
3.930554
 20
12.103933
 10
3.941076
 20
12.110240
 10
3.952165
 20
12.115484
 10
3.963715
 20
12.119617
 10
3.975614
 20
12.122598
 10
3.987748
 20
12.124398
 10
4.000000
 20
12.125000
 10
4.012252
 20
12.124398
 10
4.024386
 20
12.122598
 10
4.036285
 20
12.119617
 10
4.047835
 20
12.115484
 10
4.058924
 20
12.110240
 10
4.069446
 20
12.103933
 10
4.079299
 20
12.096626
 10
4.088388
 20
12.088388
 10
4.096626
 20
12.079299
 10
4.103933
 20
12.069446
 10
4.110240
 20
12.058924
 10
4.115484
 20
12.047835
 10
4.119617
 20
12.036285
 10
4.122598
 20
12.024386
 10
4.124398
 20
12.012252
 10
4.125000
 20
12.000000
 10
4.124398
 20
11.987748
 10
4.122598
 20
11.975614
 10
4.119617
 20
11.963715
 10
4.115484
 20
11.952165
 10
4.110240
 20
11.941076
 10
4.103933
 20
11.930554
 10
4.096626
 20
11.920701
 10
4.088388
 20
11.911612
 10
4.079299
 20
11.903374
 10
4.069446
 20
11.896067
 10
4.058924
 20
11.889760
 10
4.047835
 20
11.884516
 10
4.036285
 20
11.880383
 10
4.024386
 20
11.877402
 10
4.012252
 20
11.875602
 10
4.000000
 20
11.875000
  0
LWPOLYLINE
  8
PCB_LAYERS
420
12088115
 90
64
 70
1
 10
4.034305
 20
11.651686
 10
4.068281
 20
11.656726
 10
4.101599
 20
11.665071
 10
4.133939
 20
11.676643
 10
4.164988
 20
11.691328
 10
4.194449
 20
11.708986
 10
4.222037
 20
11.729447
 10
4.247487
 20
11.752513
 10
4.270553
 20
11.777963
 10
4.291014
 20
11.805551
 10
4.308672
 20
11.835012
 10
4.323357
 20
11.866061
 10
4.334929
 20
11.898401
 10
4.343274
 20
11.931719
 10
4.348314
 20
11.965695
 10
4.350000
 20
12.000000
 10
4.348314
 20
12.034305
 10
4.343274
 20
12.068281
 10
4.334929
 20
12.101599
 10
4.323357
 20
12.133939
 10
4.308672
 20
12.164988
 10
4.291014
 20
12.194449
 10
4.270553
 20
12.222037
 10
4.247487
 20
12.247487
 10
4.222037
 20
12.270553
 10
4.194449
 20
12.291014
 10
4.164988
 20
12.308672
 10
4.133939
 20
12.323357
 10
4.101599
 20
12.334929
 10
4.068281
 20
12.343274
 10
4.034305
 20
12.348314
 10
4.000000
 20
12.350000
 10
3.965695
 20
12.348314
 10
3.931719
 20
12.343274
 10
3.898401
 20
12.334929
 10
3.866061
 20
12.323357
 10
3.835012
 20
12.308672
 10
3.805551
 20
12.291014
 10
3.777963
 20
12.270553
 10
3.752513
 20
12.247487
 10
3.729447
 20
12.222037
 10
3.708986
 20
12.194449
 10
3.691328
 20
12.164988
 10
3.676643
 20
12.133939
 10
3.665071
 20
12.101599
 10
3.656726
 20
12.068281
 10
3.651686
 20
12.034305
 10
3.650000
 20
12.000000
 10
3.651686
 20
11.965695
 10
3.656726
 20
11.931719
 10
3.665071
 20
11.898401
 10
3.676643
 20
11.866061
 10
3.691328
 20
11.835012
 10
3.708986
 20
11.805551
 10
3.729447
 20
11.777963
 10
3.752513
 20
11.752513
 10
3.777963
 20
11.729447
 10
3.805551
 20
11.708986
 10
3.835012
 20
11.691328
 10
3.866061
 20
11.676643
 10
3.898401
 20
11.665071
 10
3.931719
 20
11.656726
 10
3.965695
 20
11.651686
 10
4.000000
 20
11.650000
  0
LWPOLYLINE
  8
PCB_LAYERS
420
12088115
 90
64
 70
1
 10
3.987748
 20
11.875602
 10
3.975614
 20
11.877402
 10
3.963715
 20
11.880383
 10
3.952165
 20
11.884516
 10
3.941076
 20
11.889760
 10
3.930554
 20
11.896067
 10
3.920701
 20
11.903374
 10
3.911612
 20
11.911612
 10
3.903374
 20
11.920701
 10
3.896067
 20
11.930554
 10
3.889760
 20
11.941076
 10
3.884516
 20
11.952165
 10
3.880383
 20
11.963715
 10
3.877402
 20
11.975614
 10
3.875602
 20
11.987748
 10
3.875000
 20
12.000000
 10
3.875602
 20
12.012252
 10
3.877402
 20
12.024386
 10
3.880383
 20
12.036285
 10
3.884516
 20
12.047835
 10
3.889760
 20
12.058924
 10
3.896067
 20
12.069446
 10
3.903374
 20
12.079299
 10
3.911612
 20
12.088388
 10
3.920701
 20
12.096626
 10
3.930554
 20
12.103933
 10
3.941076
 20
12.110240
 10
3.952165
 20
12.115484
 10
3.963715
 20
12.119617
 10
3.975614
 20
12.122598
 10
3.987748
 20
12.124398
 10
4.000000
 20
12.125000
 10
4.012252
 20
12.124398
 10
4.024386
 20
12.122598
 10
4.036285
 20
12.119617
 10
4.047835
 20
12.115484
 10
4.058924
 20
12.110240
 10
4.069446
 20
12.103933
 10
4.079299
 20
12.096626
 10
4.088388
 20
12.088388
 10
4.096626
 20
12.079299
 10
4.103933
 20
12.069446
 10
4.110240
 20
12.058924
 10
4.115484
 20
12.047835
 10
4.119617
 20
12.036285
 10
4.122598
 20
12.024386
 10
4.124398
 20
12.012252
 10
4.125000
 20
12.000000
 10
4.124398
 20
11.987748
 10
4.122598
 20
11.975614
 10
4.119617
 20
11.963715
 10
4.115484
 20
11.952165
 10
4.110240
 20
11.941076
 10
4.103933
 20
11.930554
 10
4.096626
 20
11.920701
 10
4.088388
 20
11.911612
 10
4.079299
 20
11.903374
 10
4.069446
 20
11.896067
 10
4.058924
 20
11.889760
 10
4.047835
 20
11.884516
 10
4.036285
 20
11.880383
 10
4.024386
 20
11.877402
 10
4.012252
 20
11.875602
 10
4.000000
 20
11.875000
  0
LWPOLYLINE
  8
PCB_LAYERS
420
12088115
 90
24
 70
1
 10
5.500000
 20
12.000000
 10
6.900000
 20
12.000000
 10
8.300000
 20
12.000000
 10
9.700000
 20
12.000000
 10
11.100000
 20
12.000000
 10
12.500000
 20
12.000000
 10
13.900000
 20
12.000000
 10
15.300000
 20
12.000000
 10
16.700000
 20
12.000000
 10
16.700000
 20
13.400000
 10
16.700000
 20
13.500000
 10
16.500000
 20
13.500000
 10
16.400000
 20
13.500000
 10
16.300000
 20
13.500000
 10
15.200000
 20
13.500000
 10
13.800000
 20
13.500000
 10
12.400000
 20
13.500000
 10
11.000000
 20
13.500000
 10
9.600000
 20
13.500000
 10
8.200000
 20
13.500000
 10
6.800000
 20
13.500000
 10
5.400000
 20
13.500000
 10
4.000000
 20
13.500000
 10
4.000000
 20
12.000000
  0
LWPOLYLINE
  8
PCB_LAYERS
420
12088115
 90
4
 70
1
 10
4.300000
 20
3.300000
 10
4.900000
 20
3.300000
 10
4.900000
 20
3.900000
 10
4.300000
 20
3.900000
  0
LWPOLYLINE
  8
PCB_LAYERS
420
12088115
 90
4
 70
1
 10
16.300000
 20
3.300000
 10
16.900000
 20
3.300000
 10
16.900000
 20
3.900000
 10
16.300000
 20
3.900000
  0
LWPOLYLINE
  8
PCB_LAYERS
420
12088115
 90
4
 70
1
 10
16.300000
 20
12.300000
 10
16.900000
 20
12.300000
 10
16.900000
 20
12.900000
 10
16.300000
 20
12.900000
  0
LWPOLYLINE
  8
PCB_LAYERS
420
12088115
 90
4
 70
1
 10
4.000000
 20
3.000000
 10
4.600000
 20
3.000000
 10
4.600000
 20
3.600000
 10
4.000000
 20
3.600000
  0
LWPOLYLINE
  8
PCB_LAYERS
420
12088115
 90
4
 70
1
 10
4.000000
 20
3.000000
 10
4.600000
 20
3.000000
 10
4.600000
 20
3.600000
 10
4.000000
 20
3.600000
  0
LWPOLYLINE
  8
PCB_LAYERS
420
12088115
 90
4
 70
1
 10
16.000000
 20
3.000000
 10
16.600000
 20
3.000000
 10
16.600000
 20
3.600000
 10
16.000000
 20
3.600000
  0
LWPOLYLINE
  8
PCB_LAYERS
420
12088115
 90
4
 70
1
 10
16.000000
 20
3.000000
 10
16.600000
 20
3.000000
 10
16.600000
 20
3.600000
 10
16.000000
 20
3.600000
  0
LWPOLYLINE
  8
PCB_LAYERS
420
12088115
 90
4
 70
1
 10
4.000000
 20
7.500000
 10
4.100000
 20
7.500000
 10
4.100000
 20
7.600000
 10
4.000000
 20
7.600000
  0
LWPOLYLINE
  8
PCB_LAYERS
420
12088115
 90
4
 70
1
 10
4.000000
 20
7.500000
 10
4.100000
 20
7.500000
 10
4.100000
 20
7.600000
 10
4.000000
 20
7.600000
  0
LWPOLYLINE
  8
PCB_LAYERS
420
12088115
 90
4
 70
1
 10
16.000000
 20
7.500000
 10
16.100000
 20
7.500000
 10
16.100000
 20
7.600000
 10
16.000000
 20
7.600000
  0
LWPOLYLINE
  8
PCB_LAYERS
420
12088115
 90
4
 70
1
 10
16.000000
 20
7.500000
 10
16.100000
 20
7.500000
 10
16.100000
 20
7.600000
 10
16.000000
 20
7.600000
  0
LWPOLYLINE
  8
PCB_LAYERS
420
12088115
 90
4
 70
1
 10
4.000000
 20
12.000000
 10
4.100000
 20
12.000000
 10
4.100000
 20
12.100000
 10
4.000000
 20
12.100000
  0
LWPOLYLINE
  8
PCB_LAYERS
420
12088115
 90
4
 70
1
 10
4.000000
 20
12.000000
 10
4.100000
 20
12.000000
 10
4.100000
 20
12.100000
 10
4.000000
 20
12.100000
  0
LWPOLYLINE
  8
PCB_LAYERS
420
12088115
 90
4
 70
1
 10
16.000000
 20
12.000000
 10
16.600000
 20
12.000000
 10
16.600000
 20
12.600000
 10
16.000000
 20
12.600000
  0
LWPOLYLINE
  8
PCB_LAYERS
420
12088115
 90
4
 70
1
 10
16.000000
 20
12.000000
 10
16.600000
 20
12.000000
 10
16.600000
 20
12.600000
 10
16.000000
 20
12.600000
  0
ENDSEC
  0
EOF
