  0
SECTION
  2
HEADER
  9
$ACADVER
  1
AC1018
  0
ENDSEC
  0
SECTION
  2
TABLES
  0
TABLE
  2
LAYER
  0
LAYER
  2
li1
 70
0
 62
7
  0
LAYER
  2
ild1
 70
0
 62
7
  0
LAYER
  2
metal1
 70
0
 62
7
  0
LAYER
  2
ild2
 70
0
 62
7
  0
LAYER
  2
metal2
 70
0
 62
7
  0
LAYER
  2
ild3
 70
0
 62
7
  0
LAYER
  2
metal3
 70
0
 62
7
  0
LAYER
  2
capm_ox
 70
0
 62
7
  0
LAYER
  2
capm
 70
0
 62
7
  0
LAYER
  2
ild4
 70
0
 62
7
  0
LAYER
  2
metal4
 70
0
 62
7
  0
LAYER
  2
pad
 70
0
 62
7
  0
LAYER
  2
Pad_Mask
 70
0
 62
7
  0
ENDTAB
  0
ENDSEC
  0
SECTION
  2
ENTITIES
  0
LWPOLYLINE
  8
metal3
420
12632256
 90
12
 70
1
 10
0.064500
 20
0.049850
 10
0.074500
 20
0.049850
 10
0.074500
 20
0.044500
 10
0.085500
 20
0.044500
 10
0.085500
 20
0.055500
 10
0.074500
 20
0.055500
 10
0.074500
 20
0.050150
 10
0.064500
 20
0.050150
 10
0.064500
 20
0.070000
 10
0.024500
 20
0.070000
 10
0.024500
 20
0.030000
 10
0.064500
 20
0.030000
  0
LWPOLYLINE
  8
metal3
420
8421631
 90
4
 70
1
 10
0.041585
 20
0.053085
 10
0.041415
 20
0.053085
 10
0.041415
 20
0.052915
 10
0.041585
 20
0.052915
  0
LWPOLYLINE
  8
metal3
420
8421631
 90
4
 70
1
 10
0.043585
 20
0.053085
 10
0.043415
 20
0.053085
 10
0.043415
 20
0.052915
 10
0.043585
 20
0.052915
  0
LWPOLYLINE
  8
metal3
420
8421631
 90
4
 70
1
 10
0.045585
 20
0.053085
 10
0.045415
 20
0.053085
 10
0.045415
 20
0.052915
 10
0.045585
 20
0.052915
  0
LWPOLYLINE
  8
metal3
420
8421631
 90
4
 70
1
 10
0.047585
 20
0.053085
 10
0.047415
 20
0.053085
 10
0.047415
 20
0.052915
 10
0.047585
 20
0.052915
  0
LWPOLYLINE
  8
metal3
420
8421631
 90
4
 70
1
 10
0.041585
 20
0.051085
 10
0.041415
 20
0.051085
 10
0.041415
 20
0.050915
 10
0.041585
 20
0.050915
  0
LWPOLYLINE
  8
metal3
420
8421631
 90
4
 70
1
 10
0.043585
 20
0.051085
 10
0.043415
 20
0.051085
 10
0.043415
 20
0.050915
 10
0.043585
 20
0.050915
  0
LWPOLYLINE
  8
metal3
420
8421631
 90
4
 70
1
 10
0.045585
 20
0.051085
 10
0.045415
 20
0.051085
 10
0.045415
 20
0.050915
 10
0.045585
 20
0.050915
  0
LWPOLYLINE
  8
metal3
420
8421631
 90
4
 70
1
 10
0.047585
 20
0.051085
 10
0.047415
 20
0.051085
 10
0.047415
 20
0.050915
 10
0.047585
 20
0.050915
  0
LWPOLYLINE
  8
metal3
420
8421631
 90
4
 70
1
 10
0.041585
 20
0.049085
 10
0.041415
 20
0.049085
 10
0.041415
 20
0.048915
 10
0.041585
 20
0.048915
  0
LWPOLYLINE
  8
metal3
420
8421631
 90
4
 70
1
 10
0.043585
 20
0.049085
 10
0.043415
 20
0.049085
 10
0.043415
 20
0.048915
 10
0.043585
 20
0.048915
  0
LWPOLYLINE
  8
metal3
420
8421631
 90
4
 70
1
 10
0.045585
 20
0.049085
 10
0.045415
 20
0.049085
 10
0.045415
 20
0.048915
 10
0.045585
 20
0.048915
  0
LWPOLYLINE
  8
metal3
420
8421631
 90
4
 70
1
 10
0.047585
 20
0.049085
 10
0.047415
 20
0.049085
 10
0.047415
 20
0.048915
 10
0.047585
 20
0.048915
  0
LWPOLYLINE
  8
metal3
420
8421631
 90
4
 70
1
 10
0.041585
 20
0.047085
 10
0.041415
 20
0.047085
 10
0.041415
 20
0.046915
 10
0.041585
 20
0.046915
  0
LWPOLYLINE
  8
metal3
420
8421631
 90
4
 70
1
 10
0.043585
 20
0.047085
 10
0.043415
 20
0.047085
 10
0.043415
 20
0.046915
 10
0.043585
 20
0.046915
  0
LWPOLYLINE
  8
metal3
420
8421631
 90
4
 70
1
 10
0.045585
 20
0.047085
 10
0.045415
 20
0.047085
 10
0.045415
 20
0.046915
 10
0.045585
 20
0.046915
  0
LWPOLYLINE
  8
metal3
420
8421631
 90
4
 70
1
 10
0.047585
 20
0.047085
 10
0.047415
 20
0.047085
 10
0.047415
 20
0.046915
 10
0.047585
 20
0.046915
  0
LWPOLYLINE
  8
capm_ox
420
8421631
 90
4
 70
1
 10
0.041585
 20
0.053085
 10
0.041415
 20
0.053085
 10
0.041415
 20
0.052915
 10
0.041585
 20
0.052915
  0
LWPOLYLINE
  8
capm_ox
420
8421631
 90
4
 70
1
 10
0.043585
 20
0.053085
 10
0.043415
 20
0.053085
 10
0.043415
 20
0.052915
 10
0.043585
 20
0.052915
  0
LWPOLYLINE
  8
capm_ox
420
8421631
 90
4
 70
1
 10
0.045585
 20
0.053085
 10
0.045415
 20
0.053085
 10
0.045415
 20
0.052915
 10
0.045585
 20
0.052915
  0
LWPOLYLINE
  8
capm_ox
420
8421631
 90
4
 70
1
 10
0.047585
 20
0.053085
 10
0.047415
 20
0.053085
 10
0.047415
 20
0.052915
 10
0.047585
 20
0.052915
  0
LWPOLYLINE
  8
capm_ox
420
8421631
 90
4
 70
1
 10
0.041585
 20
0.051085
 10
0.041415
 20
0.051085
 10
0.041415
 20
0.050915
 10
0.041585
 20
0.050915
  0
LWPOLYLINE
  8
capm_ox
420
8421631
 90
4
 70
1
 10
0.043585
 20
0.051085
 10
0.043415
 20
0.051085
 10
0.043415
 20
0.050915
 10
0.043585
 20
0.050915
  0
LWPOLYLINE
  8
capm_ox
420
8421631
 90
4
 70
1
 10
0.045585
 20
0.051085
 10
0.045415
 20
0.051085
 10
0.045415
 20
0.050915
 10
0.045585
 20
0.050915
  0
LWPOLYLINE
  8
capm_ox
420
8421631
 90
4
 70
1
 10
0.047585
 20
0.051085
 10
0.047415
 20
0.051085
 10
0.047415
 20
0.050915
 10
0.047585
 20
0.050915
  0
LWPOLYLINE
  8
capm_ox
420
8421631
 90
4
 70
1
 10
0.041585
 20
0.049085
 10
0.041415
 20
0.049085
 10
0.041415
 20
0.048915
 10
0.041585
 20
0.048915
  0
LWPOLYLINE
  8
capm_ox
420
8421631
 90
4
 70
1
 10
0.043585
 20
0.049085
 10
0.043415
 20
0.049085
 10
0.043415
 20
0.048915
 10
0.043585
 20
0.048915
  0
LWPOLYLINE
  8
capm_ox
420
8421631
 90
4
 70
1
 10
0.045585
 20
0.049085
 10
0.045415
 20
0.049085
 10
0.045415
 20
0.048915
 10
0.045585
 20
0.048915
  0
LWPOLYLINE
  8
capm_ox
420
8421631
 90
4
 70
1
 10
0.047585
 20
0.049085
 10
0.047415
 20
0.049085
 10
0.047415
 20
0.048915
 10
0.047585
 20
0.048915
  0
LWPOLYLINE
  8
capm_ox
420
8421631
 90
4
 70
1
 10
0.041585
 20
0.047085
 10
0.041415
 20
0.047085
 10
0.041415
 20
0.046915
 10
0.041585
 20
0.046915
  0
LWPOLYLINE
  8
capm_ox
420
8421631
 90
4
 70
1
 10
0.043585
 20
0.047085
 10
0.043415
 20
0.047085
 10
0.043415
 20
0.046915
 10
0.043585
 20
0.046915
  0
LWPOLYLINE
  8
capm_ox
420
8421631
 90
4
 70
1
 10
0.045585
 20
0.047085
 10
0.045415
 20
0.047085
 10
0.045415
 20
0.046915
 10
0.045585
 20
0.046915
  0
LWPOLYLINE
  8
capm_ox
420
8421631
 90
4
 70
1
 10
0.047585
 20
0.047085
 10
0.047415
 20
0.047085
 10
0.047415
 20
0.046915
 10
0.047585
 20
0.046915
  0
LWPOLYLINE
  8
capm
420
8421631
 90
4
 70
1
 10
0.041585
 20
0.053085
 10
0.041415
 20
0.053085
 10
0.041415
 20
0.052915
 10
0.041585
 20
0.052915
  0
LWPOLYLINE
  8
capm
420
8421631
 90
4
 70
1
 10
0.043585
 20
0.053085
 10
0.043415
 20
0.053085
 10
0.043415
 20
0.052915
 10
0.043585
 20
0.052915
  0
LWPOLYLINE
  8
capm
420
8421631
 90
4
 70
1
 10
0.045585
 20
0.053085
 10
0.045415
 20
0.053085
 10
0.045415
 20
0.052915
 10
0.045585
 20
0.052915
  0
LWPOLYLINE
  8
capm
420
8421631
 90
4
 70
1
 10
0.047585
 20
0.053085
 10
0.047415
 20
0.053085
 10
0.047415
 20
0.052915
 10
0.047585
 20
0.052915
  0
LWPOLYLINE
  8
capm
420
8421631
 90
4
 70
1
 10
0.041585
 20
0.051085
 10
0.041415
 20
0.051085
 10
0.041415
 20
0.050915
 10
0.041585
 20
0.050915
  0
LWPOLYLINE
  8
capm
420
8421631
 90
4
 70
1
 10
0.043585
 20
0.051085
 10
0.043415
 20
0.051085
 10
0.043415
 20
0.050915
 10
0.043585
 20
0.050915
  0
LWPOLYLINE
  8
capm
420
8421631
 90
4
 70
1
 10
0.045585
 20
0.051085
 10
0.045415
 20
0.051085
 10
0.045415
 20
0.050915
 10
0.045585
 20
0.050915
  0
LWPOLYLINE
  8
capm
420
8421631
 90
4
 70
1
 10
0.047585
 20
0.051085
 10
0.047415
 20
0.051085
 10
0.047415
 20
0.050915
 10
0.047585
 20
0.050915
  0
LWPOLYLINE
  8
capm
420
8421631
 90
4
 70
1
 10
0.041585
 20
0.049085
 10
0.041415
 20
0.049085
 10
0.041415
 20
0.048915
 10
0.041585
 20
0.048915
  0
LWPOLYLINE
  8
capm
420
8421631
 90
4
 70
1
 10
0.043585
 20
0.049085
 10
0.043415
 20
0.049085
 10
0.043415
 20
0.048915
 10
0.043585
 20
0.048915
  0
LWPOLYLINE
  8
capm
420
8421631
 90
4
 70
1
 10
0.045585
 20
0.049085
 10
0.045415
 20
0.049085
 10
0.045415
 20
0.048915
 10
0.045585
 20
0.048915
  0
LWPOLYLINE
  8
capm
420
8421631
 90
4
 70
1
 10
0.047585
 20
0.049085
 10
0.047415
 20
0.049085
 10
0.047415
 20
0.048915
 10
0.047585
 20
0.048915
  0
LWPOLYLINE
  8
capm
420
8421631
 90
4
 70
1
 10
0.041585
 20
0.047085
 10
0.041415
 20
0.047085
 10
0.041415
 20
0.046915
 10
0.041585
 20
0.046915
  0
LWPOLYLINE
  8
capm
420
8421631
 90
4
 70
1
 10
0.043585
 20
0.047085
 10
0.043415
 20
0.047085
 10
0.043415
 20
0.046915
 10
0.043585
 20
0.046915
  0
LWPOLYLINE
  8
capm
420
8421631
 90
4
 70
1
 10
0.045585
 20
0.047085
 10
0.045415
 20
0.047085
 10
0.045415
 20
0.046915
 10
0.045585
 20
0.046915
  0
LWPOLYLINE
  8
capm
420
8421631
 90
4
 70
1
 10
0.047585
 20
0.047085
 10
0.047415
 20
0.047085
 10
0.047415
 20
0.046915
 10
0.047585
 20
0.046915
  0
LWPOLYLINE
  8
capm
420
16766720
 90
4
 70
1
 10
0.085000
 20
0.055000
 10
0.075000
 20
0.055000
 10
0.075000
 20
0.045000
 10
0.085000
 20
0.045000
  0
LWPOLYLINE
  8
capm
420
8421631
 90
4
 70
1
 10
0.083585
 20
0.051285
 10
0.083415
 20
0.051285
 10
0.083415
 20
0.051115
 10
0.083585
 20
0.051115
  0
LWPOLYLINE
  8
capm
420
8421631
 90
4
 70
1
 10
0.083585
 20
0.050485
 10
0.083415
 20
0.050485
 10
0.083415
 20
0.050315
 10
0.083585
 20
0.050315
  0
LWPOLYLINE
  8
capm
420
8421631
 90
4
 70
1
 10
0.083585
 20
0.049685
 10
0.083415
 20
0.049685
 10
0.083415
 20
0.049515
 10
0.083585
 20
0.049515
  0
LWPOLYLINE
  8
capm
420
8421631
 90
4
 70
1
 10
0.083585
 20
0.048885
 10
0.083415
 20
0.048885
 10
0.083415
 20
0.048715
 10
0.083585
 20
0.048715
  0
LWPOLYLINE
  8
ild4
420
8421631
 90
4
 70
1
 10
0.083585
 20
0.051285
 10
0.083415
 20
0.051285
 10
0.083415
 20
0.051115
 10
0.083585
 20
0.051115
  0
LWPOLYLINE
  8
ild4
420
8421631
 90
4
 70
1
 10
0.083585
 20
0.050485
 10
0.083415
 20
0.050485
 10
0.083415
 20
0.050315
 10
0.083585
 20
0.050315
  0
LWPOLYLINE
  8
ild4
420
8421631
 90
4
 70
1
 10
0.083585
 20
0.049685
 10
0.083415
 20
0.049685
 10
0.083415
 20
0.049515
 10
0.083585
 20
0.049515
  0
LWPOLYLINE
  8
ild4
420
8421631
 90
4
 70
1
 10
0.083585
 20
0.048885
 10
0.083415
 20
0.048885
 10
0.083415
 20
0.048715
 10
0.083585
 20
0.048715
  0
LWPOLYLINE
  8
ild4
420
8421631
 90
4
 70
1
 10
0.041585
 20
0.053085
 10
0.041415
 20
0.053085
 10
0.041415
 20
0.052915
 10
0.041585
 20
0.052915
  0
LWPOLYLINE
  8
ild4
420
8421631
 90
4
 70
1
 10
0.043585
 20
0.053085
 10
0.043415
 20
0.053085
 10
0.043415
 20
0.052915
 10
0.043585
 20
0.052915
  0
LWPOLYLINE
  8
ild4
420
8421631
 90
4
 70
1
 10
0.045585
 20
0.053085
 10
0.045415
 20
0.053085
 10
0.045415
 20
0.052915
 10
0.045585
 20
0.052915
  0
LWPOLYLINE
  8
ild4
420
8421631
 90
4
 70
1
 10
0.047585
 20
0.053085
 10
0.047415
 20
0.053085
 10
0.047415
 20
0.052915
 10
0.047585
 20
0.052915
  0
LWPOLYLINE
  8
ild4
420
8421631
 90
4
 70
1
 10
0.041585
 20
0.051085
 10
0.041415
 20
0.051085
 10
0.041415
 20
0.050915
 10
0.041585
 20
0.050915
  0
LWPOLYLINE
  8
ild4
420
8421631
 90
4
 70
1
 10
0.043585
 20
0.051085
 10
0.043415
 20
0.051085
 10
0.043415
 20
0.050915
 10
0.043585
 20
0.050915
  0
LWPOLYLINE
  8
ild4
420
8421631
 90
4
 70
1
 10
0.045585
 20
0.051085
 10
0.045415
 20
0.051085
 10
0.045415
 20
0.050915
 10
0.045585
 20
0.050915
  0
LWPOLYLINE
  8
ild4
420
8421631
 90
4
 70
1
 10
0.047585
 20
0.051085
 10
0.047415
 20
0.051085
 10
0.047415
 20
0.050915
 10
0.047585
 20
0.050915
  0
LWPOLYLINE
  8
ild4
420
8421631
 90
4
 70
1
 10
0.041585
 20
0.049085
 10
0.041415
 20
0.049085
 10
0.041415
 20
0.048915
 10
0.041585
 20
0.048915
  0
LWPOLYLINE
  8
ild4
420
8421631
 90
4
 70
1
 10
0.043585
 20
0.049085
 10
0.043415
 20
0.049085
 10
0.043415
 20
0.048915
 10
0.043585
 20
0.048915
  0
LWPOLYLINE
  8
ild4
420
8421631
 90
4
 70
1
 10
0.045585
 20
0.049085
 10
0.045415
 20
0.049085
 10
0.045415
 20
0.048915
 10
0.045585
 20
0.048915
  0
LWPOLYLINE
  8
ild4
420
8421631
 90
4
 70
1
 10
0.047585
 20
0.049085
 10
0.047415
 20
0.049085
 10
0.047415
 20
0.048915
 10
0.047585
 20
0.048915
  0
LWPOLYLINE
  8
ild4
420
8421631
 90
4
 70
1
 10
0.041585
 20
0.047085
 10
0.041415
 20
0.047085
 10
0.041415
 20
0.046915
 10
0.041585
 20
0.046915
  0
LWPOLYLINE
  8
ild4
420
8421631
 90
4
 70
1
 10
0.043585
 20
0.047085
 10
0.043415
 20
0.047085
 10
0.043415
 20
0.046915
 10
0.043585
 20
0.046915
  0
LWPOLYLINE
  8
ild4
420
8421631
 90
4
 70
1
 10
0.045585
 20
0.047085
 10
0.045415
 20
0.047085
 10
0.045415
 20
0.046915
 10
0.045585
 20
0.046915
  0
LWPOLYLINE
  8
ild4
420
8421631
 90
4
 70
1
 10
0.047585
 20
0.047085
 10
0.047415
 20
0.047085
 10
0.047415
 20
0.046915
 10
0.047585
 20
0.046915
  0
LWPOLYLINE
  8
metal4
420
8421631
 90
4
 70
1
 10
0.083585
 20
0.051285
 10
0.083415
 20
0.051285
 10
0.083415
 20
0.051115
 10
0.083585
 20
0.051115
  0
LWPOLYLINE
  8
metal4
420
8421631
 90
4
 70
1
 10
0.083585
 20
0.050485
 10
0.083415
 20
0.050485
 10
0.083415
 20
0.050315
 10
0.083585
 20
0.050315
  0
LWPOLYLINE
  8
metal4
420
8421631
 90
4
 70
1
 10
0.083585
 20
0.049685
 10
0.083415
 20
0.049685
 10
0.083415
 20
0.049515
 10
0.083585
 20
0.049515
  0
LWPOLYLINE
  8
metal4
420
8421631
 90
4
 70
1
 10
0.083585
 20
0.048885
 10
0.083415
 20
0.048885
 10
0.083415
 20
0.048715
 10
0.083585
 20
0.048715
  0
LWPOLYLINE
  8
metal4
420
8421631
 90
4
 70
1
 10
0.041585
 20
0.053085
 10
0.041415
 20
0.053085
 10
0.041415
 20
0.052915
 10
0.041585
 20
0.052915
  0
LWPOLYLINE
  8
metal4
420
8421631
 90
4
 70
1
 10
0.043585
 20
0.053085
 10
0.043415
 20
0.053085
 10
0.043415
 20
0.052915
 10
0.043585
 20
0.052915
  0
LWPOLYLINE
  8
metal4
420
8421631
 90
4
 70
1
 10
0.045585
 20
0.053085
 10
0.045415
 20
0.053085
 10
0.045415
 20
0.052915
 10
0.045585
 20
0.052915
  0
LWPOLYLINE
  8
metal4
420
8421631
 90
4
 70
1
 10
0.047585
 20
0.053085
 10
0.047415
 20
0.053085
 10
0.047415
 20
0.052915
 10
0.047585
 20
0.052915
  0
LWPOLYLINE
  8
metal4
420
8421631
 90
4
 70
1
 10
0.041585
 20
0.051085
 10
0.041415
 20
0.051085
 10
0.041415
 20
0.050915
 10
0.041585
 20
0.050915
  0
LWPOLYLINE
  8
metal4
420
8421631
 90
4
 70
1
 10
0.043585
 20
0.051085
 10
0.043415
 20
0.051085
 10
0.043415
 20
0.050915
 10
0.043585
 20
0.050915
  0
LWPOLYLINE
  8
metal4
420
8421631
 90
4
 70
1
 10
0.045585
 20
0.051085
 10
0.045415
 20
0.051085
 10
0.045415
 20
0.050915
 10
0.045585
 20
0.050915
  0
LWPOLYLINE
  8
metal4
420
8421631
 90
4
 70
1
 10
0.047585
 20
0.051085
 10
0.047415
 20
0.051085
 10
0.047415
 20
0.050915
 10
0.047585
 20
0.050915
  0
LWPOLYLINE
  8
metal4
420
8421631
 90
4
 70
1
 10
0.041585
 20
0.049085
 10
0.041415
 20
0.049085
 10
0.041415
 20
0.048915
 10
0.041585
 20
0.048915
  0
LWPOLYLINE
  8
metal4
420
8421631
 90
4
 70
1
 10
0.043585
 20
0.049085
 10
0.043415
 20
0.049085
 10
0.043415
 20
0.048915
 10
0.043585
 20
0.048915
  0
LWPOLYLINE
  8
metal4
420
8421631
 90
4
 70
1
 10
0.045585
 20
0.049085
 10
0.045415
 20
0.049085
 10
0.045415
 20
0.048915
 10
0.045585
 20
0.048915
  0
LWPOLYLINE
  8
metal4
420
8421631
 90
4
 70
1
 10
0.047585
 20
0.049085
 10
0.047415
 20
0.049085
 10
0.047415
 20
0.048915
 10
0.047585
 20
0.048915
  0
LWPOLYLINE
  8
metal4
420
8421631
 90
4
 70
1
 10
0.041585
 20
0.047085
 10
0.041415
 20
0.047085
 10
0.041415
 20
0.046915
 10
0.041585
 20
0.046915
  0
LWPOLYLINE
  8
metal4
420
8421631
 90
4
 70
1
 10
0.043585
 20
0.047085
 10
0.043415
 20
0.047085
 10
0.043415
 20
0.046915
 10
0.043585
 20
0.046915
  0
LWPOLYLINE
  8
metal4
420
8421631
 90
4
 70
1
 10
0.045585
 20
0.047085
 10
0.045415
 20
0.047085
 10
0.045415
 20
0.046915
 10
0.045585
 20
0.046915
  0
LWPOLYLINE
  8
metal4
420
8421631
 90
4
 70
1
 10
0.047585
 20
0.047085
 10
0.047415
 20
0.047085
 10
0.047415
 20
0.046915
 10
0.047585
 20
0.046915
  0
LWPOLYLINE
  8
metal4
420
12632256
 90
12
 70
1
 10
0.133500
 20
0.070000
 10
0.093500
 20
0.070000
 10
0.093500
 20
0.050150
 10
0.083700
 20
0.050150
 10
0.083700
 20
0.052000
 10
0.083300
 20
0.052000
 10
0.083300
 20
0.048000
 10
0.083700
 20
0.048000
 10
0.083700
 20
0.049850
 10
0.093500
 20
0.049850
 10
0.093500
 20
0.030000
 10
0.133500
 20
0.030000
  0
LWPOLYLINE
  8
metal4
420
12632256
 90
4
 70
1
 10
0.064500
 20
0.070000
 10
0.024500
 20
0.070000
 10
0.024500
 20
0.030000
 10
0.064500
 20
0.030000
  0
LWPOLYLINE
  8
pad
420
16776960
 90
4
 70
1
 10
0.029500
 20
0.035000
 10
0.059500
 20
0.035000
 10
0.059500
 20
0.065000
 10
0.029500
 20
0.065000
  0
LWPOLYLINE
  8
pad
420
16776960
 90
4
 70
1
 10
0.098500
 20
0.035000
 10
0.128500
 20
0.035000
 10
0.128500
 20
0.065000
 10
0.098500
 20
0.065000
  0
ENDSEC
  0
EOF
