  0
SECTION
  2
HEADER
  9
$ACADVER
  1
AC1018
  0
ENDSEC
  0
SECTION
  2
TABLES
  0
TABLE
  2
LAYER
  0
LAYER
  2
Silicon_Dioxide
 70
0
 62
7
  0
LAYER
  2
Aluminum
 70
0
 62
7
  0
LAYER
  2
MIMCap
 70
0
 62
7
  0
LAYER
  2
Tungsten
 70
0
 62
7
  0
ENDTAB
  0
ENDSEC
  0
SECTION
  2
ENTITIES
  0
LWPOLYLINE
  8
Aluminum
420
12632256
 90
4
 70
1
 10
0.020500
 20
0.015500
 10
0.009500
 20
0.015500
 10
0.009500
 20
0.004500
 10
0.020500
 20
0.004500
  0
LWPOLYLINE
  8
Aluminum
420
12632256
 90
4
 70
1
 10
0.006500
 20
0.011000
 10
0.004500
 20
0.011000
 10
0.004500
 20
0.009000
 10
0.006500
 20
0.009000
  0
LWPOLYLINE
  8
MIMCap
420
16766720
 90
4
 70
1
 10
0.020000
 20
0.015000
 10
0.010000
 20
0.015000
 10
0.010000
 20
0.005000
 10
0.020000
 20
0.005000
  0
LWPOLYLINE
  8
Tungsten
420
8421631
 90
4
 70
1
 10
0.015200
 20
0.010200
 10
0.014800
 20
0.010200
 10
0.014800
 20
0.009800
 10
0.015200
 20
0.009800
  0
LWPOLYLINE
  8
Tungsten
420
8421631
 90
4
 70
1
 10
0.015200
 20
0.010200
 10
0.014800
 20
0.010200
 10
0.014800
 20
0.009800
 10
0.015200
 20
0.009800
  0
LWPOLYLINE
  8
Tungsten
420
8421631
 90
4
 70
1
 10
0.015200
 20
0.010200
 10
0.014800
 20
0.010200
 10
0.014800
 20
0.009800
 10
0.015200
 20
0.009800
  0
LWPOLYLINE
  8
Aluminum
420
12632256
 90
4
 70
1
 10
0.025500
 20
0.011000
 10
0.023500
 20
0.011000
 10
0.023500
 20
0.009000
 10
0.025500
 20
0.009000
  0
LWPOLYLINE
  8
Aluminum
420
12632256
 90
4
 70
1
 10
0.015500
 20
0.010500
 10
0.014500
 20
0.010500
 10
0.014500
 20
0.009500
 10
0.015500
 20
0.009500
  0
LWPOLYLINE
  8
Silicon_Dioxide
420
14739711
 90
4
 70
1
 10
0.000000
 20
0.000000
 10
0.030000
 20
0.000000
 10
0.030000
 20
0.020000
 10
0.000000
 20
0.020000
  0
LWPOLYLINE
  8
Silicon_Dioxide
420
14739711
 90
4
 70
1
 10
0.000000
 20
0.000000
 10
0.030000
 20
0.000000
 10
0.030000
 20
0.020000
 10
0.000000
 20
0.020000
  0
ENDSEC
  0
EOF
