  0
SECTION
  2
HEADER
  9
$ACADVER
  1
AC1018
  0
ENDSEC
  0
SECTION
  2
TABLES
  0
TABLE
  2
LAYER
  0
LAYER
  2
DRILL
 70
0
 62
0
  0
LAYER
  2
TOP_COMPONENTS
 70
0
 62
7
  0
LAYER
  2
BOTTOM_COMPONENTS
 70
0
 62
7
  0
LAYER
  2
PCB_LAYERS
 70
0
 62
7
  0
ENDTAB
  0
ENDSEC
  0
SECTION
  2
ENTITIES
  0
LWPOLYLINE
  8
PCB_LAYERS
420
12088115
 90
4
 70
1
 10
0.200500
 20
0.300500
 10
0.199500
 20
0.300500
 10
0.199500
 20
0.299500
 10
0.200500
 20
0.299500
  0
LWPOLYLINE
  8
PCB_LAYERS
420
12088115
 90
26
 70
1
 10
0.200500
 20
0.299136
 10
0.200471
 20
0.299119
 10
0.200382
 20
0.299077
 10
0.200290
 20
0.299044
 10
0.200195
 20
0.299020
 10
0.200098
 20
0.299005
 10
0.200000
 20
0.299000
 10
0.199902
 20
0.299005
 10
0.199805
 20
0.299020
 10
0.199710
 20
0.299044
 10
0.199618
 20
0.299077
 10
0.199529
 20
0.299119
 10
0.199500
 20
0.299136
 10
0.199500
 20
0.100863
 10
0.199529
 20
0.100881
 10
0.199618
 20
0.100923
 10
0.199710
 20
0.100956
 10
0.199805
 20
0.100980
 10
0.199902
 20
0.100995
 10
0.200000
 20
0.101000
 10
0.200098
 20
0.100995
 10
0.200195
 20
0.100980
 10
0.200290
 20
0.100956
 10
0.200382
 20
0.100923
 10
0.200471
 20
0.100881
 10
0.200500
 20
0.100863
  0
LWPOLYLINE
  8
PCB_LAYERS
420
12088115
 90
26
 70
1
 10
0.399119
 20
0.299529
 10
0.399077
 20
0.299618
 10
0.399044
 20
0.299710
 10
0.399020
 20
0.299805
 10
0.399005
 20
0.299902
 10
0.399000
 20
0.300000
 10
0.399005
 20
0.300098
 10
0.399020
 20
0.300195
 10
0.399044
 20
0.300290
 10
0.399077
 20
0.300382
 10
0.399119
 20
0.300471
 10
0.399136
 20
0.300500
 10
0.200864
 20
0.300500
 10
0.200881
 20
0.300471
 10
0.200923
 20
0.300382
 10
0.200956
 20
0.300290
 10
0.200980
 20
0.300195
 10
0.200995
 20
0.300098
 10
0.201000
 20
0.300000
 10
0.200995
 20
0.299902
 10
0.200980
 20
0.299805
 10
0.200956
 20
0.299710
 10
0.200923
 20
0.299618
 10
0.200881
 20
0.299529
 10
0.200864
 20
0.299500
 10
0.399136
 20
0.299500
  0
LWPOLYLINE
  8
PCB_LAYERS
420
12088115
 90
4
 70
1
 10
0.400500
 20
0.300500
 10
0.399500
 20
0.300500
 10
0.399500
 20
0.299500
 10
0.400500
 20
0.299500
  0
LWPOLYLINE
  8
PCB_LAYERS
420
12088115
 90
17
 70
1
 10
0.400500
 20
0.499500
 10
0.500500
 20
0.499500
 10
0.500500
 20
0.500500
 10
0.399500
 20
0.500500
 10
0.399500
 20
0.300863
 10
0.399529
 20
0.300881
 10
0.399618
 20
0.300923
 10
0.399710
 20
0.300956
 10
0.399805
 20
0.300980
 10
0.399902
 20
0.300995
 10
0.400000
 20
0.301000
 10
0.400098
 20
0.300995
 10
0.400195
 20
0.300980
 10
0.400290
 20
0.300956
 10
0.400382
 20
0.300923
 10
0.400471
 20
0.300881
 10
0.400500
 20
0.300863
  0
LWPOLYLINE
  8
PCB_LAYERS
420
12088115
 90
15
 70
1
 10
0.199119
 20
0.099529
 10
0.199077
 20
0.099618
 10
0.199044
 20
0.099710
 10
0.199020
 20
0.099805
 10
0.199005
 20
0.099902
 10
0.199000
 20
0.100000
 10
0.199005
 20
0.100098
 10
0.199020
 20
0.100195
 10
0.199044
 20
0.100290
 10
0.199077
 20
0.100382
 10
0.199119
 20
0.100471
 10
0.199136
 20
0.100500
 10
0.099500
 20
0.100500
 10
0.099500
 20
0.099500
 10
0.199136
 20
0.099500
  0
LWPOLYLINE
  8
PCB_LAYERS
420
12088115
 90
4
 70
1
 10
0.200500
 20
0.100500
 10
0.199500
 20
0.100500
 10
0.199500
 20
0.099500
 10
0.200500
 20
0.099500
  0
ENDSEC
  0
EOF
