  0
SECTION
  2
HEADER
  9
$ACADVER
  1
AC1018
  0
ENDSEC
  0
SECTION
  2
TABLES
  0
TABLE
  2
LAYER
  0
LAYER
  2
L_FR4
 70
0
 62
7
420
3046706
440
33554432
  0
LAYER
  2
L_Copper
 70
0
 62
7
420
16766720
440
33554432
  0
ENDTAB
  0
ENDSEC
  0
SECTION
  2
ENTITIES
  0
LWPOLYLINE
  8
Z0.7500mm_FR4
420
3046706
 90
4
 70
1
 10
0.000000
 20
0.000000
 10
50.000000
 20
0.000000
 10
50.000000
 20
30.000000
 10
0.000000
 20
30.000000
  0
LWPOLYLINE
  8
Z1.5050mm_Copper
420
16766720
 90
4
 70
1
 10
5.000000
 20
10.000000
 10
10.000000
 20
10.000000
 10
10.000000
 20
20.000000
 10
5.000000
 20
20.000000
  0
LWPOLYLINE
  8
Z1.5050mm_Copper
420
16766720
 90
4
 70
1
 10
40.000000
 20
10.000000
 10
45.000000
 20
10.000000
 10
45.000000
 20
20.000000
 10
40.000000
 20
20.000000
  0
LWPOLYLINE
  8
Z1.5100mm_Copper
420
16766720
 90
4
 70
1
 10
7.450000
 20
14.950000
 10
9.050000
 20
14.950000
 10
9.050000
 20
15.050000
 10
7.450000
 20
15.050000
  0
LWPOLYLINE
  8
Z1.5150mm_Copper
420
16766720
 90
4
 70
1
 10
8.950000
 20
14.950000
 10
42.050000
 20
14.950000
 10
42.050000
 20
15.050000
 10
8.950000
 20
15.050000
  0
LWPOLYLINE
  8
Z1.5150mm_Copper
420
16766720
 90
4
 70
1
 10
41.950000
 20
14.950000
 10
42.550000
 20
14.950000
 10
42.550000
 20
15.050000
 10
41.950000
 20
15.050000
  0
LWPOLYLINE
  8
Z1.5050mm_Copper_Traces
420
16766720
 43
0.100000
 90
2
 70
0
 10
7.500000
 20
15.000000
 10
9.000000
 20
15.000000
  0
LWPOLYLINE
  8
Z1.5100mm_Copper_Traces
420
16766720
 43
0.100000
 90
2
 70
0
 10
9.000000
 20
15.000000
 10
42.000000
 20
15.000000
  0
LWPOLYLINE
  8
Z1.5100mm_Copper_Traces
420
16766720
 43
0.100000
 90
2
 70
0
 10
42.000000
 20
15.000000
 10
42.500000
 20
15.000000
  0
ENDSEC
  0
EOF
