  0
SECTION
  2
HEADER
  9
$ACADVER
  1
AC1018
  0
ENDSEC
  0
SECTION
  2
TABLES
  0
TABLE
  2
LAYER
  0
LAYER
  2
L_Polysilicon
 70
0
 62
7
420
8421504
440
33554432
  0
LAYER
  2
L_Silicon_N
 70
0
 62
7
420
11393254
440
33554432
  0
LAYER
  2
L_Silicon_P
 70
0
 62
7
420
16758465
440
33554432
  0
ENDTAB
  0
ENDSEC
  0
SECTION
  2
ENTITIES
  0
LWPOLYLINE
  8
L0_Polysilicon
420
8421504
 90
4
 70
1
 10
0.400000
 20
0.400000
 10
0.600000
 20
0.400000
 10
0.600000
 20
1.200000
 10
0.400000
 20
1.200000
  0
LWPOLYLINE
  8
L0_Silicon_N
420
11393254
 90
4
 70
1
 10
0.400000
 20
0.200000
 10
0.600000
 20
0.200000
 10
0.600000
 20
0.400000
 10
0.400000
 20
0.400000
  0
LWPOLYLINE
  8
L0_Silicon_N
420
11393254
 90
4
 70
1
 10
0.400000
 20
1.200000
 10
0.600000
 20
1.200000
 10
0.600000
 20
1.400000
 10
0.400000
 20
1.400000
  0
LWPOLYLINE
  8
L0_Silicon_P
420
16758465
 90
4
 70
1
 10
0.200000
 20
0.700000
 10
0.400000
 20
0.700000
 10
0.400000
 20
0.900000
 10
0.200000
 20
0.900000
  0
LWPOLYLINE
  8
L0_Polysilicon
420
8421504
 90
4
 70
1
 10
1.000000
 20
0.400000
 10
1.200000
 20
0.400000
 10
1.200000
 20
1.200000
 10
1.000000
 20
1.200000
  0
LWPOLYLINE
  8
L0_Silicon_P
420
16758465
 90
4
 70
1
 10
1.000000
 20
0.200000
 10
1.200000
 20
0.200000
 10
1.200000
 20
0.400000
 10
1.000000
 20
0.400000
  0
LWPOLYLINE
  8
L0_Silicon_P
420
16758465
 90
4
 70
1
 10
1.000000
 20
1.200000
 10
1.200000
 20
1.200000
 10
1.200000
 20
1.400000
 10
1.000000
 20
1.400000
  0
LWPOLYLINE
  8
L0_Silicon_N
420
11393254
 90
4
 70
1
 10
1.200000
 20
0.700000
 10
1.400000
 20
0.700000
 10
1.400000
 20
0.900000
 10
1.200000
 20
0.900000
  0
ENDSEC
  0
EOF
