  0
SECTION
  2
HEADER
  9
$ACADVER
  1
AC1018
  0
ENDSEC
  0
SECTION
  2
TABLES
  0
TABLE
  2
LAYER
  0
LAYER
  2
tap
 70
0
 62
7
  0
LAYER
  2
psdm
 70
0
 62
7
  0
LAYER
  2
pdiff
 70
0
 62
7
  0
LAYER
  2
polyres
 70
0
 62
7
  0
LAYER
  2
rpm
 70
0
 62
7
  0
LAYER
  2
npc
 70
0
 62
7
  0
LAYER
  2
li1
 70
0
 62
7
  0
LAYER
  2
metal1
 70
0
 62
7
  0
LAYER
  2
pad
 70
0
 62
7
  0
LAYER
  2
licon
 70
0
 62
7
  0
LAYER
  2
mcon
 70
0
 62
7
  0
LAYER
  2
Resistor_Poly_Mask
 70
0
 62
7
  0
LAYER
  2
P_Plus_Implant_Mask
 70
0
 62
7
  0
LAYER
  2
Npc_Mask
 70
0
 62
7
  0
LAYER
  2
Tap_Mask
 70
0
 62
7
  0
LAYER
  2
Pad_Mask
 70
0
 62
7
  0
ENDTAB
  0
ENDSEC
  0
SECTION
  2
ENTITIES
  0
LWPOLYLINE
  8
pdiff
420
8454016
 90
4
 70
1
 10
0.015200
 20
0.022400
 10
0.014800
 20
0.022400
 10
0.014800
 20
0.022000
 10
0.015200
 20
0.022000
  0
LWPOLYLINE
  8
pdiff
420
8421631
 90
4
 70
1
 10
0.015085
 20
0.022285
 10
0.014915
 20
0.022285
 10
0.014915
 20
0.022115
 10
0.015085
 20
0.022115
  0
LWPOLYLINE
  8
polyres
420
16736352
 90
22
 70
1
 10
0.011000
 20
0.019500
 10
0.010000
 20
0.019500
 10
0.010000
 20
0.017500
 10
0.010000
 20
0.016500
 10
0.019000
 20
0.016500
 10
0.019000
 20
0.014500
 10
0.010000
 20
0.014500
 10
0.010000
 20
0.013500
 10
0.010000
 20
0.011500
 10
0.010000
 20
0.010500
 10
0.019000
 20
0.010500
 10
0.019000
 20
0.008500
 10
0.020000
 20
0.008500
 10
0.020000
 20
0.010500
 10
0.020000
 20
0.011500
 10
0.011000
 20
0.011500
 10
0.011000
 20
0.013500
 10
0.020000
 20
0.013500
 10
0.020000
 20
0.014500
 10
0.020000
 20
0.016500
 10
0.020000
 20
0.017500
 10
0.011000
 20
0.017500
  0
LWPOLYLINE
  8
polyres
420
16736352
 90
4
 70
1
 10
0.020000
 20
0.008500
 10
0.010000
 20
0.008500
 10
0.010000
 20
0.007500
 10
0.020000
 20
0.007500
  0
LWPOLYLINE
  8
polyres
420
16736352
 90
4
 70
1
 10
0.020000
 20
0.020500
 10
0.010000
 20
0.020500
 10
0.010000
 20
0.019500
 10
0.020000
 20
0.019500
  0
LWPOLYLINE
  8
polyres
420
8421631
 90
4
 70
1
 10
0.010325
 20
0.008285
 10
0.010155
 20
0.008285
 10
0.010155
 20
0.008115
 10
0.010325
 20
0.008115
  0
LWPOLYLINE
  8
polyres
420
8421631
 90
4
 70
1
 10
0.010325
 20
0.007885
 10
0.010155
 20
0.007885
 10
0.010155
 20
0.007715
 10
0.010325
 20
0.007715
  0
LWPOLYLINE
  8
polyres
420
8421631
 90
4
 70
1
 10
0.019845
 20
0.020285
 10
0.019675
 20
0.020285
 10
0.019675
 20
0.020115
 10
0.019845
 20
0.020115
  0
LWPOLYLINE
  8
polyres
420
8421631
 90
4
 70
1
 10
0.019845
 20
0.019885
 10
0.019675
 20
0.019885
 10
0.019675
 20
0.019715
 10
0.019845
 20
0.019715
  0
LWPOLYLINE
  8
licon
420
8421631
 90
4
 70
1
 10
0.010325
 20
0.008285
 10
0.010155
 20
0.008285
 10
0.010155
 20
0.008115
 10
0.010325
 20
0.008115
  0
LWPOLYLINE
  8
licon
420
8421631
 90
4
 70
1
 10
0.010325
 20
0.007885
 10
0.010155
 20
0.007885
 10
0.010155
 20
0.007715
 10
0.010325
 20
0.007715
  0
LWPOLYLINE
  8
licon
420
8421631
 90
4
 70
1
 10
0.019845
 20
0.020285
 10
0.019675
 20
0.020285
 10
0.019675
 20
0.020115
 10
0.019845
 20
0.020115
  0
LWPOLYLINE
  8
licon
420
8421631
 90
4
 70
1
 10
0.019845
 20
0.019885
 10
0.019675
 20
0.019885
 10
0.019675
 20
0.019715
 10
0.019845
 20
0.019715
  0
LWPOLYLINE
  8
licon
420
8421631
 90
4
 70
1
 10
0.015085
 20
0.022285
 10
0.014915
 20
0.022285
 10
0.014915
 20
0.022115
 10
0.015085
 20
0.022115
  0
LWPOLYLINE
  8
li1
420
8421631
 90
4
 70
1
 10
0.010325
 20
0.008285
 10
0.010155
 20
0.008285
 10
0.010155
 20
0.008115
 10
0.010325
 20
0.008115
  0
LWPOLYLINE
  8
li1
420
8421631
 90
4
 70
1
 10
0.010325
 20
0.007885
 10
0.010155
 20
0.007885
 10
0.010155
 20
0.007715
 10
0.010325
 20
0.007715
  0
LWPOLYLINE
  8
li1
420
8421631
 90
4
 70
1
 10
0.019845
 20
0.020285
 10
0.019675
 20
0.020285
 10
0.019675
 20
0.020115
 10
0.019845
 20
0.020115
  0
LWPOLYLINE
  8
li1
420
8421631
 90
4
 70
1
 10
0.019845
 20
0.019885
 10
0.019675
 20
0.019885
 10
0.019675
 20
0.019715
 10
0.019845
 20
0.019715
  0
LWPOLYLINE
  8
li1
420
8421631
 90
4
 70
1
 10
0.015085
 20
0.022285
 10
0.014915
 20
0.022285
 10
0.014915
 20
0.022115
 10
0.015085
 20
0.022115
  0
LWPOLYLINE
  8
li1
420
4210752
 90
4
 70
1
 10
0.010480
 20
0.008500
 10
0.010000
 20
0.008500
 10
0.010000
 20
0.007500
 10
0.010480
 20
0.007500
  0
LWPOLYLINE
  8
li1
420
4210752
 90
4
 70
1
 10
0.020000
 20
0.020500
 10
0.019520
 20
0.020500
 10
0.019520
 20
0.019500
 10
0.020000
 20
0.019500
  0
LWPOLYLINE
  8
li1
420
4210752
 90
4
 70
1
 10
0.015200
 20
0.022400
 10
0.014800
 20
0.022400
 10
0.014800
 20
0.022000
 10
0.015200
 20
0.022000
  0
LWPOLYLINE
  8
mcon
420
8421631
 90
4
 70
1
 10
0.010325
 20
0.008285
 10
0.010155
 20
0.008285
 10
0.010155
 20
0.008115
 10
0.010325
 20
0.008115
  0
LWPOLYLINE
  8
mcon
420
8421631
 90
4
 70
1
 10
0.010325
 20
0.007885
 10
0.010155
 20
0.007885
 10
0.010155
 20
0.007715
 10
0.010325
 20
0.007715
  0
LWPOLYLINE
  8
mcon
420
8421631
 90
4
 70
1
 10
0.019845
 20
0.020285
 10
0.019675
 20
0.020285
 10
0.019675
 20
0.020115
 10
0.019845
 20
0.020115
  0
LWPOLYLINE
  8
mcon
420
8421631
 90
4
 70
1
 10
0.019845
 20
0.019885
 10
0.019675
 20
0.019885
 10
0.019675
 20
0.019715
 10
0.019845
 20
0.019715
  0
LWPOLYLINE
  8
mcon
420
8421631
 90
4
 70
1
 10
0.015085
 20
0.022285
 10
0.014915
 20
0.022285
 10
0.014915
 20
0.022115
 10
0.015085
 20
0.022115
  0
LWPOLYLINE
  8
metal1
420
8421631
 90
4
 70
1
 10
0.010325
 20
0.008285
 10
0.010155
 20
0.008285
 10
0.010155
 20
0.008115
 10
0.010325
 20
0.008115
  0
LWPOLYLINE
  8
metal1
420
8421631
 90
4
 70
1
 10
0.010325
 20
0.007885
 10
0.010155
 20
0.007885
 10
0.010155
 20
0.007715
 10
0.010325
 20
0.007715
  0
LWPOLYLINE
  8
metal1
420
8421631
 90
4
 70
1
 10
0.019845
 20
0.020285
 10
0.019675
 20
0.020285
 10
0.019675
 20
0.020115
 10
0.019845
 20
0.020115
  0
LWPOLYLINE
  8
metal1
420
8421631
 90
4
 70
1
 10
0.019845
 20
0.019885
 10
0.019675
 20
0.019885
 10
0.019675
 20
0.019715
 10
0.019845
 20
0.019715
  0
LWPOLYLINE
  8
metal1
420
8421631
 90
4
 70
1
 10
0.015085
 20
0.022285
 10
0.014915
 20
0.022285
 10
0.014915
 20
0.022115
 10
0.015085
 20
0.022115
  0
LWPOLYLINE
  8
metal1
420
12632256
 90
12
 70
1
 10
0.008500
 20
0.007850
 10
0.010000
 20
0.007850
 10
0.010000
 20
0.007500
 10
0.010480
 20
0.007500
 10
0.010480
 20
0.008500
 10
0.010000
 20
0.008500
 10
0.010000
 20
0.008150
 10
0.008500
 20
0.008150
 10
0.008500
 20
0.009000
 10
0.006500
 20
0.009000
 10
0.006500
 20
0.007000
 10
0.008500
 20
0.007000
  0
LWPOLYLINE
  8
metal1
420
12632256
 90
12
 70
1
 10
0.023500
 20
0.021000
 10
0.021500
 20
0.021000
 10
0.021500
 20
0.020150
 10
0.020000
 20
0.020150
 10
0.020000
 20
0.020500
 10
0.019520
 20
0.020500
 10
0.019520
 20
0.019500
 10
0.020000
 20
0.019500
 10
0.020000
 20
0.019850
 10
0.021500
 20
0.019850
 10
0.021500
 20
0.019000
 10
0.023500
 20
0.019000
  0
LWPOLYLINE
  8
metal1
420
12632256
 90
12
 70
1
 10
0.015200
 20
0.022400
 10
0.015150
 20
0.022400
 10
0.015150
 20
0.024000
 10
0.016000
 20
0.024000
 10
0.016000
 20
0.026000
 10
0.014000
 20
0.026000
 10
0.014000
 20
0.024000
 10
0.014850
 20
0.024000
 10
0.014850
 20
0.022400
 10
0.014800
 20
0.022400
 10
0.014800
 20
0.022000
 10
0.015200
 20
0.022000
  0
LWPOLYLINE
  8
rpm
420
16728128
 90
4
 70
1
 10
0.010675
 20
0.007290
 10
0.019325
 20
0.007290
 10
0.019325
 20
0.020710
 10
0.010675
 20
0.020710
  0
LWPOLYLINE
  8
rpm
420
16728128
 90
4
 70
1
 10
0.010675
 20
0.007290
 10
0.020000
 20
0.007290
 10
0.020000
 20
0.008710
 10
0.010675
 20
0.008710
  0
LWPOLYLINE
  8
rpm
420
16728128
 90
4
 70
1
 10
0.010000
 20
0.019290
 10
0.019325
 20
0.019290
 10
0.019325
 20
0.020710
 10
0.010000
 20
0.020710
  0
LWPOLYLINE
  8
psdm
420
16744703
 90
4
 70
1
 10
0.009870
 20
0.007370
 10
0.020130
 20
0.007370
 10
0.020130
 20
0.020630
 10
0.009870
 20
0.020630
  0
LWPOLYLINE
  8
npc
420
4259839
 90
4
 70
1
 10
0.009900
 20
0.007400
 10
0.010480
 20
0.007400
 10
0.010480
 20
0.008600
 10
0.009900
 20
0.008600
  0
LWPOLYLINE
  8
npc
420
4259839
 90
4
 70
1
 10
0.019520
 20
0.019400
 10
0.020100
 20
0.019400
 10
0.020100
 20
0.020600
 10
0.019520
 20
0.020600
  0
LWPOLYLINE
  8
tap
420
8454016
 90
4
 70
1
 10
0.014800
 20
0.022000
 10
0.015200
 20
0.022000
 10
0.015200
 20
0.022400
 10
0.014800
 20
0.022400
  0
LWPOLYLINE
  8
psdm
420
16744703
 90
4
 70
1
 10
0.014670
 20
0.021870
 10
0.015330
 20
0.021870
 10
0.015330
 20
0.022530
 10
0.014670
 20
0.022530
  0
LWPOLYLINE
  8
pad
420
16776960
 90
4
 70
1
 10
0.006500
 20
0.007000
 10
0.008500
 20
0.007000
 10
0.008500
 20
0.009000
 10
0.006500
 20
0.009000
  0
LWPOLYLINE
  8
pad
420
16776960
 90
4
 70
1
 10
0.021500
 20
0.019000
 10
0.023500
 20
0.019000
 10
0.023500
 20
0.021000
 10
0.021500
 20
0.021000
  0
LWPOLYLINE
  8
pad
420
16776960
 90
4
 70
1
 10
0.014000
 20
0.024000
 10
0.016000
 20
0.024000
 10
0.016000
 20
0.026000
 10
0.014000
 20
0.026000
  0
ENDSEC
  0
EOF
