  0
SECTION
  2
HEADER
  9
$ACADVER
  1
AC1018
  0
ENDSEC
  0
SECTION
  2
TABLES
  0
TABLE
  2
LAYER
  0
LAYER
  2
Polysilicon
 70
0
 62
7
  0
LAYER
  2
Aluminum
 70
0
 62
7
  0
LAYER
  2
Titanium_Silicide
 70
0
 62
7
  0
ENDTAB
  0
ENDSEC
  0
SECTION
  2
ENTITIES
  0
LWPOLYLINE
  8
Titanium_Silicide
420
4210752
 90
4
 70
1
 10
0.000700
 20
0.002200
 10
0.000300
 20
0.002200
 10
0.000300
 20
0.001800
 10
0.000700
 20
0.001800
  0
LWPOLYLINE
  8
Titanium_Silicide
420
4210752
 90
4
 70
1
 10
0.009700
 20
0.010200
 10
0.009300
 20
0.010200
 10
0.009300
 20
0.009800
 10
0.009700
 20
0.009800
  0
LWPOLYLINE
  8
Polysilicon
420
16736352
 90
28
 70
1
 10
0.010000
 20
0.002000
 10
0.010000
 20
0.003500
 10
0.010000
 20
0.004500
 10
0.001000
 20
0.004500
 10
0.001000
 20
0.005500
 10
0.010000
 20
0.005500
 10
0.010000
 20
0.006000
 10
0.010000
 20
0.007500
 10
0.010000
 20
0.008500
 10
0.001000
 20
0.008500
 10
0.001000
 20
0.009500
 10
0.010000
 20
0.009500
 10
0.010000
 20
0.010500
 10
0.000000
 20
0.010500
 10
0.000000
 20
0.010000
 10
0.000000
 20
0.008500
 10
0.000000
 20
0.007500
 10
0.009000
 20
0.007500
 10
0.009000
 20
0.006500
 10
0.000000
 20
0.006500
 10
0.000000
 20
0.006000
 10
0.000000
 20
0.004500
 10
0.000000
 20
0.003500
 10
0.009000
 20
0.003500
 10
0.009000
 20
0.002500
 10
0.000000
 20
0.002500
 10
0.000000
 20
0.001500
 10
0.010000
 20
0.001500
  0
LWPOLYLINE
  8
Aluminum
420
12632256
 90
8
 70
1
 10
0.001500
 20
0.002500
 10
0.000500
 20
0.002500
 10
0.000500
 20
0.002400
 10
0.000100
 20
0.002400
 10
0.000100
 20
0.001600
 10
0.000500
 20
0.001600
 10
0.000500
 20
0.001500
 10
0.001500
 20
0.001500
  0
LWPOLYLINE
  8
Aluminum
420
12632256
 90
12
 70
1
 10
0.013500
 20
0.010500
 10
0.012500
 20
0.010500
 10
0.012500
 20
0.010250
 10
0.009900
 20
0.010250
 10
0.009900
 20
0.010400
 10
0.009100
 20
0.010400
 10
0.009100
 20
0.009600
 10
0.009900
 20
0.009600
 10
0.009900
 20
0.009750
 10
0.012500
 20
0.009750
 10
0.012500
 20
0.009500
 10
0.013500
 20
0.009500
  0
ENDSEC
  0
EOF
