  0
SECTION
  2
HEADER
  9
$ACADVER
  1
AC1018
  0
ENDSEC
  0
SECTION
  2
TABLES
  0
TABLE
  2
LAYER
  0
LAYER
  2
Tap_Mask
 70
0
 62
7
  0
LAYER
  2
P_Plus_Implant_Mask
 70
0
 62
7
  0
LAYER
  2
P_Plus_Diffusion
 70
0
 62
7
  0
LAYER
  2
Polysilicon
 70
0
 62
7
  0
LAYER
  2
Resistor_Poly_Mask
 70
0
 62
7
  0
LAYER
  2
Silicon_Dioxide
 70
0
 62
7
  0
LAYER
  2
Titanium_Silicide
 70
0
 62
7
  0
LAYER
  2
Aluminum
 70
0
 62
7
  0
LAYER
  2
Pad_Mask
 70
0
 62
7
  0
LAYER
  2
Tungsten
 70
0
 62
7
  0
ENDTAB
  0
ENDSEC
  0
SECTION
  2
ENTITIES
  0
LWPOLYLINE
  8
P_Plus_Diffusion
420
8454016
 90
4
 70
1
 10
0.012700
 20
0.023700
 10
0.012300
 20
0.023700
 10
0.012300
 20
0.023300
 10
0.012700
 20
0.023300
  0
LWPOLYLINE
  8
Tungsten
420
8421631
 90
4
 70
1
 10
0.012625
 20
0.023625
 10
0.012375
 20
0.023625
 10
0.012375
 20
0.023375
 10
0.012625
 20
0.023375
  0
LWPOLYLINE
  8
Polysilicon
420
16736352
 90
28
 70
1
 10
0.017500
 20
0.019000
 10
0.007500
 20
0.019000
 10
0.007500
 20
0.018000
 10
0.007500
 20
0.016000
 10
0.007500
 20
0.015000
 10
0.016500
 20
0.015000
 10
0.016500
 20
0.013000
 10
0.007500
 20
0.013000
 10
0.007500
 20
0.012000
 10
0.007500
 20
0.010000
 10
0.007500
 20
0.009000
 10
0.016500
 20
0.009000
 10
0.016500
 20
0.007000
 10
0.007500
 20
0.007000
 10
0.007500
 20
0.006000
 10
0.017500
 20
0.006000
 10
0.017500
 20
0.007000
 10
0.017500
 20
0.009000
 10
0.017500
 20
0.010000
 10
0.008500
 20
0.010000
 10
0.008500
 20
0.012000
 10
0.017500
 20
0.012000
 10
0.017500
 20
0.013000
 10
0.017500
 20
0.015000
 10
0.017500
 20
0.016000
 10
0.008500
 20
0.016000
 10
0.008500
 20
0.018000
 10
0.017500
 20
0.018000
  0
LWPOLYLINE
  8
Tungsten
420
8421631
 90
4
 70
1
 10
0.012625
 20
0.023625
 10
0.012375
 20
0.023625
 10
0.012375
 20
0.023375
 10
0.012625
 20
0.023375
  0
LWPOLYLINE
  8
Tungsten
420
8421631
 90
4
 70
1
 10
0.007825
 20
0.006625
 10
0.007575
 20
0.006625
 10
0.007575
 20
0.006375
 10
0.007825
 20
0.006375
  0
LWPOLYLINE
  8
Tungsten
420
8421631
 90
4
 70
1
 10
0.017425
 20
0.018625
 10
0.017175
 20
0.018625
 10
0.017175
 20
0.018375
 10
0.017425
 20
0.018375
  0
LWPOLYLINE
  8
Tungsten
420
8421631
 90
4
 70
1
 10
0.007825
 20
0.006625
 10
0.007575
 20
0.006625
 10
0.007575
 20
0.006375
 10
0.007825
 20
0.006375
  0
LWPOLYLINE
  8
Tungsten
420
8421631
 90
4
 70
1
 10
0.017425
 20
0.018625
 10
0.017175
 20
0.018625
 10
0.017175
 20
0.018375
 10
0.017425
 20
0.018375
  0
LWPOLYLINE
  8
Tungsten
420
8421631
 90
4
 70
1
 10
0.012625
 20
0.023625
 10
0.012375
 20
0.023625
 10
0.012375
 20
0.023375
 10
0.012625
 20
0.023375
  0
LWPOLYLINE
  8
Tungsten
420
8421631
 90
4
 70
1
 10
0.007825
 20
0.006625
 10
0.007575
 20
0.006625
 10
0.007575
 20
0.006375
 10
0.007825
 20
0.006375
  0
LWPOLYLINE
  8
Tungsten
420
8421631
 90
4
 70
1
 10
0.017425
 20
0.018625
 10
0.017175
 20
0.018625
 10
0.017175
 20
0.018375
 10
0.017425
 20
0.018375
  0
LWPOLYLINE
  8
Tungsten
420
8421631
 90
4
 70
1
 10
0.012625
 20
0.023625
 10
0.012375
 20
0.023625
 10
0.012375
 20
0.023375
 10
0.012625
 20
0.023375
  0
LWPOLYLINE
  8
Titanium_Silicide
420
4210752
 90
4
 70
1
 10
0.007900
 20
0.006700
 10
0.007500
 20
0.006700
 10
0.007500
 20
0.006300
 10
0.007900
 20
0.006300
  0
LWPOLYLINE
  8
Titanium_Silicide
420
4210752
 90
4
 70
1
 10
0.017500
 20
0.018700
 10
0.017100
 20
0.018700
 10
0.017100
 20
0.018300
 10
0.017500
 20
0.018300
  0
LWPOLYLINE
  8
Titanium_Silicide
420
4210752
 90
4
 70
1
 10
0.012700
 20
0.023700
 10
0.012300
 20
0.023700
 10
0.012300
 20
0.023300
 10
0.012700
 20
0.023300
  0
LWPOLYLINE
  8
Tungsten
420
8421631
 90
4
 70
1
 10
0.007825
 20
0.006625
 10
0.007575
 20
0.006625
 10
0.007575
 20
0.006375
 10
0.007825
 20
0.006375
  0
LWPOLYLINE
  8
Tungsten
420
8421631
 90
4
 70
1
 10
0.017425
 20
0.018625
 10
0.017175
 20
0.018625
 10
0.017175
 20
0.018375
 10
0.017425
 20
0.018375
  0
LWPOLYLINE
  8
Tungsten
420
8421631
 90
4
 70
1
 10
0.012625
 20
0.023625
 10
0.012375
 20
0.023625
 10
0.012375
 20
0.023375
 10
0.012625
 20
0.023375
  0
LWPOLYLINE
  8
Tungsten
420
8421631
 90
4
 70
1
 10
0.007825
 20
0.006625
 10
0.007575
 20
0.006625
 10
0.007575
 20
0.006375
 10
0.007825
 20
0.006375
  0
LWPOLYLINE
  8
Tungsten
420
8421631
 90
4
 70
1
 10
0.017425
 20
0.018625
 10
0.017175
 20
0.018625
 10
0.017175
 20
0.018375
 10
0.017425
 20
0.018375
  0
LWPOLYLINE
  8
Tungsten
420
8421631
 90
4
 70
1
 10
0.012625
 20
0.023625
 10
0.012375
 20
0.023625
 10
0.012375
 20
0.023375
 10
0.012625
 20
0.023375
  0
LWPOLYLINE
  8
Tungsten
420
8421631
 90
4
 70
1
 10
0.007825
 20
0.006625
 10
0.007575
 20
0.006625
 10
0.007575
 20
0.006375
 10
0.007825
 20
0.006375
  0
LWPOLYLINE
  8
Tungsten
420
8421631
 90
4
 70
1
 10
0.017425
 20
0.018625
 10
0.017175
 20
0.018625
 10
0.017175
 20
0.018375
 10
0.017425
 20
0.018375
  0
LWPOLYLINE
  8
Tungsten
420
8421631
 90
4
 70
1
 10
0.012625
 20
0.023625
 10
0.012375
 20
0.023625
 10
0.012375
 20
0.023375
 10
0.012625
 20
0.023375
  0
LWPOLYLINE
  8
Aluminum
420
12632256
 90
12
 70
1
 10
0.005000
 20
0.006350
 10
0.007500
 20
0.006350
 10
0.007500
 20
0.006300
 10
0.007900
 20
0.006300
 10
0.007900
 20
0.006700
 10
0.007500
 20
0.006700
 10
0.007500
 20
0.006650
 10
0.005000
 20
0.006650
 10
0.005000
 20
0.007000
 10
0.004000
 20
0.007000
 10
0.004000
 20
0.006000
 10
0.005000
 20
0.006000
  0
LWPOLYLINE
  8
Aluminum
420
12632256
 90
12
 70
1
 10
0.021000
 20
0.019000
 10
0.020000
 20
0.019000
 10
0.020000
 20
0.018650
 10
0.017500
 20
0.018650
 10
0.017500
 20
0.018700
 10
0.017100
 20
0.018700
 10
0.017100
 20
0.018300
 10
0.017500
 20
0.018300
 10
0.017500
 20
0.018350
 10
0.020000
 20
0.018350
 10
0.020000
 20
0.018000
 10
0.021000
 20
0.018000
  0
LWPOLYLINE
  8
Aluminum
420
12632256
 90
4
 70
1
 10
0.012700
 20
0.023700
 10
0.012300
 20
0.023700
 10
0.012300
 20
0.023300
 10
0.012700
 20
0.023300
  0
LWPOLYLINE
  8
Silicon_Dioxide
420
14739711
 90
4
 70
1
 10
0.000000
 20
0.000000
 10
0.025000
 20
0.000000
 10
0.025000
 20
0.025000
 10
0.000000
 20
0.025000
  0
LWPOLYLINE
  8
Silicon_Dioxide
420
14739711
 90
4
 70
1
 10
0.000000
 20
0.000000
 10
0.025000
 20
0.000000
 10
0.025000
 20
0.025000
 10
0.000000
 20
0.025000
  0
LWPOLYLINE
  8
Resistor_Poly_Mask
420
16728128
 90
4
 70
1
 10
0.007500
 20
0.005820
 10
0.017500
 20
0.005820
 10
0.017500
 20
0.019180
 10
0.007500
 20
0.019180
  0
LWPOLYLINE
  8
P_Plus_Implant_Mask
420
16744703
 90
4
 70
1
 10
0.007370
 20
0.005870
 10
0.017630
 20
0.005870
 10
0.017630
 20
0.019130
 10
0.007370
 20
0.019130
  0
LWPOLYLINE
  8
Tap_Mask
420
8454016
 90
4
 70
1
 10
0.012300
 20
0.023300
 10
0.012700
 20
0.023300
 10
0.012700
 20
0.023700
 10
0.012300
 20
0.023700
  0
LWPOLYLINE
  8
P_Plus_Implant_Mask
420
16744703
 90
4
 70
1
 10
0.012170
 20
0.023170
 10
0.012830
 20
0.023170
 10
0.012830
 20
0.023830
 10
0.012170
 20
0.023830
  0
LWPOLYLINE
  8
Pad_Mask
420
14729320
 90
4
 70
1
 10
0.004200
 20
0.006200
 10
0.004800
 20
0.006200
 10
0.004800
 20
0.006800
 10
0.004200
 20
0.006800
  0
LWPOLYLINE
  8
Pad_Mask
420
14729320
 90
4
 70
1
 10
0.020200
 20
0.018200
 10
0.020800
 20
0.018200
 10
0.020800
 20
0.018800
 10
0.020200
 20
0.018800
  0
ENDSEC
  0
EOF
