  0
SECTION
  2
HEADER
  9
$ACADVER
  1
AC1018
  0
ENDSEC
  0
SECTION
  2
TABLES
  0
TABLE
  2
LAYER
  0
LAYER
  2
Tap_Mask
 70
0
 62
7
  0
LAYER
  2
P_Plus_Implant_Mask
 70
0
 62
7
  0
LAYER
  2
P_Plus_Diffusion
 70
0
 62
7
  0
LAYER
  2
Polysilicon
 70
0
 62
7
  0
LAYER
  2
Resistor_Poly_Mask
 70
0
 62
7
  0
LAYER
  2
Npc_Mask
 70
0
 62
7
  0
LAYER
  2
Silicon_Dioxide
 70
0
 62
7
  0
LAYER
  2
Titanium_Nitride
 70
0
 62
7
  0
LAYER
  2
Aluminum
 70
0
 62
7
  0
LAYER
  2
Pad_Mask
 70
0
 62
7
  0
LAYER
  2
Tungsten
 70
0
 62
7
  0
ENDTAB
  0
ENDSEC
  0
SECTION
  2
ENTITIES
  0
LWPOLYLINE
  8
P_Plus_Diffusion
420
8454016
 90
4
 70
1
 10
0.015200
 20
0.022400
 10
0.014800
 20
0.022400
 10
0.014800
 20
0.022000
 10
0.015200
 20
0.022000
  0
LWPOLYLINE
  8
Tungsten
420
8421631
 90
4
 70
1
 10
0.015085
 20
0.022285
 10
0.014915
 20
0.022285
 10
0.014915
 20
0.022115
 10
0.015085
 20
0.022115
  0
LWPOLYLINE
  8
Polysilicon
420
16736352
 90
22
 70
1
 10
0.011000
 20
0.019500
 10
0.010000
 20
0.019500
 10
0.010000
 20
0.017500
 10
0.010000
 20
0.016500
 10
0.019000
 20
0.016500
 10
0.019000
 20
0.014500
 10
0.010000
 20
0.014500
 10
0.010000
 20
0.013500
 10
0.010000
 20
0.011500
 10
0.010000
 20
0.010500
 10
0.019000
 20
0.010500
 10
0.019000
 20
0.008500
 10
0.020000
 20
0.008500
 10
0.020000
 20
0.010500
 10
0.020000
 20
0.011500
 10
0.011000
 20
0.011500
 10
0.011000
 20
0.013500
 10
0.020000
 20
0.013500
 10
0.020000
 20
0.014500
 10
0.020000
 20
0.016500
 10
0.020000
 20
0.017500
 10
0.011000
 20
0.017500
  0
LWPOLYLINE
  8
Polysilicon
420
16736352
 90
4
 70
1
 10
0.020000
 20
0.008500
 10
0.010000
 20
0.008500
 10
0.010000
 20
0.007500
 10
0.020000
 20
0.007500
  0
LWPOLYLINE
  8
Polysilicon
420
16736352
 90
4
 70
1
 10
0.020000
 20
0.020500
 10
0.010000
 20
0.020500
 10
0.010000
 20
0.019500
 10
0.020000
 20
0.019500
  0
LWPOLYLINE
  8
Tungsten
420
8421631
 90
4
 70
1
 10
0.010325
 20
0.008285
 10
0.010155
 20
0.008285
 10
0.010155
 20
0.008115
 10
0.010325
 20
0.008115
  0
LWPOLYLINE
  8
Tungsten
420
8421631
 90
4
 70
1
 10
0.010325
 20
0.007885
 10
0.010155
 20
0.007885
 10
0.010155
 20
0.007715
 10
0.010325
 20
0.007715
  0
LWPOLYLINE
  8
Tungsten
420
8421631
 90
4
 70
1
 10
0.019845
 20
0.020285
 10
0.019675
 20
0.020285
 10
0.019675
 20
0.020115
 10
0.019845
 20
0.020115
  0
LWPOLYLINE
  8
Tungsten
420
8421631
 90
4
 70
1
 10
0.019845
 20
0.019885
 10
0.019675
 20
0.019885
 10
0.019675
 20
0.019715
 10
0.019845
 20
0.019715
  0
LWPOLYLINE
  8
Titanium_Nitride
420
4210752
 90
4
 70
1
 10
0.010480
 20
0.008500
 10
0.010000
 20
0.008500
 10
0.010000
 20
0.007500
 10
0.010480
 20
0.007500
  0
LWPOLYLINE
  8
Titanium_Nitride
420
4210752
 90
4
 70
1
 10
0.020000
 20
0.020500
 10
0.019520
 20
0.020500
 10
0.019520
 20
0.019500
 10
0.020000
 20
0.019500
  0
LWPOLYLINE
  8
Titanium_Nitride
420
4210752
 90
4
 70
1
 10
0.015200
 20
0.022400
 10
0.014800
 20
0.022400
 10
0.014800
 20
0.022000
 10
0.015200
 20
0.022000
  0
LWPOLYLINE
  8
Aluminum
420
12632256
 90
12
 70
1
 10
0.008500
 20
0.007800
 10
0.010000
 20
0.007800
 10
0.010000
 20
0.007500
 10
0.010480
 20
0.007500
 10
0.010480
 20
0.008500
 10
0.010000
 20
0.008500
 10
0.010000
 20
0.008200
 10
0.008500
 20
0.008200
 10
0.008500
 20
0.009000
 10
0.006500
 20
0.009000
 10
0.006500
 20
0.007000
 10
0.008500
 20
0.007000
  0
LWPOLYLINE
  8
Aluminum
420
12632256
 90
12
 70
1
 10
0.023500
 20
0.021000
 10
0.021500
 20
0.021000
 10
0.021500
 20
0.020200
 10
0.020000
 20
0.020200
 10
0.020000
 20
0.020500
 10
0.019520
 20
0.020500
 10
0.019520
 20
0.019500
 10
0.020000
 20
0.019500
 10
0.020000
 20
0.019800
 10
0.021500
 20
0.019800
 10
0.021500
 20
0.019000
 10
0.023500
 20
0.019000
  0
LWPOLYLINE
  8
Aluminum
420
12632256
 90
10
 70
1
 10
0.015200
 20
0.022200
 10
0.015200
 20
0.023500
 10
0.016000
 20
0.023500
 10
0.016000
 20
0.025500
 10
0.014000
 20
0.025500
 10
0.014000
 20
0.023500
 10
0.014800
 20
0.023500
 10
0.014800
 20
0.022400
 10
0.014800
 20
0.022000
 10
0.015200
 20
0.022000
  0
LWPOLYLINE
  8
Silicon_Dioxide
420
14739711
 90
4
 70
1
 10
0.000000
 20
0.000000
 10
0.030000
 20
0.000000
 10
0.030000
 20
0.028000
 10
0.000000
 20
0.028000
  0
LWPOLYLINE
  8
Resistor_Poly_Mask
420
16728128
 90
4
 70
1
 10
0.010675
 20
0.007320
 10
0.019325
 20
0.007320
 10
0.019325
 20
0.020680
 10
0.010675
 20
0.020680
  0
LWPOLYLINE
  8
Resistor_Poly_Mask
420
16728128
 90
4
 70
1
 10
0.010675
 20
0.007320
 10
0.020000
 20
0.007320
 10
0.020000
 20
0.008680
 10
0.010675
 20
0.008680
  0
LWPOLYLINE
  8
Resistor_Poly_Mask
420
16728128
 90
4
 70
1
 10
0.010000
 20
0.019320
 10
0.019325
 20
0.019320
 10
0.019325
 20
0.020680
 10
0.010000
 20
0.020680
  0
LWPOLYLINE
  8
P_Plus_Implant_Mask
420
16744703
 90
4
 70
1
 10
0.009870
 20
0.007370
 10
0.020130
 20
0.007370
 10
0.020130
 20
0.020630
 10
0.009870
 20
0.020630
  0
LWPOLYLINE
  8
Npc_Mask
420
4259839
 90
4
 70
1
 10
0.009910
 20
0.007410
 10
0.010570
 20
0.007410
 10
0.010570
 20
0.008590
 10
0.009910
 20
0.008590
  0
LWPOLYLINE
  8
Npc_Mask
420
4259839
 90
4
 70
1
 10
0.019430
 20
0.019410
 10
0.020090
 20
0.019410
 10
0.020090
 20
0.020590
 10
0.019430
 20
0.020590
  0
LWPOLYLINE
  8
Tap_Mask
420
8454016
 90
4
 70
1
 10
0.014800
 20
0.022000
 10
0.015200
 20
0.022000
 10
0.015200
 20
0.022400
 10
0.014800
 20
0.022400
  0
LWPOLYLINE
  8
P_Plus_Implant_Mask
420
16744703
 90
4
 70
1
 10
0.014670
 20
0.021870
 10
0.015330
 20
0.021870
 10
0.015330
 20
0.022530
 10
0.014670
 20
0.022530
  0
LWPOLYLINE
  8
Pad_Mask
420
14729320
 90
4
 70
1
 10
0.006700
 20
0.007200
 10
0.008300
 20
0.007200
 10
0.008300
 20
0.008800
 10
0.006700
 20
0.008800
  0
LWPOLYLINE
  8
Pad_Mask
420
14729320
 90
4
 70
1
 10
0.021700
 20
0.019200
 10
0.023300
 20
0.019200
 10
0.023300
 20
0.020800
 10
0.021700
 20
0.020800
  0
LWPOLYLINE
  8
Pad_Mask
420
14729320
 90
4
 70
1
 10
0.014200
 20
0.023700
 10
0.015800
 20
0.023700
 10
0.015800
 20
0.025300
 10
0.014200
 20
0.025300
  0
ENDSEC
  0
EOF
