  0
SECTION
  2
HEADER
  9
$ACADVER
  1
AC1018
  0
ENDSEC
  0
SECTION
  2
TABLES
  0
TABLE
  2
LAYER
  0
LAYER
  2
L_Silicon_P
 70
0
 62
7
420
16758465
440
33554432
  0
LAYER
  2
L_Copper
 70
0
 62
7
420
12088115
440
33554432
  0
ENDTAB
  0
ENDSEC
  0
SECTION
  2
ENTITIES
  0
LWPOLYLINE
  8
L0_Silicon_P
420
16758465
 90
4
 70
1
 10
0.000000
 20
0.000000
 10
0.100000
 20
0.000000
 10
0.100000
 20
0.100000
 10
0.000000
 20
0.100000
  0
LWPOLYLINE
  8
L0_Copper
420
12088115
 90
4
 70
1
 10
0.010000
 20
0.010000
 10
0.090000
 20
0.010000
 10
0.090000
 20
0.015000
 10
0.010000
 20
0.015000
  0
LWPOLYLINE
  8
L0_Copper
420
12088115
 90
4
 70
1
 10
0.010000
 20
0.030000
 10
0.090000
 20
0.030000
 10
0.090000
 20
0.035000
 10
0.010000
 20
0.035000
  0
LWPOLYLINE
  8
L0_Copper
420
12088115
 90
4
 70
1
 10
0.010000
 20
0.050000
 10
0.090000
 20
0.050000
 10
0.090000
 20
0.055000
 10
0.010000
 20
0.055000
  0
LWPOLYLINE
  8
L0_Copper
420
12088115
 90
4
 70
1
 10
0.010000
 20
0.070000
 10
0.090000
 20
0.070000
 10
0.090000
 20
0.075000
 10
0.010000
 20
0.075000
  0
LWPOLYLINE
  8
L0_Copper
420
12088115
 90
4
 70
1
 10
0.000000
 20
-0.037500
 10
0.100000
 20
-0.037500
 10
0.100000
 20
0.062500
 10
0.000000
 20
0.062500
  0
LWPOLYLINE
  8
L0_Copper
420
12088115
 90
4
 70
1
 10
0.000000
 20
-0.017500
 10
0.100000
 20
-0.017500
 10
0.100000
 20
0.082500
 10
0.000000
 20
0.082500
  0
LWPOLYLINE
  8
L0_Copper
420
12088115
 90
4
 70
1
 10
0.000000
 20
0.002500
 10
0.100000
 20
0.002500
 10
0.100000
 20
0.102500
 10
0.000000
 20
0.102500
  0
LWPOLYLINE
  8
L0_Copper
420
12088115
 90
4
 70
1
 10
0.000000
 20
0.022500
 10
0.100000
 20
0.022500
 10
0.100000
 20
0.122500
 10
0.000000
 20
0.122500
  0
ENDSEC
  0
EOF
