  0
SECTION
  2
HEADER
  9
$ACADVER
  1
AC1018
  0
ENDSEC
  0
SECTION
  2
TABLES
  0
TABLE
  2
LAYER
  0
LAYER
  2
L_FR4
 70
0
 62
7
420
3046706
440
33554432
  0
LAYER
  2
L_Copper
 70
0
 62
7
420
12088115
440
33554432
  0
ENDTAB
  0
ENDSEC
  0
SECTION
  2
ENTITIES
  0
LWPOLYLINE
  8
L0_FR4
420
3046706
 90
4
 70
1
 10
0.000000
 20
0.000000
 10
50.000000
 20
0.000000
 10
50.000000
 20
30.000000
 10
0.000000
 20
30.000000
  0
LWPOLYLINE
  8
L1_Copper
420
12088115
 90
4
 70
1
 10
1.000000
 20
1.000000
 10
49.000000
 20
1.000000
 10
49.000000
 20
29.000000
 10
1.000000
 20
29.000000
  0
LWPOLYLINE
  8
L9_Components
420
12088115
 90
4
 70
1
 10
10.000000
 20
15.000000
 10
20.000000
 20
15.000000
 10
20.000000
 20
19.500000
 10
10.000000
 20
19.500000
  0
LWPOLYLINE
  8
L2_Components
420
12088115
 90
4
 70
1
 10
25.000000
 20
10.000000
 10
27.900000
 20
10.000000
 10
27.900000
 20
12.400000
 10
25.000000
 20
12.400000
  0
LWPOLYLINE
  8
L2_Components
420
12088115
 90
4
 70
1
 10
35.000000
 20
20.000000
 10
41.500000
 20
20.000000
 10
41.500000
 20
27.000000
 10
35.000000
 20
27.000000
  0
LWPOLYLINE
  8
L0_Components
420
12088115
 90
4
 70
1
 10
5.000000
 20
5.000000
 10
8.000000
 20
5.000000
 10
8.000000
 20
8.000000
 10
5.000000
 20
8.000000
  0
LWPOLYLINE
  8
L0_Components
420
12088115
 90
4
 70
1
 10
45.000000
 20
5.000000
 10
48.000000
 20
5.000000
 10
48.000000
 20
8.000000
 10
45.000000
 20
8.000000
  0
LWPOLYLINE
  8
L0_Components
420
12088115
 90
4
 70
1
 10
5.000000
 20
25.000000
 10
8.000000
 20
25.000000
 10
8.000000
 20
28.000000
 10
5.000000
 20
28.000000
  0
LWPOLYLINE
  8
L0_Components
420
12088115
 90
4
 70
1
 10
45.000000
 20
25.000000
 10
48.000000
 20
25.000000
 10
48.000000
 20
28.000000
 10
45.000000
 20
28.000000
  0
LWPOLYLINE
  8
L1_Components
420
12088115
 90
4
 70
1
 10
2.000000
 20
2.000000
 10
3.000000
 20
2.000000
 10
3.000000
 20
3.000000
 10
2.000000
 20
3.000000
  0
LWPOLYLINE
  8
L1_Components
420
12088115
 90
4
 70
1
 10
48.000000
 20
28.000000
 10
49.000000
 20
28.000000
 10
49.000000
 20
29.000000
 10
48.000000
 20
29.000000
  0
ENDSEC
  0
EOF
