  0
SECTION
  2
HEADER
  9
$ACADVER
  1
AC1018
  0
ENDSEC
  0
SECTION
  2
TABLES
  0
TABLE
  2
LAYER
  0
LAYER
  2
Resistor_Poly_Mask
 70
0
 62
7
  0
LAYER
  2
Silicon_Dioxide
 70
0
 62
7
  0
LAYER
  2
Polysilicon
 70
0
 62
7
  0
ENDTAB
  0
ENDSEC
  0
SECTION
  2
ENTITIES
  0
LWPOLYLINE
  8
Polysilicon
420
16736352
 90
28
 70
1
 10
0.015000
 20
0.016500
 10
0.005000
 20
0.016500
 10
0.005000
 20
0.015500
 10
0.005000
 20
0.013500
 10
0.005000
 20
0.012500
 10
0.014000
 20
0.012500
 10
0.014000
 20
0.010500
 10
0.005000
 20
0.010500
 10
0.005000
 20
0.009500
 10
0.005000
 20
0.007500
 10
0.005000
 20
0.006500
 10
0.014000
 20
0.006500
 10
0.014000
 20
0.004500
 10
0.005000
 20
0.004500
 10
0.005000
 20
0.003500
 10
0.015000
 20
0.003500
 10
0.015000
 20
0.004500
 10
0.015000
 20
0.006500
 10
0.015000
 20
0.007500
 10
0.006000
 20
0.007500
 10
0.006000
 20
0.009500
 10
0.015000
 20
0.009500
 10
0.015000
 20
0.010500
 10
0.015000
 20
0.012500
 10
0.015000
 20
0.013500
 10
0.006000
 20
0.013500
 10
0.006000
 20
0.015500
 10
0.015000
 20
0.015500
  0
LWPOLYLINE
  8
Resistor_Poly_Mask
420
16728128
 90
4
 70
1
 10
0.000000
 20
0.000000
 10
0.020000
 20
0.000000
 10
0.020000
 20
0.020000
 10
0.000000
 20
0.020000
  0
LWPOLYLINE
  8
Silicon_Dioxide
420
14739711
 90
4
 70
1
 10
0.000000
 20
0.000000
 10
0.020000
 20
0.000000
 10
0.020000
 20
0.020000
 10
0.000000
 20
0.020000
  0
LWPOLYLINE
  8
Silicon_Dioxide
420
14739711
 90
4
 70
1
 10
0.000000
 20
0.000000
 10
0.020000
 20
0.000000
 10
0.020000
 20
0.020000
 10
0.000000
 20
0.020000
  0
ENDSEC
  0
EOF
