  0
SECTION
  2
HEADER
  9
$ACADVER
  1
AC1018
  0
ENDSEC
  0
SECTION
  2
TABLES
  0
TABLE
  2
LAYER
  0
LAYER
  2
Aluminum
 70
0
 62
7
  0
ENDTAB
  0
ENDSEC
  0
SECTION
  2
ENTITIES
  0
LWPOLYLINE
  8
Aluminum
420
12632256
 90
8
 70
1
 10
0.815000
 20
0.163787
 10
0.815000
 20
0.490000
 10
0.785000
 20
0.490000
 10
0.785000
 20
0.176214
 10
0.748786
 20
0.140000
 10
0.185000
 20
0.140000
 10
0.185000
 20
0.110000
 10
0.761213
 20
0.110000
  0
LWPOLYLINE
  8
Aluminum
420
12632256
 90
10
 70
1
 10
0.412500
 20
0.315181
 10
0.587500
 20
0.315181
 10
0.587500
 20
0.287500
 10
0.612500
 20
0.287500
 10
0.612500
 20
0.332589
 10
0.604908
 20
0.340181
 10
0.395092
 20
0.340181
 10
0.387500
 20
0.332589
 10
0.387500
 20
0.287500
 10
0.412500
 20
0.287500
  0
LWPOLYLINE
  8
Aluminum
420
12632256
 90
4
 70
1
 10
0.050000
 20
0.050000
 10
0.200000
 20
0.050000
 10
0.200000
 20
0.200000
 10
0.050000
 20
0.200000
  0
LWPOLYLINE
  8
Aluminum
420
12632256
 90
4
 70
1
 10
0.800000
 20
0.400000
 10
0.950000
 20
0.400000
 10
0.950000
 20
0.550000
 10
0.800000
 20
0.550000
  0
LWPOLYLINE
  8
Aluminum
420
12632256
 90
4
 70
1
 10
0.300000
 20
0.250000
 10
0.400000
 20
0.250000
 10
0.400000
 20
0.350000
 10
0.300000
 20
0.350000
  0
LWPOLYLINE
  8
Aluminum
420
12632256
 90
4
 70
1
 10
0.600000
 20
0.250000
 10
0.700000
 20
0.250000
 10
0.700000
 20
0.350000
 10
0.600000
 20
0.350000
  0
LWPOLYLINE
  8
Aluminum
420
12632256
 90
4
 70
1
 10
0.430000
 20
0.235000
 10
0.550000
 20
0.235000
 10
0.550000
 20
0.315000
 10
0.430000
 20
0.315000
  0
ENDSEC
  0
EOF
