  0
SECTION
  2
HEADER
  9
$ACADVER
  1
AC1018
  0
ENDSEC
  0
SECTION
  2
TABLES
  0
TABLE
  2
LAYER
  0
LAYER
  2
DRILL
 70
0
 62
0
  0
LAYER
  2
TOP_COMPONENTS
 70
0
 62
7
  0
LAYER
  2
BOTTOM_COMPONENTS
 70
0
 62
7
  0
LAYER
  2
PCB_LAYERS
 70
0
 62
7
  0
ENDTAB
  0
ENDSEC
  0
SECTION
  2
ENTITIES
  0
LWPOLYLINE
  8
PCB_LAYERS
420
8421504
 90
4
 70
1
 10
0.000000
 20
0.000000
 10
20.000000
 20
0.000000
 10
20.000000
 20
20.000000
 10
0.000000
 20
20.000000
  0
LWPOLYLINE
  8
PCB_LAYERS
420
8421504
 90
4
 70
1
 10
0.000000
 20
0.000000
 10
20.000000
 20
0.000000
 10
20.000000
 20
20.000000
 10
0.000000
 20
20.000000
  0
LWPOLYLINE
  8
PCB_LAYERS
420
12088115
 90
4
 70
1
 10
2.700000
 20
9.700000
 10
3.300000
 20
9.700000
 10
3.300000
 20
10.300000
 10
2.700000
 20
10.300000
  0
LWPOLYLINE
  8
PCB_LAYERS
420
12088115
 90
4
 70
1
 10
16.700000
 20
9.700000
 10
17.300000
 20
9.700000
 10
17.300000
 20
10.300000
 10
16.700000
 20
10.300000
  0
LWPOLYLINE
  8
PCB_LAYERS
420
8421504
 90
4
 70
1
 10
2.950000
 20
9.950000
 10
3.200000
 20
9.950000
 10
3.200000
 20
10.100000
 10
2.950000
 20
10.100000
  0
LWPOLYLINE
  8
PCB_LAYERS
420
8421504
 90
4
 70
1
 10
3.100000
 20
10.000000
 10
3.500000
 20
10.000000
 10
3.500000
 20
10.100000
 10
3.100000
 20
10.100000
  0
LWPOLYLINE
  8
PCB_LAYERS
420
8421504
 90
4
 70
1
 10
3.400000
 20
10.000000
 10
3.900000
 20
10.000000
 10
3.900000
 20
10.100000
 10
3.400000
 20
10.100000
  0
LWPOLYLINE
  8
PCB_LAYERS
420
8421504
 90
4
 70
1
 10
3.800000
 20
10.000000
 10
4.700000
 20
10.000000
 10
4.700000
 20
10.100000
 10
3.800000
 20
10.100000
  0
LWPOLYLINE
  8
PCB_LAYERS
420
8421504
 90
4
 70
1
 10
4.600000
 20
10.000000
 10
15.900000
 20
10.000000
 10
15.900000
 20
10.100000
 10
4.600000
 20
10.100000
  0
LWPOLYLINE
  8
PCB_LAYERS
420
8421504
 90
4
 70
1
 10
15.800000
 20
9.950000
 10
17.050000
 20
9.950000
 10
17.050000
 20
10.100000
 10
15.800000
 20
10.100000
  0
LWPOLYLINE
  8
PCB_LAYERS
420
8421504
 90
4
 70
1
 10
2.950000
 20
9.950000
 10
3.200000
 20
9.950000
 10
3.200000
 20
10.100000
 10
2.950000
 20
10.100000
  0
LWPOLYLINE
  8
PCB_LAYERS
420
8421504
 90
4
 70
1
 10
3.100000
 20
10.000000
 10
3.500000
 20
10.000000
 10
3.500000
 20
10.100000
 10
3.100000
 20
10.100000
  0
LWPOLYLINE
  8
PCB_LAYERS
420
8421504
 90
4
 70
1
 10
3.400000
 20
10.000000
 10
3.900000
 20
10.000000
 10
3.900000
 20
10.100000
 10
3.400000
 20
10.100000
  0
LWPOLYLINE
  8
PCB_LAYERS
420
8421504
 90
4
 70
1
 10
3.800000
 20
10.000000
 10
4.700000
 20
10.000000
 10
4.700000
 20
10.100000
 10
3.800000
 20
10.100000
  0
LWPOLYLINE
  8
PCB_LAYERS
420
8421504
 90
4
 70
1
 10
4.600000
 20
10.000000
 10
15.900000
 20
10.000000
 10
15.900000
 20
10.100000
 10
4.600000
 20
10.100000
  0
LWPOLYLINE
  8
PCB_LAYERS
420
8421504
 90
4
 70
1
 10
15.800000
 20
9.950000
 10
17.050000
 20
9.950000
 10
17.050000
 20
10.100000
 10
15.800000
 20
10.100000
  0
LWPOLYLINE
  8
PCB_LAYERS
420
12088115
 90
4
 70
1
 10
3.000000
 20
10.000000
 10
3.001000
 20
10.000000
 10
3.001000
 20
10.001000
 10
3.000000
 20
10.001000
  0
LWPOLYLINE
  8
PCB_LAYERS
420
12088115
 90
4
 70
1
 10
3.000000
 20
10.000000
 10
3.001000
 20
10.000000
 10
3.001000
 20
10.001000
 10
3.000000
 20
10.001000
  0
LWPOLYLINE
  8
PCB_LAYERS
420
12088115
 90
4
 70
1
 10
17.000000
 20
10.000000
 10
17.001000
 20
10.000000
 10
17.001000
 20
10.001000
 10
17.000000
 20
10.001000
  0
LWPOLYLINE
  8
PCB_LAYERS
420
12088115
 90
4
 70
1
 10
17.000000
 20
10.000000
 10
17.001000
 20
10.000000
 10
17.001000
 20
10.001000
 10
17.000000
 20
10.001000
  0
LWPOLYLINE
  8
PCB_LAYERS
420
16737792
 43
0.100000
 90
2
 70
0
 10
3.000000
 20
10.000000
 10
3.150000
 20
10.050000
  0
LWPOLYLINE
  8
PCB_LAYERS
420
16737792
 43
0.100000
 90
2
 70
0
 10
3.150000
 20
10.050000
 10
3.450000
 20
10.050000
  0
LWPOLYLINE
  8
PCB_LAYERS
420
16737792
 43
0.100000
 90
2
 70
0
 10
3.450000
 20
10.050000
 10
3.850000
 20
10.050000
  0
LWPOLYLINE
  8
PCB_LAYERS
420
16737792
 43
0.100000
 90
2
 70
0
 10
3.850000
 20
10.050000
 10
4.650000
 20
10.050000
  0
LWPOLYLINE
  8
PCB_LAYERS
420
16737792
 43
0.100000
 90
2
 70
0
 10
4.650000
 20
10.050000
 10
15.850000
 20
10.050000
  0
LWPOLYLINE
  8
PCB_LAYERS
420
16737792
 43
0.100000
 90
2
 70
0
 10
15.850000
 20
10.050000
 10
17.000000
 20
10.000000
  0
LWPOLYLINE
  8
PCB_LAYERS
420
16737792
 43
0.100000
 90
2
 70
0
 10
3.000000
 20
10.000000
 10
3.150000
 20
10.050000
  0
LWPOLYLINE
  8
PCB_LAYERS
420
16737792
 43
0.100000
 90
2
 70
0
 10
3.150000
 20
10.050000
 10
3.450000
 20
10.050000
  0
LWPOLYLINE
  8
PCB_LAYERS
420
16737792
 43
0.100000
 90
2
 70
0
 10
3.450000
 20
10.050000
 10
3.850000
 20
10.050000
  0
LWPOLYLINE
  8
PCB_LAYERS
420
16737792
 43
0.100000
 90
2
 70
0
 10
3.850000
 20
10.050000
 10
4.650000
 20
10.050000
  0
LWPOLYLINE
  8
PCB_LAYERS
420
16737792
 43
0.100000
 90
2
 70
0
 10
4.650000
 20
10.050000
 10
15.850000
 20
10.050000
  0
LWPOLYLINE
  8
PCB_LAYERS
420
16737792
 43
0.100000
 90
2
 70
0
 10
15.850000
 20
10.050000
 10
17.000000
 20
10.000000
  0
ENDSEC
  0
EOF
