  0
SECTION
  2
HEADER
  9
$ACADVER
  1
AC1018
  0
ENDSEC
  0
SECTION
  2
TABLES
  0
TABLE
  2
LAYER
  0
LAYER
  2
DRILL
 70
0
 62
0
  0
LAYER
  2
TOP_COMPONENTS
 70
0
 62
7
  0
LAYER
  2
BOTTOM_COMPONENTS
 70
0
 62
7
  0
LAYER
  2
PCB_LAYERS
 70
0
 62
7
  0
ENDTAB
  0
ENDSEC
  0
SECTION
  2
ENTITIES
  0
LWPOLYLINE
  8
PCB_LAYERS
420
12088115
 90
4
 70
1
 10
0.008250
 20
0.002250
 10
0.007750
 20
0.002250
 10
0.007750
 20
0.001750
 10
0.008250
 20
0.001750
  0
LWPOLYLINE
  8
PCB_LAYERS
420
12088115
 90
4
 70
1
 10
0.058000
 20
0.053300
 10
-0.042000
 20
0.053300
 10
-0.042000
 20
-0.048000
 10
0.058000
 20
-0.048000
  0
LWPOLYLINE
  8
PCB_LAYERS
420
12088115
 90
4
 70
1
 10
0.002250
 20
0.008250
 10
0.001750
 20
0.008250
 10
0.001750
 20
0.007750
 10
0.002250
 20
0.007750
  0
LWPOLYLINE
  8
PCB_LAYERS
420
12088115
 90
4
 70
1
 10
0.008250
 20
0.002250
 10
0.007750
 20
0.002250
 10
0.007750
 20
0.001750
 10
0.008250
 20
0.001750
  0
LWPOLYLINE
  8
PCB_LAYERS
420
12088115
 90
4
 70
1
 10
0.008250
 20
0.014250
 10
0.001750
 20
0.014250
 10
0.001750
 20
0.013750
 10
0.008250
 20
0.013750
  0
LWPOLYLINE
  8
PCB_LAYERS
420
12088115
 90
4
 70
1
 10
0.008250
 20
0.014250
 10
0.007750
 20
0.014250
 10
0.007750
 20
0.013750
 10
0.008250
 20
0.013750
  0
LWPOLYLINE
  8
PCB_LAYERS
420
12088115
 90
4
 70
1
 10
0.058000
 20
0.065300
 10
-0.042000
 20
0.065300
 10
-0.042000
 20
-0.036000
 10
0.058000
 20
-0.036000
  0
LWPOLYLINE
  8
PCB_LAYERS
420
12088115
 90
4
 70
1
 10
0.008250
 20
0.014250
 10
0.007750
 20
0.014250
 10
0.007750
 20
0.013750
 10
0.008250
 20
0.013750
  0
LWPOLYLINE
  8
PCB_LAYERS
420
12088115
 90
4
 70
1
 10
0.014250
 20
0.014250
 10
0.013750
 20
0.014250
 10
0.013750
 20
0.007750
 10
0.014250
 20
0.007750
  0
LWPOLYLINE
  8
PCB_LAYERS
420
12088115
 90
4
 70
1
 10
0.014250
 20
0.008250
 10
0.013750
 20
0.008250
 10
0.013750
 20
0.007750
 10
0.014250
 20
0.007750
  0
LWPOLYLINE
  8
PCB_LAYERS
420
12088115
 90
4
 70
1
 10
0.064000
 20
0.059300
 10
-0.036000
 20
0.059300
 10
-0.036000
 20
-0.042000
 10
0.064000
 20
-0.042000
  0
LWPOLYLINE
  8
PCB_LAYERS
420
12088115
 90
4
 70
1
 10
0.014250
 20
0.008250
 10
0.013750
 20
0.008250
 10
0.013750
 20
0.007750
 10
0.014250
 20
0.007750
  0
LWPOLYLINE
  8
PCB_LAYERS
420
12088115
 90
4
 70
1
 10
0.002250
 20
0.008250
 10
0.001750
 20
0.008250
 10
0.001750
 20
0.001750
 10
0.002250
 20
0.001750
  0
LWPOLYLINE
  8
PCB_LAYERS
420
12088115
 90
4
 70
1
 10
0.052000
 20
0.059300
 10
-0.048000
 20
0.059300
 10
-0.048000
 20
-0.042000
 10
0.052000
 20
-0.042000
  0
LWPOLYLINE
  8
PCB_LAYERS
420
12088115
 90
4
 70
1
 10
0.002250
 20
0.008250
 10
0.001750
 20
0.008250
 10
0.001750
 20
0.007750
 10
0.002250
 20
0.007750
  0
LWPOLYLINE
  8
PCB_LAYERS
420
12088115
 90
4
 70
1
 10
0.014250
 20
0.002250
 10
0.007750
 20
0.002250
 10
0.007750
 20
0.001750
 10
0.014250
 20
0.001750
  0
ENDSEC
  0
EOF
