  0
SECTION
  2
HEADER
  9
$ACADVER
  1
AC1018
  0
ENDSEC
  0
SECTION
  2
TABLES
  0
TABLE
  2
LAYER
  0
LAYER
  2
DRILL
 70
0
 62
0
  0
LAYER
  2
TOP_COMPONENTS
 70
0
 62
7
  0
LAYER
  2
BOTTOM_COMPONENTS
 70
0
 62
7
  0
LAYER
  2
PCB_LAYERS
 70
0
 62
7
  0
ENDTAB
  0
ENDSEC
  0
SECTION
  2
ENTITIES
  0
LWPOLYLINE
  8
PCB_LAYERS
420
12088115
 90
122
 70
1
 10
8.034305
 20
2.651686
 10
8.068281
 20
2.656726
 10
8.101599
 20
2.665071
 10
8.133939
 20
2.676643
 10
8.164988
 20
2.691328
 10
8.194449
 20
2.708986
 10
8.222037
 20
2.729447
 10
8.247487
 20
2.752513
 10
8.270553
 20
2.777963
 10
8.291014
 20
2.805551
 10
8.308672
 20
2.835012
 10
8.323357
 20
2.866061
 10
8.334929
 20
2.898401
 10
8.343274
 20
2.931719
 10
8.348314
 20
2.965695
 10
8.350000
 20
3.000000
 10
8.348314
 20
3.034305
 10
8.343274
 20
3.068281
 10
8.334929
 20
3.101599
 10
8.323357
 20
3.133939
 10
8.308672
 20
3.164988
 10
8.291014
 20
3.194449
 10
8.270553
 20
3.222037
 10
8.247487
 20
3.247487
 10
8.222037
 20
3.270553
 10
8.194449
 20
3.291014
 10
8.164988
 20
3.308672
 10
8.133939
 20
3.323357
 10
8.101599
 20
3.334929
 10
8.068281
 20
3.343274
 10
8.034305
 20
3.348314
 10
8.000000
 20
3.350000
 10
7.965695
 20
3.348314
 10
7.931719
 20
3.343274
 10
7.898401
 20
3.334929
 10
7.866061
 20
3.323357
 10
7.835012
 20
3.308672
 10
7.805551
 20
3.291014
 10
7.777963
 20
3.270553
 10
7.752513
 20
3.247487
 10
7.729447
 20
3.222037
 10
7.708986
 20
3.194449
 10
7.691328
 20
3.164988
 10
7.676643
 20
3.133939
 10
7.665071
 20
3.101599
 10
7.664671
 20
3.100000
 10
2.335329
 20
3.100000
 10
2.334929
 20
3.101599
 10
2.323357
 20
3.133939
 10
2.308672
 20
3.164988
 10
2.291014
 20
3.194449
 10
2.270553
 20
3.222037
 10
2.247487
 20
3.247487
 10
2.222037
 20
3.270553
 10
2.194449
 20
3.291014
 10
2.164988
 20
3.308672
 10
2.133939
 20
3.323357
 10
2.101599
 20
3.334929
 10
2.068281
 20
3.343274
 10
2.034305
 20
3.348314
 10
2.000000
 20
3.350000
 10
1.965695
 20
3.348314
 10
1.931719
 20
3.343274
 10
1.898401
 20
3.334929
 10
1.866061
 20
3.323357
 10
1.835012
 20
3.308672
 10
1.805551
 20
3.291014
 10
1.777963
 20
3.270553
 10
1.752513
 20
3.247487
 10
1.729447
 20
3.222037
 10
1.708986
 20
3.194449
 10
1.691328
 20
3.164988
 10
1.676643
 20
3.133939
 10
1.665071
 20
3.101599
 10
1.656726
 20
3.068281
 10
1.651686
 20
3.034305
 10
1.650000
 20
3.000000
 10
1.651686
 20
2.965695
 10
1.656726
 20
2.931719
 10
1.665071
 20
2.898401
 10
1.676643
 20
2.866061
 10
1.691328
 20
2.835012
 10
1.708986
 20
2.805551
 10
1.729447
 20
2.777963
 10
1.752513
 20
2.752513
 10
1.777963
 20
2.729447
 10
1.805551
 20
2.708986
 10
1.835012
 20
2.691328
 10
1.866061
 20
2.676643
 10
1.898401
 20
2.665071
 10
1.931719
 20
2.656726
 10
1.965695
 20
2.651686
 10
2.000000
 20
2.650000
 10
2.034305
 20
2.651686
 10
2.068281
 20
2.656726
 10
2.101599
 20
2.665071
 10
2.133939
 20
2.676643
 10
2.164988
 20
2.691328
 10
2.194449
 20
2.708986
 10
2.222037
 20
2.729447
 10
2.247487
 20
2.752513
 10
2.270553
 20
2.777963
 10
2.291014
 20
2.805551
 10
2.308672
 20
2.835012
 10
2.323357
 20
2.866061
 10
2.334929
 20
2.898401
 10
2.335329
 20
2.900000
 10
7.664671
 20
2.900000
 10
7.665071
 20
2.898401
 10
7.676643
 20
2.866061
 10
7.691328
 20
2.835012
 10
7.708986
 20
2.805551
 10
7.729447
 20
2.777963
 10
7.752513
 20
2.752513
 10
7.777963
 20
2.729447
 10
7.805551
 20
2.708986
 10
7.835012
 20
2.691328
 10
7.866061
 20
2.676643
 10
7.898401
 20
2.665071
 10
7.931719
 20
2.656726
 10
7.965695
 20
2.651686
 10
8.000000
 20
2.650000
  0
ENDSEC
  0
EOF
