  0
SECTION
  2
HEADER
  9
$ACADVER
  1
AC1018
  0
ENDSEC
  0
SECTION
  2
TABLES
  0
TABLE
  2
LAYER
  0
LAYER
  2
DRILL
 70
0
 62
0
  0
LAYER
  2
TOP_COMPONENTS
 70
0
 62
7
  0
LAYER
  2
BOTTOM_COMPONENTS
 70
0
 62
7
  0
LAYER
  2
PCB_LAYERS
 70
0
 62
7
  0
ENDTAB
  0
ENDSEC
  0
SECTION
  2
ENTITIES
  0
LWPOLYLINE
  8
PCB_LAYERS
420
12088115
 90
20
 70
1
 10
5.000000
 20
13.950000
 10
13.000000
 20
13.950000
 10
13.000000
 20
13.000000
 10
15.000000
 20
13.000000
 10
15.000000
 20
13.950000
 10
23.000000
 20
13.950000
 10
23.000000
 20
13.000000
 10
25.000000
 20
13.000000
 10
25.000000
 20
15.000000
 10
23.000000
 20
15.000000
 10
23.000000
 20
14.050000
 10
15.000000
 20
14.050000
 10
15.000000
 20
15.000000
 10
13.000000
 20
15.000000
 10
13.000000
 20
14.050000
 10
5.000000
 20
14.050000
 10
5.000000
 20
15.000000
 10
3.000000
 20
15.000000
 10
3.000000
 20
13.000000
 10
5.000000
 20
13.000000
  0
LWPOLYLINE
  8
PCB_LAYERS
420
12088115
 90
20
 70
1
 10
5.000000
 20
5.950000
 10
13.000000
 20
5.950000
 10
13.000000
 20
5.000000
 10
15.000000
 20
5.000000
 10
15.000000
 20
5.950000
 10
23.000000
 20
5.950000
 10
23.000000
 20
5.000000
 10
25.000000
 20
5.000000
 10
25.000000
 20
7.000000
 10
23.000000
 20
7.000000
 10
23.000000
 20
6.050000
 10
15.000000
 20
6.050000
 10
15.000000
 20
7.000000
 10
13.000000
 20
7.000000
 10
13.000000
 20
6.050000
 10
5.000000
 20
6.050000
 10
5.000000
 20
7.000000
 10
3.000000
 20
7.000000
 10
3.000000
 20
5.000000
 10
5.000000
 20
5.000000
  0
ENDSEC
  0
EOF
