  0
SECTION
  2
HEADER
  9
$ACADVER
  1
AC1018
  0
ENDSEC
  0
SECTION
  2
TABLES
  0
TABLE
  2
LAYER
  0
LAYER
  2
Silicon_P
 70
0
 62
7
  0
LAYER
  2
Silicon_Dioxide
 70
0
 62
7
  0
LAYER
  2
Titanium_Silicide
 70
0
 62
7
  0
LAYER
  2
Aluminum
 70
0
 62
7
  0
LAYER
  2
Pad_Mask
 70
0
 62
7
  0
LAYER
  2
Tungsten
 70
0
 62
7
  0
ENDTAB
  0
ENDSEC
  0
SECTION
  2
ENTITIES
  0
LWPOLYLINE
  8
Silicon_P
420
16744512
 90
4
 70
1
 10
0.006000
 20
0.004500
 10
0.005500
 20
0.004500
 10
0.005500
 20
0.003500
 10
0.006000
 20
0.003500
  0
LWPOLYLINE
  8
Silicon_P
420
16744512
 90
4
 70
1
 10
0.006500
 20
0.004500
 10
0.006000
 20
0.004500
 10
0.006000
 20
0.003500
 10
0.006500
 20
0.003500
  0
LWPOLYLINE
  8
Tungsten
420
8421631
 90
4
 70
1
 10
0.005835
 20
0.004085
 10
0.005665
 20
0.004085
 10
0.005665
 20
0.003915
 10
0.005835
 20
0.003915
  0
LWPOLYLINE
  8
Tungsten
420
8421631
 90
4
 70
1
 10
0.006335
 20
0.004085
 10
0.006165
 20
0.004085
 10
0.006165
 20
0.003915
 10
0.006335
 20
0.003915
  0
LWPOLYLINE
  8
Titanium_Silicide
420
4210752
 90
4
 70
1
 10
0.005950
 20
0.004200
 10
0.005550
 20
0.004200
 10
0.005550
 20
0.003800
 10
0.005950
 20
0.003800
  0
LWPOLYLINE
  8
Titanium_Silicide
420
4210752
 90
4
 70
1
 10
0.006450
 20
0.004200
 10
0.006050
 20
0.004200
 10
0.006050
 20
0.003800
 10
0.006450
 20
0.003800
  0
LWPOLYLINE
  8
Aluminum
420
12632256
 90
12
 70
1
 10
0.002500
 20
0.003850
 10
0.005550
 20
0.003850
 10
0.005550
 20
0.003800
 10
0.005950
 20
0.003800
 10
0.005950
 20
0.004200
 10
0.005550
 20
0.004200
 10
0.005550
 20
0.004150
 10
0.002500
 20
0.004150
 10
0.002500
 20
0.004500
 10
0.001500
 20
0.004500
 10
0.001500
 20
0.003500
 10
0.002500
 20
0.003500
  0
LWPOLYLINE
  8
Aluminum
420
12632256
 90
12
 70
1
 10
0.010500
 20
0.004500
 10
0.009500
 20
0.004500
 10
0.009500
 20
0.004150
 10
0.006450
 20
0.004150
 10
0.006450
 20
0.004200
 10
0.006050
 20
0.004200
 10
0.006050
 20
0.003800
 10
0.006450
 20
0.003800
 10
0.006450
 20
0.003850
 10
0.009500
 20
0.003850
 10
0.009500
 20
0.003500
 10
0.010500
 20
0.003500
  0
LWPOLYLINE
  8
Silicon_Dioxide
420
14739711
 90
4
 70
1
 10
0.000000
 20
0.000000
 10
0.012000
 20
0.000000
 10
0.012000
 20
0.008000
 10
0.000000
 20
0.008000
  0
LWPOLYLINE
  8
Pad_Mask
420
14729320
 90
4
 70
1
 10
0.001700
 20
0.003700
 10
0.002300
 20
0.003700
 10
0.002300
 20
0.004300
 10
0.001700
 20
0.004300
  0
LWPOLYLINE
  8
Pad_Mask
420
14729320
 90
4
 70
1
 10
0.009700
 20
0.003700
 10
0.010300
 20
0.003700
 10
0.010300
 20
0.004300
 10
0.009700
 20
0.004300
  0
ENDSEC
  0
EOF
