  0
SECTION
  2
HEADER
  9
$ACADVER
  1
AC1018
  0
ENDSEC
  0
SECTION
  2
TABLES
  0
TABLE
  2
LAYER
  0
LAYER
  2
Silicon_P
 70
0
 62
7
  0
LAYER
  2
Silicon_N
 70
0
 62
7
  0
LAYER
  2
Aluminum
 70
0
 62
7
  0
LAYER
  2
Titanium_Silicide
 70
0
 62
7
  0
ENDTAB
  0
ENDSEC
  0
SECTION
  2
ENTITIES
  0
LWPOLYLINE
  8
Silicon_N
420
4259648
 90
4
 70
1
 10
0.003500
 20
0.002000
 10
0.002500
 20
0.002000
 10
0.002500
 20
0.001000
 10
0.003500
 20
0.001000
  0
LWPOLYLINE
  8
Silicon_P
420
16744512
 90
4
 70
1
 10
0.002500
 20
0.002000
 10
0.001500
 20
0.002000
 10
0.001500
 20
0.001000
 10
0.002500
 20
0.001000
  0
LWPOLYLINE
  8
Titanium_Silicide
420
4210752
 90
4
 70
1
 10
0.002100
 20
0.001600
 10
0.001900
 20
0.001600
 10
0.001900
 20
0.001400
 10
0.002100
 20
0.001400
  0
LWPOLYLINE
  8
Titanium_Silicide
420
4210752
 90
4
 70
1
 10
0.003100
 20
0.001600
 10
0.002900
 20
0.001600
 10
0.002900
 20
0.001400
 10
0.003100
 20
0.001400
  0
LWPOLYLINE
  8
Aluminum
420
12632256
 90
12
 70
1
 10
0.000900
 20
0.001250
 10
0.002050
 20
0.001250
 10
0.002050
 20
0.001300
 10
0.002200
 20
0.001300
 10
0.002200
 20
0.001700
 10
0.002050
 20
0.001700
 10
0.002050
 20
0.001750
 10
0.000900
 20
0.001750
 10
0.000900
 20
0.001800
 10
0.000300
 20
0.001800
 10
0.000300
 20
0.001200
 10
0.000900
 20
0.001200
  0
LWPOLYLINE
  8
Aluminum
420
12632256
 90
12
 70
1
 10
0.004700
 20
0.001800
 10
0.004100
 20
0.001800
 10
0.004100
 20
0.001750
 10
0.002950
 20
0.001750
 10
0.002950
 20
0.001700
 10
0.002800
 20
0.001700
 10
0.002800
 20
0.001300
 10
0.002950
 20
0.001300
 10
0.002950
 20
0.001250
 10
0.004100
 20
0.001250
 10
0.004100
 20
0.001200
 10
0.004700
 20
0.001200
  0
ENDSEC
  0
EOF
