  0
SECTION
  2
HEADER
  9
$ACADVER
  1
AC1018
  0
ENDSEC
  0
SECTION
  2
TABLES
  0
TABLE
  2
LAYER
  0
LAYER
  2
DRILL
 70
0
 62
0
  0
LAYER
  2
TOP_COMPONENTS
 70
0
 62
7
  0
LAYER
  2
BOTTOM_COMPONENTS
 70
0
 62
7
  0
LAYER
  2
PCB_LAYERS
 70
0
 62
7
  0
ENDTAB
  0
ENDSEC
  0
SECTION
  2
ENTITIES
  0
LWPOLYLINE
  8
PCB_LAYERS
420
12088115
 90
18
 70
1
 10
3.000000
 20
14.400000
 10
3.350000
 20
14.400000
 10
3.350000
 20
14.450000
 10
7.750000
 20
14.450000
 10
7.750000
 20
14.400000
 10
8.000000
 20
14.400000
 10
8.000000
 20
14.000000
 10
9.000000
 20
14.000000
 10
9.000000
 20
15.000000
 10
8.000000
 20
15.000000
 10
8.000000
 20
14.650000
 10
7.750000
 20
14.650000
 10
3.150000
 20
14.650000
 10
3.000000
 20
14.650000
 10
3.000000
 20
15.000000
 10
2.000000
 20
15.000000
 10
2.000000
 20
14.000000
 10
3.000000
 20
14.000000
  0
LWPOLYLINE
  8
PCB_LAYERS
420
12088115
 90
18
 70
1
 10
3.000000
 20
2.400000
 10
3.350000
 20
2.400000
 10
3.350000
 20
2.450000
 10
7.750000
 20
2.450000
 10
7.750000
 20
2.400000
 10
8.000000
 20
2.400000
 10
8.000000
 20
2.000000
 10
9.000000
 20
2.000000
 10
9.000000
 20
3.000000
 10
8.000000
 20
3.000000
 10
8.000000
 20
2.650000
 10
7.750000
 20
2.650000
 10
3.150000
 20
2.650000
 10
3.000000
 20
2.650000
 10
3.000000
 20
3.000000
 10
2.000000
 20
3.000000
 10
2.000000
 20
2.000000
 10
3.000000
 20
2.000000
  0
LWPOLYLINE
  8
PCB_LAYERS
420
12088115
 90
10
 70
1
 10
3.350000
 20
14.450000
 10
7.750000
 20
14.450000
 10
7.750000
 20
14.400000
 10
8.000000
 20
14.400000
 10
8.000000
 20
14.650000
 10
7.750000
 20
14.650000
 10
3.150000
 20
14.650000
 10
3.000000
 20
14.650000
 10
3.000000
 20
14.400000
 10
3.350000
 20
14.400000
  0
LWPOLYLINE
  8
PCB_LAYERS
420
12088115
 90
18
 70
1
 10
21.000000
 20
9.000000
 10
20.000000
 20
9.000000
 10
20.000000
 20
8.000000
 10
20.400000
 20
8.000000
 10
20.400000
 20
7.750000
 10
20.450000
 20
7.750000
 10
20.450000
 20
3.350000
 10
20.400000
 20
3.350000
 10
20.400000
 20
3.000000
 10
20.000000
 20
3.000000
 10
20.000000
 20
2.000000
 10
21.000000
 20
2.000000
 10
21.000000
 20
3.000000
 10
20.650000
 20
3.000000
 10
20.650000
 20
3.150000
 10
20.650000
 20
7.750000
 10
20.650000
 20
8.000000
 10
21.000000
 20
8.000000
  0
LWPOLYLINE
  8
PCB_LAYERS
420
12088115
 90
10
 70
1
 10
3.350000
 20
2.450000
 10
7.750000
 20
2.450000
 10
7.750000
 20
2.400000
 10
8.000000
 20
2.400000
 10
8.000000
 20
2.650000
 10
7.750000
 20
2.650000
 10
3.150000
 20
2.650000
 10
3.000000
 20
2.650000
 10
3.000000
 20
2.400000
 10
3.350000
 20
2.400000
  0
LWPOLYLINE
  8
PCB_LAYERS
420
12088115
 90
10
 70
1
 10
20.650000
 20
3.150000
 10
20.650000
 20
7.750000
 10
20.650000
 20
8.000000
 10
20.400000
 20
8.000000
 10
20.400000
 20
7.750000
 10
20.450000
 20
7.750000
 10
20.450000
 20
3.350000
 10
20.400000
 20
3.350000
 10
20.400000
 20
3.000000
 10
20.650000
 20
3.000000
  0
LWPOLYLINE
  8
PCB_LAYERS
420
12088115
 90
18
 70
1
 10
15.000000
 20
9.000000
 10
14.000000
 20
9.000000
 10
14.000000
 20
8.000000
 10
14.400000
 20
8.000000
 10
14.400000
 20
7.750000
 10
14.450000
 20
7.750000
 10
14.450000
 20
3.350000
 10
14.400000
 20
3.350000
 10
14.400000
 20
3.000000
 10
14.000000
 20
3.000000
 10
14.000000
 20
2.000000
 10
15.000000
 20
2.000000
 10
15.000000
 20
3.000000
 10
14.650000
 20
3.000000
 10
14.650000
 20
3.150000
 10
14.650000
 20
7.750000
 10
14.650000
 20
8.000000
 10
15.000000
 20
8.000000
  0
LWPOLYLINE
  8
PCB_LAYERS
420
12088115
 90
18
 70
1
 10
3.000000
 20
20.400000
 10
3.350000
 20
20.400000
 10
3.350000
 20
20.450000
 10
7.750000
 20
20.450000
 10
7.750000
 20
20.400000
 10
8.000000
 20
20.400000
 10
8.000000
 20
20.000000
 10
9.000000
 20
20.000000
 10
9.000000
 20
21.000000
 10
8.000000
 20
21.000000
 10
8.000000
 20
20.650000
 10
7.750000
 20
20.650000
 10
3.150000
 20
20.650000
 10
3.000000
 20
20.650000
 10
3.000000
 20
21.000000
 10
2.000000
 20
21.000000
 10
2.000000
 20
20.000000
 10
3.000000
 20
20.000000
  0
LWPOLYLINE
  8
PCB_LAYERS
420
12088115
 90
10
 70
1
 10
14.650000
 20
3.150000
 10
14.650000
 20
7.750000
 10
14.650000
 20
8.000000
 10
14.400000
 20
8.000000
 10
14.400000
 20
7.750000
 10
14.450000
 20
7.750000
 10
14.450000
 20
3.350000
 10
14.400000
 20
3.350000
 10
14.400000
 20
3.000000
 10
14.650000
 20
3.000000
  0
LWPOLYLINE
  8
PCB_LAYERS
420
12088115
 90
18
 70
1
 10
3.000000
 20
8.400000
 10
3.350000
 20
8.400000
 10
3.350000
 20
8.450000
 10
7.750000
 20
8.450000
 10
7.750000
 20
8.400000
 10
8.000000
 20
8.400000
 10
8.000000
 20
8.000000
 10
9.000000
 20
8.000000
 10
9.000000
 20
9.000000
 10
8.000000
 20
9.000000
 10
8.000000
 20
8.650000
 10
7.750000
 20
8.650000
 10
3.150000
 20
8.650000
 10
3.000000
 20
8.650000
 10
3.000000
 20
9.000000
 10
2.000000
 20
9.000000
 10
2.000000
 20
8.000000
 10
3.000000
 20
8.000000
  0
LWPOLYLINE
  8
PCB_LAYERS
420
12088115
 90
10
 70
1
 10
3.350000
 20
20.450000
 10
7.750000
 20
20.450000
 10
7.750000
 20
20.400000
 10
8.000000
 20
20.400000
 10
8.000000
 20
20.650000
 10
7.750000
 20
20.650000
 10
3.150000
 20
20.650000
 10
3.000000
 20
20.650000
 10
3.000000
 20
20.400000
 10
3.350000
 20
20.400000
  0
LWPOLYLINE
  8
PCB_LAYERS
420
12088115
 90
10
 70
1
 10
3.350000
 20
8.450000
 10
7.750000
 20
8.450000
 10
7.750000
 20
8.400000
 10
8.000000
 20
8.400000
 10
8.000000
 20
8.650000
 10
7.750000
 20
8.650000
 10
3.150000
 20
8.650000
 10
3.000000
 20
8.650000
 10
3.000000
 20
8.400000
 10
3.350000
 20
8.400000
  0
ENDSEC
  0
EOF
