  0
SECTION
  2
HEADER
  9
$ACADVER
  1
AC1018
  0
ENDSEC
  0
SECTION
  2
TABLES
  0
TABLE
  2
LAYER
  0
LAYER
  2
L_FR4
 70
0
 62
7
420
3046706
440
33554432
  0
LAYER
  2
L_Copper
 70
0
 62
7
420
12088115
440
33554432
  0
ENDTAB
  0
ENDSEC
  0
SECTION
  2
ENTITIES
  0
LWPOLYLINE
  8
Z0.5500mm_FR4
420
3046706
 90
4
 70
1
 10
0.000000
 20
0.000000
 10
50.000000
 20
0.000000
 10
50.000000
 20
50.000000
 10
0.000000
 20
50.000000
  0
LWPOLYLINE
  8
Z1.0750mm_Copper
420
12088115
 90
4
 70
1
 10
5.450000
 20
24.950000
 10
6.300000
 20
24.950000
 10
6.300000
 20
25.300000
 10
5.450000
 20
25.300000
  0
LWPOLYLINE
  8
Z1.0750mm_Copper
420
12088115
 90
4
 70
1
 10
6.200000
 20
25.200000
 10
44.300000
 20
25.200000
 10
44.300000
 20
25.300000
 10
6.200000
 20
25.300000
  0
LWPOLYLINE
  8
Z1.0750mm_Copper
420
12088115
 90
4
 70
1
 10
44.200000
 20
24.950000
 10
44.550000
 20
24.950000
 10
44.550000
 20
25.300000
 10
44.200000
 20
25.300000
  0
LWPOLYLINE
  8
Z1.1000mm_Component_Components
420
12088115
 90
4
 70
1
 10
5.000000
 20
24.500000
 10
6.000000
 20
24.500000
 10
6.000000
 20
25.500000
 10
5.000000
 20
25.500000
  0
LWPOLYLINE
  8
Z1.1000mm_Component_Components
420
12088115
 90
4
 70
1
 10
5.000000
 20
24.500000
 10
6.000000
 20
24.500000
 10
6.000000
 20
25.500000
 10
5.000000
 20
25.500000
  0
LWPOLYLINE
  8
Z1.1000mm_Component_Components
420
12088115
 90
4
 70
1
 10
44.000000
 20
24.500000
 10
45.000000
 20
24.500000
 10
45.000000
 20
25.500000
 10
44.000000
 20
25.500000
  0
LWPOLYLINE
  8
Z1.1000mm_Component_Components
420
12088115
 90
4
 70
1
 10
44.000000
 20
24.500000
 10
45.000000
 20
24.500000
 10
45.000000
 20
25.500000
 10
44.000000
 20
25.500000
  0
LWPOLYLINE
  8
Z1.5500mm_Component_Components
420
12088115
 90
4
 70
1
 10
20.000000
 20
20.000000
 10
30.000000
 20
20.000000
 10
30.000000
 20
30.000000
 10
20.000000
 20
30.000000
  0
LWPOLYLINE
  8
Z1.5500mm_Component_Components
420
12088115
 90
4
 70
1
 10
20.000000
 20
20.000000
 10
30.000000
 20
20.000000
 10
30.000000
 20
30.000000
 10
20.000000
 20
30.000000
  0
LWPOLYLINE
  8
Z1.0500mm_Copper_Traces
420
12088115
 43
0.100000
 90
2
 70
0
 10
5.500000
 20
25.000000
 10
6.250000
 20
25.250000
  0
LWPOLYLINE
  8
Z1.0500mm_Copper_Traces
420
12088115
 43
0.100000
 90
2
 70
0
 10
6.250000
 20
25.250000
 10
44.250000
 20
25.250000
  0
LWPOLYLINE
  8
Z1.0500mm_Copper_Traces
420
12088115
 43
0.100000
 90
2
 70
0
 10
44.250000
 20
25.250000
 10
44.500000
 20
25.000000
  0
ENDSEC
  0
EOF
