  0
SECTION
  2
HEADER
  9
$ACADVER
  1
AC1018
  0
ENDSEC
  0
SECTION
  2
TABLES
  0
TABLE
  2
LAYER
  0
LAYER
  2
DRILL
 70
0
 62
0
  0
LAYER
  2
TOP_COMPONENTS
 70
0
 62
7
  0
LAYER
  2
BOTTOM_COMPONENTS
 70
0
 62
7
  0
LAYER
  2
PCB_LAYERS
 70
0
 62
7
  0
ENDTAB
  0
ENDSEC
  0
SECTION
  2
ENTITIES
  0
LWPOLYLINE
  8
PCB_LAYERS
420
12088115
 90
36
 70
1
 10
4.600000
 20
11.400000
 10
12.400000
 20
11.400000
 10
12.400000
 20
4.400000
 10
12.600000
 20
4.400000
 10
12.600000
 20
11.400000
 10
12.600000
 20
18.400000
 10
12.600000
 20
25.400000
 10
20.400000
 20
25.400000
 10
20.400000
 20
18.600000
 10
20.400000
 20
11.600000
 10
20.400000
 20
4.400000
 10
20.600000
 20
4.400000
 10
20.600000
 20
11.400000
 10
20.600000
 20
18.400000
 10
20.600000
 20
25.400000
 10
28.400000
 20
25.400000
 10
28.400000
 20
18.600000
 10
28.400000
 20
11.600000
 10
28.400000
 20
4.400000
 10
28.600000
 20
4.400000
 10
28.600000
 20
11.400000
 10
28.600000
 20
18.400000
 10
28.600000
 20
25.600000
 10
28.400000
 20
25.600000
 10
20.400000
 20
25.600000
 10
12.400000
 20
25.600000
 10
12.400000
 20
18.600000
 10
12.400000
 20
11.600000
 10
4.600000
 20
11.600000
 10
4.600000
 20
18.400000
 10
4.600000
 20
25.600000
 10
4.400000
 20
25.600000
 10
4.400000
 20
18.600000
 10
4.400000
 20
11.600000
 10
4.400000
 20
4.400000
 10
4.600000
 20
4.400000
  0
LWPOLYLINE
  8
PCB_LAYERS
420
12088115
 90
4
 70
1
 10
5.000000
 20
26.000000
 10
4.000000
 20
26.000000
 10
4.000000
 20
25.000000
 10
5.000000
 20
25.000000
  0
LWPOLYLINE
  8
PCB_LAYERS
420
12088115
 90
4
 70
1
 10
13.000000
 20
26.000000
 10
12.000000
 20
26.000000
 10
12.000000
 20
25.000000
 10
13.000000
 20
25.000000
  0
LWPOLYLINE
  8
PCB_LAYERS
420
12088115
 90
4
 70
1
 10
21.000000
 20
26.000000
 10
20.000000
 20
26.000000
 10
20.000000
 20
25.000000
 10
21.000000
 20
25.000000
  0
LWPOLYLINE
  8
PCB_LAYERS
420
12088115
 90
4
 70
1
 10
29.000000
 20
26.000000
 10
28.000000
 20
26.000000
 10
28.000000
 20
25.000000
 10
29.000000
 20
25.000000
  0
LWPOLYLINE
  8
PCB_LAYERS
420
12088115
 90
4
 70
1
 10
5.000000
 20
19.000000
 10
4.000000
 20
19.000000
 10
4.000000
 20
18.000000
 10
5.000000
 20
18.000000
  0
LWPOLYLINE
  8
PCB_LAYERS
420
12088115
 90
4
 70
1
 10
13.000000
 20
19.000000
 10
12.000000
 20
19.000000
 10
12.000000
 20
18.000000
 10
13.000000
 20
18.000000
  0
LWPOLYLINE
  8
PCB_LAYERS
420
12088115
 90
4
 70
1
 10
21.000000
 20
19.000000
 10
20.000000
 20
19.000000
 10
20.000000
 20
18.000000
 10
21.000000
 20
18.000000
  0
LWPOLYLINE
  8
PCB_LAYERS
420
12088115
 90
4
 70
1
 10
29.000000
 20
19.000000
 10
28.000000
 20
19.000000
 10
28.000000
 20
18.000000
 10
29.000000
 20
18.000000
  0
LWPOLYLINE
  8
PCB_LAYERS
420
12088115
 90
4
 70
1
 10
5.000000
 20
12.000000
 10
4.000000
 20
12.000000
 10
4.000000
 20
11.000000
 10
5.000000
 20
11.000000
  0
LWPOLYLINE
  8
PCB_LAYERS
420
12088115
 90
4
 70
1
 10
13.000000
 20
12.000000
 10
12.000000
 20
12.000000
 10
12.000000
 20
11.000000
 10
13.000000
 20
11.000000
  0
LWPOLYLINE
  8
PCB_LAYERS
420
12088115
 90
4
 70
1
 10
21.000000
 20
12.000000
 10
20.000000
 20
12.000000
 10
20.000000
 20
11.000000
 10
21.000000
 20
11.000000
  0
LWPOLYLINE
  8
PCB_LAYERS
420
12088115
 90
4
 70
1
 10
29.000000
 20
12.000000
 10
28.000000
 20
12.000000
 10
28.000000
 20
11.000000
 10
29.000000
 20
11.000000
  0
LWPOLYLINE
  8
PCB_LAYERS
420
12088115
 90
4
 70
1
 10
5.000000
 20
5.000000
 10
4.000000
 20
5.000000
 10
4.000000
 20
4.000000
 10
5.000000
 20
4.000000
  0
LWPOLYLINE
  8
PCB_LAYERS
420
12088115
 90
4
 70
1
 10
13.000000
 20
5.000000
 10
12.000000
 20
5.000000
 10
12.000000
 20
4.000000
 10
13.000000
 20
4.000000
  0
LWPOLYLINE
  8
PCB_LAYERS
420
12088115
 90
4
 70
1
 10
21.000000
 20
5.000000
 10
20.000000
 20
5.000000
 10
20.000000
 20
4.000000
 10
21.000000
 20
4.000000
  0
LWPOLYLINE
  8
PCB_LAYERS
420
12088115
 90
4
 70
1
 10
29.000000
 20
5.000000
 10
28.000000
 20
5.000000
 10
28.000000
 20
4.000000
 10
29.000000
 20
4.000000
  0
ENDSEC
  0
EOF
