  0
SECTION
  2
HEADER
  9
$ACADVER
  1
AC1018
  0
ENDSEC
  0
SECTION
  2
TABLES
  0
TABLE
  2
LAYER
  0
LAYER
  2
nwell
 70
0
 62
7
  0
LAYER
  2
tap
 70
0
 62
7
  0
LAYER
  2
psdm
 70
0
 62
7
  0
LAYER
  2
nsdm
 70
0
 62
7
  0
LAYER
  2
diff
 70
0
 62
7
  0
LAYER
  2
poly
 70
0
 62
7
  0
LAYER
  2
npc
 70
0
 62
7
  0
LAYER
  2
li1
 70
0
 62
7
  0
LAYER
  2
metal1
 70
0
 62
7
  0
LAYER
  2
pad
 70
0
 62
7
  0
LAYER
  2
licon
 70
0
 62
7
  0
LAYER
  2
mcon
 70
0
 62
7
  0
LAYER
  2
N_Plus_Implant_Mask
 70
0
 62
7
  0
LAYER
  2
Npc_Mask
 70
0
 62
7
  0
LAYER
  2
P_Plus_Implant_Mask
 70
0
 62
7
  0
LAYER
  2
Tap_Mask
 70
0
 62
7
  0
LAYER
  2
Pad_Mask
 70
0
 62
7
  0
ENDTAB
  0
ENDSEC
  0
SECTION
  2
ENTITIES
  0
LWPOLYLINE
  8
nwell
420
13684991
 90
4
 70
1
 10
0.101155
 20
0.101330
 10
0.098845
 20
0.101330
 10
0.098845
 20
0.098670
 10
0.101155
 20
0.098670
  0
LWPOLYLINE
  8
diff
420
8454016
 90
4
 70
1
 10
0.096300
 20
0.100300
 10
0.095700
 20
0.100300
 10
0.095700
 20
0.099700
 10
0.096300
 20
0.099700
  0
LWPOLYLINE
  8
diff
420
8454016
 90
4
 70
1
 10
0.096300
 20
0.060300
 10
0.095700
 20
0.060300
 10
0.095700
 20
0.059700
 10
0.096300
 20
0.059700
  0
LWPOLYLINE
  8
diff
420
8454016
 90
4
 70
1
 10
0.100825
 20
0.101000
 10
0.099175
 20
0.101000
 10
0.099175
 20
0.099000
 10
0.100825
 20
0.099000
  0
LWPOLYLINE
  8
diff
420
8454016
 90
4
 70
1
 10
0.100825
 20
0.060500
 10
0.099175
 20
0.060500
 10
0.099175
 20
0.059500
 10
0.100825
 20
0.059500
  0
LWPOLYLINE
  8
licon
420
8421631
 90
4
 70
1
 10
0.096085
 20
0.100085
 10
0.095915
 20
0.100085
 10
0.095915
 20
0.099915
 10
0.096085
 20
0.099915
  0
LWPOLYLINE
  8
licon
420
8421631
 90
4
 70
1
 10
0.096085
 20
0.060085
 10
0.095915
 20
0.060085
 10
0.095915
 20
0.059915
 10
0.096085
 20
0.059915
  0
LWPOLYLINE
  8
licon
420
8421631
 90
4
 70
1
 10
0.099635
 20
0.100685
 10
0.099465
 20
0.100685
 10
0.099465
 20
0.100515
 10
0.099635
 20
0.100515
  0
LWPOLYLINE
  8
licon
420
8421631
 90
4
 70
1
 10
0.100535
 20
0.100685
 10
0.100365
 20
0.100685
 10
0.100365
 20
0.100515
 10
0.100535
 20
0.100515
  0
LWPOLYLINE
  8
licon
420
8421631
 90
4
 70
1
 10
0.099635
 20
0.100285
 10
0.099465
 20
0.100285
 10
0.099465
 20
0.100115
 10
0.099635
 20
0.100115
  0
LWPOLYLINE
  8
licon
420
8421631
 90
4
 70
1
 10
0.100535
 20
0.100285
 10
0.100365
 20
0.100285
 10
0.100365
 20
0.100115
 10
0.100535
 20
0.100115
  0
LWPOLYLINE
  8
licon
420
8421631
 90
4
 70
1
 10
0.099635
 20
0.099885
 10
0.099465
 20
0.099885
 10
0.099465
 20
0.099715
 10
0.099635
 20
0.099715
  0
LWPOLYLINE
  8
licon
420
8421631
 90
4
 70
1
 10
0.100535
 20
0.099885
 10
0.100365
 20
0.099885
 10
0.100365
 20
0.099715
 10
0.100535
 20
0.099715
  0
LWPOLYLINE
  8
licon
420
8421631
 90
4
 70
1
 10
0.099635
 20
0.099485
 10
0.099465
 20
0.099485
 10
0.099465
 20
0.099315
 10
0.099635
 20
0.099315
  0
LWPOLYLINE
  8
licon
420
8421631
 90
4
 70
1
 10
0.100535
 20
0.099485
 10
0.100365
 20
0.099485
 10
0.100365
 20
0.099315
 10
0.100535
 20
0.099315
  0
LWPOLYLINE
  8
licon
420
8421631
 90
4
 70
1
 10
0.099635
 20
0.060285
 10
0.099465
 20
0.060285
 10
0.099465
 20
0.060115
 10
0.099635
 20
0.060115
  0
LWPOLYLINE
  8
licon
420
8421631
 90
4
 70
1
 10
0.100535
 20
0.060285
 10
0.100365
 20
0.060285
 10
0.100365
 20
0.060115
 10
0.100535
 20
0.060115
  0
LWPOLYLINE
  8
licon
420
8421631
 90
4
 70
1
 10
0.099635
 20
0.059885
 10
0.099465
 20
0.059885
 10
0.099465
 20
0.059715
 10
0.099635
 20
0.059715
  0
LWPOLYLINE
  8
licon
420
8421631
 90
4
 70
1
 10
0.100535
 20
0.059885
 10
0.100365
 20
0.059885
 10
0.100365
 20
0.059715
 10
0.100535
 20
0.059715
  0
LWPOLYLINE
  8
poly
420
16736352
 90
4
 70
1
 10
0.100075
 20
0.101200
 10
0.099925
 20
0.101200
 10
0.099925
 20
0.098800
 10
0.100075
 20
0.098800
  0
LWPOLYLINE
  8
poly
420
16736352
 90
4
 70
1
 10
0.100075
 20
0.060700
 10
0.099925
 20
0.060700
 10
0.099925
 20
0.059300
 10
0.100075
 20
0.059300
  0
LWPOLYLINE
  8
poly
420
16736352
 90
4
 70
1
 10
0.100200
 20
0.098800
 10
0.099800
 20
0.098800
 10
0.099800
 20
0.098400
 10
0.100200
 20
0.098400
  0
LWPOLYLINE
  8
poly
420
16736352
 90
4
 70
1
 10
0.100200
 20
0.061100
 10
0.099800
 20
0.061100
 10
0.099800
 20
0.060700
 10
0.100200
 20
0.060700
  0
LWPOLYLINE
  8
licon
420
8421631
 90
4
 70
1
 10
0.100085
 20
0.098685
 10
0.099915
 20
0.098685
 10
0.099915
 20
0.098515
 10
0.100085
 20
0.098515
  0
LWPOLYLINE
  8
licon
420
8421631
 90
4
 70
1
 10
0.100085
 20
0.060985
 10
0.099915
 20
0.060985
 10
0.099915
 20
0.060815
 10
0.100085
 20
0.060815
  0
LWPOLYLINE
  8
li1
420
4210752
 90
4
 70
1
 10
0.099750
 20
0.101000
 10
0.099350
 20
0.101000
 10
0.099350
 20
0.099000
 10
0.099750
 20
0.099000
  0
LWPOLYLINE
  8
li1
420
4210752
 90
4
 70
1
 10
0.096300
 20
0.100300
 10
0.095700
 20
0.100300
 10
0.095700
 20
0.099700
 10
0.096300
 20
0.099700
  0
LWPOLYLINE
  8
li1
420
4210752
 90
4
 70
1
 10
0.099750
 20
0.060500
 10
0.099350
 20
0.060500
 10
0.099350
 20
0.059500
 10
0.099750
 20
0.059500
  0
LWPOLYLINE
  8
li1
420
4210752
 90
4
 70
1
 10
0.096300
 20
0.060300
 10
0.095700
 20
0.060300
 10
0.095700
 20
0.059700
 10
0.096300
 20
0.059700
  0
LWPOLYLINE
  8
li1
420
4210752
 90
4
 70
1
 10
0.100200
 20
0.098800
 10
0.099800
 20
0.098800
 10
0.099800
 20
0.098400
 10
0.100200
 20
0.098400
  0
LWPOLYLINE
  8
li1
420
4210752
 90
4
 70
1
 10
0.100200
 20
0.061100
 10
0.099800
 20
0.061100
 10
0.099800
 20
0.060700
 10
0.100200
 20
0.060700
  0
LWPOLYLINE
  8
li1
420
4210752
 90
4
 70
1
 10
0.100650
 20
0.101000
 10
0.100250
 20
0.101000
 10
0.100250
 20
0.099000
 10
0.100650
 20
0.099000
  0
LWPOLYLINE
  8
li1
420
4210752
 90
4
 70
1
 10
0.100650
 20
0.060500
 10
0.100250
 20
0.060500
 10
0.100250
 20
0.059500
 10
0.100650
 20
0.059500
  0
LWPOLYLINE
  8
mcon
420
8421631
 90
4
 70
1
 10
0.099635
 20
0.100685
 10
0.099465
 20
0.100685
 10
0.099465
 20
0.100515
 10
0.099635
 20
0.100515
  0
LWPOLYLINE
  8
mcon
420
8421631
 90
4
 70
1
 10
0.099635
 20
0.100285
 10
0.099465
 20
0.100285
 10
0.099465
 20
0.100115
 10
0.099635
 20
0.100115
  0
LWPOLYLINE
  8
mcon
420
8421631
 90
4
 70
1
 10
0.096085
 20
0.100085
 10
0.095915
 20
0.100085
 10
0.095915
 20
0.099915
 10
0.096085
 20
0.099915
  0
LWPOLYLINE
  8
mcon
420
8421631
 90
4
 70
1
 10
0.099635
 20
0.099885
 10
0.099465
 20
0.099885
 10
0.099465
 20
0.099715
 10
0.099635
 20
0.099715
  0
LWPOLYLINE
  8
mcon
420
8421631
 90
4
 70
1
 10
0.099635
 20
0.099485
 10
0.099465
 20
0.099485
 10
0.099465
 20
0.099315
 10
0.099635
 20
0.099315
  0
LWPOLYLINE
  8
mcon
420
8421631
 90
4
 70
1
 10
0.099635
 20
0.060285
 10
0.099465
 20
0.060285
 10
0.099465
 20
0.060115
 10
0.099635
 20
0.060115
  0
LWPOLYLINE
  8
mcon
420
8421631
 90
4
 70
1
 10
0.096085
 20
0.060085
 10
0.095915
 20
0.060085
 10
0.095915
 20
0.059915
 10
0.096085
 20
0.059915
  0
LWPOLYLINE
  8
mcon
420
8421631
 90
4
 70
1
 10
0.099635
 20
0.059885
 10
0.099465
 20
0.059885
 10
0.099465
 20
0.059715
 10
0.099635
 20
0.059715
  0
LWPOLYLINE
  8
mcon
420
8421631
 90
4
 70
1
 10
0.100085
 20
0.098685
 10
0.099915
 20
0.098685
 10
0.099915
 20
0.098515
 10
0.100085
 20
0.098515
  0
LWPOLYLINE
  8
mcon
420
8421631
 90
4
 70
1
 10
0.100085
 20
0.060985
 10
0.099915
 20
0.060985
 10
0.099915
 20
0.060815
 10
0.100085
 20
0.060815
  0
LWPOLYLINE
  8
mcon
420
8421631
 90
4
 70
1
 10
0.100535
 20
0.100685
 10
0.100365
 20
0.100685
 10
0.100365
 20
0.100515
 10
0.100535
 20
0.100515
  0
LWPOLYLINE
  8
mcon
420
8421631
 90
4
 70
1
 10
0.100535
 20
0.100285
 10
0.100365
 20
0.100285
 10
0.100365
 20
0.100115
 10
0.100535
 20
0.100115
  0
LWPOLYLINE
  8
mcon
420
8421631
 90
4
 70
1
 10
0.100535
 20
0.099885
 10
0.100365
 20
0.099885
 10
0.100365
 20
0.099715
 10
0.100535
 20
0.099715
  0
LWPOLYLINE
  8
mcon
420
8421631
 90
4
 70
1
 10
0.100535
 20
0.099485
 10
0.100365
 20
0.099485
 10
0.100365
 20
0.099315
 10
0.100535
 20
0.099315
  0
LWPOLYLINE
  8
mcon
420
8421631
 90
4
 70
1
 10
0.100535
 20
0.060285
 10
0.100365
 20
0.060285
 10
0.100365
 20
0.060115
 10
0.100535
 20
0.060115
  0
LWPOLYLINE
  8
mcon
420
8421631
 90
4
 70
1
 10
0.100535
 20
0.059885
 10
0.100365
 20
0.059885
 10
0.100365
 20
0.059715
 10
0.100535
 20
0.059715
  0
LWPOLYLINE
  8
metal1
420
12632256
 90
18
 70
1
 10
0.099750
 20
0.099750
 10
0.099797
 20
0.099750
 10
0.099993
 20
0.115000
 10
0.120000
 20
0.115000
 10
0.120000
 20
0.155000
 10
0.080000
 20
0.155000
 10
0.080000
 20
0.115000
 10
0.099493
 20
0.115000
 10
0.099303
 20
0.100250
 10
0.096300
 20
0.100250
 10
0.096300
 20
0.100300
 10
0.095700
 20
0.100300
 10
0.095700
 20
0.099700
 10
0.096300
 20
0.099700
 10
0.096300
 20
0.099750
 10
0.099350
 20
0.099750
 10
0.099350
 20
0.099000
 10
0.099750
 20
0.099000
  0
LWPOLYLINE
  8
metal1
420
12632256
 90
18
 70
1
 10
0.120000
 20
0.045000
 10
0.099993
 20
0.045000
 10
0.099797
 20
0.060250
 10
0.099750
 20
0.060250
 10
0.099750
 20
0.060500
 10
0.099350
 20
0.060500
 10
0.099350
 20
0.060250
 10
0.096300
 20
0.060250
 10
0.096300
 20
0.060300
 10
0.095700
 20
0.060300
 10
0.095700
 20
0.059700
 10
0.096300
 20
0.059700
 10
0.096300
 20
0.059750
 10
0.099303
 20
0.059750
 10
0.099493
 20
0.045000
 10
0.080000
 20
0.045000
 10
0.080000
 20
0.005000
 10
0.120000
 20
0.005000
  0
LWPOLYLINE
  8
metal1
420
12632256
 90
19
 70
1
 10
0.050000
 20
0.074387
 10
0.099800
 20
0.060798
 10
0.099800
 20
0.060700
 10
0.100200
 20
0.060700
 10
0.100200
 20
0.061100
 10
0.100150
 20
0.061100
 10
0.100150
 20
0.098400
 10
0.100200
 20
0.098400
 10
0.100200
 20
0.098800
 10
0.099800
 20
0.098800
 10
0.099800
 20
0.098400
 10
0.099850
 20
0.098400
 10
0.099850
 20
0.061100
 10
0.099837
 20
0.061100
 10
0.050000
 20
0.074698
 10
0.050000
 20
0.100000
 10
0.010000
 20
0.100000
 10
0.010000
 20
0.060000
 10
0.050000
 20
0.060000
  0
LWPOLYLINE
  8
metal1
420
12632256
 90
20
 70
1
 10
0.100650
 20
0.060500
 10
0.100600
 20
0.060500
 10
0.100600
 20
0.099000
 10
0.100650
 20
0.099000
 10
0.100650
 20
0.099786
 10
0.150000
 20
0.085595
 10
0.150000
 20
0.060000
 10
0.190000
 20
0.060000
 10
0.190000
 20
0.100000
 10
0.150000
 20
0.100000
 10
0.150000
 20
0.085907
 10
0.100650
 20
0.100098
 10
0.100650
 20
0.101000
 10
0.100250
 20
0.101000
 10
0.100250
 20
0.099000
 10
0.100300
 20
0.099000
 10
0.100300
 20
0.060500
 10
0.100250
 20
0.060500
 10
0.100250
 20
0.059500
 10
0.100650
 20
0.059500
  0
LWPOLYLINE
  8
nsdm
420
8454143
 90
4
 70
1
 10
0.099045
 20
0.059370
 10
0.100955
 20
0.059370
 10
0.100955
 20
0.060630
 10
0.099045
 20
0.060630
  0
LWPOLYLINE
  8
npc
420
4259839
 90
4
 70
1
 10
0.099710
 20
0.060610
 10
0.100290
 20
0.060610
 10
0.100290
 20
0.061190
 10
0.099710
 20
0.061190
  0
LWPOLYLINE
  8
psdm
420
16744703
 90
4
 70
1
 10
0.099045
 20
0.098870
 10
0.100955
 20
0.098870
 10
0.100955
 20
0.101130
 10
0.099045
 20
0.101130
  0
LWPOLYLINE
  8
npc
420
4259839
 90
4
 70
1
 10
0.099710
 20
0.098310
 10
0.100290
 20
0.098310
 10
0.100290
 20
0.098890
 10
0.099710
 20
0.098890
  0
LWPOLYLINE
  8
tap
420
8454016
 90
4
 70
1
 10
0.095700
 20
0.059700
 10
0.096300
 20
0.059700
 10
0.096300
 20
0.060300
 10
0.095700
 20
0.060300
  0
LWPOLYLINE
  8
psdm
420
16744703
 90
4
 70
1
 10
0.095570
 20
0.059570
 10
0.096430
 20
0.059570
 10
0.096430
 20
0.060430
 10
0.095570
 20
0.060430
  0
LWPOLYLINE
  8
tap
420
8454016
 90
4
 70
1
 10
0.095700
 20
0.099700
 10
0.096300
 20
0.099700
 10
0.096300
 20
0.100300
 10
0.095700
 20
0.100300
  0
LWPOLYLINE
  8
nsdm
420
8454143
 90
4
 70
1
 10
0.095570
 20
0.099570
 10
0.096430
 20
0.099570
 10
0.096430
 20
0.100430
 10
0.095570
 20
0.100430
  0
LWPOLYLINE
  8
pad
420
16776960
 90
4
 70
1
 10
0.010000
 20
0.060000
 10
0.050000
 20
0.060000
 10
0.050000
 20
0.100000
 10
0.010000
 20
0.100000
  0
LWPOLYLINE
  8
pad
420
16776960
 90
4
 70
1
 10
0.150000
 20
0.060000
 10
0.190000
 20
0.060000
 10
0.190000
 20
0.100000
 10
0.150000
 20
0.100000
  0
LWPOLYLINE
  8
pad
420
16776960
 90
4
 70
1
 10
0.080000
 20
0.115000
 10
0.120000
 20
0.115000
 10
0.120000
 20
0.155000
 10
0.080000
 20
0.155000
  0
LWPOLYLINE
  8
pad
420
16776960
 90
4
 70
1
 10
0.080000
 20
0.005000
 10
0.120000
 20
0.005000
 10
0.120000
 20
0.045000
 10
0.080000
 20
0.045000
  0
ENDSEC
  0
EOF
