  0
SECTION
  2
HEADER
  9
$ACADVER
  1
AC1018
  0
ENDSEC
  0
SECTION
  2
TABLES
  0
TABLE
  2
LAYER
  0
LAYER
  2
DRILL
 70
0
 62
0
  0
LAYER
  2
TOP_COMPONENTS
 70
0
 62
7
  0
LAYER
  2
BOTTOM_COMPONENTS
 70
0
 62
7
  0
LAYER
  2
PCB_LAYERS
 70
0
 62
7
  0
ENDTAB
  0
ENDSEC
  0
SECTION
  2
ENTITIES
  0
LWPOLYLINE
  8
PCB_LAYERS
420
12088115
 90
64
 70
1
 10
10.034305
 20
14.651686
 10
10.068281
 20
14.656726
 10
10.101599
 20
14.665071
 10
10.133939
 20
14.676643
 10
10.164988
 20
14.691328
 10
10.194449
 20
14.708986
 10
10.222037
 20
14.729447
 10
10.247487
 20
14.752513
 10
10.270553
 20
14.777963
 10
10.291014
 20
14.805551
 10
10.308672
 20
14.835012
 10
10.323357
 20
14.866061
 10
10.334929
 20
14.898401
 10
10.343274
 20
14.931719
 10
10.348314
 20
14.965695
 10
10.350000
 20
15.000000
 10
10.348314
 20
15.034305
 10
10.343274
 20
15.068281
 10
10.334929
 20
15.101599
 10
10.323357
 20
15.133939
 10
10.308672
 20
15.164988
 10
10.291014
 20
15.194449
 10
10.270553
 20
15.222037
 10
10.247487
 20
15.247487
 10
10.222037
 20
15.270553
 10
10.194449
 20
15.291014
 10
10.164988
 20
15.308672
 10
10.133939
 20
15.323357
 10
10.101599
 20
15.334929
 10
10.068281
 20
15.343274
 10
10.034305
 20
15.348314
 10
10.000000
 20
15.350000
 10
9.965695
 20
15.348314
 10
9.931719
 20
15.343274
 10
9.898401
 20
15.334929
 10
9.866061
 20
15.323357
 10
9.835012
 20
15.308672
 10
9.805551
 20
15.291014
 10
9.777963
 20
15.270553
 10
9.752513
 20
15.247487
 10
9.729447
 20
15.222037
 10
9.708986
 20
15.194449
 10
9.691328
 20
15.164988
 10
9.676643
 20
15.133939
 10
9.665071
 20
15.101599
 10
9.656726
 20
15.068281
 10
9.651686
 20
15.034305
 10
9.650000
 20
15.000000
 10
9.651686
 20
14.965695
 10
9.656726
 20
14.931719
 10
9.665071
 20
14.898401
 10
9.676643
 20
14.866061
 10
9.691328
 20
14.835012
 10
9.708986
 20
14.805551
 10
9.729447
 20
14.777963
 10
9.752513
 20
14.752513
 10
9.777963
 20
14.729447
 10
9.805551
 20
14.708986
 10
9.835012
 20
14.691328
 10
9.866061
 20
14.676643
 10
9.898401
 20
14.665071
 10
9.931719
 20
14.656726
 10
9.965695
 20
14.651686
 10
10.000000
 20
14.650000
  0
LWPOLYLINE
  8
PCB_LAYERS
420
12088115
 90
8
 70
1
 10
10.050000
 20
14.650000
 10
9.950000
 20
14.650000
 10
9.950000
 20
11.000000
 10
9.000000
 20
11.000000
 10
9.000000
 20
9.000000
 10
11.000000
 20
9.000000
 10
11.000000
 20
11.000000
 10
10.050000
 20
11.000000
  0
LWPOLYLINE
  8
PCB_LAYERS
420
12088115
 90
64
 70
1
 10
15.034305
 20
9.651686
 10
15.068281
 20
9.656726
 10
15.101599
 20
9.665071
 10
15.133939
 20
9.676643
 10
15.164988
 20
9.691328
 10
15.194449
 20
9.708986
 10
15.222037
 20
9.729447
 10
15.247487
 20
9.752513
 10
15.270553
 20
9.777963
 10
15.291014
 20
9.805551
 10
15.308672
 20
9.835012
 10
15.323357
 20
9.866061
 10
15.334929
 20
9.898401
 10
15.343274
 20
9.931719
 10
15.348314
 20
9.965695
 10
15.350000
 20
10.000000
 10
15.348314
 20
10.034305
 10
15.343274
 20
10.068281
 10
15.334929
 20
10.101599
 10
15.323357
 20
10.133939
 10
15.308672
 20
10.164988
 10
15.291014
 20
10.194449
 10
15.270553
 20
10.222037
 10
15.247487
 20
10.247487
 10
15.222037
 20
10.270553
 10
15.194449
 20
10.291014
 10
15.164988
 20
10.308672
 10
15.133939
 20
10.323357
 10
15.101599
 20
10.334929
 10
15.068281
 20
10.343274
 10
15.034305
 20
10.348314
 10
15.000000
 20
10.350000
 10
14.965695
 20
10.348314
 10
14.931719
 20
10.343274
 10
14.898401
 20
10.334929
 10
14.866061
 20
10.323357
 10
14.835012
 20
10.308672
 10
14.805551
 20
10.291014
 10
14.777963
 20
10.270553
 10
14.752513
 20
10.247487
 10
14.729447
 20
10.222037
 10
14.708986
 20
10.194449
 10
14.691328
 20
10.164988
 10
14.676643
 20
10.133939
 10
14.665071
 20
10.101599
 10
14.656726
 20
10.068281
 10
14.651686
 20
10.034305
 10
14.650000
 20
10.000000
 10
14.651686
 20
9.965695
 10
14.656726
 20
9.931719
 10
14.665071
 20
9.898401
 10
14.676643
 20
9.866061
 10
14.691328
 20
9.835012
 10
14.708986
 20
9.805551
 10
14.729447
 20
9.777963
 10
14.752513
 20
9.752513
 10
14.777963
 20
9.729447
 10
14.805551
 20
9.708986
 10
14.835012
 20
9.691328
 10
14.866061
 20
9.676643
 10
14.898401
 20
9.665071
 10
14.931719
 20
9.656726
 10
14.965695
 20
9.651686
 10
15.000000
 20
9.650000
  0
LWPOLYLINE
  8
PCB_LAYERS
420
12088115
 90
4
 70
1
 10
14.650000
 20
10.050000
 10
11.000000
 20
10.050000
 10
11.000000
 20
9.950000
 10
14.650000
 20
9.950000
  0
LWPOLYLINE
  8
PCB_LAYERS
420
12088115
 90
64
 70
1
 10
3.734305
 20
9.651686
 10
3.768281
 20
9.656726
 10
3.801599
 20
9.665071
 10
3.833939
 20
9.676643
 10
3.864988
 20
9.691328
 10
3.894449
 20
9.708986
 10
3.922037
 20
9.729447
 10
3.947487
 20
9.752513
 10
3.970553
 20
9.777963
 10
3.991014
 20
9.805551
 10
4.008672
 20
9.835012
 10
4.023357
 20
9.866061
 10
4.034929
 20
9.898401
 10
4.043274
 20
9.931719
 10
4.048314
 20
9.965695
 10
4.050000
 20
10.000000
 10
4.048314
 20
10.034305
 10
4.043274
 20
10.068281
 10
4.034929
 20
10.101599
 10
4.023357
 20
10.133939
 10
4.008672
 20
10.164988
 10
3.991014
 20
10.194449
 10
3.970553
 20
10.222037
 10
3.947487
 20
10.247487
 10
3.922037
 20
10.270553
 10
3.894449
 20
10.291014
 10
3.864988
 20
10.308672
 10
3.833939
 20
10.323357
 10
3.801599
 20
10.334929
 10
3.768281
 20
10.343274
 10
3.734305
 20
10.348314
 10
3.700000
 20
10.350000
 10
3.665695
 20
10.348314
 10
3.631719
 20
10.343274
 10
3.598401
 20
10.334929
 10
3.566061
 20
10.323357
 10
3.535012
 20
10.308672
 10
3.505551
 20
10.291014
 10
3.477963
 20
10.270553
 10
3.452513
 20
10.247487
 10
3.429447
 20
10.222037
 10
3.408986
 20
10.194449
 10
3.391328
 20
10.164988
 10
3.376643
 20
10.133939
 10
3.365071
 20
10.101599
 10
3.356726
 20
10.068281
 10
3.351686
 20
10.034305
 10
3.350000
 20
10.000000
 10
3.351686
 20
9.965695
 10
3.356726
 20
9.931719
 10
3.365071
 20
9.898401
 10
3.376643
 20
9.866061
 10
3.391328
 20
9.835012
 10
3.408986
 20
9.805551
 10
3.429447
 20
9.777963
 10
3.452513
 20
9.752513
 10
3.477963
 20
9.729447
 10
3.505551
 20
9.708986
 10
3.535012
 20
9.691328
 10
3.566061
 20
9.676643
 10
3.598401
 20
9.665071
 10
3.631719
 20
9.656726
 10
3.665695
 20
9.651686
 10
3.700000
 20
9.650000
  0
LWPOLYLINE
  8
PCB_LAYERS
420
12088115
 90
4
 70
1
 10
9.000000
 20
10.050000
 10
4.050000
 20
10.050000
 10
4.050000
 20
9.950000
 10
9.000000
 20
9.950000
  0
LWPOLYLINE
  8
PCB_LAYERS
420
12088115
 90
4
 70
1
 10
10.050000
 20
9.000000
 10
9.950000
 20
9.000000
 10
9.950000
 20
4.050000
 10
10.050000
 20
4.050000
  0
LWPOLYLINE
  8
PCB_LAYERS
420
12088115
 90
64
 70
1
 10
10.034305
 20
3.351686
 10
10.068281
 20
3.356726
 10
10.101599
 20
3.365071
 10
10.133939
 20
3.376643
 10
10.164988
 20
3.391328
 10
10.194449
 20
3.408986
 10
10.222037
 20
3.429447
 10
10.247487
 20
3.452513
 10
10.270553
 20
3.477963
 10
10.291014
 20
3.505551
 10
10.308672
 20
3.535012
 10
10.323357
 20
3.566061
 10
10.334929
 20
3.598401
 10
10.343274
 20
3.631719
 10
10.348314
 20
3.665695
 10
10.350000
 20
3.700000
 10
10.348314
 20
3.734305
 10
10.343274
 20
3.768281
 10
10.334929
 20
3.801599
 10
10.323357
 20
3.833939
 10
10.308672
 20
3.864988
 10
10.291014
 20
3.894449
 10
10.270553
 20
3.922037
 10
10.247487
 20
3.947487
 10
10.222037
 20
3.970553
 10
10.194449
 20
3.991014
 10
10.164988
 20
4.008672
 10
10.133939
 20
4.023357
 10
10.101599
 20
4.034929
 10
10.068281
 20
4.043274
 10
10.034305
 20
4.048314
 10
10.000000
 20
4.050000
 10
9.965695
 20
4.048314
 10
9.931719
 20
4.043274
 10
9.898401
 20
4.034929
 10
9.866061
 20
4.023357
 10
9.835012
 20
4.008672
 10
9.805551
 20
3.991014
 10
9.777963
 20
3.970553
 10
9.752513
 20
3.947487
 10
9.729447
 20
3.922037
 10
9.708986
 20
3.894449
 10
9.691328
 20
3.864988
 10
9.676643
 20
3.833939
 10
9.665071
 20
3.801599
 10
9.656726
 20
3.768281
 10
9.651686
 20
3.734305
 10
9.650000
 20
3.700000
 10
9.651686
 20
3.665695
 10
9.656726
 20
3.631719
 10
9.665071
 20
3.598401
 10
9.676643
 20
3.566061
 10
9.691328
 20
3.535012
 10
9.708986
 20
3.505551
 10
9.729447
 20
3.477963
 10
9.752513
 20
3.452513
 10
9.777963
 20
3.429447
 10
9.805551
 20
3.408986
 10
9.835012
 20
3.391328
 10
9.866061
 20
3.376643
 10
9.898401
 20
3.365071
 10
9.931719
 20
3.356726
 10
9.965695
 20
3.351686
 10
10.000000
 20
3.350000
  0
ENDSEC
  0
EOF
