  0
SECTION
  2
HEADER
  9
$ACADVER
  1
AC1018
  0
ENDSEC
  0
SECTION
  2
TABLES
  0
TABLE
  2
LAYER
  0
LAYER
  2
Silicon_N
 70
0
 62
7
  0
LAYER
  2
Silicon_P
 70
0
 62
7
  0
LAYER
  2
Polysilicon
 70
0
 62
7
  0
LAYER
  2
Aluminum
 70
0
 62
7
  0
LAYER
  2
Tungsten
 70
0
 62
7
  0
ENDTAB
  0
ENDSEC
  0
SECTION
  2
ENTITIES
  0
LWPOLYLINE
  8
Tungsten
420
6052956
 90
64
 70
1
 10
0.001022
 20
0.002527
 10
0.001043
 20
0.002530
 10
0.001065
 20
0.002535
 10
0.001086
 20
0.002543
 10
0.001106
 20
0.002552
 10
0.001125
 20
0.002563
 10
0.001142
 20
0.002577
 10
0.001159
 20
0.002591
 10
0.001173
 20
0.002608
 10
0.001187
 20
0.002625
 10
0.001198
 20
0.002644
 10
0.001207
 20
0.002664
 10
0.001215
 20
0.002685
 10
0.001220
 20
0.002707
 10
0.001223
 20
0.002728
 10
0.001225
 20
0.002750
 10
0.001223
 20
0.002772
 10
0.001220
 20
0.002793
 10
0.001215
 20
0.002815
 10
0.001207
 20
0.002836
 10
0.001198
 20
0.002856
 10
0.001187
 20
0.002875
 10
0.001173
 20
0.002892
 10
0.001159
 20
0.002909
 10
0.001142
 20
0.002923
 10
0.001125
 20
0.002937
 10
0.001106
 20
0.002948
 10
0.001086
 20
0.002957
 10
0.001065
 20
0.002965
 10
0.001043
 20
0.002970
 10
0.001022
 20
0.002973
 10
0.001000
 20
0.002975
 10
0.000978
 20
0.002973
 10
0.000957
 20
0.002970
 10
0.000935
 20
0.002965
 10
0.000914
 20
0.002957
 10
0.000894
 20
0.002948
 10
0.000875
 20
0.002937
 10
0.000858
 20
0.002923
 10
0.000841
 20
0.002909
 10
0.000827
 20
0.002892
 10
0.000813
 20
0.002875
 10
0.000802
 20
0.002856
 10
0.000793
 20
0.002836
 10
0.000785
 20
0.002815
 10
0.000780
 20
0.002793
 10
0.000777
 20
0.002772
 10
0.000775
 20
0.002750
 10
0.000777
 20
0.002728
 10
0.000780
 20
0.002707
 10
0.000785
 20
0.002685
 10
0.000793
 20
0.002664
 10
0.000802
 20
0.002644
 10
0.000813
 20
0.002625
 10
0.000827
 20
0.002608
 10
0.000841
 20
0.002591
 10
0.000858
 20
0.002577
 10
0.000875
 20
0.002563
 10
0.000894
 20
0.002552
 10
0.000914
 20
0.002543
 10
0.000935
 20
0.002535
 10
0.000957
 20
0.002530
 10
0.000978
 20
0.002527
 10
0.001000
 20
0.002525
  0
LWPOLYLINE
  8
Tungsten
420
6052956
 90
64
 70
1
 10
0.000647
 20
0.003902
 10
0.000668
 20
0.003905
 10
0.000690
 20
0.003910
 10
0.000711
 20
0.003918
 10
0.000731
 20
0.003927
 10
0.000750
 20
0.003938
 10
0.000767
 20
0.003952
 10
0.000784
 20
0.003966
 10
0.000798
 20
0.003983
 10
0.000812
 20
0.004000
 10
0.000823
 20
0.004019
 10
0.000832
 20
0.004039
 10
0.000840
 20
0.004060
 10
0.000845
 20
0.004082
 10
0.000848
 20
0.004103
 10
0.000850
 20
0.004125
 10
0.000848
 20
0.004147
 10
0.000845
 20
0.004168
 10
0.000840
 20
0.004190
 10
0.000832
 20
0.004211
 10
0.000823
 20
0.004231
 10
0.000812
 20
0.004250
 10
0.000798
 20
0.004267
 10
0.000784
 20
0.004284
 10
0.000767
 20
0.004298
 10
0.000750
 20
0.004312
 10
0.000731
 20
0.004323
 10
0.000711
 20
0.004332
 10
0.000690
 20
0.004340
 10
0.000668
 20
0.004345
 10
0.000647
 20
0.004348
 10
0.000625
 20
0.004350
 10
0.000603
 20
0.004348
 10
0.000582
 20
0.004345
 10
0.000560
 20
0.004340
 10
0.000539
 20
0.004332
 10
0.000519
 20
0.004323
 10
0.000500
 20
0.004312
 10
0.000483
 20
0.004298
 10
0.000466
 20
0.004284
 10
0.000452
 20
0.004267
 10
0.000438
 20
0.004250
 10
0.000427
 20
0.004231
 10
0.000418
 20
0.004211
 10
0.000410
 20
0.004190
 10
0.000405
 20
0.004168
 10
0.000402
 20
0.004147
 10
0.000400
 20
0.004125
 10
0.000402
 20
0.004103
 10
0.000405
 20
0.004082
 10
0.000410
 20
0.004060
 10
0.000418
 20
0.004039
 10
0.000427
 20
0.004019
 10
0.000438
 20
0.004000
 10
0.000452
 20
0.003983
 10
0.000466
 20
0.003966
 10
0.000483
 20
0.003952
 10
0.000500
 20
0.003938
 10
0.000519
 20
0.003927
 10
0.000539
 20
0.003918
 10
0.000560
 20
0.003910
 10
0.000582
 20
0.003905
 10
0.000603
 20
0.003902
 10
0.000625
 20
0.003900
  0
LWPOLYLINE
  8
Tungsten
420
6052956
 90
64
 70
1
 10
0.001897
 20
0.003902
 10
0.001918
 20
0.003905
 10
0.001940
 20
0.003910
 10
0.001961
 20
0.003918
 10
0.001981
 20
0.003927
 10
0.002000
 20
0.003938
 10
0.002017
 20
0.003952
 10
0.002034
 20
0.003966
 10
0.002048
 20
0.003983
 10
0.002062
 20
0.004000
 10
0.002073
 20
0.004019
 10
0.002082
 20
0.004039
 10
0.002090
 20
0.004060
 10
0.002095
 20
0.004082
 10
0.002098
 20
0.004103
 10
0.002100
 20
0.004125
 10
0.002098
 20
0.004147
 10
0.002095
 20
0.004168
 10
0.002090
 20
0.004190
 10
0.002082
 20
0.004211
 10
0.002073
 20
0.004231
 10
0.002062
 20
0.004250
 10
0.002048
 20
0.004267
 10
0.002034
 20
0.004284
 10
0.002017
 20
0.004298
 10
0.002000
 20
0.004312
 10
0.001981
 20
0.004323
 10
0.001961
 20
0.004332
 10
0.001940
 20
0.004340
 10
0.001918
 20
0.004345
 10
0.001897
 20
0.004348
 10
0.001875
 20
0.004350
 10
0.001853
 20
0.004348
 10
0.001832
 20
0.004345
 10
0.001810
 20
0.004340
 10
0.001789
 20
0.004332
 10
0.001769
 20
0.004323
 10
0.001750
 20
0.004312
 10
0.001733
 20
0.004298
 10
0.001716
 20
0.004284
 10
0.001702
 20
0.004267
 10
0.001688
 20
0.004250
 10
0.001677
 20
0.004231
 10
0.001668
 20
0.004211
 10
0.001660
 20
0.004190
 10
0.001655
 20
0.004168
 10
0.001652
 20
0.004147
 10
0.001650
 20
0.004125
 10
0.001652
 20
0.004103
 10
0.001655
 20
0.004082
 10
0.001660
 20
0.004060
 10
0.001668
 20
0.004039
 10
0.001677
 20
0.004019
 10
0.001688
 20
0.004000
 10
0.001702
 20
0.003983
 10
0.001716
 20
0.003966
 10
0.001733
 20
0.003952
 10
0.001750
 20
0.003938
 10
0.001769
 20
0.003927
 10
0.001789
 20
0.003918
 10
0.001810
 20
0.003910
 10
0.001832
 20
0.003905
 10
0.001853
 20
0.003902
 10
0.001875
 20
0.003900
  0
LWPOLYLINE
  8
Tungsten
420
6052956
 90
64
 70
1
 10
0.000647
 20
0.000902
 10
0.000668
 20
0.000905
 10
0.000690
 20
0.000910
 10
0.000711
 20
0.000918
 10
0.000731
 20
0.000927
 10
0.000750
 20
0.000938
 10
0.000767
 20
0.000952
 10
0.000784
 20
0.000966
 10
0.000798
 20
0.000983
 10
0.000812
 20
0.001000
 10
0.000823
 20
0.001019
 10
0.000832
 20
0.001039
 10
0.000840
 20
0.001060
 10
0.000845
 20
0.001082
 10
0.000848
 20
0.001103
 10
0.000850
 20
0.001125
 10
0.000848
 20
0.001147
 10
0.000845
 20
0.001168
 10
0.000840
 20
0.001190
 10
0.000832
 20
0.001211
 10
0.000823
 20
0.001231
 10
0.000812
 20
0.001250
 10
0.000798
 20
0.001267
 10
0.000784
 20
0.001284
 10
0.000767
 20
0.001298
 10
0.000750
 20
0.001312
 10
0.000731
 20
0.001323
 10
0.000711
 20
0.001332
 10
0.000690
 20
0.001340
 10
0.000668
 20
0.001345
 10
0.000647
 20
0.001348
 10
0.000625
 20
0.001350
 10
0.000603
 20
0.001348
 10
0.000582
 20
0.001345
 10
0.000560
 20
0.001340
 10
0.000539
 20
0.001332
 10
0.000519
 20
0.001323
 10
0.000500
 20
0.001312
 10
0.000483
 20
0.001298
 10
0.000466
 20
0.001284
 10
0.000452
 20
0.001267
 10
0.000438
 20
0.001250
 10
0.000427
 20
0.001231
 10
0.000418
 20
0.001211
 10
0.000410
 20
0.001190
 10
0.000405
 20
0.001168
 10
0.000402
 20
0.001147
 10
0.000400
 20
0.001125
 10
0.000402
 20
0.001103
 10
0.000405
 20
0.001082
 10
0.000410
 20
0.001060
 10
0.000418
 20
0.001039
 10
0.000427
 20
0.001019
 10
0.000438
 20
0.001000
 10
0.000452
 20
0.000983
 10
0.000466
 20
0.000966
 10
0.000483
 20
0.000952
 10
0.000500
 20
0.000938
 10
0.000519
 20
0.000927
 10
0.000539
 20
0.000918
 10
0.000560
 20
0.000910
 10
0.000582
 20
0.000905
 10
0.000603
 20
0.000902
 10
0.000625
 20
0.000900
  0
LWPOLYLINE
  8
Tungsten
420
6052956
 90
64
 70
1
 10
0.001897
 20
0.000902
 10
0.001918
 20
0.000905
 10
0.001940
 20
0.000910
 10
0.001961
 20
0.000918
 10
0.001981
 20
0.000927
 10
0.002000
 20
0.000938
 10
0.002017
 20
0.000952
 10
0.002034
 20
0.000966
 10
0.002048
 20
0.000983
 10
0.002062
 20
0.001000
 10
0.002073
 20
0.001019
 10
0.002082
 20
0.001039
 10
0.002090
 20
0.001060
 10
0.002095
 20
0.001082
 10
0.002098
 20
0.001103
 10
0.002100
 20
0.001125
 10
0.002098
 20
0.001147
 10
0.002095
 20
0.001168
 10
0.002090
 20
0.001190
 10
0.002082
 20
0.001211
 10
0.002073
 20
0.001231
 10
0.002062
 20
0.001250
 10
0.002048
 20
0.001267
 10
0.002034
 20
0.001284
 10
0.002017
 20
0.001298
 10
0.002000
 20
0.001312
 10
0.001981
 20
0.001323
 10
0.001961
 20
0.001332
 10
0.001940
 20
0.001340
 10
0.001918
 20
0.001345
 10
0.001897
 20
0.001348
 10
0.001875
 20
0.001350
 10
0.001853
 20
0.001348
 10
0.001832
 20
0.001345
 10
0.001810
 20
0.001340
 10
0.001789
 20
0.001332
 10
0.001769
 20
0.001323
 10
0.001750
 20
0.001312
 10
0.001733
 20
0.001298
 10
0.001716
 20
0.001284
 10
0.001702
 20
0.001267
 10
0.001688
 20
0.001250
 10
0.001677
 20
0.001231
 10
0.001668
 20
0.001211
 10
0.001660
 20
0.001190
 10
0.001655
 20
0.001168
 10
0.001652
 20
0.001147
 10
0.001650
 20
0.001125
 10
0.001652
 20
0.001103
 10
0.001655
 20
0.001082
 10
0.001660
 20
0.001060
 10
0.001668
 20
0.001039
 10
0.001677
 20
0.001019
 10
0.001688
 20
0.001000
 10
0.001702
 20
0.000983
 10
0.001716
 20
0.000966
 10
0.001733
 20
0.000952
 10
0.001750
 20
0.000938
 10
0.001769
 20
0.000927
 10
0.001789
 20
0.000918
 10
0.001810
 20
0.000910
 10
0.001832
 20
0.000905
 10
0.001853
 20
0.000902
 10
0.001875
 20
0.000900
  0
LWPOLYLINE
  8
Tungsten
420
6052956
 90
64
 70
1
 10
0.000647
 20
0.003902
 10
0.000668
 20
0.003905
 10
0.000690
 20
0.003910
 10
0.000711
 20
0.003918
 10
0.000731
 20
0.003927
 10
0.000750
 20
0.003938
 10
0.000767
 20
0.003952
 10
0.000784
 20
0.003966
 10
0.000798
 20
0.003983
 10
0.000812
 20
0.004000
 10
0.000823
 20
0.004019
 10
0.000832
 20
0.004039
 10
0.000840
 20
0.004060
 10
0.000845
 20
0.004082
 10
0.000848
 20
0.004103
 10
0.000850
 20
0.004125
 10
0.000848
 20
0.004147
 10
0.000845
 20
0.004168
 10
0.000840
 20
0.004190
 10
0.000832
 20
0.004211
 10
0.000823
 20
0.004231
 10
0.000812
 20
0.004250
 10
0.000798
 20
0.004267
 10
0.000784
 20
0.004284
 10
0.000767
 20
0.004298
 10
0.000750
 20
0.004312
 10
0.000731
 20
0.004323
 10
0.000711
 20
0.004332
 10
0.000690
 20
0.004340
 10
0.000668
 20
0.004345
 10
0.000647
 20
0.004348
 10
0.000625
 20
0.004350
 10
0.000603
 20
0.004348
 10
0.000582
 20
0.004345
 10
0.000560
 20
0.004340
 10
0.000539
 20
0.004332
 10
0.000519
 20
0.004323
 10
0.000500
 20
0.004312
 10
0.000483
 20
0.004298
 10
0.000466
 20
0.004284
 10
0.000452
 20
0.004267
 10
0.000438
 20
0.004250
 10
0.000427
 20
0.004231
 10
0.000418
 20
0.004211
 10
0.000410
 20
0.004190
 10
0.000405
 20
0.004168
 10
0.000402
 20
0.004147
 10
0.000400
 20
0.004125
 10
0.000402
 20
0.004103
 10
0.000405
 20
0.004082
 10
0.000410
 20
0.004060
 10
0.000418
 20
0.004039
 10
0.000427
 20
0.004019
 10
0.000438
 20
0.004000
 10
0.000452
 20
0.003983
 10
0.000466
 20
0.003966
 10
0.000483
 20
0.003952
 10
0.000500
 20
0.003938
 10
0.000519
 20
0.003927
 10
0.000539
 20
0.003918
 10
0.000560
 20
0.003910
 10
0.000582
 20
0.003905
 10
0.000603
 20
0.003902
 10
0.000625
 20
0.003900
  0
LWPOLYLINE
  8
Tungsten
420
6052956
 90
64
 70
1
 10
0.001897
 20
0.003902
 10
0.001918
 20
0.003905
 10
0.001940
 20
0.003910
 10
0.001961
 20
0.003918
 10
0.001981
 20
0.003927
 10
0.002000
 20
0.003938
 10
0.002017
 20
0.003952
 10
0.002034
 20
0.003966
 10
0.002048
 20
0.003983
 10
0.002062
 20
0.004000
 10
0.002073
 20
0.004019
 10
0.002082
 20
0.004039
 10
0.002090
 20
0.004060
 10
0.002095
 20
0.004082
 10
0.002098
 20
0.004103
 10
0.002100
 20
0.004125
 10
0.002098
 20
0.004147
 10
0.002095
 20
0.004168
 10
0.002090
 20
0.004190
 10
0.002082
 20
0.004211
 10
0.002073
 20
0.004231
 10
0.002062
 20
0.004250
 10
0.002048
 20
0.004267
 10
0.002034
 20
0.004284
 10
0.002017
 20
0.004298
 10
0.002000
 20
0.004312
 10
0.001981
 20
0.004323
 10
0.001961
 20
0.004332
 10
0.001940
 20
0.004340
 10
0.001918
 20
0.004345
 10
0.001897
 20
0.004348
 10
0.001875
 20
0.004350
 10
0.001853
 20
0.004348
 10
0.001832
 20
0.004345
 10
0.001810
 20
0.004340
 10
0.001789
 20
0.004332
 10
0.001769
 20
0.004323
 10
0.001750
 20
0.004312
 10
0.001733
 20
0.004298
 10
0.001716
 20
0.004284
 10
0.001702
 20
0.004267
 10
0.001688
 20
0.004250
 10
0.001677
 20
0.004231
 10
0.001668
 20
0.004211
 10
0.001660
 20
0.004190
 10
0.001655
 20
0.004168
 10
0.001652
 20
0.004147
 10
0.001650
 20
0.004125
 10
0.001652
 20
0.004103
 10
0.001655
 20
0.004082
 10
0.001660
 20
0.004060
 10
0.001668
 20
0.004039
 10
0.001677
 20
0.004019
 10
0.001688
 20
0.004000
 10
0.001702
 20
0.003983
 10
0.001716
 20
0.003966
 10
0.001733
 20
0.003952
 10
0.001750
 20
0.003938
 10
0.001769
 20
0.003927
 10
0.001789
 20
0.003918
 10
0.001810
 20
0.003910
 10
0.001832
 20
0.003905
 10
0.001853
 20
0.003902
 10
0.001875
 20
0.003900
  0
LWPOLYLINE
  8
Tungsten
420
6052956
 90
64
 70
1
 10
0.000647
 20
0.000902
 10
0.000668
 20
0.000905
 10
0.000690
 20
0.000910
 10
0.000711
 20
0.000918
 10
0.000731
 20
0.000927
 10
0.000750
 20
0.000938
 10
0.000767
 20
0.000952
 10
0.000784
 20
0.000966
 10
0.000798
 20
0.000983
 10
0.000812
 20
0.001000
 10
0.000823
 20
0.001019
 10
0.000832
 20
0.001039
 10
0.000840
 20
0.001060
 10
0.000845
 20
0.001082
 10
0.000848
 20
0.001103
 10
0.000850
 20
0.001125
 10
0.000848
 20
0.001147
 10
0.000845
 20
0.001168
 10
0.000840
 20
0.001190
 10
0.000832
 20
0.001211
 10
0.000823
 20
0.001231
 10
0.000812
 20
0.001250
 10
0.000798
 20
0.001267
 10
0.000784
 20
0.001284
 10
0.000767
 20
0.001298
 10
0.000750
 20
0.001312
 10
0.000731
 20
0.001323
 10
0.000711
 20
0.001332
 10
0.000690
 20
0.001340
 10
0.000668
 20
0.001345
 10
0.000647
 20
0.001348
 10
0.000625
 20
0.001350
 10
0.000603
 20
0.001348
 10
0.000582
 20
0.001345
 10
0.000560
 20
0.001340
 10
0.000539
 20
0.001332
 10
0.000519
 20
0.001323
 10
0.000500
 20
0.001312
 10
0.000483
 20
0.001298
 10
0.000466
 20
0.001284
 10
0.000452
 20
0.001267
 10
0.000438
 20
0.001250
 10
0.000427
 20
0.001231
 10
0.000418
 20
0.001211
 10
0.000410
 20
0.001190
 10
0.000405
 20
0.001168
 10
0.000402
 20
0.001147
 10
0.000400
 20
0.001125
 10
0.000402
 20
0.001103
 10
0.000405
 20
0.001082
 10
0.000410
 20
0.001060
 10
0.000418
 20
0.001039
 10
0.000427
 20
0.001019
 10
0.000438
 20
0.001000
 10
0.000452
 20
0.000983
 10
0.000466
 20
0.000966
 10
0.000483
 20
0.000952
 10
0.000500
 20
0.000938
 10
0.000519
 20
0.000927
 10
0.000539
 20
0.000918
 10
0.000560
 20
0.000910
 10
0.000582
 20
0.000905
 10
0.000603
 20
0.000902
 10
0.000625
 20
0.000900
  0
LWPOLYLINE
  8
Tungsten
420
6052956
 90
64
 70
1
 10
0.001897
 20
0.000902
 10
0.001918
 20
0.000905
 10
0.001940
 20
0.000910
 10
0.001961
 20
0.000918
 10
0.001981
 20
0.000927
 10
0.002000
 20
0.000938
 10
0.002017
 20
0.000952
 10
0.002034
 20
0.000966
 10
0.002048
 20
0.000983
 10
0.002062
 20
0.001000
 10
0.002073
 20
0.001019
 10
0.002082
 20
0.001039
 10
0.002090
 20
0.001060
 10
0.002095
 20
0.001082
 10
0.002098
 20
0.001103
 10
0.002100
 20
0.001125
 10
0.002098
 20
0.001147
 10
0.002095
 20
0.001168
 10
0.002090
 20
0.001190
 10
0.002082
 20
0.001211
 10
0.002073
 20
0.001231
 10
0.002062
 20
0.001250
 10
0.002048
 20
0.001267
 10
0.002034
 20
0.001284
 10
0.002017
 20
0.001298
 10
0.002000
 20
0.001312
 10
0.001981
 20
0.001323
 10
0.001961
 20
0.001332
 10
0.001940
 20
0.001340
 10
0.001918
 20
0.001345
 10
0.001897
 20
0.001348
 10
0.001875
 20
0.001350
 10
0.001853
 20
0.001348
 10
0.001832
 20
0.001345
 10
0.001810
 20
0.001340
 10
0.001789
 20
0.001332
 10
0.001769
 20
0.001323
 10
0.001750
 20
0.001312
 10
0.001733
 20
0.001298
 10
0.001716
 20
0.001284
 10
0.001702
 20
0.001267
 10
0.001688
 20
0.001250
 10
0.001677
 20
0.001231
 10
0.001668
 20
0.001211
 10
0.001660
 20
0.001190
 10
0.001655
 20
0.001168
 10
0.001652
 20
0.001147
 10
0.001650
 20
0.001125
 10
0.001652
 20
0.001103
 10
0.001655
 20
0.001082
 10
0.001660
 20
0.001060
 10
0.001668
 20
0.001039
 10
0.001677
 20
0.001019
 10
0.001688
 20
0.001000
 10
0.001702
 20
0.000983
 10
0.001716
 20
0.000966
 10
0.001733
 20
0.000952
 10
0.001750
 20
0.000938
 10
0.001769
 20
0.000927
 10
0.001789
 20
0.000918
 10
0.001810
 20
0.000910
 10
0.001832
 20
0.000905
 10
0.001853
 20
0.000902
 10
0.001875
 20
0.000900
  0
LWPOLYLINE
  8
Tungsten
420
6052956
 90
64
 70
1
 10
0.001022
 20
0.002527
 10
0.001043
 20
0.002530
 10
0.001065
 20
0.002535
 10
0.001086
 20
0.002543
 10
0.001106
 20
0.002552
 10
0.001125
 20
0.002563
 10
0.001142
 20
0.002577
 10
0.001159
 20
0.002591
 10
0.001173
 20
0.002608
 10
0.001187
 20
0.002625
 10
0.001198
 20
0.002644
 10
0.001207
 20
0.002664
 10
0.001215
 20
0.002685
 10
0.001220
 20
0.002707
 10
0.001223
 20
0.002728
 10
0.001225
 20
0.002750
 10
0.001223
 20
0.002772
 10
0.001220
 20
0.002793
 10
0.001215
 20
0.002815
 10
0.001207
 20
0.002836
 10
0.001198
 20
0.002856
 10
0.001187
 20
0.002875
 10
0.001173
 20
0.002892
 10
0.001159
 20
0.002909
 10
0.001142
 20
0.002923
 10
0.001125
 20
0.002937
 10
0.001106
 20
0.002948
 10
0.001086
 20
0.002957
 10
0.001065
 20
0.002965
 10
0.001043
 20
0.002970
 10
0.001022
 20
0.002973
 10
0.001000
 20
0.002975
 10
0.000978
 20
0.002973
 10
0.000957
 20
0.002970
 10
0.000935
 20
0.002965
 10
0.000914
 20
0.002957
 10
0.000894
 20
0.002948
 10
0.000875
 20
0.002937
 10
0.000858
 20
0.002923
 10
0.000841
 20
0.002909
 10
0.000827
 20
0.002892
 10
0.000813
 20
0.002875
 10
0.000802
 20
0.002856
 10
0.000793
 20
0.002836
 10
0.000785
 20
0.002815
 10
0.000780
 20
0.002793
 10
0.000777
 20
0.002772
 10
0.000775
 20
0.002750
 10
0.000777
 20
0.002728
 10
0.000780
 20
0.002707
 10
0.000785
 20
0.002685
 10
0.000793
 20
0.002664
 10
0.000802
 20
0.002644
 10
0.000813
 20
0.002625
 10
0.000827
 20
0.002608
 10
0.000841
 20
0.002591
 10
0.000858
 20
0.002577
 10
0.000875
 20
0.002563
 10
0.000894
 20
0.002552
 10
0.000914
 20
0.002543
 10
0.000935
 20
0.002535
 10
0.000957
 20
0.002530
 10
0.000978
 20
0.002527
 10
0.001000
 20
0.002525
  0
LWPOLYLINE
  8
Aluminum
420
12632256
 90
4
 70
1
 10
0.001500
 20
0.004000
 10
0.001125
 20
0.004000
 10
0.001125
 20
0.001000
 10
0.001500
 20
0.001000
  0
LWPOLYLINE
  8
Aluminum
420
12632256
 90
16
 70
1
 10
0.000750
 20
0.004900
 10
0.001750
 20
0.004900
 10
0.001750
 20
0.004000
 10
0.002000
 20
0.004000
 10
0.002000
 20
0.004900
 10
0.003000
 20
0.004900
 10
0.003000
 20
0.005500
 10
0.002000
 20
0.005500
 10
0.001750
 20
0.005500
 10
0.000750
 20
0.005500
 10
0.000500
 20
0.005500
 10
0.000000
 20
0.005500
 10
0.000000
 20
0.004900
 10
0.000500
 20
0.004900
 10
0.000500
 20
0.004000
 10
0.000750
 20
0.004000
  0
LWPOLYLINE
  8
Aluminum
420
12632256
 90
12
 70
1
 10
0.003000
 20
0.000600
 10
0.002000
 20
0.000600
 10
0.002000
 20
0.001250
 10
0.001750
 20
0.001250
 10
0.001750
 20
0.000600
 10
0.000750
 20
0.000600
 10
0.000750
 20
0.001250
 10
0.000500
 20
0.001250
 10
0.000500
 20
0.000600
 10
0.000000
 20
0.000600
 10
0.000000
 20
0.000000
 10
0.003000
 20
0.000000
  0
LWPOLYLINE
  8
Silicon_N
420
4149055
 90
4
 70
1
 10
0.000500
 20
0.001000
 10
0.001500
 20
0.001000
 10
0.001500
 20
0.001375
 10
0.000500
 20
0.001375
  0
LWPOLYLINE
  8
Silicon_P
420
4478276
 90
4
 70
1
 10
0.000500
 20
0.002875
 10
0.001500
 20
0.002875
 10
0.001500
 20
0.004000
 10
0.000500
 20
0.004000
  0
LWPOLYLINE
  8
Polysilicon
420
7372944
 90
4
 70
1
 10
0.000875
 20
0.000800
 10
0.001125
 20
0.000800
 10
0.001125
 20
0.004200
 10
0.000875
 20
0.004200
  0
LWPOLYLINE
  8
Silicon_P
420
4478276
 90
4
 70
1
 10
0.000100
 20
0.002475
 10
0.001900
 20
0.002475
 10
0.001900
 20
0.004400
 10
0.000100
 20
0.004400
  0
ENDSEC
  0
EOF
