  0
SECTION
  2
HEADER
  9
$ACADVER
  1
AC1018
  0
ENDSEC
  0
SECTION
  2
TABLES
  0
TABLE
  2
LAYER
  0
LAYER
  2
L_Copper
 70
0
 62
7
420
12088115
440
33554432
  0
LAYER
  2
L_FR4
 70
0
 62
7
420
3046706
440
33554648
  0
ENDTAB
  0
ENDSEC
  0
SECTION
  2
ENTITIES
  0
LWPOLYLINE
  8
L0_Copper
420
12088115
 90
4
 70
1
 10
0.000000
 20
0.000000
 10
10.000000
 20
0.000000
 10
10.000000
 20
10.000000
 10
0.000000
 20
10.000000
  0
CIRCLE
  8
L0_Copper
 62
0
 10
5.000000
 20
5.000000
 40
1.500000
  0
CIRCLE
  8
L0_Copper
 62
0
 10
2.000000
 20
2.000000
 40
0.250000
  0
CIRCLE
  8
L0_Copper
 62
0
 10
2.000000
 20
8.000000
 40
0.250000
  0
CIRCLE
  8
L0_Copper
 62
0
 10
8.000000
 20
2.000000
 40
0.250000
  0
CIRCLE
  8
L0_Copper
 62
0
 10
8.000000
 20
8.000000
 40
0.250000
  0
LWPOLYLINE
  8
L0_FR4
420
3046706
 90
4
 70
1
 10
0.000000
 20
0.000000
 10
10.000000
 20
0.000000
 10
10.000000
 20
10.000000
 10
0.000000
 20
10.000000
  0
CIRCLE
  8
L0_FR4
 62
0
 10
5.000000
 20
5.000000
 40
1.500000
  0
CIRCLE
  8
L0_FR4
 62
0
 10
2.000000
 20
2.000000
 40
0.250000
  0
CIRCLE
  8
L0_FR4
 62
0
 10
2.000000
 20
8.000000
 40
0.250000
  0
CIRCLE
  8
L0_FR4
 62
0
 10
8.000000
 20
2.000000
 40
0.250000
  0
CIRCLE
  8
L0_FR4
 62
0
 10
8.000000
 20
8.000000
 40
0.250000
  0
LWPOLYLINE
  8
L1_Copper
420
12088115
 90
4
 70
1
 10
0.000000
 20
0.000000
 10
10.000000
 20
0.000000
 10
10.000000
 20
10.000000
 10
0.000000
 20
10.000000
  0
CIRCLE
  8
L1_Copper
 62
0
 10
5.000000
 20
5.000000
 40
1.500000
  0
CIRCLE
  8
L1_Copper
 62
0
 10
2.000000
 20
2.000000
 40
0.250000
  0
CIRCLE
  8
L1_Copper
 62
0
 10
2.000000
 20
8.000000
 40
0.250000
  0
CIRCLE
  8
L1_Copper
 62
0
 10
8.000000
 20
2.000000
 40
0.250000
  0
CIRCLE
  8
L1_Copper
 62
0
 10
8.000000
 20
8.000000
 40
0.250000
  0
LWPOLYLINE
  8
L0_Copper
420
12088115
 90
4
 70
1
 10
3.000000
 20
3.000000
 10
7.000000
 20
3.000000
 10
7.000000
 20
7.000000
 10
3.000000
 20
7.000000
  0
CIRCLE
  8
L0_Copper
 62
0
 10
5.000000
 20
5.000000
 40
1.500000
  0
LWPOLYLINE
  8
L1_Copper
420
12088115
 90
4
 70
1
 10
3.000000
 20
3.000000
 10
7.000000
 20
3.000000
 10
7.000000
 20
7.000000
 10
3.000000
 20
7.000000
  0
CIRCLE
  8
L1_Copper
 62
0
 10
5.000000
 20
5.000000
 40
1.500000
  0
LWPOLYLINE
  8
L0_Copper
420
12088115
 90
4
 70
1
 10
3.500000
 20
3.500000
 10
6.500000
 20
3.500000
 10
6.500000
 20
6.500000
 10
3.500000
 20
6.500000
  0
CIRCLE
  8
L0_Copper
 62
0
 10
5.000000
 20
5.000000
 40
1.500000
  0
LWPOLYLINE
  8
L0_Copper
420
12088115
 90
4
 70
1
 10
1.550000
 20
1.550000
 10
2.450000
 20
1.550000
 10
2.450000
 20
2.450000
 10
1.550000
 20
2.450000
  0
CIRCLE
  8
L0_Copper
 62
0
 10
2.000000
 20
2.000000
 40
0.250000
  0
LWPOLYLINE
  8
L1_Copper
420
12088115
 90
4
 70
1
 10
1.550000
 20
1.550000
 10
2.450000
 20
1.550000
 10
2.450000
 20
2.450000
 10
1.550000
 20
2.450000
  0
CIRCLE
  8
L1_Copper
 62
0
 10
2.000000
 20
2.000000
 40
0.250000
  0
LWPOLYLINE
  8
L0_Copper
420
12088115
 90
4
 70
1
 10
1.750000
 20
1.750000
 10
2.250000
 20
1.750000
 10
2.250000
 20
2.250000
 10
1.750000
 20
2.250000
  0
CIRCLE
  8
L0_Copper
 62
0
 10
2.000000
 20
2.000000
 40
0.250000
  0
LWPOLYLINE
  8
L0_Copper
420
12088115
 90
4
 70
1
 10
1.550000
 20
7.550000
 10
2.450000
 20
7.550000
 10
2.450000
 20
8.450000
 10
1.550000
 20
8.450000
  0
CIRCLE
  8
L0_Copper
 62
0
 10
2.000000
 20
8.000000
 40
0.250000
  0
LWPOLYLINE
  8
L1_Copper
420
12088115
 90
4
 70
1
 10
1.550000
 20
7.550000
 10
2.450000
 20
7.550000
 10
2.450000
 20
8.450000
 10
1.550000
 20
8.450000
  0
CIRCLE
  8
L1_Copper
 62
0
 10
2.000000
 20
8.000000
 40
0.250000
  0
LWPOLYLINE
  8
L0_Copper
420
12088115
 90
4
 70
1
 10
1.750000
 20
7.750000
 10
2.250000
 20
7.750000
 10
2.250000
 20
8.250000
 10
1.750000
 20
8.250000
  0
CIRCLE
  8
L0_Copper
 62
0
 10
2.000000
 20
8.000000
 40
0.250000
  0
LWPOLYLINE
  8
L0_Copper
420
12088115
 90
4
 70
1
 10
1.550000
 20
13.550000
 10
2.450000
 20
13.550000
 10
2.450000
 20
14.450000
 10
1.550000
 20
14.450000
  0
CIRCLE
  8
L0_Copper
 62
0
 10
2.000000
 20
14.000000
 40
0.250000
  0
LWPOLYLINE
  8
L1_Copper
420
12088115
 90
4
 70
1
 10
1.550000
 20
13.550000
 10
2.450000
 20
13.550000
 10
2.450000
 20
14.450000
 10
1.550000
 20
14.450000
  0
CIRCLE
  8
L1_Copper
 62
0
 10
2.000000
 20
14.000000
 40
0.250000
  0
LWPOLYLINE
  8
L0_Copper
420
12088115
 90
4
 70
1
 10
1.750000
 20
13.750000
 10
2.250000
 20
13.750000
 10
2.250000
 20
14.250000
 10
1.750000
 20
14.250000
  0
CIRCLE
  8
L0_Copper
 62
0
 10
2.000000
 20
14.000000
 40
0.250000
  0
LWPOLYLINE
  8
L0_Copper
420
12088115
 90
4
 70
1
 10
7.550000
 20
1.550000
 10
8.450000
 20
1.550000
 10
8.450000
 20
2.450000
 10
7.550000
 20
2.450000
  0
CIRCLE
  8
L0_Copper
 62
0
 10
8.000000
 20
2.000000
 40
0.250000
  0
LWPOLYLINE
  8
L1_Copper
420
12088115
 90
4
 70
1
 10
7.550000
 20
1.550000
 10
8.450000
 20
1.550000
 10
8.450000
 20
2.450000
 10
7.550000
 20
2.450000
  0
CIRCLE
  8
L1_Copper
 62
0
 10
8.000000
 20
2.000000
 40
0.250000
  0
LWPOLYLINE
  8
L0_Copper
420
12088115
 90
4
 70
1
 10
7.750000
 20
1.750000
 10
8.250000
 20
1.750000
 10
8.250000
 20
2.250000
 10
7.750000
 20
2.250000
  0
CIRCLE
  8
L0_Copper
 62
0
 10
8.000000
 20
2.000000
 40
0.250000
  0
LWPOLYLINE
  8
L0_Copper
420
12088115
 90
4
 70
1
 10
7.550000
 20
7.550000
 10
8.450000
 20
7.550000
 10
8.450000
 20
8.450000
 10
7.550000
 20
8.450000
  0
CIRCLE
  8
L0_Copper
 62
0
 10
8.000000
 20
8.000000
 40
0.250000
  0
LWPOLYLINE
  8
L1_Copper
420
12088115
 90
4
 70
1
 10
7.550000
 20
7.550000
 10
8.450000
 20
7.550000
 10
8.450000
 20
8.450000
 10
7.550000
 20
8.450000
  0
CIRCLE
  8
L1_Copper
 62
0
 10
8.000000
 20
8.000000
 40
0.250000
  0
LWPOLYLINE
  8
L0_Copper
420
12088115
 90
4
 70
1
 10
7.750000
 20
7.750000
 10
8.250000
 20
7.750000
 10
8.250000
 20
8.250000
 10
7.750000
 20
8.250000
  0
CIRCLE
  8
L0_Copper
 62
0
 10
8.000000
 20
8.000000
 40
0.250000
  0
LWPOLYLINE
  8
L0_Copper
420
12088115
 90
4
 70
1
 10
7.550000
 20
13.550000
 10
8.450000
 20
13.550000
 10
8.450000
 20
14.450000
 10
7.550000
 20
14.450000
  0
CIRCLE
  8
L0_Copper
 62
0
 10
8.000000
 20
14.000000
 40
0.250000
  0
LWPOLYLINE
  8
L1_Copper
420
12088115
 90
4
 70
1
 10
7.550000
 20
13.550000
 10
8.450000
 20
13.550000
 10
8.450000
 20
14.450000
 10
7.550000
 20
14.450000
  0
CIRCLE
  8
L1_Copper
 62
0
 10
8.000000
 20
14.000000
 40
0.250000
  0
LWPOLYLINE
  8
L0_Copper
420
12088115
 90
4
 70
1
 10
7.750000
 20
13.750000
 10
8.250000
 20
13.750000
 10
8.250000
 20
14.250000
 10
7.750000
 20
14.250000
  0
CIRCLE
  8
L0_Copper
 62
0
 10
8.000000
 20
14.000000
 40
0.250000
  0
LWPOLYLINE
  8
L0_Copper
420
12088115
 90
4
 70
1
 10
13.550000
 20
1.550000
 10
14.450000
 20
1.550000
 10
14.450000
 20
2.450000
 10
13.550000
 20
2.450000
  0
CIRCLE
  8
L0_Copper
 62
0
 10
14.000000
 20
2.000000
 40
0.250000
  0
LWPOLYLINE
  8
L1_Copper
420
12088115
 90
4
 70
1
 10
13.550000
 20
1.550000
 10
14.450000
 20
1.550000
 10
14.450000
 20
2.450000
 10
13.550000
 20
2.450000
  0
CIRCLE
  8
L1_Copper
 62
0
 10
14.000000
 20
2.000000
 40
0.250000
  0
LWPOLYLINE
  8
L0_Copper
420
12088115
 90
4
 70
1
 10
13.750000
 20
1.750000
 10
14.250000
 20
1.750000
 10
14.250000
 20
2.250000
 10
13.750000
 20
2.250000
  0
CIRCLE
  8
L0_Copper
 62
0
 10
14.000000
 20
2.000000
 40
0.250000
  0
LWPOLYLINE
  8
L0_Copper
420
12088115
 90
4
 70
1
 10
13.550000
 20
7.550000
 10
14.450000
 20
7.550000
 10
14.450000
 20
8.450000
 10
13.550000
 20
8.450000
  0
CIRCLE
  8
L0_Copper
 62
0
 10
14.000000
 20
8.000000
 40
0.250000
  0
LWPOLYLINE
  8
L1_Copper
420
12088115
 90
4
 70
1
 10
13.550000
 20
7.550000
 10
14.450000
 20
7.550000
 10
14.450000
 20
8.450000
 10
13.550000
 20
8.450000
  0
CIRCLE
  8
L1_Copper
 62
0
 10
14.000000
 20
8.000000
 40
0.250000
  0
LWPOLYLINE
  8
L0_Copper
420
12088115
 90
4
 70
1
 10
13.750000
 20
7.750000
 10
14.250000
 20
7.750000
 10
14.250000
 20
8.250000
 10
13.750000
 20
8.250000
  0
CIRCLE
  8
L0_Copper
 62
0
 10
14.000000
 20
8.000000
 40
0.250000
  0
LWPOLYLINE
  8
L0_Copper
420
12088115
 90
4
 70
1
 10
13.550000
 20
13.550000
 10
14.450000
 20
13.550000
 10
14.450000
 20
14.450000
 10
13.550000
 20
14.450000
  0
CIRCLE
  8
L0_Copper
 62
0
 10
14.000000
 20
14.000000
 40
0.250000
  0
LWPOLYLINE
  8
L1_Copper
420
12088115
 90
4
 70
1
 10
13.550000
 20
13.550000
 10
14.450000
 20
13.550000
 10
14.450000
 20
14.450000
 10
13.550000
 20
14.450000
  0
CIRCLE
  8
L1_Copper
 62
0
 10
14.000000
 20
14.000000
 40
0.250000
  0
LWPOLYLINE
  8
L0_Copper
420
12088115
 90
4
 70
1
 10
13.750000
 20
13.750000
 10
14.250000
 20
13.750000
 10
14.250000
 20
14.250000
 10
13.750000
 20
14.250000
  0
CIRCLE
  8
L0_Copper
 62
0
 10
14.000000
 20
14.000000
 40
0.250000
  0
ENDSEC
  0
EOF
