  0
SECTION
  2
HEADER
  9
$ACADVER
  1
AC1018
  0
ENDSEC
  0
SECTION
  2
TABLES
  0
TABLE
  2
LAYER
  0
LAYER
  2
DRILL
 70
0
 62
0
  0
LAYER
  2
TOP_COMPONENTS
 70
0
 62
7
  0
LAYER
  2
BOTTOM_COMPONENTS
 70
0
 62
7
  0
LAYER
  2
PCB_LAYERS
 70
0
 62
7
  0
ENDTAB
  0
ENDSEC
  0
SECTION
  2
ENTITIES
  0
LWPOLYLINE
  8
PCB_LAYERS
420
8421504
 90
10
 70
1
 10
5.200000
 20
50.500000
 10
64.900000
 20
50.500000
 10
64.900000
 20
50.450000
 10
65.050000
 20
50.450000
 10
65.050000
 20
50.600000
 10
64.900000
 20
50.600000
 10
5.100000
 20
50.600000
 10
4.950000
 20
50.600000
 10
4.950000
 20
50.450000
 10
5.200000
 20
50.450000
  0
LWPOLYLINE
  8
PCB_LAYERS
420
8421504
 90
10
 70
1
 10
30.200000
 20
86.500000
 10
89.900000
 20
86.500000
 10
89.900000
 20
86.450000
 10
90.050000
 20
86.450000
 10
90.050000
 20
86.600000
 10
89.900000
 20
86.600000
 10
30.100000
 20
86.600000
 10
29.950000
 20
86.600000
 10
29.950000
 20
86.450000
 10
30.200000
 20
86.450000
  0
LWPOLYLINE
  8
PCB_LAYERS
420
8421504
 90
10
 70
1
 10
5.200000
 20
87.500000
 10
64.900000
 20
87.500000
 10
64.900000
 20
87.450000
 10
65.050000
 20
87.450000
 10
65.050000
 20
87.600000
 10
64.900000
 20
87.600000
 10
5.100000
 20
87.600000
 10
4.950000
 20
87.600000
 10
4.950000
 20
87.450000
 10
5.200000
 20
87.450000
  0
LWPOLYLINE
  8
PCB_LAYERS
420
8421504
 90
10
 70
1
 10
30.200000
 20
28.500000
 10
89.900000
 20
28.500000
 10
89.900000
 20
28.450000
 10
90.050000
 20
28.450000
 10
90.050000
 20
28.600000
 10
89.900000
 20
28.600000
 10
30.100000
 20
28.600000
 10
29.950000
 20
28.600000
 10
29.950000
 20
28.450000
 10
30.200000
 20
28.450000
  0
LWPOLYLINE
  8
PCB_LAYERS
420
8421504
 90
10
 70
1
 10
5.200000
 20
29.500000
 10
64.900000
 20
29.500000
 10
64.900000
 20
29.450000
 10
65.050000
 20
29.450000
 10
65.050000
 20
29.600000
 10
64.900000
 20
29.600000
 10
5.100000
 20
29.600000
 10
4.950000
 20
29.600000
 10
4.950000
 20
29.450000
 10
5.200000
 20
29.450000
  0
LWPOLYLINE
  8
PCB_LAYERS
420
8421504
 90
10
 70
1
 10
30.200000
 20
65.500000
 10
89.900000
 20
65.500000
 10
89.900000
 20
65.450000
 10
90.050000
 20
65.450000
 10
90.050000
 20
65.600000
 10
89.900000
 20
65.600000
 10
30.100000
 20
65.600000
 10
29.950000
 20
65.600000
 10
29.950000
 20
65.450000
 10
30.200000
 20
65.450000
  0
LWPOLYLINE
  8
PCB_LAYERS
420
8421504
 90
10
 70
1
 10
5.200000
 20
66.500000
 10
64.900000
 20
66.500000
 10
64.900000
 20
66.450000
 10
65.050000
 20
66.450000
 10
65.050000
 20
66.600000
 10
64.900000
 20
66.600000
 10
5.100000
 20
66.600000
 10
4.950000
 20
66.600000
 10
4.950000
 20
66.450000
 10
5.200000
 20
66.450000
  0
LWPOLYLINE
  8
PCB_LAYERS
420
8421504
 90
10
 70
1
 10
30.200000
 20
7.500000
 10
89.900000
 20
7.500000
 10
89.900000
 20
7.450000
 10
90.050000
 20
7.450000
 10
90.050000
 20
7.600000
 10
89.900000
 20
7.600000
 10
30.100000
 20
7.600000
 10
29.950000
 20
7.600000
 10
29.950000
 20
7.450000
 10
30.200000
 20
7.450000
  0
LWPOLYLINE
  8
PCB_LAYERS
420
8421504
 90
10
 70
1
 10
5.200000
 20
12.500000
 10
64.900000
 20
12.500000
 10
64.900000
 20
12.450000
 10
65.050000
 20
12.450000
 10
65.050000
 20
12.600000
 10
64.900000
 20
12.600000
 10
5.100000
 20
12.600000
 10
4.950000
 20
12.600000
 10
4.950000
 20
12.450000
 10
5.200000
 20
12.450000
  0
LWPOLYLINE
  8
PCB_LAYERS
420
8421504
 90
10
 70
1
 10
30.200000
 20
48.500000
 10
89.900000
 20
48.500000
 10
89.900000
 20
48.450000
 10
90.050000
 20
48.450000
 10
90.050000
 20
48.600000
 10
89.900000
 20
48.600000
 10
30.100000
 20
48.600000
 10
29.950000
 20
48.600000
 10
29.950000
 20
48.450000
 10
30.200000
 20
48.450000
  0
LWPOLYLINE
  8
PCB_LAYERS
420
8421504
 90
10
 70
1
 10
5.200000
 20
49.500000
 10
64.900000
 20
49.500000
 10
64.900000
 20
49.450000
 10
65.050000
 20
49.450000
 10
65.050000
 20
49.600000
 10
64.900000
 20
49.600000
 10
5.100000
 20
49.600000
 10
4.950000
 20
49.600000
 10
4.950000
 20
49.450000
 10
5.200000
 20
49.450000
  0
LWPOLYLINE
  8
PCB_LAYERS
420
8421504
 90
10
 70
1
 10
30.200000
 20
85.500000
 10
89.900000
 20
85.500000
 10
89.900000
 20
85.450000
 10
90.050000
 20
85.450000
 10
90.050000
 20
85.600000
 10
89.900000
 20
85.600000
 10
30.100000
 20
85.600000
 10
29.950000
 20
85.600000
 10
29.950000
 20
85.450000
 10
30.200000
 20
85.450000
  0
LWPOLYLINE
  8
PCB_LAYERS
420
8421504
 90
10
 70
1
 10
5.200000
 20
86.500000
 10
64.900000
 20
86.500000
 10
64.900000
 20
86.450000
 10
65.050000
 20
86.450000
 10
65.050000
 20
86.600000
 10
64.900000
 20
86.600000
 10
5.100000
 20
86.600000
 10
4.950000
 20
86.600000
 10
4.950000
 20
86.450000
 10
5.200000
 20
86.450000
  0
LWPOLYLINE
  8
PCB_LAYERS
420
8421504
 90
10
 70
1
 10
30.200000
 20
27.500000
 10
89.900000
 20
27.500000
 10
89.900000
 20
27.450000
 10
90.050000
 20
27.450000
 10
90.050000
 20
27.600000
 10
89.900000
 20
27.600000
 10
30.100000
 20
27.600000
 10
29.950000
 20
27.600000
 10
29.950000
 20
27.450000
 10
30.200000
 20
27.450000
  0
LWPOLYLINE
  8
PCB_LAYERS
420
8421504
 90
10
 70
1
 10
5.200000
 20
28.500000
 10
64.900000
 20
28.500000
 10
64.900000
 20
28.450000
 10
65.050000
 20
28.450000
 10
65.050000
 20
28.600000
 10
64.900000
 20
28.600000
 10
5.100000
 20
28.600000
 10
4.950000
 20
28.600000
 10
4.950000
 20
28.450000
 10
5.200000
 20
28.450000
  0
LWPOLYLINE
  8
PCB_LAYERS
420
8421504
 90
10
 70
1
 10
30.200000
 20
64.500000
 10
89.900000
 20
64.500000
 10
89.900000
 20
64.450000
 10
90.050000
 20
64.450000
 10
90.050000
 20
64.600000
 10
89.900000
 20
64.600000
 10
30.100000
 20
64.600000
 10
29.950000
 20
64.600000
 10
29.950000
 20
64.450000
 10
30.200000
 20
64.450000
  0
LWPOLYLINE
  8
PCB_LAYERS
420
8421504
 90
10
 70
1
 10
5.200000
 20
65.500000
 10
64.900000
 20
65.500000
 10
64.900000
 20
65.450000
 10
65.050000
 20
65.450000
 10
65.050000
 20
65.600000
 10
64.900000
 20
65.600000
 10
5.100000
 20
65.600000
 10
4.950000
 20
65.600000
 10
4.950000
 20
65.450000
 10
5.200000
 20
65.450000
  0
LWPOLYLINE
  8
PCB_LAYERS
420
8421504
 90
10
 70
1
 10
30.200000
 20
6.500000
 10
89.900000
 20
6.500000
 10
89.900000
 20
6.450000
 10
90.050000
 20
6.450000
 10
90.050000
 20
6.600000
 10
89.900000
 20
6.600000
 10
30.100000
 20
6.600000
 10
29.950000
 20
6.600000
 10
29.950000
 20
6.450000
 10
30.200000
 20
6.450000
  0
LWPOLYLINE
  8
PCB_LAYERS
420
8421504
 90
10
 70
1
 10
5.200000
 20
7.500000
 10
64.900000
 20
7.500000
 10
64.900000
 20
7.450000
 10
65.050000
 20
7.450000
 10
65.050000
 20
7.600000
 10
64.900000
 20
7.600000
 10
5.100000
 20
7.600000
 10
4.950000
 20
7.600000
 10
4.950000
 20
7.450000
 10
5.200000
 20
7.450000
  0
LWPOLYLINE
  8
PCB_LAYERS
420
8421504
 90
10
 70
1
 10
30.200000
 20
43.500000
 10
89.900000
 20
43.500000
 10
89.900000
 20
43.450000
 10
90.050000
 20
43.450000
 10
90.050000
 20
43.600000
 10
89.900000
 20
43.600000
 10
30.100000
 20
43.600000
 10
29.950000
 20
43.600000
 10
29.950000
 20
43.450000
 10
30.200000
 20
43.450000
  0
LWPOLYLINE
  8
PCB_LAYERS
420
8421504
 90
10
 70
1
 10
5.200000
 20
48.500000
 10
64.900000
 20
48.500000
 10
64.900000
 20
48.450000
 10
65.050000
 20
48.450000
 10
65.050000
 20
48.600000
 10
64.900000
 20
48.600000
 10
5.100000
 20
48.600000
 10
4.950000
 20
48.600000
 10
4.950000
 20
48.450000
 10
5.200000
 20
48.450000
  0
LWPOLYLINE
  8
PCB_LAYERS
420
8421504
 90
10
 70
1
 10
30.200000
 20
84.500000
 10
89.900000
 20
84.500000
 10
89.900000
 20
84.450000
 10
90.050000
 20
84.450000
 10
90.050000
 20
84.600000
 10
89.900000
 20
84.600000
 10
30.100000
 20
84.600000
 10
29.950000
 20
84.600000
 10
29.950000
 20
84.450000
 10
30.200000
 20
84.450000
  0
LWPOLYLINE
  8
PCB_LAYERS
420
8421504
 90
10
 70
1
 10
5.200000
 20
85.500000
 10
64.900000
 20
85.500000
 10
64.900000
 20
85.450000
 10
65.050000
 20
85.450000
 10
65.050000
 20
85.600000
 10
64.900000
 20
85.600000
 10
5.100000
 20
85.600000
 10
4.950000
 20
85.600000
 10
4.950000
 20
85.450000
 10
5.200000
 20
85.450000
  0
LWPOLYLINE
  8
PCB_LAYERS
420
8421504
 90
10
 70
1
 10
30.200000
 20
26.500000
 10
89.900000
 20
26.500000
 10
89.900000
 20
26.450000
 10
90.050000
 20
26.450000
 10
90.050000
 20
26.600000
 10
89.900000
 20
26.600000
 10
30.100000
 20
26.600000
 10
29.950000
 20
26.600000
 10
29.950000
 20
26.450000
 10
30.200000
 20
26.450000
  0
LWPOLYLINE
  8
PCB_LAYERS
420
8421504
 90
10
 70
1
 10
5.200000
 20
27.500000
 10
64.900000
 20
27.500000
 10
64.900000
 20
27.450000
 10
65.050000
 20
27.450000
 10
65.050000
 20
27.600000
 10
64.900000
 20
27.600000
 10
5.100000
 20
27.600000
 10
4.950000
 20
27.600000
 10
4.950000
 20
27.450000
 10
5.200000
 20
27.450000
  0
LWPOLYLINE
  8
PCB_LAYERS
420
8421504
 90
10
 70
1
 10
30.200000
 20
63.500000
 10
89.900000
 20
63.500000
 10
89.900000
 20
63.450000
 10
90.050000
 20
63.450000
 10
90.050000
 20
63.600000
 10
89.900000
 20
63.600000
 10
30.100000
 20
63.600000
 10
29.950000
 20
63.600000
 10
29.950000
 20
63.450000
 10
30.200000
 20
63.450000
  0
LWPOLYLINE
  8
PCB_LAYERS
420
8421504
 90
10
 70
1
 10
5.200000
 20
64.500000
 10
64.900000
 20
64.500000
 10
64.900000
 20
64.450000
 10
65.050000
 20
64.450000
 10
65.050000
 20
64.600000
 10
64.900000
 20
64.600000
 10
5.100000
 20
64.600000
 10
4.950000
 20
64.600000
 10
4.950000
 20
64.450000
 10
5.200000
 20
64.450000
  0
LWPOLYLINE
  8
PCB_LAYERS
420
8421504
 90
10
 70
1
 10
30.200000
 20
5.500000
 10
89.900000
 20
5.500000
 10
89.900000
 20
5.450000
 10
90.050000
 20
5.450000
 10
90.050000
 20
5.600000
 10
89.900000
 20
5.600000
 10
30.100000
 20
5.600000
 10
29.950000
 20
5.600000
 10
29.950000
 20
5.450000
 10
30.200000
 20
5.450000
  0
LWPOLYLINE
  8
PCB_LAYERS
420
8421504
 90
10
 70
1
 10
5.200000
 20
6.500000
 10
64.900000
 20
6.500000
 10
64.900000
 20
6.450000
 10
65.050000
 20
6.450000
 10
65.050000
 20
6.600000
 10
64.900000
 20
6.600000
 10
5.100000
 20
6.600000
 10
4.950000
 20
6.600000
 10
4.950000
 20
6.450000
 10
5.200000
 20
6.450000
  0
LWPOLYLINE
  8
PCB_LAYERS
420
8421504
 90
10
 70
1
 10
30.200000
 20
42.500000
 10
89.900000
 20
42.500000
 10
89.900000
 20
42.450000
 10
90.050000
 20
42.450000
 10
90.050000
 20
42.600000
 10
89.900000
 20
42.600000
 10
30.100000
 20
42.600000
 10
29.950000
 20
42.600000
 10
29.950000
 20
42.450000
 10
30.200000
 20
42.450000
  0
LWPOLYLINE
  8
PCB_LAYERS
420
8421504
 90
10
 70
1
 10
5.200000
 20
43.500000
 10
64.900000
 20
43.500000
 10
64.900000
 20
43.450000
 10
65.050000
 20
43.450000
 10
65.050000
 20
43.600000
 10
64.900000
 20
43.600000
 10
5.100000
 20
43.600000
 10
4.950000
 20
43.600000
 10
4.950000
 20
43.450000
 10
5.200000
 20
43.450000
  0
LWPOLYLINE
  8
PCB_LAYERS
420
8421504
 90
10
 70
1
 10
30.200000
 20
79.500000
 10
89.900000
 20
79.500000
 10
89.900000
 20
79.450000
 10
90.050000
 20
79.450000
 10
90.050000
 20
79.600000
 10
89.900000
 20
79.600000
 10
30.100000
 20
79.600000
 10
29.950000
 20
79.600000
 10
29.950000
 20
79.450000
 10
30.200000
 20
79.450000
  0
LWPOLYLINE
  8
PCB_LAYERS
420
8421504
 90
10
 70
1
 10
5.200000
 20
84.500000
 10
64.900000
 20
84.500000
 10
64.900000
 20
84.450000
 10
65.050000
 20
84.450000
 10
65.050000
 20
84.600000
 10
64.900000
 20
84.600000
 10
5.100000
 20
84.600000
 10
4.950000
 20
84.600000
 10
4.950000
 20
84.450000
 10
5.200000
 20
84.450000
  0
LWPOLYLINE
  8
PCB_LAYERS
420
8421504
 90
10
 70
1
 10
30.200000
 20
25.500000
 10
89.900000
 20
25.500000
 10
89.900000
 20
25.450000
 10
90.050000
 20
25.450000
 10
90.050000
 20
25.600000
 10
89.900000
 20
25.600000
 10
30.100000
 20
25.600000
 10
29.950000
 20
25.600000
 10
29.950000
 20
25.450000
 10
30.200000
 20
25.450000
  0
LWPOLYLINE
  8
PCB_LAYERS
420
8421504
 90
10
 70
1
 10
5.200000
 20
26.500000
 10
64.900000
 20
26.500000
 10
64.900000
 20
26.450000
 10
65.050000
 20
26.450000
 10
65.050000
 20
26.600000
 10
64.900000
 20
26.600000
 10
5.100000
 20
26.600000
 10
4.950000
 20
26.600000
 10
4.950000
 20
26.450000
 10
5.200000
 20
26.450000
  0
LWPOLYLINE
  8
PCB_LAYERS
420
8421504
 90
10
 70
1
 10
30.200000
 20
62.500000
 10
89.900000
 20
62.500000
 10
89.900000
 20
62.450000
 10
90.050000
 20
62.450000
 10
90.050000
 20
62.600000
 10
89.900000
 20
62.600000
 10
30.100000
 20
62.600000
 10
29.950000
 20
62.600000
 10
29.950000
 20
62.450000
 10
30.200000
 20
62.450000
  0
LWPOLYLINE
  8
PCB_LAYERS
420
8421504
 90
10
 70
1
 10
5.200000
 20
63.500000
 10
64.900000
 20
63.500000
 10
64.900000
 20
63.450000
 10
65.050000
 20
63.450000
 10
65.050000
 20
63.600000
 10
64.900000
 20
63.600000
 10
5.100000
 20
63.600000
 10
4.950000
 20
63.600000
 10
4.950000
 20
63.450000
 10
5.200000
 20
63.450000
  0
LWPOLYLINE
  8
PCB_LAYERS
420
8421504
 90
10
 70
1
 10
30.200000
 20
4.500000
 10
89.900000
 20
4.500000
 10
89.900000
 20
4.450000
 10
90.050000
 20
4.450000
 10
90.050000
 20
4.600000
 10
89.900000
 20
4.600000
 10
30.100000
 20
4.600000
 10
29.950000
 20
4.600000
 10
29.950000
 20
4.450000
 10
30.200000
 20
4.450000
  0
LWPOLYLINE
  8
PCB_LAYERS
420
8421504
 90
10
 70
1
 10
5.200000
 20
5.500000
 10
64.900000
 20
5.500000
 10
64.900000
 20
5.450000
 10
65.050000
 20
5.450000
 10
65.050000
 20
5.600000
 10
64.900000
 20
5.600000
 10
5.100000
 20
5.600000
 10
4.950000
 20
5.600000
 10
4.950000
 20
5.450000
 10
5.200000
 20
5.450000
  0
LWPOLYLINE
  8
PCB_LAYERS
420
8421504
 90
10
 70
1
 10
30.200000
 20
41.500000
 10
89.900000
 20
41.500000
 10
89.900000
 20
41.450000
 10
90.050000
 20
41.450000
 10
90.050000
 20
41.600000
 10
89.900000
 20
41.600000
 10
30.100000
 20
41.600000
 10
29.950000
 20
41.600000
 10
29.950000
 20
41.450000
 10
30.200000
 20
41.450000
  0
LWPOLYLINE
  8
PCB_LAYERS
420
8421504
 90
10
 70
1
 10
5.200000
 20
42.500000
 10
64.900000
 20
42.500000
 10
64.900000
 20
42.450000
 10
65.050000
 20
42.450000
 10
65.050000
 20
42.600000
 10
64.900000
 20
42.600000
 10
5.100000
 20
42.600000
 10
4.950000
 20
42.600000
 10
4.950000
 20
42.450000
 10
5.200000
 20
42.450000
  0
LWPOLYLINE
  8
PCB_LAYERS
420
8421504
 90
10
 70
1
 10
30.200000
 20
78.500000
 10
89.900000
 20
78.500000
 10
89.900000
 20
78.450000
 10
90.050000
 20
78.450000
 10
90.050000
 20
78.600000
 10
89.900000
 20
78.600000
 10
30.100000
 20
78.600000
 10
29.950000
 20
78.600000
 10
29.950000
 20
78.450000
 10
30.200000
 20
78.450000
  0
LWPOLYLINE
  8
PCB_LAYERS
420
8421504
 90
10
 70
1
 10
5.200000
 20
79.500000
 10
64.900000
 20
79.500000
 10
64.900000
 20
79.450000
 10
65.050000
 20
79.450000
 10
65.050000
 20
79.600000
 10
64.900000
 20
79.600000
 10
5.100000
 20
79.600000
 10
4.950000
 20
79.600000
 10
4.950000
 20
79.450000
 10
5.200000
 20
79.450000
  0
LWPOLYLINE
  8
PCB_LAYERS
420
8421504
 90
10
 70
1
 10
30.200000
 20
24.500000
 10
89.900000
 20
24.500000
 10
89.900000
 20
24.450000
 10
90.050000
 20
24.450000
 10
90.050000
 20
24.600000
 10
89.900000
 20
24.600000
 10
30.100000
 20
24.600000
 10
29.950000
 20
24.600000
 10
29.950000
 20
24.450000
 10
30.200000
 20
24.450000
  0
LWPOLYLINE
  8
PCB_LAYERS
420
8421504
 90
10
 70
1
 10
5.200000
 20
25.500000
 10
64.900000
 20
25.500000
 10
64.900000
 20
25.450000
 10
65.050000
 20
25.450000
 10
65.050000
 20
25.600000
 10
64.900000
 20
25.600000
 10
5.100000
 20
25.600000
 10
4.950000
 20
25.600000
 10
4.950000
 20
25.450000
 10
5.200000
 20
25.450000
  0
LWPOLYLINE
  8
PCB_LAYERS
420
8421504
 90
10
 70
1
 10
30.200000
 20
61.500000
 10
89.900000
 20
61.500000
 10
89.900000
 20
61.450000
 10
90.050000
 20
61.450000
 10
90.050000
 20
61.600000
 10
89.900000
 20
61.600000
 10
30.100000
 20
61.600000
 10
29.950000
 20
61.600000
 10
29.950000
 20
61.450000
 10
30.200000
 20
61.450000
  0
LWPOLYLINE
  8
PCB_LAYERS
420
8421504
 90
10
 70
1
 10
5.200000
 20
62.500000
 10
64.900000
 20
62.500000
 10
64.900000
 20
62.450000
 10
65.050000
 20
62.450000
 10
65.050000
 20
62.600000
 10
64.900000
 20
62.600000
 10
5.100000
 20
62.600000
 10
4.950000
 20
62.600000
 10
4.950000
 20
62.450000
 10
5.200000
 20
62.450000
  0
LWPOLYLINE
  8
PCB_LAYERS
420
8421504
 90
10
 70
1
 10
30.200000
 20
3.500000
 10
89.900000
 20
3.500000
 10
89.900000
 20
3.450000
 10
90.050000
 20
3.450000
 10
90.050000
 20
3.600000
 10
89.900000
 20
3.600000
 10
30.100000
 20
3.600000
 10
29.950000
 20
3.600000
 10
29.950000
 20
3.450000
 10
30.200000
 20
3.450000
  0
LWPOLYLINE
  8
PCB_LAYERS
420
8421504
 90
10
 70
1
 10
5.200000
 20
4.500000
 10
64.900000
 20
4.500000
 10
64.900000
 20
4.450000
 10
65.050000
 20
4.450000
 10
65.050000
 20
4.600000
 10
64.900000
 20
4.600000
 10
5.100000
 20
4.600000
 10
4.950000
 20
4.600000
 10
4.950000
 20
4.450000
 10
5.200000
 20
4.450000
  0
LWPOLYLINE
  8
PCB_LAYERS
420
8421504
 90
10
 70
1
 10
30.200000
 20
40.500000
 10
89.900000
 20
40.500000
 10
89.900000
 20
40.450000
 10
90.050000
 20
40.450000
 10
90.050000
 20
40.600000
 10
89.900000
 20
40.600000
 10
30.100000
 20
40.600000
 10
29.950000
 20
40.600000
 10
29.950000
 20
40.450000
 10
30.200000
 20
40.450000
  0
LWPOLYLINE
  8
PCB_LAYERS
420
8421504
 90
10
 70
1
 10
5.200000
 20
41.500000
 10
64.900000
 20
41.500000
 10
64.900000
 20
41.450000
 10
65.050000
 20
41.450000
 10
65.050000
 20
41.600000
 10
64.900000
 20
41.600000
 10
5.100000
 20
41.600000
 10
4.950000
 20
41.600000
 10
4.950000
 20
41.450000
 10
5.200000
 20
41.450000
  0
LWPOLYLINE
  8
PCB_LAYERS
420
8421504
 90
10
 70
1
 10
30.200000
 20
77.500000
 10
89.900000
 20
77.500000
 10
89.900000
 20
77.450000
 10
90.050000
 20
77.450000
 10
90.050000
 20
77.600000
 10
89.900000
 20
77.600000
 10
30.100000
 20
77.600000
 10
29.950000
 20
77.600000
 10
29.950000
 20
77.450000
 10
30.200000
 20
77.450000
  0
LWPOLYLINE
  8
PCB_LAYERS
420
8421504
 90
10
 70
1
 10
5.200000
 20
78.500000
 10
64.900000
 20
78.500000
 10
64.900000
 20
78.450000
 10
65.050000
 20
78.450000
 10
65.050000
 20
78.600000
 10
64.900000
 20
78.600000
 10
5.100000
 20
78.600000
 10
4.950000
 20
78.600000
 10
4.950000
 20
78.450000
 10
5.200000
 20
78.450000
  0
LWPOLYLINE
  8
PCB_LAYERS
420
8421504
 90
10
 70
1
 10
30.200000
 20
19.500000
 10
89.900000
 20
19.500000
 10
89.900000
 20
19.450000
 10
90.050000
 20
19.450000
 10
90.050000
 20
19.600000
 10
89.900000
 20
19.600000
 10
30.100000
 20
19.600000
 10
29.950000
 20
19.600000
 10
29.950000
 20
19.450000
 10
30.200000
 20
19.450000
  0
LWPOLYLINE
  8
PCB_LAYERS
420
8421504
 90
10
 70
1
 10
5.200000
 20
24.500000
 10
64.900000
 20
24.500000
 10
64.900000
 20
24.450000
 10
65.050000
 20
24.450000
 10
65.050000
 20
24.600000
 10
64.900000
 20
24.600000
 10
5.100000
 20
24.600000
 10
4.950000
 20
24.600000
 10
4.950000
 20
24.450000
 10
5.200000
 20
24.450000
  0
LWPOLYLINE
  8
PCB_LAYERS
420
8421504
 90
10
 70
1
 10
30.200000
 20
60.500000
 10
89.900000
 20
60.500000
 10
89.900000
 20
60.450000
 10
90.050000
 20
60.450000
 10
90.050000
 20
60.600000
 10
89.900000
 20
60.600000
 10
30.100000
 20
60.600000
 10
29.950000
 20
60.600000
 10
29.950000
 20
60.450000
 10
30.200000
 20
60.450000
  0
LWPOLYLINE
  8
PCB_LAYERS
420
8421504
 90
10
 70
1
 10
5.200000
 20
61.500000
 10
64.900000
 20
61.500000
 10
64.900000
 20
61.450000
 10
65.050000
 20
61.450000
 10
65.050000
 20
61.600000
 10
64.900000
 20
61.600000
 10
5.100000
 20
61.600000
 10
4.950000
 20
61.600000
 10
4.950000
 20
61.450000
 10
5.200000
 20
61.450000
  0
LWPOLYLINE
  8
PCB_LAYERS
420
8421504
 90
10
 70
1
 10
30.200000
 20
2.500000
 10
89.900000
 20
2.500000
 10
89.900000
 20
2.450000
 10
90.050000
 20
2.450000
 10
90.050000
 20
2.600000
 10
89.900000
 20
2.600000
 10
30.100000
 20
2.600000
 10
29.950000
 20
2.600000
 10
29.950000
 20
2.450000
 10
30.200000
 20
2.450000
  0
LWPOLYLINE
  8
PCB_LAYERS
420
8421504
 90
10
 70
1
 10
5.200000
 20
3.500000
 10
64.900000
 20
3.500000
 10
64.900000
 20
3.450000
 10
65.050000
 20
3.450000
 10
65.050000
 20
3.600000
 10
64.900000
 20
3.600000
 10
5.100000
 20
3.600000
 10
4.950000
 20
3.600000
 10
4.950000
 20
3.450000
 10
5.200000
 20
3.450000
  0
LWPOLYLINE
  8
PCB_LAYERS
420
8421504
 90
10
 70
1
 10
30.200000
 20
39.500000
 10
89.900000
 20
39.500000
 10
89.900000
 20
39.450000
 10
90.050000
 20
39.450000
 10
90.050000
 20
39.600000
 10
89.900000
 20
39.600000
 10
30.100000
 20
39.600000
 10
29.950000
 20
39.600000
 10
29.950000
 20
39.450000
 10
30.200000
 20
39.450000
  0
LWPOLYLINE
  8
PCB_LAYERS
420
8421504
 90
10
 70
1
 10
5.200000
 20
40.500000
 10
64.900000
 20
40.500000
 10
64.900000
 20
40.450000
 10
65.050000
 20
40.450000
 10
65.050000
 20
40.600000
 10
64.900000
 20
40.600000
 10
5.100000
 20
40.600000
 10
4.950000
 20
40.600000
 10
4.950000
 20
40.450000
 10
5.200000
 20
40.450000
  0
LWPOLYLINE
  8
PCB_LAYERS
420
8421504
 90
10
 70
1
 10
30.200000
 20
76.500000
 10
89.900000
 20
76.500000
 10
89.900000
 20
76.450000
 10
90.050000
 20
76.450000
 10
90.050000
 20
76.600000
 10
89.900000
 20
76.600000
 10
30.100000
 20
76.600000
 10
29.950000
 20
76.600000
 10
29.950000
 20
76.450000
 10
30.200000
 20
76.450000
  0
LWPOLYLINE
  8
PCB_LAYERS
420
8421504
 90
10
 70
1
 10
5.200000
 20
77.500000
 10
64.900000
 20
77.500000
 10
64.900000
 20
77.450000
 10
65.050000
 20
77.450000
 10
65.050000
 20
77.600000
 10
64.900000
 20
77.600000
 10
5.100000
 20
77.600000
 10
4.950000
 20
77.600000
 10
4.950000
 20
77.450000
 10
5.200000
 20
77.450000
  0
LWPOLYLINE
  8
PCB_LAYERS
420
8421504
 90
10
 70
1
 10
30.200000
 20
18.500000
 10
89.900000
 20
18.500000
 10
89.900000
 20
18.450000
 10
90.050000
 20
18.450000
 10
90.050000
 20
18.600000
 10
89.900000
 20
18.600000
 10
30.100000
 20
18.600000
 10
29.950000
 20
18.600000
 10
29.950000
 20
18.450000
 10
30.200000
 20
18.450000
  0
LWPOLYLINE
  8
PCB_LAYERS
420
8421504
 90
10
 70
1
 10
5.200000
 20
19.500000
 10
64.900000
 20
19.500000
 10
64.900000
 20
19.450000
 10
65.050000
 20
19.450000
 10
65.050000
 20
19.600000
 10
64.900000
 20
19.600000
 10
5.100000
 20
19.600000
 10
4.950000
 20
19.600000
 10
4.950000
 20
19.450000
 10
5.200000
 20
19.450000
  0
LWPOLYLINE
  8
PCB_LAYERS
420
8421504
 90
10
 70
1
 10
30.200000
 20
55.500000
 10
89.900000
 20
55.500000
 10
89.900000
 20
55.450000
 10
90.050000
 20
55.450000
 10
90.050000
 20
55.600000
 10
89.900000
 20
55.600000
 10
30.100000
 20
55.600000
 10
29.950000
 20
55.600000
 10
29.950000
 20
55.450000
 10
30.200000
 20
55.450000
  0
LWPOLYLINE
  8
PCB_LAYERS
420
8421504
 90
10
 70
1
 10
5.200000
 20
60.500000
 10
64.900000
 20
60.500000
 10
64.900000
 20
60.450000
 10
65.050000
 20
60.450000
 10
65.050000
 20
60.600000
 10
64.900000
 20
60.600000
 10
5.100000
 20
60.600000
 10
4.950000
 20
60.600000
 10
4.950000
 20
60.450000
 10
5.200000
 20
60.450000
  0
LWPOLYLINE
  8
PCB_LAYERS
420
8421504
 90
10
 70
1
 10
30.200000
 20
1.500000
 10
89.900000
 20
1.500000
 10
89.900000
 20
1.450000
 10
90.050000
 20
1.450000
 10
90.050000
 20
1.600000
 10
89.900000
 20
1.600000
 10
30.100000
 20
1.600000
 10
29.950000
 20
1.600000
 10
29.950000
 20
1.450000
 10
30.200000
 20
1.450000
  0
LWPOLYLINE
  8
PCB_LAYERS
420
8421504
 90
10
 70
1
 10
5.200000
 20
2.500000
 10
64.900000
 20
2.500000
 10
64.900000
 20
2.450000
 10
65.050000
 20
2.450000
 10
65.050000
 20
2.600000
 10
64.900000
 20
2.600000
 10
5.100000
 20
2.600000
 10
4.950000
 20
2.600000
 10
4.950000
 20
2.450000
 10
5.200000
 20
2.450000
  0
LWPOLYLINE
  8
PCB_LAYERS
420
8421504
 90
10
 70
1
 10
30.200000
 20
38.500000
 10
89.900000
 20
38.500000
 10
89.900000
 20
38.450000
 10
90.050000
 20
38.450000
 10
90.050000
 20
38.600000
 10
89.900000
 20
38.600000
 10
30.100000
 20
38.600000
 10
29.950000
 20
38.600000
 10
29.950000
 20
38.450000
 10
30.200000
 20
38.450000
  0
LWPOLYLINE
  8
PCB_LAYERS
420
8421504
 90
10
 70
1
 10
5.200000
 20
39.500000
 10
64.900000
 20
39.500000
 10
64.900000
 20
39.450000
 10
65.050000
 20
39.450000
 10
65.050000
 20
39.600000
 10
64.900000
 20
39.600000
 10
5.100000
 20
39.600000
 10
4.950000
 20
39.600000
 10
4.950000
 20
39.450000
 10
5.200000
 20
39.450000
  0
LWPOLYLINE
  8
PCB_LAYERS
420
8421504
 90
10
 70
1
 10
30.200000
 20
75.500000
 10
89.900000
 20
75.500000
 10
89.900000
 20
75.450000
 10
90.050000
 20
75.450000
 10
90.050000
 20
75.600000
 10
89.900000
 20
75.600000
 10
30.100000
 20
75.600000
 10
29.950000
 20
75.600000
 10
29.950000
 20
75.450000
 10
30.200000
 20
75.450000
  0
LWPOLYLINE
  8
PCB_LAYERS
420
8421504
 90
10
 70
1
 10
5.200000
 20
76.500000
 10
64.900000
 20
76.500000
 10
64.900000
 20
76.450000
 10
65.050000
 20
76.450000
 10
65.050000
 20
76.600000
 10
64.900000
 20
76.600000
 10
5.100000
 20
76.600000
 10
4.950000
 20
76.600000
 10
4.950000
 20
76.450000
 10
5.200000
 20
76.450000
  0
LWPOLYLINE
  8
PCB_LAYERS
420
8421504
 90
10
 70
1
 10
30.200000
 20
17.500000
 10
89.900000
 20
17.500000
 10
89.900000
 20
17.450000
 10
90.050000
 20
17.450000
 10
90.050000
 20
17.600000
 10
89.900000
 20
17.600000
 10
30.100000
 20
17.600000
 10
29.950000
 20
17.600000
 10
29.950000
 20
17.450000
 10
30.200000
 20
17.450000
  0
LWPOLYLINE
  8
PCB_LAYERS
420
8421504
 90
10
 70
1
 10
5.200000
 20
18.500000
 10
64.900000
 20
18.500000
 10
64.900000
 20
18.450000
 10
65.050000
 20
18.450000
 10
65.050000
 20
18.600000
 10
64.900000
 20
18.600000
 10
5.100000
 20
18.600000
 10
4.950000
 20
18.600000
 10
4.950000
 20
18.450000
 10
5.200000
 20
18.450000
  0
LWPOLYLINE
  8
PCB_LAYERS
420
8421504
 90
10
 70
1
 10
30.200000
 20
54.500000
 10
89.900000
 20
54.500000
 10
89.900000
 20
54.450000
 10
90.050000
 20
54.450000
 10
90.050000
 20
54.600000
 10
89.900000
 20
54.600000
 10
30.100000
 20
54.600000
 10
29.950000
 20
54.600000
 10
29.950000
 20
54.450000
 10
30.200000
 20
54.450000
  0
LWPOLYLINE
  8
PCB_LAYERS
420
8421504
 90
10
 70
1
 10
5.200000
 20
55.500000
 10
64.900000
 20
55.500000
 10
64.900000
 20
55.450000
 10
65.050000
 20
55.450000
 10
65.050000
 20
55.600000
 10
64.900000
 20
55.600000
 10
5.100000
 20
55.600000
 10
4.950000
 20
55.600000
 10
4.950000
 20
55.450000
 10
5.200000
 20
55.450000
  0
LWPOLYLINE
  8
PCB_LAYERS
420
8421504
 90
10
 70
1
 10
30.200000
 20
91.500000
 10
89.900000
 20
91.500000
 10
89.900000
 20
91.450000
 10
90.050000
 20
91.450000
 10
90.050000
 20
91.600000
 10
89.900000
 20
91.600000
 10
30.100000
 20
91.600000
 10
29.950000
 20
91.600000
 10
29.950000
 20
91.450000
 10
30.200000
 20
91.450000
  0
LWPOLYLINE
  8
PCB_LAYERS
420
8421504
 90
10
 70
1
 10
30.200000
 20
0.500000
 10
89.900000
 20
0.500000
 10
89.900000
 20
0.450000
 10
90.050000
 20
0.450000
 10
90.050000
 20
0.600000
 10
89.900000
 20
0.600000
 10
30.100000
 20
0.600000
 10
29.950000
 20
0.600000
 10
29.950000
 20
0.450000
 10
30.200000
 20
0.450000
  0
LWPOLYLINE
  8
PCB_LAYERS
420
8421504
 90
10
 70
1
 10
5.200000
 20
1.500000
 10
64.900000
 20
1.500000
 10
64.900000
 20
1.450000
 10
65.050000
 20
1.450000
 10
65.050000
 20
1.600000
 10
64.900000
 20
1.600000
 10
5.100000
 20
1.600000
 10
4.950000
 20
1.600000
 10
4.950000
 20
1.450000
 10
5.200000
 20
1.450000
  0
LWPOLYLINE
  8
PCB_LAYERS
420
8421504
 90
10
 70
1
 10
30.200000
 20
37.500000
 10
89.900000
 20
37.500000
 10
89.900000
 20
37.450000
 10
90.050000
 20
37.450000
 10
90.050000
 20
37.600000
 10
89.900000
 20
37.600000
 10
30.100000
 20
37.600000
 10
29.950000
 20
37.600000
 10
29.950000
 20
37.450000
 10
30.200000
 20
37.450000
  0
LWPOLYLINE
  8
PCB_LAYERS
420
8421504
 90
10
 70
1
 10
5.200000
 20
38.500000
 10
64.900000
 20
38.500000
 10
64.900000
 20
38.450000
 10
65.050000
 20
38.450000
 10
65.050000
 20
38.600000
 10
64.900000
 20
38.600000
 10
5.100000
 20
38.600000
 10
4.950000
 20
38.600000
 10
4.950000
 20
38.450000
 10
5.200000
 20
38.450000
  0
LWPOLYLINE
  8
PCB_LAYERS
420
8421504
 90
10
 70
1
 10
30.200000
 20
74.500000
 10
89.900000
 20
74.500000
 10
89.900000
 20
74.450000
 10
90.050000
 20
74.450000
 10
90.050000
 20
74.600000
 10
89.900000
 20
74.600000
 10
30.100000
 20
74.600000
 10
29.950000
 20
74.600000
 10
29.950000
 20
74.450000
 10
30.200000
 20
74.450000
  0
LWPOLYLINE
  8
PCB_LAYERS
420
8421504
 90
10
 70
1
 10
5.200000
 20
75.500000
 10
64.900000
 20
75.500000
 10
64.900000
 20
75.450000
 10
65.050000
 20
75.450000
 10
65.050000
 20
75.600000
 10
64.900000
 20
75.600000
 10
5.100000
 20
75.600000
 10
4.950000
 20
75.600000
 10
4.950000
 20
75.450000
 10
5.200000
 20
75.450000
  0
LWPOLYLINE
  8
PCB_LAYERS
420
8421504
 90
10
 70
1
 10
30.200000
 20
16.500000
 10
89.900000
 20
16.500000
 10
89.900000
 20
16.450000
 10
90.050000
 20
16.450000
 10
90.050000
 20
16.600000
 10
89.900000
 20
16.600000
 10
30.100000
 20
16.600000
 10
29.950000
 20
16.600000
 10
29.950000
 20
16.450000
 10
30.200000
 20
16.450000
  0
LWPOLYLINE
  8
PCB_LAYERS
420
8421504
 90
10
 70
1
 10
5.200000
 20
17.500000
 10
64.900000
 20
17.500000
 10
64.900000
 20
17.450000
 10
65.050000
 20
17.450000
 10
65.050000
 20
17.600000
 10
64.900000
 20
17.600000
 10
5.100000
 20
17.600000
 10
4.950000
 20
17.600000
 10
4.950000
 20
17.450000
 10
5.200000
 20
17.450000
  0
LWPOLYLINE
  8
PCB_LAYERS
420
8421504
 90
10
 70
1
 10
30.200000
 20
53.500000
 10
89.900000
 20
53.500000
 10
89.900000
 20
53.450000
 10
90.050000
 20
53.450000
 10
90.050000
 20
53.600000
 10
89.900000
 20
53.600000
 10
30.100000
 20
53.600000
 10
29.950000
 20
53.600000
 10
29.950000
 20
53.450000
 10
30.200000
 20
53.450000
  0
LWPOLYLINE
  8
PCB_LAYERS
420
8421504
 90
10
 70
1
 10
5.200000
 20
54.500000
 10
64.900000
 20
54.500000
 10
64.900000
 20
54.450000
 10
65.050000
 20
54.450000
 10
65.050000
 20
54.600000
 10
64.900000
 20
54.600000
 10
5.100000
 20
54.600000
 10
4.950000
 20
54.600000
 10
4.950000
 20
54.450000
 10
5.200000
 20
54.450000
  0
LWPOLYLINE
  8
PCB_LAYERS
420
8421504
 90
10
 70
1
 10
30.200000
 20
90.500000
 10
89.900000
 20
90.500000
 10
89.900000
 20
90.450000
 10
90.050000
 20
90.450000
 10
90.050000
 20
90.600000
 10
89.900000
 20
90.600000
 10
30.100000
 20
90.600000
 10
29.950000
 20
90.600000
 10
29.950000
 20
90.450000
 10
30.200000
 20
90.450000
  0
LWPOLYLINE
  8
PCB_LAYERS
420
8421504
 90
10
 70
1
 10
5.200000
 20
91.500000
 10
64.900000
 20
91.500000
 10
64.900000
 20
91.450000
 10
65.050000
 20
91.450000
 10
65.050000
 20
91.600000
 10
64.900000
 20
91.600000
 10
5.100000
 20
91.600000
 10
4.950000
 20
91.600000
 10
4.950000
 20
91.450000
 10
5.200000
 20
91.450000
  0
LWPOLYLINE
  8
PCB_LAYERS
420
8421504
 90
10
 70
1
 10
5.200000
 20
0.500000
 10
64.900000
 20
0.500000
 10
64.900000
 20
0.450000
 10
65.050000
 20
0.450000
 10
65.050000
 20
0.600000
 10
64.900000
 20
0.600000
 10
5.100000
 20
0.600000
 10
4.950000
 20
0.600000
 10
4.950000
 20
0.450000
 10
5.200000
 20
0.450000
  0
LWPOLYLINE
  8
PCB_LAYERS
420
8421504
 90
10
 70
1
 10
30.200000
 20
36.500000
 10
89.900000
 20
36.500000
 10
89.900000
 20
36.450000
 10
90.050000
 20
36.450000
 10
90.050000
 20
36.600000
 10
89.900000
 20
36.600000
 10
30.100000
 20
36.600000
 10
29.950000
 20
36.600000
 10
29.950000
 20
36.450000
 10
30.200000
 20
36.450000
  0
LWPOLYLINE
  8
PCB_LAYERS
420
8421504
 90
10
 70
1
 10
5.200000
 20
37.500000
 10
64.900000
 20
37.500000
 10
64.900000
 20
37.450000
 10
65.050000
 20
37.450000
 10
65.050000
 20
37.600000
 10
64.900000
 20
37.600000
 10
5.100000
 20
37.600000
 10
4.950000
 20
37.600000
 10
4.950000
 20
37.450000
 10
5.200000
 20
37.450000
  0
LWPOLYLINE
  8
PCB_LAYERS
420
8421504
 90
10
 70
1
 10
30.200000
 20
73.500000
 10
89.900000
 20
73.500000
 10
89.900000
 20
73.450000
 10
90.050000
 20
73.450000
 10
90.050000
 20
73.600000
 10
89.900000
 20
73.600000
 10
30.100000
 20
73.600000
 10
29.950000
 20
73.600000
 10
29.950000
 20
73.450000
 10
30.200000
 20
73.450000
  0
LWPOLYLINE
  8
PCB_LAYERS
420
8421504
 90
10
 70
1
 10
5.200000
 20
74.500000
 10
64.900000
 20
74.500000
 10
64.900000
 20
74.450000
 10
65.050000
 20
74.450000
 10
65.050000
 20
74.600000
 10
64.900000
 20
74.600000
 10
5.100000
 20
74.600000
 10
4.950000
 20
74.600000
 10
4.950000
 20
74.450000
 10
5.200000
 20
74.450000
  0
LWPOLYLINE
  8
PCB_LAYERS
420
8421504
 90
10
 70
1
 10
30.200000
 20
15.500000
 10
89.900000
 20
15.500000
 10
89.900000
 20
15.450000
 10
90.050000
 20
15.450000
 10
90.050000
 20
15.600000
 10
89.900000
 20
15.600000
 10
30.100000
 20
15.600000
 10
29.950000
 20
15.600000
 10
29.950000
 20
15.450000
 10
30.200000
 20
15.450000
  0
LWPOLYLINE
  8
PCB_LAYERS
420
8421504
 90
10
 70
1
 10
5.200000
 20
16.500000
 10
64.900000
 20
16.500000
 10
64.900000
 20
16.450000
 10
65.050000
 20
16.450000
 10
65.050000
 20
16.600000
 10
64.900000
 20
16.600000
 10
5.100000
 20
16.600000
 10
4.950000
 20
16.600000
 10
4.950000
 20
16.450000
 10
5.200000
 20
16.450000
  0
LWPOLYLINE
  8
PCB_LAYERS
420
8421504
 90
10
 70
1
 10
30.200000
 20
52.500000
 10
89.900000
 20
52.500000
 10
89.900000
 20
52.450000
 10
90.050000
 20
52.450000
 10
90.050000
 20
52.600000
 10
89.900000
 20
52.600000
 10
30.100000
 20
52.600000
 10
29.950000
 20
52.600000
 10
29.950000
 20
52.450000
 10
30.200000
 20
52.450000
  0
LWPOLYLINE
  8
PCB_LAYERS
420
8421504
 90
10
 70
1
 10
5.200000
 20
53.500000
 10
64.900000
 20
53.500000
 10
64.900000
 20
53.450000
 10
65.050000
 20
53.450000
 10
65.050000
 20
53.600000
 10
64.900000
 20
53.600000
 10
5.100000
 20
53.600000
 10
4.950000
 20
53.600000
 10
4.950000
 20
53.450000
 10
5.200000
 20
53.450000
  0
LWPOLYLINE
  8
PCB_LAYERS
420
8421504
 90
10
 70
1
 10
30.200000
 20
89.500000
 10
89.900000
 20
89.500000
 10
89.900000
 20
89.450000
 10
90.050000
 20
89.450000
 10
90.050000
 20
89.600000
 10
89.900000
 20
89.600000
 10
30.100000
 20
89.600000
 10
29.950000
 20
89.600000
 10
29.950000
 20
89.450000
 10
30.200000
 20
89.450000
  0
LWPOLYLINE
  8
PCB_LAYERS
420
8421504
 90
10
 70
1
 10
5.200000
 20
90.500000
 10
64.900000
 20
90.500000
 10
64.900000
 20
90.450000
 10
65.050000
 20
90.450000
 10
65.050000
 20
90.600000
 10
64.900000
 20
90.600000
 10
5.100000
 20
90.600000
 10
4.950000
 20
90.600000
 10
4.950000
 20
90.450000
 10
5.200000
 20
90.450000
  0
LWPOLYLINE
  8
PCB_LAYERS
420
8421504
 90
10
 70
1
 10
30.200000
 20
31.500000
 10
89.900000
 20
31.500000
 10
89.900000
 20
31.450000
 10
90.050000
 20
31.450000
 10
90.050000
 20
31.600000
 10
89.900000
 20
31.600000
 10
30.100000
 20
31.600000
 10
29.950000
 20
31.600000
 10
29.950000
 20
31.450000
 10
30.200000
 20
31.450000
  0
LWPOLYLINE
  8
PCB_LAYERS
420
8421504
 90
10
 70
1
 10
5.200000
 20
36.500000
 10
64.900000
 20
36.500000
 10
64.900000
 20
36.450000
 10
65.050000
 20
36.450000
 10
65.050000
 20
36.600000
 10
64.900000
 20
36.600000
 10
5.100000
 20
36.600000
 10
4.950000
 20
36.600000
 10
4.950000
 20
36.450000
 10
5.200000
 20
36.450000
  0
LWPOLYLINE
  8
PCB_LAYERS
420
8421504
 90
10
 70
1
 10
30.200000
 20
72.500000
 10
89.900000
 20
72.500000
 10
89.900000
 20
72.450000
 10
90.050000
 20
72.450000
 10
90.050000
 20
72.600000
 10
89.900000
 20
72.600000
 10
30.100000
 20
72.600000
 10
29.950000
 20
72.600000
 10
29.950000
 20
72.450000
 10
30.200000
 20
72.450000
  0
LWPOLYLINE
  8
PCB_LAYERS
420
8421504
 90
10
 70
1
 10
5.200000
 20
73.500000
 10
64.900000
 20
73.500000
 10
64.900000
 20
73.450000
 10
65.050000
 20
73.450000
 10
65.050000
 20
73.600000
 10
64.900000
 20
73.600000
 10
5.100000
 20
73.600000
 10
4.950000
 20
73.600000
 10
4.950000
 20
73.450000
 10
5.200000
 20
73.450000
  0
LWPOLYLINE
  8
PCB_LAYERS
420
8421504
 90
10
 70
1
 10
30.200000
 20
14.500000
 10
89.900000
 20
14.500000
 10
89.900000
 20
14.450000
 10
90.050000
 20
14.450000
 10
90.050000
 20
14.600000
 10
89.900000
 20
14.600000
 10
30.100000
 20
14.600000
 10
29.950000
 20
14.600000
 10
29.950000
 20
14.450000
 10
30.200000
 20
14.450000
  0
LWPOLYLINE
  8
PCB_LAYERS
420
8421504
 90
10
 70
1
 10
5.200000
 20
15.500000
 10
64.900000
 20
15.500000
 10
64.900000
 20
15.450000
 10
65.050000
 20
15.450000
 10
65.050000
 20
15.600000
 10
64.900000
 20
15.600000
 10
5.100000
 20
15.600000
 10
4.950000
 20
15.600000
 10
4.950000
 20
15.450000
 10
5.200000
 20
15.450000
  0
LWPOLYLINE
  8
PCB_LAYERS
420
8421504
 90
10
 70
1
 10
30.200000
 20
51.500000
 10
89.900000
 20
51.500000
 10
89.900000
 20
51.450000
 10
90.050000
 20
51.450000
 10
90.050000
 20
51.600000
 10
89.900000
 20
51.600000
 10
30.100000
 20
51.600000
 10
29.950000
 20
51.600000
 10
29.950000
 20
51.450000
 10
30.200000
 20
51.450000
  0
LWPOLYLINE
  8
PCB_LAYERS
420
8421504
 90
10
 70
1
 10
5.200000
 20
52.500000
 10
64.900000
 20
52.500000
 10
64.900000
 20
52.450000
 10
65.050000
 20
52.450000
 10
65.050000
 20
52.600000
 10
64.900000
 20
52.600000
 10
5.100000
 20
52.600000
 10
4.950000
 20
52.600000
 10
4.950000
 20
52.450000
 10
5.200000
 20
52.450000
  0
LWPOLYLINE
  8
PCB_LAYERS
420
8421504
 90
10
 70
1
 10
30.200000
 20
88.500000
 10
89.900000
 20
88.500000
 10
89.900000
 20
88.450000
 10
90.050000
 20
88.450000
 10
90.050000
 20
88.600000
 10
89.900000
 20
88.600000
 10
30.100000
 20
88.600000
 10
29.950000
 20
88.600000
 10
29.950000
 20
88.450000
 10
30.200000
 20
88.450000
  0
LWPOLYLINE
  8
PCB_LAYERS
420
8421504
 90
10
 70
1
 10
5.200000
 20
89.500000
 10
64.900000
 20
89.500000
 10
64.900000
 20
89.450000
 10
65.050000
 20
89.450000
 10
65.050000
 20
89.600000
 10
64.900000
 20
89.600000
 10
5.100000
 20
89.600000
 10
4.950000
 20
89.600000
 10
4.950000
 20
89.450000
 10
5.200000
 20
89.450000
  0
LWPOLYLINE
  8
PCB_LAYERS
420
8421504
 90
10
 70
1
 10
30.200000
 20
30.500000
 10
89.900000
 20
30.500000
 10
89.900000
 20
30.450000
 10
90.050000
 20
30.450000
 10
90.050000
 20
30.600000
 10
89.900000
 20
30.600000
 10
30.100000
 20
30.600000
 10
29.950000
 20
30.600000
 10
29.950000
 20
30.450000
 10
30.200000
 20
30.450000
  0
LWPOLYLINE
  8
PCB_LAYERS
420
8421504
 90
10
 70
1
 10
5.200000
 20
31.500000
 10
64.900000
 20
31.500000
 10
64.900000
 20
31.450000
 10
65.050000
 20
31.450000
 10
65.050000
 20
31.600000
 10
64.900000
 20
31.600000
 10
5.100000
 20
31.600000
 10
4.950000
 20
31.600000
 10
4.950000
 20
31.450000
 10
5.200000
 20
31.450000
  0
LWPOLYLINE
  8
PCB_LAYERS
420
8421504
 90
10
 70
1
 10
30.200000
 20
67.500000
 10
89.900000
 20
67.500000
 10
89.900000
 20
67.450000
 10
90.050000
 20
67.450000
 10
90.050000
 20
67.600000
 10
89.900000
 20
67.600000
 10
30.100000
 20
67.600000
 10
29.950000
 20
67.600000
 10
29.950000
 20
67.450000
 10
30.200000
 20
67.450000
  0
LWPOLYLINE
  8
PCB_LAYERS
420
8421504
 90
10
 70
1
 10
5.200000
 20
72.500000
 10
64.900000
 20
72.500000
 10
64.900000
 20
72.450000
 10
65.050000
 20
72.450000
 10
65.050000
 20
72.600000
 10
64.900000
 20
72.600000
 10
5.100000
 20
72.600000
 10
4.950000
 20
72.600000
 10
4.950000
 20
72.450000
 10
5.200000
 20
72.450000
  0
LWPOLYLINE
  8
PCB_LAYERS
420
8421504
 90
10
 70
1
 10
30.200000
 20
13.500000
 10
89.900000
 20
13.500000
 10
89.900000
 20
13.450000
 10
90.050000
 20
13.450000
 10
90.050000
 20
13.600000
 10
89.900000
 20
13.600000
 10
30.100000
 20
13.600000
 10
29.950000
 20
13.600000
 10
29.950000
 20
13.450000
 10
30.200000
 20
13.450000
  0
LWPOLYLINE
  8
PCB_LAYERS
420
8421504
 90
10
 70
1
 10
5.200000
 20
14.500000
 10
64.900000
 20
14.500000
 10
64.900000
 20
14.450000
 10
65.050000
 20
14.450000
 10
65.050000
 20
14.600000
 10
64.900000
 20
14.600000
 10
5.100000
 20
14.600000
 10
4.950000
 20
14.600000
 10
4.950000
 20
14.450000
 10
5.200000
 20
14.450000
  0
LWPOLYLINE
  8
PCB_LAYERS
420
8421504
 90
10
 70
1
 10
30.200000
 20
50.500000
 10
89.900000
 20
50.500000
 10
89.900000
 20
50.450000
 10
90.050000
 20
50.450000
 10
90.050000
 20
50.600000
 10
89.900000
 20
50.600000
 10
30.100000
 20
50.600000
 10
29.950000
 20
50.600000
 10
29.950000
 20
50.450000
 10
30.200000
 20
50.450000
  0
LWPOLYLINE
  8
PCB_LAYERS
420
8421504
 90
10
 70
1
 10
5.200000
 20
51.500000
 10
64.900000
 20
51.500000
 10
64.900000
 20
51.450000
 10
65.050000
 20
51.450000
 10
65.050000
 20
51.600000
 10
64.900000
 20
51.600000
 10
5.100000
 20
51.600000
 10
4.950000
 20
51.600000
 10
4.950000
 20
51.450000
 10
5.200000
 20
51.450000
  0
LWPOLYLINE
  8
PCB_LAYERS
420
8421504
 90
10
 70
1
 10
30.200000
 20
87.500000
 10
89.900000
 20
87.500000
 10
89.900000
 20
87.450000
 10
90.050000
 20
87.450000
 10
90.050000
 20
87.600000
 10
89.900000
 20
87.600000
 10
30.100000
 20
87.600000
 10
29.950000
 20
87.600000
 10
29.950000
 20
87.450000
 10
30.200000
 20
87.450000
  0
LWPOLYLINE
  8
PCB_LAYERS
420
8421504
 90
10
 70
1
 10
5.200000
 20
88.500000
 10
64.900000
 20
88.500000
 10
64.900000
 20
88.450000
 10
65.050000
 20
88.450000
 10
65.050000
 20
88.600000
 10
64.900000
 20
88.600000
 10
5.100000
 20
88.600000
 10
4.950000
 20
88.600000
 10
4.950000
 20
88.450000
 10
5.200000
 20
88.450000
  0
LWPOLYLINE
  8
PCB_LAYERS
420
8421504
 90
10
 70
1
 10
30.200000
 20
29.500000
 10
89.900000
 20
29.500000
 10
89.900000
 20
29.450000
 10
90.050000
 20
29.450000
 10
90.050000
 20
29.600000
 10
89.900000
 20
29.600000
 10
30.100000
 20
29.600000
 10
29.950000
 20
29.600000
 10
29.950000
 20
29.450000
 10
30.200000
 20
29.450000
  0
LWPOLYLINE
  8
PCB_LAYERS
420
8421504
 90
10
 70
1
 10
5.200000
 20
30.500000
 10
64.900000
 20
30.500000
 10
64.900000
 20
30.450000
 10
65.050000
 20
30.450000
 10
65.050000
 20
30.600000
 10
64.900000
 20
30.600000
 10
5.100000
 20
30.600000
 10
4.950000
 20
30.600000
 10
4.950000
 20
30.450000
 10
5.200000
 20
30.450000
  0
LWPOLYLINE
  8
PCB_LAYERS
420
8421504
 90
10
 70
1
 10
30.200000
 20
66.500000
 10
89.900000
 20
66.500000
 10
89.900000
 20
66.450000
 10
90.050000
 20
66.450000
 10
90.050000
 20
66.600000
 10
89.900000
 20
66.600000
 10
30.100000
 20
66.600000
 10
29.950000
 20
66.600000
 10
29.950000
 20
66.450000
 10
30.200000
 20
66.450000
  0
LWPOLYLINE
  8
PCB_LAYERS
420
8421504
 90
10
 70
1
 10
5.200000
 20
67.500000
 10
64.900000
 20
67.500000
 10
64.900000
 20
67.450000
 10
65.050000
 20
67.450000
 10
65.050000
 20
67.600000
 10
64.900000
 20
67.600000
 10
5.100000
 20
67.600000
 10
4.950000
 20
67.600000
 10
4.950000
 20
67.450000
 10
5.200000
 20
67.450000
  0
LWPOLYLINE
  8
PCB_LAYERS
420
8421504
 90
10
 70
1
 10
30.200000
 20
12.500000
 10
89.900000
 20
12.500000
 10
89.900000
 20
12.450000
 10
90.050000
 20
12.450000
 10
90.050000
 20
12.600000
 10
89.900000
 20
12.600000
 10
30.100000
 20
12.600000
 10
29.950000
 20
12.600000
 10
29.950000
 20
12.450000
 10
30.200000
 20
12.450000
  0
LWPOLYLINE
  8
PCB_LAYERS
420
8421504
 90
10
 70
1
 10
5.200000
 20
13.500000
 10
64.900000
 20
13.500000
 10
64.900000
 20
13.450000
 10
65.050000
 20
13.450000
 10
65.050000
 20
13.600000
 10
64.900000
 20
13.600000
 10
5.100000
 20
13.600000
 10
4.950000
 20
13.600000
 10
4.950000
 20
13.450000
 10
5.200000
 20
13.450000
  0
LWPOLYLINE
  8
PCB_LAYERS
420
8421504
 90
10
 70
1
 10
30.200000
 20
49.500000
 10
89.900000
 20
49.500000
 10
89.900000
 20
49.450000
 10
90.050000
 20
49.450000
 10
90.050000
 20
49.600000
 10
89.900000
 20
49.600000
 10
30.100000
 20
49.600000
 10
29.950000
 20
49.600000
 10
29.950000
 20
49.450000
 10
30.200000
 20
49.450000
  0
ENDSEC
  0
EOF
