  0
SECTION
  2
HEADER
  9
$ACADVER
  1
AC1018
  0
ENDSEC
  0
SECTION
  2
TABLES
  0
TABLE
  2
LAYER
  0
LAYER
  2
Copper
 70
0
 62
7
  0
ENDTAB
  0
ENDSEC
  0
SECTION
  2
ENTITIES
  0
LWPOLYLINE
  8
Copper
420
16744512
 90
4
 70
1
 10
0.054000
 20
0.084000
 10
0.050000
 20
0.084000
 10
0.050000
 20
0.080000
 10
0.054000
 20
0.080000
  0
LWPOLYLINE
  8
Copper
420
16744512
 90
4
 70
1
 10
0.032786
 20
0.075213
 10
0.028786
 20
0.075213
 10
0.028786
 20
0.071213
 10
0.032786
 20
0.071213
  0
LWPOLYLINE
  8
Copper
420
16744512
 90
4
 70
1
 10
0.075213
 20
0.075213
 10
0.071213
 20
0.075213
 10
0.071213
 20
0.071213
 10
0.075213
 20
0.071213
  0
LWPOLYLINE
  8
Copper
420
16744512
 90
4
 70
1
 10
0.024000
 20
0.054000
 10
0.020000
 20
0.054000
 10
0.020000
 20
0.050000
 10
0.024000
 20
0.050000
  0
LWPOLYLINE
  8
Copper
420
16744512
 90
4
 70
1
 10
0.084000
 20
0.054000
 10
0.080000
 20
0.054000
 10
0.080000
 20
0.050000
 10
0.084000
 20
0.050000
  0
LWPOLYLINE
  8
Copper
420
16744512
 90
4
 70
1
 10
0.032786
 20
0.032786
 10
0.028786
 20
0.032786
 10
0.028786
 20
0.028786
 10
0.032786
 20
0.028786
  0
LWPOLYLINE
  8
Copper
420
16744512
 90
4
 70
1
 10
0.075213
 20
0.032786
 10
0.071213
 20
0.032786
 10
0.071213
 20
0.028786
 10
0.075213
 20
0.028786
  0
LWPOLYLINE
  8
Copper
420
16744512
 90
4
 70
1
 10
0.053999
 20
0.024000
 10
0.049999
 20
0.024000
 10
0.049999
 20
0.020000
 10
0.053999
 20
0.020000
  0
ENDSEC
  0
EOF
