  0
SECTION
  2
HEADER
  9
$ACADVER
  1
AC1018
  0
ENDSEC
  0
SECTION
  2
TABLES
  0
TABLE
  2
LAYER
  0
LAYER
  2
L_FR4
 70
0
 62
7
420
3046706
440
33554432
  0
LAYER
  2
L_Copper
 70
0
 62
7
420
12088115
440
33554432
  0
ENDTAB
  0
ENDSEC
  0
SECTION
  2
ENTITIES
  0
LWPOLYLINE
  8
L0_FR4
420
3046706
 90
4
 70
1
 10
0.000000
 20
0.000000
 10
50.000000
 20
0.000000
 10
50.000000
 20
50.000000
 10
0.000000
 20
50.000000
  0
LWPOLYLINE
  8
L0_Copper
420
12088115
 90
4
 70
1
 10
1.000000
 20
1.000000
 10
49.000000
 20
1.000000
 10
49.000000
 20
24.000000
 10
1.000000
 20
24.000000
  0
LWPOLYLINE
  8
L0_Copper
420
12088115
 90
4
 70
1
 10
1.000000
 20
26.000000
 10
49.000000
 20
26.000000
 10
49.000000
 20
49.000000
 10
1.000000
 20
49.000000
  0
LWPOLYLINE
  8
L0_Copper
420
12088115
 90
4
 70
1
 10
2.000000
 20
2.000000
 10
5.000000
 20
2.000000
 10
5.000000
 20
3.000000
 10
2.000000
 20
3.000000
  0
LWPOLYLINE
  8
L0_Copper
420
12088115
 90
4
 70
1
 10
6.000000
 20
2.000000
 10
9.000000
 20
2.000000
 10
9.000000
 20
3.000000
 10
6.000000
 20
3.000000
  0
LWPOLYLINE
  8
L0_Copper
420
12088115
 90
4
 70
1
 10
10.000000
 20
2.000000
 10
13.000000
 20
2.000000
 10
13.000000
 20
3.000000
 10
10.000000
 20
3.000000
  0
LWPOLYLINE
  8
L0_Copper
420
12088115
 90
4
 70
1
 10
14.000000
 20
2.000000
 10
17.000000
 20
2.000000
 10
17.000000
 20
3.000000
 10
14.000000
 20
3.000000
  0
LWPOLYLINE
  8
L0_Copper
420
12088115
 90
4
 70
1
 10
18.000000
 20
2.000000
 10
21.000000
 20
2.000000
 10
21.000000
 20
3.000000
 10
18.000000
 20
3.000000
  0
LWPOLYLINE
  8
L0_Copper
420
12088115
 90
4
 70
1
 10
22.000000
 20
2.000000
 10
25.000000
 20
2.000000
 10
25.000000
 20
3.000000
 10
22.000000
 20
3.000000
  0
LWPOLYLINE
  8
L0_Copper
420
12088115
 90
4
 70
1
 10
26.000000
 20
2.000000
 10
29.000000
 20
2.000000
 10
29.000000
 20
3.000000
 10
26.000000
 20
3.000000
  0
LWPOLYLINE
  8
L0_Copper
420
12088115
 90
4
 70
1
 10
30.000000
 20
2.000000
 10
33.000000
 20
2.000000
 10
33.000000
 20
3.000000
 10
30.000000
 20
3.000000
  0
LWPOLYLINE
  8
L0_Copper
420
12088115
 90
4
 70
1
 10
34.000000
 20
2.000000
 10
37.000000
 20
2.000000
 10
37.000000
 20
3.000000
 10
34.000000
 20
3.000000
  0
LWPOLYLINE
  8
L0_Copper
420
12088115
 90
4
 70
1
 10
38.000000
 20
2.000000
 10
41.000000
 20
2.000000
 10
41.000000
 20
3.000000
 10
38.000000
 20
3.000000
  0
LWPOLYLINE
  8
L0_Copper
420
12088115
 90
4
 70
1
 10
2.000000
 20
5.000000
 10
5.000000
 20
5.000000
 10
5.000000
 20
6.000000
 10
2.000000
 20
6.000000
  0
LWPOLYLINE
  8
L0_Copper
420
12088115
 90
4
 70
1
 10
6.000000
 20
5.000000
 10
9.000000
 20
5.000000
 10
9.000000
 20
6.000000
 10
6.000000
 20
6.000000
  0
LWPOLYLINE
  8
L0_Copper
420
12088115
 90
4
 70
1
 10
10.000000
 20
5.000000
 10
13.000000
 20
5.000000
 10
13.000000
 20
6.000000
 10
10.000000
 20
6.000000
  0
LWPOLYLINE
  8
L0_Copper
420
12088115
 90
4
 70
1
 10
14.000000
 20
5.000000
 10
17.000000
 20
5.000000
 10
17.000000
 20
6.000000
 10
14.000000
 20
6.000000
  0
LWPOLYLINE
  8
L0_Copper
420
12088115
 90
4
 70
1
 10
18.000000
 20
5.000000
 10
21.000000
 20
5.000000
 10
21.000000
 20
6.000000
 10
18.000000
 20
6.000000
  0
LWPOLYLINE
  8
L0_Copper
420
12088115
 90
4
 70
1
 10
22.000000
 20
5.000000
 10
25.000000
 20
5.000000
 10
25.000000
 20
6.000000
 10
22.000000
 20
6.000000
  0
LWPOLYLINE
  8
L0_Copper
420
12088115
 90
4
 70
1
 10
26.000000
 20
5.000000
 10
29.000000
 20
5.000000
 10
29.000000
 20
6.000000
 10
26.000000
 20
6.000000
  0
LWPOLYLINE
  8
L0_Copper
420
12088115
 90
4
 70
1
 10
30.000000
 20
5.000000
 10
33.000000
 20
5.000000
 10
33.000000
 20
6.000000
 10
30.000000
 20
6.000000
  0
LWPOLYLINE
  8
L0_Copper
420
12088115
 90
4
 70
1
 10
34.000000
 20
5.000000
 10
37.000000
 20
5.000000
 10
37.000000
 20
6.000000
 10
34.000000
 20
6.000000
  0
LWPOLYLINE
  8
L0_Copper
420
12088115
 90
4
 70
1
 10
38.000000
 20
5.000000
 10
41.000000
 20
5.000000
 10
41.000000
 20
6.000000
 10
38.000000
 20
6.000000
  0
LWPOLYLINE
  8
L0_Copper
420
12088115
 90
4
 70
1
 10
1.000000
 20
1.000000
 10
48.000000
 20
1.000000
 10
48.000000
 20
12.000000
 10
1.000000
 20
12.000000
  0
LWPOLYLINE
  8
L0_Copper
420
12088115
 90
4
 70
1
 10
1.000000
 20
28.000000
 10
48.000000
 20
28.000000
 10
48.000000
 20
49.000000
 10
1.000000
 20
49.000000
  0
LWPOLYLINE
  8
L0_Copper
420
12088115
 90
4
 70
1
 10
2.000000
 20
14.000000
 10
10.000000
 20
14.000000
 10
10.000000
 20
15.000000
 10
2.000000
 20
15.000000
  0
LWPOLYLINE
  8
L0_Copper
420
12088115
 90
4
 70
1
 10
11.000000
 20
14.000000
 10
19.000000
 20
14.000000
 10
19.000000
 20
15.000000
 10
11.000000
 20
15.000000
  0
LWPOLYLINE
  8
L0_Copper
420
12088115
 90
4
 70
1
 10
20.000000
 20
14.000000
 10
28.000000
 20
14.000000
 10
28.000000
 20
15.000000
 10
20.000000
 20
15.000000
  0
LWPOLYLINE
  8
L0_Copper
420
12088115
 90
4
 70
1
 10
29.000000
 20
14.000000
 10
37.000000
 20
14.000000
 10
37.000000
 20
15.000000
 10
29.000000
 20
15.000000
  0
LWPOLYLINE
  8
L0_Copper
420
12088115
 90
4
 70
1
 10
38.000000
 20
14.000000
 10
46.000000
 20
14.000000
 10
46.000000
 20
15.000000
 10
38.000000
 20
15.000000
  0
LWPOLYLINE
  8
L0_Copper
420
12088115
 90
4
 70
1
 10
4.950000
 20
4.950000
 10
5.050000
 20
4.950000
 10
5.050000
 20
5.050000
 10
4.950000
 20
5.050000
  0
LWPOLYLINE
  8
L0_Copper
420
12088115
 90
4
 70
1
 10
9.950000
 20
4.950000
 10
10.050000
 20
4.950000
 10
10.050000
 20
5.050000
 10
9.950000
 20
5.050000
  0
LWPOLYLINE
  8
L0_Copper
420
12088115
 90
4
 70
1
 10
14.950000
 20
4.950000
 10
15.050000
 20
4.950000
 10
15.050000
 20
5.050000
 10
14.950000
 20
5.050000
  0
LWPOLYLINE
  8
L0_Copper
420
12088115
 90
4
 70
1
 10
19.950000
 20
4.950000
 10
20.050000
 20
4.950000
 10
20.050000
 20
5.050000
 10
19.950000
 20
5.050000
  0
LWPOLYLINE
  8
L0_Copper
420
12088115
 90
4
 70
1
 10
24.950000
 20
4.950000
 10
25.050000
 20
4.950000
 10
25.050000
 20
5.050000
 10
24.950000
 20
5.050000
  0
LWPOLYLINE
  8
L0_Copper
420
12088115
 90
4
 70
1
 10
29.950000
 20
4.950000
 10
30.050000
 20
4.950000
 10
30.050000
 20
5.050000
 10
29.950000
 20
5.050000
  0
LWPOLYLINE
  8
L0_Copper
420
12088115
 90
4
 70
1
 10
34.950000
 20
4.950000
 10
35.050000
 20
4.950000
 10
35.050000
 20
5.050000
 10
34.950000
 20
5.050000
  0
LWPOLYLINE
  8
L0_Copper
420
12088115
 90
4
 70
1
 10
39.950000
 20
4.950000
 10
40.050000
 20
4.950000
 10
40.050000
 20
5.050000
 10
39.950000
 20
5.050000
  0
LWPOLYLINE
  8
L0_Copper
420
12088115
 90
4
 70
1
 10
44.950000
 20
4.950000
 10
45.050000
 20
4.950000
 10
45.050000
 20
5.050000
 10
44.950000
 20
5.050000
  0
LWPOLYLINE
  8
L0_Copper
420
12088115
 90
4
 70
1
 10
4.950000
 20
9.950000
 10
5.050000
 20
9.950000
 10
5.050000
 20
10.050000
 10
4.950000
 20
10.050000
  0
LWPOLYLINE
  8
L0_Copper
420
12088115
 90
4
 70
1
 10
4.950000
 20
29.950000
 10
5.050000
 20
29.950000
 10
5.050000
 20
30.050000
 10
4.950000
 20
30.050000
  0
LWPOLYLINE
  8
L0_Copper
420
12088115
 90
4
 70
1
 10
9.950000
 20
29.950000
 10
10.050000
 20
29.950000
 10
10.050000
 20
30.050000
 10
9.950000
 20
30.050000
  0
LWPOLYLINE
  8
L0_Copper
420
12088115
 90
4
 70
1
 10
14.950000
 20
29.950000
 10
15.050000
 20
29.950000
 10
15.050000
 20
30.050000
 10
14.950000
 20
30.050000
  0
LWPOLYLINE
  8
L0_Copper
420
12088115
 90
4
 70
1
 10
19.950000
 20
29.950000
 10
20.050000
 20
29.950000
 10
20.050000
 20
30.050000
 10
19.950000
 20
30.050000
  0
LWPOLYLINE
  8
L0_Copper
420
12088115
 90
4
 70
1
 10
24.950000
 20
29.950000
 10
25.050000
 20
29.950000
 10
25.050000
 20
30.050000
 10
24.950000
 20
30.050000
  0
LWPOLYLINE
  8
L0_Copper
420
12088115
 90
4
 70
1
 10
29.950000
 20
29.950000
 10
30.050000
 20
29.950000
 10
30.050000
 20
30.050000
 10
29.950000
 20
30.050000
  0
LWPOLYLINE
  8
L0_Copper
420
12088115
 90
4
 70
1
 10
34.950000
 20
29.950000
 10
35.050000
 20
29.950000
 10
35.050000
 20
30.050000
 10
34.950000
 20
30.050000
  0
LWPOLYLINE
  8
L0_Copper
420
12088115
 90
4
 70
1
 10
39.950000
 20
29.950000
 10
40.050000
 20
29.950000
 10
40.050000
 20
30.050000
 10
39.950000
 20
30.050000
  0
LWPOLYLINE
  8
L0_Copper
420
12088115
 90
4
 70
1
 10
44.950000
 20
29.950000
 10
45.050000
 20
29.950000
 10
45.050000
 20
30.050000
 10
44.950000
 20
30.050000
  0
LWPOLYLINE
  8
L0_Copper
420
12088115
 90
4
 70
1
 10
4.950000
 20
34.950000
 10
5.050000
 20
34.950000
 10
5.050000
 20
35.050000
 10
4.950000
 20
35.050000
  0
LWPOLYLINE
  8
L0_Copper
420
12088115
 90
4
 70
1
 10
3.450000
 20
2.450000
 10
3.550000
 20
2.450000
 10
3.550000
 20
2.550000
 10
3.450000
 20
2.550000
  0
LWPOLYLINE
  8
L0_Copper
420
12088115
 90
4
 70
1
 10
7.450000
 20
2.450000
 10
7.550000
 20
2.450000
 10
7.550000
 20
2.550000
 10
7.450000
 20
2.550000
  0
LWPOLYLINE
  8
L0_Copper
420
12088115
 90
4
 70
1
 10
11.450000
 20
2.450000
 10
11.550000
 20
2.450000
 10
11.550000
 20
2.550000
 10
11.450000
 20
2.550000
  0
LWPOLYLINE
  8
L0_Copper
420
12088115
 90
4
 70
1
 10
15.450000
 20
2.450000
 10
15.550000
 20
2.450000
 10
15.550000
 20
2.550000
 10
15.450000
 20
2.550000
  0
LWPOLYLINE
  8
L0_Copper
420
12088115
 90
4
 70
1
 10
19.450000
 20
2.450000
 10
19.550000
 20
2.450000
 10
19.550000
 20
2.550000
 10
19.450000
 20
2.550000
  0
LWPOLYLINE
  8
L0_Copper
420
12088115
 90
4
 70
1
 10
23.450000
 20
2.450000
 10
23.550000
 20
2.450000
 10
23.550000
 20
2.550000
 10
23.450000
 20
2.550000
  0
LWPOLYLINE
  8
L0_Copper
420
12088115
 90
4
 70
1
 10
27.450000
 20
2.450000
 10
27.550000
 20
2.450000
 10
27.550000
 20
2.550000
 10
27.450000
 20
2.550000
  0
LWPOLYLINE
  8
L0_Copper
420
12088115
 90
4
 70
1
 10
31.450000
 20
2.450000
 10
31.550000
 20
2.450000
 10
31.550000
 20
2.550000
 10
31.450000
 20
2.550000
  0
LWPOLYLINE
  8
L0_Copper
420
12088115
 90
4
 70
1
 10
35.450000
 20
2.450000
 10
35.550000
 20
2.450000
 10
35.550000
 20
2.550000
 10
35.450000
 20
2.550000
  0
LWPOLYLINE
  8
L0_Copper
420
12088115
 90
4
 70
1
 10
39.450000
 20
2.450000
 10
39.550000
 20
2.450000
 10
39.550000
 20
2.550000
 10
39.450000
 20
2.550000
  0
ENDSEC
  0
EOF
