  0
SECTION
  2
HEADER
  9
$ACADVER
  1
AC1018
  0
ENDSEC
  0
SECTION
  2
TABLES
  0
TABLE
  2
LAYER
  0
LAYER
  2
DRILL
 70
0
 62
0
  0
LAYER
  2
TOP_COMPONENTS
 70
0
 62
7
  0
LAYER
  2
BOTTOM_COMPONENTS
 70
0
 62
7
  0
LAYER
  2
PCB_LAYERS
 70
0
 62
7
  0
ENDTAB
  0
ENDSEC
  0
SECTION
  2
ENTITIES
  0
LWPOLYLINE
  8
PCB_LAYERS
420
12088115
 90
12
 70
1
 10
10.300000
 20
14.600000
 10
9.700000
 20
14.600000
 10
9.700000
 20
14.000000
 10
9.950000
 20
14.000000
 10
9.950000
 20
11.000000
 10
9.000000
 20
11.000000
 10
9.000000
 20
9.000000
 10
11.000000
 20
9.000000
 10
11.000000
 20
11.000000
 10
10.050000
 20
11.000000
 10
10.050000
 20
14.000000
 10
10.300000
 20
14.000000
  0
LWPOLYLINE
  8
PCB_LAYERS
420
12088115
 90
8
 70
1
 10
15.300000
 20
10.300000
 10
14.700000
 20
10.300000
 10
14.700000
 20
10.050000
 10
11.000000
 20
10.050000
 10
11.000000
 20
9.950000
 10
14.700000
 20
9.950000
 10
14.700000
 20
9.700000
 10
15.300000
 20
9.700000
  0
LWPOLYLINE
  8
PCB_LAYERS
420
12088115
 90
8
 70
1
 10
5.300000
 20
9.950000
 10
9.000000
 20
9.950000
 10
9.000000
 20
10.050000
 10
5.300000
 20
10.050000
 10
5.300000
 20
10.300000
 10
4.700000
 20
10.300000
 10
4.700000
 20
9.700000
 10
5.300000
 20
9.700000
  0
LWPOLYLINE
  8
PCB_LAYERS
420
12088115
 90
8
 70
1
 10
10.050000
 20
9.000000
 10
9.950000
 20
9.000000
 10
9.950000
 20
5.000000
 10
9.700000
 20
5.000000
 10
9.700000
 20
4.400000
 10
10.300000
 20
4.400000
 10
10.300000
 20
5.000000
 10
10.050000
 20
5.000000
  0
ENDSEC
  0
EOF
