  0
SECTION
  2
HEADER
  9
$ACADVER
  1
AC1018
  0
ENDSEC
  0
SECTION
  2
TABLES
  0
TABLE
  2
LAYER
  0
LAYER
  2
L_Silicon_P
 70
0
 62
7
420
16758465
440
33554432
  0
LAYER
  2
L_Silicon_N
 70
0
 62
7
420
11393254
440
33554432
  0
ENDTAB
  0
ENDSEC
  0
SECTION
  2
ENTITIES
  0
LWPOLYLINE
  8
L1_Silicon_P
420
16758465
 90
4
 70
1
 10
0.001000
 20
0.001000
 10
99.999000
 20
0.001000
 10
99.999000
 20
49.999000
 10
0.001000
 20
49.999000
  0
LWPOLYLINE
  8
L1_Silicon_N
420
11393254
 90
4
 70
1
 10
0.010500
 20
0.020000
 10
0.012500
 20
0.020000
 10
0.012500
 20
0.030000
 10
0.010500
 20
0.030000
  0
LWPOLYLINE
  8
L1_Silicon_N
420
11393254
 90
4
 70
1
 10
0.010500
 20
0.020000
 10
0.012500
 20
0.020000
 10
0.012500
 20
0.030000
 10
0.010500
 20
0.030000
  0
LWPOLYLINE
  8
L1_Silicon_N
420
11393254
 90
4
 70
1
 10
0.014500
 20
0.020000
 10
0.016500
 20
0.020000
 10
0.016500
 20
0.030000
 10
0.014500
 20
0.030000
  0
LWPOLYLINE
  8
L1_Silicon_N
420
11393254
 90
4
 70
1
 10
0.014500
 20
0.020000
 10
0.016500
 20
0.020000
 10
0.016500
 20
0.030000
 10
0.014500
 20
0.030000
  0
LWPOLYLINE
  8
L1_Silicon_N
420
11393254
 90
4
 70
1
 10
0.018500
 20
0.020000
 10
0.020500
 20
0.020000
 10
0.020500
 20
0.030000
 10
0.018500
 20
0.030000
  0
LWPOLYLINE
  8
L1_Silicon_N
420
11393254
 90
4
 70
1
 10
0.018500
 20
0.020000
 10
0.020500
 20
0.020000
 10
0.020500
 20
0.030000
 10
0.018500
 20
0.030000
  0
LWPOLYLINE
  8
L1_Silicon_N
420
11393254
 90
4
 70
1
 10
0.022500
 20
0.020000
 10
0.024500
 20
0.020000
 10
0.024500
 20
0.030000
 10
0.022500
 20
0.030000
  0
LWPOLYLINE
  8
L1_Silicon_N
420
11393254
 90
4
 70
1
 10
0.022500
 20
0.020000
 10
0.024500
 20
0.020000
 10
0.024500
 20
0.030000
 10
0.022500
 20
0.030000
  0
LWPOLYLINE
  8
L1_Silicon_N
420
11393254
 90
4
 70
1
 10
0.026500
 20
0.020000
 10
0.028500
 20
0.020000
 10
0.028500
 20
0.030000
 10
0.026500
 20
0.030000
  0
LWPOLYLINE
  8
L1_Silicon_N
420
11393254
 90
4
 70
1
 10
0.026500
 20
0.020000
 10
0.028500
 20
0.020000
 10
0.028500
 20
0.030000
 10
0.026500
 20
0.030000
  0
LWPOLYLINE
  8
L1_Silicon_N
420
11393254
 90
4
 70
1
 10
0.050500
 20
0.010000
 10
0.052500
 20
0.010000
 10
0.052500
 20
0.020000
 10
0.050500
 20
0.020000
  0
LWPOLYLINE
  8
L1_Silicon_N
420
11393254
 90
4
 70
1
 10
0.050500
 20
0.010000
 10
0.052500
 20
0.010000
 10
0.052500
 20
0.020000
 10
0.050500
 20
0.020000
  0
LWPOLYLINE
  8
L1_Silicon_N
420
11393254
 90
4
 70
1
 10
0.050500
 20
0.022000
 10
0.052500
 20
0.022000
 10
0.052500
 20
0.032000
 10
0.050500
 20
0.032000
  0
LWPOLYLINE
  8
L1_Silicon_N
420
11393254
 90
4
 70
1
 10
0.050500
 20
0.022000
 10
0.052500
 20
0.022000
 10
0.052500
 20
0.032000
 10
0.050500
 20
0.032000
  0
LWPOLYLINE
  8
L1_Silicon_N
420
11393254
 90
4
 70
1
 10
0.050500
 20
0.034000
 10
0.052500
 20
0.034000
 10
0.052500
 20
0.044000
 10
0.050500
 20
0.044000
  0
LWPOLYLINE
  8
L1_Silicon_N
420
11393254
 90
4
 70
1
 10
0.050500
 20
0.034000
 10
0.052500
 20
0.034000
 10
0.052500
 20
0.044000
 10
0.050500
 20
0.044000
  0
LWPOLYLINE
  8
L2_Components
420
12088115
 90
4
 70
1
 10
0.010000
 20
0.030000
 10
0.013000
 20
0.030000
 10
0.013000
 20
0.040000
 10
0.010000
 20
0.040000
  0
LWPOLYLINE
  8
L2_Components
420
12088115
 90
4
 70
1
 10
0.014000
 20
0.030000
 10
0.017000
 20
0.030000
 10
0.017000
 20
0.040000
 10
0.014000
 20
0.040000
  0
LWPOLYLINE
  8
L2_Components
420
12088115
 90
4
 70
1
 10
0.018000
 20
0.030000
 10
0.021000
 20
0.030000
 10
0.021000
 20
0.040000
 10
0.018000
 20
0.040000
  0
LWPOLYLINE
  8
L2_Components
420
12088115
 90
4
 70
1
 10
0.022000
 20
0.030000
 10
0.025000
 20
0.030000
 10
0.025000
 20
0.040000
 10
0.022000
 20
0.040000
  0
LWPOLYLINE
  8
L2_Components
420
12088115
 90
4
 70
1
 10
0.026000
 20
0.030000
 10
0.029000
 20
0.030000
 10
0.029000
 20
0.040000
 10
0.026000
 20
0.040000
  0
LWPOLYLINE
  8
L2_Components
420
12088115
 90
4
 70
1
 10
0.050000
 20
0.040000
 10
0.053000
 20
0.040000
 10
0.053000
 20
0.050000
 10
0.050000
 20
0.050000
  0
LWPOLYLINE
  8
L2_Components
420
12088115
 90
4
 70
1
 10
0.050000
 20
0.028000
 10
0.053000
 20
0.028000
 10
0.053000
 20
0.038000
 10
0.050000
 20
0.038000
  0
LWPOLYLINE
  8
L2_Components
420
12088115
 90
4
 70
1
 10
0.050000
 20
0.016000
 10
0.053000
 20
0.016000
 10
0.053000
 20
0.026000
 10
0.050000
 20
0.026000
  0
ENDSEC
  0
EOF
