  0
SECTION
  2
HEADER
  9
$ACADVER
  1
AC1018
  0
ENDSEC
  0
SECTION
  2
TABLES
  0
TABLE
  2
LAYER
  0
LAYER
  2
Silicon_Dioxide
 70
0
 62
7
  0
LAYER
  2
Polysilicon
 70
0
 62
7
  0
LAYER
  2
Titanium_Silicide
 70
0
 62
7
  0
LAYER
  2
Tungsten
 70
0
 62
7
  0
LAYER
  2
Aluminum
 70
0
 62
7
  0
LAYER
  2
P_Plus_Diffusion
 70
0
 62
7
  0
ENDTAB
  0
ENDSEC
  0
SECTION
  2
ENTITIES
  0
LWPOLYLINE
  8
P_Plus_Diffusion
420
8454016
 90
4
 70
1
 10
0.010200
 20
0.011200
 10
0.009800
 20
0.011200
 10
0.009800
 20
0.010800
 10
0.010200
 20
0.010800
  0
LWPOLYLINE
  8
Tungsten
420
8421631
 90
4
 70
1
 10
0.010085
 20
0.011085
 10
0.009915
 20
0.011085
 10
0.009915
 20
0.010915
 10
0.010085
 20
0.010915
  0
LWPOLYLINE
  8
Tungsten
420
8421631
 90
4
 70
1
 10
0.010085
 20
0.011085
 10
0.009915
 20
0.011085
 10
0.009915
 20
0.010915
 10
0.010085
 20
0.010915
  0
LWPOLYLINE
  8
Polysilicon
420
16736352
 90
28
 70
1
 10
0.015000
 20
0.014500
 10
0.005000
 20
0.014500
 10
0.005000
 20
0.013500
 10
0.005000
 20
0.011500
 10
0.005000
 20
0.010500
 10
0.014000
 20
0.010500
 10
0.014000
 20
0.008500
 10
0.005000
 20
0.008500
 10
0.005000
 20
0.007500
 10
0.005000
 20
0.005500
 10
0.005000
 20
0.004500
 10
0.014000
 20
0.004500
 10
0.014000
 20
0.002500
 10
0.005000
 20
0.002500
 10
0.005000
 20
0.001500
 10
0.015000
 20
0.001500
 10
0.015000
 20
0.002500
 10
0.015000
 20
0.004500
 10
0.015000
 20
0.005500
 10
0.006000
 20
0.005500
 10
0.006000
 20
0.007500
 10
0.015000
 20
0.007500
 10
0.015000
 20
0.008500
 10
0.015000
 20
0.010500
 10
0.015000
 20
0.011500
 10
0.006000
 20
0.011500
 10
0.006000
 20
0.013500
 10
0.015000
 20
0.013500
  0
LWPOLYLINE
  8
Tungsten
420
8421631
 90
4
 70
1
 10
0.005285
 20
0.002085
 10
0.005115
 20
0.002085
 10
0.005115
 20
0.001915
 10
0.005285
 20
0.001915
  0
LWPOLYLINE
  8
Tungsten
420
8421631
 90
4
 70
1
 10
0.014885
 20
0.014085
 10
0.014715
 20
0.014085
 10
0.014715
 20
0.013915
 10
0.014885
 20
0.013915
  0
LWPOLYLINE
  8
Tungsten
420
8421631
 90
4
 70
1
 10
0.005285
 20
0.002085
 10
0.005115
 20
0.002085
 10
0.005115
 20
0.001915
 10
0.005285
 20
0.001915
  0
LWPOLYLINE
  8
Tungsten
420
8421631
 90
4
 70
1
 10
0.014885
 20
0.014085
 10
0.014715
 20
0.014085
 10
0.014715
 20
0.013915
 10
0.014885
 20
0.013915
  0
LWPOLYLINE
  8
Tungsten
420
8421631
 90
4
 70
1
 10
0.010085
 20
0.011085
 10
0.009915
 20
0.011085
 10
0.009915
 20
0.010915
 10
0.010085
 20
0.010915
  0
LWPOLYLINE
  8
Tungsten
420
8421631
 90
4
 70
1
 10
0.005285
 20
0.002085
 10
0.005115
 20
0.002085
 10
0.005115
 20
0.001915
 10
0.005285
 20
0.001915
  0
LWPOLYLINE
  8
Tungsten
420
8421631
 90
4
 70
1
 10
0.014885
 20
0.014085
 10
0.014715
 20
0.014085
 10
0.014715
 20
0.013915
 10
0.014885
 20
0.013915
  0
LWPOLYLINE
  8
Tungsten
420
8421631
 90
4
 70
1
 10
0.010085
 20
0.011085
 10
0.009915
 20
0.011085
 10
0.009915
 20
0.010915
 10
0.010085
 20
0.010915
  0
LWPOLYLINE
  8
Titanium_Silicide
420
4210752
 90
4
 70
1
 10
0.005400
 20
0.002200
 10
0.005000
 20
0.002200
 10
0.005000
 20
0.001800
 10
0.005400
 20
0.001800
  0
LWPOLYLINE
  8
Titanium_Silicide
420
4210752
 90
4
 70
1
 10
0.015000
 20
0.014200
 10
0.014600
 20
0.014200
 10
0.014600
 20
0.013800
 10
0.015000
 20
0.013800
  0
LWPOLYLINE
  8
Titanium_Silicide
420
4210752
 90
4
 70
1
 10
0.010200
 20
0.011200
 10
0.009800
 20
0.011200
 10
0.009800
 20
0.010800
 10
0.010200
 20
0.010800
  0
LWPOLYLINE
  8
Tungsten
420
8421631
 90
4
 70
1
 10
0.005285
 20
0.002085
 10
0.005115
 20
0.002085
 10
0.005115
 20
0.001915
 10
0.005285
 20
0.001915
  0
LWPOLYLINE
  8
Tungsten
420
8421631
 90
4
 70
1
 10
0.014885
 20
0.014085
 10
0.014715
 20
0.014085
 10
0.014715
 20
0.013915
 10
0.014885
 20
0.013915
  0
LWPOLYLINE
  8
Tungsten
420
8421631
 90
4
 70
1
 10
0.005285
 20
0.002085
 10
0.005115
 20
0.002085
 10
0.005115
 20
0.001915
 10
0.005285
 20
0.001915
  0
LWPOLYLINE
  8
Tungsten
420
8421631
 90
4
 70
1
 10
0.014885
 20
0.014085
 10
0.014715
 20
0.014085
 10
0.014715
 20
0.013915
 10
0.014885
 20
0.013915
  0
LWPOLYLINE
  8
Tungsten
420
8421631
 90
4
 70
1
 10
0.005285
 20
0.002085
 10
0.005115
 20
0.002085
 10
0.005115
 20
0.001915
 10
0.005285
 20
0.001915
  0
LWPOLYLINE
  8
Tungsten
420
8421631
 90
4
 70
1
 10
0.014885
 20
0.014085
 10
0.014715
 20
0.014085
 10
0.014715
 20
0.013915
 10
0.014885
 20
0.013915
  0
LWPOLYLINE
  8
Aluminum
420
12632256
 90
12
 70
1
 10
0.002500
 20
0.001850
 10
0.005000
 20
0.001850
 10
0.005000
 20
0.001800
 10
0.005400
 20
0.001800
 10
0.005400
 20
0.002200
 10
0.005000
 20
0.002200
 10
0.005000
 20
0.002150
 10
0.002500
 20
0.002150
 10
0.002500
 20
0.002500
 10
0.001500
 20
0.002500
 10
0.001500
 20
0.001500
 10
0.002500
 20
0.001500
  0
LWPOLYLINE
  8
Aluminum
420
12632256
 90
12
 70
1
 10
0.018500
 20
0.014500
 10
0.017500
 20
0.014500
 10
0.017500
 20
0.014150
 10
0.015000
 20
0.014150
 10
0.015000
 20
0.014200
 10
0.014600
 20
0.014200
 10
0.014600
 20
0.013800
 10
0.015000
 20
0.013800
 10
0.015000
 20
0.013850
 10
0.017500
 20
0.013850
 10
0.017500
 20
0.013500
 10
0.018500
 20
0.013500
  0
LWPOLYLINE
  8
Silicon_Dioxide
420
14739711
 90
4
 70
1
 10
0.000000
 20
0.000000
 10
0.020000
 20
0.000000
 10
0.020000
 20
0.020000
 10
0.000000
 20
0.020000
  0
LWPOLYLINE
  8
Silicon_Dioxide
420
14739711
 90
4
 70
1
 10
0.000000
 20
0.000000
 10
0.020000
 20
0.000000
 10
0.020000
 20
0.020000
 10
0.000000
 20
0.020000
  0
ENDSEC
  0
EOF
