  0
SECTION
  2
HEADER
  9
$ACADVER
  1
AC1018
  0
ENDSEC
  0
SECTION
  2
TABLES
  0
TABLE
  2
LAYER
  0
LAYER
  2
Aluminum
 70
0
 62
7
  0
ENDTAB
  0
ENDSEC
  0
SECTION
  2
ENTITIES
  0
LWPOLYLINE
  8
Aluminum
420
12632256
 90
12
 70
1
 10
0.775000
 20
0.238787
 10
0.775000
 20
0.448786
 10
0.811214
 20
0.485000
 10
0.825000
 20
0.485000
 10
0.825000
 20
0.515000
 10
0.798787
 20
0.515000
 10
0.745000
 20
0.461213
 10
0.745000
 20
0.251214
 10
0.708786
 20
0.215000
 10
0.275000
 20
0.215000
 10
0.275000
 20
0.185000
 10
0.721213
 20
0.185000
  0
LWPOLYLINE
  8
Aluminum
420
12632256
 90
12
 70
1
 10
0.362500
 20
0.412322
 10
0.400178
 20
0.450000
 10
0.599822
 20
0.450000
 10
0.637500
 20
0.412322
 10
0.637500
 20
0.400000
 10
0.662500
 20
0.400000
 10
0.662500
 20
0.422678
 10
0.610178
 20
0.475000
 10
0.389822
 20
0.475000
 10
0.337500
 20
0.422678
 10
0.337500
 20
0.400000
 10
0.362500
 20
0.400000
  0
LWPOLYLINE
  8
Aluminum
420
12632256
 90
4
 70
1
 10
0.125000
 20
0.125000
 10
0.275000
 20
0.125000
 10
0.275000
 20
0.275000
 10
0.125000
 20
0.275000
  0
LWPOLYLINE
  8
Aluminum
420
12632256
 90
4
 70
1
 10
0.825000
 20
0.425000
 10
0.975000
 20
0.425000
 10
0.975000
 20
0.575000
 10
0.825000
 20
0.575000
  0
LWPOLYLINE
  8
Aluminum
420
12632256
 90
4
 70
1
 10
0.300000
 20
0.300000
 10
0.400000
 20
0.300000
 10
0.400000
 20
0.400000
 10
0.300000
 20
0.400000
  0
LWPOLYLINE
  8
Aluminum
420
12632256
 90
4
 70
1
 10
0.600000
 20
0.300000
 10
0.700000
 20
0.300000
 10
0.700000
 20
0.400000
 10
0.600000
 20
0.400000
  0
LWPOLYLINE
  8
Aluminum
420
12632256
 90
4
 70
1
 10
0.460000
 20
0.300000
 10
0.580000
 20
0.300000
 10
0.580000
 20
0.380000
 10
0.460000
 20
0.380000
  0
ENDSEC
  0
EOF
