  0
SECTION
  2
HEADER
  9
$ACADVER
  1
AC1018
  0
ENDSEC
  0
SECTION
  2
TABLES
  0
TABLE
  2
LAYER
  0
LAYER
  2
DRILL
 70
0
 62
0
  0
LAYER
  2
TOP_COMPONENTS
 70
0
 62
7
  0
LAYER
  2
BOTTOM_COMPONENTS
 70
0
 62
7
  0
LAYER
  2
PCB_LAYERS
 70
0
 62
7
  0
ENDTAB
  0
ENDSEC
  0
SECTION
  2
ENTITIES
  0
LWPOLYLINE
  8
PCB_LAYERS
420
12088115
 90
13
 70
1
 10
8.500000
 20
3.250000
 10
7.500000
 20
3.250000
 10
7.500000
 20
3.100000
 10
2.335329
 20
3.100000
 10
2.343274
 20
3.068281
 10
2.348314
 20
3.034305
 10
2.350000
 20
3.000000
 10
2.348314
 20
2.965695
 10
2.343274
 20
2.931719
 10
2.335329
 20
2.900000
 10
7.500000
 20
2.900000
 10
7.500000
 20
2.750000
 10
8.500000
 20
2.750000
  0
LWPOLYLINE
  8
PCB_LAYERS
420
12088115
 90
64
 70
1
 10
2.034305
 20
2.651686
 10
2.068281
 20
2.656726
 10
2.101599
 20
2.665071
 10
2.133939
 20
2.676643
 10
2.164988
 20
2.691328
 10
2.194449
 20
2.708986
 10
2.222037
 20
2.729447
 10
2.247487
 20
2.752513
 10
2.270553
 20
2.777963
 10
2.291014
 20
2.805551
 10
2.308672
 20
2.835012
 10
2.323357
 20
2.866061
 10
2.334929
 20
2.898401
 10
2.343274
 20
2.931719
 10
2.348314
 20
2.965695
 10
2.350000
 20
3.000000
 10
2.348314
 20
3.034305
 10
2.343274
 20
3.068281
 10
2.334929
 20
3.101599
 10
2.323357
 20
3.133939
 10
2.308672
 20
3.164988
 10
2.291014
 20
3.194449
 10
2.270553
 20
3.222037
 10
2.247487
 20
3.247487
 10
2.222037
 20
3.270553
 10
2.194449
 20
3.291014
 10
2.164988
 20
3.308672
 10
2.133939
 20
3.323357
 10
2.101599
 20
3.334929
 10
2.068281
 20
3.343274
 10
2.034305
 20
3.348314
 10
2.000000
 20
3.350000
 10
1.965695
 20
3.348314
 10
1.931719
 20
3.343274
 10
1.898401
 20
3.334929
 10
1.866061
 20
3.323357
 10
1.835012
 20
3.308672
 10
1.805551
 20
3.291014
 10
1.777963
 20
3.270553
 10
1.752513
 20
3.247487
 10
1.729447
 20
3.222037
 10
1.708986
 20
3.194449
 10
1.691328
 20
3.164988
 10
1.676643
 20
3.133939
 10
1.665071
 20
3.101599
 10
1.656726
 20
3.068281
 10
1.651686
 20
3.034305
 10
1.650000
 20
3.000000
 10
1.651686
 20
2.965695
 10
1.656726
 20
2.931719
 10
1.665071
 20
2.898401
 10
1.676643
 20
2.866061
 10
1.691328
 20
2.835012
 10
1.708986
 20
2.805551
 10
1.729447
 20
2.777963
 10
1.752513
 20
2.752513
 10
1.777963
 20
2.729447
 10
1.805551
 20
2.708986
 10
1.835012
 20
2.691328
 10
1.866061
 20
2.676643
 10
1.898401
 20
2.665071
 10
1.931719
 20
2.656726
 10
1.965695
 20
2.651686
 10
2.000000
 20
2.650000
  0
LWPOLYLINE
  8
PCB_LAYERS
420
12088115
 90
64
 70
1
 10
1.987748
 20
2.875602
 10
1.975614
 20
2.877402
 10
1.963715
 20
2.880383
 10
1.952165
 20
2.884516
 10
1.941076
 20
2.889760
 10
1.930554
 20
2.896067
 10
1.920701
 20
2.903374
 10
1.911612
 20
2.911612
 10
1.903374
 20
2.920701
 10
1.896067
 20
2.930554
 10
1.889760
 20
2.941076
 10
1.884516
 20
2.952165
 10
1.880383
 20
2.963715
 10
1.877402
 20
2.975614
 10
1.875602
 20
2.987748
 10
1.875000
 20
3.000000
 10
1.875602
 20
3.012252
 10
1.877402
 20
3.024386
 10
1.880383
 20
3.036285
 10
1.884516
 20
3.047835
 10
1.889760
 20
3.058924
 10
1.896067
 20
3.069446
 10
1.903374
 20
3.079299
 10
1.911612
 20
3.088388
 10
1.920701
 20
3.096626
 10
1.930554
 20
3.103933
 10
1.941076
 20
3.110240
 10
1.952165
 20
3.115484
 10
1.963715
 20
3.119617
 10
1.975614
 20
3.122598
 10
1.987748
 20
3.124398
 10
2.000000
 20
3.125000
 10
2.012252
 20
3.124398
 10
2.024386
 20
3.122598
 10
2.036285
 20
3.119617
 10
2.047835
 20
3.115484
 10
2.058924
 20
3.110240
 10
2.069446
 20
3.103933
 10
2.079299
 20
3.096626
 10
2.088388
 20
3.088388
 10
2.096626
 20
3.079299
 10
2.103933
 20
3.069446
 10
2.110240
 20
3.058924
 10
2.115484
 20
3.047835
 10
2.119617
 20
3.036285
 10
2.122598
 20
3.024386
 10
2.124398
 20
3.012252
 10
2.125000
 20
3.000000
 10
2.124398
 20
2.987748
 10
2.122598
 20
2.975614
 10
2.119617
 20
2.963715
 10
2.115484
 20
2.952165
 10
2.110240
 20
2.941076
 10
2.103933
 20
2.930554
 10
2.096626
 20
2.920701
 10
2.088388
 20
2.911612
 10
2.079299
 20
2.903374
 10
2.069446
 20
2.896067
 10
2.058924
 20
2.889760
 10
2.047835
 20
2.884516
 10
2.036285
 20
2.880383
 10
2.024386
 20
2.877402
 10
2.012252
 20
2.875602
 10
2.000000
 20
2.875000
  0
LWPOLYLINE
  8
PCB_LAYERS
420
12088115
 90
64
 70
1
 10
2.034305
 20
2.651686
 10
2.068281
 20
2.656726
 10
2.101599
 20
2.665071
 10
2.133939
 20
2.676643
 10
2.164988
 20
2.691328
 10
2.194449
 20
2.708986
 10
2.222037
 20
2.729447
 10
2.247487
 20
2.752513
 10
2.270553
 20
2.777963
 10
2.291014
 20
2.805551
 10
2.308672
 20
2.835012
 10
2.323357
 20
2.866061
 10
2.334929
 20
2.898401
 10
2.343274
 20
2.931719
 10
2.348314
 20
2.965695
 10
2.350000
 20
3.000000
 10
2.348314
 20
3.034305
 10
2.343274
 20
3.068281
 10
2.334929
 20
3.101599
 10
2.323357
 20
3.133939
 10
2.308672
 20
3.164988
 10
2.291014
 20
3.194449
 10
2.270553
 20
3.222037
 10
2.247487
 20
3.247487
 10
2.222037
 20
3.270553
 10
2.194449
 20
3.291014
 10
2.164988
 20
3.308672
 10
2.133939
 20
3.323357
 10
2.101599
 20
3.334929
 10
2.068281
 20
3.343274
 10
2.034305
 20
3.348314
 10
2.000000
 20
3.350000
 10
1.965695
 20
3.348314
 10
1.931719
 20
3.343274
 10
1.898401
 20
3.334929
 10
1.866061
 20
3.323357
 10
1.835012
 20
3.308672
 10
1.805551
 20
3.291014
 10
1.777963
 20
3.270553
 10
1.752513
 20
3.247487
 10
1.729447
 20
3.222037
 10
1.708986
 20
3.194449
 10
1.691328
 20
3.164988
 10
1.676643
 20
3.133939
 10
1.665071
 20
3.101599
 10
1.656726
 20
3.068281
 10
1.651686
 20
3.034305
 10
1.650000
 20
3.000000
 10
1.651686
 20
2.965695
 10
1.656726
 20
2.931719
 10
1.665071
 20
2.898401
 10
1.676643
 20
2.866061
 10
1.691328
 20
2.835012
 10
1.708986
 20
2.805551
 10
1.729447
 20
2.777963
 10
1.752513
 20
2.752513
 10
1.777963
 20
2.729447
 10
1.805551
 20
2.708986
 10
1.835012
 20
2.691328
 10
1.866061
 20
2.676643
 10
1.898401
 20
2.665071
 10
1.931719
 20
2.656726
 10
1.965695
 20
2.651686
 10
2.000000
 20
2.650000
  0
LWPOLYLINE
  8
PCB_LAYERS
420
12088115
 90
64
 70
1
 10
1.987748
 20
2.875602
 10
1.975614
 20
2.877402
 10
1.963715
 20
2.880383
 10
1.952165
 20
2.884516
 10
1.941076
 20
2.889760
 10
1.930554
 20
2.896067
 10
1.920701
 20
2.903374
 10
1.911612
 20
2.911612
 10
1.903374
 20
2.920701
 10
1.896067
 20
2.930554
 10
1.889760
 20
2.941076
 10
1.884516
 20
2.952165
 10
1.880383
 20
2.963715
 10
1.877402
 20
2.975614
 10
1.875602
 20
2.987748
 10
1.875000
 20
3.000000
 10
1.875602
 20
3.012252
 10
1.877402
 20
3.024386
 10
1.880383
 20
3.036285
 10
1.884516
 20
3.047835
 10
1.889760
 20
3.058924
 10
1.896067
 20
3.069446
 10
1.903374
 20
3.079299
 10
1.911612
 20
3.088388
 10
1.920701
 20
3.096626
 10
1.930554
 20
3.103933
 10
1.941076
 20
3.110240
 10
1.952165
 20
3.115484
 10
1.963715
 20
3.119617
 10
1.975614
 20
3.122598
 10
1.987748
 20
3.124398
 10
2.000000
 20
3.125000
 10
2.012252
 20
3.124398
 10
2.024386
 20
3.122598
 10
2.036285
 20
3.119617
 10
2.047835
 20
3.115484
 10
2.058924
 20
3.110240
 10
2.069446
 20
3.103933
 10
2.079299
 20
3.096626
 10
2.088388
 20
3.088388
 10
2.096626
 20
3.079299
 10
2.103933
 20
3.069446
 10
2.110240
 20
3.058924
 10
2.115484
 20
3.047835
 10
2.119617
 20
3.036285
 10
2.122598
 20
3.024386
 10
2.124398
 20
3.012252
 10
2.125000
 20
3.000000
 10
2.124398
 20
2.987748
 10
2.122598
 20
2.975614
 10
2.119617
 20
2.963715
 10
2.115484
 20
2.952165
 10
2.110240
 20
2.941076
 10
2.103933
 20
2.930554
 10
2.096626
 20
2.920701
 10
2.088388
 20
2.911612
 10
2.079299
 20
2.903374
 10
2.069446
 20
2.896067
 10
2.058924
 20
2.889760
 10
2.047835
 20
2.884516
 10
2.036285
 20
2.880383
 10
2.024386
 20
2.877402
 10
2.012252
 20
2.875602
 10
2.000000
 20
2.875000
  0
ENDSEC
  0
EOF
