  0
SECTION
  2
HEADER
  9
$ACADVER
  1
AC1018
  0
ENDSEC
  0
SECTION
  2
TABLES
  0
TABLE
  2
LAYER
  0
LAYER
  2
L_Silicon_P
 70
0
 62
7
420
16758465
440
33554432
  0
ENDTAB
  0
ENDSEC
  0
SECTION
  2
ENTITIES
  0
LWPOLYLINE
  8
L1_Silicon_P
420
16758465
 90
4
 70
1
 10
0.001000
 20
0.001000
 10
99.999000
 20
0.001000
 10
99.999000
 20
19.999000
 10
0.001000
 20
19.999000
  0
LWPOLYLINE
  8
L1_Components
420
12088115
 90
4
 70
1
 10
0.000000
 20
15.000000
 10
8.000000
 20
15.000000
 10
8.000000
 20
19.000000
 10
0.000000
 20
19.000000
  0
LWPOLYLINE
  8
L1_Components
420
12088115
 90
4
 70
1
 10
10.000000
 20
15.000000
 10
18.000000
 20
15.000000
 10
18.000000
 20
19.000000
 10
10.000000
 20
19.000000
  0
LWPOLYLINE
  8
L1_Components
420
12088115
 90
4
 70
1
 10
20.000000
 20
15.000000
 10
28.000000
 20
15.000000
 10
28.000000
 20
19.000000
 10
20.000000
 20
19.000000
  0
LWPOLYLINE
  8
L1_Components
420
12088115
 90
4
 70
1
 10
30.000000
 20
15.000000
 10
38.000000
 20
15.000000
 10
38.000000
 20
19.000000
 10
30.000000
 20
19.000000
  0
LWPOLYLINE
  8
L1_Components
420
12088115
 90
4
 70
1
 10
40.000000
 20
15.000000
 10
48.000000
 20
15.000000
 10
48.000000
 20
19.000000
 10
40.000000
 20
19.000000
  0
LWPOLYLINE
  8
L1_Components
420
12088115
 90
4
 70
1
 10
50.000000
 20
15.000000
 10
58.000000
 20
15.000000
 10
58.000000
 20
19.000000
 10
50.000000
 20
19.000000
  0
LWPOLYLINE
  8
L1_Components
420
12088115
 90
4
 70
1
 10
60.000000
 20
15.000000
 10
68.000000
 20
15.000000
 10
68.000000
 20
19.000000
 10
60.000000
 20
19.000000
  0
LWPOLYLINE
  8
L1_Components
420
12088115
 90
4
 70
1
 10
70.000000
 20
15.000000
 10
78.000000
 20
15.000000
 10
78.000000
 20
19.000000
 10
70.000000
 20
19.000000
  0
ENDSEC
  0
EOF
