  0
SECTION
  2
HEADER
  9
$ACADVER
  1
AC1018
  0
ENDSEC
  0
SECTION
  2
TABLES
  0
TABLE
  2
LAYER
  0
LAYER
  2
L_Copper
 70
0
 62
7
420
12088115
440
33554432
  0
LAYER
  2
L_Generic_Barrier
 70
0
 62
7
420
8421504
440
33554432
  0
ENDTAB
  0
ENDSEC
  0
SECTION
  2
ENTITIES
  0
LWPOLYLINE
  8
L1_Copper
420
12088115
 90
4
 70
1
 10
10.000000
 20
20.000000
 10
30.000000
 20
20.000000
 10
30.000000
 20
80.000000
 10
10.000000
 20
80.000000
  0
LWPOLYLINE
  8
L1_Copper
420
12088115
 90
4
 70
1
 10
70.000000
 20
20.000000
 10
90.000000
 20
20.000000
 10
90.000000
 20
80.000000
 10
70.000000
 20
80.000000
  0
LWPOLYLINE
  8
L5_Copper
420
12088115
 90
4
 70
1
 10
20.000000
 20
40.000000
 10
80.000000
 20
40.000000
 10
80.000000
 20
60.000000
 10
20.000000
 20
60.000000
  0
LWPOLYLINE
  8
L3_Copper
420
12088115
 90
4
 70
1
 10
20.000000
 20
45.000000
 10
30.000000
 20
45.000000
 10
30.000000
 20
55.000000
 10
20.000000
 20
55.000000
  0
LWPOLYLINE
  8
L3_Copper
420
12088115
 90
4
 70
1
 10
70.000000
 20
45.000000
 10
80.000000
 20
45.000000
 10
80.000000
 20
55.000000
 10
70.000000
 20
55.000000
  0
LWPOLYLINE
  8
L1_Generic_Barrier
420
8421504
 90
4
 70
1
 10
24.850000
 20
49.850000
 10
25.150000
 20
49.850000
 10
25.150000
 20
50.150000
 10
24.850000
 20
50.150000
  0
LWPOLYLINE
  8
L2_Copper
420
12088115
 90
4
 70
1
 10
24.850000
 20
49.850000
 10
25.150000
 20
49.850000
 10
25.150000
 20
50.150000
 10
24.850000
 20
50.150000
  0
LWPOLYLINE
  8
L2_Generic_Barrier
420
8421504
 90
4
 70
1
 10
24.850000
 20
49.850000
 10
25.150000
 20
49.850000
 10
25.150000
 20
50.150000
 10
24.850000
 20
50.150000
  0
LWPOLYLINE
  8
L3_Copper
420
12088115
 90
4
 70
1
 10
24.850000
 20
49.850000
 10
25.150000
 20
49.850000
 10
25.150000
 20
50.150000
 10
24.850000
 20
50.150000
  0
LWPOLYLINE
  8
L3_Generic_Barrier
420
8421504
 90
4
 70
1
 10
24.850000
 20
49.850000
 10
25.150000
 20
49.850000
 10
25.150000
 20
50.150000
 10
24.850000
 20
50.150000
  0
LWPOLYLINE
  8
L4_Copper
420
12088115
 90
4
 70
1
 10
24.850000
 20
49.850000
 10
25.150000
 20
49.850000
 10
25.150000
 20
50.150000
 10
24.850000
 20
50.150000
  0
LWPOLYLINE
  8
L4_Generic_Barrier
420
8421504
 90
4
 70
1
 10
24.850000
 20
49.850000
 10
25.150000
 20
49.850000
 10
25.150000
 20
50.150000
 10
24.850000
 20
50.150000
  0
LWPOLYLINE
  8
L5_Copper
420
12088115
 90
4
 70
1
 10
24.850000
 20
49.850000
 10
25.150000
 20
49.850000
 10
25.150000
 20
50.150000
 10
24.850000
 20
50.150000
  0
LWPOLYLINE
  8
L1_Generic_Barrier
420
8421504
 90
4
 70
1
 10
74.850000
 20
49.850000
 10
75.150000
 20
49.850000
 10
75.150000
 20
50.150000
 10
74.850000
 20
50.150000
  0
LWPOLYLINE
  8
L2_Copper
420
12088115
 90
4
 70
1
 10
74.850000
 20
49.850000
 10
75.150000
 20
49.850000
 10
75.150000
 20
50.150000
 10
74.850000
 20
50.150000
  0
LWPOLYLINE
  8
L2_Generic_Barrier
420
8421504
 90
4
 70
1
 10
74.850000
 20
49.850000
 10
75.150000
 20
49.850000
 10
75.150000
 20
50.150000
 10
74.850000
 20
50.150000
  0
LWPOLYLINE
  8
L3_Copper
420
12088115
 90
4
 70
1
 10
74.850000
 20
49.850000
 10
75.150000
 20
49.850000
 10
75.150000
 20
50.150000
 10
74.850000
 20
50.150000
  0
LWPOLYLINE
  8
L3_Generic_Barrier
420
8421504
 90
4
 70
1
 10
74.850000
 20
49.850000
 10
75.150000
 20
49.850000
 10
75.150000
 20
50.150000
 10
74.850000
 20
50.150000
  0
LWPOLYLINE
  8
L4_Copper
420
12088115
 90
4
 70
1
 10
74.850000
 20
49.850000
 10
75.150000
 20
49.850000
 10
75.150000
 20
50.150000
 10
74.850000
 20
50.150000
  0
LWPOLYLINE
  8
L4_Generic_Barrier
420
8421504
 90
4
 70
1
 10
74.850000
 20
49.850000
 10
75.150000
 20
49.850000
 10
75.150000
 20
50.150000
 10
74.850000
 20
50.150000
  0
LWPOLYLINE
  8
L5_Copper
420
12088115
 90
4
 70
1
 10
74.850000
 20
49.850000
 10
75.150000
 20
49.850000
 10
75.150000
 20
50.150000
 10
74.850000
 20
50.150000
  0
ENDSEC
  0
EOF
