M48
; DRILL file {MultiConnectedPCB} date 2026-06-01
; v0.1.7 physical Z (mm) recorded per tool pass where applicable
; FORMAT={-:-/ absolute / inch / decimal}
FMAT,2
INCH
T1C0.0236
T2C0.0118
%
T1
X0.0295Y0.1407
X0.0630Y0.1407
X0.0965Y0.1407
X0.1299Y0.1407
X0.1634Y0.1407
X0.1969Y0.1407
X0.2303Y0.1407
X0.2638Y0.1407
X0.2972Y0.1407
X0.3307Y0.1407
X0.3642Y0.1407
X0.0295Y0.1742
X0.0630Y0.1742
X0.0965Y0.1742
X0.1299Y0.1742
X0.1634Y0.1742
X0.1969Y0.1742
X0.2303Y0.1742
X0.2638Y0.1742
X0.2972Y0.1742
X0.3307Y0.1742
X0.3642Y0.1742
X0.1575Y0.0787
X0.1969Y0.0787
T2
X0.1181Y0.0197
X0.2362Y0.0197
M30
