  0
SECTION
  2
HEADER
  9
$ACADVER
  1
AC1018
  0
ENDSEC
  0
SECTION
  2
TABLES
  0
TABLE
  2
LAYER
  0
LAYER
  2
DRILL
 70
0
 62
0
  0
LAYER
  2
TOP_COMPONENTS
 70
0
 62
7
  0
LAYER
  2
BOTTOM_COMPONENTS
 70
0
 62
7
  0
LAYER
  2
PCB_LAYERS
 70
0
 62
7
  0
ENDTAB
  0
ENDSEC
  0
SECTION
  2
ENTITIES
  0
LWPOLYLINE
  8
PCB_LAYERS
420
8421504
 90
4
 70
1
 10
2.505000
 20
0.305000
 10
2.095000
 20
0.305000
 10
2.095000
 20
0.295000
 10
2.505000
 20
0.295000
  0
LWPOLYLINE
  8
PCB_LAYERS
420
8421504
 90
4
 70
1
 10
5.305000
 20
0.305000
 10
5.095000
 20
0.305000
 10
5.095000
 20
0.295000
 10
5.305000
 20
0.295000
  0
LWPOLYLINE
  8
PCB_LAYERS
420
8421504
 90
4
 70
1
 10
5.905000
 20
0.305000
 10
5.695000
 20
0.305000
 10
5.695000
 20
0.295000
 10
5.905000
 20
0.295000
  0
LWPOLYLINE
  8
PCB_LAYERS
420
8421504
 90
4
 70
1
 10
3.705000
 20
0.305000
 10
3.695000
 20
0.305000
 10
3.695000
 20
0.295000
 10
3.705000
 20
0.295000
  0
LWPOLYLINE
  8
PCB_LAYERS
420
8421504
 90
4
 70
1
 10
4.105000
 20
0.305000
 10
4.095000
 20
0.305000
 10
4.095000
 20
0.295000
 10
4.105000
 20
0.295000
  0
LWPOLYLINE
  8
PCB_LAYERS
420
8421504
 90
4
 70
1
 10
7.305000
 20
0.305000
 10
6.895000
 20
0.305000
 10
6.895000
 20
0.295000
 10
7.305000
 20
0.295000
  0
LWPOLYLINE
  8
PCB_LAYERS
420
8421504
 90
4
 70
1
 10
2.105000
 20
0.305000
 10
1.895000
 20
0.305000
 10
1.895000
 20
0.295000
 10
2.105000
 20
0.295000
  0
LWPOLYLINE
  8
PCB_LAYERS
420
8421504
 90
4
 70
1
 10
2.705000
 20
0.305000
 10
2.495000
 20
0.305000
 10
2.495000
 20
0.295000
 10
2.705000
 20
0.295000
  0
LWPOLYLINE
  8
PCB_LAYERS
420
8421504
 90
4
 70
1
 10
0.505000
 20
0.305000
 10
0.495000
 20
0.305000
 10
0.495000
 20
0.295000
 10
0.505000
 20
0.295000
  0
LWPOLYLINE
  8
PCB_LAYERS
420
8421504
 90
4
 70
1
 10
0.905000
 20
0.305000
 10
0.895000
 20
0.305000
 10
0.895000
 20
0.295000
 10
0.905000
 20
0.295000
  0
LWPOLYLINE
  8
PCB_LAYERS
420
8421504
 90
4
 70
1
 10
6.905000
 20
0.305000
 10
6.695000
 20
0.305000
 10
6.695000
 20
0.295000
 10
6.905000
 20
0.295000
  0
LWPOLYLINE
  8
PCB_LAYERS
420
8421504
 90
4
 70
1
 10
7.505000
 20
0.305000
 10
7.295000
 20
0.305000
 10
7.295000
 20
0.295000
 10
7.505000
 20
0.295000
  0
LWPOLYLINE
  8
PCB_LAYERS
420
8421504
 90
4
 70
1
 10
4.105000
 20
0.305000
 10
3.695000
 20
0.305000
 10
3.695000
 20
0.295000
 10
4.105000
 20
0.295000
  0
LWPOLYLINE
  8
PCB_LAYERS
420
8421504
 90
4
 70
1
 10
5.305000
 20
0.305000
 10
5.295000
 20
0.305000
 10
5.295000
 20
0.295000
 10
5.305000
 20
0.295000
  0
LWPOLYLINE
  8
PCB_LAYERS
420
8421504
 90
4
 70
1
 10
5.705000
 20
0.305000
 10
5.695000
 20
0.305000
 10
5.695000
 20
0.295000
 10
5.705000
 20
0.295000
  0
LWPOLYLINE
  8
PCB_LAYERS
420
8421504
 90
4
 70
1
 10
3.705000
 20
0.305000
 10
3.495000
 20
0.305000
 10
3.495000
 20
0.295000
 10
3.705000
 20
0.295000
  0
LWPOLYLINE
  8
PCB_LAYERS
420
8421504
 90
4
 70
1
 10
4.305000
 20
0.305000
 10
4.095000
 20
0.305000
 10
4.095000
 20
0.295000
 10
4.305000
 20
0.295000
  0
LWPOLYLINE
  8
PCB_LAYERS
420
8421504
 90
4
 70
1
 10
2.105000
 20
0.305000
 10
2.095000
 20
0.305000
 10
2.095000
 20
0.295000
 10
2.105000
 20
0.295000
  0
LWPOLYLINE
  8
PCB_LAYERS
420
8421504
 90
4
 70
1
 10
2.505000
 20
0.305000
 10
2.495000
 20
0.305000
 10
2.495000
 20
0.295000
 10
2.505000
 20
0.295000
  0
LWPOLYLINE
  8
PCB_LAYERS
420
8421504
 90
4
 70
1
 10
0.905000
 20
0.305000
 10
0.495000
 20
0.305000
 10
0.495000
 20
0.295000
 10
0.905000
 20
0.295000
  0
LWPOLYLINE
  8
PCB_LAYERS
420
8421504
 90
4
 70
1
 10
5.705000
 20
0.305000
 10
5.295000
 20
0.305000
 10
5.295000
 20
0.295000
 10
5.705000
 20
0.295000
  0
LWPOLYLINE
  8
PCB_LAYERS
420
8421504
 90
4
 70
1
 10
6.905000
 20
0.305000
 10
6.895000
 20
0.305000
 10
6.895000
 20
0.295000
 10
6.905000
 20
0.295000
  0
LWPOLYLINE
  8
PCB_LAYERS
420
8421504
 90
4
 70
1
 10
7.305000
 20
0.305000
 10
7.295000
 20
0.305000
 10
7.295000
 20
0.295000
 10
7.305000
 20
0.295000
  0
LWPOLYLINE
  8
PCB_LAYERS
420
8421504
 90
4
 70
1
 10
0.505000
 20
0.305000
 10
0.295000
 20
0.305000
 10
0.295000
 20
0.295000
 10
0.505000
 20
0.295000
  0
LWPOLYLINE
  8
PCB_LAYERS
420
8421504
 90
4
 70
1
 10
1.105000
 20
0.305000
 10
0.895000
 20
0.305000
 10
0.895000
 20
0.295000
 10
1.105000
 20
0.295000
  0
ENDSEC
  0
EOF
